<?xml version="1.0" encoding="utf-8"?>
<!-- Generator: Adobe Illustrator 23.0.6, SVG Export Plug-In . SVG Version: 6.00 Build 0)  -->
<svg version="1.1" id="Capa_1" xmlns="http://www.w3.org/2000/svg" xmlns:xlink="http://www.w3.org/1999/xlink" x="0px" y="0px"
	 viewBox="0 0 1331.5 725.5" style="enable-background:new 0 0 1331.5 725.5;" xml:space="preserve">
<style type="text/css">
	.st0{fill:url(#SVGID_1_);}
	.st1{fill:url(#SVGID_2_);}
	.st2{fill:url(#SVGID_3_);}
	.st3{fill:url(#SVGID_4_);}
	.st4{fill:url(#SVGID_5_);}
	.st5{fill:url(#SVGID_6_);}
	.st6{fill:url(#SVGID_7_);}
</style>
<title>home_bk</title>
<g>
	<g>
		<g id="Assets_2_">
			<linearGradient id="SVGID_1_" gradientUnits="userSpaceOnUse" x1="27.4717" y1="-399.3639" x2="1351.6456" y2="812.1143">
				<stop  offset="0" style="stop-color:#B12384"/>
				<stop  offset="1" style="stop-color:#08478E"/>
			</linearGradient>
			<path class="st0" d="M1314.2,0.1L55.6,0c18.2,58.5-3.1,120.8-10.7,181.6C32.5,282.3,60.7,388.6,126.4,466
				s169.2,122.8,270.2,112.9c72.8-7.2,143.2-41.3,215.8-33.4c75.1,8.2,133.1,58.4,199.2,89.1c17.6,8.2,34.5,17.7,53.2,23.4
				c64.8,19.7,133,3.4,189.1-31.8c14.6-9.2,28.7-19.3,42.1-30.2c27-21.9,51.5-46.7,73.2-73.8c35.7-44.4,64.3-94.5,85.5-147.4
				c47.4-118.1,60-247.4,60-374.7L1314.2,0.1z"/>
			<linearGradient id="SVGID_2_" gradientUnits="userSpaceOnUse" x1="-236.64" y1="-110.6837" x2="1087.5339" y2="1100.7946">
				<stop  offset="0" style="stop-color:#B12384"/>
				<stop  offset="1" style="stop-color:#08478E"/>
			</linearGradient>
			<path class="st1" d="M33.4,131.6c-0.3-0.3-0.7-0.6-1.1-0.8l-0.9-0.2h-0.2c-0.7-0.1-1.3,0-1.9,0.2c-0.4,0.2-0.8,0.4-1.1,0.8
				c-0.3,0.3-0.6,0.7-0.8,1.1l-0.2,0.9c0,0.3,0,0.6,0,0.9c0,0.5,0.2,0.9,0.5,1.3c0.1,0.3,0.3,0.5,0.6,0.7c0.3,0.3,0.7,0.6,1.1,0.8
				l0.9,0.3c0.7,0.1,1.3,0,1.9-0.3l0.2-0.1c0.4-0.1,0.8-0.4,1.1-0.8c0.3-0.3,0.6-0.7,0.8-1.1l0.2-0.9c0-0.3,0-0.6,0-0.9
				c0-0.5-0.2-0.9-0.5-1.3C33.8,132,33.7,131.7,33.4,131.6z"/>
			<linearGradient id="SVGID_3_" gradientUnits="userSpaceOnUse" x1="-199.2608" y1="-151.54" x2="1124.9131" y2="1059.9382">
				<stop  offset="0" style="stop-color:#B12384"/>
				<stop  offset="1" style="stop-color:#08478E"/>
			</linearGradient>
			<path class="st2" d="M38.8,0.1H18.2c7.4,19.2,10.7,42.6,6.9,68.8c-1.9,13.3-10.1,29-8,42c0.7,4,5,6.3,8.9,5.3
				c15.2-3.9,23.5-32.2,24.9-45.1C55.2,36,46.4,12.9,38.8,0.1z"/>
			<linearGradient id="SVGID_4_" gradientUnits="userSpaceOnUse" x1="-214.6853" y1="-134.6807" x2="1109.4886" y2="1076.7976">
				<stop  offset="0" style="stop-color:#B12384"/>
				<stop  offset="1" style="stop-color:#08478E"/>
			</linearGradient>
			<path class="st3" d="M575.8,588.7l0.5-0.1C575.8,588.7,575.2,588.8,575.8,588.7z"/>
			<linearGradient id="SVGID_5_" gradientUnits="userSpaceOnUse" x1="-243.0688" y1="-103.6569" x2="1081.1051" y2="1107.8214">
				<stop  offset="0" style="stop-color:#B12384"/>
				<stop  offset="1" style="stop-color:#08478E"/>
			</linearGradient>
			<path class="st4" d="M520.5,589c-0.1-0.5-0.2-1-0.3-1.6c-0.2-0.8-0.6-1.4-1.1-2c-0.3-0.4-0.7-0.8-1.1-1c-0.6-0.5-1.3-0.9-2.1-1
				l-1.5-0.1l-1.4,0.3c-0.7,0.2-1.3,0.6-1.8,1.2c-0.6,0.5-1.1,1.1-1.4,1.8c0,0.1-0.1,0.2-0.1,0.3c-0.5,1.1-0.7,2.2-0.6,3.4l0.3,1.6
				c0.2,0.8,0.6,1.4,1.2,2c0.3,0.4,0.7,0.8,1.1,1.1c0.6,0.5,1.3,0.9,2.1,1l1.5,0.1l1.5-0.3c0.7-0.2,1.4-0.6,1.9-1.2
				c0.6-0.5,1.1-1.1,1.4-1.8c0.5-1.1,0.7-2.2,0.6-3.4C520.5,589.2,520.5,589.1,520.5,589z"/>
			<linearGradient id="SVGID_6_" gradientUnits="userSpaceOnUse" x1="-169.4891" y1="-184.0812" x2="1154.6848" y2="1027.3971">
				<stop  offset="0" style="stop-color:#B12384"/>
				<stop  offset="1" style="stop-color:#08478E"/>
			</linearGradient>
			<path class="st5" d="M749,651.5l-0.5-0.7l-0.8-0.6c-0.4-0.2-0.8-0.4-1.3-0.4c-0.3-0.1-0.6-0.1-0.9,0c-0.4,0-0.9,0.2-1.3,0.4
				l-0.7,0.5l-0.1,0.1c-0.5,0.5-0.8,1.1-1,1.7c-0.2,0.9,0,1.8,0.4,2.6l0.6,0.7l0.8,0.6c0.4,0.2,0.9,0.4,1.3,0.4
				c0.3,0.1,0.6,0.1,0.9,0c0.5,0,0.9-0.2,1.3-0.4l0.7-0.6c0.5-0.5,0.8-1.1,1-1.7v-0.2c0.1-0.4,0.1-0.9,0-1.3
				C749.3,652.4,749.2,651.9,749,651.5z"/>
			<linearGradient id="SVGID_7_" gradientUnits="userSpaceOnUse" x1="-196.7687" y1="-154.264" x2="1127.4053" y2="1057.2142">
				<stop  offset="0" style="stop-color:#B12384"/>
				<stop  offset="1" style="stop-color:#08478E"/>
			</linearGradient>
			<path class="st6" d="M691.1,587.1c-8.7-5.8-17.9-10.8-27.5-15c-35.9-15.6-77-19.3-115-9.6c-7.1,1.8-14.4,4.2-20,8.9
				c-2,1.7-3.9,4-3.4,6.6c0.4,2,2,3.4,3.8,4.3c3.7,1.9,8.1,2.2,12.3,2.4c27.4,1.2,55,0,82,4.3s54.3,15.1,71.9,36
				c5.6,6.6,10.2,14.2,16.3,20.4c4.3,4.4,11.4,9.3,15.9,3c3.9-5.5,2.1-14.2,0-20C720.7,610.9,706.5,597.4,691.1,587.1z"/>
		</g>
	</g>
</g>
</svg>
