<svg xmlns="http://www.w3.org/2000/svg" xmlns:xlink="http://www.w3.org/1999/xlink" viewBox="0 0 120 120"><defs><style>.cls-1{fill:none;}.cls-2{fill:#fff;}.cls-3{fill:url(#Degradado_sin_nombre_3);}.cls-4{fill:url(#Degradado_sin_nombre_3-2);}.cls-5,.cls-6{font-size:15.39px;font-family:Roboto-Bold, Roboto;font-weight:700;}.cls-5{fill:#444058;}.cls-6{fill:#2b55d3;}</style><linearGradient id="Degradado_sin_nombre_3" x1="33.76" y1="23.84" x2="86.24" y2="76.32" gradientUnits="userSpaceOnUse"><stop offset="0" stop-color="#00effa"/><stop offset="1" stop-color="#634eef"/></linearGradient><linearGradient id="Degradado_sin_nombre_3-2" x1="47.05" y1="37.1" x2="73.46" y2="63.51" xlink:href="#Degradado_sin_nombre_3"/></defs><title>aliado_06</title><g id="Capa_2" data-name="Capa 2"><g id="Assets"><rect class="cls-1" width="120" height="120"/><circle class="cls-2" cx="60" cy="50.02" r="29.74" transform="translate(-14.57 26.77) rotate(-22.5)"/><path class="cls-3" d="M95.48,39.16h0A37.17,37.17,0,0,0,67.7,13.77c-.89-.19-1.79-.34-2.7-.47h0l-1.2-.14c-1-.1-2-.17-3-.19H60c-.76,0-1.52,0-2.27.07a37.11,37.11,0,0,0,0,74.08c.75,0,1.51.07,2.27.07h.75c1,0,2-.08,3-.18A37.16,37.16,0,0,0,95.48,39.16ZM63.8,78.29a30.59,30.59,0,0,1-3,.24H60c-.76,0-1.52,0-2.27-.09a28.47,28.47,0,0,1,0-56.75c.75-.06,1.51-.09,2.27-.09h.75a27.87,27.87,0,0,1,3,.25h0a28.85,28.85,0,0,1,3.87.8,28.52,28.52,0,0,1,19.51,19h0A28.5,28.5,0,0,1,63.8,78.29Z"/><path class="cls-4" d="M72.62,50.91A12.73,12.73,0,0,0,69.76,49c-.79-.37-1.61-.71-2.48-1h0c-.33-.12-.67-.24-1-.35-1.25-.4-2.53-.79-3.84-1.18V38.57a14.32,14.32,0,0,1,2.21.31,15.86,15.86,0,0,1,1.61.48c.47.17.93.31,1.38.43a5.64,5.64,0,0,0,1.29.19h.21a5.27,5.27,0,0,0,2.24-.48,3.81,3.81,0,0,0,1.52-1.26,3.08,3.08,0,0,0,.57-1.76,2.92,2.92,0,0,0-.73-2,5.72,5.72,0,0,0-1.9-1.41,13,13,0,0,0-1.91-.72c-.24-.08-.49-.14-.74-.2a22.71,22.71,0,0,0-2.94-.55c-.89-.12-1.74-.2-2.54-.24h0l-.27,0V28.55a1.43,1.43,0,0,0-.48-1,1.73,1.73,0,0,0-1.15-.44h0a1.75,1.75,0,0,0-1.11.44,1.41,1.41,0,0,0-.49,1v2.83c-.67,0-1.32.09-1.94.18a17.33,17.33,0,0,0-4.9,1.34,10.32,10.32,0,0,0-4.43,3.62,9.86,9.86,0,0,0-1.57,5.55A9.55,9.55,0,0,0,47.06,46a8.35,8.35,0,0,0,2,2.79,12.88,12.88,0,0,0,2.94,2,25,25,0,0,0,3.48,1.4l1.72.55,1.94.57v8.43a18,18,0,0,1-1.94-.24l-.63-.14c-.77-.19-1.48-.4-2.14-.61s-1.29-.41-1.91-.57a8,8,0,0,0-1.9-.25,5.15,5.15,0,0,0-2.51.58A3.77,3.77,0,0,0,46.7,61.8a3.18,3.18,0,0,0-.46,1.6,2.9,2.9,0,0,0,.84,2,7.14,7.14,0,0,0,2.19,1.5,17.41,17.41,0,0,0,3.06,1,28.15,28.15,0,0,0,3.46.64l1.42.15c.67.06,1.32.09,1.94.1V71.6a1.41,1.41,0,0,0,.46,1,1.66,1.66,0,0,0,1.14.44h0A1.7,1.7,0,0,0,62,72.63a1.38,1.38,0,0,0,.46-1V68.72c.66-.06,1.3-.15,1.91-.26a18.75,18.75,0,0,0,3.22-.86,13.54,13.54,0,0,0,4.08-2.31,10,10,0,0,0,2.67-3.45,10.52,10.52,0,0,0,1-4.55,9.12,9.12,0,0,0-.71-3.73A7.6,7.6,0,0,0,72.62,50.91Zm-13.47-5.5L57.9,44.9a7,7,0,0,1-.69-.31c-.16-.08-.33-.17-.49-.27a3.25,3.25,0,0,1-1-1,2.79,2.79,0,0,1-.43-1.56,2.7,2.7,0,0,1,.52-1.67,3.31,3.31,0,0,1,1.38-1h0a7.87,7.87,0,0,1,1.94-.48Zm6.07,14.8a4.25,4.25,0,0,1-.9.63,6.49,6.49,0,0,1-1.91.64v-7.3l1.26.45a6.17,6.17,0,0,1,.65.29c.17.08.34.18.52.28a2.91,2.91,0,0,1,1.4,2.6A3.18,3.18,0,0,1,65.22,60.21Z"/><text class="cls-5" transform="translate(66.7 102.77)">ABC</text><text class="cls-6" transform="translate(23.07 102.86)">Banco</text></g></g></svg>