<svg xmlns="http://www.w3.org/2000/svg" viewBox="0 0 120 120"><defs><style>.cls-1{fill:none;}.cls-2{fill:#b90048;}.cls-3{fill:#39b34a;}</style></defs><title>aliado_01</title><g id="Capa_2" data-name="Capa 2"><g id="Assets"><rect class="cls-1" width="120" height="120"/><rect class="cls-2" x="66.11" y="25.6" width="25.49" height="23.23" rx="4.34" transform="translate(-3.22 66.66) rotate(-45)"/><path class="cls-3" d="M50.23,42.84A.87.87,0,1,0,49,44.08l.86.86L51.1,43.7Z"/><path class="cls-3" d="M50.73,49l-.87-.87L48.62,49.4l.87.87A.88.88,0,1,0,50.73,49Z"/><path class="cls-3" d="M72.74,53.62,42.79,23.68a4.33,4.33,0,0,0-6.14,0L27,33.34a4.33,4.33,0,0,0,0,6.14l29.94,30a4.35,4.35,0,0,0,6.14,0l9.67-9.67A4.35,4.35,0,0,0,72.74,53.62Zm-23.25-.13-1-1L47,51l-.68.68a.88.88,0,0,1-1.24,0l-.37-.37a.88.88,0,0,1,0-1.24l.68-.68-2.47-2.48a.87.87,0,0,1,0-1.23l.37-.38a.88.88,0,0,1,1.24,0L47,47.79l1.24-1.24-1.48-1.48-1-1a.86.86,0,0,1,0-1.24l1-1L48,40.61l1-1a.87.87,0,0,1,1.23,0l1,1,1.49,1.48.68-.68a.88.88,0,0,1,1.24,0l.37.38A.87.87,0,0,1,55,43l-.68.68,2.48,2.48a.88.88,0,0,1,0,1.24l-.38.37a.87.87,0,0,1-1.23,0l-2.48-2.48-1.24,1.24L53,48l1,1a.88.88,0,0,1,0,1.24l-1,1L51.72,52.5l-1,1A.88.88,0,0,1,49.49,53.49Z"/><path class="cls-2" d="M14.91,85v-.1h6.4v1.19h-.1v0a.05.05,0,0,1,0,0,.94.94,0,0,0-.38-.64,1.82,1.82,0,0,0-.76-.12H16.79V89.7h3a1.27,1.27,0,0,0,.53-.07.3.3,0,0,0,.17-.27h.1v1h-.1c0-.24-.15-.35-.45-.35H16.79v4a1,1,0,0,0,.18.73.88.88,0,0,0,.6.17V95H14.91v-.1c.32,0,.51-.06.59-.18a.82.82,0,0,0,.13-.5V85.91a1.27,1.27,0,0,0-.15-.71A.66.66,0,0,0,14.91,85Z"/><path class="cls-2" d="M26.72,84.9V85a1.19,1.19,0,0,0-.44.06.43.43,0,0,0-.29.24,3.88,3.88,0,0,0,0,.75v7.76a2.93,2.93,0,0,0,.05.77.44.44,0,0,0,.2.23,1,1,0,0,0,.52.1V95H24v-.1c.34,0,.55-.07.63-.2a1.87,1.87,0,0,0,.13-.89V86.14a2.08,2.08,0,0,0-.14-.94c-.09-.15-.3-.22-.62-.2v-.1Z"/><path class="cls-2" d="M38.14,84.9h2V85a.9.9,0,0,0-.62.19,1.14,1.14,0,0,0-.17.74v9.2l-8.06-8.59V94a1.81,1.81,0,0,0,.05.53.41.41,0,0,0,.16.23,2.15,2.15,0,0,0,.51.13V95H30v-.1c.35,0,.56-.07.65-.19a1.92,1.92,0,0,0,.13-.88V87a3.81,3.81,0,0,0-.25-1.47C30.39,85.15,30,85,29.4,85v-.1h1.9L38.88,93V85.83c0-.38-.07-.62-.21-.7a1,1,0,0,0-.53-.13Z"/><path class="cls-2" d="M48.22,90.36h-3l-1.54,3.81a2.47,2.47,0,0,0-.15.51c0,.15.11.23.33.23V95H42.4v-.1a.85.85,0,0,0,.51-.15,1.94,1.94,0,0,0,.45-.77L47,84.75h.19l3.6,8.93a3.83,3.83,0,0,0,.28.65.89.89,0,0,0,.84.58V95H49.57v-.1c.22,0,.33-.09.33-.26a1.85,1.85,0,0,0-.16-.55.19.19,0,0,1-.05-.09l0-.07Zm-2.87-.29h2.74l-1.37-3.44Z"/><path class="cls-2" d="M63,84.9h2V85a.88.88,0,0,0-.62.19,1.14,1.14,0,0,0-.17.74v9.2l-8.07-8.59V94a1.75,1.75,0,0,0,.06.53.37.37,0,0,0,.16.23,2,2,0,0,0,.51.13V95H54.84v-.1c.35,0,.56-.07.65-.19a2,2,0,0,0,.12-.88V87a3.63,3.63,0,0,0-.25-1.47c-.16-.38-.55-.56-1.15-.53v-.1h1.9L63.69,93V85.83c0-.38-.07-.62-.21-.7A1,1,0,0,0,63,85Z"/><path class="cls-2" d="M76.74,85.41l.38,1.07H77A4.72,4.72,0,0,0,73.56,85a4.6,4.6,0,0,0-3.34,1.22,4,4,0,0,0-1.27,3,6.69,6.69,0,0,0,.57,2.47A5.21,5.21,0,0,0,71.31,94a4.83,4.83,0,0,0,3,.9,6.88,6.88,0,0,0,2.24-.37,3.62,3.62,0,0,0,1.63-1l.09,0-.71,1.09c-1.14.25-1.89.39-2.23.44a11.83,11.83,0,0,1-1.37.07c-2.11,0-3.63-.49-4.54-1.48A5,5,0,0,1,68,90.17a5.49,5.49,0,0,1,.7-2.67,5.1,5.1,0,0,1,2-2,6,6,0,0,1,3-.74,6.4,6.4,0,0,1,1.47.15,7.54,7.54,0,0,1,1,.32l.45.17Z"/><path class="cls-2" d="M83.61,84.9V85a1.19,1.19,0,0,0-.44.06.43.43,0,0,0-.29.24,3.88,3.88,0,0,0,0,.75v7.76a2.93,2.93,0,0,0,0,.77.44.44,0,0,0,.2.23,1,1,0,0,0,.52.1V95H80.92v-.1c.33,0,.55-.07.63-.2a2.05,2.05,0,0,0,.12-.89V86.14a2,2,0,0,0-.14-.94c-.09-.15-.29-.22-.61-.2v-.1Z"/><path class="cls-2" d="M92.09,90.36h-3l-1.53,3.81a2.16,2.16,0,0,0-.16.51c0,.15.11.23.34.23V95H86.26v-.1a.83.83,0,0,0,.51-.15,1.83,1.83,0,0,0,.45-.77l3.67-9.24h.18l3.6,8.93a5.15,5.15,0,0,0,.28.65.92.92,0,0,0,.85.58V95H93.44v-.1c.21,0,.32-.09.32-.26a1.58,1.58,0,0,0-.16-.55.36.36,0,0,1,0-.09s0-.07,0-.07Zm-2.87-.29H92l-1.37-3.44Z"/><path class="cls-2" d="M98.15,95v-.1a.76.76,0,0,0,.61-.18,1.05,1.05,0,0,0,.14-.61V85.85a1.41,1.41,0,0,0-.11-.64q-.11-.19-.66-.21v-.1h2.71V85a1,1,0,0,0-.52.1.42.42,0,0,0-.2.22,1.9,1.9,0,0,0-.05.59V93a1.6,1.6,0,0,0,.44,1.29,2.32,2.32,0,0,0,1.5.37h1.23a1.7,1.7,0,0,0,1.31-.44,2.62,2.62,0,0,0,.46-1.65h.1V95Z"/></g></g></svg>