<?xml version="1.0" encoding="utf-8"?>
<!-- Generator: Adobe Illustrator 23.0.6, SVG Export Plug-In . SVG Version: 6.00 Build 0)  -->
<svg version="1.1" xmlns="http://www.w3.org/2000/svg" xmlns:xlink="http://www.w3.org/1999/xlink" x="0px" y="0px"
	 viewBox="0 0 299.2 330.4" style="enable-background:new 0 0 299.2 330.4;" xml:space="preserve">
<style type="text/css">
	.st0{fill:#FFFFFF;}
	.st1{fill:#E0ECF6;}
	.st2{fill:#8DBBDD;}
	.st3{fill:none;stroke:#3184C1;stroke-width:1.3621;stroke-linecap:round;stroke-linejoin:round;stroke-miterlimit:10;}
	.st4{fill:#A1C7E3;}
	.st5{fill:none;stroke:#8DBBDD;stroke-width:1.3621;stroke-linecap:round;stroke-linejoin:round;stroke-miterlimit:10;}
	.st6{fill:#3184C1;}
	.st7{fill:none;stroke:#0D6EB6;stroke-width:1.2244;stroke-linecap:round;stroke-linejoin:round;stroke-miterlimit:10;}
	.st8{fill:none;stroke:#8DBBDD;stroke-width:1.5702;stroke-linecap:round;stroke-linejoin:round;stroke-miterlimit:10;}
	.st9{opacity:0.3;}
	.st10{fill:#D6E6F3;}
	.st11{fill:#E9F2F8;}
	.st12{fill:#5A9DCE;}
	.st13{fill:none;stroke:#E9F2F8;stroke-miterlimit:10;}
	.st14{fill:#CCCCCC;}
	.st15{fill:#FF97A8;}
	.st16{fill:#FF5D7B;}
	.st17{fill:#08478E;}
	.st18{fill:#331239;}
	.st19{fill:#3B2B5B;}
	.st20{fill:#380A37;}
	.st21{fill:#B7CADE;}
	.st22{fill:#5E87B5;}
	.st23{fill:#295A6E;}
	.st24{fill:#3E7687;}
	.st25{fill:#F39734;}
	.st26{fill:none;}
	.st27{fill:#EF7F19;}
	.st28{fill:#FDCA49;}
	.st29{fill:#86B7DB;}
	.st30{fill:#FF97A6;}
	.st31{fill:#C95D77;}
	.st32{fill:#30193B;}
	.st33{fill:#FFCB48;}
	.st34{fill:#FF9A2E;}
	.st35{clip-path:url(#SVGID_2_);}
	.st36{fill:#0D6EB6;}
	.st37{clip-path:url(#SVGID_4_);}
	.st38{fill:#EFEFF6;}
	.st39{fill:#EF7F18;}
	.st40{fill:#4071A8;}
	.st41{fill:#0A498F;}
	.st42{fill:#3A7182;}
	.st43{fill:#E6E6E6;}
	.st44{fill:#FF9A19;}
	.st45{fill:#FFCB37;}
	.st46{opacity:0.1;}
	.st47{fill:#30183A;}
	.st48{fill:#F194A5;}
	.st49{fill:#C85D77;}
	.st50{fill:#BA2F7D;}
	.st51{fill:#B12384;}
	.st52{fill:#62BCD6;}
	.st53{fill:#BF7323;}
	.st54{fill:#80CAD5;}
	.st55{fill:#767579;}
	.st56{opacity:0.8;}
	.st57{fill:#9BCBE9;}
	.st58{fill:#3E275C;}
	.st59{fill:#406EB3;}
	.st60{fill:#DDD6FC;}
	.st61{fill:#EEEAFE;}
	.st62{fill:#7F65C1;}
	.st63{fill:none;stroke:#EEEAFE;stroke-width:0.5019;stroke-miterlimit:10;}
	.st64{fill:#EAE6FF;}
	.st65{fill:#D4EAF5;}
	.st66{fill:#A9CAE7;}
	.st67{fill:#ABC8E6;}
	.st68{fill:#D1C5FC;}
	.st69{fill:#CBB3FC;}
	.st70{fill:#CEAFF9;}
	.st71{fill:#FFC200;}
	.st72{fill:#E8853A;}
	.st73{fill:#5AC0F9;}
	.st74{fill:#53F9F4;}
	.st75{fill:#BF3904;}
	.st76{fill:#822302;}
	.st77{fill:#7964A8;}
	.st78{fill:#8865C4;}
	.st79{fill:#CCEAF5;}
	.st80{fill:#FFD67C;}
	.st81{fill:url(#SVGID_5_);}
	.st82{fill:url(#SVGID_6_);}
	.st83{fill:url(#SVGID_7_);}
	.st84{fill:url(#SVGID_8_);}
	.st85{fill:url(#SVGID_9_);}
	.st86{fill:url(#SVGID_10_);}
	.st87{fill:url(#SVGID_11_);}
	.st88{fill:#54565A;}
	.st89{fill:#9F79FF;}
	.st90{fill:#F2EEFF;}
	.st91{opacity:0.4;}
	.st92{fill:#E45D79;}
	.st93{fill:#FFE5AE;}
	.st94{fill:#FF97A7;}
	.st95{fill:#82CBEA;}
	.st96{fill:#BFEAF5;}
	.st97{fill:#8FD9ED;}
	.st98{fill:#43225D;}
	.st99{fill:#5C319A;}
	.st100{opacity:0.5;fill:url(#SVGID_12_);}
	.st101{fill:#632678;}
	.st102{fill:none;stroke:#FFFFFF;stroke-width:2;stroke-linecap:round;stroke-linejoin:round;stroke-miterlimit:10;}
	.st103{fill:none;stroke:#EEEAFE;stroke-miterlimit:10;}
	.st104{fill:#F98A8A;}
	.st105{fill:#AACBE8;}
	.st106{fill:#99B4DD;}
	.st107{fill:#6A54AF;}
	.st108{fill:#FD9E38;}
	.st109{fill:#DBCFFD;}
	.st110{fill:#B5B5B5;}
	.st111{fill:#80540A;}
	.st112{fill:#AD7121;}
	.st113{fill:#D5EAF5;}
	.st114{opacity:0.3;fill:#3B2B5B;}
	.st115{fill:#BAA4FF;}
	.st116{fill:#4E3E75;}
	.st117{fill:#D07BB5;}
	.st118{fill:#C14F9D;}
	.st119{fill:none;stroke:#000000;stroke-width:0.75;stroke-linecap:round;stroke-linejoin:round;stroke-miterlimit:10;}
	.st120{fill:#B3B3B3;}
	.st121{fill:#F2F2F2;}
	.st122{fill:#141414;}
	.st123{fill:#A3A3A3;}
	.st124{fill:#474747;}
	.st125{fill:#C7C7C7;}
	.st126{fill:#DBDBDB;}
</style>
<g id="Fondo">
</g>
<g id="Capa_7">
</g>
<g id="Contenido">
</g>
<g id="Footer">
</g>
<g id="Header">
</g>
<g id="Alertas">
</g>
<g id="Capa_2">
	<g>
		<g>
			<g class="st9">
				<path d="M249.4,302.2c0,3.2-43.6,5.7-97.5,5.7s-97.5-2.6-97.5-5.7c0-3.2,43.6-5.7,97.5-5.7S249.4,299,249.4,302.2z"/>
			</g>
			<g>
				<path class="st60" d="M241.8,81.4v195c0,13.9-11.3,25.2-25.2,25.2H89.4c-13.9,0-25.2-11.3-25.2-25.2v-195
					c0-13.9,11.3-25.2,25.2-25.2h127.1C230.5,56.2,241.8,67.4,241.8,81.4z"/>
				<path class="st61" d="M227.9,80.4v197c0,5.5-4.4,9.9-9.9,9.9H88c-5.5,0-9.9-4.4-9.9-9.9v-197c0-5.5,4.4-9.9,9.9-9.9h130
					C223.4,70.5,227.9,74.9,227.9,80.4z"/>
				<path class="st62" d="M218.9,89v26.3c0,1.8-1.5,3.3-3.3,3.3H90.4c-1.8,0-3.3-1.5-3.3-3.3V89c0-1.8,1.5-3.3,3.3-3.3h125.2
					C217.4,85.8,218.9,87.2,218.9,89z"/>
				<path class="st60" d="M113.3,142.7v22c0,1.5-1.2,2.7-2.7,2.7H89.8c-1.5,0-2.7-1.2-2.7-2.7v-22c0-1.5,1.2-2.7,2.7-2.7h20.7
					C112.1,140,113.3,141.2,113.3,142.7z"/>
				<path class="st60" d="M148.5,142.7v22c0,1.5-1.2,2.7-2.7,2.7H125c-1.5,0-2.7-1.2-2.7-2.7v-22c0-1.5,1.2-2.7,2.7-2.7h20.7
					C147.2,140,148.5,141.2,148.5,142.7z"/>
				<path class="st60" d="M183.7,142.7v22c0,1.5-1.2,2.7-2.7,2.7h-20.7c-1.5,0-2.7-1.2-2.7-2.7v-22c0-1.5,1.2-2.7,2.7-2.7h20.7
					C182.4,140,183.7,141.2,183.7,142.7z"/>
				<path class="st60" d="M218.9,142.7v22c0,1.5-1.2,2.7-2.7,2.7h-20.7c-1.5,0-2.7-1.2-2.7-2.7v-22c0-1.5,1.2-2.7,2.7-2.7h20.7
					C217.6,140,218.9,141.2,218.9,142.7z"/>
				<path class="st60" d="M113.3,178.1v22c0,1.5-1.2,2.7-2.7,2.7H89.8c-1.5,0-2.7-1.2-2.7-2.7v-22c0-1.5,1.2-2.7,2.7-2.7h20.7
					C112.1,175.3,113.3,176.6,113.3,178.1z"/>
				<path class="st60" d="M148.5,178.1v22c0,1.5-1.2,2.7-2.7,2.7H125c-1.5,0-2.7-1.2-2.7-2.7v-22c0-1.5,1.2-2.7,2.7-2.7h20.7
					C147.2,175.3,148.5,176.6,148.5,178.1z"/>
				<path class="st60" d="M183.7,178.1v22c0,1.5-1.2,2.7-2.7,2.7h-20.7c-1.5,0-2.7-1.2-2.7-2.7v-22c0-1.5,1.2-2.7,2.7-2.7h20.7
					C182.4,175.3,183.7,176.6,183.7,178.1z"/>
				<path class="st60" d="M218.9,178.1v22c0,1.5-1.2,2.7-2.7,2.7h-20.7c-1.5,0-2.7-1.2-2.7-2.7v-22c0-1.5,1.2-2.7,2.7-2.7h20.7
					C217.6,175.3,218.9,176.6,218.9,178.1z"/>
				<path class="st60" d="M113.3,213.4v22c0,1.5-1.2,2.7-2.7,2.7H89.8c-1.5,0-2.7-1.2-2.7-2.7v-22c0-1.5,1.2-2.7,2.7-2.7h20.7
					C112.1,210.7,113.3,211.9,113.3,213.4z"/>
				<path class="st60" d="M148.5,213.4v22c0,1.5-1.2,2.7-2.7,2.7H125c-1.5,0-2.7-1.2-2.7-2.7v-22c0-1.5,1.2-2.7,2.7-2.7h20.7
					C147.2,210.7,148.5,211.9,148.5,213.4z"/>
				<path class="st60" d="M183.7,213.4v22c0,1.5-1.2,2.7-2.7,2.7h-20.7c-1.5,0-2.7-1.2-2.7-2.7v-22c0-1.5,1.2-2.7,2.7-2.7h20.7
					C182.4,210.7,183.7,211.9,183.7,213.4z"/>
				<path class="st60" d="M218.9,214.8v54.6c0,2.3-1.9,4.2-4.2,4.2h-17.9c-2.3,0-4.2-1.9-4.2-4.2v-54.6c0-2.3,1.9-4.2,4.2-4.2h17.9
					C217,210.7,218.9,212.6,218.9,214.8z"/>
				<path class="st60" d="M113.3,248.8v22c0,1.5-1.2,2.7-2.7,2.7H89.8c-1.5,0-2.7-1.2-2.7-2.7v-22c0-1.5,1.2-2.7,2.7-2.7h20.7
					C112.1,246,113.3,247.3,113.3,248.8z"/>
				<path class="st60" d="M148.5,248.8v22c0,1.5-1.2,2.7-2.7,2.7H125c-1.5,0-2.7-1.2-2.7-2.7v-22c0-1.5,1.2-2.7,2.7-2.7h20.7
					C147.2,246,148.5,247.3,148.5,248.8z"/>
				<path class="st60" d="M183.7,248.8v22c0,1.5-1.2,2.7-2.7,2.7h-20.7c-1.5,0-2.7-1.2-2.7-2.7v-22c0-1.5,1.2-2.7,2.7-2.7h20.7
					C182.4,246,183.7,247.3,183.7,248.8z"/>
				<g>
					<line class="st103" x1="201.3" y1="92" x2="209.6" y2="92"/>
					<line class="st103" x1="200.5" y1="92.8" x2="200.5" y2="101"/>
					<line class="st103" x1="210.4" y1="101" x2="210.4" y2="92.8"/>
					<line class="st103" x1="200.5" y1="102.6" x2="200.5" y2="110.9"/>
					<line class="st103" x1="209.6" y1="111.7" x2="201.3" y2="111.7"/>
					<line class="st103" x1="210.4" y1="110.9" x2="210.4" y2="102.6"/>
				</g>
				<g>
					<line class="st103" x1="186.6" y1="92" x2="194.9" y2="92"/>
					<line class="st103" x1="194.9" y1="101.8" x2="186.6" y2="101.8"/>
					<line class="st103" x1="195.7" y1="101" x2="195.7" y2="92.8"/>
					<line class="st103" x1="185.8" y1="102.6" x2="185.8" y2="110.9"/>
					<line class="st103" x1="194.9" y1="111.7" x2="186.6" y2="111.7"/>
				</g>
				<g>
					<line class="st103" x1="172" y1="92" x2="180.2" y2="92"/>
					<line class="st103" x1="171.1" y1="92.8" x2="171.1" y2="101"/>
					<line class="st103" x1="180.2" y1="101.8" x2="172" y2="101.8"/>
					<line class="st103" x1="180.2" y1="111.7" x2="172" y2="111.7"/>
					<line class="st103" x1="181" y1="110.9" x2="181" y2="102.6"/>
				</g>
				<line class="st103" x1="166.3" y1="111.7" x2="164" y2="111.7"/>
				<g>
					<line class="st103" x1="149.4" y1="92.8" x2="149.4" y2="101"/>
					<line class="st103" x1="158.4" y1="101.8" x2="150.2" y2="101.8"/>
					<line class="st103" x1="159.2" y1="101" x2="159.2" y2="92.8"/>
					<line class="st103" x1="159.2" y1="110.9" x2="159.2" y2="102.6"/>
				</g>
				<g>
					<line class="st103" x1="135.5" y1="92" x2="143.8" y2="92"/>
					<line class="st103" x1="143.8" y1="101.8" x2="135.5" y2="101.8"/>
					<line class="st103" x1="144.6" y1="101" x2="144.6" y2="92.8"/>
					<line class="st103" x1="143.8" y1="111.7" x2="135.5" y2="111.7"/>
					<line class="st103" x1="144.6" y1="110.9" x2="144.6" y2="102.6"/>
				</g>
			</g>
		</g>
		<g>
			<g>
				<g>
					<g>
						<path class="st19" d="M260.4,68.7c0,0,2.8-1.8,5.7-0.6c2.6,1.1,2.2,3,2.2,3s5.7-2.7,10.6,4.6c4.9,7.3-4.1,14.4-6.9,13.7
							c-2.7-0.7-20.8-8.3-20.8-8.3s0-11.7,2.5-12.7C256.2,67.3,260.4,68.7,260.4,68.7z"/>
					</g>
					<g>
						<g>
							<path class="st104" d="M250.5,101.6c4.3,0.3,1.5,28.4,2.1,40.8c0.2,3.9,0.7,7.7,1.6,11.5l6.3,35l0.6-0.1c0,0,3.6-27.1,2-41.5
								c-1.1-10.2,10.5-32.6,1-46.6C261.3,100.1,254.8,101.2,250.5,101.6z"/>
						</g>
					</g>
					<g>
						<g>
							<g>
								<g>
									<path class="st32" d="M255.9,191c0.2-0.4,1.7-1.1,2.8-1.5c-0.3,0.2-0.7,0.5-0.1,0.7c0.8,0.2,2.5-0.1,3-0.7
										c0.2,0.4,0.3,1,0.3,1.4C261.8,191.4,255.5,191.9,255.9,191z"/>
								</g>
							</g>
						</g>
						<g>
							<g>
								<g>
									<path class="st104" d="M258.6,190.2c-0.5-0.1-0.2-0.5,0.1-0.7c0.7-0.2,1.3-0.4,1.4-0.5c0.3-0.2,0.4-0.5,0.4-0.5l0.4-0.1
										c0,0,0.6,0.9,0.7,1.1C261.1,190.1,259.4,190.4,258.6,190.2z"/>
								</g>
							</g>
						</g>
					</g>
					<g>
						<g>
							<path class="st30" d="M255.2,101.9c0,0.2,12.3,46.1,12.3,46.1l4.9,40.3l0.7,0.2c0,0,7.7-29.4,3.2-42.8
								c-2.2-6.7,2-17.1,1.8-29c-0.1-5.4-2.4-12.2-6.9-15.9C268.4,100.5,259.5,101.4,255.2,101.9z"/>
						</g>
					</g>
					<g>
						<path class="st19" d="M270.8,101.1c0,0,3.1,0.3,6.7,9.7c3.6,9.4,1.5,28.1,1.5,28.1s-18.1,6.6-28.2,2.3l1.7-35.7L270.8,101.1z"
							/>
					</g>
					<g>
						<path class="st32" d="M270.8,101.1c0,0,3.1,0.3,6.7,9.7c3.6,9.4,1.5,28.1,1.5,28.1s-8,2.8-15.3,3.5c-0.1,0-2.5,0.1-2.5,0.1
							s-0.1-15.5,0-20.7c0.2-12.4-1.3-18.4-1.3-18.4L270.8,101.1z"/>
					</g>
					<g>
						<g>
							<g>
								<g>
									<path class="st32" d="M267.8,190.8c0.1-0.4,1.6-1.2,2.7-1.6c-0.3,0.2-0.6,0.6-0.1,0.7c0.8,0.2,2.5-0.2,2.9-0.8
										c0.2,0.4,0.3,1,0.3,1.4C273.8,191.1,267.5,191.8,267.8,190.8z"/>
								</g>
							</g>
						</g>
						<g>
							<g>
								<g>
									<path class="st30" d="M270.5,189.9c-0.5-0.1-0.2-0.5,0.1-0.7c0.7-0.3,1.3-0.5,1.4-0.5c0.3-0.2,0.4-0.5,0.4-0.5l0.3-0.1
										c0,0,0.6,0.9,0.7,1C273,189.7,271.3,190.1,270.5,189.9z"/>
								</g>
							</g>
						</g>
					</g>
					<g>
						<g>
							<path class="st105" d="M249.5,98.1c0,0-13.7-0.3-16.8-2.1c-0.2-0.1-0.6-0.7-0.8-1c-1-1.7-2.4-5.5,4.4-4.9
								c7.7,0.7,13.3,3.3,13.3,3.3S249.3,94.2,249.5,98.1z"/>
						</g>
					</g>
					<g>
						<g>
							<path class="st105" d="M257.5,77.6c0,0-5.7,12.9-9.5,17.3c-4.9,5.7-4.4-3.1-4.4-3.1s2.1-7.3,4.3-10.5
								C250.1,78.3,257.1,74,257.5,77.6z"/>
						</g>
					</g>
					<g>
						<g>
							<path class="st106" d="M249.5,84.3c-0.7,5.6-0.9,7.9,1.1,15c0.6,2.1,20.6,3.4,20.8,2.2c0.1-0.4,0.7-3.8,1.1-5.6
								c1.7-8.6,2.3-11.1,1.1-14.3c-0.9-2.2-1.3-4.8-12.9-5.9c-3.6-0.3-6.3,0.8-7.5,1.5C251.1,78.7,249.8,82,249.5,84.3z"/>
						</g>
					</g>
					<g>
						<g>
							<path class="st105" d="M260.1,75.7c0,0-2.6,5.4-2.9,11.4c-0.4,6.3,0.8,13.2,1.2,14.3c0,0-4.9,0.1-7.3-1.4
								c-0.4-0.2-0.6-0.5-0.7-1c-0.6-2.3-2.9-11.9-0.9-17.5C251.8,75.1,260.1,75.7,260.1,75.7z"/>
						</g>
					</g>
					<g>
						<g>
							<path class="st105" d="M266.9,97.2c0.3-2.1,1.3-9.1,1.3-9.1s0-12.9,4.4-8.3c3,3.2,1.3,15.3-1.4,22.2
								C270.3,104.7,266.2,102.1,266.9,97.2z"/>
						</g>
					</g>
					<g>
						<g>
							<path class="st105" d="M264.2,97.7c0,0-15.9,3.4-16.5,5.8c-0.5,2.4,2,4.6,6.5,5.1c2,0.2,14.1-0.1,16.7-6
								C273.5,97.1,264.2,97.7,264.2,97.7z"/>
						</g>
					</g>
					<g>
						<g>
							<g>
								<path class="st30" d="M257.6,72.4c0,0,1.2,4.1,1.6,4.4c0.4,0.3,1.4,0.6,1.5-0.6c0-1.2-1.8-4.4-1.8-4.4L257.6,72.4z"/>
							</g>
						</g>
						<g>
							<g>
								<path class="st31" d="M258.3,74.9c0.6,0.4,1.8,0.4,1.7-0.5c-0.3-0.7-0.5-1.1-0.8-1.7l-1.5,0.6
									C258,73.9,258.1,74.2,258.3,74.9z"/>
							</g>
						</g>
					</g>
					<g>
						<g>
							<path class="st30" d="M260.2,71.3c0-0.7-1.4-3-1.4-3c-1.4-1.4-4.6,1.2-5,1.8c-0.4,0.7,0,1.6,0.4,2.3c0.3,0.7,1.1,1.7,1.8,2.1
								c0.6,0.3,1.9,0.2,2.5-0.1C260.2,73.5,260.5,72.7,260.2,71.3z"/>
						</g>
					</g>
					<g>
						<g>
							<g>
								<polygon class="st62" points="269.9,97.8 269.9,99.7 260.5,104.1 252.6,103.7 260.6,101.6 								"/>
							</g>
						</g>
						<g>
							<g>
								<polygon class="st105" points="234.7,101 260.2,101.8 269.9,97.8 234.8,97.2 								"/>
							</g>
						</g>
						<g>
							<g>
								<polygon class="st107" points="234.7,102.8 260.5,104.1 257.4,83.6 231.4,83.9 								"/>
							</g>
						</g>
						<g>
							<g>
								<polygon class="st62" points="261.4,103.4 260.5,104.1 257.4,83.6 258.5,83.4 								"/>
							</g>
						</g>
						<g>
							<g>
								<polygon class="st62" points="258.5,83.4 233.5,83.7 231.4,83.9 257.4,83.6 								"/>
							</g>
						</g>
					</g>
					<g>
						<g>
							<g>
								<path class="st30" d="M246.8,104.2c-0.4-0.4-0.7-1.2-0.7-1.6c0-0.3,0.2-0.4,0.2-0.4s-0.1-0.4,0.2-0.4c0.2,0,0.6,0.7,1.1,1.1
									c0.3,0.2,0.6,0.5,0.9,0.6c0,0-0.3-0.7,0-0.8c0.2,0,0.5,0.9,0.7,1.3C249.2,104.4,247.3,104.7,246.8,104.2z"/>
							</g>
						</g>
						<g>
							<path class="st30" d="M248.2,103.3c-0.5-0.6-1-1.8-1.1-1.7c-0.3,0.1-0.1,0.6,0.2,1.2C247.5,103.4,248.2,103.3,248.2,103.3z"
								/>
						</g>
					</g>
					<g>
						<path class="st30" d="M232.9,92.8c0.4-0.2,0.6-0.5,0.9-0.7c0,0,0.2-0.2,0.3-0.3c0.1-0.1,0.2-0.2,0.2-0.3
							c0-0.1-0.1-0.1-0.1-0.1c0,0,0,0,0,0c0,0,0,0,0,0c0,0-0.1,0-0.1,0c0,0,0,0-0.1,0c0,0-0.1,0-0.1,0.1c0.1-0.1,0.1-0.2,0.2-0.2
							c0.1-0.1,0.2-0.3,0.2-0.4c0-0.1,0-0.1-0.1-0.1c0,0-0.1,0-0.1,0c0,0,0-0.1,0-0.1c0-0.1-0.3-0.3-0.7,0c0.2-0.2,0-0.3,0-0.3
							c-0.2,0.1-0.8,0.4-0.9,0.6C232.1,91.4,232.8,92.9,232.9,92.8z"/>
					</g>
					<g>
						<path class="st19" d="M254.9,68.2c0,0,0.1,4.1,4,4.2c0,0,0.2,5.2,5,5.2c4.8,0,5.3-0.2,5.3-0.2l-2-6.9L254.9,68.2z"/>
					</g>
					<g>
						<g>
							<path class="st108" d="M254.9,70.1l0.1,0.5c0,0.1,0.1,0.2,0.3,0.2c0.1,0,0.2-0.1,0.2-0.3l-0.1-0.5L254.9,70.1z M255.2,70.6
								c-0.1,0-0.1,0-0.1-0.1c0-0.1,0-0.1,0.1-0.1c0.1,0,0.1,0,0.1,0.1C255.3,70.5,255.3,70.6,255.2,70.6z"/>
						</g>
						<g>
							<path class="st23" d="M257.8,69.6l0.7,0.7c0,0.1,0.1,0.1,0.2,0.1l1.2-0.3l0.1,0.2c0,0,0.4-0.5,0.4-0.8
								C260.5,69.1,257.8,69.6,257.8,69.6z"/>
						</g>
						<g>
							<path class="st33" d="M251.3,71.7c0,0-0.2,0.5,2.5-0.6c0.2-0.1,0.4-0.2,0.6-0.3c0.5-0.3,1.7-1.1,2.7-1.1
								c1.4-0.1,1.3,0.4,2.2,0.2c1-0.1,1.8-0.5,1.8-0.7c0,0,0-0.1-0.3,0l-0.3-1l-0.2-0.1c0,0-1-3.6-4.2-3.1
								c-3.2,0.5-3.5,2.3-3.6,3.2c-0.1,0.6-0.1,1.5-0.1,2.1c0,0.3-0.1,0.5-0.4,0.7C251.7,71.1,251.3,71.4,251.3,71.7z"/>
						</g>
						<g>
							<path class="st108" d="M260.5,68.1c0,0-0.9,0.6-2.9,0.5c-2,0-2.4,0.5-3.3,0.8c-0.9,0.3-1.3,0.5-1.3,0.5s-0.3,0.8-0.4,0.9
								c0,0,0.7,0.2,2.3-0.6c1.5-0.8,2.1-0.9,2.8-0.8c0.7,0.1,1.1,0.4,1.7,0.3c0.6-0.1,1.6-0.4,1.6-0.6
								C260.9,69.1,260.6,68.1,260.5,68.1z"/>
						</g>
						<g>
							<path class="st33" d="M253.4,70.8l-0.1-0.6c0-0.1,0-0.1,0.1-0.1l0.4-0.1c0.1,0,0.1,0,0.2,0.1l0.1,0.5
								C254.2,70.5,253.8,70.7,253.4,70.8z"/>
						</g>
						<g>
							<path class="st108" d="M253.3,66.8c0.3-0.5,0.7-0.9,1.2-1.2c0.2-0.2,0.5-0.3,0.8-0.4c0.3-0.1,0.6-0.1,0.8-0.2
								c0.3,0,0.6,0,0.8,0c0.3,0,0.6,0.1,0.8,0.2c0.5,0.2,1,0.5,1.4,0.9c-0.5-0.3-0.9-0.6-1.4-0.7c-0.5-0.1-1.1-0.1-1.6-0.1
								c-0.3,0-0.5,0.1-0.8,0.1c-0.3,0.1-0.5,0.2-0.7,0.3C254.2,66,253.7,66.4,253.3,66.8z"/>
						</g>
					</g>
				</g>
				<g>
					<g>
						<g class="st9">
							<path d="M299.2,318.8c0,4-15.9,7.2-35.5,7.2s-35.5-3.2-35.5-7.2c0-4,15.9-7.2,35.5-7.2S299.2,314.9,299.2,318.8z"/>
						</g>
						<g>
							<g>
								<path class="st62" d="M276.6,283.3c-0.2,0-0.4,0-0.5-0.2L251.9,267c-0.4-0.3-0.5-0.8-0.3-1.3c0.3-0.4,0.9-0.5,1.3-0.3
									l24.2,16.1c0.4,0.3,0.5,0.8,0.3,1.3C277.2,283.2,276.9,283.3,276.6,283.3z"/>
							</g>
							<g>
								<path class="st62" d="M276.2,299.9c-0.2,0-0.4-0.1-0.5-0.2l-23.9-16.6c-0.4-0.3-0.5-0.9-0.2-1.3c0.3-0.4,0.9-0.5,1.3-0.2
									l23.9,16.6c0.4,0.3,0.5,0.9,0.2,1.3C276.7,299.8,276.4,299.9,276.2,299.9z"/>
							</g>
							<g>
								<path class="st69" d="M252.3,299.9c-0.3,0-0.6-0.1-0.8-0.4c-0.3-0.4-0.2-1,0.2-1.3l24.5-16.6c0.4-0.3,1-0.2,1.3,0.2
									c0.3,0.4,0.2,1-0.2,1.3l-24.5,16.6C252.7,299.9,252.5,299.9,252.3,299.9z"/>
							</g>
							<g>
								<g>
									<path class="st62" d="M270.6,314.3c-0.2,0-0.3,0-0.5-0.1l-18.7-10.7c-0.4-0.3-0.6-0.8-0.3-1.2c0.3-0.4,0.8-0.6,1.2-0.3
										l18.7,10.7c0.4,0.3,0.6,0.8,0.3,1.2C271.3,314.2,271,314.3,270.6,314.3z"/>
								</g>
								<g>
									<path class="st62" d="M257.7,314.3c-0.3,0-0.6-0.2-0.8-0.5c-0.3-0.4-0.1-1,0.3-1.3l19-11c0.4-0.3,1-0.1,1.3,0.3
										c0.3,0.4,0.1,1-0.3,1.3l-19,11C258,314.3,257.8,314.3,257.7,314.3z"/>
								</g>
								<g>
									<rect x="249.5" y="313.4" class="st62" width="30.5" height="1.3"/>
								</g>
								<g>
									<polygon class="st62" points="247.2,303.6 249.9,314.1 251.6,314.1 251.6,303.6 									"/>
								</g>
								<g>
									<path class="st109" d="M255.1,314.1c0,2.8-2.3,5-5,5c-2.8,0-5-2.3-5-5c0-2.8,2.3-5,5-5
										C252.8,309.1,255.1,311.3,255.1,314.1z"/>
								</g>
								<g>
									<path class="st62" d="M251.6,314.1c0,0.9-0.7,1.6-1.6,1.6c-0.9,0-1.6-0.7-1.6-1.6c0-0.9,0.7-1.6,1.6-1.6
										C250.9,312.5,251.6,313.2,251.6,314.1z"/>
								</g>
								<g>
									<polygon class="st62" points="283.4,303.3 280.6,313.8 278.9,313.8 278.9,303.3 									"/>
								</g>
								<g>
									<path class="st109" d="M275.4,313.8c0,2.8,2.3,5,5,5c2.8,0,5-2.3,5-5c0-2.8-2.3-5-5-5C277.7,308.7,275.4,311,275.4,313.8z"
										/>
								</g>
								<g>
									<path class="st62" d="M278.9,313.8c0,0.9,0.7,1.6,1.6,1.6s1.6-0.7,1.6-1.6c0-0.9-0.7-1.6-1.6-1.6S278.9,312.9,278.9,313.8z
										"/>
								</g>
								<g>
									<rect x="245.5" y="299" class="st109" width="40" height="5.1"/>
								</g>
							</g>
							<g>
								<g>
									<path class="st62" d="M277.3,216.4c-0.2,0-0.4-0.1-0.5-0.2l-23.9-16.6c-0.4-0.3-0.5-0.9-0.2-1.3c0.3-0.4,0.9-0.5,1.3-0.2
										l23.9,16.6c0.4,0.3,0.5,0.9,0.2,1.3C277.9,216.3,277.6,216.4,277.3,216.4z"/>
								</g>
								<g>
									<path class="st62" d="M277,233.3c-0.2,0-0.4-0.1-0.5-0.2l-23.9-16.6c-0.4-0.3-0.5-0.9-0.2-1.3c0.3-0.4,0.9-0.5,1.3-0.2
										l23.9,16.6c0.4,0.3,0.5,0.9,0.2,1.3C277.6,233.2,277.3,233.3,277,233.3z"/>
								</g>
								<g>
									<path class="st69" d="M253.2,216.7c-0.3,0-0.6-0.1-0.8-0.4c-0.3-0.4-0.2-1,0.2-1.3l24.7-16.9c0.4-0.3,1-0.2,1.3,0.2
										c0.3,0.4,0.2,1-0.2,1.3l-24.7,16.9C253.5,216.7,253.3,216.7,253.2,216.7z"/>
								</g>
								<g>
									<path class="st69" d="M253.2,233.3c-0.3,0-0.6-0.1-0.8-0.4c-0.3-0.4-0.2-1,0.2-1.3l24.5-16.6c0.4-0.3,1-0.2,1.3,0.2
										c0.3,0.4,0.2,1-0.2,1.3l-24.5,16.6C253.5,233.3,253.3,233.3,253.2,233.3z"/>
								</g>
							</g>
							<g>
								<g>
									<path class="st62" d="M276.6,250.1c-0.2,0-0.4-0.1-0.5-0.2l-23.9-16.6c-0.4-0.3-0.5-0.9-0.2-1.3c0.3-0.4,0.9-0.5,1.3-0.2
										l23.9,16.6c0.4,0.3,0.5,0.9,0.2,1.3C277.2,250,276.9,250.1,276.6,250.1z"/>
								</g>
								<g>
									<path class="st62" d="M276.3,267c-0.2,0-0.4-0.1-0.5-0.2l-23.9-16.6c-0.4-0.3-0.5-0.9-0.2-1.3c0.3-0.4,0.9-0.5,1.3-0.2
										l23.9,16.6c0.4,0.3,0.5,0.9,0.2,1.3C276.9,266.9,276.6,267,276.3,267z"/>
								</g>
								<g>
									<path class="st69" d="M252.5,250.4c-0.3,0-0.6-0.1-0.8-0.4c-0.3-0.4-0.2-1,0.2-1.3l24.7-16.9c0.4-0.3,1-0.2,1.3,0.2
										c0.3,0.4,0.2,1-0.2,1.3L253,250.3C252.8,250.4,252.6,250.4,252.5,250.4z"/>
								</g>
								<g>
									<path class="st69" d="M252.5,267c-0.3,0-0.6-0.1-0.8-0.4c-0.3-0.4-0.2-1,0.2-1.3l24.5-16.6c0.4-0.3,1-0.2,1.3,0.2
										c0.3,0.4,0.2,1-0.2,1.3L253,266.9C252.8,267,252.6,267,252.5,267z"/>
								</g>
							</g>
							<g>
								<path class="st69" d="M285.1,198.9h-39.9v-62.1c0-2.4,1.9-4.3,4.3-4.3h31.3c2.4,0,4.3,1.9,4.3,4.3V198.9z M246.1,198h38.1
									v-61.2c0-1.9-1.5-3.4-3.4-3.4h-31.3c-1.9,0-3.4,1.5-3.4,3.4V198z"/>
							</g>
							<g>
								<rect x="257.5" y="132.7" class="st69" width="0.9" height="63"/>
							</g>
							<g>
								<rect x="250" y="132.7" class="st69" width="0.9" height="63"/>
							</g>
							<g>
								<rect x="264.9" y="132.7" class="st69" width="0.9" height="63"/>
							</g>
							<g>
								<rect x="279.8" y="132.7" class="st69" width="0.9" height="63"/>
							</g>
							<g>
								<rect x="272.3" y="133.2" class="st69" width="0.9" height="62"/>
							</g>
							<g>
								<rect x="245.1" y="192.1" class="st109" width="40" height="6.9"/>
							</g>
							<g>
								<path class="st69" d="M252.2,283.5c-0.3,0-0.6-0.1-0.8-0.4c-0.3-0.4-0.2-1,0.2-1.3l24.5-16.6c0.4-0.3,1-0.2,1.3,0.2
									c0.3,0.4,0.2,1-0.2,1.3l-24.5,16.6C252.5,283.5,252.3,283.5,252.2,283.5z"/>
							</g>
						</g>
					</g>
				</g>
			</g>
			<g>
				<g>
					<path class="st0" d="M194.9,54.2c1.2-3,3.4-5.2,6-6.8c0,0,0,0,0,0c1.5-1.2,3.1-2.2,4.7-2.9c5.1-2.3,10.7-2.9,16-2
						c4.9,0.8,9.6,2.9,13.8,6.2c3.1,2.4,7.9,6.6,6.3,11.9c-0.5,1.6-1.4,2.8-2.5,3.8c-0.1,0.1-0.1,0.2,0,0.3c1.4,1.8,4,4.7,6.8,5.8
						c0.2,0.1,0.1,0.3,0,0.3c-2.2,0.1-8.4,0.2-14.1-2.9c0,0-0.1,0-0.1,0c-0.4,0.1-0.8,0.2-1.2,0.3c-5.5,1.7-11.3,2.2-16.9,1.7
						C207.8,69.4,190.1,66.6,194.9,54.2z"/>
				</g>
			</g>
		</g>
		<g>
			<path class="st110" d="M114.9,322.3c-17.5,0-31.7,1.8-31.7,4c0,2.2,14.2,4,31.7,4s31.7-1.8,31.7-4
				C146.6,324.1,132.4,322.3,114.9,322.3z"/>
			<g>
				<path class="st106" d="M137.9,207.7c-0.5-0.1-0.9,0.1-1.1,0.6c-1.6,3-8,16.5-8.9,18.1c-0.8,1.4-0.3,4.6,2.9,3.5
					c1.2-0.4,5.7-3.9,7.1-5.3C142.9,219.8,147.9,209.6,137.9,207.7z"/>
			</g>
			<g>
				<path class="st106" d="M114.9,214.7c0,0,0.5,2.6,4.1,7c4.3,5.2,9.8,8.2,9.8,8.2l2.4-4.1c0,0-7.5-7.9-11.4-11
					C117.7,212.9,114.9,214.7,114.9,214.7z"/>
			</g>
			<g>
				<g>
					<g>
						<path class="st32" d="M137.2,325.8c0.1-1.7-2.2-1.3-3.5-1.5c0.4,0.2,0.8,0.5,0.3,0.7c-0.8,0.3-2.6,0.2-3.2-0.3
							c-0.2,0.5-0.2,1.1-0.1,1.5C130.8,326.6,137.2,326.2,137.2,325.8z"/>
					</g>
				</g>
				<g>
					<g>
						<path class="st30" d="M134,324.9c0.5-0.2,0.7-0.6-0.2-0.7c-0.8-0.1-1.4-0.3-1.5-0.3c-0.4-0.1-0.5-0.7-0.5-0.7l-0.7,0
							c0,0-0.2,1.2-0.2,1.3C131.4,325.1,133.2,325.2,134,324.9z"/>
					</g>
				</g>
			</g>
			<g>
				<g>
					<g>
						<path class="st32" d="M91.4,326.5c-0.3-1.7,1.9-1.7,3.2-2c-0.3,0.2-0.7,0.6-0.2,0.7c0.8,0.2,2.6-0.2,3.1-0.8
							c0.2,0.4,0.3,1,0.3,1.4C97.9,326.3,91.5,326.9,91.4,326.5z"/>
					</g>
				</g>
				<g>
					<g>
						<path class="st30" d="M94.5,325.2c-0.6-0.1-0.8-0.5,0.1-0.7c0.7-0.2,1.3-0.5,1.5-0.6c0.3-0.2,0.4-0.8,0.4-0.8l0.7-0.1
							c0,0,0.3,1.1,0.4,1.2C97,325,95.3,325.3,94.5,325.2z"/>
					</g>
				</g>
			</g>
			<g>
				<g>
					<path class="st19" d="M96.8,246c2.1-5.8,3.7-9.4,4.7-10c3.1-0.2,17.4,0.5,18.6,0.4c1.1,0.5,2.6,3.9,4.7,10
						c5.1,14.8,8.7,76.8,8.7,76.8l-3.2,0.5c0,0-7.3-25.4-12-45.4c-2.9-12.2-6.7-25.4-6.8-25.5c-1.1,5.5-11.9,59.5-12.6,69.2
						c-0.1,1.6-3.2,2.8-3.3,1.5C94.6,313.7,91.6,260.8,96.8,246z"/>
				</g>
			</g>
			<g>
				<g>
					<path class="st111" d="M110.6,210.8c0,0-1.6-2.5-2-4c-0.4-1.5-1-2.9,0-3c1-0.1,4-0.4,4.6-3.3c0.1-0.4-0.2-1.1-0.4-1.7
						c-0.1-0.1,0.1-0.3,0.2-0.2c0.8,0.4,2.6,1.4,3.2,3.2c0.8,2.3,0.2,4.1-0.1,5.1c-0.2,0.6-0.8,2.1-0.8,2.1L110.6,210.8z"/>
				</g>
			</g>
			<g>
				<g>
					<path class="st112" d="M108.6,206.8c-0.2-0.5-0.4-0.9-0.5-1.4c-0.1-0.2-0.2-0.5-0.2-0.7c0-0.2-0.1-0.6,0.2-0.9
						c0.1-0.1,0.3-0.2,0.4-0.2c0.2,0,0.3,0,0.4-0.1c0.2,0,0.5-0.1,0.7-0.1c0.5-0.1,0.9-0.2,1.3-0.4c0.8-0.4,1.5-1,1.9-1.8
						c0.1-0.2,0.2-0.4,0.2-0.6c0.1-0.2,0-0.4,0-0.6c0-0.2-0.1-0.5-0.2-0.7c0-0.1-0.1-0.2-0.1-0.4c0-0.2,0.2-0.3,0.3-0.2
						c-0.1,0-0.2,0.1-0.2,0.2l0.2,0.3c0.1,0.2,0.2,0.4,0.3,0.7c0.1,0.2,0.1,0.5,0.1,0.8c-0.1,0.2-0.1,0.5-0.2,0.7
						c-0.3,1-1.2,1.8-2.1,2.2c-0.5,0.2-1,0.4-1.5,0.4c-0.2,0-0.5,0.1-0.7,0.1c-0.3,0-0.5,0-0.6,0.1c-0.1,0.1-0.1,0.3-0.1,0.5
						c0,0.2,0,0.5,0.1,0.7C108.5,205.8,108.6,206.3,108.6,206.8z"/>
				</g>
			</g>
			<g>
				<path class="st105" d="M106.9,213.4c0,0-2.5-0.6-6.2,0.9c-5.1,2.1-12.8,6.9-14.5,11.5c-2,5.2,1.8,17.8,8.1,18.7
					c2.3,0.3,3.3-3.3,3.3-3.3l-5.2-14.5l12.4-9.4L106.9,213.4z"/>
			</g>
			<g>
				<path class="st30" d="M96.4,242.5c0,0,1-2.7,2-2.6c1,0.1,2.6,0.3,2.6,0.7c0.1,0.4-1.1,0.3-1.1,0.3s0.8,0.7,0.9,0.9
					c0.1,0.2-0.5,0.3-0.5,0.3s0.2,0.2,0.2,0.5c-0.1,0.3-0.8-0.2-1.2-0.2c-0.4,0-1.5,1.3-2.4,1.4C96.3,243.8,96,243.2,96.4,242.5z"/>
			</g>
			<g>
				<path class="st30" d="M140.4,209.2c0.2,0.1,0.4,0,0.5-0.2c0.3-0.4,1.7-1.2,2.3-2c0,0,0.8-1.2,0.5-1.9c0,0-0.2-0.1-0.4,0.3
					c0,0,0.2-1.1-0.1-1.3c-0.3-0.2-0.5,0.3-0.5,0.3s-0.1-0.3-0.4-0.2c-0.2,0.1-0.5,0.7-1,1.3c-0.4,0.4-0.9,0.7-1,1.1
					c0,0,0-0.9-0.2-0.9c-0.3,0-0.6,1.6-0.4,2.1c0,0,0,0.6,0,0.9C139.6,208.9,140.1,209.1,140.4,209.2z"/>
			</g>
			<g>
				<g>
					<path class="st32" d="M111.5,236.2c4.1,0.1,8,0.3,8.6,0.3c1.1,0.5,2.6,3.9,4.7,10c5.1,14.8,8.7,76.8,8.7,76.8l-1.3,0.2
						c0,0-2.2-29.4-7-49.4C119.2,248.9,107.4,236.1,111.5,236.2z"/>
				</g>
			</g>
			<g>
				<g>
					<path class="st105" d="M97.3,216.5c0,0,6.5-3.7,9-3.2c3.4,0.6,6.2,1.1,9.8,0.7c2.2-0.2,2.9,0.2,4.2,2
						c3.7,4.8,0.2,20.8,0.2,20.8s-6.6,1.7-10.5,1.7c-6.5,0-9.2-1.9-9.2-1.9s0.1-6.1-0.3-8.2C99.9,224.8,97.3,216.5,97.3,216.5z"/>
				</g>
			</g>
			<g>
				<g>
					<g>
						<path class="st30" d="M111.4,210.8c0,0-0.5,3.2-0.2,3.5c0.3,0.3,1.5,0.7,2.2-0.1c0.6-0.8-0.1-3.5-0.1-3.5L111.4,210.8z"/>
					</g>
				</g>
				<g>
					<g>
						<path class="st31" d="M111.1,213c0.7,0.2,1.7,0.4,2.5,0c0-0.6-0.1-1.2-0.2-1.7l-2.1,0.1C111.2,211.9,111.1,212.5,111.1,213z"
							/>
					</g>
				</g>
			</g>
			<g>
				<g>
					<path class="st30" d="M116,209.8c0.1-0.4,0.1-1.7-0.1-2.8c-0.1-0.9-0.9-1.6-1.8-1.5c-1.4,0.2-3,0.5-3.4,0.8
						c-0.6,0.5-0.6,1.4-0.6,2.2c0,0.7,0.3,2,0.8,2.5c0.4,0.5,1.6,0.9,2.3,0.9C115.2,211.7,115.7,211.2,116,209.8z"/>
				</g>
			</g>
			<g>
				<g>
					<path class="st106" d="M116.1,214c0,0,2.9-0.6,4.2,1.1c3.7,4.8,0.2,21.7,0.2,21.7s-3.2,1.5-5.4,1.7c-2.8,0.2-5.1,0-5.1,0
						s4.1-4.7,6-10.8C118,221.6,116.1,214,116.1,214z"/>
				</g>
			</g>
		</g>
		<g>
			<path class="st33" d="M161.2,232.9c0.9-0.1,1.8-0.4,2.7-0.7l-7.1-8.5l0.7-4.6l4.6-0.3l2.9,3.1l4.8,5.1c0,0,0,0,0-0.1
				c1.1-2.1,1.5-4.5,1.2-6.9c-0.3-2.2-1.3-4.2-2.6-5.8c-2.5-2.9-6.3-4.5-10.4-3.9c-0.5,0.1-0.9,0.2-1.4,0.3l-4.7-5.4l0.1-0.1
				l-11.9-13.7c0.8-1.9,1.2-4.1,0.9-6.3c-0.9-6.3-6.8-10.6-13-9.7c-0.9,0.1-1.8,0.4-2.7,0.7l7.1,8.5l-0.7,4.6l-4.6,0.3l-2.9-3.1
				l-4.8-5.1c0,0,0,0,0,0.1c-1.1,2.1-1.5,4.5-1.2,6.9c0.3,2.2,1.3,4.2,2.6,5.8c2.5,2.9,6.3,4.5,10.4,3.9c0.5-0.1,0.9-0.2,1.4-0.3
				l5.8,6.7l-0.1,0.1L149,217c-0.8,1.9-1.2,4.1-0.9,6.3C149.1,229.5,154.9,233.9,161.2,232.9z"/>
		</g>
		<g>
			<path class="st113" d="M279.5,20.6c0-0.2-0.2-0.4-0.4-0.5l-1.1-0.4c-0.2-0.1-0.3-0.2-0.4-0.4c-0.1-0.4-0.2-0.8-0.4-1.2
				c-0.2-0.4-0.4-0.8-0.6-1.2c-0.1-0.2-0.1-0.4,0-0.5l0.5-1.1c0.1-0.2,0.1-0.4-0.1-0.6c-0.4-0.5-0.9-1-1.4-1.4
				c-0.2-0.1-0.4-0.2-0.6-0.1l-1.1,0.5c-0.2,0.1-0.4,0.1-0.5,0c-0.8-0.4-1.6-0.8-2.4-1c-0.2,0-0.3-0.2-0.4-0.4l-0.4-1.1
				c-0.1-0.2-0.3-0.3-0.5-0.4c-0.1,0-0.2,0-0.3,0c0,0,0,0,0,0c-0.1,0-0.2,0-0.2,0c0,0,0,0,0,0c-0.2,0-0.4,0-0.5,0l0,0l0,0
				c-0.3,0-0.7,0-1,0c-0.2,0-0.4,0.2-0.5,0.4l-0.4,1.1c-0.1,0.2-0.2,0.3-0.4,0.3c-0.4,0.1-0.8,0.2-1.3,0.4c-0.4,0.2-0.8,0.4-1.2,0.6
				c-0.2,0.1-0.4,0.1-0.5,0l-1.1-0.5c-0.2-0.1-0.4-0.1-0.6,0.1c-0.5,0.4-1,0.9-1.5,1.4c-0.1,0.2-0.2,0.4-0.1,0.6l0.5,1.1
				c0.1,0.2,0.1,0.4,0,0.5c-0.5,0.7-0.8,1.5-1,2.4c0,0.2-0.2,0.3-0.4,0.4L258,20c-0.2,0.1-0.4,0.2-0.4,0.5c-0.1,0.7-0.1,1.3,0,2
				c0,0.2,0.2,0.4,0.4,0.5l1.1,0.4c0.2,0.1,0.3,0.2,0.4,0.4c0.1,0.4,0.2,0.8,0.4,1.2c0.2,0.4,0.4,0.8,0.6,1.2c0.1,0.2,0.1,0.4,0,0.5
				l-0.5,1.1c-0.1,0.2-0.1,0.4,0.1,0.6c0.4,0.5,0.9,1,1.4,1.4c0.2,0.1,0.4,0.2,0.6,0.1l1.1-0.5c0.2-0.1,0.4-0.1,0.5,0
				c0.8,0.4,1.6,0.8,2.4,1c0.2,0,0.3,0.2,0.4,0.4l0.4,1.1c0.1,0.2,0.3,0.3,0.5,0.4c0.4,0,0.8,0.1,1.2,0.1l0,0l0,0c0.1,0,0.1,0,0.2,0
				c0,0,0,0,0.1,0c0.1,0,0.1,0,0.2,0c0,0,0.1,0,0.1,0c0,0,0.1,0,0.1,0c0.1,0,0.2,0,0.2,0c0.2,0,0.4-0.2,0.5-0.4l0.4-1.1
				c0.1-0.2,0.2-0.3,0.4-0.3c0.4-0.1,0.8-0.2,1.3-0.4c0.4-0.2,0.8-0.4,1.2-0.6c0.2-0.1,0.4-0.1,0.5,0l1.1,0.5
				c0.2,0.1,0.4,0.1,0.6-0.1c0.5-0.4,1-0.9,1.5-1.4c0.1-0.2,0.2-0.4,0.1-0.6l-0.5-1.1c-0.1-0.2-0.1-0.4,0-0.5c0.5-0.7,0.8-1.5,1-2.4
				c0-0.2,0.2-0.3,0.4-0.4l1.2-0.4c0.2-0.1,0.4-0.2,0.4-0.5C279.5,22,279.5,21.3,279.5,20.6z M268.6,26.8c-2.9,0-5.3-2.3-5.3-5.1
				s2.4-5.1,5.3-5.1c2.9,0,5.3,2.3,5.3,5.1S271.5,26.8,268.6,26.8z"/>
		</g>
		<g>
			<path class="st0" d="M155.1,18.4c-0.1,0-0.1,0-0.2,0c0,0,0-0.1,0-0.1c0-1.7-1.5-3.2-3.2-3.2c-0.1-1.3-0.4-2.8-1.6-3.5
				c-0.8-0.5-1.8-0.5-2.5,0.1c-0.1-1.7-0.4-3.5-1.5-4.8c-1-1.3-2.6-1.8-4.2-1.3c-3.5,1.1-4,5-4.7,8.2c-0.4-1.5-1.5-2.9-3-3.4
				c-1.8-0.6-3.8,0.1-5,1.5c-0.2-1-0.9-2-2-2.1c-0.7-0.1-1.5,0.3-1.8,0.8c-0.2-2.3,0.1-4.6-0.7-6.8c-0.6-1.6-1.8-3.3-3.6-3.7
				c-1.9-0.5-3.7,0.7-4.9,2.1c-1.4,1.6-2.3,3.7-2.7,5.7c-0.4,2.2-0.3,4.6,0.4,6.8c-2.2-0.8-4.7,1.3-3.7,3.7c-0.1,0.1,0,0.2,0.1,0.2
				c2.9,0.2,5.8,0.1,8.7,0.1c2.9,0,5.8,0,8.7,0c5.8,0,11.7,0,17.5,0c3.3,0,6.6,0.1,9.9-0.1C155.3,18.7,155.3,18.4,155.1,18.4z"/>
		</g>
		<g>
			<path class="st0" d="M44.3,139.6c0.1-3.6-2.7-6.4-6.2-6.5c0.3-2.7-2.5-4.8-5-3.6c1-4.7-2.5-9.2-7.1-10.1c-5.2-1-10.2,2-12.9,6.4
				c-1.7,2.7-2.5,5.8-2.9,8.9c-1.8-1.3-4.3-1.7-6.3-0.7c-2.2,1.1-3.6,3.5-3.2,5.9c0,0.1,0.1,0.1,0.1,0.1l0,0.1
				c-0.2,0-0.5,0.1-0.7,0.1c0,0,0,0,0,0c1.7,0.3,3.5,0.2,5.2,0.2c1.9,0,3.7,0,5.6,0c3.7,0,7.4,0,11.1,0c7.4,0,14.8,0.1,22.2-0.2
				c0.1,0,0.1-0.2,0-0.2c0,0-0.1,0-0.1,0l0-0.3C44.1,139.9,44.3,139.8,44.3,139.6z M37.7,133.1L37.7,133.1c0,0,0.1,0.1,0.1,0.1
				C37.8,133.2,37.7,133.1,37.7,133.1z"/>
		</g>
	</g>
</g>
</svg>
