<?xml version="1.0" encoding="utf-8"?>
<!-- Generator: Adobe Illustrator 23.0.6, SVG Export Plug-In . SVG Version: 6.00 Build 0)  -->
<svg version="1.1" xmlns="http://www.w3.org/2000/svg" xmlns:xlink="http://www.w3.org/1999/xlink" x="0px" y="0px"
	 viewBox="0 0 74 74" style="enable-background:new 0 0 74 74;" xml:space="preserve">
<style type="text/css">
	.st0{fill:#FFFFFF;}
	.st1{fill:#E0ECF6;}
	.st2{fill:#8DBBDD;}
	.st3{fill:none;stroke:#3184C1;stroke-width:1.3621;stroke-linecap:round;stroke-linejoin:round;stroke-miterlimit:10;}
	.st4{fill:#A1C7E3;}
	.st5{fill:none;stroke:#8DBBDD;stroke-width:1.3621;stroke-linecap:round;stroke-linejoin:round;stroke-miterlimit:10;}
	.st6{fill:#3184C1;}
	.st7{fill:none;stroke:#0D6EB6;stroke-width:1.2244;stroke-linecap:round;stroke-linejoin:round;stroke-miterlimit:10;}
	.st8{fill:none;stroke:#8DBBDD;stroke-width:1.5702;stroke-linecap:round;stroke-linejoin:round;stroke-miterlimit:10;}
	.st9{opacity:0.3;}
	.st10{fill:#D6E6F3;}
	.st11{fill:#E9F2F8;}
	.st12{fill:#5A9DCE;}
	.st13{fill:none;stroke:#E9F2F8;stroke-miterlimit:10;}
	.st14{fill:#CCCCCC;}
	.st15{fill:#FF97A8;}
	.st16{fill:#FF5D7B;}
	.st17{fill:#08478E;}
	.st18{fill:#331239;}
	.st19{fill:#3B2B5B;}
	.st20{fill:#380A37;}
	.st21{fill:#B7CADE;}
	.st22{fill:#5E87B5;}
	.st23{fill:#295A6E;}
	.st24{fill:#3E7687;}
	.st25{fill:#F39734;}
	.st26{fill:none;}
	.st27{fill:#EF7F19;}
	.st28{fill:#FDCA49;}
	.st29{fill:#86B7DB;}
	.st30{fill:#FF97A6;}
	.st31{fill:#C95D77;}
	.st32{fill:#30193B;}
	.st33{fill:#FFCB48;}
	.st34{fill:#FF9A2E;}
	.st35{clip-path:url(#SVGID_2_);}
	.st36{fill:#0D6EB6;}
	.st37{clip-path:url(#SVGID_4_);}
	.st38{fill:#EFEFF6;}
	.st39{fill:#EF7F18;}
	.st40{fill:#4071A8;}
	.st41{fill:#0A498F;}
	.st42{fill:#3A7182;}
	.st43{fill:#E6E6E6;}
	.st44{fill:#FF9A19;}
	.st45{fill:#FFCB37;}
	.st46{opacity:0.1;}
	.st47{fill:#30183A;}
	.st48{fill:#F194A5;}
	.st49{fill:#C85D77;}
	.st50{fill:#BA2F7D;}
	.st51{fill:#B12384;}
	.st52{fill:#62BCD6;}
	.st53{fill:#BF7323;}
	.st54{fill:#80CAD5;}
	.st55{fill:#767579;}
	.st56{opacity:0.8;}
	.st57{fill:#9BCBE9;}
	.st58{fill:#3E275C;}
	.st59{fill:#406EB3;}
	.st60{fill:#DDD6FC;}
	.st61{fill:#EEEAFE;}
	.st62{fill:#7F65C1;}
	.st63{fill:none;stroke:#EEEAFE;stroke-width:0.5019;stroke-miterlimit:10;}
	.st64{fill:#EAE6FF;}
	.st65{fill:#D4EAF5;}
	.st66{fill:#A9CAE7;}
	.st67{fill:#ABC8E6;}
	.st68{fill:#D1C5FC;}
	.st69{fill:#CBB3FC;}
	.st70{fill:#CEAFF9;}
	.st71{fill:#FFC200;}
	.st72{fill:#E8853A;}
	.st73{fill:#5AC0F9;}
	.st74{fill:#53F9F4;}
	.st75{fill:#BF3904;}
	.st76{fill:#822302;}
	.st77{fill:#7964A8;}
	.st78{fill:#8865C4;}
	.st79{fill:#CCEAF5;}
	.st80{fill:#FFD67C;}
	.st81{fill:url(#SVGID_5_);}
	.st82{fill:url(#SVGID_6_);}
	.st83{fill:url(#SVGID_7_);}
	.st84{fill:url(#SVGID_8_);}
	.st85{fill:url(#SVGID_9_);}
	.st86{fill:url(#SVGID_10_);}
	.st87{fill:url(#SVGID_11_);}
	.st88{fill:#54565A;}
	.st89{fill:#9F79FF;}
	.st90{fill:#F2EEFF;}
	.st91{opacity:0.4;}
	.st92{fill:#E45D79;}
	.st93{fill:#FFE5AE;}
	.st94{fill:#FF97A7;}
	.st95{fill:#82CBEA;}
	.st96{fill:#BFEAF5;}
	.st97{fill:#8FD9ED;}
	.st98{fill:#43225D;}
	.st99{fill:#5C319A;}
	.st100{opacity:0.5;fill:url(#SVGID_12_);}
	.st101{fill:#632678;}
	.st102{fill:none;stroke:#FFFFFF;stroke-width:2;stroke-linecap:round;stroke-linejoin:round;stroke-miterlimit:10;}
	.st103{fill:none;stroke:#EEEAFE;stroke-miterlimit:10;}
	.st104{fill:#F98A8A;}
	.st105{fill:#AACBE8;}
	.st106{fill:#99B4DD;}
	.st107{fill:#6A54AF;}
	.st108{fill:#FD9E38;}
	.st109{fill:#DBCFFD;}
	.st110{fill:#B5B5B5;}
	.st111{fill:#80540A;}
	.st112{fill:#AD7121;}
	.st113{fill:#D5EAF5;}
	.st114{opacity:0.3;fill:#3B2B5B;}
	.st115{fill:#BAA4FF;}
	.st116{fill:#4E3E75;}
	.st117{fill:#D07BB5;}
	.st118{fill:#C14F9D;}
	.st119{fill:none;stroke:#000000;stroke-width:0.75;stroke-linecap:round;stroke-linejoin:round;stroke-miterlimit:10;}
	.st120{fill:#B3B3B3;}
	.st121{fill:#F2F2F2;}
	.st122{fill:#141414;}
	.st123{fill:#A3A3A3;}
	.st124{fill:#474747;}
	.st125{fill:#C7C7C7;}
	.st126{fill:#DBDBDB;}
</style>
<g id="Fondo">
</g>
<g id="Capa_7">
</g>
<g id="Contenido">
</g>
<g id="Footer">
</g>
<g id="Header">
</g>
<g id="Alertas">
</g>
<g id="Capa_2">
	<g>
		<g class="st9">
			<rect x="9.4" y="48.4" class="st122" width="6.7" height="14.2"/>
			<path class="st123" d="M58.9,53c-1.3-3.1-4.7-1.8-5-1.7l-9,2.5l0,0c0-1.5-1-2.9-2.7-3.5l-8.9-3c0,0-1.9-3.1-6.5-3.1
				c-2.9,0-5.3,2.3-6.5,4.3V50l0,0v8.9c5.1,0.2,3.6,1.1,12.4,5.1c1.1,0.4,3.7,1.2,6.5-0.1c0,0,0,0,0,0l17.3-6.2
				C57.2,57.5,60,55.9,58.9,53z"/>
			<path d="M59.9,52.6C59.9,52.6,59.9,52.6,59.9,52.6c-1-2.5-3.5-3.3-6.3-2.4l-7.8,2.2c-0.5-1.4-1.6-2.5-3.2-3.1c0,0,0,0,0,0
				L34,46.4c-0.7-0.9-3-3.3-7.2-3.3c-2.9,0-5.5,2-7,4.2H9.4c-0.6,0-1.1,0.5-1.1,1.1v14.2c0,0.6,0.5,1.1,1.1,1.1h6.7
				c0.6,0,1.1-0.5,1.1-1.1v-1h3.1c0.6,0,1.1-0.5,1.1-1.1v-0.3c1.8,0.2,2.4,0.5,4.1,1.5c1.3,0.7,3.2,1.9,6.7,3.4c0,0,0,0,0,0
				c0.7,0.3,2,0.7,3.6,0.7c1.1,0,2.4-0.2,3.7-0.8L57,58.8c0,0,0.1,0,0.1,0C58.7,58,61.2,55.8,59.9,52.6z M15,61.4h-4.4V49.5H15V61.4
				z M19.2,59.3h-2v-9.8h2V59.3z M56.2,56.7l-17.3,6.2c0,0,0,0-0.1,0c0,0,0,0,0,0c-2.4,1.1-4.7,0.4-5.6,0.1
				c-3.4-1.5-5.2-2.6-6.5-3.3c-1.8-1.1-2.7-1.6-5.2-1.8v-9c1.1-1.7,3.1-3.5,5.4-3.5c3.8,0,5.4,2.5,5.5,2.6c0.1,0.2,0.3,0.4,0.6,0.5
				l8.9,3c1.4,0.5,2.2,1.8,1.8,3c-0.2,0.6-0.5,1-1,1.3C42.1,56,41.5,56,41,55.9l-10.1-3.2c-0.6-0.2-1.2,0.1-1.4,0.7
				c-0.2,0.6,0.1,1.2,0.7,1.4L40.3,58c0,0,0,0,0,0c0.4,0.1,0.8,0.2,1.2,0.2c0.7,0,1.5-0.2,2.2-0.6c1-0.6,1.8-1.5,2.1-2.7
				c0-0.1,0-0.2,0.1-0.3l8.4-2.3c1.2-0.4,2.8-0.6,3.5,1.1C58.6,55.4,56.7,56.4,56.2,56.7z"/>
			<polyline class="st124" points="35.2,19.4 25.2,9.4 12.7,21.9 34.1,43.3 45.9,31.5 			"/>
			<path class="st120" d="M29.3,21.1L29.3,21.1C29.3,21.1,29.3,21.1,29.3,21.1c-1.2,0.1-2.4,0.6-3.4,1.5c-2.1,2.1-2.1,5.4,0,7.5
				s5.4,2.1,7.5,0c1-1,1.5-2.3,1.5-3.6"/>
			<g>
				<path class="st120" d="M12.7,21.9l4.2-4.2c2.3,2.3,2.3,6.1,0,8.5L12.7,21.9z"/>
				<path class="st120" d="M29.9,39c2.3-2.3,6.1-2.3,8.5,0l-4.2,4.2L29.9,39z"/>
				<path class="st120" d="M21,13.6l4.2-4.2l4.2,4.2C27.1,16,23.3,16,21,13.6z"/>
				<path class="st120" d="M41,28.7c-0.8,2.1-0.3,4.6,1.4,6.3l3.5-3.5"/>
			</g>
			<path class="st125" d="M41.3,11.7c-1.1-0.4-3.7-1.2-6.5,0.1c0,0,0,0,0,0l-5.2,1.9l5.4,5.4l5.1,1.8l-6.7-2.1
				c-1.8-0.5-3.6,0.5-4.1,2.3c-0.5,1.8,0.5,3.6,2.5,4.3l8.9,3l0,0c0,0,1.9,3.1,6.5,3.1c2.9,0,5.3-2.3,6.5-4.3v-1.5v-2.6v-6.3
				C48.6,16.6,50.1,15.7,41.3,11.7z"/>
			<rect x="58" y="13.2" class="st122" width="6.7" height="14.2"/>
			<path d="M64.6,12.1H58c-0.6,0-1.1,0.5-1.1,1.1v1h-3.1c-0.6,0-1.1,0.5-1.1,1.1v0.3c-1.8-0.2-2.4-0.5-4.1-1.5
				c-1.3-0.7-3.2-1.9-6.7-3.4c0,0,0,0,0,0c-1.1-0.4-4.1-1.3-7.3,0.1l-4.5,1.6L26,8.6c-0.4-0.4-1.1-0.4-1.6,0L11.9,21.1
				c-0.4,0.4-0.5,1.1,0,1.6l21.4,21.4c0.3,0.3,1.1,0.4,1.6,0l11.4-11.4c0.3,0,0.6,0,0.9,0c2.9,0,5.5-2,7-4.2h10.4
				c0.6,0,1.1-0.5,1.1-1.1V13.2C65.8,12.6,65.3,12.1,64.6,12.1z M28.1,22.5c0.2,1.7,1.4,3.3,3.4,4c0,0,0,0,0,0l2.2,0.8
				c-0.2,0.8-0.6,1.5-1.1,2c-1.6,1.6-4.3,1.6-5.9,0c-1.6-1.6-1.6-4.3,0-5.9C27.1,23,27.6,22.7,28.1,22.5z M30.3,18.1
				c-0.8,0.4-1.4,1.1-1.8,1.9c-1.3,0.2-2.4,0.8-3.4,1.8c-2.5,2.5-2.5,6.6,0,9.1c1.2,1.2,2.9,1.9,4.5,1.9c1.6,0,3.3-0.6,4.5-1.9
				c0.8-0.8,1.4-1.8,1.7-2.9l3.8,1.3c-0.4,2,0,4.1,1.2,5.7l-2.6,2.6c-2.5-1.8-5.9-1.8-8.4,0L18.5,26.1c0.9-1.2,1.3-2.7,1.3-4.2
				c0-1.5-0.5-3-1.3-4.2l2.6-2.6c1.2,0.9,2.7,1.3,4.2,1.3s3-0.5,4.2-1.3l2.4,2.4C31.3,17.7,30.8,17.8,30.3,18.1z M42.5,33.3
				c-0.4-0.7-0.7-1.5-0.7-2.3c0.5,0.4,1.2,0.8,2,1.1L42.5,33.3z M25.2,11l2.6,2.6c-0.8,0.5-1.6,0.7-2.6,0.7c-0.9,0-1.8-0.3-2.6-0.7
				L25.2,11z M16.9,19.4c0.5,0.8,0.7,1.6,0.7,2.6s-0.3,1.8-0.7,2.6l-2.6-2.6L16.9,19.4z M34.1,41.7l-2.6-2.6c1.6-1,3.6-1,5.1,0
				L34.1,41.7z M47.2,30.4c-0.4,0-0.8,0-1.2-0.1c0,0,0,0,0,0c-2.4-0.4-3.7-1.7-4.2-2.3c0,0-0.1-0.2-0.1-0.2
				c-0.1-0.2-0.3-0.4-0.6-0.5l-8.9-3c-1.4-0.5-2.2-1.8-1.8-3c0,0,0,0,0,0c0,0,0,0,0,0c0.2-0.6,0.5-1,1-1.3c0.5-0.3,1.1-0.4,1.6-0.2
				l10.1,3.2c0.6,0.2,1.2-0.1,1.4-0.7c0.2-0.6-0.1-1.2-0.7-1.4l-8-2.5l-0.1-0.1c0,0,0,0,0,0l-4.1-4.1l3.6-1.3c0,0,0,0,0,0
				c0,0,0,0,0,0c0,0,0,0,0,0c2.4-1.1,4.7-0.4,5.6-0.1c3.4,1.5,5.2,2.6,6.5,3.3c1.8,1.1,2.7,1.6,5.2,1.8v9
				C51.5,28.7,49.5,30.4,47.2,30.4z M54.8,16.4h2v9.8h-2V16.4z M63.5,26.2h-4.4V14.3h4.4V26.2z"/>
		</g>
		<rect y="0" class="st26" width="74" height="74"/>
	</g>
</g>
</svg>
