<?xml version="1.0" encoding="utf-8"?>
<!-- Generator: Adobe Illustrator 23.0.6, SVG Export Plug-In . SVG Version: 6.00 Build 0)  -->
<svg version="1.1" xmlns="http://www.w3.org/2000/svg" xmlns:xlink="http://www.w3.org/1999/xlink" x="0px" y="0px"
	 viewBox="0 0 74 74" style="enable-background:new 0 0 74 74;" xml:space="preserve">
<style type="text/css">
	.st0{fill:#FFFFFF;}
	.st1{fill:#E0ECF6;}
	.st2{fill:#8DBBDD;}
	.st3{fill:none;stroke:#3184C1;stroke-width:1.3621;stroke-linecap:round;stroke-linejoin:round;stroke-miterlimit:10;}
	.st4{fill:#A1C7E3;}
	.st5{fill:none;stroke:#8DBBDD;stroke-width:1.3621;stroke-linecap:round;stroke-linejoin:round;stroke-miterlimit:10;}
	.st6{fill:#3184C1;}
	.st7{fill:none;stroke:#0D6EB6;stroke-width:1.2244;stroke-linecap:round;stroke-linejoin:round;stroke-miterlimit:10;}
	.st8{fill:none;stroke:#8DBBDD;stroke-width:1.5702;stroke-linecap:round;stroke-linejoin:round;stroke-miterlimit:10;}
	.st9{opacity:0.3;}
	.st10{fill:#D6E6F3;}
	.st11{fill:#E9F2F8;}
	.st12{fill:#5A9DCE;}
	.st13{fill:none;stroke:#E9F2F8;stroke-miterlimit:10;}
	.st14{fill:#CCCCCC;}
	.st15{fill:#FF97A8;}
	.st16{fill:#FF5D7B;}
	.st17{fill:#08478E;}
	.st18{fill:#331239;}
	.st19{fill:#3B2B5B;}
	.st20{fill:#380A37;}
	.st21{fill:#B7CADE;}
	.st22{fill:#5E87B5;}
	.st23{fill:#295A6E;}
	.st24{fill:#3E7687;}
	.st25{fill:#F39734;}
	.st26{fill:none;}
	.st27{fill:#EF7F19;}
	.st28{fill:#FDCA49;}
	.st29{fill:#86B7DB;}
	.st30{fill:#FF97A6;}
	.st31{fill:#C95D77;}
	.st32{fill:#30193B;}
	.st33{fill:#FFCB48;}
	.st34{fill:#FF9A2E;}
	.st35{clip-path:url(#SVGID_2_);}
	.st36{fill:#0D6EB6;}
	.st37{clip-path:url(#SVGID_4_);}
	.st38{fill:#EFEFF6;}
	.st39{fill:#EF7F18;}
	.st40{fill:#4071A8;}
	.st41{fill:#0A498F;}
	.st42{fill:#3A7182;}
	.st43{fill:#E6E6E6;}
	.st44{fill:#FF9A19;}
	.st45{fill:#FFCB37;}
	.st46{opacity:0.1;}
	.st47{fill:#30183A;}
	.st48{fill:#F194A5;}
	.st49{fill:#C85D77;}
	.st50{fill:#BA2F7D;}
	.st51{fill:#B12384;}
	.st52{fill:#62BCD6;}
	.st53{fill:#BF7323;}
	.st54{fill:#80CAD5;}
	.st55{fill:#767579;}
	.st56{opacity:0.8;}
	.st57{fill:#9BCBE9;}
	.st58{fill:#3E275C;}
	.st59{fill:#406EB3;}
	.st60{fill:#DDD6FC;}
	.st61{fill:#EEEAFE;}
	.st62{fill:#7F65C1;}
	.st63{fill:none;stroke:#EEEAFE;stroke-width:0.5019;stroke-miterlimit:10;}
	.st64{fill:#EAE6FF;}
	.st65{fill:#D4EAF5;}
	.st66{fill:#A9CAE7;}
	.st67{fill:#ABC8E6;}
	.st68{fill:#D1C5FC;}
	.st69{fill:#CBB3FC;}
	.st70{fill:#CEAFF9;}
	.st71{fill:#FFC200;}
	.st72{fill:#E8853A;}
	.st73{fill:#5AC0F9;}
	.st74{fill:#53F9F4;}
	.st75{fill:#BF3904;}
	.st76{fill:#822302;}
	.st77{fill:#7964A8;}
	.st78{fill:#8865C4;}
	.st79{fill:#CCEAF5;}
	.st80{fill:#FFD67C;}
	.st81{fill:url(#SVGID_5_);}
	.st82{fill:url(#SVGID_6_);}
	.st83{fill:url(#SVGID_7_);}
	.st84{fill:url(#SVGID_8_);}
	.st85{fill:url(#SVGID_9_);}
	.st86{fill:url(#SVGID_10_);}
	.st87{fill:url(#SVGID_11_);}
	.st88{fill:#54565A;}
	.st89{fill:#9F79FF;}
	.st90{fill:#F2EEFF;}
	.st91{opacity:0.4;}
	.st92{fill:#E45D79;}
	.st93{fill:#FFE5AE;}
	.st94{fill:#FF97A7;}
	.st95{fill:#82CBEA;}
	.st96{fill:#BFEAF5;}
	.st97{fill:#8FD9ED;}
	.st98{fill:#43225D;}
	.st99{fill:#5C319A;}
	.st100{opacity:0.5;fill:url(#SVGID_12_);}
	.st101{fill:#632678;}
	.st102{fill:none;stroke:#FFFFFF;stroke-width:2;stroke-linecap:round;stroke-linejoin:round;stroke-miterlimit:10;}
	.st103{fill:none;stroke:#EEEAFE;stroke-miterlimit:10;}
	.st104{fill:#F98A8A;}
	.st105{fill:#AACBE8;}
	.st106{fill:#99B4DD;}
	.st107{fill:#6A54AF;}
	.st108{fill:#FD9E38;}
	.st109{fill:#DBCFFD;}
	.st110{fill:#B5B5B5;}
	.st111{fill:#80540A;}
	.st112{fill:#AD7121;}
	.st113{fill:#D5EAF5;}
	.st114{opacity:0.3;fill:#3B2B5B;}
	.st115{fill:#BAA4FF;}
	.st116{fill:#4E3E75;}
	.st117{fill:#D07BB5;}
	.st118{fill:#C14F9D;}
	.st119{fill:none;stroke:#000000;stroke-width:0.75;stroke-linecap:round;stroke-linejoin:round;stroke-miterlimit:10;}
	.st120{fill:#B3B3B3;}
	.st121{fill:#F2F2F2;}
	.st122{fill:#141414;}
	.st123{fill:#A3A3A3;}
	.st124{fill:#474747;}
	.st125{fill:#C7C7C7;}
	.st126{fill:#DBDBDB;}
</style>
<g id="Fondo">
</g>
<g id="Capa_7">
</g>
<g id="Contenido">
</g>
<g id="Footer">
</g>
<g id="Header">
</g>
<g id="Alertas">
</g>
<g id="Capa_2">
	<g>
		<g class="st9">
			<path class="st126" d="M14.2,34.2l12.5-12.5l3.6,3.6L17.8,37.8L14.2,34.2z"/>
			<path class="st126" d="M42.8,28.8l3.6-3.6L59,37.8l-3.6,3.6L42.8,28.8z"/>
			<path class="st122" d="M27.6,20.7l-0.9,0.9L14.2,34.2l-0.9,0.9l-7.2-7.2l14.3-14.3L27.6,20.7z"/>
			<path class="st122" d="M67.9,32.4l-7.2,7.2L59,37.8L46.4,25.2l-1.8-1.8l7.2-7.2L67.9,32.4z"/>
			<g>
				<path class="st123" d="M32.9,35.2L24,44l-6.3-6.3l12.5-12.5h5.4L46,35.5c1,1,1,2.6,0,3.6c-1,1-2.6,1-3.6,0L37,33.7
					C35.9,34.8,34.4,35.4,32.9,35.2z"/>
				<path class="st123" d="M45.1,56.1c0.5,0.5,0.7,1.1,0.7,1.8c0,0.7-0.3,1.3-0.7,1.8c-0.5,0.5-1.1,0.7-1.8,0.7
					c-0.7,0-1.3-0.3-1.8-0.7l-1.8-1.8c-0.2-0.2-0.3-0.3-0.4-0.5C39.1,57,39,56.6,39,56.1c0-1,0.6-1.9,1.6-2.3c0.9-0.4,2-0.2,2.8,0.5
					L45.1,56.1z"/>
				<path class="st123" d="M43.3,50.7c0.5-0.5,1.1-0.7,1.8-0.7c0.7,0,1.3,0.3,1.8,0.7l1.8,1.8c0.5,0.5,0.7,1.1,0.7,1.8
					c0,0.7-0.3,1.3-0.7,1.8c-0.5,0.5-1.1,0.7-1.8,0.7c-0.7,0-1.3-0.3-1.8-0.7l-1.8-1.8c-0.5-0.5-0.7-1.1-0.7-1.8
					C42.5,51.9,42.8,51.2,43.3,50.7z"/>
				<path class="st123" d="M52.2,49c1,1,1,2.6,0,3.6c-1,1-2.6,1-3.6,0l-1.8-1.8c-0.5-0.5-0.7-1.1-0.7-1.8c0-1,0.6-1.9,1.6-2.3
					c0.9-0.4,2-0.2,2.8,0.5L52.2,49z"/>
				<path class="st123" d="M55.8,45.4c1,1,1,2.6,0,3.6c-1,1-2.6,1-3.6,0l-1.8-1.8c-0.5-0.5-0.7-1.1-0.7-1.8c0-0.7,0.3-1.3,0.7-1.8
					c0.8-0.8,2.1-1,3.1-0.4c0.2,0.1,0.4,0.2,0.5,0.4L55.8,45.4z"/>
			</g>
			<path class="st125" d="M42.8,28.8l12.5,12.5l-1.9,1.9c-1-0.6-2.3-0.5-3.1,0.4c-0.5,0.5-0.7,1.1-0.7,1.8c0,0.7,0.3,1.3,0.7,1.8
				c-0.7-0.7-1.8-0.9-2.8-0.5c-0.9,0.4-1.6,1.3-1.6,2.3c0,0.7,0.3,1.3,0.7,1.8c-1-1-2.6-1-3.6,0c-1,1-1,2.6,0,3.6
				c-0.9-0.9-2.3-1-3.3-0.2c-1,0.8-1.3,2.2-0.6,3.3l-0.9,0.9c-1,1-2.6,1-3.6,0c-1-1-1-2.6,0-3.6c-0.5,0.5-1.1,0.7-1.8,0.7
				c-0.7,0-1.3-0.3-1.8-0.7c-0.5-0.5-0.7-1.1-0.7-1.8c0-0.7,0.3-1.3,0.7-1.8c-1,0.9-2.5,0.9-3.5-0.1c-1-1-1-2.5-0.1-3.5
				c-0.5,0.5-1.1,0.7-1.8,0.7c-0.7,0-1.3-0.3-1.8-0.7c-0.5-0.5-0.7-1.1-0.7-1.8s0.3-1.3,0.7-1.8l8.8-8.9c1.5,0.2,3.1-0.4,4.1-1.4
				l5.4,5.4c1,1,2.6,1,3.6,0c1-1,1-2.6,0-3.6l-6.1-6.1L42.8,28.8z"/>
			<path d="M68.8,31.5L52.7,15.4c-0.5-0.5-1.3-0.5-1.8,0l-7.2,7.2c-0.5,0.5-0.5,1.3,0,1.8l0.9,0.9l-2.4,2.4L40.3,28l-3.7-3.7
				C36.3,24.1,36,24,35.7,24h-4.8l-2.3-2.3c0.5-0.5,0.5-1.3,0-1.8l-7.2-7.2c-0.2-0.2-0.6-0.4-0.9-0.4s-0.7,0.1-0.9,0.4L5.2,27
				c-0.5,0.5-0.5,1.3,0,1.8l7.2,7.2c0.5,0.5,1.3,0.5,1.8,0l8.2,8.2c-0.6,1.1-0.5,2.5,0.2,3.6c0.6,1.1,1.8,1.8,3.1,1.8
				c0.1,1.9,1.6,3.5,3.6,3.6c0.1,1.9,1.6,3.5,3.6,3.6c0.1,1.5,1,2.8,2.4,3.3c1.4,0.5,3,0.2,4-0.8l1.3,1.3c1.1,1.1,2.6,1.4,4,0.9
				c1.4-0.5,2.4-1.9,2.4-3.4c1.9-0.1,3.5-1.6,3.6-3.6c1.9-0.1,3.5-1.6,3.6-3.6c1.5-0.1,2.8-1,3.3-2.4c0.5-1.4,0.2-3-0.9-4l0,0
				l-1.3-1.3l0.9-0.9c0,0,0,0,0,0l2.7-2.7l0.9,0.9c0.5,0.5,1.3,0.5,1.8,0l7.2-7.2C69.3,32.8,69.3,32,68.8,31.5z M13.3,33.3l-5.4-5.4
				l12.5-12.5l5.4,5.4L13.3,33.3z M16,34.2l10.7-10.7l1.8,1.8L17.8,36L16,34.2z M19.6,37.8l11.3-11.3h4.3l9.9,9.9
				c0.5,0.5,0.5,1.3,0,1.8c-0.5,0.5-1.3,0.5-1.8,0l-5.4-5.4c-0.5-0.5-1.3-0.5-1.8,0c-1.5,1.5-3.9,1.5-5.4,0l0,0
				c-0.2-0.2-0.5-0.4-0.9-0.4c-0.7,0-1.3,0.6-1.3,1.3c0,0.4,0.2,0.8,0.5,1c0.4,0.4,0.9,0.7,1.4,1L24,42.2L19.6,37.8z M38.4,53.9
				c-0.7,0.9-0.9,2.1-0.6,3.2l-0.4,0.4c-0.2,0.2-0.6,0.4-0.9,0.4c-0.3,0-0.7-0.1-0.9-0.4c-0.5-0.5-0.5-1.3,0-1.8l2.6-2.6l1-1l0,0
				c0.2-0.2,0.4-0.5,0.4-0.9c0-0.7-0.6-1.3-1.3-1.3c-0.3,0-0.7,0.1-0.9,0.4l0,0l-1,1l-2.6,2.6l0,0c-0.5,0.4-1.3,0.4-1.7-0.1
				c-0.5-0.5-0.5-1.3,0-1.7l3.6-3.6l0,0c0.2-0.2,0.4-0.5,0.4-0.9c0-0.7-0.6-1.3-1.3-1.3c-0.4,0-0.8,0.2-1,0.5l-3.5,3.5
				c-0.5,0.5-1.3,0.5-1.8,0c-0.5-0.5-0.5-1.3,0-1.8l3.6-3.6c0.2-0.2,0.4-0.6,0.4-0.9c0-0.7-0.6-1.3-1.3-1.3c-0.4,0-0.7,0.1-0.9,0.4
				l0,0l-3.6,3.6c-0.5,0.5-1.3,0.5-1.8,0c-0.5-0.5-0.5-1.3,0-1.8l2.7-2.7l5.8-5.8c1.3,0,2.5-0.3,3.5-1l4.6,4.6
				c1.5,1.4,3.9,1.4,5.4,0c1.5-1.5,1.5-3.9,0-5.4l-4.4-4.4l11.2,11.2l-0.4,0.4c-1.1-0.3-2.3-0.1-3.2,0.6c-0.9,0.7-1.5,1.7-1.5,2.9
				c-2,0.1-3.5,1.7-3.6,3.6c-1.9,0-3.5,1.6-3.6,3.5C40.2,52.4,39.1,53,38.4,53.9z M44.2,58.8c-0.5,0.5-1.3,0.5-1.8,0L40.6,57
				c-0.4-0.5-0.4-1.3,0.1-1.7c0.5-0.5,1.2-0.5,1.7-0.1l1.8,1.8c0.2,0.2,0.4,0.6,0.4,0.9C44.6,58.2,44.4,58.6,44.2,58.8z M47.8,55.2
				c-0.5,0.5-1.3,0.5-1.8,0l-1.8-1.8c-0.2-0.2-0.4-0.6-0.4-0.9c0-0.3,0.1-0.7,0.4-0.9c0.2-0.2,0.6-0.4,0.9-0.4
				c0.3,0,0.7,0.1,0.9,0.4l1.8,1.8c0.2,0.2,0.4,0.6,0.4,0.9C48.1,54.7,48,55,47.8,55.2z M51.3,51.6c-0.5,0.5-1.3,0.5-1.8,0l-1.8-1.8
				c-0.5-0.5-0.5-1.3,0-1.8c0.5-0.5,1.3-0.5,1.8,0l1.8,1.8c0.2,0.2,0.4,0.6,0.4,0.9C51.7,51.1,51.6,51.4,51.3,51.6z M54.9,48.1
				c-0.2,0.2-0.6,0.4-0.9,0.4c-0.3,0-0.7-0.1-0.9-0.4l-1.8-1.8c-0.5-0.5-0.5-1.3,0-1.8c0.5-0.5,1.3-0.5,1.8,0l1.8,1.8
				C55.4,46.8,55.4,47.6,54.9,48.1L54.9,48.1z M55.4,39.6L44.6,28.8l1.8-1.8l10.7,10.7L55.4,39.6z M60.7,37.8L46.4,23.4l5.4-5.4
				l14.3,14.3L60.7,37.8z"/>
		</g>
		<rect y="0" class="st26" width="74" height="74"/>
	</g>
</g>
</svg>
