<?xml version="1.0" encoding="utf-8"?>
<!-- Generator: Adobe Illustrator 23.0.6, SVG Export Plug-In . SVG Version: 6.00 Build 0)  -->
<svg version="1.1" xmlns="http://www.w3.org/2000/svg" xmlns:xlink="http://www.w3.org/1999/xlink" x="0px" y="0px"
	 viewBox="0 0 285.9 42.7" style="enable-background:new 0 0 285.9 42.7;" xml:space="preserve">
<style type="text/css">
	.st0{fill:#FFFFFF;}
	.st1{fill:#E0ECF6;}
	.st2{fill:#8DBBDD;}
	.st3{fill:none;stroke:#3184C1;stroke-width:1.3621;stroke-linecap:round;stroke-linejoin:round;stroke-miterlimit:10;}
	.st4{fill:#A1C7E3;}
	.st5{fill:none;stroke:#8DBBDD;stroke-width:1.3621;stroke-linecap:round;stroke-linejoin:round;stroke-miterlimit:10;}
	.st6{fill:#3184C1;}
	.st7{fill:none;stroke:#0D6EB6;stroke-width:1.2244;stroke-linecap:round;stroke-linejoin:round;stroke-miterlimit:10;}
	.st8{fill:none;stroke:#8DBBDD;stroke-width:1.5702;stroke-linecap:round;stroke-linejoin:round;stroke-miterlimit:10;}
	.st9{opacity:0.3;}
	.st10{fill:#D6E6F3;}
	.st11{fill:#E9F2F8;}
	.st12{fill:#5A9DCE;}
	.st13{fill:none;stroke:#E9F2F8;stroke-miterlimit:10;}
	.st14{fill:#CCCCCC;}
	.st15{fill:#FF97A8;}
	.st16{fill:#FF5D7B;}
	.st17{fill:#08478E;}
	.st18{fill:#331239;}
	.st19{fill:#3B2B5B;}
	.st20{fill:#380A37;}
	.st21{fill:#B7CADE;}
	.st22{fill:#5E87B5;}
	.st23{fill:#295A6E;}
	.st24{fill:#3E7687;}
	.st25{fill:#F39734;}
	.st26{fill:none;}
	.st27{fill:#EF7F19;}
	.st28{fill:#FDCA49;}
	.st29{fill:#86B7DB;}
	.st30{fill:#FF97A6;}
	.st31{fill:#C95D77;}
	.st32{fill:#30193B;}
	.st33{fill:#FFCB48;}
	.st34{fill:#FF9A2E;}
	.st35{clip-path:url(#SVGID_2_);}
	.st36{fill:#0D6EB6;}
	.st37{clip-path:url(#SVGID_4_);}
	.st38{fill:#EFEFF6;}
	.st39{fill:#EF7F18;}
	.st40{fill:#4071A8;}
	.st41{fill:#0A498F;}
	.st42{fill:#3A7182;}
	.st43{fill:#E6E6E6;}
	.st44{fill:#FF9A19;}
	.st45{fill:#FFCB37;}
	.st46{opacity:0.1;}
	.st47{fill:#30183A;}
	.st48{fill:#F194A5;}
	.st49{fill:#C85D77;}
	.st50{fill:#BA2F7D;}
	.st51{fill:#B12384;}
	.st52{fill:#62BCD6;}
	.st53{fill:#BF7323;}
	.st54{fill:#80CAD5;}
	.st55{fill:#767579;}
	.st56{opacity:0.8;}
	.st57{fill:#9BCBE9;}
	.st58{fill:#3E275C;}
	.st59{fill:#406EB3;}
	.st60{fill:#DDD6FC;}
	.st61{fill:#EEEAFE;}
	.st62{fill:#7F65C1;}
	.st63{fill:none;stroke:#EEEAFE;stroke-width:0.5019;stroke-miterlimit:10;}
	.st64{fill:#EAE6FF;}
	.st65{fill:#D4EAF5;}
	.st66{fill:#A9CAE7;}
	.st67{fill:#ABC8E6;}
	.st68{fill:#D1C5FC;}
	.st69{fill:#CBB3FC;}
	.st70{fill:#CEAFF9;}
	.st71{fill:#FFC200;}
	.st72{fill:#E8853A;}
	.st73{fill:#5AC0F9;}
	.st74{fill:#53F9F4;}
	.st75{fill:#BF3904;}
	.st76{fill:#822302;}
	.st77{fill:#7964A8;}
	.st78{fill:#8865C4;}
	.st79{fill:#CCEAF5;}
	.st80{fill:#FFD67C;}
	.st81{fill:url(#SVGID_5_);}
	.st82{fill:url(#SVGID_6_);}
	.st83{fill:url(#SVGID_7_);}
	.st84{fill:url(#SVGID_8_);}
	.st85{fill:url(#SVGID_9_);}
	.st86{fill:url(#SVGID_10_);}
	.st87{fill:url(#SVGID_11_);}
	.st88{fill:#54565A;}
	.st89{fill:#9F79FF;}
	.st90{fill:#F2EEFF;}
	.st91{opacity:0.4;}
	.st92{fill:#E45D79;}
	.st93{fill:#FFE5AE;}
	.st94{fill:#FF97A7;}
	.st95{fill:#82CBEA;}
	.st96{fill:#BFEAF5;}
	.st97{fill:#8FD9ED;}
	.st98{fill:#43225D;}
	.st99{fill:#5C319A;}
	.st100{opacity:0.5;fill:url(#SVGID_12_);}
	.st101{fill:#632678;}
	.st102{fill:none;stroke:#FFFFFF;stroke-width:2;stroke-linecap:round;stroke-linejoin:round;stroke-miterlimit:10;}
	.st103{fill:none;stroke:#EEEAFE;stroke-miterlimit:10;}
	.st104{fill:#F98A8A;}
	.st105{fill:#AACBE8;}
	.st106{fill:#99B4DD;}
	.st107{fill:#6A54AF;}
	.st108{fill:#FD9E38;}
	.st109{fill:#DBCFFD;}
	.st110{fill:#B5B5B5;}
	.st111{fill:#80540A;}
	.st112{fill:#AD7121;}
	.st113{fill:#D5EAF5;}
	.st114{opacity:0.3;fill:#3B2B5B;}
	.st115{fill:#BAA4FF;}
	.st116{fill:#4E3E75;}
	.st117{fill:#D07BB5;}
	.st118{fill:#C14F9D;}
	.st119{fill:none;stroke:#000000;stroke-width:0.75;stroke-linecap:round;stroke-linejoin:round;stroke-miterlimit:10;}
	.st120{fill:#B3B3B3;}
	.st121{fill:#F2F2F2;}
	.st122{fill:#141414;}
	.st123{fill:#A3A3A3;}
	.st124{fill:#474747;}
	.st125{fill:#C7C7C7;}
	.st126{fill:#DBDBDB;}
</style>
<g id="Fondo">
</g>
<g id="Capa_7">
</g>
<g id="Contenido">
</g>
<g id="Footer">
</g>
<g id="Header">
</g>
<g id="Alertas">
</g>
<g id="Capa_2">
	<g>
		<g>
			<g>
				<g>
					<path class="st0" d="M186.7,16.3c2.8,0,4.5,1.8,4.5,5.1v1.5c0,2.9-1.4,5.1-4.5,5.1c-1.5,0-2.5-0.5-3.1-1.3v5.4h-1.8V16.5h1.8
						v1.1C184.3,16.8,185.2,16.3,186.7,16.3z M189.4,22.8v-1.5c0-2.1-1-3.4-2.9-3.4c-1.8,0-2.9,1.2-2.9,3.3v1.6
						c0,1.9,0.8,3.5,2.9,3.5C188.5,26.3,189.4,24.8,189.4,22.8z"/>
					<path class="st0" d="M202.2,22.8c0,2.9-1.4,5.1-4.7,5.1c-3,0-4.7-2-4.7-5.1v-1.5c0-3.2,1.7-5.1,4.7-5.1c3,0,4.7,1.8,4.7,5.1
						V22.8z M200.4,22.8v-1.5c0-2.1-1-3.4-2.9-3.4c-1.9,0-2.9,1.3-2.9,3.4v1.5c0,1.9,0.8,3.5,2.9,3.5
						C199.4,26.3,200.4,24.8,200.4,22.8z"/>
					<path class="st0" d="M204.4,16.5h1.8v1.1c0.6-0.9,1.4-1.3,3-1.3c2.4,0,4.1,1.3,4.1,4.4v7h-1.8v-7c0-2.3-1.2-2.8-2.6-2.8
						c-1.7,0-2.8,1.2-2.8,2.8v7h-1.8V16.5z"/>
					<path class="st0" d="M215,16.5h1.4V14h1.8v2.5h2.6v1.6h-2.6v5.7c0,1.6,0.2,2.2,1.7,2.2h0.9v1.7h-1c-2.7,0-3.4-1.1-3.4-3.5v-6.2
						H215V16.5z"/>
					<path class="st0" d="M231.1,26.1c-0.8,1.4-2,1.9-4,1.9c-3,0-4.8-2-4.8-5.1v-1.5c0-3.2,1.5-5.1,4.5-5.1c3,0,4.5,1.8,4.5,5.1v1.2
						h-7.1v0.3c0,1.9,0.9,3.5,2.9,3.5c1.5,0,2.2-0.4,2.7-1.3L231.1,26.1z M224.1,21h5.3c-0.1-1.9-0.9-3-2.6-3
						C225.1,17.9,224.2,19.1,224.1,21z"/>
					<path class="st0" d="M242.7,21.2h2.7v-1.3c0-1.6-0.7-2-2.5-2c-1.4,0-2.1,0.1-2.7,1.2l-1.4-0.9c0.8-1.3,1.9-1.9,4.1-1.9
						c2.9,0,4.3,0.9,4.3,3.6v7.8h-1.8v-1.1c-0.6,1-1.4,1.3-2.9,1.3c-2.6,0-4-1.3-4-3.5C238.5,22,240.3,21.2,242.7,21.2z M245.4,22.8
						h-2.7c-1.8,0-2.4,0.6-2.4,1.7c0,1.3,0.9,1.8,2.2,1.8c1.7,0,2.9-0.3,2.9-2.8V22.8z"/>
					<path class="st0" d="M249.9,12.2h1.8v11.7c0,1.2,0.1,2.3,1.9,2.3v1.7c-2.8,0-3.7-1.1-3.7-3.5V12.2z"/>
					<path class="st0" d="M268.3,12.2h1.8v15.6h-1.8v-1c-0.6,0.8-1.6,1.2-3.1,1.2c-3.1,0-4.5-2.2-4.5-5.1v-1.5
						c0-3.2,1.7-5.1,4.5-5.1c1.5,0,2.5,0.5,3.1,1.3V12.2z M268.3,23v-1.6c0-2.1-1-3.4-2.9-3.4c-1.9,0-2.9,1.3-2.9,3.4v1.5
						c0,1.9,1,3.5,2.9,3.5C267.4,26.3,268.3,24.9,268.3,23z"/>
					<path class="st0" d="M274.6,11.4h2.2l-2.1,3.6h-1.7L274.6,11.4z M273.1,16.5h1.8v11.3h-1.8V16.5z"/>
					<path class="st0" d="M281.5,21.2h2.7v-1.3c0-1.6-0.7-2-2.5-2c-1.4,0-2.1,0.1-2.7,1.2l-1.4-0.9c0.8-1.3,1.9-1.9,4.1-1.9
						c2.9,0,4.3,0.9,4.3,3.6v7.8h-1.8v-1.1c-0.6,1-1.4,1.3-2.9,1.3c-2.6,0-4-1.3-4-3.5C277.2,22,279,21.2,281.5,21.2z M284.1,22.8
						h-2.7c-1.8,0-2.4,0.6-2.4,1.7c0,1.3,0.9,1.8,2.2,1.8c1.7,0,2.9-0.3,2.9-2.8V22.8z"/>
				</g>
				<g>
					<g>
						<g>
							<path class="st0" d="M56,12.2h1.3V28H56v-1.4c-0.6,1.1-1.7,1.5-3.5,1.5c-3,0-4.5-1.9-4.5-5.1v-1.6c0-3.2,1.6-5,4.5-5
								c1.7,0,2.8,0.5,3.5,1.6V12.2z M56,23.1v-1.6c0-2.3-0.9-3.9-3.4-3.9c-2.2,0-3.3,1.3-3.3,3.8v1.6c0,2.4,1.1,3.9,3.3,3.9
								C55.2,27,56,25.3,56,23.1z"/>
						</g>
					</g>
					<g>
						<g>
							<path class="st0" d="M64.6,21.5h3.3v-1.4c0-1.9-0.8-2.5-2.9-2.5c-1.4,0-2.3,0.1-3,1.3l-1-0.7c0.8-1.3,1.9-1.8,4-1.8
								c2.8,0,4.1,0.9,4.1,3.7V28h-1.3v-1.4c-0.6,1.2-1.8,1.6-3.2,1.6c-2.5,0-4-1.2-4-3.4S62.2,21.5,64.6,21.5z M67.9,22.6h-3.3
								c-2,0-2.6,0.9-2.6,2.1c0,1.6,1.1,2.2,2.7,2.2c1.9,0,3.2-0.6,3.2-3.2V22.6z"/>
							<path class="st0" d="M71.4,16.5h1.5V14h1.3v2.5h2.8v1.2h-2.8v6.4c0,1.8,0.2,2.7,2.1,2.7h0.8V28h-0.8c-2.5,0-3.3-1.1-3.3-3.5
								v-6.7h-1.5V16.5z"/>
						</g>
					</g>
					<g>
						<g>
							<path class="st0" d="M82.5,21.5h3.3v-1.4c0-1.9-0.8-2.5-2.9-2.5c-1.4,0-2.3,0.1-3,1.3l-1-0.7c0.8-1.3,1.9-1.8,4-1.8
								c2.8,0,4.1,0.9,4.1,3.7V28h-1.3v-1.4c-0.6,1.2-1.8,1.6-3.2,1.6c-2.5,0-4-1.2-4-3.4S80.1,21.5,82.5,21.5z M85.8,22.6h-3.3
								c-2,0-2.6,0.9-2.6,2.1c0,1.6,1.1,2.2,2.7,2.2c1.9,0,3.2-0.6,3.2-3.2V22.6z"/>
						</g>
					</g>
					<g>
						<g>
							<path class="st0" d="M99.5,26.3c-0.8,1.2-2.1,1.9-3.9,1.9c-3.1,0-4.8-1.8-4.8-5.1v-1.6c0-3.2,1.8-5,4.8-5
								c1.7,0,3,0.6,3.9,1.8l-1,0.7c-0.6-0.9-1.7-1.3-2.9-1.3c-2.3,0-3.6,1.4-3.6,3.8v1.6c0,2.3,1.1,3.9,3.6,3.9
								c1.2,0,2.2-0.4,2.9-1.4L99.5,26.3z"/>
							<path class="st0" d="M102.8,21.1V28h-1.3V16.5h1.3v1.6c0.5-1.1,1.4-1.7,2.9-1.7c1.5,0,2.5,0.6,3.2,1.6l-1.1,0.8
								c-0.6-0.8-1.3-1.2-2.3-1.2C103.8,17.6,102.8,19,102.8,21.1z"/>
							<path class="st0" d="M111.1,22.6v0.5c0,2.3,1.1,3.9,3.5,3.9c1.4,0,2.3-0.4,3-1.4l1,0.7c-0.8,1.3-2.1,1.9-3.9,1.9
								c-3,0-4.8-1.9-4.8-5.1v-1.6c0-3.2,1.6-5,4.4-5c2.9,0,4.4,1.8,4.4,5v1.2H111.1z M111.1,21.4h6.3v0c0-2.5-1.1-3.8-3.2-3.8
								C112.1,17.6,111.1,19,111.1,21.4L111.1,21.4z M115,11.4h1.5l-2,3.6h-1.2L115,11.4z"/>
							<path class="st0" d="M128.8,12.2h1.3V28h-1.3v-1.4c-0.6,1.1-1.7,1.5-3.5,1.5c-3,0-4.5-1.9-4.5-5.1v-1.6c0-3.2,1.6-5,4.5-5
								c1.7,0,2.8,0.5,3.5,1.6V12.2z M128.8,23.1v-1.6c0-2.3-0.9-3.9-3.4-3.9c-2.2,0-3.3,1.3-3.3,3.8v1.6c0,2.4,1.1,3.9,3.3,3.9
								C128,27,128.8,25.3,128.8,23.1z"/>
							<path class="st0" d="M133.5,12.2h1.5v1.5h-1.5V12.2z M133.6,16.5h1.3V28h-1.3V16.5z"/>
							<path class="st0" d="M137.4,16.5h1.5V14h1.3v2.5h2.8v1.2h-2.8v6.4c0,1.8,0.2,2.7,2.1,2.7h0.8V28h-0.8c-2.5,0-3.3-1.1-3.3-3.5
								v-6.7h-1.5V16.5z"/>
							<path class="st0" d="M149.5,28.1c-3,0-4.6-1.8-4.6-5v-1.7c0-3.2,1.7-5,4.6-5c2.9,0,4.6,1.8,4.6,5v1.7
								C154.2,26.2,152.6,28.1,149.5,28.1z M152.9,21.4c0-2.5-1.2-3.8-3.4-3.8c-2.2,0-3.4,1.3-3.4,3.8v1.7c0,2.4,1.1,3.9,3.4,3.9
								c2.2,0,3.4-1.5,3.4-3.9V21.4z"/>
						</g>
					</g>
				</g>
				<g>
					<g>
						<rect x="167.9" y="8.2" class="st0" width="0.7" height="28"/>
					</g>
				</g>
			</g>
			<path class="st0" d="M32,0H10.7C4.8,0,0,4.8,0,10.7V32c0,5.9,4.8,10.7,10.7,10.7H32c5.9,0,10.7-4.8,10.7-10.7V10.7
				C42.7,4.8,37.9,0,32,0z M26.9,28.1c0,0.2-0.2,0.4-0.4,0.4H25c-0.2,0-0.4-0.2-0.4-0.4v-6.4c0-1.2-0.4-2.6-2.3-2.6
				c-1.4,0-2.4,1-2.4,2.5v6.5c0,0.2-0.2,0.4-0.4,0.4h-1.5c-0.2,0-0.4-0.2-0.4-0.4v-6.4c0-1.2-0.4-2.6-2.3-2.6c-1.4,0-2.4,1-2.4,2.5
				v6.5c0,0.2-0.2,0.4-0.4,0.4h-1.5c-0.2,0-0.4-0.2-0.4-0.4V17.6c0-0.2,0.2-0.4,0.4-0.4h1.5c0.2,0,0.4,0.2,0.4,0.4v0.6
				c0.7-0.8,1.7-1.2,2.9-1.2c1.4,0,2.5,0.6,3.2,1.6c0.8-1.1,2-1.6,3.5-1.6c2.5,0,4,1.6,4,4.2V28.1z M31.7,28.1
				c0,0.2-0.2,0.4-0.4,0.4h-1.5c-0.2,0-0.4-0.2-0.4-0.4V17.6c0-0.2,0.2-0.4,0.4-0.4h1.5c0.2,0,0.4,0.2,0.4,0.4V28.1z M31.7,14.7
				c0,0.2-0.2,0.4-0.4,0.4h-1.6c-0.2,0-0.4-0.2-0.4-0.4V13c0-0.2,0.2-0.4,0.4-0.4h1.6c0.2,0,0.4,0.2,0.4,0.4V14.7z"/>
		</g>
	</g>
</g>
</svg>
