<?xml version="1.0" encoding="utf-8"?>
<!-- Generator: Adobe Illustrator 23.0.3, SVG Export Plug-In . SVG Version: 6.00 Build 0)  -->
<svg version="1.1" id="Capa_1" xmlns="http://www.w3.org/2000/svg" xmlns:xlink="http://www.w3.org/1999/xlink" x="0px" y="0px"
	 viewBox="0 0 1011.9 572.9" style="enable-background:new 0 0 1011.9 572.9;" xml:space="preserve">
<style type="text/css">
	.st0{opacity:0.4;}
	.st1{fill:url(#SVGID_1_);}
	.st2{fill:url(#SVGID_2_);}
	.st3{fill:url(#SVGID_3_);}
	.st4{fill:url(#SVGID_4_);}
	.st5{fill:url(#SVGID_5_);}
	.st6{fill:url(#SVGID_6_);}
	.st7{fill:url(#SVGID_7_);}
	.st8{fill:url(#SVGID_8_);}
	.st9{fill:url(#SVGID_9_);}
	.st10{fill:url(#SVGID_10_);}
	.st11{fill:url(#SVGID_11_);}
	.st12{fill:url(#SVGID_12_);}
	.st13{fill:url(#SVGID_13_);}
	.st14{fill:url(#SVGID_14_);}
	.st15{fill:url(#SVGID_15_);}
	.st16{fill:url(#SVGID_16_);}
	.st17{fill:url(#SVGID_17_);}
	.st18{fill:url(#SVGID_18_);}
	.st19{fill:url(#SVGID_19_);}
	.st20{fill:url(#SVGID_20_);}
	.st21{fill:url(#SVGID_21_);}
	.st22{fill:url(#SVGID_22_);}
	.st23{fill:url(#SVGID_23_);}
	.st24{fill:url(#SVGID_24_);}
	.st25{fill:url(#SVGID_25_);}
	.st26{fill:url(#SVGID_26_);}
	.st27{fill:url(#SVGID_27_);}
	.st28{fill:#FFFFFF;}
	.st29{fill:url(#SVGID_28_);}
	.st30{fill:url(#SVGID_29_);}
	.st31{fill:url(#SVGID_30_);}
	.st32{fill:url(#SVGID_31_);}
	.st33{fill:url(#SVGID_32_);}
	.st34{fill:url(#SVGID_33_);}
</style>
<title>text_01</title>
<g class="st0">
	
		<linearGradient id="SVGID_1_" gradientUnits="userSpaceOnUse" x1="505.95" y1="1.1" x2="505.95" y2="574" gradientTransform="matrix(1 0 0 -1 0 574)">
		<stop  offset="0" style="stop-color:#E3E3E3"/>
		<stop  offset="1" style="stop-color:#F8F8F8"/>
	</linearGradient>
	<rect class="st1" width="1011.9" height="572.9"/>
	
		<linearGradient id="SVGID_2_" gradientUnits="userSpaceOnUse" x1="173.8697" y1="401.0359" x2="66.6748" y2="682.4221" gradientTransform="matrix(1 0 0 -1 0 574)">
		<stop  offset="0" style="stop-color:#FFFFFF"/>
		<stop  offset="1" style="stop-color:#D2D2D2"/>
	</linearGradient>
	<path class="st2" d="M94,67.8C251.1,111.7,246.7,0,246.7,0H0v80.7C25.3,65,54.8,56.9,94,67.8z"/>
	
		<linearGradient id="SVGID_3_" gradientUnits="userSpaceOnUse" x1="957.7518" y1="313.2689" x2="850.8499" y2="593.8858" gradientTransform="matrix(1 0 0 -1 0 574)">
		<stop  offset="0" style="stop-color:#FFFFFF"/>
		<stop  offset="1" style="stop-color:#D2D2D2"/>
	</linearGradient>
	<path class="st3" d="M864.7,174.1c62.3,0,96.4-61.9,147.2-93.4V0H737.6C712.8,130.2,796.3,174.1,864.7,174.1z"/>
	
		<linearGradient id="SVGID_4_" gradientUnits="userSpaceOnUse" x1="907.0228" y1="205.0567" x2="761.0605" y2="588.2071" gradientTransform="matrix(1 0 0 -1 0 574)">
		<stop  offset="0" style="stop-color:#FFFFFF"/>
		<stop  offset="1" style="stop-color:#DFDFDF"/>
	</linearGradient>
	<path class="st4" d="M531,0c0,166.6,297.7,280.8,480.9,315.6V0C1011.9,0,652,0,531,0z"/>
	
		<linearGradient id="SVGID_5_" gradientUnits="userSpaceOnUse" x1="341.1233" y1="372.1703" x2="188.8132" y2="771.9832" gradientTransform="matrix(1 0 0 -1 0 574)">
		<stop  offset="0" style="stop-color:#FFFFFF"/>
		<stop  offset="1" style="stop-color:#D2D2D2"/>
	</linearGradient>
	<path class="st5" d="M648.7,0H45.5H0v315.6c13.7,3.1,28.8,4.8,45.5,4.8C250,320.4,209.7,66.7,402,92C681.5,128.7,648.7,0,648.7,0z"
		/>
	
		<linearGradient id="SVGID_6_" gradientUnits="userSpaceOnUse" x1="-481.0837" y1="6926.9458" x2="-589.8707" y2="6825.5342" gradientTransform="matrix(1.1638 0.1638 0.1638 1.1638 -385.0716 -7738.1641)">
		<stop  offset="5.405410e-03" style="stop-color:#FFFFFF"/>
		<stop  offset="1" style="stop-color:#E0E0E0"/>
	</linearGradient>
	<path class="st6" d="M183,209.5L59.6,86.2c-9-9-23.7-9-32.7,0l0,0c-9,9-9,23.7,0,32.7l123.4,123.4c9,9,23.7,9,32.7,0l0,0
		C192,233.2,192,218.5,183,209.5z"/>
	
		<linearGradient id="SVGID_7_" gradientUnits="userSpaceOnUse" x1="199.4674" y1="411.7858" x2="92.9052" y2="691.511" gradientTransform="matrix(1 0 0 -1 0 574)">
		<stop  offset="0" style="stop-color:#FFFFFF"/>
		<stop  offset="1" style="stop-color:#D2D2D2"/>
	</linearGradient>
	<path class="st7" d="M154.2,114.9C379.1,146.5,352.6,0,352.6,0H0l0,0h246.7c0,0,4.5,111.7-152.7,67.8C54.8,56.9,25.3,65,0,80.7
		v122.1C32.4,150,50.9,100.4,154.2,114.9z"/>
	
		<linearGradient id="SVGID_8_" gradientUnits="userSpaceOnUse" x1="927.5909" y1="303.1644" x2="821.5981" y2="581.3948" gradientTransform="matrix(1 0 0 -1 0 574)">
		<stop  offset="0" style="stop-color:#FFFFFF"/>
		<stop  offset="1" style="stop-color:#E0E0E0"/>
	</linearGradient>
	<path class="st8" d="M866.3,174.1c-67.7,0-150.2-43.8-125.7-174.1h271.3l0,0H662.2c0,115.7,92.4,385.9,279.8,276.2
		c34.7-20.3,54-47.3,69.9-73.4V80.7C961.7,112.1,928,174.1,866.3,174.1z"/>
	<g>
		
			<linearGradient id="SVGID_9_" gradientUnits="userSpaceOnUse" x1="-343.5745" y1="6889.4546" x2="-555.5121" y2="6691.8862" gradientTransform="matrix(1.1638 0.1638 0.1638 1.1638 -385.0716 -7738.1641)">
			<stop  offset="5.405410e-03" style="stop-color:#FFFFFF"/>
			<stop  offset="1" style="stop-color:#E0E0E0"/>
		</linearGradient>
		<path class="st9" d="M177.5,0H50.2l217.7,217.7c17.6,17.6,46.1,17.6,63.7,0s17.6-46.1,0-63.7L177.5,0z"/>
	</g>
	
		<linearGradient id="SVGID_10_" gradientUnits="userSpaceOnUse" x1="132.7094" y1="499.3323" x2="92.6432" y2="646.2418" gradientTransform="matrix(1 0 0 -1 0 574)">
		<stop  offset="0" style="stop-color:#FFFFFF"/>
		<stop  offset="1" style="stop-color:#D2D2D2"/>
	</linearGradient>
	<path class="st10" d="M94,67.8C251.1,111.7,246.7,0,246.7,0H0v80.7C25.3,65,54.8,56.9,94,67.8z"/>
	
		<linearGradient id="SVGID_11_" gradientUnits="userSpaceOnUse" x1="-1549.8518" y1="413.8034" x2="-1755.9298" y2="224.3932" gradientTransform="matrix(-1.5696 0.5696 0.5696 -1.5696 -1867.318 1597.1239)">
		<stop  offset="5.405410e-03" style="stop-color:#FFFFFF"/>
		<stop  offset="1" style="stop-color:#E0E0E0"/>
	</linearGradient>
	<path class="st11" d="M812.6,114.9l101.3,101.3c14.7,14.7,38.5,14.7,53.2,0l0,0c14.7-14.7,14.7-38.5,0-53.2L865.8,61.7
		c-14.7-14.7-38.5-14.7-53.2,0l0,0C797.9,76.4,797.9,100.2,812.6,114.9z"/>
	
		<linearGradient id="SVGID_12_" gradientUnits="userSpaceOnUse" x1="901.9744" y1="432.592" x2="862.1384" y2="578.6575" gradientTransform="matrix(1 0 0 -1 0 574)">
		<stop  offset="0" style="stop-color:#FFFFFF"/>
		<stop  offset="1" style="stop-color:#D2D2D2"/>
	</linearGradient>
	<path class="st12" d="M864.7,174.1c62.3,0,96.4-61.9,147.2-93.4V0H737.6C712.8,130.2,796.3,174.1,864.7,174.1z"/>
	
		<linearGradient id="SVGID_13_" gradientUnits="userSpaceOnUse" x1="1127.6627" y1="7672.8555" x2="1252.5059" y2="7672.8555" gradientTransform="matrix(1 0 0 1 -290.658 -7643.7505)">
		<stop  offset="5.405410e-03" style="stop-color:#FFFFFF"/>
		<stop  offset="1" style="stop-color:#E0E0E0"/>
	</linearGradient>
	<path class="st13" d="M932.6,0c-2.1,16.7-16.6,29.5-33.8,29.2c-16.8-0.3-30.6-13-32.6-29.2h-29c2.2,32,28.6,57.6,61.2,58.2
		C931.8,58.8,959.5,33,961.8,0H932.6z"/>
	<g>
		
			<linearGradient id="SVGID_14_" gradientUnits="userSpaceOnUse" x1="-3627.6575" y1="2212.7441" x2="-3538.6904" y2="2100.2571" gradientTransform="matrix(-1 0 0 -1 -3138.6975 2714.5164)">
			<stop  offset="0" style="stop-color:#FFFFFF"/>
			<stop  offset="1" style="stop-color:#D2D2D2"/>
		</linearGradient>
		<path class="st14" d="M620.2,572.9c0,0-9.1-80.1-85.9-60.2c-115.2,29.8-88.2-33.7-178.7-29.4c-84.1,4-83.7,89.7-83.7,89.7
			L620.2,572.9L620.2,572.9z"/>
		
			<linearGradient id="SVGID_15_" gradientUnits="userSpaceOnUse" x1="254.2748" y1="7881.5723" x2="117.602" y2="7732.5869" gradientTransform="matrix(1.0333 3.330000e-02 3.330000e-02 1.0333 -275.1791 -7628.272)">
			<stop  offset="0" style="stop-color:#FFFFFF"/>
			<stop  offset="1" style="stop-color:#D2D2D2"/>
		</linearGradient>
		<path class="st15" d="M243.3,491.1L129.6,377.4c-5.6-5.6-14.6-5.6-20.2,0l0,0c-5.6,5.6-5.6,14.6,0,20.2l113.7,113.7
			c5.6,5.6,14.6,5.6,20.2,0l0,0C248.9,505.7,248.9,496.7,243.3,491.1z"/>
		
			<linearGradient id="SVGID_16_" gradientUnits="userSpaceOnUse" x1="173.21" y1="136.9862" x2="264.4486" y2="-60.6978" gradientTransform="matrix(1 0 0 -1 0 574)">
			<stop  offset="0" style="stop-color:#FFFFFF"/>
			<stop  offset="1" style="stop-color:#D2D2D2"/>
		</linearGradient>
		<path class="st16" d="M390.7,529.7c-47.8,0-84.9-1.6-95.6-66.4c-5-30.5-34.5-43.6-61.9-40.9c-27.4-2.7-56.9,10.4-61.9,40.9
			c-10.7,64.8-47.8,66.4-95.6,66.4s-44.9,43.2-44.9,43.2h106.4l0,0h96h96l0,0h106.4C435.6,572.9,438.5,529.7,390.7,529.7z"/>
	</g>
	<g>
		
			<linearGradient id="SVGID_17_" gradientUnits="userSpaceOnUse" x1="1089.467" y1="8220.0215" x2="1028.9656" y2="8114.4658" gradientTransform="matrix(1 0 0 1 -290.658 -7643.7505)">
			<stop  offset="5.405410e-03" style="stop-color:#FFFFFF"/>
			<stop  offset="1" style="stop-color:#E0E0E0"/>
		</linearGradient>
		<path class="st17" d="M658.4,572.9c0,0-3.8-57.8,57.3-47c65.7,11.6,56.6-55.7,114-55.7c47.1,0,24.5,64.1,65.7,69.6
			s31.9,33.2,31.9,33.2L658.4,572.9L658.4,572.9z"/>
		
			<linearGradient id="SVGID_18_" gradientUnits="userSpaceOnUse" x1="1108.8782" y1="8217.8828" x2="1101.8018" y2="8145.3506" gradientTransform="matrix(1 0 0 1 -290.658 -7643.7505)">
			<stop  offset="0" style="stop-color:#E3E3E3"/>
			<stop  offset="1" style="stop-color:#FFFFFF"/>
		</linearGradient>
		<path class="st18" d="M746.5,572.9c6.6-33.6,36.2-59.9,71.6-59.9s65.1,26.3,71.6,59.9H746.5z"/>
	</g>
	
		<linearGradient id="SVGID_19_" gradientUnits="userSpaceOnUse" x1="1303.7234" y1="8057.6396" x2="1220.7651" y2="8046.4058" gradientTransform="matrix(1 0 0 1 -290.658 -7643.7505)">
		<stop  offset="0" style="stop-color:#E3E3E3"/>
		<stop  offset="1" style="stop-color:#FFFFFF"/>
	</linearGradient>
	<path class="st19" d="M1011.9,471.6c-31.8-0.3-57.5-26.2-57.5-58.1s25.7-57.8,57.5-58.1V471.6z"/>
	
		<linearGradient id="SVGID_20_" gradientUnits="userSpaceOnUse" x1="-4384.9302" y1="2275.533" x2="-4467.8887" y2="2264.2991" gradientTransform="matrix(-1 0 0 -1 -4386.0796 2688.6458)">
		<stop  offset="0" style="stop-color:#E3E3E3"/>
		<stop  offset="1" style="stop-color:#FFFFFF"/>
	</linearGradient>
	<path class="st20" d="M0,355.4c31.8,0.3,57.5,26.2,57.5,58.1S31.8,471.3,0,471.6V355.4z"/>
	
		<linearGradient id="SVGID_21_" gradientUnits="userSpaceOnUse" x1="475.2374" y1="8175.4189" x2="460.1635" y2="8230.6904" gradientTransform="matrix(1 0 0 1 -290.658 -7643.7505)">
		<stop  offset="0" style="stop-color:#FFFFFF"/>
		<stop  offset="1" style="stop-color:#D2D2D2"/>
	</linearGradient>
	<path class="st21" d="M277.8,572.9c0,0,1.7-41.6-58.7-24.8c-45.3,12.6-56.8-40.8-92.7-40.8c-26.3,0-58.4,15.6-48.9,65.6H277.8z"/>
	<g id="ELEMENT_10_">
		
			<linearGradient id="SVGID_22_" gradientUnits="userSpaceOnUse" x1="966.0778" y1="8035.5703" x2="1017.5756" y2="8087.0684" gradientTransform="matrix(1 0 0 1 -290.658 -7643.7505)">
			<stop  offset="5.405410e-03" style="stop-color:#FFFFFF"/>
			<stop  offset="1" style="stop-color:#E0E0E0"/>
		</linearGradient>
		<path class="st22" d="M735.4,437.8l-22-22c-3.8-3.8-10-3.8-13.8,0l0,0c-3.8,3.8-3.8,10,0,13.8l12,12c3.8,3.8,3.8,10,0,13.8l-1,1
			c-3.8,3.8-10,3.8-13.8,0L655,415.1c-3.8-3.8-3.8-10,0-13.8l1-1c3.8-3.8,10-3.8,13.8,0l6.9,6.9c3.8,3.8,10,3.8,13.8,0l0,0
			c3.8-3.8,3.8-10,0-13.8l-8-8c-3.8-3.8-3.8-10,0-13.8l1-1c3.8-3.8,10-3.8,13.8,0l53,52.4c3.8,3.8,3.8,10,0,13.8l-1,1
			C745.4,441.6,739.2,441.6,735.4,437.8z"/>
		
			<linearGradient id="SVGID_23_" gradientUnits="userSpaceOnUse" x1="12204.2139" y1="19418.5156" x2="12391.2725" y2="19418.5156" gradientTransform="matrix(0.6321 -0.3679 -0.3679 0.6321 -148.0184 -7501.1113)">
			<stop  offset="5.405410e-03" style="stop-color:#FFFFFF"/>
			<stop  offset="1" style="stop-color:#E0E0E0"/>
		</linearGradient>
		<path class="st23" d="M505.5,243.7l-18.9-18.9c-8.1-8.1-21.3-8.1-29.5,0l0,0c-8.1,8.1-8.1,21.3,0,29.5l18.9,18.9
			c8.1,8.1,21.3,8.1,29.5,0l0,0C513.7,265,513.7,251.8,505.5,243.7z"/>
		
			<linearGradient id="SVGID_24_" gradientUnits="userSpaceOnUse" x1="640.9229" y1="7893.0005" x2="669.2287" y2="7893.0005" gradientTransform="matrix(1 0 0 1 -290.658 -7643.7505)">
			<stop  offset="5.405410e-03" style="stop-color:#FFFFFF"/>
			<stop  offset="1" style="stop-color:#E0E0E0"/>
		</linearGradient>
		<path class="st24" d="M378.6,249.5c-0.1,7.8-6.6,14.1-14.4,13.9c-7.8-0.1-14.1-6.6-13.9-14.4c0.1-7.8,6.6-14.1,14.4-13.9
			C372.5,235.2,378.7,241.7,378.6,249.5z M372,249.4c0.1-4.2-3.3-7.7-7.5-7.7c-4.2-0.1-7.7,3.3-7.7,7.5c-0.1,4.2,3.3,7.7,7.5,7.7
			S372,253.6,372,249.4z"/>
		
			<linearGradient id="SVGID_25_" gradientUnits="userSpaceOnUse" x1="490.5128" y1="7945.6504" x2="504.6794" y2="7945.6504" gradientTransform="matrix(1 0 0 1 -290.658 -7643.7505)">
			<stop  offset="5.405410e-03" style="stop-color:#FFFFFF"/>
			<stop  offset="1" style="stop-color:#E0E0E0"/>
		</linearGradient>
		<path class="st25" d="M214,302c-0.1,3.9-3.3,7-7.2,7c-3.9-0.1-7-3.3-7-7.2c0.1-3.9,3.3-7,7.2-7C211,294.9,214.1,298.1,214,302z
			 M210.7,301.9c0-2.1-1.6-3.8-3.7-3.9c-2.1,0-3.8,1.6-3.9,3.7s1.6,3.8,3.7,3.9C209,305.7,210.7,304,210.7,301.9z"/>
		
			<linearGradient id="SVGID_26_" gradientUnits="userSpaceOnUse" x1="1119.4092" y1="7874.6504" x2="1133.5758" y2="7874.6504" gradientTransform="matrix(1 0 0 1 -290.658 -7643.7505)">
			<stop  offset="5.405410e-03" style="stop-color:#FFFFFF"/>
			<stop  offset="1" style="stop-color:#E0E0E0"/>
		</linearGradient>
		<path class="st26" d="M842.9,231c-0.1,3.9-3.3,7-7.2,7c-3.9-0.1-7-3.3-7-7.2c0.1-3.9,3.3-7,7.2-7C839.9,223.8,843,227.1,842.9,231
			z M839.6,230.9c0-2.1-1.6-3.8-3.7-3.9c-2.1,0-3.8,1.6-3.9,3.7c0,2.1,1.6,3.8,3.7,3.9C837.9,234.7,839.6,233,839.6,230.9z"/>
		
			<linearGradient id="SVGID_27_" gradientUnits="userSpaceOnUse" x1="511.8549" y1="8141.2505" x2="555.861" y2="8141.2505" gradientTransform="matrix(1 0 0 1 -290.658 -7643.7505)">
			<stop  offset="5.405410e-03" style="stop-color:#FFFFFF"/>
			<stop  offset="1" style="stop-color:#E0E0E0"/>
		</linearGradient>
		<path class="st27" d="M265.2,497.9c-0.2,12.1-10.3,21.8-22.4,21.6c-12.1-0.2-21.8-10.3-21.6-22.4s10.3-21.8,22.4-21.6
			C255.7,475.7,265.4,485.8,265.2,497.9z M255,497.7c0.1-6.5-5.1-11.9-11.6-12s-11.9,5.1-12,11.6s5.1,11.9,11.6,12
			C249.5,509.4,254.9,504.2,255,497.7z"/>
		<path class="st28" d="M488.6,400.5c0.2-12.1,10.3-21.8,22.4-21.6c12.1,0.2,21.8,10.3,21.6,22.4s-10.3,21.8-22.4,21.6
			C498.1,422.6,488.4,412.6,488.6,400.5z M498.9,400.6c-0.1,6.5,5.1,11.9,11.6,12s11.9-5.1,12-11.6s-5.1-11.9-11.6-12
			C504.4,388.9,499,394.1,498.9,400.6z"/>
		<path class="st28" d="M681.9,269c-0.2,12.1-10.3,21.8-22.4,21.6c-12.1-0.2-21.8-10.3-21.6-22.4s10.3-21.8,22.4-21.6
			C672.4,246.9,682.1,256.9,681.9,269z M671.7,268.9c0.1-6.5-5.1-11.9-11.6-12s-11.9,5.1-12,11.6s5.1,11.9,11.6,12
			C666.1,280.6,671.5,275.4,671.7,268.9z"/>
		<path class="st28" d="M527.8,557.5c-0.1,6.5-5.5,11.7-12,11.6c-6.5-0.1-11.7-5.5-11.6-12s5.5-11.7,12-11.6
			C522.7,545.6,527.9,551,527.8,557.5z M522.3,557.4c0.1-3.5-2.7-6.4-6.2-6.4c-3.5-0.1-6.4,2.7-6.4,6.2c-0.1,3.5,2.7,6.4,6.2,6.4
			C519.3,563.7,522.2,560.9,522.3,557.4z"/>
		<g>
			<g>
				<polygon class="st28" points="526.8,50.7 510.7,66.8 526.8,82.9 531.4,78.4 519.8,66.8 531.4,55.2 				"/>
			</g>
			<g>
				<polygon class="st28" points="546.8,50.7 530.6,66.8 546.8,82.9 551.3,78.4 539.8,66.8 551.3,55.2 				"/>
			</g>
			<g>
				<polygon class="st28" points="566.8,50.7 550.6,66.8 566.8,82.9 571.3,78.4 559.7,66.8 571.3,55.2 				"/>
			</g>
			<g>
				<polygon class="st28" points="586.7,50.7 570.6,66.8 586.7,82.9 591.3,78.4 579.7,66.8 591.3,55.2 				"/>
			</g>
		</g>
		<g>
			
				<linearGradient id="SVGID_28_" gradientUnits="userSpaceOnUse" x1="336.758" y1="7929.7007" x2="430.416" y2="7929.7007" gradientTransform="matrix(1 0 0 1 -290.658 -7643.7505)">
				<stop  offset="0" style="stop-color:#E3E3E3"/>
				<stop  offset="1" style="stop-color:#FFFFFF"/>
			</linearGradient>
			<path class="st29" d="M49.3,239.3L49.3,239.3c-1.8,0-3.2,1.4-3.2,3.2v14.9c0,1.8,1.4,3.2,3.2,3.2H61c1.8,0,3.2,1.4,3.2,3.2v11.6
				c0,1.8,1.4,3.2,3.2,3.2H79c1.8,0,3.2,1.4,3.2,3.2v11.6c0,1.8,1.4,3.2,3.2,3.2H97c1.8,0,3.2,1.4,3.2,3.2v11.6
				c0,1.8,1.4,3.2,3.2,3.2H115c1.8,0,3.2,1.4,3.2,3.2v11.6c0,1.8,1.4,3.2,3.2,3.2h14.9c1.8,0,3.2-1.4,3.2-3.2l0,0
				c0-1.8-1.4-3.2-3.2-3.2h-8.4c-1.8,0-3.2-1.4-3.2-3.2v-11.6c0-1.8-1.4-3.2-3.2-3.2H110c-1.8,0-3.2-1.4-3.2-3.2v-11.6
				c0-1.8-1.4-3.2-3.2-3.2H92c-1.8,0-3.2-1.4-3.2-3.2v-11.6c0-1.8-1.4-3.2-3.2-3.2H73.9c-1.8,0-3.2-1.4-3.2-3.2v-11.6
				c0-1.8-1.4-3.2-3.2-3.2H55.8c-1.8,0-3.2-1.4-3.2-3.2v-8.4C52.6,240.8,51.1,239.3,49.3,239.3z"/>
		</g>
		<g>
			
				<linearGradient id="SVGID_29_" gradientUnits="userSpaceOnUse" x1="1086.7579" y1="8020.4004" x2="1180.4159" y2="8020.4004" gradientTransform="matrix(1 0 0 1 -290.658 -7643.7505)">
				<stop  offset="0" style="stop-color:#E3E3E3"/>
				<stop  offset="1" style="stop-color:#FFFFFF"/>
			</linearGradient>
			<path class="st30" d="M799.3,330L799.3,330c-1.8,0-3.2,1.4-3.2,3.2v14.9c0,1.8,1.4,3.2,3.2,3.2h11.6c1.8,0,3.2,1.4,3.2,3.2v11.6
				c0,1.8,1.4,3.2,3.2,3.2H829c1.8,0,3.2,1.4,3.2,3.2v11.6c0,1.8,1.4,3.2,3.2,3.2H847c1.8,0,3.2,1.4,3.2,3.2v11.6
				c0,1.8,1.4,3.2,3.2,3.2H865c1.8,0,3.2,1.4,3.2,3.2v11.6c0,1.8,1.4,3.2,3.2,3.2h14.9c1.8,0,3.2-1.4,3.2-3.2l0,0
				c0-1.8-1.4-3.2-3.2-3.2h-8.4c-1.8,0-3.2-1.4-3.2-3.2v-11.6c0-1.8-1.4-3.2-3.2-3.2H860c-1.8,0-3.2-1.4-3.2-3.2v-11.6
				c0-1.8-1.4-3.2-3.2-3.2H842c-1.8,0-3.2-1.4-3.2-3.2v-11.6c0-1.8-1.4-3.2-3.2-3.2H824c-1.8,0-3.2-1.4-3.2-3.2v-11.6
				c0-1.8-1.4-3.2-3.2-3.2H806c-1.8,0-3.2-1.4-3.2-3.2v-8.4C802.5,331.4,801.1,330,799.3,330z"/>
		</g>
		
			<linearGradient id="SVGID_30_" gradientUnits="userSpaceOnUse" x1="640.0252" y1="7750.9165" x2="600.8137" y2="7717.0928" gradientTransform="matrix(1 0 0 1 -290.658 -7643.7505)">
			<stop  offset="0" style="stop-color:#E3E3E3"/>
			<stop  offset="1" style="stop-color:#FFFFFF"/>
		</linearGradient>
		<polygon class="st31" points="355.2,76.1 340.1,91.1 355.2,106.2 345.8,115.5 330.8,100.4 315.8,115.5 306.5,106.2 321.5,91.1 
			306.5,76.1 315.8,66.8 330.8,81.8 345.8,66.8 		"/>
		
			<linearGradient id="SVGID_31_" gradientUnits="userSpaceOnUse" x1="-3532.575" y1="2127.4443" x2="-3571.7866" y2="2093.6206" gradientTransform="matrix(-1 0 0 -1 -2957.1428 2622.5779)">
			<stop  offset="5.405410e-03" style="stop-color:#FFFFFF"/>
			<stop  offset="1" style="stop-color:#E0E0E0"/>
		</linearGradient>
		<polygon class="st32" points="569.6,526.2 584.7,511.2 569.6,496.1 579,486.8 594,501.9 609,486.8 618.3,496.1 603.3,511.2 
			618.3,526.2 609,535.5 594,520.5 579,535.5 		"/>
		<path class="st28" d="M128.3,557.3l-4.4-4.4l-4.4,4.4c-1.1,1.1-2.8,1.1-3.9,0s-1.1-2.8,0-3.9l4.4-4.4l-4.4-4.4
			c-1.1-1.1-1.1-2.8,0-3.9c1.1-1.1,2.8-1.1,3.9,0l4.4,4.4l4.4-4.4c1.1-1.1,2.8-1.1,3.9,0c1.1,1.1,1.1,2.8,0,3.9l-4.4,4.4l4.4,4.4
			c1.1,1.1,1.1,2.8,0,3.9C131.1,558.4,129.4,558.4,128.3,557.3z"/>
		<path class="st28" d="M677.4,104.2h-6.3v6.3c0,1.5-1.2,2.8-2.8,2.8c-1.5,0-2.8-1.2-2.8-2.8v-6.3h-6.3c-1.5,0-2.8-1.2-2.8-2.8
			c0-1.5,1.2-2.8,2.8-2.8h6.3v-6.3c0-1.5,1.2-2.8,2.8-2.8c1.5,0,2.8,1.2,2.8,2.8v6.3h6.3c1.5,0,2.8,1.2,2.8,2.8
			C680.1,102.9,678.9,104.2,677.4,104.2z"/>
		
			<linearGradient id="SVGID_32_" gradientUnits="userSpaceOnUse" x1="1228.795" y1="8141.2505" x2="1252.4417" y2="8141.2505" gradientTransform="matrix(1 0 0 1 -290.658 -7643.7505)">
			<stop  offset="5.405410e-03" style="stop-color:#FFFFFF"/>
			<stop  offset="1" style="stop-color:#E0E0E0"/>
		</linearGradient>
		<path class="st33" d="M959,500.3h-6.3v6.3c0,1.5-1.2,2.8-2.8,2.8c-1.5,0-2.8-1.2-2.8-2.8v-6.3h-6.3c-1.5,0-2.8-1.2-2.8-2.8
			c0-1.5,1.2-2.8,2.8-2.8h6.3v-6.3c0-1.5,1.2-2.8,2.8-2.8c1.5,0,2.8,1.2,2.8,2.8v6.3h6.3c1.5,0,2.8,1.2,2.8,2.8
			C961.8,499.1,960.5,500.3,959,500.3z"/>
		
			<linearGradient id="SVGID_33_" gradientUnits="userSpaceOnUse" x1="669.858" y1="8056.3506" x2="693.5049" y2="8056.3506" gradientTransform="matrix(1 0 0 1 -290.658 -7643.7505)">
			<stop  offset="5.405410e-03" style="stop-color:#FFFFFF"/>
			<stop  offset="1" style="stop-color:#E0E0E0"/>
		</linearGradient>
		<path class="st34" d="M400.1,415.4h-6.3v6.3c0,1.5-1.2,2.8-2.8,2.8c-1.5,0-2.8-1.2-2.8-2.8v-6.3H382c-1.5,0-2.8-1.2-2.8-2.8
			c0-1.5,1.2-2.8,2.8-2.8h6.3v-6.3c0-1.5,1.2-2.8,2.8-2.8c1.5,0,2.8,1.2,2.8,2.8v6.3h6.3c1.5,0,2.8,1.2,2.8,2.8
			C402.9,414.2,401.6,415.4,400.1,415.4z"/>
	</g>
</g>
</svg>
