<?xml version="1.0" encoding="utf-8"?>
<!-- Generator: Adobe Illustrator 23.0.6, SVG Export Plug-In . SVG Version: 6.00 Build 0)  -->
<svg version="1.1" xmlns="http://www.w3.org/2000/svg" xmlns:xlink="http://www.w3.org/1999/xlink" x="0px" y="0px"
	 viewBox="0 0 200 200" style="enable-background:new 0 0 200 200;" xml:space="preserve">
<style type="text/css">
	.st0{fill:#FFFFFF;}
	.st1{fill:#E0ECF6;}
	.st2{fill:#8DBBDD;}
	.st3{fill:none;stroke:#3184C1;stroke-width:1.3621;stroke-linecap:round;stroke-linejoin:round;stroke-miterlimit:10;}
	.st4{fill:#A1C7E3;}
	.st5{fill:none;stroke:#8DBBDD;stroke-width:1.3621;stroke-linecap:round;stroke-linejoin:round;stroke-miterlimit:10;}
	.st6{fill:#3184C1;}
	.st7{fill:none;stroke:#0D6EB6;stroke-width:1.2244;stroke-linecap:round;stroke-linejoin:round;stroke-miterlimit:10;}
	.st8{fill:none;stroke:#8DBBDD;stroke-width:1.5702;stroke-linecap:round;stroke-linejoin:round;stroke-miterlimit:10;}
	.st9{opacity:0.3;}
	.st10{fill:#D6E6F3;}
	.st11{fill:#E9F2F8;}
	.st12{fill:#5A9DCE;}
	.st13{fill:none;stroke:#E9F2F8;stroke-miterlimit:10;}
	.st14{fill:#CCCCCC;}
	.st15{fill:#FF97A8;}
	.st16{fill:#FF5D7B;}
	.st17{fill:#08478E;}
	.st18{fill:#331239;}
	.st19{fill:#3B2B5B;}
	.st20{fill:#380A37;}
	.st21{fill:#B7CADE;}
	.st22{fill:#5E87B5;}
	.st23{fill:#295A6E;}
	.st24{fill:#3E7687;}
	.st25{fill:#F39734;}
	.st26{fill:none;}
	.st27{fill:#EF7F19;}
	.st28{fill:#FDCA49;}
	.st29{fill:#86B7DB;}
	.st30{fill:#FF97A6;}
	.st31{fill:#C95D77;}
	.st32{fill:#30193B;}
	.st33{fill:#FFCB48;}
	.st34{fill:#FF9A2E;}
	.st35{clip-path:url(#SVGID_2_);}
	.st36{fill:#0D6EB6;}
	.st37{clip-path:url(#SVGID_4_);}
	.st38{fill:#EFEFF6;}
	.st39{fill:#EF7F18;}
	.st40{fill:#4071A8;}
	.st41{fill:#0A498F;}
	.st42{fill:#3A7182;}
	.st43{fill:#E6E6E6;}
	.st44{fill:#FF9A19;}
	.st45{fill:#FFCB37;}
	.st46{opacity:0.1;}
	.st47{fill:#30183A;}
	.st48{fill:#F194A5;}
	.st49{fill:#C85D77;}
	.st50{fill:#BA2F7D;}
	.st51{fill:#B12384;}
	.st52{fill:#62BCD6;}
	.st53{fill:#BF7323;}
	.st54{fill:#80CAD5;}
	.st55{fill:#767579;}
	.st56{opacity:0.8;}
	.st57{fill:#9BCBE9;}
	.st58{fill:#3E275C;}
	.st59{fill:#406EB3;}
	.st60{fill:#DDD6FC;}
	.st61{fill:#EEEAFE;}
	.st62{fill:#7F65C1;}
	.st63{fill:none;stroke:#EEEAFE;stroke-width:0.5019;stroke-miterlimit:10;}
	.st64{fill:#EAE6FF;}
	.st65{fill:#D4EAF5;}
	.st66{fill:#A9CAE7;}
	.st67{fill:#ABC8E6;}
	.st68{fill:#D1C5FC;}
	.st69{fill:#CBB3FC;}
	.st70{fill:#CEAFF9;}
	.st71{fill:#FFC200;}
	.st72{fill:#E8853A;}
	.st73{fill:#5AC0F9;}
	.st74{fill:#53F9F4;}
	.st75{fill:#BF3904;}
	.st76{fill:#822302;}
	.st77{fill:#7964A8;}
	.st78{fill:#8865C4;}
	.st79{fill:#CCEAF5;}
	.st80{fill:#FFD67C;}
	.st81{fill:url(#SVGID_5_);}
	.st82{fill:url(#SVGID_6_);}
	.st83{fill:url(#SVGID_7_);}
	.st84{fill:url(#SVGID_8_);}
	.st85{fill:url(#SVGID_9_);}
	.st86{fill:url(#SVGID_10_);}
	.st87{fill:url(#SVGID_11_);}
	.st88{fill:#54565A;}
	.st89{fill:#9F79FF;}
	.st90{fill:#F2EEFF;}
	.st91{opacity:0.4;}
	.st92{fill:#E45D79;}
	.st93{fill:#FFE5AE;}
	.st94{fill:#FF97A7;}
	.st95{fill:#82CBEA;}
	.st96{fill:#BFEAF5;}
	.st97{fill:#8FD9ED;}
	.st98{fill:#43225D;}
	.st99{fill:#5C319A;}
	.st100{opacity:0.5;fill:url(#SVGID_12_);}
	.st101{fill:#632678;}
	.st102{fill:none;stroke:#FFFFFF;stroke-width:2;stroke-linecap:round;stroke-linejoin:round;stroke-miterlimit:10;}
	.st103{fill:none;stroke:#EEEAFE;stroke-miterlimit:10;}
	.st104{fill:#F98A8A;}
	.st105{fill:#AACBE8;}
	.st106{fill:#99B4DD;}
	.st107{fill:#6A54AF;}
	.st108{fill:#FD9E38;}
	.st109{fill:#DBCFFD;}
	.st110{fill:#B5B5B5;}
	.st111{fill:#80540A;}
	.st112{fill:#AD7121;}
	.st113{fill:#D5EAF5;}
	.st114{opacity:0.3;fill:#3B2B5B;}
	.st115{fill:#BAA4FF;}
	.st116{fill:#4E3E75;}
	.st117{fill:#D07BB5;}
	.st118{fill:#C14F9D;}
	.st119{fill:none;stroke:#000000;stroke-width:0.75;stroke-linecap:round;stroke-linejoin:round;stroke-miterlimit:10;}
	.st120{fill:#B3B3B3;}
	.st121{fill:#F2F2F2;}
	.st122{fill:#141414;}
	.st123{fill:#A3A3A3;}
	.st124{fill:#474747;}
	.st125{fill:#C7C7C7;}
	.st126{fill:#DBDBDB;}
</style>
<g id="Fondo">
</g>
<g id="Capa_7">
</g>
<g id="Contenido">
</g>
<g id="Footer">
</g>
<g id="Header">
</g>
<g id="Alertas">
</g>
<g id="Capa_2">
	<g>
		<g>
			<defs>
				<path id="SVGID_1_" d="M187,176.7L13,177.2c-3.9,0-6.1-3.8-3.8-6.5l13.6-15.8c1.2-1.4,3.1-2.2,5.2-2.2h145.5
					c2.1,0,4.1,0.9,5.3,2.4l12,15.2C193,173,190.8,176.6,187,176.7z"/>
			</defs>
			<use xlink:href="#SVGID_1_"  style="overflow:visible;fill:#CCCCCC;"/>
			<clipPath id="SVGID_2_">
				<use xlink:href="#SVGID_1_"  style="overflow:visible;"/>
			</clipPath>
			<g class="st35">
				<polygon class="st14" points="192,171.6 8,172.1 8,184.5 192,184.5 				"/>
			</g>
		</g>
		<g>
			<g>
				<g>
					<path class="st10" d="M172.1,46.8H27.9c-3.3,0-5.9,2.7-5.9,5.9v83.5c0,3.3,2.7,5.9,5.9,5.9h144.3c3.3,0,5.9-2.7,5.9-5.9V52.8
						C178.1,49.5,175.4,46.8,172.1,46.8z"/>
					<g>
						<path class="st10" d="M185.8,171.8l-171.6,0.6c-3.8,0-6.1-4.4-3.8-7.5l13.4-18.1c1.2-1.6,3.1-2.6,5.1-2.6h143.6
							c2.1,0,4.1,1,5.3,2.8l11.8,17.4C191.8,167.6,189.6,171.8,185.8,171.8z"/>
					</g>
					<g>
						<polygon class="st29" points="179,161.7 21,162 30.9,148 169.6,148 						"/>
					</g>
					<g>
						<rect x="35.6" y="142.2" class="st36" width="30.3" height="2.1"/>
					</g>
					<g>
						<rect x="133.1" y="142.2" class="st36" width="30.3" height="2.1"/>
					</g>
					<path class="st11" d="M168.1,54.3H31.9c-1.3,0-2.3,1-2.3,2.3v75.8c0,1.3,1,2.3,2.3,2.3h136.1c1.3,0,2.3-1,2.3-2.3V56.6
						C170.4,55.4,169.3,54.3,168.1,54.3z"/>
					<g>
						<path class="st12" d="M101.8,50.7c0,1-0.8,1.8-1.8,1.8c-1,0-1.8-0.8-1.8-1.8c0-1,0.8-1.8,1.8-1.8
							C101,48.9,101.8,49.7,101.8,50.7z"/>
					</g>
					<g>
						<defs>
							<path id="SVGID_3_" d="M185.8,171.8l-171.6,0.6c-3.8,0-6.1-4.4-3.8-7.5l13.4-18.1c1.2-1.6,3.1-2.6,5.1-2.6h143.6
								c2.1,0,4.1,1,5.3,2.8l11.8,17.4C191.8,167.6,189.6,171.8,185.8,171.8z"/>
						</defs>
						<clipPath id="SVGID_4_">
							<use xlink:href="#SVGID_3_"  style="overflow:visible;"/>
						</clipPath>
						<g class="st37">
							<polygon class="st12" points="190.7,166.1 9.3,166.6 9.3,180.8 190.7,180.8 							"/>
						</g>
					</g>
				</g>
			</g>
		</g>
		<g>
			<g>
				<path class="st38" d="M59.5,45.2c-0.8,0-1.6,0.3-2.1,0.8l0.1,0.1c0,0,0,0,0,0c-0.5,0.6-0.8,1.4-0.6,2.1c0.1,0.7,0.7,1.4,1.4,1.7
					c0.7,0.4,1.6,0.4,2.2,0.1c0.2-0.1,0.4-0.2,0.6-0.4c0.4-0.3,0.6-0.8,0.8-1.3c0.2-0.8,0.1-1.6-0.4-2.2
					C61,45.6,60.3,45.2,59.5,45.2z"/>
				<path class="st38" d="M66.8,49.4c-0.3-0.5-0.8-0.8-1.4-0.8c-0.6,0-1.2,0.3-1.4,0.8c-0.3,0.5-0.3,1.1,0,1.6
					c0.3,0.5,0.8,0.9,1.4,0.9c0.4,0,0.8-0.2,1.1-0.4c0.1-0.1,0.2-0.3,0.3-0.4C67.1,50.5,67.1,49.9,66.8,49.4z"/>
				<path class="st38" d="M48.5,30.2c-2.2-1-4.6-1.2-6.6-0.4c-1.5,0.6-2.8,1.9-3.5,3.3c-0.8-1.6-1.7-2.9-2.6-4c-2.2-2.5-5-4-7.7-4
					c-3.8,0-7.4,3-8,6.7c-0.3,2,0.2,4.2,1.5,5.9c-3,1.1-5.1,4.1-5.1,7.2c0,3.5,2.5,6.7,5.8,7.6c-0.1,3,1.2,6.1,3.5,8.4
					c2.4,2.4,5.6,3.7,8.7,3.5c2.5-0.1,4.9-1.2,6.9-3.1c0.5-0.4,0.9-0.9,1.3-1.4c2-2.6,3-5.7,2.5-8.7c4.7-0.6,8.8-4.5,9.6-9.2
					C55.7,37.4,53,32.3,48.5,30.2z"/>
			</g>
			<g>
				<g>
					<g>
						<path class="st34" d="M39.2,53.1c0,1-2.8,1.9-6.3,1.9c-3.5,0-6.3-0.8-6.3-1.9c0-0.2-0.1-0.9,0-1.1c0.7-0.8,3.3-0.8,6.3-0.8
							c2.9,0,5.5-0.1,6.2,0.8C39.3,52.1,39.2,52.9,39.2,53.1z"/>
					</g>
					<g>
						<g>
							<path class="st26" d="M39.2,52c-0.7-0.8-3.3-0.8-6.2-0.8c-2.9,0-5.5,0-6.3,0.8c-0.1,0.2,0,0.9,0,1.1c0,0.2,0.2,0.5,0.5,0.7
								v-1.3h0.2v1.4c0.3,0.2,0.6,0.3,1,0.4v-1.3h0.2v1.3c0.3,0.1,0.7,0.2,1,0.2v-1.4h0.2v1.4c0.3,0.1,0.7,0.1,1,0.1v-1.3H31v1.3
								c0.4,0,0.7,0.1,1.1,0.1v-1.4h0.2v1.4c0.2,0,0.4,0,0.6,0c0.2,0,0.3,0,0.5,0v-1.3h0.2v1.3c0.3,0,0.7,0,1-0.1v-1.3h0.2v1.2
								c0.4,0,0.8-0.1,1.2-0.1v-1.3h0.2v1.2c0.5-0.1,0.9-0.2,1.3-0.3v-1.3h0.2v1.2c0.4-0.1,0.7-0.3,1-0.5v-1.3h0.2v1.2
								c0.2-0.2,0.4-0.4,0.4-0.6C39.2,52.9,39.3,52.1,39.2,52z"/>
						</g>
						<g>
							<path class="st39" d="M27.1,52.5v1.3c0.1,0,0.1,0.1,0.2,0.1v-1.4H27.1z"/>
						</g>
						<g>
							<path class="st39" d="M28.3,53.1v1.3c0.1,0,0.1,0,0.2,0.1v-1.3H28.3z"/>
						</g>
						<g>
							<path class="st39" d="M29.5,53.3v1.4c0.1,0,0.1,0,0.2,0v-1.4H29.5z"/>
						</g>
						<g>
							<path class="st39" d="M30.8,53.5v1.3c0.1,0,0.1,0,0.2,0v-1.3H30.8z"/>
						</g>
						<g>
							<path class="st39" d="M32.1,53.5v1.4c0.1,0,0.1,0,0.2,0v-1.4H32.1z"/>
						</g>
						<g>
							<path class="st39" d="M33.4,53.6v1.3c0.1,0,0.1,0,0.2,0v-1.3H33.4z"/>
						</g>
						<g>
							<path class="st39" d="M34.6,53.6v1.3c0.1,0,0.1,0,0.2,0v-1.2H34.6z"/>
						</g>
						<g>
							<path class="st39" d="M35.9,53.4v1.3c0.1,0,0.1,0,0.2,0v-1.2H35.9z"/>
						</g>
						<g>
							<path class="st39" d="M37.4,53.1v1.3c0.1,0,0.1,0,0.2-0.1v-1.2H37.4z"/>
						</g>
						<g>
							<path class="st39" d="M38.6,52.5v1.3c0.1,0,0.1-0.1,0.2-0.1v-1.2H38.6z"/>
						</g>
					</g>
					<g>
						<path class="st33" d="M39.2,52.1c0,0.7-1.8,1.8-6.3,1.8c-5,0-6.3-1.1-6.3-1.8c0-0.7,2.8-1.3,6.3-1.3
							C36.4,50.9,39.2,51.4,39.2,52.1z"/>
					</g>
				</g>
				<g>
					<g>
						<path class="st34" d="M40.6,51.4c0,1-2.8,1.9-6.3,1.9c-3.5,0-6.3-0.8-6.3-1.9c0-0.2-0.1-0.9,0-1.1c0.7-0.8,3.3-0.8,6.3-0.8
							c2.9,0,5.5-0.1,6.2,0.8C40.6,50.4,40.6,51.2,40.6,51.4z"/>
					</g>
					<g>
						<g>
							<path class="st26" d="M40.5,50.3c-0.7-0.8-3.3-0.8-6.2-0.8c-2.9,0-5.5,0-6.3,0.8c-0.1,0.2,0,0.9,0,1.1c0,0.2,0.2,0.5,0.5,0.7
								v-1.3h0.2v1.4c0.3,0.2,0.6,0.3,1,0.4v-1.3h0.2v1.3c0.3,0.1,0.7,0.2,1,0.2v-1.4h0.2V53c0.3,0.1,0.7,0.1,1,0.1v-1.3h0.2v1.3
								c0.4,0,0.7,0.1,1.1,0.1v-1.4h0.2v1.4c0.2,0,0.4,0,0.6,0c0.2,0,0.3,0,0.5,0v-1.3H35v1.3c0.3,0,0.7,0,1-0.1v-1.3h0.2v1.2
								c0.4,0,0.8-0.1,1.2-0.1v-1.3h0.2v1.2c0.5-0.1,0.9-0.2,1.3-0.3v-1.3H39v1.2c0.4-0.1,0.7-0.3,1-0.5v-1.3h0.2V52
								c0.2-0.2,0.4-0.4,0.4-0.6C40.6,51.2,40.6,50.4,40.5,50.3z"/>
						</g>
						<g>
							<path class="st39" d="M28.5,50.8V52c0.1,0,0.1,0.1,0.2,0.1v-1.4H28.5z"/>
						</g>
						<g>
							<path class="st39" d="M29.7,51.4v1.3c0.1,0,0.1,0,0.2,0.1v-1.3H29.7z"/>
						</g>
						<g>
							<path class="st39" d="M30.9,51.6v1.4c0.1,0,0.1,0,0.2,0v-1.4H30.9z"/>
						</g>
						<g>
							<path class="st39" d="M32.1,51.8v1.3c0.1,0,0.1,0,0.2,0v-1.3H32.1z"/>
						</g>
						<g>
							<path class="st39" d="M33.5,51.8v1.4c0.1,0,0.1,0,0.2,0v-1.4H33.5z"/>
						</g>
						<g>
							<path class="st39" d="M34.8,51.9v1.3c0.1,0,0.1,0,0.2,0v-1.3H34.8z"/>
						</g>
						<g>
							<path class="st39" d="M35.9,51.9v1.3c0.1,0,0.1,0,0.2,0v-1.2H35.9z"/>
						</g>
						<g>
							<path class="st39" d="M37.3,51.7V53c0.1,0,0.1,0,0.2,0v-1.2H37.3z"/>
						</g>
						<g>
							<path class="st39" d="M38.8,51.4v1.3c0.1,0,0.1,0,0.2-0.1v-1.2H38.8z"/>
						</g>
						<g>
							<path class="st39" d="M40,50.8v1.3c0.1,0,0.1-0.1,0.2-0.1v-1.2H40z"/>
						</g>
					</g>
					<g>
						<path class="st33" d="M40.6,50.4c0,0.7-1.8,1.8-6.3,1.8c-5,0-6.3-1.1-6.3-1.8c0-0.7,2.8-1.3,6.3-1.3
							C37.8,49.1,40.6,49.7,40.6,50.4z"/>
					</g>
				</g>
				<g>
					<g>
						<path class="st34" d="M39.2,49.3c0,1-2.8,1.9-6.3,1.9c-3.5,0-6.3-0.8-6.3-1.9c0-0.2-0.1-0.9,0-1.1c0.7-0.8,3.3-0.8,6.3-0.8
							c2.9,0,5.5-0.1,6.2,0.8C39.3,48.3,39.2,49.1,39.2,49.3z"/>
					</g>
					<g>
						<g>
							<path class="st26" d="M39.2,48.2c-0.7-0.8-3.3-0.8-6.2-0.8c-2.9,0-5.5,0-6.3,0.8c-0.1,0.2,0,0.9,0,1.1c0,0.2,0.2,0.5,0.5,0.7
								v-1.3h0.2v1.4c0.3,0.2,0.6,0.3,1,0.4v-1.3h0.2v1.3c0.3,0.1,0.7,0.2,1,0.2v-1.4h0.2v1.4c0.3,0.1,0.7,0.1,1,0.1v-1.3H31V51
								c0.4,0,0.7,0.1,1.1,0.1v-1.4h0.2v1.4c0.2,0,0.4,0,0.6,0c0.2,0,0.3,0,0.5,0v-1.3h0.2v1.3c0.3,0,0.7,0,1-0.1v-1.3h0.2V51
								c0.4,0,0.8-0.1,1.2-0.1v-1.3h0.2v1.2c0.5-0.1,0.9-0.2,1.3-0.3v-1.3h0.2v1.2c0.4-0.1,0.7-0.3,1-0.5v-1.3h0.2v1.2
								c0.2-0.2,0.4-0.4,0.4-0.6C39.2,49.1,39.3,48.3,39.2,48.2z"/>
						</g>
						<g>
							<path class="st39" d="M27.1,48.7V50c0.1,0,0.1,0.1,0.2,0.1v-1.4H27.1z"/>
						</g>
						<g>
							<path class="st39" d="M28.3,49.3v1.3c0.1,0,0.1,0,0.2,0.1v-1.3H28.3z"/>
						</g>
						<g>
							<path class="st39" d="M29.5,49.5v1.4c0.1,0,0.1,0,0.2,0v-1.4H29.5z"/>
						</g>
						<g>
							<path class="st39" d="M30.8,49.7V51c0.1,0,0.1,0,0.2,0v-1.3H30.8z"/>
						</g>
						<g>
							<path class="st39" d="M32.1,49.7v1.4c0.1,0,0.1,0,0.2,0v-1.4H32.1z"/>
						</g>
						<g>
							<path class="st39" d="M33.4,49.8v1.3c0.1,0,0.1,0,0.2,0v-1.3H33.4z"/>
						</g>
						<g>
							<path class="st39" d="M34.6,49.8v1.3c0.1,0,0.1,0,0.2,0v-1.2H34.6z"/>
						</g>
						<g>
							<path class="st39" d="M35.9,49.6v1.3c0.1,0,0.1,0,0.2,0v-1.2H35.9z"/>
						</g>
						<g>
							<path class="st39" d="M37.4,49.3v1.3c0.1,0,0.1,0,0.2-0.1v-1.2H37.4z"/>
						</g>
						<g>
							<path class="st39" d="M38.6,48.7V50c0.1,0,0.1-0.1,0.2-0.1v-1.2H38.6z"/>
						</g>
					</g>
					<g>
						<path class="st33" d="M39.2,48.3c0,0.7-1.8,1.8-6.3,1.8c-5,0-6.3-1.1-6.3-1.8s2.8-1.3,6.3-1.3C36.4,47.1,39.2,47.6,39.2,48.3z
							"/>
					</g>
				</g>
				<g>
					<g>
						<path class="st34" d="M38.7,47.6c0,1-2.8,1.9-6.3,1.9c-3.5,0-6.3-0.8-6.3-1.9c0-0.2-0.1-0.9,0-1.1c0.7-0.8,3.3-0.8,6.3-0.8
							c2.9,0,5.5-0.1,6.2,0.8C38.7,46.6,38.7,47.4,38.7,47.6z"/>
					</g>
					<g>
						<g>
							<path class="st26" d="M38.6,46.5c-0.7-0.8-3.3-0.8-6.2-0.8c-2.9,0-5.5,0-6.3,0.8c-0.1,0.2,0,0.9,0,1.1c0,0.2,0.2,0.5,0.5,0.7
								V47h0.2v1.4c0.3,0.2,0.6,0.3,1,0.4v-1.3H28v1.3c0.3,0.1,0.7,0.2,1,0.2v-1.4h0.2v1.4c0.3,0.1,0.7,0.1,1,0.1V48h0.2v1.3
								c0.4,0,0.7,0.1,1.1,0.1V48h0.2v1.4c0.2,0,0.4,0,0.6,0c0.2,0,0.3,0,0.5,0v-1.3h0.2v1.3c0.3,0,0.7,0,1-0.1v-1.3h0.2v1.2
								c0.4,0,0.8-0.1,1.2-0.1v-1.3h0.2v1.2c0.5-0.1,0.9-0.2,1.3-0.3v-1.3h0.2v1.2c0.4-0.1,0.7-0.3,1-0.5V47h0.2v1.2
								c0.2-0.2,0.4-0.4,0.4-0.6C38.7,47.4,38.7,46.6,38.6,46.5z"/>
						</g>
						<g>
							<path class="st39" d="M26.6,47v1.3c0.1,0,0.1,0.1,0.2,0.1V47H26.6z"/>
						</g>
						<g>
							<path class="st39" d="M27.8,47.6v1.3c0.1,0,0.1,0,0.2,0.1v-1.3H27.8z"/>
						</g>
						<g>
							<path class="st39" d="M29,47.8v1.4c0.1,0,0.1,0,0.2,0v-1.4H29z"/>
						</g>
						<g>
							<path class="st39" d="M30.2,48v1.3c0.1,0,0.1,0,0.2,0V48H30.2z"/>
						</g>
						<g>
							<path class="st39" d="M31.6,48v1.4c0.1,0,0.1,0,0.2,0V48H31.6z"/>
						</g>
						<g>
							<path class="st39" d="M32.9,48.1v1.3c0.1,0,0.1,0,0.2,0v-1.3H32.9z"/>
						</g>
						<g>
							<path class="st39" d="M34,48.1v1.3c0.1,0,0.1,0,0.2,0v-1.2H34z"/>
						</g>
						<g>
							<path class="st39" d="M35.4,47.9v1.3c0.1,0,0.1,0,0.2,0v-1.2H35.4z"/>
						</g>
						<g>
							<path class="st39" d="M36.9,47.6v1.3c0.1,0,0.1,0,0.2-0.1v-1.2H36.9z"/>
						</g>
						<g>
							<path class="st39" d="M38.1,47v1.3c0.1,0,0.1-0.1,0.2-0.1V47H38.1z"/>
						</g>
					</g>
					<g>
						<path class="st33" d="M38.7,46.6c0,0.7-1.8,1.8-6.3,1.8c-5,0-6.3-1.1-6.3-1.8c0-0.7,2.8-1.3,6.3-1.3
							C35.9,45.3,38.7,45.9,38.7,46.6z"/>
					</g>
				</g>
				<g>
					<g>
						<path class="st34" d="M39.2,45.5c0,1-2.8,1.9-6.3,1.9c-3.5,0-6.3-0.8-6.3-1.9c0-0.2-0.1-0.9,0-1.1c0.7-0.8,3.3-0.8,6.3-0.8
							c2.9,0,5.5-0.1,6.2,0.8C39.3,44.5,39.2,45.3,39.2,45.5z"/>
					</g>
					<g>
						<g>
							<path class="st26" d="M39.2,44.4c-0.7-0.8-3.3-0.8-6.2-0.8c-2.9,0-5.5,0-6.3,0.8c-0.1,0.2,0,0.9,0,1.1c0,0.2,0.2,0.5,0.5,0.7
								v-1.3h0.2v1.4c0.3,0.2,0.6,0.3,1,0.4v-1.3h0.2v1.3c0.3,0.1,0.7,0.2,1,0.2v-1.4h0.2v1.4c0.3,0.1,0.7,0.1,1,0.1v-1.3H31v1.3
								c0.4,0,0.7,0.1,1.1,0.1v-1.4h0.2v1.4c0.2,0,0.4,0,0.6,0c0.2,0,0.3,0,0.5,0V46h0.2v1.3c0.3,0,0.7,0,1-0.1V46h0.2v1.2
								c0.4,0,0.8-0.1,1.2-0.1v-1.3h0.2v1.2c0.5-0.1,0.9-0.2,1.3-0.3v-1.3h0.2v1.2c0.4-0.1,0.7-0.3,1-0.5v-1.3h0.2v1.2
								c0.2-0.2,0.4-0.4,0.4-0.6C39.2,45.3,39.3,44.5,39.2,44.4z"/>
						</g>
						<g>
							<path class="st39" d="M27.1,44.9v1.3c0.1,0,0.1,0.1,0.2,0.1v-1.4H27.1z"/>
						</g>
						<g>
							<path class="st39" d="M28.3,45.5v1.3c0.1,0,0.1,0,0.2,0.1v-1.3H28.3z"/>
						</g>
						<g>
							<path class="st39" d="M29.5,45.7V47c0.1,0,0.1,0,0.2,0v-1.4H29.5z"/>
						</g>
						<g>
							<path class="st39" d="M30.8,45.9v1.3c0.1,0,0.1,0,0.2,0v-1.3H30.8z"/>
						</g>
						<g>
							<path class="st39" d="M32.1,45.9v1.4c0.1,0,0.1,0,0.2,0v-1.4H32.1z"/>
						</g>
						<g>
							<path class="st39" d="M33.4,46v1.3c0.1,0,0.1,0,0.2,0V46H33.4z"/>
						</g>
						<g>
							<path class="st39" d="M34.6,46v1.3c0.1,0,0.1,0,0.2,0V46H34.6z"/>
						</g>
						<g>
							<path class="st39" d="M35.9,45.8v1.3c0.1,0,0.1,0,0.2,0v-1.2H35.9z"/>
						</g>
						<g>
							<path class="st39" d="M37.4,45.5v1.3c0.1,0,0.1,0,0.2-0.1v-1.2H37.4z"/>
						</g>
						<g>
							<path class="st39" d="M38.6,44.9v1.3c0.1,0,0.1-0.1,0.2-0.1v-1.2H38.6z"/>
						</g>
					</g>
					<g>
						<path class="st33" d="M39.2,44.6c0,0.7-1.8,1.8-6.3,1.8c-5,0-6.3-1.1-6.3-1.8c0-0.7,2.8-1.3,6.3-1.3
							C36.4,43.3,39.2,43.8,39.2,44.6z"/>
					</g>
				</g>
				<g>
					<g>
						<path class="st34" d="M39.8,43.4c0,1-2.8,1.9-6.3,1.9c-3.5,0-6.3-0.8-6.3-1.9c0-0.2-0.1-0.9,0-1.1c0.7-0.8,3.3-0.8,6.3-0.8
							c2.9,0,5.5-0.1,6.2,0.8C39.9,42.5,39.8,43.3,39.8,43.4z"/>
					</g>
					<g>
						<g>
							<path class="st26" d="M39.7,42.3c-0.7-0.8-3.3-0.8-6.2-0.8c-2.9,0-5.5,0-6.3,0.8c-0.1,0.2,0,0.9,0,1.1c0,0.2,0.2,0.5,0.5,0.7
								v-1.3h0.2v1.4c0.3,0.2,0.6,0.3,1,0.4v-1.3h0.2v1.3c0.3,0.1,0.7,0.2,1,0.2v-1.4h0.2V45c0.3,0.1,0.7,0.1,1,0.1v-1.3h0.2v1.3
								c0.4,0,0.7,0.1,1.1,0.1v-1.4h0.2v1.4c0.2,0,0.4,0,0.6,0c0.2,0,0.3,0,0.5,0V44h0.2v1.3c0.3,0,0.7,0,1-0.1V44h0.2v1.2
								c0.4,0,0.8-0.1,1.2-0.1v-1.3h0.2V45c0.5-0.1,0.9-0.2,1.3-0.3v-1.3h0.2v1.2c0.4-0.1,0.7-0.3,1-0.5v-1.3h0.2v1.2
								c0.2-0.2,0.4-0.4,0.4-0.6C39.8,43.3,39.9,42.5,39.7,42.3z"/>
						</g>
						<g>
							<path class="st39" d="M27.7,42.9v1.3c0.1,0,0.1,0.1,0.2,0.1v-1.4H27.7z"/>
						</g>
						<g>
							<path class="st39" d="M28.9,43.4v1.3c0.1,0,0.1,0,0.2,0.1v-1.3H28.9z"/>
						</g>
						<g>
							<path class="st39" d="M30.1,43.6V45c0.1,0,0.1,0,0.2,0v-1.4H30.1z"/>
						</g>
						<g>
							<path class="st39" d="M31.4,43.9v1.3c0.1,0,0.1,0,0.2,0v-1.3H31.4z"/>
						</g>
						<g>
							<path class="st39" d="M32.7,43.9v1.4c0.1,0,0.1,0,0.2,0v-1.4H32.7z"/>
						</g>
						<g>
							<path class="st39" d="M34,44v1.3c0.1,0,0.1,0,0.2,0V44H34z"/>
						</g>
						<g>
							<path class="st39" d="M35.2,44v1.3c0.1,0,0.1,0,0.2,0V44H35.2z"/>
						</g>
						<g>
							<path class="st39" d="M36.5,43.8v1.3c0.1,0,0.1,0,0.2,0v-1.2H36.5z"/>
						</g>
						<g>
							<path class="st39" d="M38,43.4v1.3c0.1,0,0.1,0,0.2-0.1v-1.2H38z"/>
						</g>
						<g>
							<path class="st39" d="M39.2,42.9v1.3c0.1,0,0.1-0.1,0.2-0.1v-1.2H39.2z"/>
						</g>
					</g>
					<g>
						<path class="st33" d="M39.8,42.5c0,0.7-1.8,1.8-6.3,1.8c-5,0-6.3-1.1-6.3-1.8c0-0.7,2.8-1.3,6.3-1.3
							C37,41.2,39.8,41.8,39.8,42.5z"/>
					</g>
				</g>
				<g>
					<g>
						<path class="st34" d="M39.9,41.8c0,1-2.8,1.9-6.3,1.9c-3.5,0-6.3-0.8-6.3-1.9c0-0.2-0.1-0.9,0-1.1c0.7-0.8,3.3-0.8,6.3-0.8
							c2.9,0,5.5-0.1,6.2,0.8C39.9,40.8,39.9,41.6,39.9,41.8z"/>
					</g>
					<g>
						<g>
							<path class="st26" d="M39.8,40.7c-0.7-0.8-3.3-0.8-6.2-0.8c-2.9,0-5.5,0-6.3,0.8c-0.1,0.2,0,0.9,0,1.1c0,0.2,0.2,0.5,0.5,0.7
								v-1.3H28v1.4c0.3,0.2,0.6,0.3,1,0.4v-1.3h0.2v1.3c0.3,0.1,0.7,0.2,1,0.2V42h0.2v1.4c0.3,0.1,0.7,0.1,1,0.1v-1.3h0.2v1.3
								c0.4,0,0.7,0.1,1.1,0.1v-1.4H33v1.4c0.2,0,0.4,0,0.6,0c0.2,0,0.3,0,0.5,0v-1.3h0.2v1.3c0.3,0,0.7,0,1-0.1v-1.3h0.2v1.2
								c0.4,0,0.8-0.1,1.2-0.1v-1.3h0.2v1.2c0.5-0.1,0.9-0.2,1.3-0.3v-1.3h0.2V43c0.4-0.1,0.7-0.3,1-0.5v-1.3h0.2v1.2
								c0.2-0.2,0.4-0.4,0.4-0.6C39.9,41.6,39.9,40.8,39.8,40.7z"/>
						</g>
						<g>
							<path class="st39" d="M27.8,41.2v1.3c0.1,0,0.1,0.1,0.2,0.1v-1.4H27.8z"/>
						</g>
						<g>
							<path class="st39" d="M29,41.8V43c0.1,0,0.1,0,0.2,0.1v-1.3H29z"/>
						</g>
						<g>
							<path class="st39" d="M30.2,42v1.4c0.1,0,0.1,0,0.2,0V42H30.2z"/>
						</g>
						<g>
							<path class="st39" d="M31.4,42.2v1.3c0.1,0,0.1,0,0.2,0v-1.3H31.4z"/>
						</g>
						<g>
							<path class="st39" d="M32.8,42.2v1.4c0.1,0,0.1,0,0.2,0v-1.4H32.8z"/>
						</g>
						<g>
							<path class="st39" d="M34.1,42.3v1.3c0.1,0,0.1,0,0.2,0v-1.3H34.1z"/>
						</g>
						<g>
							<path class="st39" d="M35.2,42.3v1.3c0.1,0,0.1,0,0.2,0v-1.2H35.2z"/>
						</g>
						<g>
							<path class="st39" d="M36.6,42.1v1.3c0.1,0,0.1,0,0.2,0v-1.2H36.6z"/>
						</g>
						<g>
							<path class="st39" d="M38.1,41.8V43c0.1,0,0.1,0,0.2-0.1v-1.2H38.1z"/>
						</g>
						<g>
							<path class="st39" d="M39.3,41.2v1.3c0.1,0,0.1-0.1,0.2-0.1v-1.2H39.3z"/>
						</g>
					</g>
					<g>
						<path class="st33" d="M39.9,40.8c0,0.7-1.8,1.8-6.3,1.8c-5,0-6.3-1.1-6.3-1.8s2.8-1.3,6.3-1.3C37.1,39.5,39.9,40.1,39.9,40.8z
							"/>
					</g>
				</g>
				<g>
					<g>
						<path class="st34" d="M40.6,39.7c0,1-2.8,1.9-6.3,1.9c-3.5,0-6.3-0.8-6.3-1.9c0-0.2-0.1-0.9,0-1.1c0.7-0.8,3.3-0.8,6.3-0.8
							c2.9,0,5.5-0.1,6.2,0.8C40.7,38.7,40.6,39.5,40.6,39.7z"/>
					</g>
					<g>
						<g>
							<path class="st26" d="M40.5,38.6c-0.7-0.8-3.3-0.8-6.2-0.8c-2.9,0-5.5,0-6.3,0.8c-0.1,0.2,0,0.9,0,1.1c0,0.2,0.2,0.5,0.5,0.7
								v-1.3h0.2v1.4c0.3,0.2,0.6,0.3,1,0.4v-1.3h0.2V41c0.3,0.1,0.7,0.2,1,0.2v-1.4h0.2v1.4c0.3,0.1,0.7,0.1,1,0.1v-1.3h0.2v1.3
								c0.4,0,0.7,0.1,1.1,0.1v-1.4h0.2v1.4c0.2,0,0.4,0,0.6,0c0.2,0,0.3,0,0.5,0v-1.3H35v1.3c0.3,0,0.7,0,1-0.1v-1.3h0.2v1.2
								c0.4,0,0.8-0.1,1.2-0.1V40h0.2v1.2c0.5-0.1,0.9-0.2,1.3-0.3v-1.3H39v1.2c0.4-0.1,0.7-0.3,1-0.5v-1.3h0.2v1.2
								c0.2-0.2,0.4-0.4,0.4-0.6C40.6,39.5,40.7,38.7,40.5,38.6z"/>
						</g>
						<g>
							<path class="st39" d="M28.5,39.1v1.3c0.1,0,0.1,0.1,0.2,0.1v-1.4H28.5z"/>
						</g>
						<g>
							<path class="st39" d="M29.7,39.7v1.3c0.1,0,0.1,0,0.2,0.1v-1.3H29.7z"/>
						</g>
						<g>
							<path class="st39" d="M30.9,39.9v1.4c0.1,0,0.1,0,0.2,0v-1.4H30.9z"/>
						</g>
						<g>
							<path class="st39" d="M32.1,40.1v1.3c0.1,0,0.1,0,0.2,0v-1.3H32.1z"/>
						</g>
						<g>
							<path class="st39" d="M33.5,40.1v1.4c0.1,0,0.1,0,0.2,0v-1.4H33.5z"/>
						</g>
						<g>
							<path class="st39" d="M34.8,40.2v1.3c0.1,0,0.1,0,0.2,0v-1.3H34.8z"/>
						</g>
						<g>
							<path class="st39" d="M36,40.2v1.3c0.1,0,0.1,0,0.2,0v-1.2H36z"/>
						</g>
						<g>
							<path class="st39" d="M37.3,40v1.3c0.1,0,0.1,0,0.2,0V40H37.3z"/>
						</g>
						<g>
							<path class="st39" d="M38.8,39.7V41c0.1,0,0.1,0,0.2-0.1v-1.2H38.8z"/>
						</g>
						<g>
							<path class="st39" d="M40,39.1v1.3c0.1,0,0.1-0.1,0.2-0.1v-1.2H40z"/>
						</g>
					</g>
					<g>
						<path class="st33" d="M40.6,38.8c0,0.7-1.8,1.8-6.3,1.8c-5,0-6.3-1.1-6.3-1.8s2.8-1.3,6.3-1.3C37.8,37.5,40.6,38,40.6,38.8z"
							/>
					</g>
				</g>
			</g>
		</g>
		<g>
			<g>
				<g>
					<g>
						<path class="st23" d="M67.1,74.2c1.3-0.7,9.5-9.5,3.7-15.1c0,0,0.6-2.1-2.2-3.5c-2.8-1.4-5.1,1.5-5.3,2
							c-0.2,0.5,2.8,16.7,3.3,16.7C67.1,74.2,67.1,74.2,67.1,74.2z"/>
					</g>
					<g>
						<g>
							<g>
								<path class="st40" d="M74.6,87.5c1.6,2.2,5.7,9.3,5.7,9.3c1.9,4.3-3.1,5.6-5.1,3.9c-3.6-3-7.8-14.1-7.8-17.7
									C67.3,79.3,71.9,83.9,74.6,87.5z"/>
							</g>
						</g>
					</g>
					<g>
						<g>
							<g>
								<path class="st30" d="M79.1,100.4c-0.1,0.2,0,0.3,0,0.5c0.2,0.5,0.7,1.1,1.2,1.8c0,0,1.1,1.2,1.8,1.1c0,0,0.2-0.2-0.1-0.4
									c0,0,0.9,0.5,1.2,0.3c0.3-0.2-0.1-0.6-0.1-0.6s0.3,0,0.3-0.3s-1.1-1.5-1.7-1.8c0,0,0.7,0.3,0.7,0.1c0-0.3-1.3-1-1.7-0.9
									c0,0-0.5-0.1-0.8-0.3C79.6,99.9,79.2,100.2,79.1,100.4z"/>
							</g>
						</g>
					</g>
					<g>
						<g>
							<g>
								<g>
									<g>
										<path class="st30" d="M75.8,155.8c0.5-0.2,0.2-0.5-0.2-0.7c-0.7-0.2-1.3-0.3-1.4-0.3c-0.4-0.1-0.5-0.4-0.5-0.4l-0.4-0.1
											c0,0-0.5,1-0.6,1.1C73.3,155.9,75,156,75.8,155.8z"/>
									</g>
								</g>
							</g>
						</g>
						<g>
							<g>
								<g>
									<g>
										<path class="st41" d="M78.5,156.3c0-0.5-1.8-1-2.9-1.2c0.4,0.2,0.7,0.5,0.2,0.7c-0.8,0.3-2.5,0.1-3-0.4
											c-0.2,0.4-0.2,1-0.1,1.4C72.7,157.3,78.5,157.3,78.5,156.3z"/>
									</g>
								</g>
							</g>
						</g>
					</g>
					<g>
						<g>
							<g>
								<g>
									<g>
										<path class="st41" d="M49.3,155.6c0-0.2-1.5-1.3-2.6-1.7c0.3,0.3,0.6,0.6,0.1,0.7c-0.8,0.1-2.4-0.3-2.9-0.9
											c-0.2,0.4-0.3,1-0.4,1.4C43.4,155.5,49.3,156.6,49.3,155.6z"/>
									</g>
								</g>
							</g>
						</g>
						<g>
							<g>
								<g>
									<g>
										<path class="st30" d="M46.7,154.5c0.5-0.1,0.2-0.4-0.1-0.7c-0.7-0.3-1.2-0.5-1.4-0.6c-0.3-0.2-0.4-0.5-0.4-0.5l-0.3-0.1
											c0,0-0.7,0.9-0.7,1C44.3,154.2,45.9,154.7,46.7,154.5z"/>
									</g>
								</g>
							</g>
						</g>
					</g>
					<g>
						<g>
							<g>
								<path class="st32" d="M71,86.5c0.6,1.5-0.6,16.3-0.6,16.3c-0.4,1.8-7.8-1.4-9.3,4.2c-1.2,4.6,4.3,11.6,3.1,15.4
									c-1.5,4.8-14.8,25.7-17.3,29.6c-0.5,0.9-3,1.6-3.1,0.3c-0.1-1.1,11.4-33.2,11.4-33.2s-10.6-28.5,5.1-36.7
									C62.6,83,67.9,84.8,71,86.5z"/>
							</g>
						</g>
					</g>
					<g>
						<g>
							<g>
								<path class="st30" d="M90.4,86.8c0,0.2,0.1,0.3,0.2,0.4c0.4,0.2,1.1,0.8,1.9,1c0.6,0.2,2.3,0.1,2.4-0.1
									c0.1-0.3-0.3-0.4-0.3-0.4s0.2-0.1,0.1-0.3c-0.1-0.2-1.5-0.8-2.1-0.9c0,0,0.7,0,0.6-0.2c-0.1-0.2-1.4-0.4-1.8-0.2
									c0,0-0.5,0.1-0.7,0C90.6,86.1,90.4,86.5,90.4,86.8z"/>
							</g>
						</g>
					</g>
					<g>
						<g>
							<g>
								<path class="st19" d="M71.1,84.9c1.2,1.1-2.5,12.4-2.5,12.4s5.1,13.7,6.2,22.5c0.6,5,0.8,34.2,0.8,34.2l-2.7,0.7L66,122.4
									c0,0-10-9.4-13.3-20.1c-2-6.5-0.1-12.1,3.9-17.4C58.9,84.4,67.5,84.6,71.1,84.9z"/>
							</g>
						</g>
					</g>
					<g>
						<g>
							<g>
								<g>
									<path class="st21" d="M66.7,67.3c-2.7-0.1-5.5,0.7-6.9,3.5c-1.5,3-0.3,4.5-1.5,10.2c-0.7,3.2-3.5,6.2-3.8,7.1
										c2,0.6,4,1.8,7.9,2.3c4,0.5,7.2,0.4,8.8-0.3c0,0,2.9-8.4,2.9-12.9C74.1,73.1,70.6,67.4,66.7,67.3z"/>
								</g>
							</g>
						</g>
					</g>
					<g>
						<path class="st22" d="M65.8,67.3c0,0,2.3,5.1,2.5,8.7c0.2,3.6-4,14.6-4,14.6s-3.6,6.1-5.5,6.6s-8.7-1.7-9-2.6
							c-0.2-0.9,3.2-6.6,5.4-8.6c0,0,3.4-4.4,3.2-9.4C58.2,71.6,60.2,67.7,65.8,67.3z"/>
					</g>
					<g>
						<path class="st40" d="M72.5,71.5c0,0.1,2.3,3.5,1.6,8.7c-0.7,5.3,0,17-0.7,17.6c-0.7,0.6-2.6,0.5-2.6,0.5l0.4-8.2
							c0,0,1.3-6.7,1.3-11.7L72.5,71.5z"/>
					</g>
					<g>
						<path class="st22" d="M67.5,66.9c0,0,3.9,4.1,4.5,11.5c0.5,7.4,0.2,5.1,0.2,5.1s1.6-8.7,0.7-12.6l-1-0.3l0.7-0.7
							C72.6,69.9,70.3,66.6,67.5,66.9"/>
					</g>
					<g>
						<g>
							<g>
								<g>
									<g>
										<path class="st30" d="M66.2,64.3c0,0,0.3,3.4,0.5,3.8c0.3,0.3,1,0.7,1.3-0.2c0.2-0.9-0.7-3.8-0.7-3.8L66.2,64.3z"/>
									</g>
								</g>
							</g>
						</g>
						<g>
							<g>
								<g>
									<g>
										<path class="st31" d="M66.4,66.4c0.8-0.1,1.1-0.2,1.3-0.7c-0.1-0.6-0.1-0.5-0.3-1l-1.3-0.6C66.2,64.7,66.3,65.9,66.4,66.4
											z"/>
									</g>
								</g>
							</g>
						</g>
					</g>
					<g>
						<path class="st40" d="M66.4,66.8c0,0,2.4,6.8,2.3,9.9c-0.1,3.1-2.9,9.5-2.9,9.5S65.7,72.6,65,71.4l1.7-0.4l-1.9-0.7
							C64.8,70.3,64,67.6,66.4,66.8z"/>
					</g>
					<g>
						<g>
							<g>
								<g>
									<path class="st22" d="M60,72.9c0.9,3.7,5.5,6.3,11.2,11.1c1.8,1.5,5.6,4.7,10.9,5.9c4.6,1.1,9-3.1,9-3.1s-1.3-3-3.7-3.7
										c-2.5-0.7-9.7-2.9-12.8-3.6c-3.1-0.6-7.9-6.2-9.9-8.2c-1.1-1-1.6-2.6-2.5-2.4C61.1,69.3,59.7,71.8,60,72.9z"/>
								</g>
							</g>
						</g>
					</g>
					<g>
						<g>
							<g>
								<path class="st30" d="M69.8,63.1c0.1-0.4-0.2-1.7-0.5-2.8c-0.3-0.9-1.2-1.4-2.1-1.2c-1.4,0.4-2.9,0.9-3.2,1.3
									c-0.5,0.6-0.3,1.5-0.2,2.3c0.1,0.7,0.7,1.9,1.2,2.4c0.5,0.5,1.8,0.7,2.4,0.5C69.3,65.1,69.7,64.5,69.8,63.1z"/>
							</g>
						</g>
					</g>
					<g>
						<path class="st22" d="M73.7,86.7c0.1,2,0.1,4,0.1,6c0,1,0,2-0.1,3c0,0.5-0.1,1-0.1,1.5c0,0.2-0.1,0.5-0.3,0.7
							c-0.2,0.2-0.5,0.2-0.7,0.2c0.2,0,0.5-0.1,0.7-0.3c0.2-0.2,0.2-0.4,0.2-0.7c0-0.5,0-1,0-1.5l0-3C73.5,90.7,73.6,88.7,73.7,86.7
							z"/>
					</g>
					<g>
						<path class="st40" d="M67.2,81.7c-1.4-1.2-2.6-2.4-3.8-3.7c-1.2-1.3-2.3-2.7-3.1-4.3c0.9,1.5,2.1,2.8,3.4,4.1
							c1.3,1.2,2.6,2.4,4,3.4L67.2,81.7z"/>
					</g>
					<g>
						<path class="st23" d="M67.4,57.1c0.1,0.8,2.1,3,0.9,4.5c-1.2,1.5-2.7,2-3.3,2.4c0,0,1.5,3.2-0.7,6.3c-2.2,3.1-5.2,2-5.2,2
							s1.1,8.3-4.9,10.6S42.5,80,42.8,75c0.3-5,3.1-8.8,7.2-8.8c0,0,1.4-5.2,6.8-4.5c0,0,0.3-8.8,7.9-5.9
							C64.8,55.8,67.1,54.9,67.4,57.1z"/>
					</g>
					<g>
						<path class="st42" d="M54.3,82.9c-2.2,0.9-4.9,0.8-7-0.4c-2.1-1.2-3.9-3.2-4.5-5.6l-0.1-0.9l0-0.9c0-0.6,0.1-1.2,0.2-1.8
							c0.2-1.2,0.6-2.4,1.2-3.5c0.6-1.1,1.4-2.1,2.5-2.8c1-0.7,2.3-1,3.5-1l-0.2,0.2c0.2-0.8,0.6-1.4,1-2.1c0.4-0.6,1-1.2,1.6-1.6
							c0.6-0.4,1.4-0.7,2.1-0.9c0.8-0.2,1.5-0.1,2.3,0l-0.2,0.2c0.1-1,0.3-2,0.6-3c0.4-0.9,0.9-1.9,1.7-2.5c0.8-0.7,1.8-1,2.8-1
							c1,0,2,0.3,2.9,0.7c-0.9-0.3-1.9-0.6-2.9-0.5c-1,0-2,0.4-2.7,1.1c-0.7,0.7-1.2,1.5-1.5,2.5c-0.3,0.9-0.5,1.9-0.6,2.9
							c0,0.1-0.1,0.2-0.2,0.2l0,0c-0.4,0-0.7-0.1-1.1,0c-0.4,0-0.7,0-1.1,0.1c-0.7,0.1-1.4,0.4-2,0.8c-0.6,0.4-1.1,0.9-1.5,1.5
							c-0.4,0.6-0.7,1.3-0.9,1.9l0,0c0,0.1-0.1,0.2-0.2,0.2c-1.2,0-2.3,0.4-3.3,1c-1,0.6-1.7,1.6-2.3,2.6c-0.6,1-1,2.2-1.2,3.3
							c-0.2,1.2-0.3,2.4-0.1,3.5c0.5,2.3,2.1,4.3,4.2,5.4C49.4,83.4,52,83.6,54.3,82.9z"/>
					</g>
				</g>
				<g>
					<g>
						<g>
							<g>
								<path class="st19" d="M124,134.8c2.7-15.1,6.4-33.8,6.4-33.8l18,33.5c2.4,0,4.8,0,7.2,0c-1.6-5.2-3.2-10.6-4.6-14.7
									c-2.6-8.1-5.1-23.3-13.9-33.8c-2.3-0.5-11.9-1.7-15.4-1.4c0,0.2-3.3,6.6-4.2,11.2c-1.7,8.5-1.1,25.3-0.2,38.9
									C119.6,134.7,121.8,134.8,124,134.8z"/>
							</g>
						</g>
					</g>
					<g>
						<g>
							<g>
								<path class="st30" d="M96.8,86.5c0,0.1-0.1,0.3-0.2,0.4c-0.3,0.2-1.3,0.8-2.3,1.1c-0.6,0.1-1.6-0.1-1.7-0.3
									c-0.1-0.2,0.3-0.4,0.3-0.4s-0.2-0.1-0.1-0.3c0.1-0.2,1.7-0.8,2.2-0.8c0,0-0.8-0.4-0.7-0.6c0.1-0.2,1.2,0.2,1.5,0.4
									c0,0,0.4,0.1,0.7,0.1C96.6,85.9,96.8,86.3,96.8,86.5z"/>
							</g>
						</g>
					</g>
					<g>
						<g>
							<g>
								<path class="st32" d="M124,134.8c2.7-15.1,6.4-33.8,6.4-33.8l18,33.5c2.4,0,4.8,0,7.2,0c-1.6-5.2-3.2-10.6-4.6-14.7
									c-2.6-8.1-5.1-23.3-13.9-33.8c-1.2-0.3-4.5-0.7-7.9-1.1c-1.5-0.1-6.1,14.6-8,32c-0.6,5.9-1,12.1-1.2,17.7
									C121.4,134.8,122.7,134.8,124,134.8z"/>
							</g>
						</g>
					</g>
					<g>
						<g>
							<g>
								<g>
									<path class="st0" d="M121.7,71.9c0,0-3.1,4.7-7.9,9.7c-1.5,1.6-4.7,4.9-9.5,6.6c-4.1,1.4-8.6-1.9-8.6-1.9s0.9-2.9,3.1-3.8
										c2.2-0.9,8.7-3.7,11.4-4.6c2.8-0.9,7.5-7.8,9.6-9.5c1.2-1,2.8-1.7,2.8-1.7L121.7,71.9z"/>
								</g>
							</g>
						</g>
					</g>
					<g>
						<g>
							<g>
								<path class="st0" d="M121,67.7c1.6-1.4,6.6-3.1,15.6-1.5c0.9,0.2,1.8,0.4,2.6,0.9c-0.5,3.1,0.8,7.1,0.8,7.1
									c-1.9,4.4-2.9,10.6-2.9,11.6c-2.9,1.2-14.5,0.6-15.9-0.2c0-0.1-1.4-4.3-1.3-8.9C120.1,71.8,121,67.7,121,67.7z"/>
							</g>
						</g>
					</g>
					<g>
						<g>
							<g>
								<path class="st43" d="M131.6,65.6c0.9,0.2,6.5,0.8,7.6,1.5c-0.5,3.1,0.8,7.1,0.8,7.1c-1.9,4.4-3,10.9-2.9,11.9
									c-1.5,0.6-9,0.4-9,0.4s1.8-4.1,2.4-9.7C131.4,68.4,131.3,65.5,131.6,65.6z"/>
							</g>
						</g>
					</g>
					<g>
						<g>
							<g>
								<path class="st30" d="M143.3,106.9c0.2,0,1.3,1.7,1.4,2.6c0,0.7-0.4,2.5-0.7,2.5c-0.3,0.1-0.3-0.3-0.3-0.3s-0.2,0.4-0.4,0.2
									c-0.1-0.1,0-1-0.1-1.6c-0.1-0.4-0.3-0.8-0.3-1c0,0-0.3,0.8-0.5,0.6c-0.2-0.1,0-1.5,0.2-1.9
									C142.8,107.7,143,106.9,143.3,106.9z"/>
							</g>
						</g>
					</g>
					<g>
						<g>
							<g>
								<path class="st43" d="M140.4,86.5c0,0-1.1-10-1.8-12.1c-1.4-4.1-2.3-3.6-2.3-3.6l0.8-4.3c0,0,3.4,0.3,4.5,2.5
									c2,4,3.1,21.3,3.3,21.9L140.4,86.5z"/>
							</g>
						</g>
					</g>
					<g>
						<g>
							<g>
								<path class="st43" d="M145.5,93.6c0.2,2.7,1.2,10.7,1.2,10.7c0.1,4.7-5,3.9-6.1,1.6c-2.1-4.1-2-14.2,0.2-20.4
									c0.9-2.4,3.6-1.5,3.9,2C144.9,90.4,145.4,91.8,145.5,93.6z"/>
							</g>
						</g>
					</g>
					<g>
						<g>
							<g>
								<path class="st30" d="M130.9,62.3c0,0,0,3.3,0.2,3.6c0.3,0.3,1.2,0.7,1.6-0.2c0.4-0.9-0.5-3.6-0.5-3.6L130.9,62.3z"/>
							</g>
						</g>
						<g>
							<g>
								<path class="st31" d="M130.9,64.4c0.5,0.2,1.6-0.2,1.7-0.9c-0.1-0.6-0.1-0.2-0.2-0.7l-1.5,0.2
									C130.9,63.5,130.9,63.9,130.9,64.4z"/>
							</g>
						</g>
					</g>
					<g>
						<path class="st19" d="M131.5,67.3c0,0,0.4,7.5,0.4,10c0,2.5-0.6,3.1-0.6,3.1l-2.2,1l-1.7-1.9c0,0,2.8-11.3,3.7-12.3
							C132,66.3,131.5,67.3,131.5,67.3z"/>
					</g>
					<g>
						<path class="st41" d="M132.2,66.5c0,0-0.6,0.9-1,0.9c-0.4,0-0.4-0.5-0.4-0.9c0-0.4,0.6-0.5,1.1-0.3
							C132.5,66.5,132.2,66.5,132.2,66.5z"/>
					</g>
					<g>
						<path class="st43" d="M130.9,64.5c0,0,0,0.3,0,0.6c0.1,0.3,0,0.4,0.5,1.1l-1,1.1C130.4,67.2,129.5,66.1,130.9,64.5z"/>
					</g>
					<g>
						<path class="st0" d="M132.8,64.7c0,0,0,0.2-0.1,0.5c-0.1,0.2-0.3,0.6-1.2,0.9l0.7,1.4C132.2,67.5,133.9,66.6,132.8,64.7z"/>
					</g>
					<g>
						<path class="st23" d="M132.5,62.6c0,0,1.4,0.1,2.7-1.8c1.7-2.5-0.5-3.6-0.5-3.6s1.7-2.6-2.2-3.7s-0.9-4.6-3.6-2.6
							c-0.9,0.7-3.1,4.5-0.6,6.7c0,0-0.7,3.9,0.5,4.5C130.1,62.6,132.5,62.6,132.5,62.6z"/>
					</g>
					<g>
						<g>
							<path class="st30" d="M133,62.3c0.3-0.5,0.4-2.5,0.4-2.5c-0.3-1.4-3.4-1.2-3.9-1c-0.6,0.3-0.7,1-0.7,1.6
								c-0.1,0.6,0,1.6,0.2,2.1c0.3,0.5,1.1,0.9,1.6,1C132.1,63.7,132.6,63.3,133,62.3z"/>
						</g>
					</g>
					<g>
						<path class="st42" d="M128.4,61.5c-0.2-0.3-0.2-0.6-0.3-0.9c-0.1-0.3-0.1-0.7-0.1-1c0-0.7,0-1.3,0.2-2l0.1,0.2
							c-0.7-0.5-1.1-1.2-1.3-1.9c-0.2-0.8-0.1-1.6,0.1-2.3c0.2-0.7,0.5-1.4,1-2c0.4-0.6,1.1-1.1,1.8-1.3c-0.7,0.3-1.2,0.9-1.5,1.5
							c-0.4,0.6-0.6,1.3-0.8,2c-0.2,0.7-0.2,1.4-0.1,2c0.2,0.6,0.5,1.3,1,1.7l0,0c0.1,0.1,0.1,0.1,0.1,0.2c-0.1,0.3-0.1,0.6-0.2,0.9
							c-0.1,0.3-0.1,0.6-0.1,0.9C128.3,60.2,128.3,60.9,128.4,61.5z"/>
					</g>
				</g>
			</g>
			<path class="st14" d="M60.2,152.8c-17.2,0-31.2,1.7-31.2,3.7s14,3.7,31.2,3.7s31.2-1.7,31.2-3.7S77.5,152.8,60.2,152.8z"/>
		</g>
		<g>
			<g>
				<path class="st38" d="M135.6,46.5c0,0,3.9-2.6,6.8-2c2.9,0.6,10.4,10.5,21,5.4c10.7-5.1,11.2-18.4,2.1-24.4
					c-8.2-5.4-17.9-2.9-23.7,9.2C139.7,39,135.6,46.5,135.6,46.5z"/>
			</g>
			<g>
				<path class="st44" d="M164.3,37.8c0,3.9-3.3,7-7.3,7c-4,0-7.2-3.2-7.2-7.1c0-3.9,3.3-7,7.3-7C161.1,30.7,164.3,33.9,164.3,37.8z
					"/>
				<path class="st45" d="M163,37.8c0,3.9-3.1,7-6.9,7c-3.8,0-6.8-3.2-6.8-7.1c0-3.9,3.1-7,6.9-7C160,30.7,163,33.9,163,37.8z"/>
				<path class="st0" d="M156,42.1L156,42.1c-1.7,0-3.1-1.4-3-3.1l0-0.4l6.1,0l0,0.4C159,40.7,157.7,42.1,156,42.1z"/>
				<path class="st18" d="M153.3,35.9c0,0.3-0.3,0.6-0.6,0.6c-0.3,0-0.6-0.3-0.6-0.6c0-0.3,0.3-0.6,0.6-0.6
					C153.1,35.3,153.3,35.6,153.3,35.9z"/>
				<path class="st18" d="M160.1,36c0,0.3-0.3,0.6-0.6,0.6c-0.3,0-0.6-0.3-0.6-0.6c0-0.3,0.3-0.6,0.6-0.6
					C159.8,35.4,160.1,35.6,160.1,36z"/>
			</g>
		</g>
	</g>
</g>
</svg>
