<?xml version="1.0" encoding="utf-8"?>
<!-- Generator: Adobe Illustrator 23.0.6, SVG Export Plug-In . SVG Version: 6.00 Build 0)  -->
<svg version="1.1" xmlns="http://www.w3.org/2000/svg" xmlns:xlink="http://www.w3.org/1999/xlink" x="0px" y="0px"
	 viewBox="0 0 100 170" style="enable-background:new 0 0 100 170;" xml:space="preserve">
<style type="text/css">
	.st0{fill:#FFFFFF;}
	.st1{fill:#E0ECF6;}
	.st2{fill:#8DBBDD;}
	.st3{fill:none;stroke:#3184C1;stroke-width:1.3621;stroke-linecap:round;stroke-linejoin:round;stroke-miterlimit:10;}
	.st4{fill:#A1C7E3;}
	.st5{fill:none;stroke:#8DBBDD;stroke-width:1.3621;stroke-linecap:round;stroke-linejoin:round;stroke-miterlimit:10;}
	.st6{fill:#3184C1;}
	.st7{fill:none;stroke:#0D6EB6;stroke-width:1.2244;stroke-linecap:round;stroke-linejoin:round;stroke-miterlimit:10;}
	.st8{fill:none;stroke:#8DBBDD;stroke-width:1.5702;stroke-linecap:round;stroke-linejoin:round;stroke-miterlimit:10;}
	.st9{opacity:0.3;}
	.st10{fill:#D6E6F3;}
	.st11{fill:#E9F2F8;}
	.st12{fill:#5A9DCE;}
	.st13{fill:none;stroke:#E9F2F8;stroke-miterlimit:10;}
	.st14{fill:#CCCCCC;}
	.st15{fill:#FF97A8;}
	.st16{fill:#FF5D7B;}
	.st17{fill:#08478E;}
	.st18{fill:#331239;}
	.st19{fill:#3B2B5B;}
	.st20{fill:#380A37;}
	.st21{fill:#B7CADE;}
	.st22{fill:#5E87B5;}
	.st23{fill:#295A6E;}
	.st24{fill:#3E7687;}
	.st25{fill:#F39734;}
	.st26{fill:none;}
	.st27{fill:#EF7F19;}
	.st28{fill:#FDCA49;}
	.st29{fill:#86B7DB;}
	.st30{fill:#FF97A6;}
	.st31{fill:#C95D77;}
	.st32{fill:#30193B;}
	.st33{fill:#FFCB48;}
	.st34{fill:#FF9A2E;}
	.st35{clip-path:url(#SVGID_2_);}
	.st36{fill:#0D6EB6;}
	.st37{clip-path:url(#SVGID_4_);}
	.st38{fill:#EFEFF6;}
	.st39{fill:#EF7F18;}
	.st40{fill:#4071A8;}
	.st41{fill:#0A498F;}
	.st42{fill:#3A7182;}
	.st43{fill:#E6E6E6;}
	.st44{fill:#FF9A19;}
	.st45{fill:#FFCB37;}
	.st46{opacity:0.1;}
	.st47{fill:#30183A;}
	.st48{fill:#F194A5;}
	.st49{fill:#C85D77;}
	.st50{fill:#BA2F7D;}
	.st51{fill:#B12384;}
	.st52{fill:#62BCD6;}
	.st53{fill:#BF7323;}
	.st54{fill:#80CAD5;}
	.st55{fill:#767579;}
	.st56{opacity:0.8;}
	.st57{fill:#9BCBE9;}
	.st58{fill:#3E275C;}
	.st59{fill:#406EB3;}
	.st60{fill:#DDD6FC;}
	.st61{fill:#EEEAFE;}
	.st62{fill:#7F65C1;}
	.st63{fill:none;stroke:#EEEAFE;stroke-width:0.5019;stroke-miterlimit:10;}
	.st64{fill:#EAE6FF;}
	.st65{fill:#D4EAF5;}
	.st66{fill:#A9CAE7;}
	.st67{fill:#ABC8E6;}
	.st68{fill:#D1C5FC;}
	.st69{fill:#CBB3FC;}
	.st70{fill:#CEAFF9;}
	.st71{fill:#FFC200;}
	.st72{fill:#E8853A;}
	.st73{fill:#5AC0F9;}
	.st74{fill:#53F9F4;}
	.st75{fill:#BF3904;}
	.st76{fill:#822302;}
	.st77{fill:#7964A8;}
	.st78{fill:#8865C4;}
	.st79{fill:#CCEAF5;}
	.st80{fill:#FFD67C;}
	.st81{fill:url(#SVGID_5_);}
	.st82{fill:url(#SVGID_6_);}
	.st83{fill:url(#SVGID_7_);}
	.st84{fill:url(#SVGID_8_);}
	.st85{fill:url(#SVGID_9_);}
	.st86{fill:url(#SVGID_10_);}
	.st87{fill:url(#SVGID_11_);}
	.st88{fill:#54565A;}
	.st89{fill:#9F79FF;}
	.st90{fill:#F2EEFF;}
	.st91{opacity:0.4;}
	.st92{fill:#E45D79;}
	.st93{fill:#FFE5AE;}
	.st94{fill:#FF97A7;}
	.st95{fill:#82CBEA;}
	.st96{fill:#BFEAF5;}
	.st97{fill:#8FD9ED;}
	.st98{fill:#43225D;}
	.st99{fill:#5C319A;}
	.st100{opacity:0.5;fill:url(#SVGID_12_);}
	.st101{fill:#632678;}
	.st102{fill:none;stroke:#FFFFFF;stroke-width:2;stroke-linecap:round;stroke-linejoin:round;stroke-miterlimit:10;}
	.st103{fill:none;stroke:#EEEAFE;stroke-miterlimit:10;}
	.st104{fill:#F98A8A;}
	.st105{fill:#AACBE8;}
	.st106{fill:#99B4DD;}
	.st107{fill:#6A54AF;}
	.st108{fill:#FD9E38;}
	.st109{fill:#DBCFFD;}
	.st110{fill:#B5B5B5;}
	.st111{fill:#80540A;}
	.st112{fill:#AD7121;}
	.st113{fill:#D5EAF5;}
	.st114{opacity:0.3;fill:#3B2B5B;}
	.st115{fill:#BAA4FF;}
	.st116{fill:#4E3E75;}
	.st117{fill:#D07BB5;}
	.st118{fill:#C14F9D;}
	.st119{fill:none;stroke:#000000;stroke-width:0.75;stroke-linecap:round;stroke-linejoin:round;stroke-miterlimit:10;}
	.st120{fill:#B3B3B3;}
	.st121{fill:#F2F2F2;}
	.st122{fill:#141414;}
	.st123{fill:#A3A3A3;}
	.st124{fill:#474747;}
	.st125{fill:#C7C7C7;}
	.st126{fill:#DBDBDB;}
</style>
<g id="Fondo">
</g>
<g id="Capa_7">
</g>
<g id="Contenido">
</g>
<g id="Footer">
</g>
<g id="Header">
</g>
<g id="Alertas">
</g>
<g id="Capa_2">
	<g>
		<g class="st46">
			<ellipse cx="52.4" cy="147.9" rx="30.8" ry="4.7"/>
		</g>
		<g>
			<g>
				<path class="st23" d="M67.4,36.1c-1.6-2.7-7.7-3-9.8-1.5c-2.7,2-2.6,7.9-1.9,8.5c0.6,0.6,4.4-3.3,4.6-1.6
					c0.2,1.7-0.3,1.9-0.3,1.9s1.1,0.8,2.7-0.4c1.4-1.1,2.9-2.4,2.5-4.2C64.5,36.1,70.1,40.9,67.4,36.1z"/>
			</g>
			<g>
				<path class="st42" d="M67.4,36.1c-0.4-0.7-1.2-1.2-1.9-1.5c-0.8-0.3-1.6-0.5-2.4-0.6c-0.8-0.1-1.6-0.1-2.4-0.1
					c-0.8,0.1-1.6,0.2-2.3,0.5c-0.7,0.3-1.3,0.9-1.7,1.6c-0.4,0.7-0.7,1.5-0.9,2.3c-0.2,0.8-0.3,1.6-0.4,2.4c0,0.4,0,0.8,0,1.2
					c0,0.4,0.1,0.8,0.3,1.2c-0.2-0.3-0.3-0.8-0.4-1.2c-0.1-0.4-0.1-0.8-0.1-1.2c0-0.8,0.1-1.7,0.3-2.5c0.2-0.8,0.4-1.6,0.9-2.4
					c0.4-0.7,1-1.4,1.8-1.8c0.8-0.3,1.6-0.5,2.5-0.5c0.8-0.1,1.7,0,2.5,0.1c0.8,0.1,1.6,0.4,2.4,0.7C66.3,34.8,67,35.4,67.4,36.1z"
					/>
			</g>
			<g>
				<g>
					<path class="st19" d="M70.2,147.7c0.3-1.6-2-1.2-3.3-1.5c0.4,0.2,0.8,0.6,0.2,0.8c-0.9,0.3-2.9,0-3.5-0.6
						c-0.2,0.5-0.2,1.2-0.2,1.6C63.4,148.6,70,148.8,70.2,147.7z"/>
				</g>
				<g>
					<path class="st47" d="M67.1,146.9c0.6-0.2,0.2-0.5-0.2-0.8c-0.8-0.2-1.5-0.4-1.6-0.4c-0.4-0.2-0.5-0.5-0.5-0.5l-0.4-0.1
						c0,0-0.6,1.1-0.7,1.2C64.2,147,66.2,147.2,67.1,146.9z"/>
				</g>
			</g>
			<g>
				<g>
					<path class="st19" d="M33.7,146.5c-0.3-1.6,2-1.2,3.3-1.5c-0.4,0.2-0.8,0.6-0.2,0.8c0.9,0.3,2.9,0,3.5-0.6
						c0.2,0.5,0.2,1.2,0.2,1.6C40.4,147.3,33.9,147.6,33.7,146.5z"/>
				</g>
				<g>
					<path class="st47" d="M36.8,145.7c-0.6-0.2-0.2-0.5,0.2-0.8c0.8-0.2,1.5-0.4,1.6-0.4c0.4-0.2,0.5-0.5,0.5-0.5l0.4-0.1
						c0,0,0.6,1.1,0.7,1.2C39.6,145.8,37.7,146,36.8,145.7z"/>
				</g>
			</g>
			<g>
				<path class="st19" d="M60.5,70.6c0,0.2,2.6,4,4.5,9c2.9,7.9,1.2,56.9,0.1,65.3c-0.2,1.1-2.9,0-2.9-1.4
					c-0.4-8.9-10.4-54.7-10.4-54.7l-11.9,55.6h-2.8c0,0,3.4-72.1,4.8-74.2C44.5,69.7,56.4,70.2,60.5,70.6z"/>
			</g>
			<g>
				<path class="st47" d="M60.5,70.6c0,0.2,2.6,4,4.5,9c2.9,7.9,1.2,56.9,0.1,65.3c-0.1,0.6-0.9,0.6-1.6,0.2
					c-0.3-0.2-0.1-17.5-4.3-37.8c-3.8-18.1-8.4-34.7-6.3-34.7C56.3,72.8,58.6,70.4,60.5,70.6z"/>
			</g>
			<g>
				<path class="st22" d="M45.4,48.5c2-1.5,7.8-2.9,18-0.4c1,0.3,2,0.6,2.9,1.2c-0.8,3.4,0.3,8,0.3,8c-1.2,2.2-2,4.7-2.6,7
					c-0.8,2.9-0.4,5.8,0.4,8.7c1.3,4.5,1.6,8.2,1.6,8.2s-9.6,1.8-12,1.5c-0.8-0.1-2.2-7-2.2-7s-1.9,6.6-2.7,6.4
					c-2.1-0.4-9.8-3.2-9.8-3.2s3.1-9.2,3.1-10.8c0-3.3,0.4-5.7,1.4-10.3C44.8,52.3,45.4,48.5,45.4,48.5z"/>
			</g>
			<g>
				<g>
					<path class="st22" d="M26.3,22.6c1.6,2,9.3,14.2,9.3,14.2s-1.3,5-3.7,3.3c-2.6-1.9-5.6-4.9-9.2-8c-3.5-3.1-2.8-11.7-2.8-11.7
						S24.6,20.6,26.3,22.6z"/>
				</g>
			</g>
			<g>
				<g>
					<path class="st22" d="M32.7,34.6c0,0,10,7.2,12.5,8.9c1.1,0.7,2.6,1.6,7,3.2c1.3,0.5-2.8,1.7-2,5.3
						c-2.8-0.9-17.9-11.3-20.1-13.3C27.8,36.7,32.7,34.6,32.7,34.6z"/>
				</g>
			</g>
			<g>
				<path class="st40" d="M66.2,49.3c2.5,2.4,2.9,3.6,3.9,5.7c2.1,4.2,4.2,16.7,4.4,18.9c0.5,4.1-6.9-4.5-6.9-4.5s0.1-3.4-2.1-8.6
					c-0.5-1.3-2.2-4.7-2.2-4.7S65.1,52.6,66.2,49.3z"/>
			</g>
			<g>
				<path class="st40" d="M75.6,88c2.2-3.5-1.6-22.4-4.7-19.3c-1.6,1.6-3.2,0.6-3.2,0.6l1.7,18.5C69.4,87.8,71.7,94.2,75.6,88z"/>
			</g>
			<g>
				<g>
					<path class="st48" d="M72.5,89.8c0.2-0.1,1.9,1,2.3,1.8c0.3,0.6,0.6,2.4,0.4,2.6c-0.2,0.2-0.4-0.2-0.4-0.2s0,0.4-0.3,0.3
						c-0.2,0-0.4-0.9-0.7-1.4c-0.2-0.3-0.6-0.6-0.7-0.8c0,0,0,0.8-0.2,0.8c-0.2,0-0.6-1.4-0.6-1.8C72.3,90.7,72.2,89.9,72.5,89.8z"
						/>
				</g>
			</g>
			<g>
				<g>
					<path class="st48" d="M17.3,20.4c-0.4-1,0.1-2.4,0.9-2.1c0.1,0,0.5,0.3,0.8,0.6c0.2,0.2,0.4,0.4,0.4,0.4s-0.6-0.7-0.2-0.8
						c0.3-0.1,0.6,0.3,0.8,0.6c0.2,0.3,1.4,2,0.8,3.2c0.1,0-0.3,0.2-0.4,0.2C19.6,22.3,17.8,21.4,17.3,20.4z"/>
				</g>
				<g>
					<path class="st48" d="M16.9,17.5c0,0-0.6,0,0.6,1.1l1.7,0.5C19.3,19,17.4,17.6,16.9,17.5z"/>
				</g>
			</g>
			<g>
				<path class="st40" d="M57,46.9c0,0,1.4,0.2,2.1,0.3c1.3,0.2,2.7,0.5,4.2,0.9c1,0.3,2,0.6,2.9,1.2c-0.8,3.4,0.3,8,0.3,8
					c-1.2,2.2-2,4.7-2.6,7c-0.8,2.9-0.4,5.8,0.4,8.7c1.3,4.5,1.6,8.2,1.6,8.2s-9.6,1.8-12,1.5c-0.8-0.1-2.2-7-2.2-7s0.3-4,0.8-10.9
					C53,57.2,57,46.9,57,46.9z"/>
			</g>
			<g>
				<g>
					<path class="st48" d="M58.6,44.2c0,0,0,3.8-0.4,4.2c-0.5,0.3-1.9,0.6-2.5-0.5c-0.6-1.1,0.8-4.1,0.8-4.1L58.6,44.2z"/>
				</g>
				<g>
					<path class="st49" d="M58.5,47c-0.9,0.1-2-0.6-2.7-1.6c0.1-0.7,0.1-0.3,0.3-0.8l2.4-0.6C58.5,44.5,58.5,46.4,58.5,47z"/>
				</g>
			</g>
			<g>
				<path class="st48" d="M55.3,42.2c0-0.5,0.6-1.7,1-2.3c0.1-0.2,0.4-0.5,0.6-0.5c1.5-0.4,3.7,1.1,4,1.6c0.4,0.6,0,1.4-0.2,2
					c-0.3,0.6-2,3.4-3.9,2.4C54.7,44.4,55.1,43.5,55.3,42.2z"/>
			</g>
			<g>
				<path class="st28" d="M55.4,49l0.4,1.3l0.6,0.1l1.2-1.1C57.6,49.3,56.5,48,55.4,49z"/>
			</g>
			<g>
				<path class="st28" d="M56.5,49.7c0,0,0.5,9.3,0.5,12.4c0,3.1-0.7,3.8-0.7,3.8l-2.8,1.2l-2.1-2.3c0,0,3.4-13.9,4.5-15.1
					C57.1,48.5,56.5,49.7,56.5,49.7z"/>
			</g>
			<g>
				<path class="st40" d="M55.6,46.2c0,0-0.3,0.8,1,2.4l-1.2,1.1C55.4,49.7,53.9,48.5,55.6,46.2z"/>
			</g>
			<g>
				<path class="st22" d="M58.5,46.7c0,0,0,0.4-2,1.9l0.8,1.6C57.3,50.2,59.6,49.4,58.5,46.7z"/>
			</g>
		</g>
	</g>
</g>
</svg>
