<svg xmlns="http://www.w3.org/2000/svg" viewBox="0 0 278.62 206.34"><defs><style>.cls-1{isolation:isolate;}.cls-2{fill:#dcdcdc;}.cls-3{fill:#3b2b5b;}.cls-4{fill:#7f65c1;}.cls-5{fill:#30193b;}.cls-6{fill:#aacbe8;}.cls-7{fill:#99b4dd;}.cls-8{fill:#ff97a6;}.cls-9{fill:#c95d77;}.cls-10{fill:#ffa1b3;}.cls-11{fill:#d5eaf5;}.cls-12{fill:#633006;}.cls-13{mix-blend-mode:multiply;}.cls-14{fill:#ff9a2e;}.cls-15{fill:#fff;}.cls-16{fill:#ffcb48;}</style></defs><title>wait1</title><g class="cls-1"><g id="Capa_2" data-name="Capa 2"><g id="Capa_1-2" data-name="Capa 1"><path class="cls-2" d="M1.55,142.31a6.43,6.43,0,0,0-1.12,6.5l63-1.13a5.93,5.93,0,1,0-10.62-5.11,27.78,27.78,0,0,0-2.59-13.7A17.93,17.93,0,0,0,40,119.7a13.34,13.34,0,0,0-13.14,2.73c-4,3.89-4.68,10-5,15.56A7.71,7.71,0,0,0,14,134.21a7.73,7.73,0,0,0-6.15,6.16A6.46,6.46,0,0,0,1.55,142.31Z"/><path class="cls-2" d="M231.56,46.72A8.48,8.48,0,0,0,226,55.41a.41.41,0,0,0,0,.11c0,.45-.68.54-.79.1l0-.1c-1.47-6-1.62-14.44-7.94-17.71a6.89,6.89,0,0,0-8.59,1.48c-2.45,2.8-2.74,6.7-3,10.24a.4.4,0,0,1-.74.2l-.1-.17c-1.14-1.64-3.68-1.37-5-.12-1.68,1.53-2,4.06-2.09,6.19a.41.41,0,0,1-.4.4,5.45,5.45,0,0,0-5.93,5.44.38.38,0,0,1-.06.22c5.38-.24,10.78-.08,16.17-.08h51.71c6.35,0,12.77-.27,19.12.12a5.05,5.05,0,0,0-7.21-6.25c-.27.15-.66-.11-.55-.42,0-.09.05-.18.08-.26A26.55,26.55,0,0,0,268,32.42c-2-3.14-5.21-6.42-9.22-6.23-3.85.17-6.58,3.61-7.82,7-1.74,4.74-.92,10.05-1.59,15a.38.38,0,0,1-.76,0,3,3,0,0,0-3.84-2.54c-1.78.54-2.72,2.42-2.88,4.16,0,.06,0,.13,0,.2a.41.41,0,0,1-.75.2A8.5,8.5,0,0,0,231.56,46.72Z"/><path class="cls-3" d="M156.63,60.47c-2.49-1.84-4.28-2.28-7-.72a20.84,20.84,0,0,0-6.87,6.14.42.42,0,0,0-.11-.18c-3.33-3.25-8.9,2.36-10.34,5.05a27.67,27.67,0,0,0-2.2,6.83c-.89,3.65-.84,7.53-1.46,11.25-7.37.89-18.69.92-20.57,12.7-1,6.48,4.79,16.37,9.55,20.78,12,8,15.25,1.19,17.8.85,3.26-.43,5.75-2.08,8.42-3.91a96.12,96.12,0,0,0,10.56-7.79c10.18-9.31,10.11-27.48,3.15-38.55A8.24,8.24,0,0,0,156.63,60.47Z"/><path class="cls-4" d="M156.63,60.47A7.1,7.1,0,0,0,152.81,59a6.9,6.9,0,0,0-3.75,1.47,20.33,20.33,0,0,0-5.86,5.75l-1-.09s0,0,0,0L142,66l-.33-.25a3.71,3.71,0,0,0-.76-.29l-.39-.06c-.14,0-.28,0-.42,0a4.21,4.21,0,0,0-.84.14,8.86,8.86,0,0,0-3.14,1.84,16.38,16.38,0,0,0-2.55,2.78A11.89,11.89,0,0,0,132,73.48c-.39,1.21-.67,2.48-1,3.77a31,31,0,0,0-.68,3.81c-.32,2.58-.41,5.24-.85,7.93a.9.9,0,0,1-.79.75c-4.18.49-8.34.7-12.08,2.16a12.52,12.52,0,0,0-4.87,3.19,12.37,12.37,0,0,0-2.7,5.16c-.12.48-.25,1-.35,1.46a11.65,11.65,0,0,0-.12,1.45,10.62,10.62,0,0,0,.07,1.49l.08.75.14.74a26.07,26.07,0,0,0,1.9,5.82,37.17,37.17,0,0,0,6.8,10.36,28.33,28.33,0,0,1-4.25-4.63,38.75,38.75,0,0,1-3.37-5.34,26.77,26.77,0,0,1-2.27-6l-.19-.78-.11-.81a11.22,11.22,0,0,1-.13-1.64,11.54,11.54,0,0,1,.08-1.66c.09-.54.21-1.07.31-1.6A13.49,13.49,0,0,1,110.58,94,14.17,14.17,0,0,1,116,90.27c4.09-1.62,8.41-1.85,12.5-2.34l-.8.76c.44-2.54.55-5.18.89-7.85a29.59,29.59,0,0,1,.77-4c.32-1.28.64-2.59,1.08-3.89a13.78,13.78,0,0,1,1.89-3.75,17.29,17.29,0,0,1,2.9-3,10.11,10.11,0,0,1,3.73-2,4.52,4.52,0,0,1,2.28,0,4.84,4.84,0,0,1,1.07.47l.44.36.23.19a1.64,1.64,0,0,1,.26.39l-1-.1a20,20,0,0,1,6.45-5.66,7.43,7.43,0,0,1,4.1-1.29A7.06,7.06,0,0,1,156.63,60.47Z"/><path class="cls-5" d="M164.82,126.21c-2.42.66,5.69-2.5,14.33,33,2.38,9.8,9,12.54-8.32,4a181.05,181.05,0,0,0-19.52-7.63s-29.58,19.07-28.6,12.21c2.56-17.85,5.83-29.61,8.4-35.3C135.12,133.7,157.9,130.54,164.82,126.21Z"/><path class="cls-3" d="M126.2,169.21c-8.73,4.07-46.1-5.47-32-18.54,4.43-4.1,19.53-7.45,25.81-9.38,1.95-.6,8.91-2.43,8.91-2.43l3.5-9.5s17.36,1.2,19.28,1.66c-.21,1.82.08,16.9,0,22.67C151.64,158.68,132.86,166.11,126.2,169.21Z"/><path class="cls-6" d="M130.16,114.12c.69,5.72.38,16.9.7,18.8,3.87.74,29.78-.38,36.6-3.92,1-6.46,2-25.44-.56-32.11-2-5.06-.73-6.53-3-8.06-2.48-1.67-4.81-1.93-11.68-2.13-22.93-.67-25.69,7.59-25.69,7.59S129.13,105.57,130.16,114.12Z"/><path class="cls-7" d="M150.32,132.37s14.12-.87,17.14-3.37c1-6.46,4.73-25.78,2.14-32.46-2-5.06-2-6.33-6.51-8.48-2.7-1.27-16.19-1.43-16.19-1.43s4,8.56,4.81,16.69C153,116.41,150.32,132.37,150.32,132.37Z"/><path class="cls-8" d="M147.59,81.06s2.06,7.53,1.77,8.53-1.62,2.33-2.86.39-1.38-8.56-1.38-8.56Z"/><path class="cls-9" d="M147.63,74S149,86.21,148.89,86.3c-2.38,1.49-3.55-1.27-3.55-1.27l-.43-10.83Z"/><path class="cls-10" d="M142.35,79.65c-.6-1.29,0-6.49,0-6.49.54-3.14,5.52-2.66,6.72-2.46a8.25,8.25,0,0,1,3.75,1.45c1.33.94,1.3,2.9,1.31,4.36a10.46,10.46,0,0,1-1.42,5.27,6.7,6.7,0,0,1-4.53,2C144.21,83.54,143.11,82.48,142.35,79.65Z"/><path class="cls-6" d="M128,92.64s-18.1,17.27-18,27.82,24.58-19.13,24.58-19.13Z"/><path class="cls-5" d="M171.78,162.49c9.29,2.51,12.62,5.14,21.79,2.22,5.23-1.67,26.65-11.35,10.87-17.2-18.8-7-26.11-3.92-32.27-6.18-25.82-9.46-16.33-8.65-21.85-9,4,12.54-.35,24.29-.35,24.29S164.68,160.57,171.78,162.49Z"/><path class="cls-4" d="M112.84,187.59c1.56.26,4.78-2,7.2-3.81-1,.38-2.09.63-1.61-.72.71-2,3.79-5.17,5.73-5.38a9.29,9.29,0,0,0-2.59-2.6C120.48,174.32,110.31,187.17,112.84,187.59Z"/><path class="cls-8" d="M118.43,183.06c-.48,1.35.66,1.1,1.61.72,1.51-1.15,2.71-2.16,3-2.35.84-.48,3.16-2,3.16-2l.2-1.61s-2.1.15-2.27-.15C122.22,177.89,119.14,181.1,118.43,183.06Z"/><path class="cls-5" d="M194.39,144.91c-19.33.27-68.6,32-68.6,32s-1.14,8.5,2,7.55c12.19-3.7,49-5.79,75.52-20.09C225.2,152.57,199.74,144.83,194.39,144.91Z"/><path class="cls-4" d="M188.5,191c-1.57.21-4.72-2.09-7.1-4,.95.41,2.08.69,1.63-.67-.65-2-3.65-5.27-5.58-5.53a9.23,9.23,0,0,1,2.66-2.53C181.22,177.52,191,190.64,188.5,191Z"/><path class="cls-8" d="M183,186.31c.45,1.36-.68,1.08-1.63.67-1.47-1.19-2.65-2.23-3-2.42-.82-.51-3.11-2.08-3.11-2.08l-.15-1.61s2.09.2,2.27-.09C179.38,181,182.38,184.33,183,186.31Z"/><path class="cls-3" d="M108.5,146.15c19.32.8,67.7,33.88,67.7,33.88s.91,8.53-2.17,7.5c-12.08-4-48.83-7.13-74.95-22.15C77.49,153,103.15,145.93,108.5,146.15Z"/><path class="cls-5" d="M107,147.25a46.11,46.11,0,0,1,9.94.92,65.66,65.66,0,0,1,9.66,2.63,67.39,67.39,0,0,1,9.13,4.11c1.49.76,2.89,1.67,4.31,2.54s2.74,1.9,4.09,2.87c-2.83-1.75-5.66-3.49-8.64-4.95a75.66,75.66,0,0,0-9.12-3.92,73.17,73.17,0,0,0-9.53-2.77A61.59,61.59,0,0,0,107,147.25Z"/><path class="cls-3" d="M156.54,159.05q4.07-2.27,8.26-4.3c2.79-1.38,5.63-2.65,8.47-3.9s5.75-2.37,8.7-3.36a46.12,46.12,0,0,1,9-2.27l-2.27.49-2.24.63c-1.48.46-3,.93-4.4,1.48-2.91,1.06-5.8,2.21-8.64,3.45s-5.68,2.49-8.49,3.79S159.33,157.69,156.54,159.05Z"/><path class="cls-8" d="M90.41,99.64c-.22.28-.39.54-.68.49-.74-.11-1,.14-2.37-.06,0,0-2.59-.45-3.16-1.74A5.3,5.3,0,0,1,84,96.55c0-.2.89-.45.89-.45s-.6-1.93-.2-2.24c.12-.09.65-.27.77.2a4.41,4.41,0,0,0,.64,1.36,6.72,6.72,0,0,1,1.61.64,3.69,3.69,0,0,1,.35-1.57c.14-.15.66.25.66.25s.46,1.56.67,2.06c0,0,1.13,1.11,1.54,1.41S90.77,99.18,90.41,99.64Z"/><path class="cls-8" d="M85.22,96.15a29.71,29.71,0,0,0-3.17-1.34c-.56,0-.56.94,2.55,2.31Z"/><path class="cls-8" d="M85.07,95s1.37-.67,1.64-.87c.56-.43,1-1.75-2-.22Z"/><path class="cls-8" d="M88.75,94.74s-.93-1.14-1.21-1.22c-.47-.14-1.14,0,.48,1.9Z"/><path class="cls-8" d="M85.23,97A29.28,29.28,0,0,0,82,96c-.56,0-.48,1,2.73,2.09Z"/><path class="cls-8" d="M85.68,98.28a29.62,29.62,0,0,0-3.26-1.08c-.56,0-.48,1,2.73,2.09Z"/><path class="cls-8" d="M203.67,96.07c.23.29.4.54.69.49.74-.12,1,.13,2.37-.08,0,0,2.59-.47,3.15-1.77a5.2,5.2,0,0,0,.15-1.78c0-.2-.9-.45-.9-.45s.59-1.93.19-2.23c-.12-.09-.65-.27-.77.2a4.5,4.5,0,0,1-.63,1.37,6.88,6.88,0,0,0-1.61.65s0-1.23-.36-1.56c-.14-.15-.65.25-.65.25s-.46,1.56-.65,2.06c0,0-1.13,1.13-1.53,1.43S203.31,95.62,203.67,96.07Z"/><path class="cls-8" d="M208.84,92.54A29.89,29.89,0,0,1,212,91.18c.57,0,.57.93-2.53,2.33Z"/><path class="cls-8" d="M208.84,93.43a29.26,29.26,0,0,1,3.25-1.09c.57,0,.49,1-2.71,2.11Z"/><path class="cls-8" d="M208.39,94.67a28.67,28.67,0,0,1,3.26-1.1c.56,0,.49,1-2.72,2.11Z"/><path class="cls-6" d="M113.43,110.48l-18-13.41a2.58,2.58,0,0,0-2.82-.17c-2.14,1.23-5.8,3.67-5.8,5.9,0,8.92,15.32,21.43,24.15,20.22S113.43,110.48,113.43,110.48Z"/><path class="cls-7" d="M180.33,107.23l17.91-13.56a2.58,2.58,0,0,1,2.82-.2c2.15,1.22,5.83,3.62,5.85,5.85.1,8.92-15.14,21.56-24,20.43S180.33,107.23,180.33,107.23Z"/><path class="cls-7" d="M165.59,89.51s18.25,17.12,18.3,27.67-24.75-18.92-24.75-18.92Z"/><path class="cls-6" d="M211.41,95a3.94,3.94,0,0,1-2.36-.49,4.1,4.1,0,0,1-1.94-2.44,6.77,6.77,0,0,1-.23-1.76,1.1,1.1,0,0,1,1-1.11l2.55-.29.13,1.08-2.56.29a5.18,5.18,0,0,0,.18,1.5,3,3,0,0,0,1.41,1.78,2.86,2.86,0,0,0,2.19.26,1.74,1.74,0,0,0,.53-.25l.64.88a2.54,2.54,0,0,1-.86.41A3.88,3.88,0,0,1,211.41,95Z"/><path class="cls-11" d="M218.43,96.33l-1,.12a6.92,6.92,0,0,1-7.66-6.1l-.48-3.87,14.86-1.69.4,3.88A6.92,6.92,0,0,1,218.43,96.33Z"/><path class="cls-6" d="M224.12,84.79c.07.62-3.45,1.66-7.55,2.13s-7.24.18-7.31-.44,3.2-1.51,7.3-2S224.05,84.17,224.12,84.79Z"/><path class="cls-12" d="M223,85.47c0,.35-2.94,1-6.39,1.44s-6.06.33-6.1,0,2.72-1,6.17-1.34S223,85.12,223,85.47Z"/><path class="cls-2" d="M217.27,79.74a6.06,6.06,0,0,1,.72-.93,4.63,4.63,0,0,0,.65-1.34,4,4,0,0,0-.08-2.76,7.2,7.2,0,0,0-1.28-2c-.05.5-.11,1-.17,1.49a7.52,7.52,0,0,1-.42,2.21c-.48,1.08-1.44,1.83-1.6,3.11a3.05,3.05,0,0,0,.26,1.61,9.77,9.77,0,0,0,.78,1.25c.13.21.27.41.41.61s.47.47.47.62c0-.53,0-1,0-1.58A6,6,0,0,1,217.27,79.74Z"/><path class="cls-8" d="M209,91.34s-1.37-.66-1.64-.86c-.56-.43-1.06-1.74,2-.23Z"/><path class="cls-8" d="M205.3,91.16s.92-1.15,1.19-1.23c.47-.14,1.14,0-.46,1.9Z"/><g class="cls-13"><ellipse class="cls-2" cx="148.13" cy="201.88" rx="54.91" ry="4.46"/></g><circle class="cls-14" cx="149.22" cy="18.27" r="18.27" transform="translate(30.79 110.87) rotate(-45)"/><circle class="cls-15" cx="148.44" cy="18.34" r="16.46" transform="translate(96.6 158.64) rotate(-76.77)"/><path class="cls-3" d="M149.33,18.47a1.47,1.47,0,1,1-1.46-1.56A1.51,1.51,0,0,1,149.33,18.47Z"/><path class="cls-3" d="M147.87,7.59a.42.42,0,0,1-.41-.43V4.57a.41.41,0,1,1,.81,0V7.16A.41.41,0,0,1,147.87,7.59Z"/><path class="cls-3" d="M147.87,33.11a.42.42,0,0,1-.41-.43V30.09a.41.41,0,1,1,.81,0v2.59A.41.41,0,0,1,147.87,33.11Z"/><path class="cls-3" d="M161.5,18.86h-2.44a.43.43,0,0,1,0-.86h2.44a.43.43,0,0,1,0,.86Z"/><path class="cls-3" d="M137.48,18.86H135a.43.43,0,0,1,0-.86h2.44a.43.43,0,0,1,0,.86Z"/><path class="cls-3" d="M159.38,25.71a.12.12,0,0,1-.08,0l-1.37-.85a.16.16,0,0,1-.05-.22.13.13,0,0,1,.2-.06l1.38.86a.17.17,0,0,1,0,.22A.15.15,0,0,1,159.38,25.71Z"/><path class="cls-3" d="M138,12.35l-.07,0-1.41-.88a.16.16,0,0,1-.05-.22.13.13,0,0,1,.2-.06l1.41.88a.17.17,0,0,1,.06.22A.16.16,0,0,1,138,12.35Z"/><path class="cls-3" d="M158.21,12.46a.16.16,0,0,1-.13-.08.17.17,0,0,1,.06-.22l1.38-.84a.15.15,0,0,1,.21.06.17.17,0,0,1-.06.22l-1.38.84Z"/><path class="cls-3" d="M136.62,25.56a.16.16,0,0,1-.14-.08.17.17,0,0,1,.06-.22L138,24.4a.15.15,0,0,1,.21.06.17.17,0,0,1-.06.22l-1.42.86Z"/><path class="cls-3" d="M154.67,30.8a.16.16,0,0,1-.14-.08l-.78-1.47a.16.16,0,0,1,.05-.22.15.15,0,0,1,.21.06l.79,1.47a.17.17,0,0,1-.06.22Z"/><path class="cls-3" d="M142.36,7.89a.13.13,0,0,1-.13-.08l-.81-1.51a.15.15,0,1,1,.26-.16l.81,1.51a.17.17,0,0,1-.06.22Z"/><path class="cls-3" d="M154,7.9l-.08,0a.16.16,0,0,1,0-.22l.8-1.46a.13.13,0,0,1,.2-.06.16.16,0,0,1,.06.22l-.8,1.46A.16.16,0,0,1,154,7.9Z"/><path class="cls-3" d="M141.46,30.74a.11.11,0,0,1-.08,0,.17.17,0,0,1-.06-.22l.83-1.5a.14.14,0,0,1,.2-.06.18.18,0,0,1,.06.22l-.82,1.5A.14.14,0,0,1,141.46,30.74Z"/><polygon class="cls-3" points="143.69 10.78 146.78 18.57 148.27 17.64 143.69 10.78"/><polygon class="cls-3" points="161.22 18.43 148.16 17.7 148.44 19.43 161.22 18.43"/><path class="cls-16" d="M148,35.5a17,17,0,1,1,17-17A17.06,17.06,0,0,1,148,35.5ZM148,3a15.48,15.48,0,1,0,15.48,15.48A15.49,15.49,0,0,0,148,3Z"/></g></g></g></svg>