<?xml version="1.0" encoding="utf-8"?>
<!-- Generator: Adobe Illustrator 23.0.6, SVG Export Plug-In . SVG Version: 6.00 Build 0)  -->
<svg version="1.1" xmlns="http://www.w3.org/2000/svg" xmlns:xlink="http://www.w3.org/1999/xlink" x="0px" y="0px"
	 viewBox="0 0 1257.1 368.3" style="enable-background:new 0 0 1257.1 368.3;" xml:space="preserve">
<style type="text/css">
	.st0{fill:#FFFFFF;}
	.st1{fill:#E0ECF6;}
	.st2{fill:#8DBBDD;}
	.st3{fill:none;stroke:#3184C1;stroke-width:1.3621;stroke-linecap:round;stroke-linejoin:round;stroke-miterlimit:10;}
	.st4{fill:#A1C7E3;}
	.st5{fill:none;stroke:#8DBBDD;stroke-width:1.3621;stroke-linecap:round;stroke-linejoin:round;stroke-miterlimit:10;}
	.st6{fill:#3184C1;}
	.st7{fill:none;stroke:#0D6EB6;stroke-width:1.2244;stroke-linecap:round;stroke-linejoin:round;stroke-miterlimit:10;}
	.st8{fill:none;stroke:#8DBBDD;stroke-width:1.5702;stroke-linecap:round;stroke-linejoin:round;stroke-miterlimit:10;}
	.st9{opacity:0.3;}
	.st10{fill:#D6E6F3;}
	.st11{fill:#E9F2F8;}
	.st12{fill:#5A9DCE;}
	.st13{fill:none;stroke:#E9F2F8;stroke-miterlimit:10;}
	.st14{fill:#CCCCCC;}
	.st15{fill:#FF97A8;}
	.st16{fill:#FF5D7B;}
	.st17{fill:#08478E;}
	.st18{fill:#331239;}
	.st19{fill:#3B2B5B;}
	.st20{fill:#380A37;}
	.st21{fill:#B7CADE;}
	.st22{fill:#5E87B5;}
	.st23{fill:#295A6E;}
	.st24{fill:#3E7687;}
	.st25{fill:#F39734;}
	.st26{fill:none;}
	.st27{fill:#EF7F19;}
	.st28{fill:#FDCA49;}
	.st29{fill:#86B7DB;}
	.st30{fill:#FF97A6;}
	.st31{fill:#C95D77;}
	.st32{fill:#30193B;}
	.st33{fill:#FFCB48;}
	.st34{fill:#FF9A2E;}
	.st35{clip-path:url(#SVGID_2_);}
	.st36{fill:#0D6EB6;}
	.st37{clip-path:url(#SVGID_4_);}
	.st38{fill:#EFEFF6;}
	.st39{fill:#EF7F18;}
	.st40{fill:#4071A8;}
	.st41{fill:#0A498F;}
	.st42{fill:#3A7182;}
	.st43{fill:#E6E6E6;}
	.st44{fill:#FF9A19;}
	.st45{fill:#FFCB37;}
	.st46{opacity:0.1;}
	.st47{fill:#30183A;}
	.st48{fill:#F194A5;}
	.st49{fill:#C85D77;}
	.st50{fill:#BA2F7D;}
	.st51{fill:#B12384;}
	.st52{fill:#62BCD6;}
	.st53{fill:#BF7323;}
	.st54{fill:#80CAD5;}
	.st55{fill:#767579;}
	.st56{opacity:0.8;}
	.st57{fill:#9BCBE9;}
	.st58{fill:#3E275C;}
	.st59{fill:#406EB3;}
	.st60{fill:#DDD6FC;}
	.st61{fill:#EEEAFE;}
	.st62{fill:#7F65C1;}
	.st63{fill:none;stroke:#EEEAFE;stroke-width:0.5019;stroke-miterlimit:10;}
	.st64{fill:#EAE6FF;}
	.st65{fill:#D4EAF5;}
	.st66{fill:#A9CAE7;}
	.st67{fill:#ABC8E6;}
	.st68{fill:#D1C5FC;}
	.st69{fill:#CBB3FC;}
	.st70{fill:#CEAFF9;}
	.st71{fill:#FFC200;}
	.st72{fill:#E8853A;}
	.st73{fill:#5AC0F9;}
	.st74{fill:#53F9F4;}
	.st75{fill:#BF3904;}
	.st76{fill:#822302;}
	.st77{fill:#7964A8;}
	.st78{fill:#8865C4;}
	.st79{fill:#CCEAF5;}
	.st80{fill:#FFD67C;}
	.st81{fill:url(#SVGID_5_);}
	.st82{fill:url(#SVGID_6_);}
	.st83{fill:url(#SVGID_7_);}
	.st84{fill:url(#SVGID_8_);}
	.st85{fill:url(#SVGID_9_);}
	.st86{fill:url(#SVGID_10_);}
	.st87{fill:url(#SVGID_11_);}
	.st88{fill:#54565A;}
	.st89{fill:#9F79FF;}
	.st90{fill:#F2EEFF;}
	.st91{opacity:0.4;}
	.st92{fill:#E45D79;}
	.st93{fill:#FFE5AE;}
	.st94{fill:#FF97A7;}
	.st95{fill:#82CBEA;}
	.st96{fill:#BFEAF5;}
	.st97{fill:#8FD9ED;}
	.st98{fill:#43225D;}
	.st99{fill:#5C319A;}
	.st100{opacity:0.5;fill:url(#SVGID_12_);}
	.st101{fill:#632678;}
	.st102{fill:none;stroke:#FFFFFF;stroke-width:2;stroke-linecap:round;stroke-linejoin:round;stroke-miterlimit:10;}
	.st103{fill:none;stroke:#EEEAFE;stroke-miterlimit:10;}
	.st104{fill:#F98A8A;}
	.st105{fill:#AACBE8;}
	.st106{fill:#99B4DD;}
	.st107{fill:#6A54AF;}
	.st108{fill:#FD9E38;}
	.st109{fill:#DBCFFD;}
	.st110{fill:#B5B5B5;}
	.st111{fill:#80540A;}
	.st112{fill:#AD7121;}
	.st113{fill:#D5EAF5;}
	.st114{opacity:0.3;fill:#3B2B5B;}
	.st115{fill:#BAA4FF;}
	.st116{fill:#4E3E75;}
	.st117{fill:#D07BB5;}
	.st118{fill:#C14F9D;}
	.st119{fill:none;stroke:#000000;stroke-width:0.75;stroke-linecap:round;stroke-linejoin:round;stroke-miterlimit:10;}
	.st120{fill:#B3B3B3;}
	.st121{fill:#F2F2F2;}
	.st122{fill:#141414;}
	.st123{fill:#A3A3A3;}
	.st124{fill:#474747;}
	.st125{fill:#C7C7C7;}
	.st126{fill:#DBDBDB;}
</style>
<g id="Fondo">
</g>
<g id="Capa_7">
</g>
<g id="Contenido">
</g>
<g id="Footer">
</g>
<g id="Header">
</g>
<g id="Alertas">
</g>
<g id="Capa_2">
	<g>
		<g id="XMLID_23_">
			<g>
				<g>
					<g>
						<g>
							<path class="st0" d="M1254.5,153.1c2.4,2.7,3.1,6.7,1.7,10l-97.4-1.7c-2.7-4.4-0.8-10.9,3.8-13.1c4.6-2.2,10.9,0.4,12.6,5.2
								c-0.3-7.3,0.7-14.7,4-21.2c3.3-6.5,8.9-12,15.8-14.2c6.9-2.2,15.1-0.8,20.3,4.2c6.2,6,7.2,15.4,7.7,24.1
								c2.3-4.2,7.4-6.6,12.1-5.8c4.7,0.8,8.7,4.8,9.5,9.5C1248.2,149.2,1252.1,150.4,1254.5,153.1z"/>
						</g>
					</g>
				</g>
			</g>
			<g>
				<g>
					<g>
						<g>
							<path class="st0" d="M1256.4,163.4l-0.2,0l-97.5-1.7l-0.1-0.1c-1.3-2.1-1.7-4.9-0.9-7.6c0.8-2.7,2.5-4.8,4.8-5.9
								c2.3-1.1,5-1.1,7.6,0c2.2,0.9,3.9,2.4,4.9,4.3c-0.2-7.6,1.2-14.4,4.1-20.1c3.5-7,9.3-12.2,15.9-14.3
								c7.2-2.3,15.5-0.6,20.6,4.3c6.1,5.9,7.2,15.1,7.8,23.5c2.5-3.9,7.4-6.1,12-5.3c4.7,0.8,8.8,4.8,9.7,9.5
								c3.5-0.8,7.4,0.4,9.7,3.1c2.4,2.7,3.1,6.9,1.8,10.3L1256.4,163.4z M1158.9,161.2l97.1,1.7c1.2-3.2,0.5-7.1-1.7-9.7
								c-2.3-2.6-6.1-3.8-9.5-2.9l-0.2,0.1l0-0.2c-0.8-4.6-4.7-8.6-9.3-9.3c-4.6-0.8-9.6,1.6-11.9,5.7l-0.4,0.7l0-0.8
								c-0.5-8.5-1.5-18-7.7-23.9c-4.9-4.8-13-6.5-20.1-4.2c-6.5,2.1-12.2,7.2-15.7,14.1c-3,6-4.3,13.1-4,21.1l0.1,1.5l-0.5-1.4
								c-0.8-2.3-2.6-4.1-5.1-5.1c-2.4-1-5.1-1-7.2,0c-2.2,1-3.8,3.1-4.5,5.6C1157.4,156.6,1157.7,159.2,1158.9,161.2z"/>
						</g>
					</g>
				</g>
			</g>
		</g>
		<g>
			<path class="st0" d="M113.9,46.5c-0.2,0-0.4,0-0.5,0c0.1-0.1,0.1-0.2,0.1-0.3c0.1-4.4-3.8-8.2-8.1-8c-0.2-3.2-0.9-7.1-4-8.9
				c-2-1.1-4.6-1.2-6.3,0.3c-0.3-4.3-0.9-8.7-3.7-12.2c-2.6-3.2-6.7-4.5-10.6-3.2C72,17,70.6,26.8,68.9,34.9
				c-0.9-3.9-3.7-7.3-7.6-8.6c-4.5-1.5-9.6,0.2-12.6,3.8c-0.5-2.6-2.3-5.1-5-5.4c-1.8-0.2-3.7,0.6-4.7,2.1
				c-0.4-5.7,0.2-11.7-1.8-17.2c-1.5-4.1-4.6-8.3-9.1-9.4C23.2-0.9,18.7,2,15.7,5.6C12.2,9.7,10,14.9,9,20.1
				c-1.1,5.7-0.8,11.6,0.9,17.1c-5.7-2.1-11.8,3.4-9.3,9.4c-0.2,0.2-0.1,0.5,0.2,0.5c7.3,0.5,14.7,0.2,22.1,0.2c7.4,0,14.7,0,22.1,0
				c14.7,0,29.4,0,44.1,0c8.3,0,16.6,0.3,24.9-0.2C114.4,47.1,114.4,46.5,113.9,46.5z"/>
		</g>
		<g>
			<g>
				<path class="st1" d="M1199.4,293.5c-5.8-14.8-10.1-30.5-14.8-47.1c-3.2-11.2-8.3-23.7-19.3-27.2c-10.8-3.4-22.4,3.7-29,12.8
					c-6.6,9.2-10,20.2-15.6,30c-10.3,17.7-28.4,25.1-43.5,9.6c-21.5-22.2-31.1-52.6-44.7-79.7c-9.9-19.7-18.1-42.8-30.6-60.9
					c-19-27.7-45-51.3-79.6-51.3c-21.9,3.3-41.3,22.8-54.4,47c-13.1,24.3-20.7,53.2-27.2,82c-11.8,52.4-20.5,106-29.1,159.6
					c0,0,349.9-5.1,397.1-5.1C1207,363.2,1206.9,312.8,1199.4,293.5z"/>
				<g>
					<path class="st2" d="M1116.5,318.4c-0.9,17-19.3,46.7-36.3,45.8c-17-0.9-26-31.9-25.2-48.9c0.9-17,18.9-101.9,35.9-101.1
						C1107.9,215.1,1117.4,301.4,1116.5,318.4z"/>
					<line class="st3" x1="1090.1" y1="225.3" x2="1081.6" y2="362.9"/>
					<path class="st4" d="M1077.6,314.9c-3.9,8.5-6.8,17.4-8.6,26.7c-0.9,4.7-1.5,9.8,0.7,14.1c2.3,4.7,7.5,7.4,12.7,8.3
						c12.6,2.1,25.2-5.7,32.6-16.1c7.4-10.4,10.6-23.2,13.5-35.6c2.3-9.8,4.6-19.7,9-28.9c1.9-3.9,12.8-19,7.6-22.9
						c-7.1-5.6-27.6,0.5-40.7,14.8C1093.6,287.1,1084.3,300.4,1077.6,314.9z"/>
					<path class="st5" d="M1082.4,363.9c0,0,15.2-59.3,52-93.3"/>
				</g>
				<g>
					<path class="st6" d="M1166.9,300.9c-1.3,2.3-3.7,3.9-6,5.2c-2.7,1.5-5.6,2.9-8.5,4.2c-3.6,1.7-7.4,3.4-10.8,5.6
						c-2.5,1.6-4.8,3.4-6.6,5.3c3-6.7,6.4-12.6,10.5-17.9c5.4-6.9,10.9-10.4,16.4-10.4c0.1,0,0.3,0,0.4,0c1.7,0,3,0.5,3.9,1.3
						C1168.1,295.7,1168,298.8,1166.9,300.9z"/>
					<path class="st6" d="M1173,339.2c-2.2,1.6-5.1,1.9-7.6,2.1c-3.1,0.2-6.3,0.2-9.4,0.2c-4,0-8.1-0.1-12.2,0.4
						c-3,0.4-5.7,1-8.3,1.9c5.6-4.8,11.2-8.6,17.1-11.7c7.8-4,14.3-4.8,19.3-2.4c0.1,0.1,0.2,0.1,0.3,0.2c1.5,0.8,2.5,1.7,3,2.8
						C1176.3,335.1,1175,337.9,1173,339.2z"/>
					<path class="st6" d="M1158.5,358.1c-1.8-0.2-3.4-1.4-4.8-2.5c-1.7-1.4-3.2-2.9-4.8-4.3c-2-1.9-4-3.8-6.2-5.5
						c-1.6-1.2-3.3-2.2-5-2.9c5,0.2,9.6,0.9,14,2.2c5.7,1.7,9.3,4.3,10.7,7.8c0,0.1,0.1,0.2,0.1,0.2c0.4,1.1,0.5,2,0.2,2.8
						C1162.1,357.6,1160.1,358.3,1158.5,358.1z"/>
					<path class="st7" d="M1117.2,364.3c0,0,0.2-36.3,44.5-67.1"/>
					<path class="st7" d="M1117.2,364.3c0,0,13.6-29.2,50.5-29.2"/>
					<path class="st7" d="M1137.3,343.2c0,0,7.1-0.5,22.1,10.7"/>
				</g>
			</g>
			<g>
				<path class="st1" d="M252.5,364.6c-10.2-38.7-20.5-77.5-32.6-115c-6.8-21.1-14.3-42.2-24.7-59.1c-10.4-16.9-24.2-29.4-38-29.3
					c-21.3,4.1-35.1,25.2-44.1,48.5c-5.9,15.3-8.8,33.8-13,50c-5.8,22.3-8.8,46.5-19.9,66c-7.8,13.6-19.7,10.2-27.7-2.1
					c-4.4-6.8-7.6-14.8-12.5-21c-5-6.2-12.8-10.2-19.1-6.3c-6.5,4-8.4,14.1-9.3,23c-1.3,13.2-2.4,25.6-4.5,37.6
					c-0.5,2.6-1,5.2-1.5,7.7H252.5z"/>
				<path class="st1" d="M582.9,364.6c-13.5-51-27.1-102.1-42.9-151.5c-8.9-27.9-18.8-55.6-32.5-77.9
					c-13.7-22.3-31.9-38.7-50.1-38.6c-28.1,5.4-46.2,33.2-58.1,63.9c-7.8,20.2-11.6,44.6-17.1,65.9c-7.6,29.3-13.6,134.8-14.4,138.2
					H582.9z"/>
				<path class="st4" d="M160.9,311.1c-6.4-7.4-14.5-13.8-17.1-23.1c-1.9-6.8-0.4-14,0.3-21c0.7-7,0.5-14.8-4.1-20.2
					c-3.7-4.5-9.7-6.4-15.3-7.6c-5.7-1.2-11.6-2-16.7-4.9c-8.2-4.7-6.6-12.7-11-19.7c-4.9-7.9-16.4-17.9-26.3-12.7
					c-10.4,5.5-8.8,22.3-1.8,29.7c4.6,4.9,10.5,9.6,11.2,16.3c1,10.1-10.5,19.2-7.4,28.8c2.3,7.1,11.3,9.6,15.7,15.6
					c4.4,6,3.5,14.3,0.9,21.3c-2.6,6.9-6.6,13.4-8.2,20.6c-3.3,14.8,8.3,25,21.6,28.3c12.2,3,38.4,1.6,38.4,1.6
					c9.4-3.3,19.7-11.5,24.9-20.5c3.9-6.8,4.4-15.4,1.4-22.6C165.9,317.5,163.5,314.2,160.9,311.1z"/>
				<path class="st8" d="M82.5,218c0,0,44.8,69.2,49.6,145.9"/>
				<g>
					<path class="st2" d="M42.6,311.2c0.7-0.6,1.7-0.9,3-0.9c0.1,0,0.2,0,0.3,0c4.2,0,8.3,2.6,12.4,7.9c3.1,4,5.7,8.4,7.9,13.5
						c-1.4-1.4-3.1-2.8-5-4c-2.6-1.6-5.4-3-8.2-4.2c-2.1-1-4.3-2-6.4-3.2c-1.7-0.9-3.5-2.1-4.5-3.9
						C41.3,314.8,41.2,312.5,42.6,311.2z"/>
					<path class="st2" d="M35.8,340.5c0.4-0.8,1.1-1.5,2.3-2.1c0.1,0,0.2-0.1,0.3-0.1c3.8-1.8,8.7-1.2,14.6,1.8
						c4.5,2.3,8.8,5.2,13,8.8c-1.9-0.7-4-1.2-6.2-1.5c-3.1-0.4-6.2-0.3-9.2-0.3c-2.3,0-4.8,0-7.1-0.1c-1.9-0.1-4.1-0.4-5.8-1.6
						C36.1,344.3,35,342.2,35.8,340.5z"/>
					<path class="st2" d="M45.4,358c-0.2-0.6-0.2-1.3,0.1-2.1c0-0.1,0-0.1,0.1-0.2c1-2.7,3.8-4.6,8.1-5.9c3.3-1,6.8-1.5,10.6-1.7
						c-1.3,0.5-2.6,1.3-3.8,2.2c-1.7,1.3-3.2,2.7-4.7,4.1c-1.2,1.1-2.4,2.3-3.6,3.3c-1,0.8-2.2,1.7-3.6,1.9
						C47.3,359.8,45.8,359.2,45.4,358z"/>
					<path class="st7" d="M79.7,364.3c0,0-0.1-27.4-33.6-50.7"/>
					<path class="st7" d="M79.7,364.3c0,0-10.3-22-38.2-22"/>
					<path class="st7" d="M64.5,348.4c0,0-5.4-0.4-16.7,8.1"/>
				</g>
			</g>
		</g>
	</g>
</g>
</svg>
