<?xml version="1.0" encoding="utf-8"?>
<!-- Generator: Adobe Illustrator 23.0.6, SVG Export Plug-In . SVG Version: 6.00 Build 0)  -->
<svg version="1.1" xmlns="http://www.w3.org/2000/svg" xmlns:xlink="http://www.w3.org/1999/xlink" x="0px" y="0px"
	 viewBox="0 0 100 170" style="enable-background:new 0 0 100 170;" xml:space="preserve">
<style type="text/css">
	.st0{fill:#FFFFFF;}
	.st1{fill:#E0ECF6;}
	.st2{fill:#8DBBDD;}
	.st3{fill:none;stroke:#3184C1;stroke-width:1.3621;stroke-linecap:round;stroke-linejoin:round;stroke-miterlimit:10;}
	.st4{fill:#A1C7E3;}
	.st5{fill:none;stroke:#8DBBDD;stroke-width:1.3621;stroke-linecap:round;stroke-linejoin:round;stroke-miterlimit:10;}
	.st6{fill:#3184C1;}
	.st7{fill:none;stroke:#0D6EB6;stroke-width:1.2244;stroke-linecap:round;stroke-linejoin:round;stroke-miterlimit:10;}
	.st8{fill:none;stroke:#8DBBDD;stroke-width:1.5702;stroke-linecap:round;stroke-linejoin:round;stroke-miterlimit:10;}
	.st9{opacity:0.3;}
	.st10{fill:#D6E6F3;}
	.st11{fill:#E9F2F8;}
	.st12{fill:#5A9DCE;}
	.st13{fill:none;stroke:#E9F2F8;stroke-miterlimit:10;}
	.st14{fill:#CCCCCC;}
	.st15{fill:#FF97A8;}
	.st16{fill:#FF5D7B;}
	.st17{fill:#08478E;}
	.st18{fill:#331239;}
	.st19{fill:#3B2B5B;}
	.st20{fill:#380A37;}
	.st21{fill:#B7CADE;}
	.st22{fill:#5E87B5;}
	.st23{fill:#295A6E;}
	.st24{fill:#3E7687;}
	.st25{fill:#F39734;}
	.st26{fill:none;}
	.st27{fill:#EF7F19;}
	.st28{fill:#FDCA49;}
	.st29{fill:#86B7DB;}
	.st30{fill:#FF97A6;}
	.st31{fill:#C95D77;}
	.st32{fill:#30193B;}
	.st33{fill:#FFCB48;}
	.st34{fill:#FF9A2E;}
	.st35{clip-path:url(#SVGID_2_);}
	.st36{fill:#0D6EB6;}
	.st37{clip-path:url(#SVGID_4_);}
	.st38{fill:#EFEFF6;}
	.st39{fill:#EF7F18;}
	.st40{fill:#4071A8;}
	.st41{fill:#0A498F;}
	.st42{fill:#3A7182;}
	.st43{fill:#E6E6E6;}
	.st44{fill:#FF9A19;}
	.st45{fill:#FFCB37;}
	.st46{opacity:0.1;}
	.st47{fill:#30183A;}
	.st48{fill:#F194A5;}
	.st49{fill:#C85D77;}
	.st50{fill:#BA2F7D;}
	.st51{fill:#B12384;}
	.st52{fill:#62BCD6;}
	.st53{fill:#BF7323;}
	.st54{fill:#80CAD5;}
	.st55{fill:#767579;}
	.st56{opacity:0.8;}
	.st57{fill:#9BCBE9;}
	.st58{fill:#3E275C;}
	.st59{fill:#406EB3;}
	.st60{fill:#DDD6FC;}
	.st61{fill:#EEEAFE;}
	.st62{fill:#7F65C1;}
	.st63{fill:none;stroke:#EEEAFE;stroke-width:0.5019;stroke-miterlimit:10;}
	.st64{fill:#EAE6FF;}
	.st65{fill:#D4EAF5;}
	.st66{fill:#A9CAE7;}
	.st67{fill:#ABC8E6;}
	.st68{fill:#D1C5FC;}
	.st69{fill:#CBB3FC;}
	.st70{fill:#CEAFF9;}
	.st71{fill:#FFC200;}
	.st72{fill:#E8853A;}
	.st73{fill:#5AC0F9;}
	.st74{fill:#53F9F4;}
	.st75{fill:#BF3904;}
	.st76{fill:#822302;}
	.st77{fill:#7964A8;}
	.st78{fill:#8865C4;}
	.st79{fill:#CCEAF5;}
	.st80{fill:#FFD67C;}
	.st81{fill:url(#SVGID_5_);}
	.st82{fill:url(#SVGID_6_);}
	.st83{fill:url(#SVGID_7_);}
	.st84{fill:url(#SVGID_8_);}
	.st85{fill:url(#SVGID_9_);}
	.st86{fill:url(#SVGID_10_);}
	.st87{fill:url(#SVGID_11_);}
	.st88{fill:#54565A;}
	.st89{fill:#9F79FF;}
	.st90{fill:#F2EEFF;}
	.st91{opacity:0.4;}
	.st92{fill:#E45D79;}
	.st93{fill:#FFE5AE;}
	.st94{fill:#FF97A7;}
	.st95{fill:#82CBEA;}
	.st96{fill:#BFEAF5;}
	.st97{fill:#8FD9ED;}
	.st98{fill:#43225D;}
	.st99{fill:#5C319A;}
	.st100{opacity:0.5;fill:url(#SVGID_12_);}
	.st101{fill:#632678;}
	.st102{fill:none;stroke:#FFFFFF;stroke-width:2;stroke-linecap:round;stroke-linejoin:round;stroke-miterlimit:10;}
	.st103{fill:none;stroke:#EEEAFE;stroke-miterlimit:10;}
	.st104{fill:#F98A8A;}
	.st105{fill:#AACBE8;}
	.st106{fill:#99B4DD;}
	.st107{fill:#6A54AF;}
	.st108{fill:#FD9E38;}
	.st109{fill:#DBCFFD;}
	.st110{fill:#B5B5B5;}
	.st111{fill:#80540A;}
	.st112{fill:#AD7121;}
	.st113{fill:#D5EAF5;}
	.st114{opacity:0.3;fill:#3B2B5B;}
	.st115{fill:#BAA4FF;}
	.st116{fill:#4E3E75;}
	.st117{fill:#D07BB5;}
	.st118{fill:#C14F9D;}
	.st119{fill:none;stroke:#000000;stroke-width:0.75;stroke-linecap:round;stroke-linejoin:round;stroke-miterlimit:10;}
	.st120{fill:#B3B3B3;}
	.st121{fill:#F2F2F2;}
	.st122{fill:#141414;}
	.st123{fill:#A3A3A3;}
	.st124{fill:#474747;}
	.st125{fill:#C7C7C7;}
	.st126{fill:#DBDBDB;}
</style>
<g id="Fondo">
</g>
<g id="Capa_7">
</g>
<g id="Contenido">
</g>
<g id="Footer">
</g>
<g id="Header">
</g>
<g id="Alertas">
</g>
<g id="Capa_2">
	<g>
		<g class="st46">
			<path d="M73.2,153.5c0,3-15.3,5.4-34.1,5.4S5,156.5,5,153.5c0-3,15.3-5.4,34.1-5.4S73.2,150.5,73.2,153.5z"/>
		</g>
		<g>
			<g>
				<g>
					<g>
						<path class="st19" d="M56.8,152.9c0.3-1.6-1.9-1.1-3.2-1.5c0.4,0.2,0.8,0.6,0.2,0.7c-0.9,0.3-2.8,0-3.3-0.6
							c-0.2,0.5-0.2,1.1-0.2,1.6C50.3,153.7,56.7,154,56.8,152.9z"/>
					</g>
				</g>
				<g>
					<g>
						<path class="st47" d="M53.8,152.2c0.6-0.2,0.2-0.5-0.2-0.7c-0.8-0.2-1.4-0.4-1.6-0.4c-0.4-0.2-0.5-0.5-0.5-0.5l-0.4-0.1
							c0,0-0.6,1-0.7,1.2C51.1,152.2,53,152.4,53.8,152.2z"/>
					</g>
				</g>
			</g>
			<g>
				<g>
					<g>
						<path class="st19" d="M29.3,152.9c0.3-1.6-1.9-1.1-3.2-1.5c0.4,0.2,0.8,0.6,0.2,0.7c-0.9,0.3-2.8,0-3.3-0.6
							c-0.2,0.5-0.2,1.1-0.2,1.6C22.8,153.7,29.2,154,29.3,152.9z"/>
					</g>
				</g>
				<g>
					<g>
						<path class="st47" d="M26.3,152.2c0.6-0.2,0.2-0.5-0.2-0.7c-0.8-0.2-1.4-0.4-1.6-0.4c-0.4-0.2-0.5-0.5-0.5-0.5l-0.4-0.1
							c0,0-0.6,1-0.7,1.2C23.6,152.2,25.5,152.4,26.3,152.2z"/>
					</g>
				</g>
			</g>
			<g>
				<g>
					<path class="st19" d="M27.5,78.3c0,0.2-2.6,3.9-4.5,8.7c-2.8,7.6-0.7,55.6,0.4,63.7c0.1,1.1,0.4,1.1,0.5-0.2
						c0.8-8.4,11.6-52.6,11.6-52.6l8.9,16.8l6.5,36.1l0.6,0c0,0,3.2-26,2.2-37.4c-0.8-9.3-5.9-33.3-7.2-35.3
						C44.1,77.5,31.5,77.9,27.5,78.3z"/>
				</g>
			</g>
			<g>
				<g>
					<path class="st20" d="M37.8,79c0,0.2-2.1,18.9-2.1,18.9l8.9,16.8l6.5,36.1l0.6,0c0,0,3.2-26,2.2-37.4
						c-0.8-9.3-5.9-33.3-7.2-35.3C44.1,77.5,41.7,78.7,37.8,79z"/>
				</g>
			</g>
			<g>
				<g>
					<g>
						<path class="st52" d="M66.5,52.1c0,0-14.3,0.6-19.5,1c-1.3,0.1-4.8-0.2-7.6,1.5c2.4,1.2,8.4,4.3,8.2,4
							c2.2,0.7,12,1.5,14.6,0.8C65.7,58.6,66.5,52.1,66.5,52.1z"/>
					</g>
				</g>
			</g>
			<g>
				<g>
					<g>
						<g>
							<path class="st48" d="M64.5,38.4c1.6-1.4-0.3-2.1,1.4-3.3c1-0.7-1.3-1-3,0.2c-0.4,0.3,0.6,3.5,0.6,3.5L64.5,38.4z"/>
						</g>
					</g>
				</g>
			</g>
			<g>
				<g>
					<path class="st34" d="M49.9,41.5c0,0-0.6,0-0.9,0.3c-0.2,0.2,0.1,0.7,0.3,1c0.2,0.2,0.6,0.6,0.8,0.5c0.3-0.1,0.6-0.6,0.6-0.6
						L49.9,41.5z"/>
				</g>
				<g>
					<path class="st34" d="M54.7,37.9l-5.1,3.5c0,0-0.2,0.2,0.1,0.9c0.3,0.7,0.9,0.7,0.9,0.7l5.6-3.4L54.7,37.9z"/>
				</g>
				<g>
					<path class="st28" d="M58.3,34.9l-3.7,2.7c-0.1,0.1-0.2,0.1-0.2,0.2c-0.1,0.2-0.2,0.7,0.3,1.3c0.3,0.4,0.6,0.7,0.8,0.8
						c0.2,0.1,0.5,0.1,0.7,0c0.9-0.5,4.1-2.4,4.2-2.3C60.5,37.9,58.3,34.9,58.3,34.9z"/>
				</g>
				<g>
					<path class="st34" d="M67.3,27.1l-10.2,7.3c-0.3,0.2-0.5,0.6-0.4,0.9c0,0.4,0.2,1,0.9,1.9c1.5,2,2.3,1.5,2.3,1.5L71,32.4
						L67.3,27.1z"/>
				</g>
				<g>
					<path class="st28" d="M85.8,14.1L67.2,26.4c-0.6,0.4-0.9,1-0.9,1.7c0,0.6,0.2,1.4,0.7,2.4c0.9,1.6,2,2.1,2.8,2.2
						c0.5,0.1,0.9,0,1.3-0.3l19.1-11.1L85.8,14.1z"/>
				</g>
				<g>
					<path class="st34" d="M89.5,11.1L85.3,14c-0.1,0.1-0.1,0.2-0.1,0.3c0.1,0.6,0.7,2.6,1.6,4c0.8,1.3,2,2.7,2.8,3.3
						c0.3,0.2,0.6,0.2,0.9,0.1l4.4-2.2C94.8,19.5,93.1,17.4,89.5,11.1z"/>
				</g>
				<g>
					<path class="st53" d="M91.3,15.9c1.5,2.3,3.1,4,3.6,3.7c0.5-0.3-0.3-2.4-1.8-4.8c-1.5-2.3-3.1-4-3.6-3.7
						C89,11.4,89.8,13.5,91.3,15.9z"/>
				</g>
				<g>
					<path class="st28" d="M91.3,15.8c0.9,1.5,1.9,2.6,2.1,2.4c0.2-0.1-0.4-1.4-1.3-2.9c-0.9-1.5-1.9-2.6-2.1-2.4
						C89.7,13,90.3,14.3,91.3,15.8z"/>
				</g>
			</g>
			<g>
				<g>
					<g>
						<g>
							<path class="st52" d="M63,38.5c-0.7,2.2-2,14.3-2,14.3l-10.8,2.3c0,0,13.2,4,15.2,1.1c0.6-0.9,2.8-10.3,2.5-15.9
								c-0.1-1.7-2.4-2.7-4.1-2.4l-0.2,0C63.3,38,63.1,38.2,63,38.5z"/>
						</g>
					</g>
				</g>
			</g>
			<g>
				<path class="st48" d="M63.9,36.5c0.1,0,0.8-2.4,1.5-2.2c0.6,0.2-0.4,2.3-0.4,2.3L63.9,36.5z"/>
			</g>
			<g>
				<g>
					<path class="st54" d="M27.2,58.1c0.3-1.8,1.6-3.2,3.3-3.8c2.8-1,6.2-1.6,13.1-0.8c1,0.1,4.6,1.5,5.6,2
						c-0.4,3.4-2.6,21.5-2.5,22.6c-3.2,1.4-17.5,1-19.1,0.2c0-0.1-1.1-7.4-1.1-12.4C26.4,62.8,26.8,60,27.2,58.1z"/>
				</g>
			</g>
			<g>
				<path class="st48" d="M25,80.7c0,0,2.2-2.4,3.1-1.9c1,0.5,2.6,1.4,2.5,1.8c-0.1,0.5-1.3-0.2-1.3-0.2s0.5,1.1,0.5,1.3
					c0,0.2-0.6,0.1-0.6,0.1s0.2,0.3-0.1,0.6c-0.2,0.3-0.8-0.5-1.2-0.7c-0.5-0.2-2.1,0.7-3.1,0.5C24.4,82.1,24.4,81.3,25,80.7z"/>
			</g>
			<g>
				<g>
					<g>
						<g>
							<path class="st54" d="M26.2,78.5c-1.3-2.1-9.7-10.9-9.7-10.9l2.5-8.8c0,0-9.3,6.4-8.3,10c0.3,1.1,4.5,11.5,9.6,14.5
								c2.2,1.3,4.8-2.3,5.7-3.9l0.1-0.2C26.4,79.1,26.4,78.8,26.2,78.5z"/>
						</g>
					</g>
				</g>
			</g>
			<g>
				<path class="st54" d="M33.7,53.4c0,0-0.1,0-0.2,0c-1.5,0.1-12,2.5-17.4,7.9c-5.9,5.9,0.5,6.4,0.5,6.4L30,60.5"/>
			</g>
			<g>
				<g>
					<path class="st52" d="M40.6,53.2c0,0,0.2,0,0.3,0c0.8,0.1,1.7,0.2,2.6,0.3c1,0.1,4.6,1.5,5.6,2c-0.4,3.4-2.6,21.5-2.5,22.6
						c-1.4,0.6-4.9,0.9-8.5,0.9c-0.1,0-0.4,0-0.4,0s0.4-11.1,0.8-14.7C38.8,61.4,40.6,53.2,40.6,53.2z"/>
				</g>
			</g>
			<g>
				<g>
					<g>
						<path class="st48" d="M40,49c0,0-1.4,4.3-1.1,4.9c0.3,0.5,1.5,1.4,2.5,0.4c0.9-1,0.7-5,0.7-5L40,49z"/>
					</g>
				</g>
				<g>
					<g>
						<path class="st49" d="M39.1,52.2c0.7,0.5,1.8,0.9,2.8,0.6c0.1-0.8,0.2-1.7,0.2-2.4L39.7,50C39.5,50.6,39.3,51.4,39.1,52.2z"/>
					</g>
				</g>
			</g>
			<g>
				<g>
					<path class="st48" d="M44.6,48c0.1-0.4-0.4-1.6-0.7-2.3c-0.2-0.5-0.9-1.3-1.4-1.4c-1.4-0.1-3,1.2-3.3,1.6
						c-0.4,0.5-0.4,1.5-0.2,2.1c0.2,0.6,1.6,3.4,3.6,2.7C44.7,50,44.6,49.3,44.6,48z"/>
				</g>
			</g>
			<g>
				<g>
					<path class="st23" d="M40.5,52c-0.7-0.3-1.4-1.3-1.9-2c0,0,0,0,0,0c-0.2-0.3-0.4-0.5-0.6-0.8c0,0-0.1-0.1-0.1-0.1
						c0,0,0,0-0.1,0c-0.7-0.3-1.4-0.9-1.7-1.4c-0.8-1.4-0.8-3-0.1-4.4c0.7-1.5,2.1-1.9,3.5-2.1c0.7-0.2,1.4-0.5,1.9-0.9
						c0.5-0.4,0.8-1,1.3-1.4c0.1-0.1,0.2-0.1,0.2-0.2c0.4-0.5,1.1-0.6,1.8-0.4c0.9,0.3,1.4,1.3,1.6,2.1c0.4,2.6-1.4,4.3-3.7,4.6
						c-0.3,0.1-1.2,0.1-1.5,0.2c-0.9,0.3-1.8,0.7-2.1,1.7c-0.1,0.4,0,0.8,0.1,1.2c0,0.1,0.1,0.2,0.1,0.3c0,0,0,0.1,0.1,0.1
						c0.3,0.6,0.7,1.2,1.3,1.6c0.5,0.4,1,0.5,1.7,0.5c0.7,0,1.7-0.4,2-1.1c0.3-0.5,0.2-0.8,0.1-1.5c-0.1-1.1-0.7-2.5-0.7-2.5
						c0.5,0.6,2,3.8,2,3.8c0.1,0.3,0.4,2-1.8,2.7C42.7,52.4,41.6,52.5,40.5,52z"/>
				</g>
			</g>
			<g>
				<g>
					<path class="st42" d="M40.5,52c-0.4-0.2-0.8-0.5-1.1-0.9c-0.2-0.2-0.3-0.4-0.5-0.5c-0.1-0.2-0.3-0.4-0.4-0.6l0,0l-0.6-0.8l0,0
						L37.8,49l0.1,0c-0.1,0-0.1,0-0.2,0L37.6,49l-0.2-0.1c-0.1-0.1-0.3-0.2-0.4-0.3c-0.3-0.2-0.5-0.4-0.7-0.7
						c-0.4-0.5-0.7-1.2-0.8-1.8c-0.2-1.3,0.1-2.7,0.9-3.8c0.4-0.5,1.1-0.9,1.7-1.1c0.3-0.1,0.6-0.2,1-0.3c0.3-0.1,0.6-0.1,0.9-0.2
						c0.6-0.2,1.2-0.5,1.6-0.9c0.4-0.4,0.8-1,1.4-1.4l0,0c0.3-0.3,0.7-0.5,1.1-0.5c0.4,0,0.8,0.1,1.2,0.3c0.7,0.5,1.1,1.2,1.2,2
						c-0.2-0.8-0.6-1.5-1.3-1.9c-0.3-0.2-0.7-0.3-1.1-0.3c-0.4,0-0.7,0.2-0.9,0.5l0,0l0,0c-0.5,0.4-0.8,0.9-1.3,1.4
						c-0.5,0.5-1.1,0.8-1.7,1c-0.3,0.1-0.7,0.2-1,0.3c-0.3,0.1-0.6,0.2-0.9,0.3c-0.6,0.2-1.1,0.5-1.5,1c-0.8,1-1.1,2.3-0.9,3.5
						c0.1,0.6,0.3,1.2,0.7,1.7c0.2,0.2,0.4,0.5,0.7,0.6c0.1,0.1,0.3,0.2,0.4,0.3l0.2,0.1l0.1,0.1l0.1,0c0,0,0,0,0,0l0.1,0l0.1,0.1
						l0,0l0,0l0.5,0.8l0,0l0,0c0.1,0.2,0.3,0.4,0.4,0.6c0.1,0.2,0.3,0.4,0.4,0.6C39.7,51.4,40.1,51.8,40.5,52z"/>
				</g>
			</g>
			<g>
				<path class="st48" d="M36.3,53.1c0,0,0.7,2.4,3.7,2.6c3,0.1,3.9-2.4,3.9-2.4S38.6,52.8,36.3,53.1z"/>
			</g>
		</g>
	</g>
</g>
</svg>
