<?xml version="1.0" encoding="utf-8"?>
<!-- Generator: Adobe Illustrator 23.0.6, SVG Export Plug-In . SVG Version: 6.00 Build 0)  -->
<svg version="1.1" xmlns="http://www.w3.org/2000/svg" xmlns:xlink="http://www.w3.org/1999/xlink" x="0px" y="0px"
	 viewBox="0 0 200 200" style="enable-background:new 0 0 200 200;" xml:space="preserve">
<style type="text/css">
	.st0{fill:#FFFFFF;}
	.st1{fill:#E0ECF6;}
	.st2{fill:#8DBBDD;}
	.st3{fill:none;stroke:#3184C1;stroke-width:1.3621;stroke-linecap:round;stroke-linejoin:round;stroke-miterlimit:10;}
	.st4{fill:#A1C7E3;}
	.st5{fill:none;stroke:#8DBBDD;stroke-width:1.3621;stroke-linecap:round;stroke-linejoin:round;stroke-miterlimit:10;}
	.st6{fill:#3184C1;}
	.st7{fill:none;stroke:#0D6EB6;stroke-width:1.2244;stroke-linecap:round;stroke-linejoin:round;stroke-miterlimit:10;}
	.st8{fill:none;stroke:#8DBBDD;stroke-width:1.5702;stroke-linecap:round;stroke-linejoin:round;stroke-miterlimit:10;}
	.st9{opacity:0.3;}
	.st10{fill:#D6E6F3;}
	.st11{fill:#E9F2F8;}
	.st12{fill:#5A9DCE;}
	.st13{fill:none;stroke:#E9F2F8;stroke-miterlimit:10;}
	.st14{fill:#CCCCCC;}
	.st15{fill:#FF97A8;}
	.st16{fill:#FF5D7B;}
	.st17{fill:#08478E;}
	.st18{fill:#331239;}
	.st19{fill:#3B2B5B;}
	.st20{fill:#380A37;}
	.st21{fill:#B7CADE;}
	.st22{fill:#5E87B5;}
	.st23{fill:#295A6E;}
	.st24{fill:#3E7687;}
	.st25{fill:#F39734;}
	.st26{fill:none;}
	.st27{fill:#EF7F19;}
	.st28{fill:#FDCA49;}
	.st29{fill:#86B7DB;}
	.st30{fill:#FF97A6;}
	.st31{fill:#C95D77;}
	.st32{fill:#30193B;}
	.st33{fill:#FFCB48;}
	.st34{fill:#FF9A2E;}
	.st35{clip-path:url(#SVGID_2_);}
	.st36{fill:#0D6EB6;}
	.st37{clip-path:url(#SVGID_4_);}
	.st38{fill:#EFEFF6;}
	.st39{fill:#EF7F18;}
	.st40{fill:#4071A8;}
	.st41{fill:#0A498F;}
	.st42{fill:#3A7182;}
	.st43{fill:#E6E6E6;}
	.st44{fill:#FF9A19;}
	.st45{fill:#FFCB37;}
	.st46{opacity:0.1;}
	.st47{fill:#30183A;}
	.st48{fill:#F194A5;}
	.st49{fill:#C85D77;}
	.st50{fill:#BA2F7D;}
	.st51{fill:#B12384;}
	.st52{fill:#62BCD6;}
	.st53{fill:#BF7323;}
	.st54{fill:#80CAD5;}
	.st55{fill:#767579;}
	.st56{opacity:0.8;}
	.st57{fill:#9BCBE9;}
	.st58{fill:#3E275C;}
	.st59{fill:#406EB3;}
	.st60{fill:#DDD6FC;}
	.st61{fill:#EEEAFE;}
	.st62{fill:#7F65C1;}
	.st63{fill:none;stroke:#EEEAFE;stroke-width:0.5019;stroke-miterlimit:10;}
	.st64{fill:#EAE6FF;}
	.st65{fill:#D4EAF5;}
	.st66{fill:#A9CAE7;}
	.st67{fill:#ABC8E6;}
	.st68{fill:#D1C5FC;}
	.st69{fill:#CBB3FC;}
	.st70{fill:#CEAFF9;}
	.st71{fill:#FFC200;}
	.st72{fill:#E8853A;}
	.st73{fill:#5AC0F9;}
	.st74{fill:#53F9F4;}
	.st75{fill:#BF3904;}
	.st76{fill:#822302;}
	.st77{fill:#7964A8;}
	.st78{fill:#8865C4;}
	.st79{fill:#CCEAF5;}
	.st80{fill:#FFD67C;}
	.st81{fill:url(#SVGID_5_);}
	.st82{fill:url(#SVGID_6_);}
	.st83{fill:url(#SVGID_7_);}
	.st84{fill:url(#SVGID_8_);}
	.st85{fill:url(#SVGID_9_);}
	.st86{fill:url(#SVGID_10_);}
	.st87{fill:url(#SVGID_11_);}
	.st88{fill:#54565A;}
	.st89{fill:#9F79FF;}
	.st90{fill:#F2EEFF;}
	.st91{opacity:0.4;}
	.st92{fill:#E45D79;}
	.st93{fill:#FFE5AE;}
	.st94{fill:#FF97A7;}
	.st95{fill:#82CBEA;}
	.st96{fill:#BFEAF5;}
	.st97{fill:#8FD9ED;}
	.st98{fill:#43225D;}
	.st99{fill:#5C319A;}
	.st100{opacity:0.5;fill:url(#SVGID_12_);}
	.st101{fill:#632678;}
	.st102{fill:none;stroke:#FFFFFF;stroke-width:2;stroke-linecap:round;stroke-linejoin:round;stroke-miterlimit:10;}
	.st103{fill:none;stroke:#EEEAFE;stroke-miterlimit:10;}
	.st104{fill:#F98A8A;}
	.st105{fill:#AACBE8;}
	.st106{fill:#99B4DD;}
	.st107{fill:#6A54AF;}
	.st108{fill:#FD9E38;}
	.st109{fill:#DBCFFD;}
	.st110{fill:#B5B5B5;}
	.st111{fill:#80540A;}
	.st112{fill:#AD7121;}
	.st113{fill:#D5EAF5;}
	.st114{opacity:0.3;fill:#3B2B5B;}
	.st115{fill:#BAA4FF;}
	.st116{fill:#4E3E75;}
	.st117{fill:#D07BB5;}
	.st118{fill:#C14F9D;}
	.st119{fill:none;stroke:#000000;stroke-width:0.75;stroke-linecap:round;stroke-linejoin:round;stroke-miterlimit:10;}
	.st120{fill:#B3B3B3;}
	.st121{fill:#F2F2F2;}
	.st122{fill:#141414;}
	.st123{fill:#A3A3A3;}
	.st124{fill:#474747;}
	.st125{fill:#C7C7C7;}
	.st126{fill:#DBDBDB;}
</style>
<g id="Fondo">
</g>
<g id="Capa_7">
</g>
<g id="Contenido">
</g>
<g id="Footer">
</g>
<g id="Header">
</g>
<g id="Alertas">
</g>
<g id="Capa_2">
	<g>
		<path class="st14" d="M112.8,152.2c-40,0-72.5,1.6-72.5,3.5s32.5,3.5,72.5,3.5s72.5-1.6,72.5-3.5S152.8,152.2,112.8,152.2z"/>
		<g>
			<g>
				<path class="st29" d="M170.7,155.7H53.7c-4.5,0-8.2-3.7-8.2-8.2V55.1c0-4.5,3.7-8.2,8.2-8.2h117.1c4.5,0,8.2,3.7,8.2,8.2v92.4
					C178.9,152,175.3,155.7,170.7,155.7z"/>
			</g>
			<g>
				<path class="st10" d="M145.9,155.9H53.7c-4.5,0-8.2-3.7-8.2-8.2V55.4c0-4.5,3.7-8.2,8.2-8.2h92.2c4.5,0,8.2,3.7,8.2,8.2v92.4
					C154.1,152.3,150.4,155.9,145.9,155.9z"/>
			</g>
			<g>
				<path class="st29" d="M61.2,54.4h76.9c4.5,0,8.2,3.7,8.2,8.2v78.9c0,4.5-3.7,8.2-8.2,8.2H61.2c-4.5,0-8.2-3.7-8.2-8.2V62.6
					C53,58.1,56.7,54.4,61.2,54.4z"/>
			</g>
			<g>
				<path class="st10" d="M124.3,109c0-4.5,3.7-8.2,8.2-8.2c4.5,0,8.2,3.7,8.2,8.2s-3.7,8.2-8.2,8.2
					C128,117.2,124.3,113.5,124.3,109z"/>
			</g>
			<g>
				<path class="st10" d="M132.2,76.4h0.7c1.3,0,2.4,1,2.5,2.3l1.4,27.9c0.1,2.4-1.8,4.5-4.3,4.5l0,0c-2.4,0-4.4-2-4.3-4.5l1.4-27.9
					C129.8,77.4,130.9,76.4,132.2,76.4z"/>
			</g>
			<g>
				
					<ellipse transform="matrix(0.2351 -0.972 0.972 0.2351 -32.5994 166.1245)" class="st10" cx="89.2" cy="103.8" rx="29.2" ry="29.2"/>
			</g>
			<g>
				<circle class="st12" cx="89.2" cy="103.8" r="21.9"/>
			</g>
			<g>
				<path class="st10" d="M79.8,103.8c0-5.2,4.3-9.5,9.5-9.5s9.5,4.3,9.5,9.5c0,5.2-4.3,9.5-9.5,9.5S79.8,109,79.8,103.8z"/>
			</g>
			<g>
				<path class="st0" d="M93,101.4h-7.6c-0.5,0-0.8,0.6-0.5,1l3.8,5.8c0.3,0.4,0.8,0.4,1.1,0l3.8-5.8
					C93.9,101.9,93.6,101.4,93,101.4z"/>
			</g>
			<g>
				<g>
					<path class="st0" d="M89.2,116L89.2,116c1.1,0,2,0.9,2,2v4.3c0,1.1-0.9,2-2,2l0,0c-1.1,0-2-0.9-2-2v-4.3
						C87.3,116.9,88.2,116,89.2,116z"/>
				</g>
				<g>
					<path class="st0" d="M89.2,84.1L89.2,84.1c1.1,0,2,0.9,2,2v4.3c0,1.1-0.9,2-2,2l0,0c-1.1,0-2-0.9-2-2v-4.3
						C87.3,85,88.2,84.1,89.2,84.1z"/>
				</g>
			</g>
			<g>
				<g>
					<path class="st0" d="M77.4,104.2L77.4,104.2c0,1.1-0.9,2-2,2h-4.3c-1.1,0-2-0.9-2-2l0,0c0-1.1,0.9-2,2-2h4.3
						C76.5,102.2,77.4,103.1,77.4,104.2z"/>
				</g>
				<g>
					<path class="st0" d="M109.3,104.2L109.3,104.2c0,1.1-0.9,2-2,2H103c-1.1,0-2-0.9-2-2l0,0c0-1.1,0.9-2,2-2h4.3
						C108.4,102.2,109.3,103.1,109.3,104.2z"/>
				</g>
			</g>
			<g>
				<path class="st29" d="M53,125.7L53,125.7v10.9l0,0c-2,0-3.7-1.6-3.7-3.7v-3.6C49.3,127.3,51,125.7,53,125.7z"/>
			</g>
			<g>
				<path class="st29" d="M53,66.2L53,66.2l0,10.9l0,0c-2,0-3.7-1.6-3.7-3.7v-3.6C49.3,67.8,51,66.2,53,66.2z"/>
			</g>
		</g>
		<path class="st14" d="M47.5,158.7c-18.1,0-32.7,1.6-32.7,3.5c0,1.9,14.7,3.5,32.7,3.5c18.1,0,32.7-1.6,32.7-3.5
			C80.2,160.3,65.6,158.7,47.5,158.7z"/>
		<g>
			<g>
				<path class="st21" d="M42.5,66.9c0,0,0.9-5.2,15.3-11.9l2.3,5.8c0,0-10.9,4.4-13,6.3C45,69,42.5,66.9,42.5,66.9z"/>
			</g>
			<g>
				<g>
					<g>
						<path class="st30" d="M54.7,63.5c0,0-0.3,3.1-0.7,3.3c-0.4,0.2-1.6,0.3-2-0.6c-0.4-0.9,1-3.3,1-3.3L54.7,63.5z"/>
					</g>
				</g>
				<g>
					<g>
						<path class="st31" d="M54.3,66.1c-0.7,0-1.7-0.7-2.1-1.5c0.2-0.5,0.3-0.7,0.5-1.1l2,0.7C54.6,64.7,54.4,65.6,54.3,66.1z"/>
					</g>
				</g>
			</g>
			<g>
				<g>
					<g>
						<g>
							<path class="st32" d="M43.3,162.1c0-1.4-2.1-1.2-3.5-1.5c0.4,0.2,0.8,0.6,0.2,0.8c-0.9,0.3-3,0.1-3.6-0.5
								c-0.2,0.5-0.2,1.2-0.2,1.7C36.3,163.2,43.3,163.3,43.3,162.1z"/>
						</g>
					</g>
				</g>
				<g>
					<g>
						<g>
							<path class="st30" d="M40.1,161.4c0.6-0.2,0.2-0.6-0.2-0.8c-0.9-0.2-1.6-0.4-1.7-0.4c-0.4-0.2-0.6-0.5-0.6-0.5l-0.4-0.1
								c0,0-0.6,1.2-0.7,1.3C37.1,161.5,39.1,161.7,40.1,161.4z"/>
						</g>
					</g>
				</g>
			</g>
			<g>
				<g>
					<g>
						<g>
							<path class="st32" d="M54.6,162.5c0.1-1.4-2.1-1.2-3.5-1.5c0.4,0.2,0.8,0.6,0.2,0.8c-0.9,0.3-3,0.1-3.6-0.5
								c-0.2,0.5-0.2,1.2-0.2,1.7C47.5,163.6,54.5,163.7,54.6,162.5z"/>
						</g>
					</g>
				</g>
				<g>
					<g>
						<g>
							<path class="st30" d="M51.3,161.8c0.6-0.2,0.2-0.6-0.2-0.8c-0.9-0.2-1.6-0.4-1.7-0.4c-0.4-0.2-0.6-0.5-0.6-0.5l-0.4-0.1
								c0,0-0.6,1.2-0.7,1.3C48.3,161.9,50.4,162.1,51.3,161.8z"/>
						</g>
					</g>
				</g>
			</g>
			<g>
				<g>
					<g>
						<path class="st32" d="M39.5,86.6c0,0.2-4.5,5.1-5.5,10.4c-2.3,11.9,1.5,55.1,2.1,61.9c0,0.5,0.5,0.9,1,0.9l0.8,0
							c0.4,0,0.7-0.3,0.8-0.7l8.5-55.4l2.6,20.5l-1.9,35.9l1.5,0.1c0,0,9.9-28.4,10.4-36.9c1.4-22.4-2.7-34.5-4-37.1
							C54,87.1,43,88.1,39.5,86.6z"/>
					</g>
				</g>
			</g>
			<g>
				<g>
					<g>
						<path class="st19" d="M39.5,86.6c0,0.2-4.5,5.1-5.5,10.4c-2.3,11.9,1.5,55.1,2.1,61.9c0,0.5,0.5,0.9,1,0.9l0.8,0
							c0.4,0,0.7-0.3,0.8-0.7l8.5-55.4c0,0-1.1-5.8-1.2-8.9c-0.1-4.7,0.6-7.5,0.6-7.5s-0.3,0-0.5,0C43.4,87.4,40.9,87.2,39.5,86.6z"
							/>
					</g>
				</g>
			</g>
			<g>
				<g>
					<path class="st21" d="M73,52.2c0.1,0.4-1.6,1.8-1.9,2.1c-2.5,2-11.4,6.9-13,7.5c-1.3,0.5-3.9,1.1-3.4-2.1
						c0.2-1.2,0.8-2.7,3.7-5.1C63.4,50.2,71.4,41.1,73,52.2z"/>
				</g>
			</g>
			<g>
				<g>
					<path class="st33" d="M95.5,56.3C93.4,66.1,84,72.4,74.4,70.4C64.9,68.3,58.9,58.6,61,48.8c2.1-9.8,11.6-16.1,21.1-14.1
						C91.7,36.8,97.7,46.4,95.5,56.3z"/>
				</g>
				<g>
					<path class="st34" d="M79.9,69.2c-1.7,0.2-3.4,0.1-5.2-0.3c-4.3-0.9-7.9-3.5-10.2-7.3c-2.3-3.7-3.1-8.2-2.2-12.6
						c0.9-4.4,3.5-8.1,7.2-10.6c3.7-2.5,8.1-3.3,12.3-2.4c4.3,0.9,7.9,3.5,10.2,7.3c2.3,3.7,3.1,8.2,2.2,12.6l0,0
						C92.6,63.2,86.7,68.4,79.9,69.2z M76.8,37.3c-2.3,0.3-4.5,1.1-6.5,2.4c-3.4,2.2-5.7,5.7-6.5,9.7c-0.9,4-0.2,8.1,2,11.5
						c2.1,3.4,5.4,5.8,9.3,6.6c8,1.7,16-3.6,17.7-11.8c0.9-4,0.2-8.1-2-11.5c-2.1-3.4-5.4-5.8-9.3-6.6
						C79.9,37.2,78.3,37.2,76.8,37.3z"/>
				</g>
				<g>
					<g>
						<g>
							<path class="st34" d="M85.6,48.6c0.4-2-0.4-4.3-1.8-5.7c-1.2-1.2-2.8-1.4-4.4-1.4c-1.7,0-3.5,0.3-5,1.2c-1.8,1-2.1,3-1.7,4.9
								c0.4,2,1.5,3.3,3.2,4.4c1.9,1.2,4.2,1.9,5.6,3.8c2.4,3.2-0.7,6.6-4.3,5.6c-3-0.9-5.9-3.6-4.7-7c0.2-0.6-1.8-0.6-2-0.1
								c-1.7,4.8,3.7,8,7.8,8.1c1.9,0.1,4-0.4,5.3-1.9c1.4-1.7,1-3.8-0.4-5.4c-1.4-1.6-3.3-2.3-5.1-3.3c-2.3-1.3-3.8-3.5-3.5-6.3
								c0.3-2.7,3.6-3.8,6-3c2.3,0.8,3.3,4.1,2.9,6.3C83.4,49.2,85.5,49.3,85.6,48.6L85.6,48.6z"/>
						</g>
					</g>
					<g>
						<g>
							<path class="st34" d="M77.8,39.3c-1.9,8.7-3.8,17.4-5.6,26c-0.1,0.5,1.9,0.6,2.1-0.1c1.9-8.7,3.8-17.4,5.6-26
								C80,38.8,78,38.7,77.8,39.3L77.8,39.3z"/>
						</g>
					</g>
					<g>
						<g>
							<path class="st34" d="M81,39.6c-1.9,8.7-3.8,17.4-5.6,26c-0.1,0.5,1.9,0.6,2.1-0.1c1.9-8.7,3.8-17.4,5.6-26
								C83.2,39,81.2,38.9,81,39.6L81,39.6z"/>
						</g>
					</g>
				</g>
			</g>
			<g>
				<g>
					<path class="st30" d="M92.3,62.4c0.2,0.1,0.5,0.1,0.7,0c0.5-0.4,2.2-3.3,2.3-3.5c0.4-0.8,0.3-2.2,0.3-2.2s0-0.4-0.4-0.4
						c-0.2,0-0.3,1.4-0.9,2.1c-0.4,0.5-1,0.7-1.1,0.5c-0.2-0.3-0.4-1.3-0.8-1.3c-0.4,0.1-0.3,2-0.3,2.7c0,0,0,1.3-0.2,1.7
						C91.6,62.2,91.9,62.2,92.3,62.4z"/>
				</g>
			</g>
			<g>
				<g>
					<path class="st22" d="M90,59.7c-0.4-0.2-17.7,11-17.7,11l-0.9,6c0,0,9-0.6,12.8-2.9C89.6,70.3,98,64.8,90,59.7z"/>
				</g>
			</g>
			<g>
				<path class="st21" d="M57.9,68c-3.2-1.1-10.7-4.3-11.7-4.7c-3.3-1.3-5.2,8.8-5.5,10.5c-0.4,2.6-1.2,11.4-1.3,12.9
					c3.3,3.2,15.3,0.6,16.2-0.5c0-0.1,0.5-3,1.7-5.6c1.1-2.4,1.9-3.6,2.6-4.8C61.1,74,63.2,69.8,57.9,68z"/>
			</g>
			<g>
				<path class="st22" d="M58.7,68.3c0,0,10.9,2.6,17,1.6l0.5,6c0,0-7.9,2.6-17.4-2.2L58.7,68.3z"/>
			</g>
			<g>
				<g>
					<path class="st30" d="M51.6,63.2c-0.2-0.3-0.2-1.7-0.2-2.8c0-0.9,0.8-1.7,1.7-1.7c1.4,0,3,0.2,3.5,0.4c0.7,0.4,0.7,1.4,0.8,2.1
						c0,0.7-0.1,2-0.5,2.7c-0.4,0.6-1.5,1.1-2.2,1.1C52.7,65.1,52.1,64.6,51.6,63.2z"/>
				</g>
			</g>
			<g>
				<path class="st23" d="M53.5,56.6c0.4-0.3,1.4-1.4,2.2-2.2c0.6-0.6,2.3-0.7,2.4,0.2c0.8-0.6,1.9-1.6,2.6-0.3
					c0.4,0.7,0,2.4-0.9,3.1c0.4,0.5,0,1.5-0.6,1.9c-1.5,1.2-3.2,0.4-4.5,0.9c-0.6,0.7-1,1.6-1.5,2.4c-0.1,0.2-0.2,0.4-0.3,0.5
					c-0.1,0.2-0.1,0.4-0.2,0.5c-0.3,0.4-0.7,0.6-1.2,0.4c-0.7-0.2-1.6-1.5-1.8-2.3c-0.3-1.4-0.6-2.3-0.2-3.5
					C50,57.3,52.5,56,53.5,56.6z"/>
			</g>
			<g>
				<path class="st22" d="M57.9,68c-1.2-0.4-3.2-1.2-5.1-2c-0.1,0-0.2-0.1-0.2-0.1s-1.9,3.7-4,10c-1.9,5.9-2.4,12.2-2.4,12.2
					s0.6,0,0.7,0c4.1-0.2,8.3-1.3,8.8-2c0-0.1,0.5-3,1.7-5.6c1.1-2.4,1.9-3.6,2.6-4.8C61.1,74,63.2,69.8,57.9,68z"/>
			</g>
			<g>
				<path class="st24" d="M51.5,64.1c-0.5-0.1-0.8-0.5-1.1-0.8c-0.3-0.4-0.6-0.8-0.7-1.2c-0.1-0.5-0.2-0.9-0.3-1.4
					c-0.1-0.5-0.2-0.9-0.2-1.4c0-0.5,0.2-1,0.5-1.4c0.3-0.4,0.7-0.7,1.1-0.9c0.4-0.3,0.9-0.5,1.3-0.6c0.5-0.1,1-0.2,1.6,0l-0.3,0
					c0.4-0.3,0.7-0.6,1.1-1l1.1-1c0.4-0.4,1-0.6,1.5-0.6c0.3,0,0.5,0,0.8,0.1c0.3,0.1,0.5,0.4,0.6,0.7l-0.2-0.1
					c0.4-0.3,0.8-0.6,1.3-0.8c0.3-0.1,0.5-0.1,0.8,0c0.3,0.1,0.4,0.4,0.5,0.6c-0.1-0.2-0.3-0.4-0.5-0.5c-0.2-0.1-0.5,0-0.7,0.1
					c-0.4,0.2-0.8,0.6-1.2,0.9c-0.1,0.1-0.2,0-0.2,0c0,0,0,0,0-0.1l0,0c-0.1-0.4-0.6-0.5-1-0.5c-0.5,0-0.9,0.2-1.2,0.5l-1,1.1
					c-0.4,0.4-0.7,0.7-1.1,1c-0.1,0.1-0.2,0.1-0.3,0l0,0c-0.3-0.1-0.8-0.1-1.2,0c-0.4,0.1-0.8,0.3-1.2,0.5c-0.4,0.2-0.7,0.5-1,0.8
					c-0.3,0.3-0.4,0.7-0.4,1.2c-0.1,0.9,0.2,1.8,0.3,2.7c0.1,0.4,0.3,0.8,0.6,1.2C50.8,63.6,51.1,63.9,51.5,64.1z"/>
			</g>
		</g>
	</g>
</g>
</svg>
