<?xml version="1.0" encoding="utf-8"?>
<!-- Generator: Adobe Illustrator 23.0.6, SVG Export Plug-In . SVG Version: 6.00 Build 0)  -->
<svg version="1.1" xmlns="http://www.w3.org/2000/svg" xmlns:xlink="http://www.w3.org/1999/xlink" x="0px" y="0px"
	 viewBox="0 0 202.1 347.3" style="enable-background:new 0 0 202.1 347.3;" xml:space="preserve">
<style type="text/css">
	.st0{fill:#FFFFFF;}
	.st1{fill:#E0ECF6;}
	.st2{fill:#8DBBDD;}
	.st3{fill:none;stroke:#3184C1;stroke-width:1.3621;stroke-linecap:round;stroke-linejoin:round;stroke-miterlimit:10;}
	.st4{fill:#A1C7E3;}
	.st5{fill:none;stroke:#8DBBDD;stroke-width:1.3621;stroke-linecap:round;stroke-linejoin:round;stroke-miterlimit:10;}
	.st6{fill:#3184C1;}
	.st7{fill:none;stroke:#0D6EB6;stroke-width:1.2244;stroke-linecap:round;stroke-linejoin:round;stroke-miterlimit:10;}
	.st8{fill:none;stroke:#8DBBDD;stroke-width:1.5702;stroke-linecap:round;stroke-linejoin:round;stroke-miterlimit:10;}
	.st9{opacity:0.3;}
	.st10{fill:#D6E6F3;}
	.st11{fill:#E9F2F8;}
	.st12{fill:#5A9DCE;}
	.st13{fill:none;stroke:#E9F2F8;stroke-miterlimit:10;}
	.st14{fill:#CCCCCC;}
	.st15{fill:#FF97A8;}
	.st16{fill:#FF5D7B;}
	.st17{fill:#08478E;}
	.st18{fill:#331239;}
	.st19{fill:#3B2B5B;}
	.st20{fill:#380A37;}
	.st21{fill:#B7CADE;}
	.st22{fill:#5E87B5;}
	.st23{fill:#295A6E;}
	.st24{fill:#3E7687;}
	.st25{fill:#F39734;}
	.st26{fill:none;}
	.st27{fill:#EF7F19;}
	.st28{fill:#FDCA49;}
	.st29{fill:#86B7DB;}
	.st30{fill:#FF97A6;}
	.st31{fill:#C95D77;}
	.st32{fill:#30193B;}
	.st33{fill:#FFCB48;}
	.st34{fill:#FF9A2E;}
	.st35{clip-path:url(#SVGID_2_);}
	.st36{fill:#0D6EB6;}
	.st37{clip-path:url(#SVGID_4_);}
	.st38{fill:#EFEFF6;}
	.st39{fill:#EF7F18;}
	.st40{fill:#4071A8;}
	.st41{fill:#0A498F;}
	.st42{fill:#3A7182;}
	.st43{fill:#E6E6E6;}
	.st44{fill:#FF9A19;}
	.st45{fill:#FFCB37;}
	.st46{opacity:0.1;}
	.st47{fill:#30183A;}
	.st48{fill:#F194A5;}
	.st49{fill:#C85D77;}
	.st50{fill:#BA2F7D;}
	.st51{fill:#B12384;}
	.st52{fill:#62BCD6;}
	.st53{fill:#BF7323;}
	.st54{fill:#80CAD5;}
	.st55{fill:#767579;}
	.st56{opacity:0.8;}
	.st57{fill:#9BCBE9;}
	.st58{fill:#3E275C;}
	.st59{fill:#406EB3;}
	.st60{fill:#DDD6FC;}
	.st61{fill:#EEEAFE;}
	.st62{fill:#7F65C1;}
	.st63{fill:none;stroke:#EEEAFE;stroke-width:0.5019;stroke-miterlimit:10;}
	.st64{fill:#EAE6FF;}
	.st65{fill:#D4EAF5;}
	.st66{fill:#A9CAE7;}
	.st67{fill:#ABC8E6;}
	.st68{fill:#D1C5FC;}
	.st69{fill:#CBB3FC;}
	.st70{fill:#CEAFF9;}
	.st71{fill:#FFC200;}
	.st72{fill:#E8853A;}
	.st73{fill:#5AC0F9;}
	.st74{fill:#53F9F4;}
	.st75{fill:#BF3904;}
	.st76{fill:#822302;}
	.st77{fill:#7964A8;}
	.st78{fill:#8865C4;}
	.st79{fill:#CCEAF5;}
	.st80{fill:#FFD67C;}
	.st81{fill:url(#SVGID_5_);}
	.st82{fill:url(#SVGID_6_);}
	.st83{fill:url(#SVGID_7_);}
	.st84{fill:url(#SVGID_8_);}
	.st85{fill:url(#SVGID_9_);}
	.st86{fill:url(#SVGID_10_);}
	.st87{fill:url(#SVGID_11_);}
	.st88{fill:#54565A;}
	.st89{fill:#9F79FF;}
	.st90{fill:#F2EEFF;}
	.st91{opacity:0.4;}
	.st92{fill:#E45D79;}
	.st93{fill:#FFE5AE;}
	.st94{fill:#FF97A7;}
	.st95{fill:#82CBEA;}
	.st96{fill:#BFEAF5;}
	.st97{fill:#8FD9ED;}
	.st98{fill:#43225D;}
	.st99{fill:#5C319A;}
	.st100{opacity:0.5;fill:url(#SVGID_12_);}
	.st101{fill:#632678;}
	.st102{fill:none;stroke:#FFFFFF;stroke-width:2;stroke-linecap:round;stroke-linejoin:round;stroke-miterlimit:10;}
	.st103{fill:none;stroke:#EEEAFE;stroke-miterlimit:10;}
	.st104{fill:#F98A8A;}
	.st105{fill:#AACBE8;}
	.st106{fill:#99B4DD;}
	.st107{fill:#6A54AF;}
	.st108{fill:#FD9E38;}
	.st109{fill:#DBCFFD;}
	.st110{fill:#B5B5B5;}
	.st111{fill:#80540A;}
	.st112{fill:#AD7121;}
	.st113{fill:#D5EAF5;}
	.st114{opacity:0.3;fill:#3B2B5B;}
	.st115{fill:#BAA4FF;}
	.st116{fill:#4E3E75;}
	.st117{fill:#D07BB5;}
	.st118{fill:#C14F9D;}
	.st119{fill:none;stroke:#000000;stroke-width:0.75;stroke-linecap:round;stroke-linejoin:round;stroke-miterlimit:10;}
	.st120{fill:#B3B3B3;}
	.st121{fill:#F2F2F2;}
	.st122{fill:#141414;}
	.st123{fill:#A3A3A3;}
	.st124{fill:#474747;}
	.st125{fill:#C7C7C7;}
	.st126{fill:#DBDBDB;}
</style>
<g id="Fondo">
</g>
<g id="Capa_7">
</g>
<g id="Contenido">
</g>
<g id="Footer">
</g>
<g id="Header">
</g>
<g id="Alertas">
</g>
<g id="Capa_2">
	<g>
		<g>
			
				<rect x="84.5" y="76.7" transform="matrix(-1 4.472943e-11 -4.472943e-11 -1 250.6081 196.8458)" class="st89" width="81.6" height="43.4"/>
		</g>
		<g>
			<g>
				
					<rect x="60.9" y="90.6" transform="matrix(-1 4.467792e-11 -4.467792e-11 -1 199.159 184.2955)" class="st90" width="77.4" height="3"/>
			</g>
			<g>
				
					<rect x="74.4" y="96.6" transform="matrix(-1 4.493194e-11 -4.493194e-11 -1 212.7332 196.3085)" class="st90" width="63.9" height="3"/>
			</g>
			<g>
				
					<rect x="92.8" y="102.6" transform="matrix(-1 4.506960e-11 -4.506960e-11 -1 231.1106 208.1557)" class="st90" width="45.5" height="3"/>
			</g>
		</g>
		<g class="st91">
			<polygon class="st0" points="97.5,113.9 191.8,113.9 191.8,165.1 177.2,146.5 97.5,146.5 			"/>
		</g>
		<g>
			<g>
				<path class="st19" d="M63.3,93.8c1.2,1.2,2.3,2.4,3.3,3.8c5.8,8.1,7.3,19.1,4,28.5c-1.5,4.2-3.9,7.8-7,11
					c8.2-6.1,12.9-15.8,10.9-26.7c-2.4-13.1-13.9-28-28.3-27.7c-0.3,0-0.3-0.5,0-0.5c13.3-0.5,24.4,11.6,28.4,23.4
					c4.6,13.6-0.5,27.3-12.8,34.6c-1.7,1-3.4,1.9-5.2,2.6c0.1,0.5,0.3,1,0.4,1.5c1,3.3,2.4,6.5,3.6,9.8c0.3,0.8-0.9,1.5-1.5,0.9
					c0-0.1-0.1-0.1-0.1-0.2c-0.2,0-0.5-0.1-0.7-0.2c-3-2.5-5.8-5.4-8.2-8.7c-11.6,4.5-25.2,3.7-34.7-4.4
					C-19.3,112,33.7,64.6,63.3,93.8z"/>
				<g>
					<path class="st33" d="M57.7,118.4c0-0.8-0.4-1.4-0.5-2.2c-0.2-1.6,1.6-2.5,0.8-4.2c-0.5-1.1-1.7-1.9-2.9-2.1
						c-2-0.3-3.9,0.4-5.9,0.5c-1.1,0-2.2-0.1-3.2-0.5c-0.5-0.2-1.1-0.3-1.4-0.7c-0.6-0.6,1.4-5.6-1.1-8.2c-0.9-1-3.1-1.3-4.4-0.8
						c-1.4,0.5-1.7,1.9-1.4,3.3c0.4,2.4,0,7.4-0.6,9.8c-6.5-0.2-5.1,2.3-5.8,5c-0.4,1.5-0.3,3.1,0.3,4.5c0.7,1.6,1.7,1.8,3.3,2
						c4.3,0.6,8.7,1,13.1,1.2c2,0.1,4.1,0.3,6.2,0.1c1-0.1,2.3-0.3,2.9-1.2c0.3-0.4,0.4-0.9,0.4-1.3c-0.1-1.1-0.5-1.9-0.1-3
						C57.4,119.8,57.7,119.1,57.7,118.4z"/>
					<path class="st34" d="M41.4,103.3c0.2,1.7,0.1,3.6-0.1,5.5c1,0,2.1,0,3.1,0c-0.1-1.2,1.3-5.5-1-7.9c-0.6-0.7-1.8-1-3-1
						C41.1,101,41.3,102.2,41.4,103.3z"/>
					<path class="st34" d="M57.7,118.4c0-0.8-0.4-1.4-0.5-2.2c-0.2-1.6,1.6-2.5,0.8-4.2c-0.5-1.1-1.7-1.9-2.9-2.1
						c-1.6-0.3-3.3,0.2-4.9,0.4c0.1,0,0.2,0.1,0.2,0.1c3,1.5,4.2,3.9,3.7,6.4c1.5,2.8,1,6.5-0.9,9.3c0.3,0,0.5,0,0.8,0
						c1-0.1,2.3-0.3,2.9-1.2c0.3-0.4,0.4-0.9,0.4-1.3c-0.1-1.1-0.5-1.9-0.1-3C57.4,119.8,57.7,119.1,57.7,118.4z"/>
					<path class="st105" d="M34.2,124.7c-1.6,1.4-3.7-0.2-4.7-1.6c-0.9-1.3-1.2-3-1.1-4.6c0.1-1.5,0.3-3.4,1.4-4.6
						c0.5-0.5,1.2-0.9,1.9-1.1c0.5-0.2,2.2-0.4,2.4,0.4c0.1,0.3,0.6,0.2,0.5-0.1c-0.2-0.7-0.9-0.9-1.7-0.9c0,0,0,0,0,0
						c-1.6-0.1-3.2-0.2-4.8-0.3c-1.2-0.1-2.6-0.2-3.7,0.5c-1.8,1-2.2,3.2-2.4,5.1c-0.2,2.2-0.1,5.4,1.7,7c0.8,0.7,1.9,0.7,2.9,0.8
						c1.8,0.2,3.6,0.3,5.4,0.4c0,0,0.1,0,0.1,0c0.8,0.2,1.6,0,2.3-0.6C34.8,124.8,34.5,124.5,34.2,124.7z"/>
					<path class="st113" d="M27.3,111.9c-1,0-2,0-2.8,0.5c-1.8,1-2.2,3.2-2.4,5.1c-0.2,2.2-0.1,5.4,1.7,7c0.3,0.2,0.6,0.4,1,0.5
						C24.2,120.6,24.9,115.4,27.3,111.9z"/>
				</g>
				<path class="st19" d="M2,114.1c0.1-0.4,0.7-0.3,0.7,0.1c0.3,9.3,2.7,16.7,8.4,24.1c0.3,0.4-0.2,0.8-0.5,0.5
					C4.1,132.8,0.6,122.8,2,114.1z"/>
			</g>
			<ellipse class="st114" cx="97" cy="318.7" rx="65.6" ry="6.7"/>
			<g>
				<g>
					
						<rect x="85.1" y="187.2" transform="matrix(0.9812 -0.1928 0.1928 0.9812 -39.6099 20.813)" class="st105" width="4.2" height="53.6"/>
					
						<rect x="132.6" y="187.2" transform="matrix(-0.9813 -0.1927 0.1927 -0.9813 225.562 449.8953)" class="st105" width="4.2" height="53.6"/>
					
						<rect x="60.8" y="239.3" transform="matrix(-0.9813 -0.1927 0.1927 -0.9813 70.8885 564.709)" class="st105" width="4.2" height="79.1"/>
					<path class="st34" d="M73,190.9L73,190.9c-2.8-13.7,9.3-25.8,22.9-22.9l12.5,2.6c2.6,0.5,5.3,0.5,7.9,0l9.9-2.1
						c14.2-2.9,26.3,10.4,22.1,24.3l0,0c-2.7,8.7-10.7,14.6-19.7,14.6H93.2C83.4,207.4,75,200.5,73,190.9z"/>
					
						<rect x="131.6" y="239.3" transform="matrix(0.9812 -0.1928 0.1928 0.9812 -51.2537 30.9898)" class="st105" width="4.2" height="79.1"/>
					<path class="st34" d="M131.1,243.3H65.5c-2,0-3.6-1.6-3.6-3.6l0,0c0-2,1.6-3.6,3.6-3.6h65.6c2,0,3.6,1.6,3.6,3.6l0,0
						C134.7,241.7,133,243.3,131.1,243.3z"/>
				</g>
				<path class="st19" d="M91.7,145.6c0,0-7-1.7-8.9-6.4c-1.9-4.7,3.4-10.8,9.8-11.4c6.4-0.6,15.4,0.6,17.2,9
					c1.8,8.4-8,11.9-11.9,11.8C93.9,148.5,91.7,145.6,91.7,145.6z"/>
				<path class="st115" d="M108,137.6c-1.8-8.4-10.8-9.6-17.2-9c-1,0.1-1.9,0.3-2.8,0.6c1.4-0.8,3-1.3,4.6-1.4
					c6.4-0.6,15.4,0.6,17.2,9c1.2,5.8-3,9.3-7.1,10.8C106.1,145.8,109,142.6,108,137.6z"/>
				<path class="st32" d="M72,159.8c0,0-11.7,5.3-21,26.8S68,214,76.8,210.9C85.5,207.8,72,159.8,72,159.8z"/>
				<path class="st19" d="M122.6,165.8c5.7,9.5-6.3,38.1-6.1,40.5c-7.2,3.2-39,1-42.7-0.7c0-0.1-1.9-10.1-3.4-21.2
					c-1.5-11.6-4.2-22.2,1.5-24.6C98.8,148.6,118.6,159,122.6,165.8z"/>
				<g>
					<path class="st32" d="M72,159.8c6.6-2.7,12.7-4.2,18.3-4.7c-0.7,3.6-2.3,14.2-2.8,32.7c-0.2,6.3-0.4,13.1-0.8,19.6
						c-6.4-0.5-11.5-1.2-12.9-1.8c0-0.1-1.9-10.1-3.4-21.2C68.9,172.7,66.3,162.2,72,159.8z"/>
				</g>
				<g>
					<path class="st32" d="M91.7,145.6c0,0-7-1.7-8.9-6.4c-1.9-4.7,3.4-10.8,9.8-11.4c0.8-0.1,1.6-0.1,2.4-0.1c-1.6,2-4,5.4-3.4,7.4
						c0.8,3,7.4,2.3,9.1,4.4c1.4,1.7,2.2,5.2-0.3,8.8c-1,0.2-1.9,0.3-2.5,0.3C93.9,148.5,91.7,145.6,91.7,145.6z"/>
				</g>
				<g>
					<path class="st30" d="M99.5,149.9c0,0,1,8.2,0.1,9c-0.9,0.8-4,1.7-5.6-0.5c-1.6-2.2,0.8-9,0.8-9L99.5,149.9z"/>
					<path class="st31" d="M100,155.8c-1.9,0.5-4.4,0.6-6.5-0.3c0.1-1.5,0.4-3.1,0.8-4.3l5.4,0.5C99.8,152.9,100,154.5,100,155.8z"
						/>
				</g>
				<path class="st30" d="M90.8,142.5c2-3,8.8-2.1,10-1.3c1.3,0.9,1.4,2.7,1.4,4.1c0.1,1.4-0.9,7.4-5.3,8.3
					C88.5,155.2,90.8,142.5,90.8,142.5z"/>
				<g>
					<g>
						<path class="st19" d="M41.7,347.3c1.7,0.3,5.8-7.3,6.4-9.7c-0.5,0.8-1.5,1.9-2.2,1c-1-1.4-0.4-4.6,1.1-5.9
							c-1.3-0.1-3,0.1-4.2,0.3C41.3,333.3,37.8,346.6,41.7,347.3z"/>
					</g>
					<g>
						<path class="st30" d="M44.8,340.6c0.7,1,2.6-1.8,3.1-2.6c0.9-2,1-2.5,1.1-2.7c0.3-0.7,1.2-1.1,1.2-1.1l0-1.2
							c0,0-0.9,0.5-2.2,0c-0.3-0.1-0.6-0.2-1-0.2C45.5,334,43.9,339.2,44.8,340.6z"/>
					</g>
				</g>
				<g>
					<g>
						<g>
							<path class="st32" d="M26.4,333.1c-0.6-1.5,5.7-7.2,7.8-8.2c-0.6,0.6-1.5,1.8-0.5,2.3c1.5,0.6,4.4-0.5,5.4-2.1
								c0.4,1.2,0.5,2.9,0.5,4C39.7,330.5,27.8,336.7,26.4,333.1z"/>
						</g>
						<path class="st31" d="M34,325.1c1.7-1.3,2.5-1.6,2.8-1.8c-0.1-0.7-0.2-1.6-0.3-2.5l2.1-0.4c0,2.9,0.2,3.6,0.2,3.6
							c0.2,0.2,0.3,0.6,0.4,0.9c-0.9,1.6-5.5,4.2-7,3.5C31.1,328.1,33.3,325.7,34,325.1z"/>
					</g>
					<path class="st105" d="M39.6,322.7c0,0,5.9-46.1,5.5-61.2c-0.1-4-1.5-13.1-1.5-13.1s21.5,3.5,37.1-2.8
						c14.8-5.9,20.6-16.4,17.1-33.8c-12.7,0.3-18.7-3.8-27,0c-20.3,4.3-46.8,3.6-50.4,24.6c-2,11.7,15.5,86.4,15.5,86.4H39.6z"/>
				</g>
				<g>
					<path class="st113" d="M66.4,200.5l5.1-0.7c3.5-0.5,6-3.8,5.5-7.3L75.1,180c-0.5-3.5-3.8-6-7.3-5.5l-5.1,0.7
						c-3.5,0.5-6,3.8-5.5,7.3l1.8,12.5C59.6,198.5,62.8,201,66.4,200.5z"/>
					<path class="st105" d="M65.1,184.1c0.1,0.8,0.9,1.4,1.7,1.3c0.8-0.1,1.4-0.9,1.3-1.7c-0.1-0.8-0.9-1.4-1.7-1.3
						C65.5,182.5,64.9,183.2,65.1,184.1z"/>
				</g>
				<path class="st0" d="M90.5,147.9c1.3,0.2,2.6-0.6,2.8-1.9c0-0.2,0-0.5,0-0.7c0,0,0,0,0.1,0c0.7-0.7,2.2-0.4,2.7,0.4
					c0,0,0,0.1,0.1,0.1c0.2,1.1,1,2,2.1,2.2c1.3,0.2,2.6-0.6,2.8-1.9c0.2-1.2-0.4-2.3-1.5-2.7c0,0-0.1-0.1-0.1-0.1
					c-1.3-0.2-3.1,0.3-3.3,1.8c0,0,0,0,0,0.1c-0.7-0.7-2.1-0.9-2.9-0.3c-0.2-0.7-0.7-1.3-1.5-1.6c0,0-0.1-0.1-0.1-0.1
					c-1.3-0.2-3.1,0.3-3.3,1.8C88.2,146.4,89.2,147.7,90.5,147.9z M96.5,145.4c0-1.3,1.5-1.9,2.6-1.8c0,0,0,0,0.1,0
					c2.5,0.6,1.6,4.2-0.8,3.9C97.4,147.5,96.5,146.4,96.5,145.4z M88.7,145.4c0-1.3,1.5-1.9,2.6-1.8c0,0,0,0,0.1,0
					c2.5,0.6,1.6,4.2-0.8,3.9C89.6,147.4,88.7,146.4,88.7,145.4z"/>
				<g>
					<path class="st105" d="M113.7,209.3c2.7,1,5,2.6,6.6,5.1c7.4,11.5-4.5,50.2-11.1,61.9c-15.6,27.8-57.8,58.9-57.8,58.9l-2.7-1.5
						c8.7-9.1,35.1-36.8,48-52.6C108.8,266.4,112.6,226.6,113.7,209.3z"/>
					<path class="st113" d="M75.7,269.7c4.5-12.9,14.6-59.6,14.6-59.6s13.8-4.4,23.4-0.8c-1.1,17.4-4.8,57.1-16.9,71.9
						c-12.9,15.8-39.3,43.6-48,52.6l-2.9-1.6C45.8,332.2,69.5,287.6,75.7,269.7z"/>
				</g>
				<path class="st116" d="M126.4,214.3C112,229.2,87,221.5,75.9,212c-6.7-5.7,1.2-16.7,1.2-16.7l37.3,7.8c0,0-4.8-33.6-0.1-37.6
					c3.5-3,6.1-2,8.6-0.1C130.4,171.2,133.4,207,126.4,214.3z"/>
				<path class="st30" d="M58,198.3c0,0-2.2-4.2-1-5.2c1.2-1,3.1-2.8,3.7-2.4c0.6,0.4-0.9,1.6-0.9,1.6s1.7-0.1,2-0.1
					c0.3,0.1-0.3,0.9-0.3,0.9s0.5-0.1,0.8,0.4c0.3,0.5-1.1,0.7-1.6,1.3c-0.4,0.6-0.1,3.2-1,4.4C59.5,199.7,58.5,199.4,58,198.3z"/>
				<path class="st30" d="M78.3,195.3c0,0,0.9-4.6-0.5-5.3c-1.4-0.7-3.8-1.8-4.2-1.2c-0.4,0.5,1.3,1.3,1.3,1.3s-1.7,0.3-1.9,0.5
					c-0.3,0.2,0.5,0.8,0.5,0.8s-0.5,0-0.7,0.6c-0.2,0.6,1.3,0.4,1.9,0.8c0.6,0.4,1,3.1,2.2,4C77.2,197.2,78.1,196.6,78.3,195.3z"/>
			</g>
		</g>
		<g>
			<path class="st89" d="M39.8,176.1c-0.1-2.5-1.4-4.5-3.8-5.4c-1.1-0.4-2.2-0.5-3.4-0.8c-0.4-0.1-0.5-0.2-0.5-0.6
				c0-1.6,0-3.1,0-4.7c0-0.1,0-0.3,0.1-0.4c1.6,0.1,2.9,0.5,4.1,1.5c1-0.9,1.9-1.8,2.9-2.8c-1.7-1.6-3.8-2.4-6-2.6
				c-0.5,0-0.6-0.2-0.6-0.6c0-0.6,0-1.3,0-1.9c0-0.1-0.2-0.4-0.3-0.4c-1,0-2,0-3,0c0,1,0,1.9,0,2.9c-0.3,0.1-0.5,0.1-0.7,0.1
				c-1.8,0.3-3.4,1-4.6,2.3c-1.3,1.5-1.7,3.2-1.6,5.1c0.1,2,1.1,3.6,2.9,4.6c1.2,0.7,2.6,1,4,1.1c0.4,0,0.5,0.2,0.5,0.6
				c0,1.6,0,3.2,0,4.9c0,0.2,0,0.3,0,0.5c-2-0.1-3.8-0.6-5.3-1.9c-1,1-2,1.9-3,2.8c0.2,0.2,0.3,0.3,0.5,0.5c1.9,1.7,4.2,2.4,6.7,2.5
				c0.7,0,0.7,0,0.7,0.7c0,0.9,0,1.9,0,2.7c0.1,0,0.1,0.1,0.2,0.1c0.8,0,1.7,0,2.5,0c0.7,0,0.7,0,0.7-0.7c0-1,0-1.9,0-2.9
				c0.5-0.1,0.9-0.2,1.4-0.3C37,182.6,40,180.5,39.8,176.1z M29.6,169.6c-1.2,0.1-2.9-0.8-2.9-2.3c-0.1-1.6,1.2-2.9,2.9-3
				C29.6,166.1,29.6,167.8,29.6,169.6z M32.1,179.5c0-1.8,0-3.6,0-5.4c1.8-0.1,3.1,1,3.1,2.6C35.3,178.4,33.9,179.6,32.1,179.5z"/>
		</g>
		<g>
			<g>
				<g>
					<path class="st0" d="M1.3,39.8C0,41.2-0.3,43.3,0.3,45l51.2-0.9c1.4-2.3,0.4-5.7-2-6.9c-2.4-1.2-5.7,0.2-6.6,2.8
						c0.2-3.8-0.4-7.7-2.1-11.1c-1.7-3.4-4.7-6.3-8.3-7.5c-3.6-1.2-7.9-0.4-10.7,2.2c-3.3,3.2-3.8,8.1-4.1,12.6
						c-1.2-2.2-3.9-3.5-6.4-3.1c-2.5,0.4-4.6,2.5-5,5C4.6,37.7,2.5,38.4,1.3,39.8z"/>
				</g>
			</g>
		</g>
		<g>
			<g>
				<g>
					<path class="st0" d="M163.9,16.7c-2.9,1-4.8,4-4.5,7.1c0,0,0,0.1,0,0.1c0,0.4-0.6,0.4-0.6,0.1c0,0,0-0.1,0-0.1
						c-1.2-4.9-1.3-11.7-6.5-14.4c-2.4-1.2-5.2-0.9-7,1.2c-2,2.3-2.2,5.4-2.4,8.3c0,0.3-0.4,0.5-0.6,0.2c0,0-0.1-0.1-0.1-0.1
						c-0.9-1.3-3-1.1-4.1-0.1c-1.4,1.2-1.6,3.3-1.7,5c0,0.2-0.1,0.3-0.3,0.3c-2.5-0.3-4.9,1.8-4.8,4.4c0,0.1,0,0.1,0,0.2
						c4.4-0.2,8.8-0.1,13.1-0.1c4.7,0,9.3,0,14,0c9.3,0,18.7,0,28,0c5.2,0,10.4-0.2,15.5,0.1c1.3-3.6-2.4-7.1-5.9-5.1
						c-0.2,0.1-0.5-0.1-0.4-0.3c0-0.1,0-0.1,0.1-0.2c2-6,1.3-12.8-2.1-18.2c-1.6-2.5-4.2-5.2-7.5-5.1c-3.1,0.1-5.3,2.9-6.3,5.7
						c-1.4,3.8-0.8,8.2-1.3,12.2c-0.1,0.4-0.6,0.4-0.6,0c0-1.5-1.7-2.5-3.1-2.1c-1.4,0.4-2.2,2-2.3,3.4c0,0.1,0,0.1,0,0.2
						c0,0.3-0.4,0.4-0.6,0.2C170,17,166.7,15.7,163.9,16.7z"/>
				</g>
			</g>
		</g>
	</g>
</g>
</svg>
