<?xml version="1.0" encoding="utf-8"?>
<!-- Generator: Adobe Illustrator 23.0.6, SVG Export Plug-In . SVG Version: 6.00 Build 0)  -->
<svg version="1.1" xmlns="http://www.w3.org/2000/svg" xmlns:xlink="http://www.w3.org/1999/xlink" x="0px" y="0px"
	 viewBox="0 0 581.9 396.7" style="enable-background:new 0 0 581.9 396.7;" xml:space="preserve">
<style type="text/css">
	.st0{fill:#FFFFFF;}
	.st1{fill:#E0ECF6;}
	.st2{fill:#8DBBDD;}
	.st3{fill:none;stroke:#3184C1;stroke-width:1.3621;stroke-linecap:round;stroke-linejoin:round;stroke-miterlimit:10;}
	.st4{fill:#A1C7E3;}
	.st5{fill:none;stroke:#8DBBDD;stroke-width:1.3621;stroke-linecap:round;stroke-linejoin:round;stroke-miterlimit:10;}
	.st6{fill:#3184C1;}
	.st7{fill:none;stroke:#0D6EB6;stroke-width:1.2244;stroke-linecap:round;stroke-linejoin:round;stroke-miterlimit:10;}
	.st8{fill:none;stroke:#8DBBDD;stroke-width:1.5702;stroke-linecap:round;stroke-linejoin:round;stroke-miterlimit:10;}
	.st9{opacity:0.3;}
	.st10{fill:#D6E6F3;}
	.st11{fill:#E9F2F8;}
	.st12{fill:#5A9DCE;}
	.st13{fill:none;stroke:#E9F2F8;stroke-miterlimit:10;}
	.st14{fill:#CCCCCC;}
	.st15{fill:#FF97A8;}
	.st16{fill:#FF5D7B;}
	.st17{fill:#08478E;}
	.st18{fill:#331239;}
	.st19{fill:#3B2B5B;}
	.st20{fill:#380A37;}
	.st21{fill:#B7CADE;}
	.st22{fill:#5E87B5;}
	.st23{fill:#295A6E;}
	.st24{fill:#3E7687;}
	.st25{fill:#F39734;}
	.st26{fill:none;}
	.st27{fill:#EF7F19;}
	.st28{fill:#FDCA49;}
	.st29{fill:#86B7DB;}
	.st30{fill:#FF97A6;}
	.st31{fill:#C95D77;}
	.st32{fill:#30193B;}
	.st33{fill:#FFCB48;}
	.st34{fill:#FF9A2E;}
	.st35{clip-path:url(#SVGID_2_);}
	.st36{fill:#0D6EB6;}
	.st37{clip-path:url(#SVGID_4_);}
	.st38{fill:#EFEFF6;}
	.st39{fill:#EF7F18;}
	.st40{fill:#4071A8;}
	.st41{fill:#0A498F;}
	.st42{fill:#3A7182;}
	.st43{fill:#E6E6E6;}
	.st44{fill:#FF9A19;}
	.st45{fill:#FFCB37;}
	.st46{opacity:0.1;}
	.st47{fill:#30183A;}
	.st48{fill:#F194A5;}
	.st49{fill:#C85D77;}
	.st50{fill:#BA2F7D;}
	.st51{fill:#B12384;}
	.st52{fill:#62BCD6;}
	.st53{fill:#BF7323;}
	.st54{fill:#80CAD5;}
	.st55{fill:#767579;}
	.st56{opacity:0.8;}
	.st57{fill:#9BCBE9;}
	.st58{fill:#3E275C;}
	.st59{fill:#406EB3;}
	.st60{fill:#DDD6FC;}
	.st61{fill:#EEEAFE;}
	.st62{fill:#7F65C1;}
	.st63{fill:none;stroke:#EEEAFE;stroke-width:0.5019;stroke-miterlimit:10;}
	.st64{fill:#EAE6FF;}
	.st65{fill:#D4EAF5;}
	.st66{fill:#A9CAE7;}
	.st67{fill:#ABC8E6;}
	.st68{fill:#D1C5FC;}
	.st69{fill:#CBB3FC;}
	.st70{fill:#CEAFF9;}
	.st71{fill:#FFC200;}
	.st72{fill:#E8853A;}
	.st73{fill:#5AC0F9;}
	.st74{fill:#53F9F4;}
	.st75{fill:#BF3904;}
	.st76{fill:#822302;}
	.st77{fill:#7964A8;}
	.st78{fill:#8865C4;}
	.st79{fill:#CCEAF5;}
	.st80{fill:#FFD67C;}
	.st81{fill:url(#SVGID_5_);}
	.st82{fill:url(#SVGID_6_);}
	.st83{fill:url(#SVGID_7_);}
	.st84{fill:url(#SVGID_8_);}
	.st85{fill:url(#SVGID_9_);}
	.st86{fill:url(#SVGID_10_);}
	.st87{fill:url(#SVGID_11_);}
	.st88{fill:#54565A;}
	.st89{fill:#9F79FF;}
	.st90{fill:#F2EEFF;}
	.st91{opacity:0.4;}
	.st92{fill:#E45D79;}
	.st93{fill:#FFE5AE;}
	.st94{fill:#FF97A7;}
	.st95{fill:#82CBEA;}
	.st96{fill:#BFEAF5;}
	.st97{fill:#8FD9ED;}
	.st98{fill:#43225D;}
	.st99{fill:#5C319A;}
	.st100{opacity:0.5;fill:url(#SVGID_12_);}
	.st101{fill:#632678;}
	.st102{fill:none;stroke:#FFFFFF;stroke-width:2;stroke-linecap:round;stroke-linejoin:round;stroke-miterlimit:10;}
	.st103{fill:none;stroke:#EEEAFE;stroke-miterlimit:10;}
	.st104{fill:#F98A8A;}
	.st105{fill:#AACBE8;}
	.st106{fill:#99B4DD;}
	.st107{fill:#6A54AF;}
	.st108{fill:#FD9E38;}
	.st109{fill:#DBCFFD;}
	.st110{fill:#B5B5B5;}
	.st111{fill:#80540A;}
	.st112{fill:#AD7121;}
	.st113{fill:#D5EAF5;}
	.st114{opacity:0.3;fill:#3B2B5B;}
	.st115{fill:#BAA4FF;}
	.st116{fill:#4E3E75;}
	.st117{fill:#D07BB5;}
	.st118{fill:#C14F9D;}
	.st119{fill:none;stroke:#000000;stroke-width:0.75;stroke-linecap:round;stroke-linejoin:round;stroke-miterlimit:10;}
	.st120{fill:#B3B3B3;}
	.st121{fill:#F2F2F2;}
	.st122{fill:#141414;}
	.st123{fill:#A3A3A3;}
	.st124{fill:#474747;}
	.st125{fill:#C7C7C7;}
	.st126{fill:#DBDBDB;}
</style>
<g id="Fondo">
</g>
<g id="Capa_7">
</g>
<g id="Contenido">
</g>
<g id="Footer">
</g>
<g id="Header">
</g>
<g id="Alertas">
</g>
<g id="Capa_2">
	<g>
		<g>
			<g>
				<g class="st9">
					<g>
						<g>
							<g class="st56">
								
									<rect x="334" y="97.6" transform="matrix(-1 4.495192e-11 -4.495192e-11 -1 851.2039 292.6531)" class="st0" width="183.2" height="97.4"/>
							</g>
							<g>
								<g class="st56">
									<polygon class="st0" points="321.3,41.4 435.2,41.4 435.2,91.3 420.9,71.5 321.3,71.5 									"/>
								</g>
								<g>
									<rect x="325.7" y="50.8" class="st51" width="103.4" height="5.3"/>
								</g>
								<g>
									<rect x="325.7" y="60.7" class="st51" width="19.7" height="5.3"/>
								</g>
								<g>
									<rect x="353" y="60.7" class="st51" width="19.7" height="5.3"/>
								</g>
								<g>
									<rect x="380.8" y="60.7" class="st51" width="38.8" height="5.3"/>
								</g>
							</g>
							<g>
								<g>
									<path class="st57" d="M481.3,134.7c-2.1-2.2-5-3.6-8.3-3.6c-2.6,0-4.9,0.9-6.8,2.3l-9.6-13.2c4.6-3.4,10.3-5.4,16.4-5.4
										c7.9,0,15,3.3,20,8.6L481.3,134.7z"/>
								</g>
								<g>
									<path class="st58" d="M484.3,143.8c0-0.4,0.1-0.8,0.1-1.3c0-2.2-0.6-4.2-1.7-5.9l11.9-11.4c3.8,4.7,6.1,10.8,6.1,17.3
										c0,0.4,0,0.9,0,1.3H484.3z"/>
								</g>
								<g>
									<path class="st57" d="M476.4,153.4c3.5-1.1,6.2-3.8,7.4-7.2h16.7c-1.5,11.6-10.2,20.9-21.4,23.4L476.4,153.4z"/>
									<path class="st0" d="M478.9,169.6C478.9,169.6,478.9,169.6,478.9,169.6l-2.7-16.2c0-0.1,0-0.1,0.1-0.1
										c3.4-1.1,6.2-3.8,7.3-7.2c0,0,0.1-0.1,0.1-0.1h16.7c0,0,0.1,0,0.1,0c0,0,0,0.1,0,0.1C499,157.7,490.4,167.1,478.9,169.6
										C479,169.6,479,169.6,478.9,169.6C479,169.6,479,169.6,478.9,169.6z M483.9,146.3c-1.2,3.4-3.9,6.1-7.3,7.2l2.6,15.9
										c11.2-2.5,19.7-11.8,21.2-23.1H483.9z"/>
								</g>
								<g>
									<path class="st59" d="M454.7,121.8l9.7,13.3c-1.8,2-2.8,4.6-2.8,7.5c0,6.3,5.1,11.4,11.4,11.4c0.4,0,0.7,0,1.1-0.1
										l2.6,16.1c-1.2,0.2-2.4,0.3-3.7,0.3c-15.3,0-27.7-12.4-27.7-27.7C445.3,134.3,449,126.8,454.7,121.8z"/>
								</g>
							</g>
							<g>
								<g>
									<path class="st57" d="M378.5,138.2c-2.5,1.7-4.3,4.4-4.7,7.6c-0.4,2.5,0.1,5,1.3,7.1l-14.4,7.6c-2.7-5-3.9-11-3-17.1
										c1.2-7.8,5.5-14.3,11.5-18.6L378.5,138.2z"/>
								</g>
								<g>
									<path class="st58" d="M387.9,136.5c-0.4-0.1-0.8-0.2-1.3-0.3c-2.2-0.3-4.2,0-6.1,0.8l-9.5-13.4c5.2-3.1,11.5-4.5,18-3.5
										c0.4,0.1,0.8,0.1,1.3,0.2L387.9,136.5z"/>
								</g>
								<g>
									<path class="st57" d="M396.2,145.8c-0.6-3.6-2.8-6.7-6.1-8.4l2.4-16.5c11.2,3.2,19.2,13.1,20,24.6L396.2,145.8z"/>
									<path class="st0" d="M412.7,145.6C412.6,145.6,412.6,145.7,412.7,145.6l-16.4,0.3c-0.1,0-0.1,0-0.1-0.1
										c-0.6-3.5-2.8-6.6-6-8.3c0,0-0.1-0.1-0.1-0.1l2.4-16.5c0,0,0-0.1,0.1-0.1c0,0,0.1,0,0.1,0
										C403.8,124,411.9,133.9,412.7,145.6C412.7,145.5,412.7,145.5,412.7,145.6C412.7,145.6,412.7,145.6,412.7,145.6z
										 M390.3,137.3c3.2,1.7,5.5,4.8,6.1,8.3l16.1-0.2c-0.9-11.4-8.8-21.2-19.8-24.3L390.3,137.3z"/>
								</g>
								<g>
									<path class="st59" d="M361.8,162.5l14.6-7.7c1.7,2,4.2,3.5,7,3.9c6.2,0.9,12-3.4,12.9-9.6c0.1-0.4,0.1-0.7,0.1-1.1
										l16.3-0.2c0,1.2-0.1,2.5-0.3,3.7c-2.2,15.1-16.3,25.6-31.4,23.3C372.8,173.7,365.9,169,361.8,162.5z"/>
								</g>
							</g>
							<g>
								<g class="st56">
									<polygon class="st0" points="530.7,222.1 380.6,222.1 380.6,288.7 399.4,264.6 530.7,264.6 									"/>
								</g>
								<g>
									<g>
										<rect x="387.4" y="229.2" class="st51" width="135.2" height="5.3"/>
									</g>
									<g>
										<rect x="387.4" y="239.7" class="st51" width="111.5" height="5.3"/>
									</g>
									<g>
										<rect x="387.4" y="250" class="st51" width="79.4" height="5.3"/>
									</g>
								</g>
							</g>
						</g>
					</g>
					<g>
						<g>
							<g>
								<path class="st60" d="M260.3,67.5v149c0,10.6-8.6,19.3-19.3,19.3h-97.1c-10.6,0-19.3-8.6-19.3-19.3v-149
									c0-10.6,8.6-19.3,19.3-19.3H241C251.7,48.2,260.3,56.8,260.3,67.5z"/>
								<path class="st61" d="M249.7,66.7v150.5c0,4.2-3.4,7.5-7.5,7.5h-99.3c-4.2,0-7.5-3.4-7.5-7.5V66.7c0-4.2,3.4-7.5,7.5-7.5
									h99.3C246.3,59.2,249.7,62.5,249.7,66.7z"/>
								<path class="st62" d="M242.8,73.3v20.1c0,1.4-1.1,2.5-2.5,2.5h-95.6c-1.4,0-2.5-1.1-2.5-2.5V73.3c0-1.4,1.1-2.5,2.5-2.5
									h95.6C241.7,70.8,242.8,71.9,242.8,73.3z"/>
								<path class="st60" d="M162.1,114.3v16.8c0,1.2-0.9,2.1-2.1,2.1h-15.8c-1.2,0-2.1-0.9-2.1-2.1v-16.8c0-1.2,0.9-2.1,2.1-2.1
									H160C161.2,112.2,162.1,113.2,162.1,114.3z"/>
								<path class="st60" d="M189,114.3v16.8c0,1.2-0.9,2.1-2.1,2.1h-15.8c-1.2,0-2.1-0.9-2.1-2.1v-16.8c0-1.2,0.9-2.1,2.1-2.1
									h15.8C188.1,112.2,189,113.2,189,114.3z"/>
								<path class="st60" d="M215.9,114.3v16.8c0,1.2-0.9,2.1-2.1,2.1H198c-1.2,0-2.1-0.9-2.1-2.1v-16.8c0-1.2,0.9-2.1,2.1-2.1
									h15.8C215,112.2,215.9,113.2,215.9,114.3z"/>
								<path class="st60" d="M242.8,114.3v16.8c0,1.2-0.9,2.1-2.1,2.1h-15.8c-1.2,0-2.1-0.9-2.1-2.1v-16.8c0-1.2,0.9-2.1,2.1-2.1
									h15.8C241.8,112.2,242.8,113.2,242.8,114.3z"/>
								<path class="st60" d="M162.1,141.3v16.8c0,1.2-0.9,2.1-2.1,2.1h-15.8c-1.2,0-2.1-0.9-2.1-2.1v-16.8c0-1.2,0.9-2.1,2.1-2.1
									H160C161.2,139.3,162.1,140.2,162.1,141.3z"/>
								<path class="st60" d="M189,141.3v16.8c0,1.2-0.9,2.1-2.1,2.1h-15.8c-1.2,0-2.1-0.9-2.1-2.1v-16.8c0-1.2,0.9-2.1,2.1-2.1
									h15.8C188.1,139.3,189,140.2,189,141.3z"/>
								<path class="st60" d="M215.9,141.3v16.8c0,1.2-0.9,2.1-2.1,2.1H198c-1.2,0-2.1-0.9-2.1-2.1v-16.8c0-1.2,0.9-2.1,2.1-2.1
									h15.8C215,139.3,215.9,140.2,215.9,141.3z"/>
								<path class="st60" d="M242.8,141.3v16.8c0,1.2-0.9,2.1-2.1,2.1h-15.8c-1.2,0-2.1-0.9-2.1-2.1v-16.8c0-1.2,0.9-2.1,2.1-2.1
									h15.8C241.8,139.3,242.8,140.2,242.8,141.3z"/>
								<path class="st60" d="M162.1,168.4v16.8c0,1.2-0.9,2.1-2.1,2.1h-15.8c-1.2,0-2.1-0.9-2.1-2.1v-16.8c0-1.2,0.9-2.1,2.1-2.1
									H160C161.2,166.3,162.1,167.2,162.1,168.4z"/>
								<path class="st60" d="M189,168.4v16.8c0,1.2-0.9,2.1-2.1,2.1h-15.8c-1.2,0-2.1-0.9-2.1-2.1v-16.8c0-1.2,0.9-2.1,2.1-2.1
									h15.8C188.1,166.3,189,167.2,189,168.4z"/>
								<path class="st60" d="M215.9,168.4v16.8c0,1.2-0.9,2.1-2.1,2.1H198c-1.2,0-2.1-0.9-2.1-2.1v-16.8c0-1.2,0.9-2.1,2.1-2.1
									h15.8C215,166.3,215.9,167.2,215.9,168.4z"/>
								<path class="st60" d="M242.8,169.4v41.7c0,1.8-1.4,3.2-3.2,3.2h-13.7c-1.8,0-3.2-1.4-3.2-3.2v-41.7c0-1.8,1.4-3.2,3.2-3.2
									h13.7C241.4,166.3,242.8,167.7,242.8,169.4z"/>
								<path class="st60" d="M162.1,195.4v16.8c0,1.2-0.9,2.1-2.1,2.1h-15.8c-1.2,0-2.1-0.9-2.1-2.1v-16.8c0-1.2,0.9-2.1,2.1-2.1
									H160C161.2,193.3,162.1,194.2,162.1,195.4z"/>
								<path class="st60" d="M189,195.4v16.8c0,1.2-0.9,2.1-2.1,2.1h-15.8c-1.2,0-2.1-0.9-2.1-2.1v-16.8c0-1.2,0.9-2.1,2.1-2.1
									h15.8C188.1,193.3,189,194.2,189,195.4z"/>
								<path class="st60" d="M215.9,195.4v16.8c0,1.2-0.9,2.1-2.1,2.1H198c-1.2,0-2.1-0.9-2.1-2.1v-16.8c0-1.2,0.9-2.1,2.1-2.1
									h15.8C215,193.3,215.9,194.2,215.9,195.4z"/>
								<g>
									<line class="st63" x1="229.4" y1="75.5" x2="235.7" y2="75.5"/>
									<line class="st63" x1="228.7" y1="76.2" x2="228.7" y2="82.5"/>
									<line class="st63" x1="236.3" y1="82.5" x2="236.3" y2="76.2"/>
									<line class="st63" x1="228.7" y1="83.7" x2="228.7" y2="90"/>
									<line class="st63" x1="235.7" y1="90.6" x2="229.4" y2="90.6"/>
									<line class="st63" x1="236.3" y1="90" x2="236.3" y2="83.7"/>
								</g>
								<g>
									<line class="st63" x1="218.2" y1="75.5" x2="224.5" y2="75.5"/>
									<line class="st63" x1="224.5" y1="83.1" x2="218.2" y2="83.1"/>
									<line class="st63" x1="225.1" y1="82.5" x2="225.1" y2="76.2"/>
									<line class="st63" x1="217.5" y1="83.7" x2="217.5" y2="90"/>
									<line class="st63" x1="224.5" y1="90.6" x2="218.2" y2="90.6"/>
								</g>
								<g>
									<line class="st63" x1="206.9" y1="75.5" x2="213.2" y2="75.5"/>
									<line class="st63" x1="206.3" y1="76.2" x2="206.3" y2="82.5"/>
									<line class="st63" x1="213.2" y1="83.1" x2="206.9" y2="83.1"/>
									<line class="st63" x1="213.2" y1="90.6" x2="206.9" y2="90.6"/>
									<line class="st63" x1="213.9" y1="90" x2="213.9" y2="83.7"/>
								</g>
								<line class="st63" x1="202.7" y1="90.6" x2="200.9" y2="90.6"/>
								<g>
									<line class="st63" x1="189.7" y1="76.2" x2="189.7" y2="82.5"/>
									<line class="st63" x1="196.6" y1="83.1" x2="190.3" y2="83.1"/>
									<line class="st63" x1="197.2" y1="82.5" x2="197.2" y2="76.2"/>
									<line class="st63" x1="197.2" y1="90" x2="197.2" y2="83.7"/>
								</g>
								<g>
									<line class="st63" x1="179.1" y1="75.5" x2="185.4" y2="75.5"/>
									<line class="st63" x1="185.4" y1="83.1" x2="179.1" y2="83.1"/>
									<line class="st63" x1="186" y1="82.5" x2="186" y2="76.2"/>
									<line class="st63" x1="185.4" y1="90.6" x2="179.1" y2="90.6"/>
									<line class="st63" x1="186" y1="90" x2="186" y2="83.7"/>
								</g>
							</g>
						</g>
					</g>
				</g>
				<g id="XMLID_7_">
					<g>
						<g>
							<g>
								<g>
									<path class="st0" d="M2,72c-1.9,2.2-2.5,5.5-1.4,8.3L81,78.9c2.3-3.6,0.7-9-3.1-10.9c-3.8-1.8-9,0.3-10.4,4.3
										c0.3-6-0.6-12.1-3.3-17.5c-2.7-5.4-7.3-9.9-13.1-11.7c-5.7-1.8-12.5-0.7-16.8,3.5c-5.1,5-6,12.8-6.4,19.9
										c-1.9-3.5-6.1-5.5-10-4.8c-3.9,0.7-7.2,4-7.9,7.9C7.2,68.8,3.9,69.8,2,72z"/>
								</g>
							</g>
						</g>
					</g>
				</g>
				<g id="XMLID_1_">
					<g>
						<g>
							<g>
								<g>
									<path class="st0" d="M469.3,47.2c-2.7,3.1-3.6,7.8-2,11.7l113.2-2c3.2-5.1,1-12.7-4.4-15.3c-5.4-2.6-12.7,0.4-14.7,6.1
										c0.4-8.4-0.9-17.1-4.7-24.6c-3.8-7.5-10.3-13.9-18.4-16.5c-8-2.6-17.5-1-23.6,4.9c-7.2,7-8.4,17.9-9,28
										c-2.7-4.9-8.6-7.7-14.1-6.8c-5.5,0.9-10.1,5.6-11.1,11.1C476.6,42.7,472,44.1,469.3,47.2z"/>
								</g>
							</g>
						</g>
					</g>
				</g>
				<g>
					<g>
						<path class="st64" d="M206.4,343.5c0,4.3-40.1,7.8-89.5,7.8c-49.4,0-89.5-3.5-89.5-7.8c0-4.3,40.1-7.8,89.5-7.8
							C166.3,335.7,206.4,339.2,206.4,343.5z"/>
						<ellipse class="st64" cx="272.9" cy="387.1" rx="109.6" ry="7.1"/>
						<path class="st64" d="M508.7,391.6c0,2.8-16.6,5.1-37.2,5.1c-20.5,0-37.2-2.3-37.2-5.1c0-2.8,16.6-5.1,37.2-5.1
							C492,386.6,508.7,388.8,508.7,391.6z"/>
						<g>
							<g>
								<g>
									<path class="st47" d="M351.1,384.3c0-4.1-5.5-3.8-9.3-5.1c1.1,0.8,2.2,1.8,0.4,2.3c-2.6,0.7-8.3-0.4-9.9-2.3
										c-0.7,1.4-0.9,3.4-0.9,4.7C331.3,385.6,351.1,387.6,351.1,384.3z"/>
								</g>
							</g>
							<g>
								<g>
									<path class="st18" d="M342.2,381.5c1.8-0.5,0.7-1.5-0.4-2.3c-2.3-0.8-4.3-1.4-4.7-1.6c-1.1-0.6-1.4-1.6-1.4-1.6l-1.2-0.3
										c0,0-2,3.1-2.2,3.5C333.9,381.1,339.6,382.1,342.2,381.5z"/>
								</g>
							</g>
							<g>
								<g>
									<path class="st47" d="M209.7,385.4c-0.3-4.4,5.7-3.5,9.4-4.6c-1.1,0.7-2.3,1.7-0.5,2.3c2.6,0.8,8.2,0,9.9-1.8
										c0.6,1.4,0.7,3.4,0.7,4.7C229.2,387.7,209.9,388.8,209.7,385.4z"/>
								</g>
							</g>
							<g>
								<g>
									<path class="st18" d="M218.6,383c-1.8-0.5-0.6-1.5,0.5-2.3c2.3-0.7,4.3-1.2,4.7-1.4c1.1-0.5,1.5-1.6,1.5-1.6l1.2-0.2
										c0,0,1.9,3.2,2.1,3.6C226.9,383.1,221.2,383.8,218.6,383z"/>
								</g>
							</g>
							<g>
								<path class="st19" d="M323.5,145.8c0.1,0.6,16.3,20.8,19.4,36.4c9.4,47-2,168.7-5.2,193.6c-0.4,3.4-7.3-0.6-7.5-4.8
									c-1.2-26.2-25.3-168.4-25.3-168.4l-73,176.8l-7.7-1.4c0,0,3.7-63.4,14.2-115.4c5.7-28,10.6-73.6,39.9-108.6
									C285.9,152.3,311.6,144.9,323.5,145.8z"/>
							</g>
							<g>
								<path class="st47" d="M323.5,145.8c0.1,0.6,16.3,20.8,19.4,36.4c9.4,47-2,168.7-5.2,193.6c-0.4,3.4-7.3-0.6-7.5-4.8
									c-1.2-26.2-25.3-168.4-25.3-168.4l-73,176.8l-3.3-0.6c0,0,21.6-82.6,31.1-109.4c11.2-31.8,54.1-122.9,54.1-122.9
									S320,145.6,323.5,145.8z"/>
							</g>
							<g>
								<path class="st65" d="M112.3,187.7c-0.2,0-0.4,0-0.6-0.1c-1-0.4-1.5-1.4-1.1-2.4c0.5-1.4,49.5-136.9,50-138.5l1.8,0.6
									l1.6-1.1c0.6,0.8,0.6,0.8-1.9,7.7l-5.7,15.7c-4.7,13-10.9,30.3-17.2,47.6l-25,69.3C113.8,187.2,113.1,187.7,112.3,187.7z"/>
							</g>
							<g>
								<path class="st66" d="M166.8,53.6c-1.4,0.2-2.9-0.6-3.5-2c-0.7-1.7,0.1-3.6,1.8-4.3c0.7-0.3,72-29.9,126.7-37.1
									c0.2,0,0.5-0.1,0.7-0.1c64.2-8.3,133.4,3,134.1,3.1c1.8,0.3,3,2,2.7,3.8c-0.3,1.8-2,3-3.8,2.7c-0.7-0.1-68.9-11.2-132.1-3.1
									c-0.2,0-0.5,0.1-0.7,0.1c-53.9,7.1-124.3,36.4-125,36.7C167.4,53.4,167.1,53.5,166.8,53.6z"/>
							</g>
							<g>
								<path class="st66" d="M163.4,54.4c-5.5,0.7-10.5-3.2-11.2-8.7c-0.7-5.5,3.2-10.5,8.7-11.2c5.5-0.7,10.5,3.2,11.2,8.7
									C172.8,48.7,168.9,53.7,163.4,54.4z M161.6,40.1c-2.4,0.3-4.1,2.5-3.8,4.9c0.3,2.4,2.5,4.1,4.9,3.8c2.4-0.3,4.1-2.5,3.8-4.9
									C166.1,41.5,163.9,39.8,161.6,40.1z"/>
							</g>
							<g>
								<path class="st65" d="M212.4,187.7c-0.8,0-1.5-0.5-1.8-1.2l-25-69.3c-6.3-17.3-12.5-34.6-17.2-47.6l-5.7-15.7
									c-2.5-6.9-2.5-6.9-1.9-7.7l3.1,2.2l-1.5-1.1l1.8-0.6c0.6,1.7,49.5,137.2,50,138.5c0.4,1-0.2,2.1-1.1,2.4
									C212.9,187.6,212.6,187.7,212.4,187.7z"/>
							</g>
							<g>
								<path class="st67" d="M162.3,178.4c-28.8,0-52.1,3.3-52.1,7.4c0,4.1,23.3,7.4,52.1,7.4c28.8,0,52.1-3.3,52.1-7.4
									C214.4,181.7,191.1,178.4,162.3,178.4z"/>
								<g>
									<g>
										<path class="st25" d="M210.4,190.2c0,5.1-14,9.2-31.4,9.2c-17.3,0-31.4-4.1-31.4-9.2c0-0.8-0.5-4.5,0.2-5.3
											c3.5-4,16.7-4,31.2-4c14.7,0,27.7-0.3,31.1,3.8C210.7,185.4,210.4,189.4,210.4,190.2z"/>
										<g>
											<path class="st26" d="M210.1,184.7c-3.4-4-16.4-3.8-31.1-3.8c-14.5,0-27.7,0-31.2,4c-0.7,0.8-0.2,4.5-0.2,5.3
												c0,1.2,0.8,2.4,2.3,3.5v-6.3h1v6.9c1.3,0.8,3.1,1.5,5.1,2.2v-6.3h1v6.6c1.6,0.5,3.3,0.9,5.1,1.2v-6.8h1v7
												c1.6,0.3,3.3,0.5,5.1,0.7v-6.6h1v6.7c1.8,0.2,3.7,0.3,5.7,0.4v-7.1h1v7.1c1,0,2.1,0,3.1,0c0.8,0,1.6,0,2.4,0v-6.6h1v6.5
												c1.7-0.1,3.3-0.1,4.8-0.3v-6.3h1v6.2c2-0.2,4-0.4,5.8-0.7V192h1v6.1c2.4-0.4,4.6-0.9,6.5-1.5v-6.4h1v6.1
												c2-0.7,3.7-1.4,5-2.3v-6.6h1v5.9c1.2-1,1.8-2,1.8-3.1C210.4,189.4,210.7,185.4,210.1,184.7z"/>
											<path class="st27" d="M149.9,187.4v6.3c0.3,0.2,0.6,0.4,1,0.6v-6.9H149.9z"/>
											<path class="st27" d="M156,190.2v6.3c0.3,0.1,0.6,0.2,1,0.3v-6.6H156z"/>
											<path class="st27" d="M162.1,191.2v6.8c0.3,0.1,0.7,0.1,1,0.2v-7H162.1z"/>
											<path class="st27" d="M168.2,192.3v6.6c0.3,0,0.7,0.1,1,0.1v-6.7H168.2z"/>
											<path class="st27" d="M174.9,192.3v7.1c0.3,0,0.7,0,1,0v-7.1H174.9z"/>
											<path class="st27" d="M181.4,192.9v6.6c0.3,0,0.7,0,1,0v-6.5H181.4z"/>
											<path class="st27" d="M187.2,192.9v6.3c0.3,0,0.7-0.1,1-0.1v-6.2H187.2z"/>
											<path class="st27" d="M194.1,192v6.3c0.3-0.1,0.7-0.1,1-0.2V192H194.1z"/>
											<path class="st27" d="M201.6,190.2v6.4c0.3-0.1,0.7-0.2,1-0.3v-6.1H201.6z"/>
											<path class="st27" d="M207.5,187.4v6.6c0.4-0.2,0.7-0.5,1-0.7v-5.9H207.5z"/>
										</g>
										<path class="st28" d="M210.4,185.6c0,3.6-9.2,8.9-31.4,8.9c-25.1-0.1-31.3-5.3-31.3-8.9c0-3.6,14-6.4,31.4-6.4
											C196.3,179.1,210.4,182,210.4,185.6z"/>
									</g>
									<g>
										<path class="st25" d="M214,179.8c0,5.1-14,9.2-31.4,9.2s-31.4-4.1-31.4-9.2c0-0.8-0.5-4.5,0.2-5.3c3.5-4,16.7-4,31.2-4
											c14.7,0,27.7-0.3,31.1,3.8C214.3,175.1,214,179.1,214,179.8z"/>
										<g>
											<path class="st26" d="M213.7,174.3c-3.4-4-16.4-3.8-31.1-3.8c-14.5,0-27.7,0-31.2,4c-0.7,0.8-0.2,4.5-0.2,5.3
												c0,1.2,0.8,2.4,2.3,3.5V177h1v6.9c1.3,0.8,3.1,1.5,5.1,2.2v-6.3h1v6.6c1.6,0.5,3.3,0.9,5.1,1.2v-6.8h1v7
												c1.6,0.3,3.3,0.5,5.1,0.7v-6.6h1v6.7c1.8,0.2,3.7,0.3,5.7,0.4v-7.1h1v7.1c1,0,2.1,0,3.1,0c0.8,0,1.6,0,2.4,0v-6.6h1v6.5
												c1.7-0.1,3.3-0.1,4.8-0.3v-6.3h1v6.2c2-0.2,4-0.4,5.8-0.7v-6.3h1v6.1c2.4-0.4,4.6-0.9,6.5-1.5v-6.4h1v6.1
												c2-0.7,3.7-1.4,5-2.3V177h1v5.9c1.2-1,1.8-2,1.8-3.1C214,179.1,214.3,175.1,213.7,174.3z"/>
											<path class="st27" d="M153.5,177v6.3c0.3,0.2,0.6,0.4,1,0.6V177H153.5z"/>
											<path class="st27" d="M159.6,179.8v6.3c0.3,0.1,0.6,0.2,1,0.3v-6.6H159.6z"/>
											<path class="st27" d="M165.7,180.8v6.8c0.3,0.1,0.7,0.1,1,0.2v-7H165.7z"/>
											<path class="st27" d="M171.8,181.9v6.6c0.3,0,0.7,0.1,1,0.1v-6.7H171.8z"/>
											<path class="st27" d="M178.5,181.9v7.1c0.3,0,0.7,0,1,0v-7.1H178.5z"/>
											<path class="st27" d="M185,182.5v6.6c0.3,0,0.7,0,1,0v-6.5H185z"/>
											<path class="st27" d="M190.9,182.5v6.3c0.3,0,0.7-0.1,1-0.1v-6.2H190.9z"/>
											<path class="st27" d="M197.7,181.6v6.3c0.3-0.1,0.7-0.1,1-0.2v-6.1H197.7z"/>
											<path class="st27" d="M205.2,179.8v6.4c0.3-0.1,0.7-0.2,1-0.3v-6.1H205.2z"/>
											<path class="st27" d="M211.2,177v6.6c0.4-0.2,0.7-0.5,1-0.7V177H211.2z"/>
										</g>
										<path class="st28" d="M214,175.2c0,3.6-9.2,8.9-31.4,8.9c-25.1-0.1-31.3-5.3-31.3-8.9c0-3.6,14-6.4,31.4-6.4
											S214,171.6,214,175.2z"/>
									</g>
									<g>
										<path class="st25" d="M210.1,170.5c0,5.1-14,9.2-31.4,9.2s-31.4-4.1-31.4-9.2c0-0.8-0.5-4.5,0.2-5.3c3.5-4,16.7-4,31.2-4
											c14.7,0,27.7-0.3,31.1,3.8C210.4,165.8,210.1,169.8,210.1,170.5z"/>
										<g>
											<path class="st26" d="M209.8,165c-3.4-4-16.4-3.8-31.1-3.8c-14.5,0-27.7,0-31.2,4c-0.7,0.8-0.2,4.5-0.2,5.3
												c0,1.2,0.8,2.4,2.3,3.5v-6.3h1v6.9c1.3,0.8,3.1,1.5,5.1,2.2v-6.3h1v6.6c1.6,0.5,3.3,0.9,5.1,1.2v-6.8h1v7
												c1.6,0.3,3.3,0.5,5.1,0.7v-6.6h1v6.7c1.8,0.2,3.7,0.3,5.7,0.4v-7.1h1v7.1c1,0,2.1,0,3.1,0c0.8,0,1.6,0,2.4,0v-6.6h1v6.5
												c1.7-0.1,3.3-0.1,4.8-0.3v-6.3h1v6.2c2-0.2,4-0.4,5.8-0.7v-6.3h1v6.1c2.4-0.4,4.6-0.9,6.5-1.5v-6.4h1v6.1
												c2-0.7,3.7-1.4,5-2.3v-6.6h1v5.9c1.2-1,1.8-2,1.8-3.1C210.1,169.8,210.4,165.8,209.8,165z"/>
											<path class="st27" d="M149.6,167.7v6.3c0.3,0.2,0.6,0.4,1,0.6v-6.9H149.6z"/>
											<path class="st27" d="M155.7,170.5v6.3c0.3,0.1,0.6,0.2,1,0.3v-6.6H155.7z"/>
											<path class="st27" d="M161.8,171.5v6.8c0.3,0.1,0.7,0.1,1,0.2v-7H161.8z"/>
											<path class="st27" d="M167.9,172.6v6.6c0.3,0,0.7,0.1,1,0.1v-6.7H167.9z"/>
											<path class="st27" d="M174.6,172.6v7.1c0.3,0,0.7,0,1,0v-7.1H174.6z"/>
											<path class="st27" d="M181.1,173.2v6.6c0.3,0,0.7,0,1,0v-6.5H181.1z"/>
											<path class="st27" d="M187,173.2v6.3c0.3,0,0.7-0.1,1-0.1v-6.2H187z"/>
											<path class="st27" d="M193.8,172.3v6.3c0.3-0.1,0.7-0.1,1-0.2v-6.1H193.8z"/>
											<path class="st27" d="M201.3,170.5v6.4c0.3-0.1,0.7-0.2,1-0.3v-6.1H201.3z"/>
											<path class="st27" d="M207.3,167.7v6.6c0.4-0.2,0.7-0.5,1-0.7v-5.9H207.3z"/>
										</g>
										<path class="st28" d="M210.1,165.9c0,3.6-9.2,8.9-31.4,8.9c-25.1-0.1-31.3-5.3-31.3-8.9c0-3.6,14-6.4,31.4-6.4
											S210.1,162.3,210.1,165.9z"/>
									</g>
									<g>
										<path class="st25" d="M216.9,162.2c0,5.1-14,9.2-31.4,9.2c-17.3,0-31.4-4.1-31.4-9.2c0-0.8-0.5-4.5,0.2-5.3
											c3.5-4,16.7-4,31.2-4c14.7,0,27.7-0.3,31.1,3.8C217.3,157.4,216.9,161.4,216.9,162.2z"/>
										<g>
											<path class="st26" d="M216.7,156.7c-3.4-4-16.4-3.8-31.1-3.8c-14.5,0-27.7,0-31.2,4c-0.7,0.8-0.2,4.5-0.2,5.3
												c0,1.2,0.8,2.4,2.3,3.5v-6.3h1v6.9c1.3,0.8,3.1,1.5,5.1,2.2v-6.3h1v6.6c1.6,0.5,3.3,0.9,5.1,1.2v-6.8h1v7
												c1.6,0.3,3.3,0.5,5.1,0.7v-6.6h1v6.7c1.8,0.2,3.7,0.3,5.7,0.4v-7.1h1v7.1c1,0,2.1,0,3.1,0c0.8,0,1.6,0,2.4,0v-6.6h1v6.5
												c1.7-0.1,3.3-0.1,4.8-0.3v-6.3h1v6.2c2-0.2,4-0.4,5.8-0.7V164h1v6.1c2.4-0.4,4.6-0.9,6.5-1.5v-6.4h1v6.1
												c2-0.7,3.7-1.4,5-2.3v-6.6h1v5.9c1.2-1,1.8-2,1.8-3.1C216.9,161.4,217.3,157.4,216.7,156.7z"/>
											<path class="st27" d="M156.5,159.4v6.3c0.3,0.2,0.6,0.4,1,0.6v-6.9H156.5z"/>
											<path class="st27" d="M162.6,162.2v6.3c0.3,0.1,0.6,0.2,1,0.3v-6.6H162.6z"/>
											<path class="st27" d="M168.7,163.2v6.8c0.3,0.1,0.7,0.1,1,0.2v-7H168.7z"/>
											<path class="st27" d="M174.8,164.2v6.6c0.3,0,0.7,0.1,1,0.1v-6.7H174.8z"/>
											<path class="st27" d="M181.5,164.2v7.1c0.3,0,0.7,0,1,0v-7.1H181.5z"/>
											<path class="st27" d="M188,164.8v6.6c0.3,0,0.7,0,1,0v-6.5H188z"/>
											<path class="st27" d="M193.8,164.8v6.3c0.3,0,0.7-0.1,1-0.1v-6.2H193.8z"/>
											<path class="st27" d="M200.6,164v6.3c0.3-0.1,0.7-0.1,1-0.2V164H200.6z"/>
											<path class="st27" d="M208.2,162.2v6.4c0.3-0.1,0.7-0.2,1-0.3v-6.1H208.2z"/>
											<path class="st27" d="M214.1,159.4v6.6c0.4-0.2,0.7-0.5,1-0.7v-5.9H214.1z"/>
										</g>
										<path class="st28" d="M216.9,157.6c0,3.6-9.2,8.9-31.4,8.9c-25.1-0.1-31.3-5.3-31.3-8.9c0-3.6,14-6.4,31.4-6.4
											C202.9,151.1,216.9,154,216.9,157.6z"/>
									</g>
									<g>
										<path class="st25" d="M213.3,153.6c0,5.1-14,9.2-31.4,9.2c-17.3,0-31.4-4.1-31.4-9.2c0-0.8-0.5-4.5,0.2-5.3
											c3.5-4,16.7-4,31.2-4c14.7,0,27.7-0.3,31.1,3.8C213.7,148.8,213.3,152.8,213.3,153.6z"/>
										<g>
											<path class="st26" d="M213.1,148.1c-3.4-4-16.4-3.8-31.1-3.8c-14.5,0-27.7,0-31.2,4c-0.7,0.8-0.2,4.5-0.2,5.3
												c0,1.2,0.8,2.4,2.3,3.5v-6.3h1v6.9c1.3,0.8,3.1,1.5,5.1,2.2v-6.3h1v6.6c1.6,0.5,3.3,0.9,5.1,1.2v-6.8h1v7
												c1.6,0.3,3.3,0.5,5.1,0.7v-6.6h1v6.7c1.8,0.2,3.7,0.3,5.7,0.4v-7.1h1v7.1c1,0,2.1,0,3.1,0c0.8,0,1.6,0,2.4,0v-6.6h1v6.5
												c1.7-0.1,3.3-0.1,4.8-0.3v-6.3h1v6.2c2-0.2,4-0.4,5.8-0.7v-6.3h1v6.1c2.4-0.4,4.6-0.9,6.5-1.5v-6.4h1v6.1
												c2-0.7,3.7-1.4,5-2.3v-6.6h1v5.9c1.2-1,1.8-2,1.8-3.1C213.3,152.8,213.7,148.8,213.1,148.1z"/>
											<path class="st27" d="M152.9,150.8v6.3c0.3,0.2,0.6,0.4,1,0.6v-6.9H152.9z"/>
											<path class="st27" d="M159,153.6v6.3c0.3,0.1,0.6,0.2,1,0.3v-6.6H159z"/>
											<path class="st27" d="M165.1,154.6v6.8c0.3,0.1,0.7,0.1,1,0.2v-7H165.1z"/>
											<path class="st27" d="M171.2,155.7v6.6c0.3,0,0.7,0.1,1,0.1v-6.7H171.2z"/>
											<path class="st27" d="M177.9,155.7v7.1c0.3,0,0.7,0,1,0v-7.1H177.9z"/>
											<path class="st27" d="M184.4,156.3v6.6c0.3,0,0.7,0,1,0v-6.5H184.4z"/>
											<path class="st27" d="M190.2,156.3v6.3c0.3,0,0.7-0.1,1-0.1v-6.2H190.2z"/>
											<path class="st27" d="M197,155.4v6.3c0.3-0.1,0.7-0.1,1-0.2v-6.1H197z"/>
											<path class="st27" d="M204.5,153.6v6.4c0.3-0.1,0.7-0.2,1-0.3v-6.1H204.5z"/>
											<path class="st27" d="M210.5,150.8v6.6c0.4-0.2,0.7-0.5,1-0.7v-5.9H210.5z"/>
										</g>
										<path class="st28" d="M213.3,149c0,3.6-9.2,8.9-31.4,8.9c-25.1-0.1-31.3-5.3-31.3-8.9c0-3.6,14-6.4,31.4-6.4
											C199.3,142.5,213.3,145.4,213.3,149z"/>
										<g>
											<g>
												<path class="st25" d="M182.2,156.7c-13,0.1-24.7-2.1-27.2-5.3c-2.9-3.6,6.8-7.2,21.7-8c14.9-0.8,29.4,1.5,32.3,5.1l0,0
													c1.4,1.8-0.1,3.6-4.2,5.1c-4.1,1.5-10.3,2.6-17.5,3C185.5,156.6,183.8,156.7,182.2,156.7z M181.7,144.2
													c-1.4,0-2.9,0.1-4.3,0.1c-12.8,0.7-21.2,3.8-18.7,6.9c2.5,3.1,15,5.1,27.8,4.4c6.2-0.3,11.6-1.2,15.1-2.5
													c3.5-1.3,4.8-2.9,3.6-4.4l0,0C203,145.9,192.9,144.1,181.7,144.2z"/>
											</g>
											<g>
												<g>
													<path class="st25" d="M191.3,147.4c-0.7-0.8-3.3-1.5-6.3-1.7c-2.5-0.2-5.1,0-7.5,0.2c-2.5,0.3-5.1,0.7-6.8,1.2
														c-2.1,0.7-1.3,1.4,0.5,2c1.9,0.6,4.3,1,7.6,1c3.7,0.1,7.5,0,10.8,0.4c5.6,0.7,2.9,2.5-3.1,2.7
														c-5,0.2-11.1-0.3-11.3-1.7c0-0.2-3.1,0.1-3.1,0.3c0.3,2,10.5,2.2,16.7,1.6c2.9-0.3,5.8-0.8,6.8-1.5
														c1.1-0.8-0.8-1.5-3.8-1.8c-3.1-0.3-6.5-0.3-9.8-0.4c-4.3-0.1-7.9-0.6-9.1-1.7c-1.2-1,3.1-1.9,7.2-2
														c3.9-0.1,7.5,0.9,8.2,1.8C188.4,147.9,191.5,147.6,191.3,147.4L191.3,147.4z"/>
												</g>
												<g>
													<path class="st25" d="M173.9,145.3c2.5,3.4,5,6.8,7.5,10.2c0.1,0.2,3.3-0.1,3.1-0.4c-2.5-3.4-5-6.8-7.5-10.2
														C176.9,144.7,173.7,145,173.9,145.3L173.9,145.3z"/>
												</g>
												<g>
													<path class="st25" d="M178.9,144.9c2.5,3.4,5,6.8,7.5,10.2c0.1,0.2,3.3-0.1,3.1-0.4c-2.5-3.4-5-6.8-7.5-10.2
														C181.8,144.3,178.7,144.6,178.9,144.9L178.9,144.9z"/>
												</g>
											</g>
										</g>
									</g>
								</g>
								<g>
									<g>
										<path class="st30" d="M189,92.4c0,0,0.4-1.3,1.1-1.5c0.8-0.2,0.9,0.5,0.9,0.5l-0.8,1.2L189,92.4z"/>
									</g>
									<g>
										<g>
											<path class="st68" d="M185.2,101.5c-0.2,0.1-1.3-0.3-1.5-0.6l-5.8-10.3c-0.1-0.2-0.2-0.5-0.1-0.7
												c0.1-0.2,0.2-0.4,0.4-0.4l6.7-2c0.3-0.1,1.4-0.1,1.5,0.3c0.1,0.4-0.1,0.8-0.4,0.9l-5.9,2l5.3,9.7c0.2,0.4,0.1,0.8-0.1,1
												C185.3,101.5,185.2,101.5,185.2,101.5z"/>
										</g>
									</g>
									<g>
										<g>
											<path class="st69" d="M187.9,98.2c-0.4,0.1-0.8-0.1-1-0.4c-0.1-0.4,0.1-0.8,0.4-1c2.2-0.8,3.4-3.2,2.6-5.3
												s-3.2-3.2-5.5-2.3c-0.4,0.1-0.8-0.1-1-0.4c-0.1-0.4,0.1-0.8,0.4-1c3-1.1,6.3,0.3,7.4,3.2C192.5,93.8,190.9,97,187.9,98.2
												z"/>
										</g>
									</g>
									<g>
										<g>
											<g>
												
													<rect x="204.8" y="109" transform="matrix(0.9654 -0.2609 0.2609 0.9654 -26.5056 57.9184)" class="st68" width="0.3" height="39.6"/>
											</g>
										</g>
										<g>
											<g>
												
													<rect x="185.1" y="128.7" transform="matrix(0.9654 -0.2607 0.2607 0.9654 -26.493 57.8773)" class="st68" width="39.6" height="0.3"/>
											</g>
										</g>
										<g>
											<g>
												
													<rect x="185.2" y="129" transform="matrix(0.6137 -0.7895 0.7895 0.6137 -22.7371 211.7158)" class="st68" width="39.6" height="0.3"/>
											</g>
										</g>
										<g>
											<g>
												
													<rect x="204.8" y="109.3" transform="matrix(0.5708 -0.8211 0.8211 0.5708 -18.0134 223.7268)" class="st68" width="0.3" height="39.6"/>
											</g>
										</g>
										<g>
											<g>
												
													<rect x="185.3" y="128.6" transform="matrix(0.8415 -0.5403 0.5403 0.8415 -37.0227 131.2119)" class="st68" width="39.6" height="0.3"/>
											</g>
										</g>
										<g>
											<g>
												
													<rect x="205.4" y="109.2" transform="matrix(0.1459 -0.9893 0.9893 0.1459 47.9023 313.5619)" class="st68" width="0.3" height="39.6"/>
											</g>
										</g>
										<g>
											<g>
												
													<rect x="204.9" y="108.9" transform="matrix(0.7789 -0.6271 0.6271 0.7789 -35.3683 157.0623)" class="st68" width="0.3" height="39.6"/>
											</g>
										</g>
										<g>
											<g>
												
													<rect x="185" y="128.8" transform="matrix(0.1821 -0.9833 0.9833 0.1821 40.8004 306.8374)" class="st68" width="39.6" height="0.3"/>
											</g>
										</g>
										<g>
											<g>
												<path class="st19" d="M210.9,150.2c-11.9,3.2-24.1-3.8-27.3-15.7s3.8-24.1,15.7-27.3c11.9-3.2,24.1,3.8,27.4,15.7
													C229.8,134.7,222.8,147,210.9,150.2z M199.7,108.6c-11.1,3-17.6,14.4-14.7,25.5c3,11.1,14.4,17.6,25.5,14.7
													c11.1-3,17.6-14.4,14.7-25.5C222.2,112.2,210.7,105.6,199.7,108.6z"/>
											</g>
										</g>
										<g>
											<g>
												<path class="st68" d="M210.6,148.9c-11.2,3-22.7-3.6-25.7-14.8c-3-11.2,3.6-22.7,14.8-25.7c11.2-3,22.7,3.6,25.7,14.8
													C228.4,134.4,221.7,145.9,210.6,148.9z M200.1,110.3c-10.2,2.7-16.2,13.3-13.5,23.4s13.3,16.2,23.4,13.5
													c10.2-2.7,16.2-13.3,13.5-23.4C220.8,113.5,210.3,107.5,200.1,110.3z"/>
											</g>
										</g>
										<g>
											<path class="st70" d="M206.9,128.7c0.3,1.2-0.4,2.4-1.5,2.7c-1.2,0.3-2.4-0.4-2.7-1.5s0.4-2.4,1.5-2.7
												C205.4,126.8,206.6,127.5,206.9,128.7z"/>
										</g>
									</g>
									<g>
										<g>
											<g>
												
													<rect x="142.5" y="126.1" transform="matrix(0.9654 -0.2609 0.2609 0.9654 -33.1357 42.2688)" class="st68" width="0.3" height="39.6"/>
											</g>
										</g>
										<g>
											<g>
												
													<rect x="122.8" y="145.8" transform="matrix(0.9654 -0.2607 0.2607 0.9654 -33.1176 42.2381)" class="st68" width="39.6" height="0.3"/>
											</g>
										</g>
										<g>
											<g>
												
													<rect x="122.9" y="146.1" transform="matrix(0.6138 -0.7894 0.7894 0.6138 -60.3321 169.1459)" class="st68" width="39.6" height="0.3"/>
											</g>
										</g>
										<g>
											<g>
												
													<rect x="142.6" y="126.4" transform="matrix(0.5708 -0.8211 0.8211 0.5708 -58.8179 179.9648)" class="st68" width="0.3" height="39.6"/>
											</g>
										</g>
										<g>
											<g>
												<polygon class="st68" points="126.2,156.7 126.1,156.4 159.4,135 159.6,135.3 												"/>
											</g>
										</g>
										<g>
											<g>
												
													<rect x="143.1" y="126.4" transform="matrix(0.146 -0.9893 0.9893 0.146 -22.2583 266.5879)" class="st68" width="0.3" height="39.6"/>
											</g>
										</g>
										<g>
											<g>
												
													<rect x="142.7" y="126" transform="matrix(0.7789 -0.6271 0.6271 0.7789 -59.886 121.8088)" class="st68" width="0.3" height="39.6"/>
											</g>
										</g>
										<g>
											<g>
												
													<rect x="122.8" y="145.9" transform="matrix(0.1825 -0.9832 0.9832 0.1825 -27.0219 259.5834)" class="st68" width="39.6" height="0.3"/>
											</g>
										</g>
										<g>
											<g>
												<path class="st19" d="M148.6,167.4c-11.9,3.2-24.1-3.8-27.3-15.7c-3.2-11.9,3.8-24.1,15.7-27.3
													c11.9-3.2,24.1,3.8,27.4,15.7C167.6,151.9,160.5,164.2,148.6,167.4z M137.4,125.8c-11.1,3-17.6,14.4-14.7,25.5
													c3,11.1,14.4,17.6,25.5,14.7c11.1-3,17.6-14.4,14.7-25.5C159.9,129.3,148.5,122.8,137.4,125.8z"/>
											</g>
										</g>
										<g>
											<g>
												<path class="st68" d="M148.3,166.1c-11.2,3-22.7-3.6-25.7-14.8c-3-11.2,3.6-22.7,14.8-25.7c11.2-3,22.7,3.6,25.7,14.8
													C166.1,151.5,159.5,163.1,148.3,166.1z M137.8,127.4c-10.2,2.7-16.2,13.3-13.5,23.4c2.7,10.2,13.3,16.2,23.4,13.5
													c10.2-2.7,16.2-13.3,13.5-23.4C158.5,130.7,148,124.7,137.8,127.4z"/>
											</g>
										</g>
										<g>
											<path class="st70" d="M144.6,145.8c0.3,1.2-0.4,2.4-1.5,2.7c-1.2,0.3-2.4-0.4-2.7-1.5c-0.3-1.2,0.4-2.4,1.5-2.7
												C143.1,144,144.3,144.7,144.6,145.8z"/>
										</g>
									</g>
									<g>
										<g>
											<path class="st51" d="M170.2,143.9c-0.1,0-0.1,0-0.2,0c-0.3,0-0.7-0.2-0.8-0.4l-16.9-27.6c0,0,0,0,0,0l-1.2-2
												c-0.3-0.4-0.1-1,0.3-1.3c0.4-0.3,1-0.1,1.3,0.3l0.8,1.4l32.4-12.6c0.4-0.2,0.9,0,1.1,0.3l2.2,3.2c0.2,0.3,0.2,0.6,0.1,1
												l-18.4,37.3C170.7,143.6,170.5,143.8,170.2,143.9z M154.4,115.8l15.5,25.2l17.4-35.3l-1.5-2.1L154.4,115.8z"/>
										</g>
									</g>
									<g>
										<g>
											<path class="st51" d="M169.8,143.6C169.8,143.6,169.7,143.6,169.8,143.6l-27.3,2.8c-0.2,0-0.4-0.1-0.5-0.2
												c-0.1-0.1-0.2-0.3-0.1-0.5l10.2-31c0.1-0.3,0.4-0.5,0.7-0.4c0.3,0.1,0.5,0.4,0.4,0.7l-9.9,30.2l26.3-2.7
												c0.3,0,0.6,0.2,0.6,0.5C170.2,143.2,170.1,143.5,169.8,143.6z"/>
										</g>
									</g>
									<g>
										<g>
											<path class="st51" d="M204.7,129.8c-0.5,0.1-1.1,0-1.4-0.5l-14.1-18.8c0,0-0.1-0.1-0.1-0.1l-5.3-9.2
												c-0.4-0.6-0.2-1.4,0.5-1.8c0.6-0.4,1.4-0.2,1.8,0.5l5.3,9.1l14.1,18.7c0.4,0.6,0.3,1.4-0.3,1.8
												C205,129.7,204.9,129.7,204.7,129.8z"/>
										</g>
									</g>
									<g>
										<g>
											<path class="st68" d="M171.8,148.8c-3.4,0.9-6.9-1.1-7.8-4.5c-0.9-3.4,1.1-6.9,4.5-7.8c3.4-0.9,6.9,1.1,7.8,4.5
												C177.2,144.3,175.1,147.8,171.8,148.8z M168.7,137.6c-2.8,0.8-4.4,3.6-3.7,6.4c0.8,2.8,3.6,4.4,6.4,3.7
												c2.8-0.8,4.4-3.6,3.7-6.4C174.4,138.5,171.5,136.8,168.7,137.6z"/>
										</g>
									</g>
									<g>
										<g>
											<path class="st68" d="M166.8,147.8c-0.2,0-0.3,0-0.5-0.1c-0.3-0.2-0.3-0.5-0.1-0.8l3.3-4.7l0.3-5.3
												c0-0.3,0.3-0.5,0.6-0.5c0.3,0,0.5,0.3,0.5,0.6l-0.4,5.5c0,0.1,0,0.2-0.1,0.3l-3.4,4.8C167.1,147.7,167,147.8,166.8,147.8
												z"/>
										</g>
									</g>
									<g>
										<g>
											<path class="st68" d="M175.7,141.9C175.7,142,175.7,142,175.7,141.9l-5.5,1.2c-0.1,0-0.2,0-0.3,0l-5.4-2.1
												c-0.3-0.1-0.4-0.4-0.3-0.7c0.1-0.3,0.4-0.4,0.7-0.3l5.2,2l5.3-1.2c0.3-0.1,0.6,0.1,0.7,0.4
												C176.2,141.6,176,141.9,175.7,141.9z"/>
										</g>
									</g>
									<g>
										<g>
											<path class="st68" d="M173.9,147.7c-0.2,0.1-0.4,0-0.6-0.2l-3.5-4.3c-0.2-0.2-0.2-0.6,0.1-0.8c0.2-0.2,0.6-0.2,0.8,0.1
												l3.5,4.3c0.2,0.2,0.2,0.6-0.1,0.8C174,147.6,173.9,147.7,173.9,147.7z"/>
										</g>
									</g>
									<g>
										
											<rect x="177.6" y="145.5" transform="matrix(0.9654 -0.2609 0.2609 0.9654 -31.8113 52.0792)" class="st69" width="5.4" height="0.7"/>
									</g>
									<g>
										<path class="st69" d="M181.1,147.3l-0.7,0.2c-0.9,0.2-1.7-0.3-2-1.1l0,0l3.8-1l0,0C182.4,146.2,181.9,147.1,181.1,147.3z"
											/>
									</g>
									<g>
										<polygon class="st69" points="170.5,141.8 180.6,145.5 178.1,146.2 169.8,143 										"/>
									</g>
									<g>
										<g>
											<path class="st68" d="M152.2,114.1c-0.4,0.1-0.9-0.1-1.1-0.5c-0.9-1.6-2.5-4.3-3.2-5c-0.7-0.7-2-1.1-2.5-1.3
												c-0.5-0.1-0.8-0.3-0.7-0.8c0.1-0.3,1.3-0.8,1.6-0.8c0.2,0,1.6,0.4,2.8,1.5c1.1,1,3.3,5,3.5,5.4c0.2,0.5,0.1,1-0.4,1.3
												C152.3,114,152.2,114.1,152.2,114.1z"/>
										</g>
									</g>
									<g>
										<g>
											<path class="st68" d="M144,107.5c-0.1,0-0.2,0-0.3,0l-2.1-1.1c-0.2-0.1-0.3-0.4-0.2-0.6c0.1-0.2,0.3-0.3,0.5-0.2l1.9,1.1
												l4-1.5l1.8-2.3c0.1-0.2,0.4-0.2,0.5,0c0.2,0.2,0.2,0.5,0,0.6l-1.9,2.4c0,0-0.1,0.1-0.1,0.1L144,107.5
												C144.1,107.5,144.1,107.5,144,107.5z"/>
										</g>
									</g>
									<g>
										<path class="st19" d="M136.3,104.6c-0.1,0.9,1.4,2.2,3.3,2.5c1.9,0.3,2.8-1.4,5.1-2.3c2.2-0.9,8-2.2,8-2.2s1.5-1.4,1-1.6
											c-0.5-0.3-8.3,1.2-12.8,1.8C136.5,103.5,136.4,103.9,136.3,104.6z"/>
									</g>
									<g>
										<path class="st69" d="M150.6,113l1.6-0.8c0.3-0.1,0.6,0,0.7,0.2l0.7,1.1l-2.6,1.3l-0.6-1.1
											C150.2,113.5,150.3,113.1,150.6,113z"/>
									</g>
								</g>
								<g>
									<g>
										<polygon class="st33" points="118,119.2 114.1,131.1 116.5,131.8 119.5,122.3 144.2,130.2 141.1,139.8 143.5,140.5 
											147.3,128.6 										"/>
										<g>
											<g>
												<path class="st18" d="M171.2,154.2l-13.8,43c-0.8,2.4-3.3,3.7-5.7,2.9l-9.6-3.1c2.4,0.8,4.9-0.5,5.7-2.9l13.8-43
													c0.8-2.4-0.5-4.9-2.9-5.7l9.6,3.1C170.6,149.3,171.9,151.8,171.2,154.2z"/>
												<path class="st71" d="M142.1,197.1l-60.3-19.4c-2.4-0.8-3.7-3.3-2.9-5.7l13.8-43c0.8-2.4,3.3-3.7,5.7-2.9l60.3,19.4
													c2.4,0.8,3.7,3.3,2.9,5.7l-13.8,43C147,196.5,144.4,197.8,142.1,197.1z"/>
												<path class="st58" d="M161.6,151.1l-13.8,43c-0.8,2.4-3.3,3.7-5.7,2.9l-60.3-19.4c-2.4-0.8-3.7-3.3-2.9-5.7l13.8-43
													c0.8-2.4,3.3-3.7,5.7-2.9l60.3,19.4C161,146.2,162.3,148.7,161.6,151.1z"/>
											</g>
											<path class="st33" d="M107.3,131c-2.3,7.1-9.9,11-16.9,8.7c-0.3-0.1-0.7-0.2-1-0.4l3.3-10.3c0.8-2.4,3.3-3.7,5.7-2.9
												l9.4,3C107.7,129.7,107.5,130.3,107.3,131z"/>
											<path class="st33" d="M91.5,180.1c-0.1,0.2-0.1,0.4-0.2,0.6l-9.5-3.1c-2.4-0.8-3.7-3.3-2.9-5.7l2.9-9.1
												c0.3,0.1,0.7,0.2,1,0.3C89.9,165.5,93.8,173.1,91.5,180.1z"/>
											<path class="st33" d="M161.6,151.1l-3.3,10.3c-0.4-0.1-0.8-0.2-1.2-0.3c-7.1-2.3-11-9.9-8.7-16.9
												c0.2-0.6,0.4-1.2,0.7-1.8l9.6,3.1C161,146.2,162.3,148.7,161.6,151.1z"/>
											<path class="st33" d="M150.7,185.1l-4.3,13.4l-14-4.5c0.1-0.2,0.1-0.4,0.2-0.6c2.3-7.1,9.9-11,16.9-8.7
												C149.9,184.8,150.3,184.9,150.7,185.1z"/>
											<path class="st72" d="M168.3,148.5l-9.6-3.1c2.4,0.8,3.7,3.3,2.9,5.7l-3.3,10.3l0,0l9.6,3.1l3.3-10.3
												C171.9,151.8,170.6,149.3,168.3,148.5z"/>
											<path class="st72" d="M150.7,185.1l-4.3,13.4l5.3,1.7c2.4,0.8,4.9-0.5,5.7-2.9l2.9-9.1
												C155.4,186.5,151,185.1,150.7,185.1z"/>
										</g>
										
											<rect x="115.5" y="127.3" transform="matrix(0.3062 -0.952 0.952 0.3062 -41.746 199.8491)" class="st72" width="1.4" height="2.5"/>
										
											<rect x="142.5" y="136" transform="matrix(0.3062 -0.952 0.952 0.3062 -31.2813 231.5776)" class="st72" width="1.4" height="2.5"/>
										
											<rect x="112.4" y="129.2" transform="matrix(0.952 0.3062 -0.3062 0.952 45.4899 -29.1881)" class="st33" width="6.7" height="2.3"/>
										
											<rect x="141.5" y="135.7" transform="matrix(0.3062 -0.952 0.952 0.3062 -33.3642 232.3462)" class="st33" width="2.3" height="6.7"/>
									</g>
									<g>
										
											<rect x="108.8" y="171" transform="matrix(0.952 0.3062 -0.3062 0.952 59.2243 -27.5568)" class="st0" width="17.2" height="8"/>
										
											<rect x="115.2" y="168.1" transform="matrix(-0.3062 0.952 -0.952 -0.3062 319.9873 116.7667)" class="st73" width="4.5" height="13.8"/>
									</g>
									<g>
										
											<ellipse transform="matrix(0.3062 -0.952 0.952 0.3062 -60.0121 257.7192)" class="st0" cx="146.8" cy="170" rx="6" ry="6"/>
										<path class="st71" d="M150.7,171.3c-0.7,2.2-3,3.3-5.2,2.7c-2.2-0.7-3.3-3-2.7-5.2s3-3.3,5.2-2.7
											C150.2,166.8,151.4,169.1,150.7,171.3z"/>
									</g>
									<g>
										<polygon class="st0" points="113.7,149.5 109.2,135.3 97.3,144.3 										"/>
										<polygon class="st74" points="100.9,143.7 108.3,138 111.1,146.9 										"/>
									</g>
									<g>
										
											<rect x="79.9" y="155.5" transform="matrix(0.3062 -0.952 0.952 0.3062 -75.5197 210.9727)" class="st75" width="54.2" height="3.6"/>
										<g>
											<polygon class="st76" points="117,132 105.7,167.4 103.5,168.2 102.2,166.2 113.6,130.9 											"/>
											<path class="st0" d="M112.2,151.6l-6.2-2c-0.9-0.3-1.9,0.2-2.2,1.1l-2,6.2c-0.3,0.9,0.2,1.9,1.1,2.2l6.2,2
												c0.9,0.3,1.9-0.2,2.2-1.1l2-6.2C113.6,152.8,113.1,151.9,112.2,151.6z M109.7,159.5l-6.2-2l2-6.2l6.2,2L109.7,159.5
												L109.7,159.5z"/>
										</g>
									</g>
									<g>
										
											<rect x="106.9" y="164.2" transform="matrix(0.3062 -0.952 0.952 0.3062 -65.0394 242.7487)" class="st75" width="54.2" height="3.6"/>
										<g>
											<polygon class="st76" points="144.1,140.7 132.7,176.1 130.6,177 129.3,175 140.6,139.6 											"/>
											<path class="st0" d="M139.3,160.3l-6.2-2c-0.9-0.3-1.9,0.2-2.2,1.1l-2,6.2c-0.3,0.9,0.2,1.9,1.1,2.2l6.2,2
												c0.9,0.3,1.9-0.2,2.2-1.1l2-6.2C140.7,161.6,140.2,160.6,139.3,160.3z M136.8,168.2l-6.2-2l2-6.2l6.2,2L136.8,168.2
												L136.8,168.2z"/>
										</g>
									</g>
								</g>
								<path class="st65" d="M162.3,193.2c-28.8,0-52.1-3.3-52.1-7.4c0,13.5,23.3,24.4,52.1,24.4c28.8,0,52.1-10.9,52.1-24.4
									C214.4,189.9,191.1,193.2,162.3,193.2z"/>
							</g>
							<g>
								<path class="st65" d="M478.7,150.2l-25-69.3c-6.3-17.3-12.5-34.6-17.2-47.6l-5.7-15.7c-2.5-6.9-2.5-6.9-1.9-7.7l3.1,2.2
									l-1.5-1.1l1.8-0.6c0.6,1.7,49.5,137.2,50,138.5L478.7,150.2z"/>
							</g>
							<g>
								<path class="st66" d="M432,20c-5.5,0.7-10.5-3.2-11.2-8.7s3.2-10.5,8.7-11.2c5.5-0.7,10.5,3.2,11.2,8.7
									C441.4,14.2,437.5,19.3,432,20z M430.2,5.7c-2.4,0.3-4.1,2.5-3.8,4.9c0.3,2.4,2.5,4.1,4.9,3.8c2.4-0.3,4.1-2.5,3.8-4.9
									C434.8,7.1,432.6,5.4,430.2,5.7z"/>
							</g>
							<g>
								<path class="st65" d="M380.4,151.4c-0.2,0-0.4,0-0.6-0.1c-1-0.4-1.5-1.4-1.1-2.4c0.5-1.4,49.5-136.9,50-138.5l1.8,0.6
									l1.6-1.1c0.6,0.8,0.6,0.8-1.9,7.7l-5.7,15.7c-4.7,13-10.9,30.3-17.2,47.6l-25,69.3C381.9,150.9,381.2,151.4,380.4,151.4z"/>
							</g>
							<path class="st67" d="M430.5,142.1c-28.8,0-52.1,3.3-52.1,7.4c0,4.1,23.3,7.4,52.1,7.4c28.8,0,52.1-3.3,52.1-7.4
								C482.6,145.4,459.3,142.1,430.5,142.1z"/>
							<g>
								<g>
									<path class="st25" d="M466.7,152.7c0,5.1-14,9.2-31.4,9.2c-17.3,0-31.4-4.1-31.4-9.2c0-0.8-0.5-4.5,0.2-5.3
										c3.5-4,16.7-4,31.2-4c14.7,0,27.7-0.3,31.1,3.8C467,148,466.7,152,466.7,152.7z"/>
									<g>
										<path class="st26" d="M466.4,147.3c-3.4-4-16.4-3.8-31.1-3.8c-14.5,0-27.7,0-31.2,4c-0.7,0.8-0.2,4.5-0.2,5.3
											c0,1.2,0.8,2.4,2.3,3.5v-6.3h1v6.9c1.3,0.8,3.1,1.5,5.1,2.2v-6.3h1v6.6c1.6,0.5,3.3,0.9,5.1,1.2v-6.8h1v7
											c1.6,0.3,3.3,0.5,5.1,0.7v-6.6h1v6.7c1.8,0.2,3.7,0.3,5.7,0.4v-7.1h1v7.1c1,0,2.1,0,3.1,0c0.8,0,1.6,0,2.4,0v-6.6h1v6.5
											c1.7-0.1,3.3-0.1,4.8-0.3v-6.3h1v6.2c2-0.2,4-0.4,5.8-0.7v-6.3h1v6.1c2.4-0.4,4.6-0.9,6.5-1.5v-6.4h1v6.1
											c2-0.7,3.7-1.4,5-2.3v-6.6h1v5.9c1.2-1,1.8-2,1.8-3.1C466.7,152,467,148,466.4,147.3z"/>
										<path class="st27" d="M406.2,149.9v6.3c0.3,0.2,0.6,0.4,1,0.6v-6.9H406.2z"/>
										<path class="st27" d="M412.3,152.7v6.3c0.3,0.1,0.6,0.2,1,0.3v-6.6H412.3z"/>
										<path class="st27" d="M418.4,153.7v6.8c0.3,0.1,0.7,0.1,1,0.2v-7H418.4z"/>
										<path class="st27" d="M424.5,154.8v6.6c0.3,0,0.7,0.1,1,0.1v-6.7H424.5z"/>
										<path class="st27" d="M431.2,154.8v7.1c0.3,0,0.7,0,1,0v-7.1H431.2z"/>
										<path class="st27" d="M437.7,155.4v6.6c0.3,0,0.7,0,1,0v-6.5H437.7z"/>
										<path class="st27" d="M443.6,155.4v6.3c0.3,0,0.7-0.1,1-0.1v-6.2H443.6z"/>
										<path class="st27" d="M450.4,154.5v6.3c0.3-0.1,0.7-0.1,1-0.2v-6.1H450.4z"/>
										<path class="st27" d="M457.9,152.7v6.4c0.3-0.1,0.7-0.2,1-0.3v-6.1H457.9z"/>
										<path class="st27" d="M463.9,149.9v6.6c0.4-0.2,0.7-0.5,1-0.7v-5.9H463.9z"/>
									</g>
									<path class="st28" d="M466.7,148.1c0,3.6-9.2,8.9-31.4,8.9c-25.1-0.1-31.3-5.3-31.3-8.9c0-3.6,14-6.4,31.4-6.4
										C452.6,141.7,466.7,144.6,466.7,148.1z"/>
								</g>
								<g>
									<path class="st25" d="M469.6,142.6c0,5.1-14,9.2-31.4,9.2c-17.3,0-31.4-4.1-31.4-9.2c0-0.8-0.5-4.5,0.2-5.3
										c3.5-4,16.7-4,31.2-4c14.7,0,27.7-0.3,31.1,3.8C470,137.8,469.6,141.8,469.6,142.6z"/>
									<g>
										<path class="st26" d="M469.4,137.1c-3.4-4-16.4-3.8-31.1-3.8c-14.5,0-27.7,0-31.2,4c-0.7,0.8-0.2,4.5-0.2,5.3
											c0,1.2,0.8,2.4,2.3,3.5v-6.3h1v6.9c1.3,0.8,3.1,1.5,5.1,2.2v-6.3h1v6.6c1.6,0.5,3.3,0.9,5.1,1.2v-6.8h1v7
											c1.6,0.3,3.3,0.5,5.1,0.7v-6.6h1v6.7c1.8,0.2,3.7,0.3,5.7,0.4v-7.1h1v7.1c1,0,2.1,0,3.1,0c0.8,0,1.6,0,2.4,0v-6.6h1v6.5
											c1.7-0.1,3.3-0.1,4.8-0.3v-6.3h1v6.2c2-0.2,4-0.4,5.8-0.7v-6.3h1v6.1c2.4-0.4,4.6-0.9,6.5-1.5v-6.4h1v6.1
											c2-0.7,3.7-1.4,5-2.3v-6.6h1v5.9c1.2-1,1.8-2,1.8-3.1C469.6,141.8,470,137.8,469.4,137.1z"/>
										<path class="st27" d="M409.2,139.8v6.3c0.3,0.2,0.6,0.4,1,0.6v-6.9H409.2z"/>
										<path class="st27" d="M415.3,142.6v6.3c0.3,0.1,0.6,0.2,1,0.3v-6.6H415.3z"/>
										<path class="st27" d="M421.4,143.6v6.8c0.3,0.1,0.7,0.1,1,0.2v-7H421.4z"/>
										<path class="st27" d="M427.5,144.6v6.6c0.3,0,0.7,0.1,1,0.1v-6.7H427.5z"/>
										<path class="st27" d="M434.2,144.6v7.1c0.3,0,0.7,0,1,0v-7.1H434.2z"/>
										<path class="st27" d="M440.7,145.3v6.6c0.3,0,0.7,0,1,0v-6.5H440.7z"/>
										<path class="st27" d="M446.5,145.3v6.3c0.3,0,0.7-0.1,1-0.1v-6.2H446.5z"/>
										<path class="st27" d="M453.3,144.4v6.3c0.3-0.1,0.7-0.1,1-0.2v-6.1H453.3z"/>
										<path class="st27" d="M460.9,142.6v6.4c0.3-0.1,0.7-0.2,1-0.3v-6.1H460.9z"/>
										<path class="st27" d="M466.8,139.8v6.6c0.4-0.2,0.7-0.5,1-0.7v-5.9H466.8z"/>
									</g>
									<path class="st28" d="M469.6,138c0,3.6-9.2,8.9-31.4,8.9c-25.1-0.1-31.3-5.3-31.3-8.9c0-3.6,14-6.4,31.4-6.4
										C455.6,131.5,469.6,134.4,469.6,138z"/>
								</g>
								<g>
									<path class="st25" d="M470,134.2c0,5.1-14,9.2-31.4,9.2c-17.3,0-31.4-4.1-31.4-9.2c0-0.8-0.5-4.5,0.2-5.3
										c3.5-4,16.7-4,31.2-4c14.7,0,27.7-0.3,31.1,3.8C470.3,129.4,470,133.4,470,134.2z"/>
									<g>
										<path class="st26" d="M469.7,128.7c-3.4-4-16.4-3.8-31.1-3.8c-14.5,0-27.7,0-31.2,4c-0.7,0.8-0.2,4.5-0.2,5.3
											c0,1.2,0.8,2.4,2.3,3.5v-6.3h1v6.9c1.3,0.8,3.1,1.5,5.1,2.2v-6.3h1v6.6c1.6,0.5,3.3,0.9,5.1,1.2v-6.8h1v7
											c1.6,0.3,3.3,0.5,5.1,0.7v-6.6h1v6.7c1.8,0.2,3.7,0.3,5.7,0.4v-7.1h1v7.1c1,0,2.1,0,3.1,0c0.8,0,1.6,0,2.4,0v-6.6h1v6.5
											c1.7-0.1,3.3-0.1,4.8-0.3v-6.3h1v6.2c2-0.2,4-0.4,5.8-0.7V136h1v6.1c2.4-0.4,4.6-0.9,6.5-1.5v-6.4h1v6.1
											c2-0.7,3.7-1.4,5-2.3v-6.6h1v5.9c1.2-1,1.8-2,1.8-3.1C470,133.4,470.3,129.4,469.7,128.7z"/>
										<path class="st27" d="M409.5,131.4v6.3c0.3,0.2,0.6,0.4,1,0.6v-6.9H409.5z"/>
										<path class="st27" d="M415.6,134.2v6.3c0.3,0.1,0.6,0.2,1,0.3v-6.6H415.6z"/>
										<path class="st27" d="M421.7,135.2v6.8c0.3,0.1,0.7,0.1,1,0.2v-7H421.7z"/>
										<path class="st27" d="M427.8,136.2v6.6c0.3,0,0.7,0.1,1,0.1v-6.7H427.8z"/>
										<path class="st27" d="M434.5,136.2v7.1c0.3,0,0.7,0,1,0v-7.1H434.5z"/>
										<path class="st27" d="M441,136.8v6.6c0.3,0,0.7,0,1,0v-6.5H441z"/>
										<path class="st27" d="M446.9,136.8v6.3c0.3,0,0.7-0.1,1-0.1v-6.2H446.9z"/>
										<path class="st27" d="M453.7,136v6.3c0.3-0.1,0.7-0.1,1-0.2V136H453.7z"/>
										<path class="st27" d="M461.2,134.2v6.4c0.3-0.1,0.7-0.2,1-0.3v-6.1H461.2z"/>
										<path class="st27" d="M467.2,131.4v6.6c0.4-0.2,0.7-0.5,1-0.7v-5.9H467.2z"/>
									</g>
									<path class="st28" d="M470,129.5c0,3.6-9.2,8.9-31.4,8.9c-25.1-0.1-31.3-5.3-31.3-8.9c0-3.6,14-6.4,31.4-6.4
										C455.9,123.1,470,126,470,129.5z"/>
								</g>
								<g>
									<path class="st25" d="M473.6,123.8c0,5.1-14,9.2-31.4,9.2s-31.4-4.1-31.4-9.2c0-0.8-0.5-4.5,0.2-5.3c3.5-4,16.7-4,31.2-4
										c14.7,0,27.7-0.3,31.1,3.8C473.9,119,473.6,123,473.6,123.8z"/>
									<g>
										<path class="st26" d="M473.3,118.3c-3.4-4-16.4-3.8-31.1-3.8c-14.5,0-27.7,0-31.2,4c-0.7,0.8-0.2,4.5-0.2,5.3
											c0,1.2,0.8,2.4,2.3,3.5V121h1v6.9c1.3,0.8,3.1,1.5,5.1,2.2v-6.3h1v6.6c1.6,0.5,3.3,0.9,5.1,1.2v-6.8h1v7
											c1.6,0.3,3.3,0.5,5.1,0.7v-6.6h1v6.7c1.8,0.2,3.7,0.3,5.7,0.4v-7.1h1v7.1c1,0,2.1,0,3.1,0c0.8,0,1.6,0,2.4,0v-6.6h1v6.5
											c1.7-0.1,3.3-0.1,4.8-0.3v-6.3h1v6.2c2-0.2,4-0.4,5.8-0.7v-6.3h1v6.1c2.4-0.4,4.6-0.9,6.5-1.5v-6.4h1v6.1
											c2-0.7,3.7-1.4,5-2.3V121h1v5.9c1.2-1,1.8-2,1.8-3.1C473.6,123,473.9,119,473.3,118.3z"/>
										<path class="st27" d="M413.1,121v6.3c0.3,0.2,0.6,0.4,1,0.6V121H413.1z"/>
										<path class="st27" d="M419.2,123.8v6.3c0.3,0.1,0.6,0.2,1,0.3v-6.6H419.2z"/>
										<path class="st27" d="M425.3,124.8v6.8c0.3,0.1,0.7,0.1,1,0.2v-7H425.3z"/>
										<path class="st27" d="M431.4,125.8v6.6c0.3,0,0.7,0.1,1,0.1v-6.7H431.4z"/>
										<path class="st27" d="M438.1,125.8v7.1c0.3,0,0.7,0,1,0v-7.1H438.1z"/>
										<path class="st27" d="M444.6,126.5v6.6c0.3,0,0.7,0,1,0v-6.5H444.6z"/>
										<path class="st27" d="M450.5,126.5v6.3c0.3,0,0.7-0.1,1-0.1v-6.2H450.5z"/>
										<path class="st27" d="M457.3,125.6v6.3c0.3-0.1,0.7-0.1,1-0.2v-6.1H457.3z"/>
										<path class="st27" d="M464.8,123.8v6.4c0.3-0.1,0.7-0.2,1-0.3v-6.1H464.8z"/>
										<path class="st27" d="M470.8,121v6.6c0.4-0.2,0.7-0.5,1-0.7V121H470.8z"/>
									</g>
									<path class="st28" d="M473.6,119.2c0,3.6-9.2,8.9-31.4,8.9c-25.1-0.1-31.3-5.3-31.3-8.9c0-3.6,14-6.4,31.4-6.4
										S473.6,115.6,473.6,119.2z"/>
								</g>
								<g>
									<path class="st25" d="M469.7,114.5c0,5.1-14,9.2-31.4,9.2s-31.4-4.1-31.4-9.2c0-0.8-0.5-4.5,0.2-5.3c3.5-4,16.7-4,31.2-4
										c14.7,0,27.7-0.3,31.1,3.8C470,109.7,469.7,113.7,469.7,114.5z"/>
									<g>
										<path class="st26" d="M469.4,109c-3.4-4-16.4-3.8-31.1-3.8c-14.5,0-27.7,0-31.2,4c-0.7,0.8-0.2,4.5-0.2,5.3
											c0,1.2,0.8,2.4,2.3,3.5v-6.3h1v6.9c1.3,0.8,3.1,1.5,5.1,2.2v-6.3h1v6.6c1.6,0.5,3.3,0.9,5.1,1.2v-6.8h1v7
											c1.6,0.3,3.3,0.5,5.1,0.7v-6.6h1v6.7c1.8,0.2,3.7,0.3,5.7,0.4v-7.1h1v7.1c1,0,2.1,0,3.1,0c0.8,0,1.6,0,2.4,0v-6.6h1v6.5
											c1.7-0.1,3.3-0.1,4.8-0.3v-6.3h1v6.2c2-0.2,4-0.4,5.8-0.7v-6.3h1v6.1c2.4-0.4,4.6-0.9,6.5-1.5v-6.4h1v6.1
											c2-0.7,3.7-1.4,5-2.3v-6.6h1v5.9c1.2-1,1.8-2,1.8-3.1C469.7,113.7,470,109.7,469.4,109z"/>
										<path class="st27" d="M409.2,111.7v6.3c0.3,0.2,0.6,0.4,1,0.6v-6.9H409.2z"/>
										<path class="st27" d="M415.3,114.5v6.3c0.3,0.1,0.6,0.2,1,0.3v-6.6H415.3z"/>
										<path class="st27" d="M421.4,115.5v6.8c0.3,0.1,0.7,0.1,1,0.2v-7H421.4z"/>
										<path class="st27" d="M427.5,116.5v6.6c0.3,0,0.7,0.1,1,0.1v-6.7H427.5z"/>
										<path class="st27" d="M434.2,116.5v7.1c0.3,0,0.7,0,1,0v-7.1H434.2z"/>
										<path class="st27" d="M440.7,117.2v6.6c0.3,0,0.7,0,1,0v-6.5H440.7z"/>
										<path class="st27" d="M446.6,117.2v6.3c0.3,0,0.7-0.1,1-0.1v-6.2H446.6z"/>
										<path class="st27" d="M453.4,116.3v6.3c0.3-0.1,0.7-0.1,1-0.2v-6.1H453.4z"/>
										<path class="st27" d="M460.9,114.5v6.4c0.3-0.1,0.7-0.2,1-0.3v-6.1H460.9z"/>
										<path class="st27" d="M466.9,111.7v6.6c0.4-0.2,0.7-0.5,1-0.7v-5.9H466.9z"/>
									</g>
									<path class="st28" d="M469.7,109.9c0,3.6-9.2,8.9-31.4,8.9c-25.1-0.1-31.3-5.3-31.3-8.9c0-3.6,14-6.4,31.4-6.4
										S469.7,106.3,469.7,109.9z"/>
								</g>
								<g>
									<path class="st25" d="M476.5,106.2c0,5.1-14,9.2-31.4,9.2c-17.3,0-31.4-4.1-31.4-9.2c0-0.8-0.5-4.5,0.2-5.3
										c3.5-4,16.7-4,31.2-4c14.7,0,27.7-0.3,31.1,3.8C476.9,101.4,476.5,105.4,476.5,106.2z"/>
									<g>
										<path class="st26" d="M476.3,100.7c-3.4-4-16.4-3.8-31.1-3.8c-14.5,0-27.7,0-31.2,4c-0.7,0.8-0.2,4.5-0.2,5.3
											c0,1.2,0.8,2.4,2.3,3.5v-6.3h1v6.9c1.3,0.8,3.1,1.5,5.1,2.2v-6.3h1v6.6c1.6,0.5,3.3,0.9,5.1,1.2v-6.8h1v7
											c1.6,0.3,3.3,0.5,5.1,0.7v-6.6h1v6.7c1.8,0.2,3.7,0.3,5.7,0.4v-7.1h1v7.1c1,0,2.1,0,3.1,0c0.8,0,1.6,0,2.4,0v-6.6h1v6.5
											c1.7-0.1,3.3-0.1,4.8-0.3v-6.3h1v6.2c2-0.2,4-0.4,5.8-0.7V108h1v6.1c2.4-0.4,4.6-0.9,6.5-1.5v-6.4h1v6.1
											c2-0.7,3.7-1.4,5-2.3v-6.6h1v5.9c1.2-1,1.8-2,1.8-3.1C476.5,105.4,476.9,101.4,476.3,100.7z"/>
										<path class="st27" d="M416.1,103.4v6.3c0.3,0.2,0.6,0.4,1,0.6v-6.9H416.1z"/>
										<path class="st27" d="M422.2,106.2v6.3c0.3,0.1,0.6,0.2,1,0.3v-6.6H422.2z"/>
										<path class="st27" d="M428.3,107.1v6.8c0.3,0.1,0.7,0.1,1,0.2v-7H428.3z"/>
										<path class="st27" d="M434.4,108.2v6.6c0.3,0,0.7,0.1,1,0.1v-6.7H434.4z"/>
										<path class="st27" d="M441.1,108.2v7.1c0.3,0,0.7,0,1,0v-7.1H441.1z"/>
										<path class="st27" d="M447.6,108.8v6.6c0.3,0,0.7,0,1,0v-6.5H447.6z"/>
										<path class="st27" d="M453.4,108.8v6.3c0.3,0,0.7-0.1,1-0.1v-6.2H453.4z"/>
										<path class="st27" d="M460.2,108v6.3c0.3-0.1,0.7-0.1,1-0.2V108H460.2z"/>
										<path class="st27" d="M467.8,106.2v6.4c0.3-0.1,0.7-0.2,1-0.3v-6.1H467.8z"/>
										<path class="st27" d="M473.7,103.4v6.6c0.4-0.2,0.7-0.5,1-0.7v-5.9H473.7z"/>
									</g>
									<path class="st28" d="M476.5,101.5c0,3.6-9.2,8.9-31.4,8.9c-25.1-0.1-31.3-5.3-31.3-8.9c0-3.6,14-6.4,31.4-6.4
										C462.5,95.1,476.5,98,476.5,101.5z"/>
								</g>
								<g>
									<path class="st25" d="M472.9,97.6c0,5.1-14,9.2-31.4,9.2c-17.3,0-31.4-4.1-31.4-9.2c0-0.8-0.5-4.5,0.2-5.3
										c3.5-4,16.7-4,31.2-4c14.7,0,27.7-0.3,31.1,3.8C473.3,92.8,472.9,96.8,472.9,97.6z"/>
									<g>
										<path class="st26" d="M472.7,92.1c-3.4-4-16.4-3.8-31.1-3.8c-14.5,0-27.7,0-31.2,4c-0.7,0.8-0.2,4.5-0.2,5.3
											c0,1.2,0.8,2.4,2.3,3.5v-6.3h1v6.9c1.3,0.8,3.1,1.5,5.1,2.2v-6.3h1v6.6c1.6,0.5,3.3,0.9,5.1,1.2v-6.8h1v7
											c1.6,0.3,3.3,0.5,5.1,0.7v-6.6h1v6.7c1.8,0.2,3.7,0.3,5.7,0.4v-7.1h1v7.1c1,0,2.1,0,3.1,0c0.8,0,1.6,0,2.4,0v-6.6h1v6.5
											c1.7-0.1,3.3-0.1,4.8-0.3v-6.3h1v6.2c2-0.2,4-0.4,5.8-0.7v-6.3h1v6.1c2.4-0.4,4.6-0.9,6.5-1.5v-6.4h1v6.1
											c2-0.7,3.7-1.4,5-2.3v-6.6h1v5.9c1.2-1,1.8-2,1.8-3.1C472.9,96.8,473.3,92.8,472.7,92.1z"/>
										<path class="st27" d="M412.5,94.8v6.3c0.3,0.2,0.6,0.4,1,0.6v-6.9H412.5z"/>
										<path class="st27" d="M418.6,97.6v6.3c0.3,0.1,0.6,0.2,1,0.3v-6.6H418.6z"/>
										<path class="st27" d="M424.7,98.6v6.8c0.3,0.1,0.7,0.1,1,0.2v-7H424.7z"/>
										<path class="st27" d="M430.8,99.6v6.6c0.3,0,0.7,0.1,1,0.1v-6.7H430.8z"/>
										<path class="st27" d="M437.5,99.6v7.1c0.3,0,0.7,0,1,0v-7.1H437.5z"/>
										<path class="st27" d="M444,100.2v6.6c0.3,0,0.7,0,1,0v-6.5H444z"/>
										<path class="st27" d="M449.8,100.2v6.3c0.3,0,0.7-0.1,1-0.1v-6.2H449.8z"/>
										<path class="st27" d="M456.6,99.4v6.3c0.3-0.1,0.7-0.1,1-0.2v-6.1H456.6z"/>
										<path class="st27" d="M464.2,97.6v6.4c0.3-0.1,0.7-0.2,1-0.3v-6.1H464.2z"/>
										<path class="st27" d="M470.1,94.8v6.6c0.4-0.2,0.7-0.5,1-0.7v-5.9H470.1z"/>
									</g>
									<path class="st28" d="M472.9,92.9c0,3.6-9.2,8.9-31.4,8.9c-25.1-0.1-31.3-5.3-31.3-8.9c0-3.6,14-6.4,31.4-6.4
										C458.9,86.5,472.9,89.4,472.9,92.9z"/>
								</g>
								<g>
									
										<ellipse transform="matrix(0.9826 -0.1859 0.1859 0.9826 -18.7551 79.1852)" class="st28" cx="412.8" cy="139.6" rx="27" ry="27.6"/>
									<g>
										<path class="st25" d="M413,165.7c-12.1,0-22.9-8.8-25.3-21.3c-2.7-14.1,6.4-27.8,20.2-30.4c13.8-2.6,27.3,6.7,30,20.9l0,0
											c1.3,6.8-0.1,13.8-3.9,19.5c-3.8,5.7-9.6,9.6-16.3,10.9C416.1,165.5,414.6,165.7,413,165.7z M412.6,117
											c-1.3,0-2.7,0.1-4,0.4c-11.9,2.3-19.8,14-17.4,26.3c2.3,12.2,13.9,20.3,25.8,18.1c5.8-1.1,10.8-4.4,14.1-9.4
											c3.3-5,4.5-11,3.4-16.9l0,0C432.4,124.6,423.1,117,412.6,117z"/>
									</g>
									<g>
										<g>
											<path class="st25" d="M421.6,129.9c-0.6-3-3-5.8-5.8-7c-2.3-1-4.8-0.4-7,0.6c-2.3,1-4.8,2.4-6.4,4.5
												c-1.9,2.5-1.2,5.4,0.5,7.8c1.8,2.6,4,3.8,7,4.3c3.4,0.5,7,0.3,10,2.1c5.2,3.1,2.7,9.7-2.9,10.3
												c-4.7,0.5-10.3-1.7-10.5-7.1c0-0.9-2.9,0.2-2.9,1c0.3,7.7,9.7,9.1,15.5,6.9c2.7-1,5.4-2.9,6.3-5.7c1-3.2-0.7-5.9-3.6-7.3
												c-2.8-1.4-6-1.4-9.1-1.8c-4-0.5-7.3-2.7-8.5-6.8c-1.1-3.9,2.9-7.4,6.7-7.6c3.7-0.2,7,3.8,7.6,7.1
												C418.8,131.8,421.8,130.8,421.6,129.9L421.6,129.9z"/>
										</g>
										<g>
											<path class="st25" d="M405.4,121.2c2.3,13.2,4.6,26.5,6.9,39.7c0.1,0.7,3-0.3,2.9-1.3c-2.3-13.2-4.6-26.5-6.9-39.7
												C408.2,119.1,405.2,120.2,405.4,121.2L405.4,121.2z"/>
										</g>
										<g>
											<path class="st25" d="M410,119.7c2.3,13.2,4.6,26.5,6.9,39.7c0.1,0.7,3-0.3,2.9-1.3c-2.3-13.2-4.6-26.5-6.9-39.7
												C412.8,117.6,409.9,118.6,410,119.7L410,119.7z"/>
										</g>
									</g>
								</g>
							</g>
							<g>
								<path class="st48" d="M236.4,34.5c-0.5-0.1-0.9-0.4-1-0.9c-0.2-1.2-2-3.7-2.2-6.1c-0.1-1.3-0.1-3.2,0.7-4.9
									c0.6-1.2,2.3-2,3.2-2.2c0.5-0.1,1.2-0.1,1.8-0.1c0.5,0,0.8,0.4,0.9,0.9c0,1.6-0.9,4-0.3,6.6c0,0,2.5-0.9,3.1-0.6
									c0.6,0.4-2.1,3.7-3.1,4.6c0,0-1.4,2-1.6,2.7C237.8,35,237.3,34.6,236.4,34.5z"/>
							</g>
							<path class="st19" d="M246.3,83.4c0,0,0.8-36.3-0.8-42.5c-0.5-2-4.1-5.2-6.3-6.5c-1.6-0.9-6.5-2.4-7.9-1.3
								c-4.3,3.1-5.7,43.3,5.4,59.2C243.5,101.9,246.3,83.4,246.3,83.4z"/>
							<path class="st19" d="M286.4,97.8c-13-2-37.4-9.5-37.4-9.5s-24.3-3.4-8.7,9.3c9.1,7.4,31.5,13.9,45.2,15.7
								C291,114.9,293.1,98.9,286.4,97.8z"/>
							<g>
								<path class="st48" d="M359.7,19.8c0.5-0.1,0.8-0.6,0.8-1c0-1.3,1.4-4,1.3-6.3c-0.1-1.3-0.4-3.2-1.4-4.7
									c-0.7-1.1-2.6-1.6-3.5-1.6c-0.5,0-1.2,0.1-1.8,0.2c-0.5,0.1-0.8,0.5-0.7,1c0.2,1.6,1.5,3.8,1.3,6.4c0,0-2.7-0.5-3.2-0.1
									c-0.5,0.5,2.6,3.3,3.7,4.1c0,0,1.7,1.7,2,2.4C358.4,20.5,358.8,20.1,359.7,19.8z"/>
							</g>
							<path class="st18" d="M346.3,68.3c0,0,2-36.2,4.1-42.3c0.7-2,4.4-4.9,6.8-6c1.7-0.8,6.6-1.8,8-0.7c4.1,3.4,2.4,43.7-9.9,58.6
								C347.8,86.9,346.3,68.3,346.3,68.3z"/>
							<path class="st18" d="M320.2,91.9c14.2-6.2,26-24.1,26-24.1s18.6-16,12.3,3.1c-3.6,11.1-19,28.7-29.5,37.7
								C325.2,112.9,314,94.6,320.2,91.9z"/>
							<path class="st0" d="M318.5,94.4c-10.4,2.2-10.6-4.9-37.2,1.7c-2.6,0.7-5,3.9-7.5,5.4c2.2,8.9-0.8,21.1-0.8,21.1
								c3,5.7,5.3,12.4,6.9,18.2c2.1,7.6,4.5,24.4,4.5,24.4s18.4,0.7,27.2,0c7.3-0.5,21.5-4.6,21.5-8.9c-0.1-8.6-1-22.1-3.7-34.3
								C326.2,107.8,318.5,94.4,318.5,94.4z"/>
							<path class="st19" d="M292.7,94c0,0,7.3,68.6,2.8,87.9c-0.5,2.2-2.4,3.8-4.7,3.8l-31.1-3c0,0,4.4-10.3,6.6-14.2
								c2.9-5.4,10.8-18.4,10.8-18.4l-10.4-42.1c0,0,0.1-15.9,5.7-14.1C281.9,97.1,284,94.5,292.7,94z"/>
							<path class="st18" d="M296.9,154.9L285.8,117l3.3-2.1l-6-1.5l1.6-11.8c0.5-3.8,3.2-6.9,6.9-7.8c1-0.2,2.1-0.4,3.3-0.6
								l-1.3,3.5c-0.5,1.3-0.3,3.2,0,4.5l3.4,16.1c0.5,2.4,0.9,11,0.8,13.5L296.9,154.9z"/>
							<path class="st57" d="M299.5,99.7c0,0,10.8,49.4,5.5,65.9c0,0,20,0,25.8-6.1c4.4-4.6-16.6-64.8-16.6-64.8L299.5,99.7z"/>
							<path class="st18" d="M302,94.3c0,0,21.6,58.3,24.6,88c0.2,1.5,1.8,2.4,3.2,1.8l13.1-2.1l-9.1-34.6c0,0-1.6-21.7-2.7-27
								c-0.4-2-1.4-7.9-2.9-13.3c-0.7-2.5,6.1-8.9,6.1-8.9s-10.2-6.1-14-6.1c-13.1,0-18.4,1.3-18.4,1.3L302,94.3z"/>
							<path class="st47" d="M302.2,97.4l-1,3.5l-1.6,0.4l-3.2-3C296.4,98.2,299.3,95,302.2,97.4z"/>
							<path class="st47" d="M299.5,99.4c0,0,1.6,23.3,1.8,31.4c0.2,8.1,0.3,9.6,0.3,9.6l7.3,4l4.7-5.7c0,0-10.1-36.2-13-39.3
								C297.7,96.2,299.5,99.4,299.5,99.4z"/>
							<path class="st57" d="M294.6,93.2c0,0,0.2,0.5,4.4,3.4l-1.6,5.4C297.4,102,291.7,100,294.6,93.2z"/>
							<path class="st19" d="M320.9,153.7l-3-43.2l-3.8-0.4l4.8-3.9l-6.6-10c-2.1-3.2-4.5-3.9-9.5-3.7c-1,0-2.2,0.2-3.3,0.6l2.3,2.6
								c1,0.9,1.9,2.7,2.3,4L320.9,153.7z"/>
							<g>
								<g>
									<path class="st48" d="M294.7,87.5c0,0-0.6,6.7,0.4,7.9c0.8,0.9,4.2,2.3,5.6,0.1c0.3-0.5,0.3-1.1,0.3-1.9
										c-0.1-2.8-1.7-6.8-1.7-6.8L294.7,87.5z"/>
								</g>
								<g>
									<path class="st49" d="M294.6,90.8c1.5,1.3,4.3,2.4,6.3,1.3c-0.2-1.5-0.5-2.4-0.9-3.6l-5.3,0.1
										C294.6,89.8,294.5,89.5,294.6,90.8z"/>
								</g>
							</g>
							<path class="st0" d="M300.9,92.6c0,0,0.2,0.8-0.6,2.4c-0.3,0.5-0.6,1.1-1.4,1.6l4.1,3.4C303,100,306.9,96.9,300.9,92.6z"/>
							<path class="st48" d="M298.4,75.6c-3.6-1.7-9.5,3.1-10.2,4.5c-0.7,1.6,0.3,3.4,1.1,4.7c0.7,1.4,5.1,6.5,9.8,4.7
								C307.9,86.2,298.4,75.6,298.4,75.6z"/>
							<g>
								<path class="st19" d="M302,60.8c-0.1-0.2-1.2-1.4-1.5-1.6c-0.5-0.3-1.1,0-1,0.5c0.7,5.6-8.3,4.7-11.3,7.8
									c-1,1-1.6,2.4-1.6,3.7c-2.4,1.1-4.7,3.7-4.7,6.5c0,7.8,10.2,10.1,10.5,10.4c0.1,0.1-1.1-1.5-1.7-3.2c-0.8-2.2-1.7-5,0.6-7.1
									c0.2-0.2,0.4-0.3,0.6-0.5c3.2-1.8,7.5-1.5,10.4-4.1c0.1-0.1,0.2-0.2,0.3-0.3C306.1,69.9,304.4,64.6,302,60.8z"/>
							</g>
							<path class="st77" d="M291.4,87.8c-1.9-0.5-3.6-1.3-5.2-2.4c-0.8-0.6-1.5-1.2-2.2-1.9c-0.7-0.7-1.2-1.6-1.6-2.5
								c-0.7-1.8-0.9-4-0.1-5.9c0.4-0.9,0.9-1.8,1.7-2.5c0.7-0.7,1.6-1.3,2.6-1.6l-0.3,0.5c-0.1-0.9,0.1-1.7,0.4-2.5
								c0.3-0.8,0.9-1.4,1.5-1.9c0.6-0.5,1.3-0.9,2-1.3c0.4-0.1,0.7-0.3,1.1-0.4l1.1-0.3l0,0c1.3-0.2,2.7-0.6,3.9-1.1
								c0.6-0.2,1.3-0.6,1.8-0.9c0.5-0.4,1.1-0.9,1.3-1.6c-0.1,0.7-0.6,1.3-1.2,1.7c-0.5,0.5-1.1,0.8-1.8,1.1c-1.3,0.6-2.6,1-4,1.4
								l0,0l-1,0.4l-1,0.5c-0.6,0.4-1.2,0.7-1.7,1.2c-0.5,0.5-0.9,1-1.2,1.7c-0.3,0.6-0.4,1.3-0.3,1.9l0,0c0,0.2-0.1,0.4-0.3,0.5
								c-1.7,0.6-3,1.9-3.7,3.6c-0.7,1.6-0.7,3.6,0,5.3c0.6,1.7,1.9,3.1,3.4,4.3C287.9,86.2,289.6,87.2,291.4,87.8z"/>
							<g>
								<path class="st65" d="M430.5,156.9c-28.8,0-52.1-3.3-52.1-7.4c0,13.5,23.3,24.4,52.1,24.4c28.8,0,52.1-10.9,52.1-24.4
									C482.6,153.6,459.3,156.9,430.5,156.9z"/>
							</g>
						</g>
						<g>
							<g>
								<g>
									<path class="st57" d="M441.6,277.4c10.8-0.1,30.8-0.2,41.5-0.4c2.4,0,4-2.7,1.2-2.7c-10.8,0.1-30.8,0.2-41.5,0.4
										C440.4,274.7,438.8,277.4,441.6,277.4L441.6,277.4z"/>
								</g>
							</g>
							<g>
								<g>
									<path class="st57" d="M441.7,338.4c10.8-0.1,30.8-0.2,41.5-0.4c2,0,4.2-3.3,1.8-3.2c-10.8,0.1-30.8,0.2-41.5,0.4
										C441.5,335.1,439.2,338.4,441.7,338.4L441.7,338.4z"/>
								</g>
							</g>
							<g>
								<g>
									<path class="st57" d="M441.7,307.9c10.7-0.1,30.6-0.2,41.3-0.3c2.1,0,4.2-3.1,1.5-3.1c-10.7,0.1-30.6,0.2-41.3,0.3
										C441.1,304.9,439,307.9,441.7,307.9L441.7,307.9z"/>
								</g>
							</g>
							<g>
								<g>
									<path class="st57" d="M442.7,368.4c10.8-0.1,30.9-0.2,41.7-0.4c2.7,0,3-2.7,0.3-2.7c-10.8,0.1-30.9,0.2-41.7,0.4
										C440.2,365.8,440,368.5,442.7,368.4L442.7,368.4z"/>
								</g>
							</g>
							<g>
								<g>
									<path class="st57" d="M438.9,186.7c10-0.4,29.4-0.8,39.4-1.2c2.3-0.1,3.7-2.8,1-2.7c-10,0.4-29.4,0.8-39.4,1.2
										C437.7,184.1,436.3,186.8,438.9,186.7L438.9,186.7z"/>
								</g>
							</g>
							<g>
								<g>
									<path class="st57" d="M440,217.3c10.7-0.4,30.6-0.8,41.3-1.3c2.1-0.1,4.1-3.2,1.4-3.1c-10.7,0.4-30.6,0.8-41.3,1.3
										C439.3,214.3,437.3,217.4,440,217.3L440,217.3z"/>
								</g>
							</g>
							<g>
								<g>
									<path class="st57" d="M441.8,247.4c9.9-0.4,29.2-0.8,39.1-1.2c2.6-0.1,2.2-2.8-0.1-2.7c-9.9,0.4-29.2,0.8-39.1,1.2
										C439.1,244.8,439.5,247.5,441.8,247.4L441.8,247.4z"/>
								</g>
							</g>
							<g>
								<g>
									<path class="st57" d="M436.1,171.8c0.1,15.5,4,114.6,4.1,130.1c0.2,24.6,0.3,49.1,0.5,73.7c0,5.7,0.1,11.3,0.1,17
										c0,1.7,4.4,0.9,4.4-0.9c-0.1-15.5-0.2-31-0.3-46.5c-0.2-24.6-0.3-49.1-0.5-73.7c0-5.7-3.8-95-3.9-100.6
										C440.5,169.2,436.1,170.1,436.1,171.8L436.1,171.8z"/>
								</g>
							</g>
							<g>
								<g>
									<path class="st57" d="M478.9,171.6c0.1,15.5,4,114.6,4.1,130.1c0.2,24.6,0.3,49.1,0.5,73.7c0,5.7,0.1,11.3,0.1,17
										c0,2.2,3.3,2,3.3-0.2c-0.1-15.5-0.2-31-0.3-46.5c-0.2-24.6-0.3-49.1-0.5-73.7c0-5.7-3.8-95-3.9-100.6
										C482.1,169.2,478.9,169.4,478.9,171.6L478.9,171.6z"/>
								</g>
							</g>
						</g>
						<g>
							<g>
								<g>
									<g>
										<path class="st47" d="M468.6,304.7c-0.1-0.9,3.3-2.2,5.6-2.9c-0.7,0.4-1.3,1.1-0.3,1.3c1.6,0.4,4.9-0.1,5.9-1.3
											c0.4,0.8,0.5,2,0.5,2.8C480.4,305.7,468.8,306.7,468.6,304.7z"/>
									</g>
								</g>
								<g>
									<g>
										<path class="st48" d="M473.9,303.2c-1.1-0.3-0.4-0.9,0.3-1.3c1.4-0.5,2.6-0.8,2.8-0.9c0.7-0.3,0.9-0.9,0.9-0.9l0.7-0.2
											c0,0,1.2,1.8,1.3,2.1C478.9,303,475.5,303.6,473.9,303.2z"/>
									</g>
								</g>
							</g>
							<g>
								<g>
									<g>
										<path class="st47" d="M450.1,305.6c-0.2-0.6,3.3-2.2,5.6-2.9c-0.7,0.4-1.3,1.1-0.3,1.3c1.6,0.4,4.9-0.1,5.9-1.3
											c0.4,0.8,0.5,2,0.5,2.8C461.9,306.5,450.8,307.4,450.1,305.6z"/>
									</g>
								</g>
								<g>
									<g>
										<path class="st48" d="M455.4,304c-1.1-0.3-0.4-0.9,0.3-1.3c1.4-0.5,2.6-0.8,2.8-0.9c0.7-0.3,0.9-0.9,0.9-0.9l0.7-0.2
											c0,0,1.2,1.8,1.3,2.1C460.4,303.8,457,304.4,455.4,304z"/>
									</g>
								</g>
							</g>
							<g>
								<g>
									<path class="st48" d="M465.9,179.6c0,0.3,8.1,7.8,10.4,16.5c5.3,19.3,2.7,92.8,2.5,104c0,0.9-1,0.6-1.1-0.1l-22.3-91.3
										l-2.5,28.8l7.5,63.7l-1.4,0.1c0,0-22.6-51.9-24.5-65.9c-5-37,5.9-53.1,6.7-55.4C444.3,181.4,460.3,182.5,465.9,179.6z"/>
								</g>
							</g>
							<path class="st19" d="M441.8,178.8c-0.2,0.3-6.8,13.2-7.6,22.9c-0.8,9.7-1.4,17.3,0.3,32.6c0,0,6.2,3.5,34.4,1l1.4-18.5
								l3.6,17.6c0,0,4.3,0.3,5.6-0.3c0,0,0.1-29.7-3.4-39c-3.6-9.2-11.9-17.7-11.9-17.7L441.8,178.8z"/>
							<path class="st32" d="M456.5,236.1c0,0,0.7,0,1.1,0c3.3-0.1,7.1-0.4,11.3-0.7l1.4-18.5l3.6,17.6c0,0,4.3,0.3,5.6-0.3
								c0,0,0.1-29.7-3.4-39c-3.6-9.2-11.9-17.7-11.9-17.7l-12.1,0.5c0,0,8.4,11.6,8.1,24.5C459.9,220.2,456.5,236.1,456.5,236.1z"
								/>
							<g>
								<ellipse class="st28" cx="427.2" cy="99.7" rx="29.2" ry="29.9"/>
								<g>
									<path class="st25" d="M427.2,129.3c-16,0-29-13.3-29-29.6s13-29.6,29-29.6c16,0,29,13.3,29,29.6S443.2,129.3,427.2,129.3z
										 M427.2,76.7c-12.4,0-22.5,10.3-22.5,23.1s10.1,23.1,22.5,23.1c12.4,0,22.5-10.3,22.5-23.1S439.6,76.7,427.2,76.7z"/>
								</g>
								<g>
									<g>
										<path class="st25" d="M438.5,91.1c0-3.3-2-6.8-4.8-8.6c-2.3-1.5-5-1.3-7.5-0.8c-2.7,0.6-5.6,1.6-7.7,3.5
											c-2.5,2.2-2.4,5.5-1.1,8.4c1.4,3.1,3.5,4.9,6.6,6c3.5,1.2,7.3,1.7,10.2,4.2c5,4.3,0.9,10.9-5.2,10.4
											c-5.1-0.4-10.6-3.9-9.8-9.7c0.1-0.9-3.1-0.4-3.3,0.5c-1.2,8.3,8.5,11.6,15.1,10.5c3.1-0.5,6.3-2,7.9-4.8
											c1.7-3.2,0.4-6.4-2.3-8.5c-2.7-2.1-6.1-2.7-9.3-3.7c-4.1-1.3-7.2-4.4-7.6-8.9c-0.4-4.4,4.6-7.3,8.7-6.7
											c3.9,0.6,6.6,5.5,6.7,9.1C435.1,92.6,438.5,92.2,438.5,91.1L438.5,91.1z"/>
									</g>
									<g>
										<path class="st25" d="M423,78.7c-0.2,14.5-0.5,29.1-0.7,43.6c0,0.8,3.3,0.3,3.3-0.8c0.2-14.5,0.5-29.1,0.7-43.6
											C426.4,77,423,77.5,423,78.7L423,78.7z"/>
									</g>
									<g>
										<path class="st25" d="M428.2,78c-0.2,14.5-0.5,29.1-0.7,43.6c0,0.8,3.3,0.3,3.3-0.8c0.2-14.5,0.5-29.1,0.7-43.6
											C431.6,76.3,428.2,76.8,428.2,78L428.2,78z"/>
									</g>
								</g>
							</g>
							<g>
								<path class="st57" d="M454.7,100.4c-0.6,0.5-0.8,1.3-0.5,1.9c2.1,5,12.2,28,14,30.1c1.5,1.8,6.2,7,7.1,1.7
									c0.3-1.9,0.3-10.2-0.2-16.7C474.1,106.6,467,90.2,454.7,100.4z"/>
							</g>
							<g>
								<g>
									<path class="st48" d="M450.7,145.4c0,0-0.5,5.1-0.2,5.6c0.4,0.6,1.6,1.2,2.3-0.1c0.7-1.3-0.2-5.7-0.2-5.7L450.7,145.4z"/>
								</g>
								<g>
									<path class="st49" d="M450.4,149.1c0.8,0.4,1.8,0.1,2.7-0.5c0-0.9-0.1-1.4-0.2-2.2l-2.3,0.1
										C450.5,147.3,450.4,148.2,450.4,149.1z"/>
								</g>
							</g>
							<g>
								<path class="st0" d="M409.8,117.1c0.7-0.2,1.5,0,1.9,0.6c3.1,4.4,17.3,24.1,18.1,26.8c0.7,2.4,3,11.7-2.7,8.1
									c-3.3-2.1-11.2-8.3-13.7-10.5C405.2,135.1,394.8,122,409.8,117.1z"/>
							</g>
							<g>
								<path class="st48" d="M406.7,120.8c-0.3,0.2-0.8,0.2-1.1,0c-0.9-0.7-2.2-1.8-3.7-3.2c-0.7-0.6-1.6-2-2-2.9
									c-0.5-1.3-0.5-2.5-0.4-2.8c0.1-1.1,0.8-0.6,0.8-0.6s0.1-1,0.6-0.7c0.5,0.3,2.5,4.1,3.9,4.7c0,0-0.4-2.2,0.2-2.3
									c0.6-0.1,2.3,3.1,2.3,4.2c0,0,0.3,1.3,0.7,1.9C408,119.6,407.3,120.4,406.7,120.8z"/>
							</g>
							<g>
								<path class="st48" d="M458.5,99.4c0.4-0.1,0.6-0.5,0.6-0.9c0-1.1-0.2-2.9-0.4-4.9c-0.1-0.9-0.8-2.2-1.3-3
									c-0.8-1.2-1.8-2-2.1-2.1c-0.9-0.6-0.7,0.2-0.7,0.2s-0.5-0.4-0.9,0.1s1,3.7,0.9,5.8c0,0-0.9-1.6-1.3-1.2
									c-0.4,0.4,1.1,3.7,2.1,4.3c0,0,0.8,1,1.1,1.6C456.7,99.7,457.8,99.6,458.5,99.4z"/>
							</g>
							<path class="st0" d="M427.5,141.3c0,0,2.4,4.5,7.9,8c2.2,1.4,4.9,2.1,7.5,1.8c5.5-0.5,15.7-1.6,20.7-2.2
								c1.7-0.2,3-1.5,3.3-3.2c0,0,0,0,0,0c0.9-6.3,1.2-13.7,1.2-13.7l6.1-4.3c0,0,3.3,7.6,0,19.8c-1.2,4.4-2.7,7-3.8,9
								c-0.4,0.7-1.6,8.2-2,10.9c-0.6,4.3-1.9,9.8-2.4,12.1c-6.7,3.6-22.2,2.4-25.4,1.8c0-0.2-1.2-5.6-1.9-10.3
								c-0.7-4.3-1.8-7.7-2.4-10.6c-0.2-0.9-0.8-1.7-1.5-2.5c-0.7-0.7-1.9-1.4-2.9-2.1c-10.7-6.7-12.2-15-12.2-15L427.5,141.3z"/>
							<path class="st57" d="M457.2,149.7c0,0,0.6-0.1,0.9-0.1c2.1-0.2,4-0.4,5.5-0.6c1.7-0.2,3-1.5,3.3-3.2c0,0,0,0,0,0
								c0.9-6.3,1.2-13.7,1.2-13.7l6.1-4.3c0,0,3.3,7.6,0,19.8c-1.2,4.4-2.7,7-3.8,9c-0.4,0.7-1.6,8.2-2,10.9
								c-0.6,4.3-1.9,9.8-2.4,12.1c-2.5,1.4-6.3,2-10.2,2.3c-0.4,0-1.2,0.1-1.2,0.1s3.3-9.7,3.7-19
								C458.7,156,457.2,149.7,457.2,149.7z"/>
							<path class="st19" d="M450.6,135.4c0,0-2.1-2-3.9-1.1c-1.8,0.9-2.7,5.9,0.1,8.9C449.6,146.2,450.6,135.4,450.6,135.4z"/>
							<g>
								<path class="st48" d="M455,146.4c0.5-0.5,1.1-2.6,1.6-4.4c0.4-1.5-0.5-3-2-3.4c-2.3-0.6-4.9-1.1-5.8-0.9
									c-1.3,0.4-1.8,1.9-2.2,3c-0.4,1.1-0.7,3.3-0.3,4.5c0.3,1.1,1.9,2.4,3,2.8C452.5,148.9,453.7,148.4,455,146.4z"/>
							</g>
							<path class="st19" d="M457.2,135.2c0,0,1.4-8.8,9.4-10.7c8-1.9,14,7.7,14.9,14.6c0.9,6.9,0.2,12.9-5.4,24.5
								c-0.1,0.2-0.3,0.8-0.5,1.4c-0.3,1-0.6,2.1-0.6,3.2c0,2.1-0.2,5.4,4.2,4.2c0,0-2.5,5.9-11.4,1.5c-10.5-5.2-5.4-22.2-2.5-27.5
								c2.9-5.3-0.5-16.7-7.1-10L457.2,135.2z"/>
							<path class="st19" d="M448.7,135.8c-0.2,0-1.6,0.4-1.1,3.1c0.4,2.7,1.2,4.7,5,4.9c0,0,0.2,2.9,1.3,3.1c1.1,0.2,4.9-1,5.5-5
								c0.6-4-1.2-6.8-2.2-7.6c-1-0.9-5.1-2.7-8.1,1.4L448.7,135.8z"/>
							<path class="st77" d="M466.2,140c0.4,1.9,0.1,3.9-0.4,5.8c-0.3,0.9-0.7,1.9-1.1,2.7c-0.4,0.9-0.7,1.7-1,2.7
								c-1.1,3.6-1.9,7.4-1.7,11.1c0.1,1.9,0.4,3.7,1.1,5.4c0.7,1.7,1.8,3.2,3.1,4.5c1.3,1.3,3,2.2,4.8,2.7c1.8,0.6,3.7,0.5,5.6,0
								c-1.7,0.8-3.8,1-5.7,0.6c-1.9-0.4-3.8-1.3-5.3-2.6c-3.2-2.5-4.8-6.6-4.9-10.6c-0.1-4,0.7-7.8,2.1-11.5
								c0.3-0.9,0.7-1.8,1.2-2.7c0.5-0.9,0.9-1.7,1.2-2.6C465.9,143.8,466.3,141.9,466.2,140z"/>
							<path class="st77" d="M448.2,136.1c-0.3,0.4-0.4,0.8-0.4,1.2c0,0.4,0,0.8,0.1,1.3c0.2,0.8,0.4,1.7,0.7,2.4
								c0.3,0.8,0.8,1.4,1.5,1.8c0.7,0.5,1.5,0.7,2.4,1c-0.9,0.1-1.8,0.1-2.7-0.4c-0.9-0.4-1.6-1.2-2-2.1c-0.4-0.9-0.6-1.8-0.6-2.7
								C447.2,137.8,447.3,136.6,448.2,136.1z"/>
							<path class="st77" d="M447.2,134.2c-0.6,0.4-1,0.9-1.2,1.6c-0.2,0.6-0.4,1.3-0.5,1.9c-0.1,1.3,0,2.7,0.3,4.1
								c-0.5-0.6-0.8-1.3-1-2c-0.2-0.7-0.3-1.5-0.2-2.2c0.1-0.8,0.3-1.5,0.8-2.1C445.7,134.8,446.5,134.2,447.2,134.2z"/>
						</g>
						<g>
							<g>
								<g>
									<path class="st47" d="M30.9,342.3c2.6,0.2,2.1-3.3,2.4-5.3c-0.3,0.6-0.7,1.3-1,0.4c-0.4-1.2-0.2-4,0.6-4.9
										c-0.7-0.3-1.6-0.3-2.2-0.2C29.9,332.3,30.2,342.3,30.9,342.3z"/>
								</g>
								<g>
									<path class="st18" d="M32.3,337.4c0.3,0.8,0.9,1.1,1-0.2c0.1-1.2,0.5-2.2,0.6-2.4c0.2-0.6,1-0.8,1-0.8l0-1.1
										c0,0-1.7-0.3-1.9-0.4C32.1,333.4,31.9,336.2,32.3,337.4z"/>
								</g>
							</g>
							<g>
								<g>
									<path class="st47" d="M109.6,344.1c0.4-2.7-3-2.4-5-2.9c0.5,0.4,1.2,0.9,0.3,1.1c-1.2,0.3-3.9-0.1-4.6-1
										c-0.3,0.7-0.4,1.6-0.4,2.3C99.9,344.4,109.5,344.8,109.6,344.1z"/>
								</g>
								<g>
									<path class="st18" d="M105,342.3c0.8-0.2,1.1-0.8-0.2-1.1c-1.1-0.2-2-0.6-2.2-0.7c-0.5-0.3-0.7-1.1-0.7-1.1l-1,0
										c0,0-0.4,1.8-0.5,2C101.1,342.2,103.8,342.6,105,342.3z"/>
								</g>
							</g>
							<g>
								<path class="st57" d="M100.3,284.3l24.3,14.7l-24.9,38.9c-0.5,0.6,1.1,2.2,1.9,2.4l0.2,0.1c0.8,0.2,2.4-1.5,3-2
									c6.7-5.3,29.2-23.4,35.4-40.6c3.6-10-25.2-34.2-25.5-38.4c-2.1-1.8-3.7-9.5-13.6-11.8c-1.8-0.4-11.7,5.9-13.2,9.7
									C83.7,267.9,91,278.1,100.3,284.3z"/>
							</g>
							
								<ellipse transform="matrix(0.9508 -0.3099 0.3099 0.9508 -84.5962 69.0076)" class="st28" cx="174.9" cy="300.8" rx="41.8" ry="43.1"/>
							<g>
								<path class="st25" d="M175.5,341.7c-6.3,0-12.7-1.6-18.5-4.6c-9.5-5-16.7-13.5-20.1-23.9c-3.4-10.4-2.6-21.5,2.1-31.2
									c4.8-9.7,13-16.9,23.1-20.2c20.9-6.8,43.6,5.1,50.6,26.7l0,0c3.4,10.4,2.6,21.5-2.1,31.2c-4.8,9.7-13,16.9-23.1,20.2
									C183.6,341.1,179.6,341.7,175.5,341.7z M174.2,266c-3.4,0-6.8,0.5-10.1,1.6c-8.5,2.8-15.5,8.8-19.5,17
									c-4,8.2-4.7,17.7-1.8,26.5c2.9,8.9,8.9,16.1,17.1,20.4c8.1,4.3,17.2,5.1,25.8,2.3c8.5-2.8,15.5-8.8,19.5-17
									c4-8.2,4.7-17.7,1.8-26.5C202.1,275.5,188.6,266,174.2,266z"/>
							</g>
							<g>
								<g>
									<path class="st25" d="M185.2,284.1c-1.6-4.5-6-8.3-10.6-9.5c-3.8-1-7.4,0.5-10.7,2.4c-3.4,2-6.9,4.8-8.9,8.3
										c-2.4,4.2-0.6,8.6,2.5,12c3.3,3.6,7.1,5,11.8,5.1c5.4,0.1,10.8-1.1,16,1c8.8,3.6,6.4,14.4-2.2,16.5
										c-7.1,1.8-16.3-0.3-17.8-8.7c-0.2-1.4-4.5,0.9-4.2,2.2c2.2,11.9,17,11.8,25.6,7.3c4-2.1,7.7-5.6,8.5-10.3
										c0.9-5.1-2.5-9-7.1-10.5c-4.7-1.5-9.6-0.8-14.4-0.7c-6.2,0.1-11.9-2.5-14.6-8.6c-2.6-5.8,2.9-12.2,8.7-13.3
										c5.6-1.1,11.6,4.4,13.4,9.3C181.4,287.7,185.7,285.5,185.2,284.1L185.2,284.1z"/>
								</g>
								<g>
									<path class="st25" d="M158.3,274.3c6.5,19.9,13,39.9,19.5,59.8c0.4,1.1,4.6-1.1,4.1-2.7c-6.5-19.9-13-39.9-19.5-59.8
										C162.1,270.5,157.8,272.8,158.3,274.3L158.3,274.3z"/>
								</g>
								<g>
									<path class="st25" d="M165.1,271c6.5,19.9,13,39.9,19.5,59.8c0.4,1.1,4.6-1.1,4.1-2.7c-6.5-19.9-13-39.9-19.5-59.8
										C168.8,267.1,164.6,269.4,165.1,271L165.1,271z"/>
								</g>
							</g>
							<g>
								<path class="st78" d="M171.6,257.6c0,0-2.3,2.3-7.3,3.4c-2.7,0.6-17.6,1.6-22.6-3.7c-3.1-3.4-10.5-14.9-11.1-15.5
									s0-7.2,0-7.2s10.9,8.2,15.2,16.4C145.9,251,167.9,249.5,171.6,257.6z"/>
							</g>
							<g>
								<path class="st48" d="M169.6,258c1.3-0.9,3-2.8,5.3-1.9c3,1.1,2.5,2.1,1.7,2c-1-0.1-1.2-0.2-2.1-0.3c-0.6,0-0.6,0.3-1.2,0.2
									c0.6,0.3,2,0.8,1.5,0.9c-1.2,0.4-4.6,0.4-5,0.1C169.2,258.6,169.6,258,169.6,258z"/>
							</g>
							<g>
								<path class="st48" d="M148.9,265.8c1-1.3,2-3.6,4.4-3.5c3.1,0.1,3.4,1.6,2.3,1.9c-0.9,0.2-1.2-0.3-2.1-0.1
									c-0.6,0.2-0.5,0.4-1,0.6c0.7,0.1,2.2,0.1,1.7,0.4c-1,0.8-4.2,1.8-4.7,1.7C148.7,266.4,148.9,265.8,148.9,265.8z"/>
							</g>
							<g>
								<path class="st79" d="M81.9,266.3c-1.8,10-13.9,29-13.9,29l-34.5,37.5l1.4,3.6c0,0,32.9-21.4,42.3-27.3
									c8.4-5.3,27.1-26.9,30.5-54c-0.2-2.9-3.1-2.6-4.9-4.3C100,248,84.9,248.9,81.9,266.3z"/>
							</g>
							<g>
								<path class="st58" d="M115.3,261c0,0-10.7-3.1-20.5-10.9c0,0,10.7-19.3,21.2-19.9c5.1-0.3,10.2,1.4,14.7,5.2
									c4.6,3.9,6,5.6,6,5.6s-8.6,9.8-12.8,12.8C119.4,257.1,114.5,260.5,115.3,261z"/>
							</g>
							<g>
								<path class="st58" d="M115.6,261.3c0,0-0.8-0.5-3.1-1.2c-3-0.9-5.3-2.3-5.3-2.3s9.3-6.2,14.9-13.7c4.2-5.7,0.9-14.1,3.1-13
									c2.1,1.1,4,2.3,5.4,3.4c4.6,3.9,7.1,6.2,7.1,6.2s-9.6,11.8-13.8,14.8C119.4,258.8,116,261,115.6,261.3z"/>
							</g>
							<g>
								<g>
									<path class="st48" d="M128.7,228.9c0,0-2,4.3-2.6,4.5c-0.6,0.2-2.1,0-2.1-1.5c0-1.4,3-4.3,3-4.3L128.7,228.9z"/>
								</g>
								<g>
									<path class="st49" d="M127.1,232c-0.9-0.2-1.7-1.6-1.9-2.4c0.5-0.7,0.5-0.6,1-1.1l2.1,1.5
										C127.9,230.5,127.5,231.3,127.1,232z"/>
								</g>
							</g>
							<g>
								<path class="st78" d="M150.9,264.6c0,0-2.5,4.3-5.2,4c-2.7-0.4-14.2-6-19.1-11.3c-3.1-3.4-13.1-16.2-13.4-17
									c-1.9-4.7,0.4-7.6,1.1-8.3c0.1-0.1,0.2-0.1,0.3,0c1.4,1.4,12,11.5,16.1,19.1C130.6,251,147,253.8,150.9,264.6z"/>
							</g>
							<path class="st28" d="M136.3,215l1.3-4c-3,0.5-5.9,3.1-5.9,3.1c0.1-0.4,1.7-3.8,1.7-3.8c-0.2,0.1-2.4,2.2-4.6,3
								c-2.1,0.8-3.3,0.8-5.3,1.1c-2.1,0.3-3.4,1.4-3.9,3.5c-0.5,2.1-0.2,4.5,0.7,6.6c0,0.1,0,0.2,0.1,0.2c0,0,0.1,0.1,0.1,0.1
								c0.1,0.2,0.2,0.3,0.3,0.5l0,0c0,0.2,1.7,4,4.6,3.6c0.9-0.1,0.7-1.3,0.3-2.7c1.9-0.5,3.7-2,5.3-3.4c0.7-0.7,0.7-0.5,1.2-1.5
								c8.1-1.3,8.6-9,8.6-9C138.9,214.4,136.3,215,136.3,215z"/>
							<path class="st80" d="M122.6,228.1c-1.8-1.3-3.1-3.3-3.7-5.6c-0.3-1.1-0.3-2.3-0.3-3.4c0-1.1,0.2-2.5,1.1-3.6
								c1-1.1,2.2-1.4,3.3-1.7c1.1-0.2,2.2-0.3,3.3-0.5c1.1-0.2,2.1-0.3,3.1-0.6c1-0.3,1.9-0.9,2.9-1.4c-0.7,0.8-1.6,1.6-2.6,2.2
								c-1,0.6-2.1,0.9-3.2,1.2c-1.1,0.3-2.2,0.5-3.2,0.7c-1,0.3-1.9,0.6-2.4,1.2c-0.5,0.6-0.7,1.6-0.8,2.6c-0.1,1-0.1,2.1,0,3.1
								C120.5,224.3,121.2,226.3,122.6,228.1z"/>
							<g>
								<path class="st48" d="M132.2,221.7c-1.7-2.2-6.9-1-7.7-0.3c-0.9,0.7-0.8,2.2-0.8,3.3c0,1.1,1.2,5.6,4.6,5.9
									C134.9,231.2,132.2,221.7,132.2,221.7z"/>
							</g>
						</g>
					</g>
				</g>
			</g>
		</g>
	</g>
</g>
</svg>
