<svg xmlns="http://www.w3.org/2000/svg" viewBox="0 0 120 120"><defs><style>.cls-1{fill:none;}.cls-2{fill:#f9ae3b;}</style></defs><title>aliado_02</title><g id="Capa_2" data-name="Capa 2"><g id="Assets"><rect class="cls-1" width="120" height="120"/><path d="M15.84,84.31h2a3.8,3.8,0,0,1,2.54.69,2.27,2.27,0,0,1,.77,1.76,2.11,2.11,0,0,1-1.13,1.86,1.89,1.89,0,0,1,1.28,1.93,2.33,2.33,0,0,1-.79,1.83,3.09,3.09,0,0,1-2.1.7h-2.6Zm2,1.68v1.89c.89,0,1.34-.33,1.34-.93a.83.83,0,0,0-.32-.74A2,2,0,0,0,17.83,86Zm0,3.48v1.9A2.39,2.39,0,0,0,19,91.13a.75.75,0,0,0,.37-.72c0-.63-.45-.94-1.34-.94Z"/><path d="M28.83,93.08H26.76l-.33-1.47h-2.1L24,93.08H22l2.33-8.77h2.23Zm-2.78-3a37.68,37.68,0,0,1-.67-3.72h0c-.15,1.21-.38,2.45-.66,3.72Z"/><path d="M29.84,84.31h2l2.53,5-.07-.94V84.31h2v8.77h-2l-2.47-5,0,1.09v3.89h-2Z"/><path d="M42.78,91v2.08a3.85,3.85,0,0,1-1.13.2,3.46,3.46,0,0,1-2.8-1.3,5.19,5.19,0,0,1-1.07-3.41,4.84,4.84,0,0,1,1.08-3.24,3.46,3.46,0,0,1,2.74-1.28,4,4,0,0,1,1.18.17v2.09a3.61,3.61,0,0,0-1.07-.19,1.54,1.54,0,0,0-1.29.71,3,3,0,0,0-.51,1.81,3.07,3.07,0,0,0,.51,1.87,1.67,1.67,0,0,0,1.38.68A3,3,0,0,0,42.78,91Z"/><path d="M46.93,93.29a2.72,2.72,0,0,1-2.42-1.22,6.15,6.15,0,0,1-.84-3.51,5.64,5.64,0,0,1,.84-3.31,2.71,2.71,0,0,1,2.33-1.19,2.8,2.8,0,0,1,2.44,1.19,5.79,5.79,0,0,1,.85,3.4,6,6,0,0,1-.83,3.42A2.7,2.7,0,0,1,46.93,93.29Zm-.07-7.24c-.72,0-1.08.85-1.08,2.53a5.74,5.74,0,0,0,.27,2.18.86.86,0,0,0,.79.54.93.93,0,0,0,.86-.54,5.08,5.08,0,0,0,.3-2.14C48,86.91,47.62,86.05,46.86,86.05Z"/><path d="M54.9,92.91v-2a3.31,3.31,0,0,0,1.59.55.8.8,0,0,0,.59-.21.69.69,0,0,0,.22-.55.86.86,0,0,0-.17-.49,3.8,3.8,0,0,0-.6-.56A6.75,6.75,0,0,1,55,88.15a2.64,2.64,0,0,1-.46-1.52,2.45,2.45,0,0,1,2.57-2.57,4.11,4.11,0,0,1,1.66.36v2a3.17,3.17,0,0,0-1.43-.49.9.9,0,0,0-.59.18.63.63,0,0,0-.21.5c0,.37.33.78,1,1.24A5.55,5.55,0,0,1,58.76,89a2.58,2.58,0,0,1,.61,1.71,2.47,2.47,0,0,1-.8,1.88,2.81,2.81,0,0,1-2,.75A3.86,3.86,0,0,1,54.9,92.91Z"/><path d="M60.74,84.31h2v6.17a1,1,0,0,0,.23.69.8.8,0,0,0,.62.25.81.81,0,0,0,.64-.27,1.13,1.13,0,0,0,.23-.74v-6.1h2v5.75A4.78,4.78,0,0,1,66.22,92a2.12,2.12,0,0,1-.91,1,3.52,3.52,0,0,1-1.68.33,2.7,2.7,0,0,1-2.24-.82,4.49,4.49,0,0,1-.65-2.75Z"/><path d="M68.33,84.31h2.46a2.9,2.9,0,0,1,2.09.74,2.86,2.86,0,0,1,0,4,3.14,3.14,0,0,1-2.21.73h-.34v3.34h-2Zm2,1.68v2.07a1.72,1.72,0,0,0,1-.26.91.91,0,0,0,.32-.77,1,1,0,0,0-.31-.8A1.81,1.81,0,0,0,70.32,86Z"/><path d="M75.17,84.31h4v1.86h-2v1.62h1.77v1.82H77.16V91.2h2v1.88h-4Z"/><path d="M80.78,84.31H83.1a3.22,3.22,0,0,1,2.22.72,2.5,2.5,0,0,1,.81,2,2.66,2.66,0,0,1-.3,1.23,2.06,2.06,0,0,1-.9.9l1.59,4H84.41l-1.61-4h0v4h-2Zm2,1.69v2.08c.88,0,1.32-.32,1.32-.92a1.13,1.13,0,0,0-.3-.88A1.68,1.68,0,0,0,82.77,86Z"/><path d="M87.71,84.31h2v8.77h-2Z"/><path d="M94.5,93.29a2.72,2.72,0,0,1-2.42-1.22,6.15,6.15,0,0,1-.84-3.51,5.64,5.64,0,0,1,.84-3.31,2.71,2.71,0,0,1,2.34-1.19,2.83,2.83,0,0,1,2.44,1.19,5.87,5.87,0,0,1,.84,3.4,6,6,0,0,1-.83,3.42A2.67,2.67,0,0,1,94.5,93.29Zm-.07-7.24c-.72,0-1.08.85-1.08,2.53a5.49,5.49,0,0,0,.28,2.18.85.85,0,0,0,.79.54.93.93,0,0,0,.85-.54,5.08,5.08,0,0,0,.3-2.14C95.57,86.91,95.19,86.05,94.43,86.05Z"/><path d="M99.18,84.31h2.32a3.26,3.26,0,0,1,2.22.72,2.5,2.5,0,0,1,.81,2,2.55,2.55,0,0,1-.31,1.23,2,2,0,0,1-.9.9l1.59,4h-2.1l-1.61-4h0v4h-2Zm2,1.69v2.08c.88,0,1.32-.32,1.32-.92a1.1,1.1,0,0,0-.31-.88A1.62,1.62,0,0,0,101.17,86Z"/><path class="cls-2" d="M82.27,54.5c0-.12,0-.24,0-.36s0-.36,0-.54l-.06-.45c0-.15,0-.29-.05-.44s0-.33-.08-.49,0-.26-.07-.39-.07-.34-.11-.51,0-.24-.08-.36-.09-.34-.14-.51l-.09-.35c-.06-.17-.11-.34-.16-.5l-.12-.34c-.06-.17-.11-.33-.18-.5l-.13-.34c-.07-.16-.13-.32-.2-.47s-.1-.24-.16-.36l-.2-.44-.2-.38-.21-.4-.23-.4-.21-.36c-.09-.15-.19-.29-.28-.43l-.2-.31-.32-.45-.2-.28-.36-.46L78,43.44,77.56,43l-.17-.19h0c-.2-.22-.4-.43-.61-.64l-.1-.09-.55-.52L76,41.36l-.51-.44-.19-.15-.51-.4-.22-.16-.5-.35-.25-.17-.49-.31L73,39.21a4.39,4.39,0,0,0-.47-.27l-.33-.18-.44-.23-.37-.17-.43-.2-.4-.16-.41-.17-.43-.15-.4-.14-.45-.14-.4-.12L68,37.16l-.4-.09L67.15,37l-.42-.07-.47-.08-.46-.06-.44,0h0l-.52-.06v0c-.45,0-.91-.06-1.37-.06H56.58a5.55,5.55,0,0,0-5.51,5h0v.64h0v0a5.52,5.52,0,0,0,5,5.4,5.12,5.12,0,0,0,.56,0h6.89a7.76,7.76,0,1,1,0,15.51H60.4V68H57.93V63.18H56.58A5.55,5.55,0,0,0,51.09,68h0v.71a5.54,5.54,0,0,0,5.54,5.54h6.89A18.86,18.86,0,0,0,82.3,55.42C82.3,55.12,82.29,54.81,82.27,54.5ZM63.47,73H56.58l-.42,0-.16,0-.24,0-.21,0-.17,0-.23-.08-.13,0-.25-.11-.09,0-.26-.14-.07,0a2.4,2.4,0,0,1-.26-.18l0,0a1.71,1.71,0,0,1-.26-.21h0a4.34,4.34,0,0,1-1.19-1.75s0-.08,0-.12l-.06-.21a1.21,1.21,0,0,0,0-.18l0-.2a.59.59,0,0,1,0-.14H63.61A16.31,16.31,0,0,0,78.8,46.94a17.12,17.12,0,0,1,2,5.56c0,.12,0,.25.07.38l.06.5.06.62,0,.38c0,.35,0,.69,0,1A17.55,17.55,0,0,1,63.47,73Zm-6.89-8.49h.06V68H52.4A4.25,4.25,0,0,1,56.58,64.47Zm6.89,0a9.06,9.06,0,0,0,9-8.52h0v-.53A13.82,13.82,0,0,0,58.78,41.56h-6.4a4.24,4.24,0,0,1,4.2-3.67h6.89a16.8,16.8,0,0,1,1.75.09h0a15.05,15.05,0,0,1-1.62,30H61.69V64.47Zm-7.3-18.11-.24,0-.13,0-.34-.07h0a4.28,4.28,0,0,1-3.05-3.36h6.38A12.42,12.42,0,0,1,69,48.28a9.28,9.28,0,0,0-.83-.56l-.13-.08-.52-.29-.25-.12L67,47.1l-.49-.19-.22-.07-.51-.16-.15,0a5.23,5.23,0,0,0-.57-.12l-.15,0c-.21,0-.42-.06-.64-.08h-.13l-.69,0H56.58Z"/><path class="cls-2" d="M55.16,61v-.05c.45,0,.9.05,1.36.05h6.89a5.54,5.54,0,0,0,5.51-5h0v-.64h0c0-.09,0-.18,0-.29V55s0-.1,0-.15l0-.26,0-.11v0a.5.5,0,0,0,0-.12h0L68.77,54l0-.1s0,0,0-.06a.19.19,0,0,1,0-.07h0c0-.11-.07-.21-.1-.3l0-.08,0-.09v0l-.16-.33,0,0-.06-.11c-.06-.12-.14-.23-.2-.34l0,0a.3.3,0,0,0,0-.08L67.74,52l0-.06-.35-.39A5.5,5.5,0,0,0,64.55,50h0l-.47-.07H64a5.44,5.44,0,0,0-.57,0H56.53a6.12,6.12,0,0,1-.74,0h0c-.23,0-.46-.06-.69-.1H55l-.64-.16-.09,0-.6-.21-.1-.05a5.45,5.45,0,0,1-.55-.25L52.91,49l-.5-.29-.14-.09-.45-.32-.14-.11-.41-.35-.14-.14c-.12-.12-.25-.24-.37-.38l-.12-.14-.34-.42-.11-.15-.3-.46L49.81,46q-.15-.26-.27-.51l0-.11c-.09-.19-.17-.39-.25-.59,0,0,0,0,0,0a7.41,7.41,0,0,1-.44-2.16v-.44a7.76,7.76,0,0,1,7.75-7.76h1.4V29.61H60.4v4.77h3a5.53,5.53,0,0,0,5.48-4.77h0v-.76a5.54,5.54,0,0,0-5.54-5.54H56.53A18.86,18.86,0,0,0,37.7,42.14v0A18.86,18.86,0,0,0,54.64,60.91Zm8.26-27.87H61.69V29.61H67.6A4.26,4.26,0,0,1,63.42,33.09Zm.43,18.11h.08l.35.06h0A4.24,4.24,0,0,1,66.93,53v0a3.28,3.28,0,0,1,.39.71v0c0,.12.09.24.13.37a.14.14,0,0,1,0,.07h0c0,.1,0,.21.08.31s0,.06,0,.09v.07H61.23A12.4,12.4,0,0,1,51,49.26a7.78,7.78,0,0,0,.89.61h0c.22.13.45.26.68.37l.13.07.34.15.45.18.26.09.45.13.2,0a5.41,5.41,0,0,0,.55.12l.16,0c.21,0,.43.06.64.08h.14q.34,0,.69,0h6.89ZM47.48,42.12h0v.26a2.81,2.81,0,0,0,0,.29A13.74,13.74,0,0,0,61.23,56h6.39a4.24,4.24,0,0,1-4.2,3.67H56.53a17.61,17.61,0,0,1-4.19-.51,15.05,15.05,0,0,1,4-29.55h.25v3.48h-.11A9.06,9.06,0,0,0,47.48,42.12Zm9.16-13.85v0h-.25A16.33,16.33,0,0,0,41.14,50.53a17.35,17.35,0,0,1-2-6.51,1.79,1.79,0,0,1,0-.23c0-.22,0-.43,0-.65s0-.51,0-.76v-.22A17.55,17.55,0,0,1,56.53,24.65h6.89a4.27,4.27,0,0,1,4.21,3.66H61.69v0Z"/></g></g></svg>