<svg xmlns="http://www.w3.org/2000/svg" xmlns:xlink="http://www.w3.org/1999/xlink" viewBox="0 0 354.49 236.32"><defs><style>.cls-1{fill:none;}.cls-2{isolation:isolate;}.cls-3{opacity:0.2;mix-blend-mode:multiply;}.cls-4{fill:#575756;}.cls-5{fill:#cbb3fc;}.cls-6{fill:#dbcffd;}.cls-7{fill:#7f65c1;}.cls-8{clip-path:url(#clip-path);}.cls-9{font-size:59.8px;font-family:DIN2014-ExtraLight, "DIN 2014";font-weight:200;letter-spacing:0.05em;}.cls-16,.cls-9{fill:#30193b;}.cls-10{letter-spacing:0.04em;}.cls-11{letter-spacing:0.05em;}.cls-12{fill:#ffcb48;}.cls-13{fill:#6c56b2;}.cls-14{fill:#56449e;}.cls-15{fill:#3b2b5b;}.cls-17{fill:#ff97a6;}.cls-18{fill:#ffe5b0;}.cls-19{fill:#c95d77;}.cls-20{fill:#9580d6;}.cls-21{fill:#ddd6fc;}.cls-22{fill:#ffa9ba;}.cls-23{fill:#fc9faf;}</style><clipPath id="clip-path"><path class="cls-1" d="M317,190.88l-268.4.94a7.12,7.12,0,0,1-5.89-11.39l21-27.64a10.06,10.06,0,0,1,8-3.93H296.21a10.07,10.07,0,0,1,8.25,4.26L323,179.73A7.13,7.13,0,0,1,317,190.88Z"/></clipPath></defs><title>error</title><g class="cls-2"><g id="Capa_2" data-name="Capa 2"><g id="Capa_1-2" data-name="Capa 1"><g class="cls-3"><ellipse class="cls-4" cx="179.2" cy="192.82" rx="149.37" ry="6.4"/></g><rect class="cls-5" x="63.34" width="238.58" height="145.67" rx="16.66"/><path class="cls-5" d="M318.11,190.88,48,191.83a6.62,6.62,0,0,1-5.35-10.72l24.68-30.6a4.47,4.47,0,0,1,3.47-1.65H294.09a4.44,4.44,0,0,1,3.45,1.62l25.28,30.75A5.92,5.92,0,0,1,318.11,190.88Z"/><polygon class="cls-6" points="308.3 175.46 59.18 175.98 74.62 154.49 291.54 154.49 308.3 175.46"/><rect class="cls-7" x="84.28" y="145.67" width="46.36" height="3.19"/><rect class="cls-7" x="233.13" y="145.67" width="46.36" height="3.19"/><rect class="cls-6" x="75.12" y="11.41" width="215.02" height="122.85" rx="9.88"/><g class="cls-8"><polygon class="cls-7" points="324.66 182.11 40.83 182.89 40.83 204.58 324.66 204.58 324.66 182.11"/></g><path class="cls-7" d="M76.2,155.8H123l-1.91,3.44H73.69S75.26,157.05,76.2,155.8Z"/><path class="cls-7" d="M72.28,161.38c14.66,0,32.33.12,47,.12l-3.11,4.84H68.66S71.09,163.08,72.28,161.38Z"/><path class="cls-7" d="M67.69,168.36c15.32,0,32.38,0,47.69,0l-3.95,5.88H63.27S66.06,170.47,67.69,168.36Z"/><path class="cls-7" d="M126.54,155.8h16.17c-.55,1.15-1.09,2.29-1.63,3.44H124.49Z"/><path class="cls-7" d="M123,161.5H140l-2.4,4.84H119.76Z"/><path class="cls-7" d="M146,155.8h15.89c-.24,1.15-.47,2.29-.71,3.44H144.47C145,158.09,145.51,157,146,155.8Z"/><path class="cls-7" d="M143.69,161.5h16.59l-1.42,4.84H141.14Z"/><path class="cls-7" d="M163.67,161.5l-1.27,4.84h17.23V161.5Z"/><path class="cls-7" d="M164.52,159.24h15.11V155.8h-14.4C165,157,164.75,158.09,164.52,159.24Z"/><path class="cls-7" d="M182.8,161.5h16l1.41,4.84H182.8Z"/><path class="cls-7" d="M182.8,155.8h14.48c.18,1.15.37,2.29.56,3.44h-15Z"/><path class="cls-7" d="M200.17,155.94l1,3.3h16.52l-1.77-3.3Z"/><path class="cls-7" d="M201.72,161.5h17.09l2.61,4.56H203.21C202.71,164.54,202.22,163,201.72,161.5Z"/><path class="cls-7" d="M219.37,155.94l2,3.3h16.45l-2.54-3.3Z"/><path class="cls-7" d="M222.13,161.5q1.44,2.28,2.89,4.56H242.1l-3.24-4.56Z"/><path class="cls-7" d="M238.86,155.94l2.47,3.3H261c-1.06-1.15-2.12-2.29-3.17-3.44Z"/><path class="cls-7" d="M242.39,161.5H263l3.79,4.56H246.13Z"/><path class="cls-7" d="M261.45,155.94l3,3.3c7.16,0,28.94.3,28.94.3l-2.51-3.61S268.08,155.9,261.45,155.94Z"/><path class="cls-7" d="M266.74,161.5h27.89l3.92,4.56H270.84S268.31,163.32,266.74,161.5Z"/><path class="cls-7" d="M299.86,168.7a68.43,68.43,0,0,1,4.84,5.38s-20.16,0-27.44,0c-1.67-1.79-3.35-3.58-5-5.38Z"/><path class="cls-7" d="M247.26,168.7h21.25q2.33,2.7,4.66,5.38H251Q249.13,171.4,247.26,168.7Z"/><path class="cls-7" d="M118.54,168.41H243.92l4,5.88H114.49Z"/><text class="cls-9" transform="translate(105.57 87.02)">Er<tspan class="cls-10" x="61.41" y="0">r</tspan><tspan class="cls-11" x="86.7" y="0">or!</tspan></text><path class="cls-12" d="M354.49,187.77a115.25,115.25,0,0,1-27.81-26.7c-19.14-25.28-48-24.58-49.41-24.49l.37,5.71c.29,0,26.84-1,44.13,21.73,8.29,10.89,18.56,22.92,32.72,31.82Z"/><g class="cls-3"><path class="cls-4" d="M326.8,227.82c0,3.53-27,6.39-60.37,6.39s-60.38-2.86-60.38-6.39,27-6.4,60.38-6.4S326.8,224.28,326.8,227.82Z"/></g><path class="cls-7" d="M241.79,155.05l13.18.09a15.67,15.67,0,0,0,15.78-15.57h0a15.66,15.66,0,0,0-15.57-15.77L242,123.71Z"/><polygon class="cls-7" points="266.34 145.21 276.79 144.08 276.87 132.79 266.43 131.53 266.34 145.21"/><rect class="cls-7" x="274.36" y="135.19" width="11.19" height="7.03" transform="translate(559 279.25) rotate(-179.62)"/><rect class="cls-7" x="283.63" y="132.32" width="1.64" height="5.03" transform="translate(568.01 271.54) rotate(-179.62)"/><rect class="cls-7" x="280.66" y="132.3" width="1.64" height="5.03" transform="translate(562.06 271.48) rotate(-179.62)"/><rect class="cls-7" x="277.68" y="132.28" width="1.64" height="5.03" transform="translate(556.11 271.42) rotate(-179.62)"/><rect class="cls-7" x="283.59" y="139.48" width="1.64" height="5.03" transform="translate(567.85 285.9) rotate(-179.62)"/><rect class="cls-7" x="280.61" y="139.46" width="1.64" height="5.03" transform="translate(561.9 285.84) rotate(-179.62)"/><rect class="cls-7" x="277.64" y="139.44" width="1.64" height="5.03" transform="translate(555.97 285.73) rotate(-179.62)"/><path class="cls-13" d="M212.45,115l21.49.14a1.76,1.76,0,0,1,1.61,1c.85,1.88,3.69,5.91,12.91,7.93,7.75,1.69,8.06,28.47.42,30.59-8.7,2.43-11.56,8-12.42,10.42a1.79,1.79,0,0,1-1.7,1.18l-23.51-.15Z"/><path class="cls-14" d="M229.45,149.71c-6-.09-11.88-.58-17.79-1l-.41,17.44,23.51.15a1.79,1.79,0,0,0,1.7-1.18c.86-2.45,3.72-8,12.42-10.42,1.85-.51,3.23-2.48,4.16-5.18C245.18,149.79,237.31,149.82,229.45,149.71Z"/><path class="cls-12" d="M208.74,131.07l-29.85-.19a3.73,3.73,0,0,1-3.7-3.75h0a3.72,3.72,0,0,1,3.75-3.7l29.85.2Z"/><path class="cls-12" d="M208.57,156.42l-29.85-.2a3.72,3.72,0,0,1-3.7-3.75h0a3.71,3.71,0,0,1,3.75-3.69l29.85.19Z"/><path class="cls-7" d="M196,140.49c.1-15.05,3.95-27.36,9.51-28.55l.59-.11,12.64.08a2,2,0,0,1,.83.2,2.78,2.78,0,0,1,1.54,2.85c-.41,3.75-3.23,14.32-3.29,24.26-.07,10.47,2.58,23.17,2.88,27.2a2.82,2.82,0,0,1-1.27,2.6,2.15,2.15,0,0,1-1.07.35l-12.64-.08h-.57C199.58,168,195.87,155.54,196,140.49Z"/><path class="cls-14" d="M211.65,142.82l-15.52-.1s-.16-2.15-.15-2.86.23-3.11.23-3.11l15.48.1a3,3,0,0,1,3,3h0A3,3,0,0,1,211.65,142.82Z"/><path class="cls-15" d="M257.91,130s5.78,21.09,6.87,23.92c0,0-3.06,8.65-3,10.21s12.68,2,12.68,2l-1.28-21.62Z"/><path class="cls-16" d="M233.69,224.69c.65-1.45,2.64-.13,3.88.44-.43,0-1,0-.62.5a3.86,3.86,0,0,0,2.94,1.4,4.61,4.61,0,0,1-.7,1.5C238.85,229,233.48,225.16,233.69,224.69Z"/><path class="cls-17" d="M237,225.63c-.36-.5-.26-1,.52-.55a6.08,6.08,0,0,0,1.52.53c.4.07.86-.37.86-.37l.57.42s-.5,1.22-.53,1.37A3.86,3.86,0,0,1,237,225.63Z"/><path class="cls-16" d="M311.88,224.83c-1.54-.85.17-2.87.82-4.18-.06.47-.1,1.07.39.71a4.72,4.72,0,0,0,1.61-3.09,3.77,3.77,0,0,1,1.29.87C316.4,219.54,312.31,225.07,311.88,224.83Z"/><path class="cls-17" d="M313.09,221.36c-.49.36-.9.22-.44-.6a7.64,7.64,0,0,0,.64-1.62c.12-.42-.44-1.29-.44-1.29l.65-.25s1.06.62,1.2.67A4.72,4.72,0,0,1,313.09,221.36Z"/><path class="cls-7" d="M285.53,155c2.55,2.8,2.79,11.13,2.38,18.48a144.3,144.3,0,0,1-1.63,14.79s27.64,28.38,27.42,28.93l-1.5,2.61c-.07.17-26.56-14.31-33.2-23.73-3.13-4.44-8.66-21-10-34.56-.45-4.47-2.91-14.43-2.91-14.43s6.57-2.31,12.33,0C281.31,148.27,284.36,153.69,285.53,155Z"/><path class="cls-13" d="M289.13,165.66c-4.12,11.43-23.61,24.11-23.61,24.11s-4.34,8.66-5.9,11.81c-1.85,3.73-14.81,21.3-17.23,24.8a.65.65,0,0,1-.9.17l-1.73-1.11a.83.83,0,0,1-.37-.35c-1.56-2.94,12.21-29.3,17.29-41,1.83-4.21,15.14-27.21,15.14-27.21A62.82,62.82,0,0,0,270,146.75c1.94-.12,7.39-7.91,12.76-2.6C288.67,150,293.25,154.24,289.13,165.66Z"/><path class="cls-18" d="M260.05,133.69c-3.88-9.89.64-9.53,1.17-9.9,2.81-2,6.41-.48,8.67.66,5.83,2.94,12,17.43,12.82,19.7-3.73,3-13.84,5.06-16.26,4.59,0-.2,0-.93-1.3-4.13C262.69,138.59,261.87,138.32,260.05,133.69Z"/><polygon class="cls-15" points="262.05 120.11 262.05 120.11 262.05 120.11 262.05 120.11"/><path class="cls-15" d="M243.85,117.45c-3.64-3,.2-2.69,5.09-1.56a99.34,99.34,0,0,1,9.77,2.48c3.06,1,9.51,5,9.51,5l-5.36,2S251.64,123.77,243.85,117.45Z"/><path class="cls-15" d="M231.84,112.73c4.21.78,9.81,1.8,12.66,2.46,7.64,1.78,5,5.43,1.26,6.31A29,29,0,0,1,229,120.34c-1.87-.74-3.47-6.13-3.47-6.13A8.38,8.38,0,0,1,231.84,112.73Z"/><path class="cls-17" d="M226.17,115.2a3.37,3.37,0,0,0-1.78-1,4.48,4.48,0,0,0-2.1.75c-.15.3,1.09-.17,1.09-.17s-1.52.54-1.43.88c0,.16.58,0,.58,0s-.24,0-.13.25,1.2-.07,1.56-.08,1.37.2,2.08.22C226.31,116.08,226.48,115.76,226.17,115.2Z"/><path class="cls-17" d="M237.67,165.24s-1.29,1.93-2.25,2-2.16,0-2.21-.62c0-.42,1.52-.83,1.9-1.05.88-.49,1.46-1.55,2.34-1.61C237.77,163.94,238,164.53,237.67,165.24Z"/><path class="cls-16" d="M259.27,155.2c-5.46,3.69-6.57-4-6.57-4l17.49-19a3.31,3.31,0,0,1,3.2-1.08h0a3.5,3.5,0,0,1,2.37,5.1C272.68,141.83,265.28,151.14,259.27,155.2Z"/><path class="cls-16" d="M261.93,150.87c-3.94,7.07-17,19.67-22.73,16.75-2.12-1.09-2.48-4.23-2.48-4.23l17.94-13.74S266,143.53,261.93,150.87Z"/><path class="cls-16" d="M259.78,125.21c1.46-2.62,6.51-3,9.1-1.5,9.22,5.37,13.82,20.18,13.82,20.18l3.76,4.11a19.79,19.79,0,0,1,5.26,11.87c-5.56,5.06-18.22,3.81-18.67,3.56s-.54-9.16-.54-9.16-7.23-10.53-8.25-14.55.43-9.22.43-9.22C262.2,125.58,259.78,125.21,259.78,125.21Z"/><path class="cls-15" d="M260.89,125.72s-2.69,2.55-.84,8c0,0-3.91-5.45-3.27-9S260.89,125.72,260.89,125.72Z"/><path class="cls-15" d="M261.06,124.58s2-.57,3.49,2,.16,4.49-.44,6.91a22.69,22.69,0,0,0-.5-4.66A43.24,43.24,0,0,0,261.06,124.58Z"/><path class="cls-17" d="M260.1,122.87s2.8,4.08,2.81,4.69-.53,1.72-1.62.9-2.58-4.87-2.58-4.87Z"/><path class="cls-19" d="M261.72,125.34c-.11.85-.61,1.78-1.47,1.71a24,24,0,0,1-1.12-2.41l1.6-.83C261.12,124.4,261.29,124.63,261.72,125.34Z"/><path class="cls-17" d="M255.33,125.14a8.65,8.65,0,0,1-.69-2.51,2.65,2.65,0,0,1,2.13-3.25,10.46,10.46,0,0,1,3.54.09c.89.36,1.13,1.48,1.33,2.31a6.16,6.16,0,0,1-.11,3.19,3.91,3.91,0,0,1-2.32,1.72C256.91,127.12,256.13,126.66,255.33,125.14Z"/><path class="cls-17" d="M225.45,115.66s-2.2.74-1.63.89a6.12,6.12,0,0,0,2.22-.47Z"/><path class="cls-17" d="M236.2,165.61s-2.76-.1-2.4-.47a10.52,10.52,0,0,1,2.87-.71Z"/><path class="cls-15" d="M252.06,118.93a3.4,3.4,0,0,0,.53.91,3.57,3.57,0,0,0,3,1.24c2.79-.22,4.2-.25,4.2-.25l1.69,3.86c1.71-1.43,2.17-4.36,1.32-6.53a8.82,8.82,0,0,1-.66-1.8,1.55,1.55,0,0,0-.64,1,5.06,5.06,0,0,0-3.26-1.32c-1.16-.1-2.34,0-3.49-.21a2,2,0,0,1-.84-.3,1,1,0,0,1-.44-.83,2.14,2.14,0,0,0-1,1.37l-.75-.85A7.06,7.06,0,0,0,252.06,118.93Z"/><path class="cls-12" d="M63.48,153.18c-17,10.17-33.59,7.23-48.21,4.64a108,108,0,0,0-15.27-2c.4,1.89.64,3.82,1,5.72a122.24,122.24,0,0,1,13.3,1.9c14.83,2.63,33.29,5.91,52.15-5.36Z"/><g class="cls-3"><ellipse class="cls-4" cx="80.15" cy="229.93" rx="41.92" ry="6.4"/></g><path class="cls-16" d="M63.59,138.48c1.13,1.28,5.92,3.24,10.52,1.61,4.16-1.46,12.14-4.13,12-6.66-.15-2.08-3.57-4.39-3.57-4.39s-6,3.21-8.86,4.3C71.28,134.23,62.56,137.32,63.59,138.48Z"/><path class="cls-16" d="M81,136.76c3.28-.07,15.2-8.25,12.84-13.62-.75-1.69-3.52-1.83-3.52-1.83L78.11,132.94S77.27,136.85,81,136.76Z"/><polygon class="cls-7" points="76.34 157.95 66.41 161.4 61.82 151.71 70.77 146.21 76.34 157.95"/><rect class="cls-7" x="55.79" y="154.77" width="11.19" height="6.68" transform="translate(-61.82 41.55) rotate(-25.37)"/><rect class="cls-7" x="54.95" y="154.29" width="1.64" height="4.78" transform="translate(-61.74 38.99) rotate(-25.37)"/><rect class="cls-7" x="57.64" y="153.02" width="1.64" height="4.78" transform="translate(-60.96 40.04) rotate(-25.37)"/><rect class="cls-7" x="60.33" y="151.74" width="1.64" height="4.78" transform="translate(-60.13 41.05) rotate(-25.37)"/><rect class="cls-7" x="57.86" y="160.43" width="1.64" height="4.78" transform="translate(-64.12 40.86) rotate(-25.38)"/><rect class="cls-7" x="60.55" y="159.16" width="1.64" height="4.78" transform="translate(-63.32 41.89) rotate(-25.38)"/><rect class="cls-7" x="63.24" y="157.88" width="1.64" height="4.78" transform="translate(-62.5 42.91) rotate(-25.37)"/><path class="cls-7" d="M102.53,156.05l-12.62,6A14.88,14.88,0,0,1,70.08,155h0a14.89,14.89,0,0,1,7.07-19.83l12.62-6Z"/><path class="cls-7" d="M107.67,111.74l-12.91,6.12a4,4,0,0,0-2.24,3.1c-.34,2.33-2,6.44-8.44,11.28S88.2,160.16,96,158.76s12.26,1.08,14.52,2.9a4,4,0,0,0,4.25.5l14.54-6.9Z"/><path class="cls-13" d="M100,149.07c-4,1.44-8.06,2.9-12.22,4.17,2.51,3.58,5.5,6,8.17,5.52,7.63-1.37,12.26,1.08,14.52,2.9a4,4,0,0,0,4.25.5l14.54-6.9-7.67-15.44A222.11,222.11,0,0,1,100,149.07Z"/><path class="cls-20" d="M132.11,158.71c-5.4,2.56-15.29-7-22.09-21.32s-7.94-28-2.54-30.6l11.43-5.41,24.62,51.92-11.61,5.5"/><path class="cls-13" d="M141,122.7c6.8,14.34,7.94,28,2.54,30.6s-15.29-7-22.09-21.33-7.93-28-2.53-30.59S134.19,108.36,141,122.7Z"/><path class="cls-12" d="M138.08,124.08c1.27,2.67,1.31,5.3.1,5.87s-3.22-1.12-4.48-3.79-1.31-5.3-.1-5.87S136.82,121.41,138.08,124.08Z"/><path class="cls-12" d="M129,128c1.27,2.67,1.31,5.29.1,5.87s-3.22-1.13-4.48-3.8-1.31-5.29-.1-5.87S127.74,125.33,129,128Z"/><path class="cls-16" d="M74.23,126.51a6.54,6.54,0,0,0-3.55-.89,4.66,4.66,0,0,0-4,2.44,7.36,7.36,0,0,0-.48,1.39A8.91,8.91,0,0,0,66,130.5c-.06.45-.06.91-.14,1.36a1.38,1.38,0,0,1-.92,1.21c-.26.07-.55.08-.81.14a7.31,7.31,0,0,0-1.64.53C59,135.4,58.79,140,59,143.35c0,0-.12,4.05-3.24,4.19,0,0,2.54,7.72,13.6,4.39,5.38-1.61,10.44-8.56,11-13.59a10.72,10.72,0,0,0-.93-5,6,6,0,0,0-1.11-1.75,18.65,18.65,0,0,1-1.73-2.85,6.36,6.36,0,0,0-.56-.83,4.87,4.87,0,0,0-.82-.75A9.08,9.08,0,0,0,74.23,126.51Z"/><path class="cls-16" d="M73.33,129.69s1.18-2.93,3.12-2.14,3.57,3.71,2,8.67S73.33,129.69,73.33,129.69Z"/><path class="cls-17" d="M66.68,163.22c-4.38,4.67.8,27.8.8,27.8s-9.74,34-9.54,34.47l.32.62c.06.13,13.46-20.15,18.37-30.35,1.9-3.94,7.26-16.66,6.6-27.26-.25-4.06-2.25-14-2.25-14a15.8,15.8,0,0,0-7.86,3A44.94,44.94,0,0,0,66.68,163.22Z"/><path class="cls-16" d="M59.12,231c.63-.18,0-2.25-.47-3.31,0,.36,0,.83-.38.53a3.61,3.61,0,0,1-1.2-2.52,3.28,3.28,0,0,0-1.16.6C55.54,226.57,58.74,231.1,59.12,231Z"/><path class="cls-17" d="M58.27,228.21c.41.3.77.22.42-.45a5.49,5.49,0,0,1-.47-1.3,1.05,1.05,0,0,1,.26-.72l-.35-.49s-.94.41-1.06.44A3.61,3.61,0,0,0,58.27,228.21Z"/><path class="cls-16" d="M100.86,231.05c-.2-.78-2.16-.61-3.32-.42.36.07.81.19.41.5a3.58,3.58,0,0,1-2.75.48,3.29,3.29,0,0,0,.27,1.28C95.64,233.33,101,231.45,100.86,231.05Z"/><path class="cls-17" d="M98,231.13c.4-.31.42-.68-.32-.52a5.25,5.25,0,0,1-1.38.1c-.34,0-.63-.44-.63-.44l-.56.2s.15,1,.14,1.14A3.58,3.58,0,0,0,98,231.13Z"/><path class="cls-17" d="M65.49,173.29c1.71,8.51,17.93,18.46,17.93,18.46s11.27,39.33,11.7,39.15l.6-.28c.13-.05-.8-34.41-3.21-44.22-.86-3.5-12.34-21.15-12.34-21.15s0-9.89-.68-10.69c-1.67-.05-5,3.79-9.75,3C68.75,157.43,63.62,164,65.49,173.29Z"/><path class="cls-7" d="M81,154.32s3,14.75,2.58,20.26-.27,16.49-.27,16.49a65.1,65.1,0,0,1-15.81,0s-3.83-14.53-2.23-20.61,13-14.16,13-14.16Z"/><path class="cls-13" d="M67.14,160.61s-7.18,9.61,1.93,19.23,14.35,11.91,14.35,11.91L93,186.09S86.4,174.31,84,170.53c-.88-1.36-3.78-5.28-3.78-5.28s-.08-9.28-.27-10.36S67.14,160.61,67.14,160.61Z"/><path class="cls-21" d="M68.42,137.36a18.74,18.74,0,0,1,5.7-1c2.51-.16,5.62,3.78,6.74,7.75,1.07,3.76.92,13.69.92,13.69s-1,1.09-5.58,1.29c-7,.3-7.81-1-7.81-1a59.45,59.45,0,0,1-1.31-6.69c-.32-2.25-1.08-4.16-1.79-8.11C65.17,142.63,65.85,138.39,68.42,137.36Z"/><path class="cls-15" d="M72.52,136.34a19.85,19.85,0,0,1,7.67,12.46c.53,2.83.62,4.6.84,6,.3,1.89,2,11.63,2.17,13.3a4.29,4.29,0,0,0,1.85-1.62c.9-1.29-2.59-10.53-2.59-10.53S82,143.49,80.83,141,75.52,135.65,72.52,136.34Z"/><path class="cls-22" d="M99.37,158.43a.43.43,0,0,0,.24.39l1.89.78s1,.43,1.51,0c0,0,0-.23-.28-.26,0,0,1-.23,1.12-.53s-1.12-.26-1.12-.26-1.54-.42-1.35-.93c0,0,.63-.08.53-.3s-1.34-.13-1.64.15a3.33,3.33,0,0,1-.66.19C99.45,157.71,99.37,158.12,99.37,158.43Z"/><path class="cls-15" d="M79.15,155.4c1,3.75,16,8.39,19.73,4.52a3,3,0,0,0,.92-2.81l-18.21-5.85S78.05,151.17,79.15,155.4Z"/><path class="cls-17" d="M91.5,121.52s0-1.82.66-2.25,1.61-.64,1.91-.26-.75.25-.75.25.88.21.9.37-.55.16-.55.16.45,0,.52.31-.62.16-.9.35-.55,1.43-1.11,1.83C92,122.43,91.57,122.13,91.5,121.52Z"/><path class="cls-17" d="M71.29,131.79s-.75,4.66-.53,5.2,1.07,1.3,1.64.16.27-5.27.27-5.27Z"/><path class="cls-19" d="M71.34,130.28s-.45,3.86-.46,4.44,1.68,1.6,1.82,1a32,32,0,0,0,0-5.38Z"/><path class="cls-23" d="M75.26,132a9.78,9.78,0,0,0-1-2.51,1.59,1.59,0,0,0-2.16-.71,10.43,10.43,0,0,0-2.81,1.84c-.42.65,0,1.5.21,2.14a5,5,0,0,0,1.58,2.05,3.15,3.15,0,0,0,2.34,0C75.15,134.06,75.44,133.4,75.26,132Z"/><path class="cls-15" d="M70.72,136.6s3.24,1.06,5.55,6.64.8,15.85.8,15.85-4.74,10.26-6.19,10.58-7.86-1.6-7.86-1.6a37.67,37.67,0,0,1,4.9-10.62,49.37,49.37,0,0,0-2.39-11.06C63.4,139.77,68.29,136.35,70.72,136.6Z"/><path class="cls-15" d="M67.75,139.46c-1.24,1.17-1.27,6.18,2.11,9.71,3,3.18,9.11,9.12,14.34,9.36,3.87.18-1-6.17-1-6.17s-6-4.4-7.38-6.4S70.07,137.27,67.75,139.46Z"/><path class="cls-16" d="M72.88,128.24s1,5.77-2.59,7.13S68,130,68,130Z"/><path class="cls-16" d="M70.84,135.08s2.1,3.63-1.72,5.56-4.26,6.75-4.26,6.75l-2.38-7.74Z"/><path class="cls-7" d="M65.15,133a13.07,13.07,0,0,0-1.63.44,6.68,6.68,0,0,0-1.49.74,5.32,5.32,0,0,0-2,2.53,11,11,0,0,0-.71,3.23,26.84,26.84,0,0,0-.07,3.36v0h0a6.16,6.16,0,0,1-.3,1.49,5,5,0,0,1-.65,1.36,3.11,3.11,0,0,1-1.12,1,3,3,0,0,1-1.43.32,3.28,3.28,0,0,0,1.34-.49,3.13,3.13,0,0,0,.93-1,5.89,5.89,0,0,0,.71-2.68v0c0-.57-.08-1.15-.09-1.72s0-1.15.07-1.73a10.07,10.07,0,0,1,.81-3.39,5.49,5.49,0,0,1,2.29-2.63A7.39,7.39,0,0,1,65.15,133Z"/><path class="cls-13" d="M67.46,145.11a16.25,16.25,0,0,0,1.74,3.17,24.14,24.14,0,0,0,2.28,2.77,30.56,30.56,0,0,0,2.67,2.41c.94.76,1.95,1.43,2.95,2.14-.56-.25-1.11-.52-1.66-.79s-1.07-.61-1.57-1A17.79,17.79,0,0,1,71,151.47a15.55,15.55,0,0,1-2.24-2.94A10.25,10.25,0,0,1,67.46,145.11Z"/><path class="cls-13" d="M70.05,140.94A20.2,20.2,0,0,1,74,143.73a15.73,15.73,0,0,1,3.14,3.66c-1.19-1.09-2.36-2.15-3.55-3.21S71.2,142.08,70.05,140.94Z"/></g></g></g></svg>