<?xml version="1.0" encoding="utf-8"?>
<!-- Generator: Adobe Illustrator 23.0.6, SVG Export Plug-In . SVG Version: 6.00 Build 0)  -->
<svg version="1.1" xmlns="http://www.w3.org/2000/svg" xmlns:xlink="http://www.w3.org/1999/xlink" x="0px" y="0px"
	 viewBox="0 0 402.1 60" style="enable-background:new 0 0 402.1 60;" xml:space="preserve">
<style type="text/css">
	.st0{fill:#FFFFFF;}
	.st1{fill:#E0ECF6;}
	.st2{fill:#8DBBDD;}
	.st3{fill:none;stroke:#3184C1;stroke-width:1.3621;stroke-linecap:round;stroke-linejoin:round;stroke-miterlimit:10;}
	.st4{fill:#A1C7E3;}
	.st5{fill:none;stroke:#8DBBDD;stroke-width:1.3621;stroke-linecap:round;stroke-linejoin:round;stroke-miterlimit:10;}
	.st6{fill:#3184C1;}
	.st7{fill:none;stroke:#0D6EB6;stroke-width:1.2244;stroke-linecap:round;stroke-linejoin:round;stroke-miterlimit:10;}
	.st8{fill:none;stroke:#8DBBDD;stroke-width:1.5702;stroke-linecap:round;stroke-linejoin:round;stroke-miterlimit:10;}
	.st9{opacity:0.3;}
	.st10{fill:#D6E6F3;}
	.st11{fill:#E9F2F8;}
	.st12{fill:#5A9DCE;}
	.st13{fill:none;stroke:#E9F2F8;stroke-miterlimit:10;}
	.st14{fill:#CCCCCC;}
	.st15{fill:#FF97A8;}
	.st16{fill:#FF5D7B;}
	.st17{fill:#08478E;}
	.st18{fill:#331239;}
	.st19{fill:#3B2B5B;}
	.st20{fill:#380A37;}
	.st21{fill:#B7CADE;}
	.st22{fill:#5E87B5;}
	.st23{fill:#295A6E;}
	.st24{fill:#3E7687;}
	.st25{fill:#F39734;}
	.st26{fill:none;}
	.st27{fill:#EF7F19;}
	.st28{fill:#FDCA49;}
	.st29{fill:#86B7DB;}
	.st30{fill:#FF97A6;}
	.st31{fill:#C95D77;}
	.st32{fill:#30193B;}
	.st33{fill:#FFCB48;}
	.st34{fill:#FF9A2E;}
	.st35{clip-path:url(#SVGID_2_);}
	.st36{fill:#0D6EB6;}
	.st37{clip-path:url(#SVGID_4_);}
	.st38{fill:#EFEFF6;}
	.st39{fill:#EF7F18;}
	.st40{fill:#4071A8;}
	.st41{fill:#0A498F;}
	.st42{fill:#3A7182;}
	.st43{fill:#E6E6E6;}
	.st44{fill:#FF9A19;}
	.st45{fill:#FFCB37;}
	.st46{opacity:0.1;}
	.st47{fill:#30183A;}
	.st48{fill:#F194A5;}
	.st49{fill:#C85D77;}
	.st50{fill:#BA2F7D;}
	.st51{fill:#B12384;}
	.st52{fill:#62BCD6;}
	.st53{fill:#BF7323;}
	.st54{fill:#80CAD5;}
	.st55{fill:#767579;}
	.st56{opacity:0.8;}
	.st57{fill:#9BCBE9;}
	.st58{fill:#3E275C;}
	.st59{fill:#406EB3;}
	.st60{fill:#DDD6FC;}
	.st61{fill:#EEEAFE;}
	.st62{fill:#7F65C1;}
	.st63{fill:none;stroke:#EEEAFE;stroke-width:0.5019;stroke-miterlimit:10;}
	.st64{fill:#EAE6FF;}
	.st65{fill:#D4EAF5;}
	.st66{fill:#A9CAE7;}
	.st67{fill:#ABC8E6;}
	.st68{fill:#D1C5FC;}
	.st69{fill:#CBB3FC;}
	.st70{fill:#CEAFF9;}
	.st71{fill:#FFC200;}
	.st72{fill:#E8853A;}
	.st73{fill:#5AC0F9;}
	.st74{fill:#53F9F4;}
	.st75{fill:#BF3904;}
	.st76{fill:#822302;}
	.st77{fill:#7964A8;}
	.st78{fill:#8865C4;}
	.st79{fill:#CCEAF5;}
	.st80{fill:#FFD67C;}
	.st81{fill:url(#SVGID_5_);}
	.st82{fill:url(#SVGID_6_);}
	.st83{fill:url(#SVGID_7_);}
	.st84{fill:url(#SVGID_8_);}
	.st85{fill:url(#SVGID_9_);}
	.st86{fill:url(#SVGID_10_);}
	.st87{fill:url(#SVGID_11_);}
	.st88{fill:#54565A;}
	.st89{fill:#9F79FF;}
	.st90{fill:#F2EEFF;}
	.st91{opacity:0.4;}
	.st92{fill:#E45D79;}
	.st93{fill:#FFE5AE;}
	.st94{fill:#FF97A7;}
	.st95{fill:#82CBEA;}
	.st96{fill:#BFEAF5;}
	.st97{fill:#8FD9ED;}
	.st98{fill:#43225D;}
	.st99{fill:#5C319A;}
	.st100{opacity:0.5;fill:url(#SVGID_12_);}
	.st101{fill:#632678;}
	.st102{fill:none;stroke:#FFFFFF;stroke-width:2;stroke-linecap:round;stroke-linejoin:round;stroke-miterlimit:10;}
	.st103{fill:none;stroke:#EEEAFE;stroke-miterlimit:10;}
	.st104{fill:#F98A8A;}
	.st105{fill:#AACBE8;}
	.st106{fill:#99B4DD;}
	.st107{fill:#6A54AF;}
	.st108{fill:#FD9E38;}
	.st109{fill:#DBCFFD;}
	.st110{fill:#B5B5B5;}
	.st111{fill:#80540A;}
	.st112{fill:#AD7121;}
	.st113{fill:#D5EAF5;}
	.st114{opacity:0.3;fill:#3B2B5B;}
	.st115{fill:#BAA4FF;}
	.st116{fill:#4E3E75;}
	.st117{fill:#D07BB5;}
	.st118{fill:#C14F9D;}
	.st119{fill:none;stroke:#000000;stroke-width:0.75;stroke-linecap:round;stroke-linejoin:round;stroke-miterlimit:10;}
	.st120{fill:#B3B3B3;}
	.st121{fill:#F2F2F2;}
	.st122{fill:#141414;}
	.st123{fill:#A3A3A3;}
	.st124{fill:#474747;}
	.st125{fill:#C7C7C7;}
	.st126{fill:#DBDBDB;}
</style>
<g id="Fondo">
</g>
<g id="Capa_7">
</g>
<g id="Contenido">
</g>
<g id="Footer">
</g>
<g id="Header">
</g>
<g id="Alertas">
</g>
<g id="Capa_2">
	<g>
		<g>
			<g>
				<path class="st51" d="M262.6,22.9c3.9,0,6.4,2.6,6.4,7.1v2.1c0,4.1-2,7.2-6.4,7.2c-2.1,0-3.5-0.7-4.3-1.8v7.6h-2.5V23.2h2.5v1.6
					C259.1,23.6,260.5,22.9,262.6,22.9z M266.4,32.1V30c0-3-1.5-4.8-4.1-4.8c-2.5,0-4.1,1.7-4.1,4.6v2.3c0,2.7,1.1,4.9,4.1,4.9
					C265,37,266.4,34.8,266.4,32.1z"/>
				<path class="st51" d="M284.4,32.1c0,4.1-2,7.2-6.6,7.2c-4.2,0-6.6-2.8-6.6-7.2V30c0-4.5,2.4-7.1,6.6-7.1c4.2,0,6.6,2.6,6.6,7.1
					V32.1z M281.8,32.1V30c0-3-1.5-4.8-4.1-4.8c-2.6,0-4.1,1.8-4.1,4.8v2.1c0,2.7,1.1,4.9,4.1,4.9C280.5,37,281.8,34.8,281.8,32.1z"
					/>
				<path class="st51" d="M287.4,23.2h2.5v1.6c0.8-1.2,1.9-1.8,4.3-1.8c3.4,0,5.8,1.8,5.8,6.2v9.9h-2.5v-9.9c0-3.2-1.7-3.9-3.6-3.9
					c-2.4,0-3.9,1.7-3.9,3.9v9.9h-2.5V23.2z"/>
				<path class="st51" d="M302.4,23.2h2v-3.5h2.5v3.5h3.7v2.3h-3.7v8.1c0,2.2,0.3,3.1,2.4,3.1h1.3v2.4h-1.4c-3.7,0-4.8-1.6-4.8-4.9
					v-8.7h-2V23.2z"/>
				<path class="st51" d="M325,36.6c-1.1,1.9-2.8,2.7-5.6,2.7c-4.3,0-6.8-2.8-6.8-7.2V30c0-4.5,2.1-7.1,6.3-7.1
					c4.2,0,6.3,2.6,6.3,7.1v1.7h-10v0.4c0,2.7,1.3,4.9,4.1,4.9c2.1,0,3.1-0.6,3.8-1.8L325,36.6z M315.2,29.5h7.5
					c-0.1-2.7-1.3-4.3-3.7-4.3C316.5,25.2,315.3,26.8,315.2,29.5z"/>
				<path class="st51" d="M341.3,29.9h3.8V28c0-2.3-1-2.8-3.5-2.8c-1.9,0-2.9,0.2-3.8,1.6l-1.9-1.3c1.1-1.8,2.7-2.6,5.7-2.6
					c4,0,6,1.3,6,5.1v11h-2.5v-1.6c-0.9,1.5-2,1.8-4,1.8c-3.7,0-5.7-1.8-5.7-4.9C335.4,31,337.9,29.9,341.3,29.9z M345.1,32h-3.8
					c-2.5,0-3.4,0.9-3.4,2.4c0,1.8,1.3,2.5,3.1,2.5c2.3,0,4-0.4,4-4V32z"/>
				<path class="st51" d="M351.4,17.1h2.5v16.4c0,1.7,0.1,3.2,2.7,3.2v2.3c-4,0-5.2-1.6-5.2-4.9V17.1z"/>
				<path class="st51" d="M377.3,17.1h2.5v21.9h-2.5v-1.4c-0.9,1.1-2.2,1.7-4.3,1.7c-4.3,0-6.4-3-6.4-7.2V30c0-4.5,2.4-7.1,6.4-7.1
					c2.1,0,3.5,0.7,4.3,1.8V17.1z M377.3,32.4V30c0-3-1.5-4.8-4.1-4.8c-2.6,0-4.1,1.8-4.1,4.8v2.1c0,2.7,1.4,4.9,4.1,4.9
					C376.1,37,377.3,35,377.3,32.4z"/>
				<path class="st51" d="M386.2,16h3l-2.9,5H384L386.2,16z M384,23.2h2.5v15.9H384V23.2z"/>
				<path class="st51" d="M395.8,29.9h3.8V28c0-2.3-1-2.8-3.5-2.8c-1.9,0-2.9,0.2-3.8,1.6l-1.9-1.3c1.1-1.8,2.7-2.6,5.7-2.6
					c4,0,6,1.3,6,5.1v11h-2.5v-1.6c-0.9,1.5-2,1.8-4,1.8c-3.7,0-5.7-1.8-5.7-4.9C389.9,31,392.3,29.9,395.8,29.9z M399.6,32h-3.8
					c-2.5,0-3.4,0.9-3.4,2.4c0,1.8,1.3,2.5,3.1,2.5c2.3,0,4-0.4,4-4V32z"/>
			</g>
			<g>
				<g>
					<g>
						<path class="st88" d="M78.7,17.2h1.8v22.2h-1.8v-2c-0.9,1.5-2.4,2.2-4.9,2.2c-4.2,0-6.3-2.7-6.3-7.1v-2.3c0-4.6,2.3-7,6.3-7
							c2.4,0,4,0.8,4.9,2.3V17.2z M78.7,32.5v-2.3c0-3.3-1.3-5.4-4.7-5.4c-3.1,0-4.6,1.9-4.6,5.4v2.3c0,3.4,1.5,5.5,4.6,5.5
							C77.6,37.9,78.7,35.6,78.7,32.5z"/>
					</g>
				</g>
				<g>
					<path class="st88" d="M90.8,30.2h4.7v-2c0-2.7-1.1-3.5-4.1-3.5c-1.9,0-3.2,0.1-4.2,1.8l-1.4-0.9c1.1-1.9,2.7-2.6,5.6-2.6
						c3.9,0,5.8,1.2,5.8,5.1v11.1h-1.8v-2c-0.9,1.7-2.5,2.2-4.6,2.2c-3.6,0-5.6-1.7-5.6-4.8S87.5,30.2,90.8,30.2z M95.5,31.8h-4.7
						c-2.8,0-3.7,1.3-3.7,3c0,2.3,1.6,3.1,3.8,3.1c2.6,0,4.6-0.9,4.6-4.5V31.8z"/>
					<path class="st88" d="M100.4,23.3h2.1v-3.5h1.8v3.5h4v1.6h-4v9c0,2.6,0.3,3.7,2.9,3.7h1.1v1.7H107c-3.6,0-4.6-1.6-4.6-5v-9.5
						h-2.1V23.3z"/>
				</g>
				<g>
					<path class="st88" d="M116,30.2h4.7v-2c0-2.7-1.1-3.5-4.1-3.5c-1.9,0-3.2,0.1-4.2,1.8l-1.4-0.9c1.1-1.9,2.7-2.6,5.6-2.6
						c3.9,0,5.8,1.2,5.8,5.1v11.1h-1.8v-2c-0.9,1.7-2.5,2.2-4.6,2.2c-3.6,0-5.6-1.7-5.6-4.8S112.7,30.2,116,30.2z M120.7,31.8H116
						c-2.8,0-3.7,1.3-3.7,3c0,2.3,1.6,3.1,3.8,3.1c2.6,0,4.6-0.9,4.6-4.5V31.8z"/>
				</g>
				<g>
					<path class="st88" d="M140,36.9c-1.1,1.7-3,2.6-5.5,2.6c-4.3,0-6.8-2.6-6.8-7.1v-2.3c0-4.6,2.5-7,6.8-7c2.3,0,4.2,0.8,5.4,2.5
						l-1.4,1c-0.9-1.2-2.4-1.8-4-1.8c-3.2,0-5,1.9-5,5.4v2.3c0,3.2,1.5,5.5,5,5.5c1.6,0,3.2-0.5,4.1-2L140,36.9z"/>
					<path class="st88" d="M144.5,29.7v9.7h-1.8V23.3h1.8v2.2c0.7-1.5,2-2.4,4.1-2.4c2.1,0,3.5,0.8,4.5,2.2l-1.5,1.1
						c-0.8-1.1-1.8-1.6-3.2-1.6C145.9,24.8,144.5,26.7,144.5,29.7z"/>
					<path class="st88" d="M156.2,31.8v0.7c0,3.2,1.5,5.5,4.9,5.5c2,0,3.3-0.6,4.2-2l1.4,1c-1.1,1.8-2.9,2.6-5.5,2.6
						c-4.3,0-6.8-2.6-6.8-7.1v-2.3c0-4.6,2.2-7,6.2-7c4,0,6.2,2.5,6.2,7v1.6H156.2z M156.2,30.2h8.9v0c0-3.5-1.5-5.4-4.4-5.4
						S156.2,26.6,156.2,30.2L156.2,30.2z M161.8,16h2.1l-2.8,5.1h-1.7L161.8,16z"/>
					<path class="st88" d="M181.1,17.2h1.8v22.2h-1.8v-2c-0.9,1.5-2.4,2.2-4.9,2.2c-4.2,0-6.3-2.7-6.3-7.1v-2.3c0-4.6,2.3-7,6.3-7
						c2.4,0,4,0.8,4.9,2.3V17.2z M181.1,32.5v-2.3c0-3.3-1.3-5.4-4.7-5.4c-3.1,0-4.6,1.9-4.6,5.4v2.3c0,3.4,1.5,5.5,4.6,5.5
						C180,37.9,181.1,35.6,181.1,32.5z"/>
					<path class="st88" d="M187.7,17.2h2.2v2.2h-2.2V17.2z M187.9,23.3h1.8v16.1h-1.8V23.3z"/>
					<path class="st88" d="M193.2,23.3h2.1v-3.5h1.8v3.5h4v1.6h-4v9c0,2.6,0.3,3.7,2.9,3.7h1.1v1.7h-1.1c-3.6,0-4.6-1.6-4.6-5v-9.5
						h-2.1V23.3z"/>
					<path class="st88" d="M210.3,39.5c-4.2,0-6.5-2.6-6.5-7.1v-2.3c0-4.6,2.4-7,6.5-7c4.1,0,6.5,2.5,6.5,7v2.3
						C216.8,36.8,214.6,39.5,210.3,39.5z M215,30.1c0-3.5-1.7-5.4-4.8-5.4c-3.1,0-4.8,1.9-4.8,5.4v2.3c0,3.4,1.5,5.4,4.8,5.4
						c3.1,0,4.8-2.1,4.8-5.4V30.1z"/>
				</g>
			</g>
			<g>
				<g>
					<rect x="236.2" y="11.6" class="st88" width="0.9" height="39.4"/>
				</g>
			</g>
		</g>
		<path class="st51" d="M45,0H15C6.8,0,0,6.8,0,15v30c0,8.2,6.8,15,15,15h30c8.2,0,15-6.7,15-15V15C60,6.8,53.3,0,45,0z M37.8,39.5
			c0,0.3-0.2,0.5-0.5,0.5h-2.1c-0.3,0-0.5-0.2-0.5-0.5v-9c0-1.7-0.6-3.7-3.2-3.7c-2,0-3.3,1.4-3.3,3.6v9.1c0,0.3-0.2,0.5-0.5,0.5
			h-2.1c-0.3,0-0.5-0.2-0.5-0.5v-9c0-1.7-0.6-3.7-3.2-3.7c-2,0-3.3,1.4-3.3,3.6v9.1c0,0.3-0.2,0.5-0.5,0.5h-2.1
			c-0.3,0-0.5-0.2-0.5-0.5V24.8c0-0.3,0.2-0.5,0.5-0.5h2.1c0.3,0,0.5,0.2,0.5,0.5v0.8c0.9-1.1,2.4-1.7,4.1-1.7c2,0,3.6,0.8,4.5,2.3
			c1.2-1.5,2.8-2.3,5-2.3c3.6,0,5.7,2.2,5.7,6V39.5z M44.5,39.5c0,0.3-0.2,0.5-0.5,0.5H42c-0.3,0-0.5-0.2-0.5-0.5V24.8
			c0-0.3,0.2-0.5,0.5-0.5H44c0.3,0,0.5,0.2,0.5,0.5V39.5z M44.6,20.7c0,0.3-0.2,0.5-0.5,0.5h-2.2c-0.3,0-0.5-0.2-0.5-0.5v-2.3
			c0-0.3,0.2-0.5,0.5-0.5h2.2c0.3,0,0.5,0.2,0.5,0.5V20.7z"/>
	</g>
</g>
</svg>
