<?xml version="1.0" encoding="utf-8"?>
<!-- Generator: Adobe Illustrator 23.0.6, SVG Export Plug-In . SVG Version: 6.00 Build 0)  -->
<svg version="1.1" id="Capa_1" xmlns="http://www.w3.org/2000/svg" xmlns:xlink="http://www.w3.org/1999/xlink" x="0px" y="0px"
	 viewBox="0 0 397.4 598.7" style="enable-background:new 0 0 397.4 598.7;" xml:space="preserve">
<style type="text/css">
	.st0{fill:#632678;}
</style>
<title>aviso_bad</title>
<g>
	<g>
		<path class="st0" d="M77.2,472.6c11.5,43.4,26.3,85.9,46.3,126.1h254c11.1,0,20-9,20-20V20c0-11.1-9-20-20-20H117.1
			c-14.9,43.8-26.5,88.9-35.9,134.3c-5.3,25.4-10.5,50.8-15,76.3c-0.8,4.8-7.9,3-7.3-1.7C68.2,138,82.4,67.5,105.9,0H91.6
			c-18.9,34.5-32.8,71.6-41,110.2C23.8,237.1,27.2,371.5,63.8,496.1c9.5,32.4,21.9,64,39.3,93c1.9,3.2,3.9,6.4,5.9,9.6h7.9
			c-18.8-39.9-32.9-82.1-43.5-125C72.7,471.2,76.5,470.1,77.2,472.6z M61.2,228.2c-0.6,1.6-2.4,1.8-3.4,0.5
			c-0.3-0.3-0.3-0.8-0.5-1.2c-0.3-1.1,0.4-2.3,1.6-2.5c1.2-0.2,2.3,0.7,2.3,1.9C61.3,227.3,61.3,227.8,61.2,228.2z"/>
	</g>
	<path class="st0" d="M63.4,583.6c2.4,5.2,4.8,10.2,7.3,15.1h21.6c-20.6-41.2-37.6-84.6-50-129.6c-8.6-31-15.7-62.6-20.2-94.4
		c-4.6-32.1-6.2-64.1-9.3-96.2c-0.8-8.3-10-8.9-10.9-0.9c-4.2,36.8-0.5,76.2,4.9,113.4C16.3,457.7,35.5,522.6,63.4,583.6z"/>
	<path class="st0" d="M10.9,262.1c-8.4,2-11.5-11.2-3.1-13.1C16.3,247,19.3,260.1,10.9,262.1z"/>
</g>
</svg>
