<?xml version="1.0" encoding="utf-8"?>
<!-- Generator: Adobe Illustrator 23.0.3, SVG Export Plug-In . SVG Version: 6.00 Build 0)  -->
<svg version="1.1" id="Capa_1" xmlns="http://www.w3.org/2000/svg" xmlns:xlink="http://www.w3.org/1999/xlink" x="0px" y="0px"
	 viewBox="0 0 429.8 367.3" style="enable-background:new 0 0 429.8 367.3;" xml:space="preserve">
<style type="text/css">
	.st0{fill:#BFBAE6;}
	.st1{fill:#EAE6FF;}
	.st2{fill:#3E275C;}
	.st3{fill:#9BCBE9;}
	.st4{fill:#FF97A7;}
	.st5{fill:#BFEAF5;}
	.st6{fill:#DFB3FF;}
	.st7{fill:#8865C4;}
	.st8{fill:#FFCB37;}
	.st9{fill:#331239;}
	.st10{fill:#82CBEA;}
	.st11{fill:#E45D79;}
	.st12{fill:#CBE7F2;}
	.st13{fill:#7050B2;}
	.st14{fill:#FFD980;}
	.st15{fill:#7DBDDE;}
	.st16{fill:#FF5E4B;}
	.st17{fill:#FF8076;}
	.st18{fill:#005A6F;}
	.st19{fill:#A1D7EB;}
	.st20{fill:none;stroke:#3E275C;stroke-width:0;stroke-linecap:round;stroke-linejoin:round;}
	.st21{fill:#406EB3;}
	.st22{fill:#00928B;}
	.st23{fill:#00FFFF;}
</style>
<title>PQR</title>
<g>
	<g>
		<path class="st0" d="M55.6,348.1H396c0,0,6.2-229.7-84.1-276.6C179.8,2.7,84.1,229,55.6,348.1z"/>
		<path class="st1" d="M426.3,351.3c0,8.8-91.2,16-203.7,16c-112.5,0-203.7-7.2-203.7-16s91.2-16,203.7-16
			C335.1,335.3,426.3,342.5,426.3,351.3z"/>
	</g>
	<g>
		<path class="st2" d="M129.3,211.1H91.6c-6.9,0-12.5,5.6-12.5,12.5v37.7v42.4v37.7c0,6.9,5.6,12.5,12.5,12.5h37.7h42.4h37.7
			c6.9,0,12.5-5.6,12.5-12.5v-37.7c11.7,0,21.2-9.5,21.2-21.2c0-11.7-9.5-21.2-21.2-21.2v-37.7c0-6.9-5.6-12.5-12.5-12.5h-37.7
			c-0.2,11.5-9.6,20.8-21.2,20.8C138.9,231.9,129.5,222.6,129.3,211.1z"/>
		<path class="st3" d="M327.4,165.4l36.7,8.4c6.7,1.5,13.5-2.7,15-9.4l8.4-36.7c11.4,2.6,22.8-4.5,25.4-15.9
			c2.6-11.4-4.5-22.8-15.9-25.4l8.4-36.7c1.5-6.7-2.7-13.5-9.4-15l-36.7-8.4c0-0.1,0.1-0.2,0.1-0.4c2.6-11.4-4.5-22.8-15.9-25.4
			c-11.4-2.6-22.8,4.5-25.4,15.9c0,0.1-0.1,0.2-0.1,0.4l-36.7-8.4c-6.7-1.5-13.5,2.7-15,9.4l-8.4,36.7c11.4,2.6,18.5,14,15.9,25.4
			c-2.6,11.4-14,18.5-25.4,15.9l-8.4,36.7c-1.5,6.7,2.7,13.5,9.4,15l36.7,8.4c2.6-11.4,14-18.5,25.4-15.9
			C322.8,142.6,330,154,327.4,165.4z"/>
		<g>
			<path class="st4" d="M171.5,111.1c0.3-0.3,0.5,0.2,0.6,0.7c0.1,0.1,0.1,0.3,0.2,0.5c0,0,0,0,0,0c0.2-0.5,0.6-0.9,1-1.3
				c0.2-0.3,0.6-0.8,0.9-0.7c0,0,0.1,0,0.1,0.1c0,0,0,0,0,0c0,0,0,0,0,0c0.1,0,0.2,0,0.2,0.1c-0.1,0.4-0.3,0.8-0.5,1.2
				c-0.4,0.8-1.1,1.3-1.2,2.2c-0.1,0.2-0.2,0.4-0.5,0.3c0,0,0,0,0,0c-0.1,0-0.2,0-0.2,0c0,0-0.1,0-0.1,0c0,0,0,0,0-0.1
				c0,0,0,0,0-0.1c0-0.1-0.1-0.2-0.1-0.3c-0.1-0.2-0.2-0.4-0.3-0.6c0,0,0-0.1,0-0.1c0-0.2-0.1-0.4-0.1-0.5
				C171.3,112,171.2,111.3,171.5,111.1z"/>
		</g>
		<g>
			<path class="st5" d="M180.7,138.3l0.2,0.2c0,0-1.4-1.2-1.4-1.2c-0.2-0.1-0.4-0.3-0.6-0.4c-1.8-1.3-5.1-4-5.7-7.2
				c-0.8-4.1,2.1-2.5,2.1-2.5s3,6.7,6.9,7.1C183.2,134.4,182.6,139.5,180.7,138.3z"/>
		</g>
		<g>
			<path class="st5" d="M176.2,132.7c0.6-0.3-0.3-2.7-0.2-3.5c0.6-3,0.8-9.6,0.2-14.1c-0.2-1.1-1.4-2-2.7-1.8c0,0,0,0-0.1,0
				c-3.6,0.4-3.1,3.1-3.1,5.1c0.1,2.1,1.6,8.8,2.2,10.8C173,130.3,174.9,133.5,176.2,132.7z"/>
		</g>
		<path class="st6" d="M29,136.5l13.3,35.3c2.4,6.5,9.7,9.7,16.1,7.3l35.3-13.3c4.1,10.9,16.3,16.5,27.3,12.4
			c10.9-4.1,16.5-16.3,12.4-27.3l35.2-13.3c6.5-2.4,9.7-9.7,7.3-16.1l-13.3-35.3c0.1,0,0.2-0.1,0.4-0.1
			c10.9-4.1,16.5-16.3,12.4-27.3c-4.1-10.9-16.3-16.5-27.3-12.4c-0.1,0-0.2,0.1-0.4,0.1l-13.3-35.3c-2.4-6.5-9.7-9.7-16.1-7.3
			L83,17.3c4.1,10.9-1.4,23.2-12.4,27.3c-11,4.1-23.2-1.4-27.3-12.4L8.1,45.5c-6.5,2.4-9.7,9.7-7.3,16.1l13.3,35.2
			c10.9-4.1,23.2,1.4,27.3,12.4C45.5,120.1,39.9,132.4,29,136.5z"/>
		<path class="st7" d="M238.5,304.7v37.7c0,6.9,5.6,12.5,12.5,12.5h37.7h42.4h37.7c6.9,0,12.5-5.6,12.5-12.5v-37.7v-42.4v-37.7
			c0-6.9-5.6-12.5-12.5-12.5h-37.7c0-11.7-9.5-21.2-21.2-21.2c-11.7,0-21.2,9.5-21.2,21.2H251c-6.9,0-12.5,5.6-12.5,12.5v37.7
			c11.5,0.2,20.8,9.6,20.8,21.2C259.3,295.1,250,304.6,238.5,304.7z"/>
	</g>
	<g>
		<g>
			<g>
				<path class="st8" d="M379.2,183c-0.2,0.1-0.4,0.2-0.6,0.3c-0.2,0.1-0.4,0.1-0.5,0.3c-0.2,0.2-0.3,0.4-0.4,0.6c0,0.1,0,0.1,0,0.2
					c0,0,0,0.1,0,0.1c0,0.2-0.1,0.5,0,0.7c0,0.2,0.1,0.5,0.2,0.7c0.1,0.4-0.9,1.4-0.6,3.9c0.5,1.6,2.9,3,4.6,1.9
					c0.8-0.5,0.3-2.4,0.3-3.1c-0.1-1.6-0.4-3.2-1-4.7c0.5,0.5,0.9,1.2,1.1,1.8c0,0.1,0.2,0.1,0.2,0
					C382.2,184.4,380.7,182.4,379.2,183z"/>
			</g>
			<g>
				<g>
					<path class="st2" d="M386.3,266.7c-0.3-0.3,0-1.8,0.3-2.9c0,0.4,0.1,0.8,0.4,0.4c0.5-0.5,1.2-2,1-2.6c0.4,0,0.9,0.3,1.2,0.5
						C389.7,262.3,387,267.3,386.3,266.7z"/>
				</g>
				<g>
					<path class="st4" d="M387.1,264.3c-0.4,0.4-0.4-0.1-0.4-0.4c0.2-0.7,0.4-1.2,0.4-1.3c0.1-0.3-0.1-0.6-0.1-0.6l0.4-0.7
						c0,0-0.1,0.8,0.4,0.4c0.1-0.1,0.2,0,0.3,0C388.3,262.3,387.6,263.7,387.1,264.3z"/>
				</g>
			</g>
			<g>
				<g>
					<path class="st2" d="M414.2,244.8c-0.4,0.1-1.4-1.2-2-2.1c0.3,0.2,0.6,0.4,0.6-0.1c0-0.7-0.8-2.2-1.4-2.5
						c0.3-0.3,0.8-0.5,1.1-0.6C413,239.4,415.1,244.6,414.2,244.8z"/>
				</g>
				<g>
					<path class="st4" d="M412.8,242.7c0,0.5-0.3,0.3-0.6,0.1c-0.4-0.6-0.7-1-0.8-1.1c-0.2-0.3-1.9,0.1-1.9,0.1l-0.8-1.6
						c0,0,2.5,1.1,2.5,0.4c0-0.1,0.1-0.2,0.2-0.3C412.1,240.5,412.8,241.9,412.8,242.7z"/>
				</g>
			</g>
			<g>
				<path class="st4" d="M387.7,203.9c0,0.1,2.5,2.6,4.3,6.4c2.1,4.4,3.3,7.4,3.6,13.9c0.1,2.2,0.6,10.8,0.6,10.8s8.9,3.2,12.7,5.1
					c0.8,0.4,1.9,1.4,0.8,1.6c-3.5,0.6-20.6-0.5-21.9-5.6c-2.2-9.1-4.3-18.2-4.3-18.2l-0.8,20.4l4.5,23.8l-0.3,0.6
					c0.1,0.1-9.1-13.9-12.3-26.8c-1.9-7.5-2.6-16.8-2.3-18.9c1.4-8.1,2.7-10,2.8-12.1C376.8,205.2,385.3,205.4,387.7,203.9z"/>
			</g>
			<g>
				<path class="st2" d="M375.3,205.1c0,0-3.5,6.5-3.4,13.1c0,6.6,2.9,18.3,2.9,18.3s9.8-0.7,14.4-1.7l-0.5-7l2.2,6.8l5.3-0.6
					c0,0,0.6-12.2-1.3-18.6c-1.9-6.4-4.5-9.6-7.9-12L375.3,205.1z"/>
			</g>
			<g>
				<path class="st9" d="M388.7,227.8l2.2,6.8l5.3-0.6c0,0,0.6-12.2-1.3-18.6c-1.9-6.4-4.5-9.6-7.9-12l-4.3,0.6c0,0,2.6,5.9,3.8,9.3
					C387.8,217,388.7,227.8,388.7,227.8z"/>
			</g>
			<g>
				<g>
					<path class="st4" d="M381.4,163.8c0.1-0.1-0.2-0.1-0.2-0.2c-0.1-0.3-0.4-0.7-0.7-1.3c0,0-0.4-2-0.6-1.9
						c-0.2,0.1-0.1,0.4-0.1,0.4s-0.2,0-0.3,0.1c-0.1,0.2,0,1.7,0.1,2c0,0-0.4-0.3-0.5-0.2c-0.1,0.2,0.7,0.9,1.1,0.9
						c0,0,0.3,0.1,0.5,0.3C381,164.2,381.2,163.9,381.4,163.8z"/>
				</g>
			</g>
			<g>
				<g>
					<path class="st4" d="M360.3,174.3c-0.1,0.1-0.2,0-0.3,0c-0.2-0.2-0.7-0.8-1.1-1.2c0,0-0.6-0.7-0.5-1.2c0,0,0.1-0.1,0.3,0.1
						c0,0-0.2-0.7-0.1-0.9c0.2-0.2,0.4,0.1,0.4,0.1s0-0.2,0.2-0.2c0.2,0,0.9,0.9,1,1.4c0,0-0.1-0.5,0-0.5c0.2,0,0.5,1,0.4,1.3
						c0,0,0.1,0.4,0.1,0.6C360.7,174.1,360.5,174.1,360.3,174.3z"/>
				</g>
			</g>
			<g>
				<g>
					<path class="st10" d="M386.3,166.3c1,3.3,1.7,5.5,2.2,8.9c0.6,4.3-2.7,5.2-3.1,4c-0.7-1.9-1.5-4.2-2.2-5.4
						c-1.4-2.5-3.2-5-3.8-6.2c-0.8-1.6,2.4-4.5,2.4-4.5S385.3,163.2,386.3,166.3z"/>
				</g>
			</g>
			<g>
				<polygon class="st2" points="381.2,187.8 381.2,187.8 381.2,187.8 				"/>
			</g>
			<g>
				<path class="st4" d="M380.7,187c0,0,0.6,2.8,0.5,3.1c-0.1,0.3-0.6,0.8-1,0.1c-0.4-0.7-0.3-3.2-0.3-3.2L380.7,187z"/>
			</g>
			<g>
				<path class="st11" d="M380.9,188.2c-0.3,0.5-0.8,0.6-1.1,0.5c-0.1-0.5,0-0.5,0-1l1-0.1C380.9,188.1,380.9,187.7,380.9,188.2z"/>
			</g>
			<g>
				<path class="st4" d="M378,186.8c-0.2-0.5,0-2.2,0.5-2.5c0.9-0.6,3.2,0,3.5,0.4c0.4,0.4,0.3,1,0.3,1.5c-0.1,0.5-0.4,1.3-0.7,1.7
					c-0.3,0.3-1.2,0.6-1.7,0.5C378.5,188.1,378.1,187.7,378,186.8z"/>
			</g>
			<g>
				<path class="st12" d="M372.8,191.6c1.1-0.6,3.9-1.6,7.3-2.1c1.1-0.2,2.4-0.3,3.6-0.3c2.6-0.1,4.6,0.8,4.6,0.8
					s-0.5,12.4-0.5,13.9c-2.5,1.9-2.5,1.8-5.2,2.3c-4.2,0.8-6.7,0.4-7.4-0.3c-0.4-1.8-1.1-5.1-1.4-7.7
					C373.3,193.9,372.8,191.6,372.8,191.6z"/>
			</g>
			<g>
				<path class="st5" d="M363.2,183.7c-1.2-4,5.4,1.5,5.4,1.5s3.1,5.9,7.7,5c1.5-0.3-2.4,4.8-2.4,4.8S364.8,188.8,363.2,183.7z"/>
			</g>
			<g>
				<path class="st5" d="M368.1,188.8c-2.5,0.6-11.4-10.3-8.5-14.2c1.1-1.5,2.6-0.9,2.6-0.9S372.1,187.8,368.1,188.8z"/>
			</g>
			<g>
				<g>
					<path class="st10" d="M388.6,177c0.6,8.7,0.5,12.9-0.4,15.3c-0.4,1.1-3.2-0.8-3.4-2.4c1.9-3.4,0.2-11.3,0.4-12.8
						C385.4,176,388.4,174.3,388.6,177z"/>
				</g>
			</g>
			<g>
				<path class="st13" d="M379.3,189.2c0,0,2.2-0.4,2.7-0.6l0.7,0.7l-3.8,0.5L379.3,189.2z"/>
			</g>
			<g>
				<path class="st12" d="M375.2,204.5c0.1,0.3-1.9,4.7-2.4,7.2c0,0,7,2.7,13.4,0.6c6.3-2.2,6.1-3.2,6.1-3.2s-1.3-3.1-5.1-6.1
					L375.2,204.5z"/>
			</g>
			<g>
				<path class="st5" d="M387.8,203.4c0-2.7,0.5-13.4,0.5-13.4s-2-0.9-4.6-0.8c-1.2,0-2.5,0.1-3.6,0.3c-3.4,0.5-6.2,1.5-7.3,2.1
					c0,0,0.5,2.3,1,6.6c0.3,2.4,0.8,5.3,1.3,7.2c-0.5,1.4-1.8,4.5-2.2,6.4c0,0,7,2.7,13.4,0.6c6.3-2.2,6.1-3.2,6.1-3.2
					S391.1,206.3,387.8,203.4z"/>
			</g>
			<g>
				<path class="st10" d="M387.8,203.4c0-2.7,0.5-13.4,0.5-13.4s-2-0.9-4.6-0.8c-0.7,0-1.4,0.1-2.1,0.1c-0.1,0,1.2,3.8,1.7,7.7
					c0.4,3.8,0,7.6,0,7.6l2.9,7.7c0,0,0.8-0.3,1.1-0.4c5.2-1.9,5-2.8,5-2.8S391.1,206.3,387.8,203.4z"/>
			</g>
			<g>
				<path class="st8" d="M386.9,190.3c-0.2-0.4-0.1-1.5-0.3-1.9c-0.6-1.6-1.5-1.2-1.5-1.2s0.1-2-0.4-2.8c-0.9-1.5-2.4-1.8-3.9-1.2
					c-0.8,0.3-1.4,0-1.6,0.8c0,0,0,0,0-0.1c0,0-0.1,0-0.1,0c-0.2,0.5,0.2,1.1,0.5,1.5c0.3,0.4,0.6,0.8,0.8,1.2
					c0.2,0.5-0.4,1-0.4,1.6c0,0.3,0.3,0.5,0.6,0.6c-0.5,1,0,2.3,1,2.9c-1.2,1.5-2.2,3.5-1.1,5.4c1.2,2,2.9,2.1,4.8,1.3
					c0.1,0,0.7-0.4,0.6-0.4C389.9,198.1,390.2,191.6,386.9,190.3z"/>
			</g>
			<g>
				<path class="st14" d="M382.1,198.3c-0.6-0.3-1.1-0.7-1.5-1.3c-0.4-0.6-0.6-1.3-0.6-2c0-0.4,0-0.7,0.1-1.1c0.1-0.3,0.2-0.6,0.3-1
					c0.3-0.6,0.6-1.2,1.1-1.8l0,0.4c-0.3-0.2-0.5-0.4-0.7-0.6c-0.2-0.2-0.3-0.5-0.5-0.8c-0.1-0.3-0.2-0.6-0.1-0.9
					c0-0.3,0.1-0.6,0.2-0.9l0.2,0.3c-0.2,0-0.3-0.1-0.4-0.2c-0.1-0.1-0.3-0.2-0.3-0.4c-0.1-0.3,0-0.6,0.1-0.8
					c0.1-0.2,0.2-0.4,0.2-0.6c0-0.1,0-0.2,0-0.3c0,0-0.1-0.1-0.2-0.2c-0.3-0.4-0.6-0.7-0.8-1.2c-0.2-0.4-0.4-1-0.1-1.4
					c-0.2,0.4,0,0.9,0.3,1.3c0.3,0.4,0.6,0.7,0.9,1.1c0.1,0.1,0.2,0.1,0.3,0.3c0.1,0.2,0,0.3,0,0.4c0,0.3-0.1,0.5-0.2,0.7
					c-0.1,0.2-0.1,0.4-0.1,0.5c0,0.1,0.2,0.2,0.3,0.2c0.1,0,0.2,0.1,0.2,0.3c0,0,0,0,0,0.1c-0.2,0.5-0.2,1,0,1.4
					c0.1,0.2,0.2,0.4,0.4,0.6c0.2,0.2,0.4,0.4,0.5,0.5l0,0c0.1,0.1,0.1,0.3,0.1,0.4l0,0c-0.4,0.4-0.7,1-1,1.6
					c-0.1,0.3-0.3,0.6-0.4,0.9c-0.1,0.3-0.1,0.6-0.2,0.9C380.3,196.3,381,197.6,382.1,198.3z"/>
			</g>
		</g>
	</g>
	<g>
		<g>
			<g>
				<g>
					<path class="st9" d="M227.8,358.8c0-1.4-1.6-1.2-2.7-1.4c0.3,0.2,0.6,0.4,0.2,0.5c-0.7,0.2-2.1,0-2.5-0.5
						c-0.2,0.3-0.2,0.8-0.2,1.1C222.6,358.9,227.8,359.1,227.8,358.8z"/>
				</g>
				<g>
					<path class="st4" d="M225.3,357.9c0.5-0.1,0.6-0.4-0.1-0.5c-0.6-0.1-1.1-0.3-1.2-0.4c-0.3-0.1-0.4-0.6-0.4-0.6l-0.6,0
						c0,0-0.2,0.9-0.3,1C223.2,357.8,224.6,358.1,225.3,357.9z"/>
				</g>
			</g>
			<g>
				<g>
					<path class="st9" d="M241.5,358.7c0.1-1.4-1.6-1.1-2.6-1.4c0.3,0.2,0.6,0.4,0.2,0.5c-0.6,0.2-2-0.1-2.4-0.5
						c-0.2,0.3-0.2,0.8-0.2,1.1C236.4,358.8,241.5,359.1,241.5,358.7z"/>
				</g>
				<g>
					<path class="st4" d="M239.1,357.9c0.4-0.1,0.6-0.4-0.1-0.5c-0.6-0.1-1.1-0.3-1.2-0.4c-0.3-0.1-0.4-0.5-0.4-0.5l-0.5,0
						c0,0-0.2,0.8-0.3,0.9C237,357.8,238.4,358,239.1,357.9z"/>
				</g>
			</g>
			<g>
				<g>
					<g>
						<path class="st9" d="M221.1,302.5c1.6-4.2,4.3-7.6,5.1-7.9c2.3,0.1,9.7,2.2,10.6,2.2c0.7,0.4,4,6.1,4.9,10.9
							c1.7,10-3.2,44.9-3.5,48.7c0,0.2-2.3,0.5-2.4,0c-0.5-3.8-0.9-15-3.3-28.9c-1.4-8.2-2.4-15.4-3.2-17
							c-0.5,1.1-1.3,10.7-1.8,16.8c-1.2,15.2-3.1,29.2-3.1,29.2l-2.4,0.3l-1.5-26.4C220.3,330.3,217.7,311,221.1,302.5z"/>
					</g>
				</g>
			</g>
			<g>
				<path class="st4" d="M255.1,294.4c0,0,0,0.2,0,0.2c0,0.1,0.5,0.5,0.5,0.4c0-0.2,0.8,0.1,1,0.2c0.2,0.1,0.4,0.2,0.6,0.2
					c0.4,0.1,0.6-0.1,1-0.3c0,0,0.3-0.3,0.3-0.3c-0.1-0.3-0.8-0.1-1.1-0.2c-0.5-0.2-0.8-0.3-1.2-0.5
					C255.6,293.8,255.3,293.6,255.1,294.4z"/>
			</g>
			<g>
				<g>
					<g>
						<path class="st2" d="M221.1,302.5c1.6-4.2,4.3-7.6,5.1-7.9c0.9,0,4.5,0.8,4.5,0.8s2.1,8.1,3.2,18.1c1.9,18,3.5,43.1,3.1,43.1
							c-0.6,0.1-1.2,0-1.3-0.3c-0.5-3.8-0.9-15-3.3-28.9c-1.4-8.2-2.4-15.4-3.2-17c-0.5,1.1-1.3,10.7-1.8,16.8
							c-1.2,15.2-3.1,29.2-3.1,29.2l-2.4,0.3l-1.5-26.4C220.3,330.3,217.7,311,221.1,302.5z"/>
					</g>
				</g>
			</g>
			<g>
				<g>
					<path class="st4" d="M237,259.1c-0.1-0.1,0-0.2,0-0.3c0.2-0.2,0.8-0.8,1.2-1.2c0,0,0.7-0.7,1.2-0.6c0,0,0.1,0.1-0.1,0.3
						c0,0,0.7-0.3,0.9-0.1c0.2,0.2-0.1,0.4-0.1,0.4s0.2,0,0.2,0.2c0,0.2-0.9,0.9-1.4,1.1c0,0,0.5-0.2,0.5,0s-1,0.6-1.3,0.5
						c0,0-0.4,0.1-0.6,0.1C237.2,259.5,237.1,259.3,237,259.1z"/>
				</g>
			</g>
			<g>
				<g>
					<path class="st15" d="M236.2,265.1c-3,2.1-4.9,3.5-8,5.1c-4,2-4.6,0.2-4.3-1.1c0.4-1.6,3.2-3.4,4.2-4.5c2.1-2.2,4-4.7,5-5.7
						c1.4-1.3,5,0.8,5,0.8S239,263.2,236.2,265.1z"/>
				</g>
			</g>
			<g>
				<g>
					<path class="st15" d="M226.6,269.4c2,8.8,2.9,11,2.3,13.5c-0.3,1.2-2.6,3.3-3,1.6c0.2-3.6-3.3-13.4-2.6-14.7
						C223.8,268.8,226,266.6,226.6,269.4z"/>
				</g>
			</g>
			<g>
				<g>
					<path class="st4" d="M234.9,278.4c0,0-0.9,2.3-0.8,2.7c0.1,0.4,0.6,1,1.1,0.4c0.5-0.6,0.6-2.9,0.6-2.9L234.9,278.4z"/>
				</g>
				<g>
					<path class="st11" d="M234.3,280.2c0.2,0.4,0.7,0.8,1.3,0.6c0.1-0.5,0.2-1.1,0.3-1.5l-1.1-0.3
						C234.6,279.4,234.5,279.7,234.3,280.2z"/>
				</g>
			</g>
			<g>
				<path class="st4" d="M234,275.8c0.4-0.2,1.6-0.2,2.8-0.2c0.7,0,1.3,0.6,1.3,1.4c0,0.9-0.1,1.9-0.2,2.2c-0.4,1-0.9,1.4-2.4,1.3
					c-0.5,0-1.4-0.5-1.7-0.9c-0.3-0.5-0.4-1.5-0.4-2.1C233.4,276.8,233.4,276.1,234,275.8z"/>
			</g>
			<g>
				<g>
					<path class="st3" d="M226,283.5l-0.4,7l0,4.7c0,0,0.1,0.6,5.3,2.2c4.4,1.3,7,0.8,7,1c-0.4,0.8,5.6-12.4,3.6-14.6
						c-1.6-1.7-4-2.5-8.8-3.2C230.1,280.2,226.7,281.3,226,283.5z"/>
				</g>
			</g>
			<g>
				<path class="st3" d="M239.7,283.7c0,0-1.3,10.6,2.1,14.3c2.5,2.8,11.2,2,13.6-1.6c0.9-1.4-0.4-2.7-0.4-2.7l-10.2,1l-3-10.2
					L239.7,283.7z"/>
			</g>
			<g>
				<g>
					<path class="st15" d="M226,283.5l-0.4,7l0,4.7c0,0,0.1,0.6,4.8,2c0.1,0,0.4,0.1,0.4,0.1s-1-5.9-0.5-10.1
						c0.5-4.4,2.2-6.8,2.2-6.8s-0.4-0.1-0.7-0.1C229.5,280.4,226.6,281.5,226,283.5z"/>
				</g>
			</g>
			<g>
				<path class="st2" d="M233,275.4c-0.2-0.5-0.2-1.1,0.2-1.5c0.3-0.3,0.7-0.5,1.1-0.6h0c0.4-0.1,1.8-0.1,2-0.2
					c1.4-0.5,3.4-2.3,3.9-0.2c0.4,1.7-2.1,3.1-3.3,3.5c-0.9,0.3-1.7,0-2.6,0.2c-0.5,0.8-0.8,1.6-0.6,2.5c0,0.1-0.1,0.1-0.1,0.1
					c-0.8-0.3-1.8-2.1-1.8-2.5C231.8,276.3,232.4,275.5,233,275.4z"/>
			</g>
			<g>
				<path class="st7" d="M231.9,276.8c0-0.3,0.2-0.6,0.4-0.8c0.2-0.2,0.5-0.4,0.8-0.4c0,0,0.1,0,0.1-0.1l0,0l0,0
					c-0.1-0.4-0.1-0.9,0.1-1.3c0.2-0.4,0.7-0.6,1.1-0.6l0,0h0l0,0l0,0c0.4-0.1,0.8-0.1,1.2-0.1c0.2,0,0.4,0,0.6,0
					c0.1,0,0.3,0,0.3-0.1c0.1,0,0.2-0.1,0.3-0.1c0.7-0.3,1.4-0.8,2.2-1c0.4-0.1,0.7,0,0.9,0.2c0.2,0.3,0.3,0.7,0.3,1.1
					c-0.1,0.8-0.6,1.4-1.2,1.9c0.6-0.4,1.3-1.1,1.4-1.9c0-0.2,0-0.4,0-0.6c0-0.2-0.1-0.4-0.2-0.6c-0.1-0.2-0.3-0.4-0.6-0.4
					c-0.2-0.1-0.5,0-0.7,0c-0.8,0.2-1.5,0.7-2.2,1c-0.1,0-0.2,0.1-0.3,0.1c-0.1,0-0.1,0.1-0.2,0.1c-0.2,0-0.4,0-0.6,0.1
					c-0.4,0-0.8,0-1.2,0.1l0,0h0l0,0c-0.5,0.1-1,0.3-1.3,0.8c-0.3,0.5-0.3,1-0.1,1.5l0.1-0.1c-0.4,0-0.6,0.3-0.8,0.5
					C232,276.1,231.9,276.4,231.9,276.8z"/>
			</g>
		</g>
	</g>
	<g>
		<g>
			<g>
				<g>
					<path class="st2" d="M185.3,209.5c-0.3,0.2-0.6,0.5-0.1,0.6c0.7,0.2,2.3,0,2.8-0.5c0.2,0.4,0.2,0.9,0.2,1.3
						c0,0.3-3.1,0.4-4.1,0.3c-0.4,0-1.1-0.4-1-0.7C183.1,210.3,184.9,209.6,185.3,209.5z"/>
				</g>
				<g>
					<path class="st4" d="M185.2,210.1c-0.5-0.2-0.2-0.4,0.1-0.6c0.7-0.2,1.4-0.4,1.6-0.4c0.3-0.1,0.4-2,0.4-2h0.6
						c0,0,0.1,2.5,0.1,2.6C187.5,210.1,185.9,210.3,185.2,210.1z"/>
				</g>
			</g>
			<g>
				<g>
					<path class="st2" d="M210.5,211.1c0.2,0.3,0.3,0.7-0.2,0.6c-0.7-0.2-2-1.2-2.1-1.8c-0.3,0.2-0.7,0.7-0.8,1
						c-0.1,0.2,2.4,1.9,3.3,2.4c0.4,0.2,1.1,0.2,1.2,0C212,212.9,210.7,211.4,210.5,211.1z"/>
				</g>
				<g>
					<path class="st4" d="M210.3,211.7c0.5,0.1,0.4-0.3,0.2-0.6c-0.5-0.5-0.9-0.9-0.9-1c-0.2-0.3-1-1.8-1-1.8l-0.3,0.4
						c0,0,0.1,1,0,1.1C208.3,210.5,209.5,211.5,210.3,211.7z"/>
				</g>
			</g>
			<g>
				<path class="st4" d="M194.2,146.9c0,0.2,3,4,4.7,8c2.8,6.5,8.8,39.8,9.9,51.9c0.1,1.4,0.1,2,0.4,3c0.2,0.7-1-0.2-1.1-0.5
					L188.4,162l-0.5,45.7l-0.7,1.2c0,0-6.3-17.7-7.8-31c-3-26.8,4.4-27.3,4.7-29.4C185.5,149.1,191.6,148.2,194.2,146.9z"/>
			</g>
			<g>
				<path class="st2" d="M184.1,148.5c0,0-5,1.8-5.5,16.4s1.7,18.8,1.7,18.8s13,0.4,20.1-2.5c0,0-3.3-18.4-3-20.5l5,20.1l2.5-0.4
					c0,0-1.5-19.9-5.3-26.9c-3.9-7-8.5-8.2-8.5-8.2L184.1,148.5z"/>
			</g>
			<g>
				<path class="st9" d="M184.1,148.5c0,0-5,1.8-5.5,16.4s1.7,18.8,1.7,18.8s5.2,0.2,10.9-0.4c0.3,0,0.8-0.1,0.8-0.1
					s-3.6-7.8-5.2-18c-1.2-7.5,1.6-17.6,1.6-17.6L184.1,148.5z"/>
			</g>
			<g>
				<path class="st16" d="M203,136c-0.3,0.1-0.4,0.3-1,0.4c-0.3,0-1.2,0-1.9-0.4c-0.3-0.2-0.6-0.5-0.9-0.8c-0.3-0.3-0.6-0.7-0.9-1.1
					c-1.3-2.8-3.4-6-5.9-7.9c-1.1-0.9-3.5-1.7-4.8-0.8c-1.4-0.9-2.8,0.2-3.5,1.8c-0.3,0.6-0.4,1.2-0.5,1.8c-0.5,2.1-0.3,4.5,0.9,6.3
					c0,0,0,0,0,0c0.6,1.4,1.5,2.7,2.3,3.9c1.6,2.2,3.6,4.1,5.9,5.5c0.3,0.2,0.5-0.1,0.5-0.3c1.1-0.1,2.2-0.5,3.2-1
					c1.3-0.6,2.6-1.5,3.6-2.5C201.4,139.6,203.5,136.2,203,136z"/>
			</g>
			<g>
				<polygon class="st2" points="187,131.3 187,131.3 187,131.3 				"/>
			</g>
			<g>
				<path class="st10" d="M188.7,133.9C188.7,133.9,188.7,133.9,188.7,133.9c-3.6-0.3-7.1,0.3-7.1,0.3c-0.3,0.1-1.2,3.7-1.3,5
					c-0.4,4.5,0.6,9,2,10.9c0.3,0.4,2.6,0.5,5.1,0.3c3.3-0.3,7-1.1,8.3-2.1c-0.3-0.9-1.6-5.3-1.8-9.1
					C193.7,136.4,192.7,134,188.7,133.9z"/>
			</g>
			<g>
				<path class="st5" d="M186.2,133.8c-2.5,0-4.6,0.4-4.6,0.4c-0.3,0.1-1.2,3.7-1.3,5c-0.4,4.5,0.6,9,2,10.9
					c0.3,0.4,2.3,0.5,4.5,0.4c0.2,0,0.6,0,0.6,0s-2.1-4.6-2.8-8.9C184,137.5,186.5,133.8,186.2,133.8z"/>
			</g>
			<g>
				<path class="st10" d="M191.5,136.6L191.5,136.6C191.5,136.6,191.5,136.6,191.5,136.6c-0.1,0.3-0.2,0.5-0.2,0.7
					c-0.7,2.1-3.9,7.9-6.6,9.6c-3.6,2.2-1.6-3.3-1.6-3.3l4.9-6.4C188.2,136,192.1,134.4,191.5,136.6z"/>
			</g>
			<g>
				<path class="st10" d="M184.5,145.3c-0.7-3.8-9.2-7.1-14.1-8.2c-0.2-0.1-0.7,0-0.9,0.4c-0.2,0.4-0.3,0.9-0.6,1.7
					c-1,3.5,1.8,4.3,3.9,5.3c2.1,0.9,8.8,2.7,8.8,2.7S185.1,148.4,184.5,145.3z"/>
			</g>
			<g>
				<g>
					<path class="st4" d="M186.4,130.4c0,0,0.6,3,0.4,3.3c-0.1,0.3-0.7,0.8-1.1,0.1c-0.4-0.7-0.2-3.4-0.2-3.4L186.4,130.4z"/>
				</g>
				<g>
					<path class="st11" d="M186.8,132.5c-0.3,0.3-0.8,0.5-1.2,0.2c0-0.5-0.1-1.2,0-1.6l1.1-0.1C186.6,131.5,186.7,132,186.8,132.5z"
						/>
				</g>
			</g>
			<g>
				<path class="st4" d="M184.3,129.8c0-0.5,1-2.1,1-2.1c1-1,3.3,0.8,3.5,1.3c0.3,0.5,0,1.1-0.3,1.6c-0.2,0.5-0.8,1.2-1.3,1.5
					c-0.4,0.2-1.3,0.1-1.8-0.1C184.3,131.3,184.1,130.8,184.3,129.8z"/>
			</g>
			<g>
				<path class="st16" d="M190.2,130.7c0-0.1-0.1-0.2-0.2-0.3c0,0,0.1-0.1,0-0.1c-0.5-0.9-1.3-1.7-1.9-2.5c-0.1-0.1-0.1-0.2-0.2-0.4
					c0,0,0,0,0,0c0.1,0,0.2-0.2,0.1-0.3c0-0.1,0-0.1-0.1-0.1c-0.2,0-0.4-0.1-0.6,0c-0.9-0.1-1.9,0.4-2.6,1c-0.1,0.1-0.2,0.1-0.3,0.2
					c-0.1,0-0.1,0.1-0.1,0.2c-0.1,0.1-0.2,0.2-0.2,0.3c-0.1,0.1,0.1,0.2,0.1,0.1c0.6-0.3,1.2-0.7,1.8-0.9c0.2-0.1,0.5-0.1,0.7-0.2
					c0.3,1.6,1.5,3.5,3.1,3.7c0.1,0,0.2-0.1,0.1-0.2c0,0-0.1-0.1-0.1-0.1C190.1,131,190.2,130.9,190.2,130.7z"/>
			</g>
			<g>
				<path class="st5" d="M191.6,137.5c-0.7,1-1.4,2-2.2,3c-0.7,1-1.4,2-2.1,3c-0.7,1-1.4,2-2.2,2.9c-0.2,0.2-0.4,0.4-0.6,0.6
					c-0.2,0.2-0.5,0.3-0.8,0.4c-0.6,0.2-1.2,0.1-1.8-0.1c0.6,0.2,1.2,0.4,1.8,0.3c0.3-0.1,0.6-0.2,0.9-0.4c0.2-0.2,0.5-0.4,0.7-0.6
					c0.9-0.9,1.6-1.9,2.3-2.8c0.7-1,1.4-2,2.1-3C190.3,139.6,191,138.5,191.6,137.5z"/>
			</g>
			<g>
				<path class="st4" d="M165.6,137.4c0.5,0,0.9,0,1.4,0c0,0,0.1,0,0.1,0c-0.2-0.1-0.4-0.2-0.5-0.3c-0.1,0-0.3-0.1-0.4-0.2
					c0,0,0,0,0,0c-0.1,0-0.1-0.1-0.1-0.1c0,0,0,0,0,0c0,0,0,0,0,0c0,0,0-0.1,0-0.1c0,0,0,0,0,0c0,0,0,0,0,0c0,0,0,0,0,0
					c0,0,0,0,0.1,0c0.5,0.1,1,0.2,1.4,0.4c0.1,0,0.2,0.1,0.3,0.2c0,0,0,0,0,0c0-0.1,0-0.2-0.1-0.2c0,0,0,0,0,0c0,0,0,0,0,0
					c0-0.1,0-0.1-0.1-0.2c0-0.1,0.1-0.2,0.2-0.1c0.1,0.2,0.3,0.3,0.4,0.5c0.2,0.2,0.3,0.4,0.5,0.6c0.2,0.1,0.4,0.3,0.4,0.4
					c0.1,0.1,0,0.5,0,0.7c-0.2,0.3-0.7,0.2-1.2,0.1c-0.3,0-0.6-0.1-0.8-0.2c-0.1,0-0.2,0-0.3,0c-0.3,0.1-0.7,0-0.8,0
					c-0.1,0-0.1-0.1,0-0.1c0,0,0,0,0,0c0,0,0,0,0,0c0,0,0,0,0,0c0,0,0,0,0,0c0.1,0,0.1,0,0.2,0c0.3-0.1,0.7-0.3,1.1-0.3
					c-0.1,0-0.3-0.1-0.4-0.1c-0.2,0-0.4-0.1-0.6-0.1c-0.1,0-0.2,0-0.3-0.1c-0.2,0-0.3-0.1-0.5-0.2c-0.1,0,0-0.1,0-0.1c0,0,0,0,0,0
					c0,0,0,0,0,0c0,0,0,0,0,0c0,0,0,0,0,0C165.4,137.6,165.4,137.4,165.6,137.4z"/>
			</g>
			<g>
				<path class="st17" d="M196.5,143.4c0.8-0.3,1.5-0.8,2.2-1.2c0.7-0.5,1.4-1,2-1.7c0.6-0.6,1.1-1.3,1.5-2c0.2-0.4,0.5-0.7,0.7-1.1
					c0.1-0.2,0.2-0.4,0.3-0.6c0-0.1,0.1-0.2,0.1-0.3c0-0.1,0-0.1,0-0.2c0,0,0-0.1,0-0.2c0-0.1-0.1-0.2-0.2-0.2c0,0-0.1,0-0.1,0l0,0
					c-0.3,0.1-0.4,0.2-0.5,0.2c-0.1,0.1-0.3,0.1-0.5,0.1c-0.3,0-0.7,0-1-0.1c-0.3-0.1-0.6-0.2-0.9-0.4c-0.3-0.2-0.5-0.5-0.8-0.7l0,0
					l-0.9-1.1l0,0.1c-1.1-2.3-2.4-4.5-4.2-6.3c-0.9-0.9-1.8-1.8-3.1-2.3c-0.6-0.3-1.2-0.4-1.9-0.5c-0.6-0.1-1.3,0-1.9,0.4l0.1,0
					c-0.3-0.2-0.7-0.3-1.1-0.3c-0.4,0-0.8,0.2-1.1,0.4c-0.6,0.4-1.1,1.1-1.4,1.8c0.3-0.7,0.8-1.3,1.4-1.7c0.3-0.2,0.7-0.3,1-0.3
					c0.4,0,0.7,0.1,1,0.3c0,0,0.1,0,0.1,0l0,0c0.5-0.3,1.1-0.4,1.7-0.3c0.6,0.1,1.2,0.3,1.7,0.5c1.1,0.5,2,1.4,2.9,2.3
					c1.7,1.8,3,4,4.1,6.2l0,0c0,0,0,0,0,0l0.9,1.1l0,0c0.2,0.2,0.5,0.5,0.8,0.8c0.3,0.2,0.7,0.4,1.1,0.5c0.4,0.1,0.7,0.1,1.2,0.1
					c0.2,0,0.4-0.1,0.6-0.2c0.2-0.1,0.3-0.2,0.4-0.2l-0.1,0c-0.1-0.1-0.1-0.1-0.1-0.1c0,0,0,0.1,0,0.1c0,0.1-0.1,0.2-0.1,0.3
					c-0.1,0.2-0.2,0.4-0.3,0.6c-0.2,0.4-0.4,0.7-0.6,1.1c-0.4,0.7-0.9,1.4-1.4,2.1c-0.5,0.6-1.2,1.2-1.8,1.7
					C198,142.5,197.3,143,196.5,143.4z"/>
			</g>
		</g>
	</g>
	<g>
		<g>
			<path class="st3" d="M360.8,366.4c-0.5,0-0.9-0.3-0.9-0.7l-0.6-96.1c0-0.4,0.4-0.7,0.9-0.7c0,0,0,0,0,0c0.5,0,0.9,0.3,0.9,0.7
				l0.6,96.1C361.7,366.1,361.3,366.4,360.8,366.4C360.8,366.4,360.8,366.4,360.8,366.4z"/>
		</g>
		<g>
			<path class="st3" d="M426.4,366.1c-0.5,0-0.9-0.3-0.9-0.7l-0.6-96.1c0-0.4,0.4-0.7,0.9-0.7c0,0,0,0,0,0c0.5,0,0.9,0.3,0.9,0.7
				l0.6,96.1C427.3,365.8,426.9,366.1,426.4,366.1C426.4,366.1,426.4,366.1,426.4,366.1z"/>
		</g>
		<g>
			<path class="st3" d="M426.5,299.5h-66.2c-0.5,0-0.9-0.4-0.9-0.9c0-0.5,0.4-0.9,0.9-0.9h66.2c0.5,0,0.9,0.4,0.9,0.9
				C427.4,299.1,427,299.5,426.5,299.5z"/>
		</g>
		<g>
			<path class="st3" d="M426.8,333.3h-66.5c-0.5,0-0.9-0.4-0.9-0.9c0-0.5,0.4-0.9,0.9-0.9h66.5c0.5,0,0.9,0.4,0.9,0.9
				C427.7,332.9,427.3,333.3,426.8,333.3z"/>
		</g>
		<g>
			<rect x="358.1" y="267.7" class="st18" width="71.4" height="2.9"/>
			<path class="st18" d="M429.8,270.9h-72.1v-3.5h72.1V270.9z M358.5,270.3h70.7V268h-70.7V270.3z"/>
		</g>
	</g>
	<g>
		<g>
			<g>
				<g>
					<g>
						<path class="st9" d="M56.9,354.5c0.2-0.9-1.3-0.9-2.2-1.2c0.3,0.2,0.5,0.4,0.1,0.5c-0.6,0.2-2-0.1-2.4-0.5
							c-0.2,0.3-0.2,0.8-0.2,1.1C52.2,354.9,56.8,355.3,56.9,354.5z"/>
					</g>
				</g>
			</g>
			<g>
				<g>
					<g>
						<path class="st4" d="M54.8,353.8c0.4-0.1,0.2-0.4-0.1-0.5c-0.6-0.2-1-0.3-1.1-0.4c-0.3-0.1-0.3-0.4-0.3-0.4l-0.3-0.1
							c0,0-0.5,0.7-0.5,0.8C52.8,353.8,54.2,354,54.8,353.8z"/>
					</g>
				</g>
			</g>
		</g>
		<g>
			<g>
				<g>
					<g>
						<path class="st9" d="M23.7,354.6c0-1,1.2-0.8,2.1-1c-0.2,0.2-0.5,0.4-0.1,0.5c0.6,0.2,1.8,0,2.2-0.4c0.1,0.3,0.2,0.7,0.2,1
							C28,355.1,23.7,355.4,23.7,354.6z"/>
					</g>
				</g>
			</g>
			<g>
				<g>
					<g>
						<path class="st4" d="M25.7,354.1c-0.4-0.1-0.1-0.3,0.1-0.5c0.5-0.2,0.9-0.3,1-0.3c0.2-0.1,0.3-0.3,0.3-0.3l0.3-0.1
							c0,0,0.4,0.7,0.5,0.8C27.5,354.1,26.3,354.2,25.7,354.1z"/>
					</g>
				</g>
			</g>
		</g>
		<g>
			<g>
				<path class="st2" d="M51.8,288.4c0,0.2,4.4,5.5,5.3,9.7c2.7,12.5-2.5,47.7-3.3,54.4c-0.1,0.9-2-0.1-2-1.3
					c-0.4-7-5.8-47.5-5.8-47.5l-17.3,49.6l-2.1-0.4c0,0,2.7-22.3,4.5-35.1c1.1-7.6,2.2-19,9-29.4C42.1,287.9,48.7,288.2,51.8,288.4z
					"/>
			</g>
		</g>
		<g>
			<g>
				<path class="st9" d="M51.8,288.4c0,0.2,4.4,5.5,5.3,9.7c2.7,12.5-2.5,47.7-3.3,54.4c-0.1,0.9-2-0.1-2-1.3
					c-0.4-7-5.8-47.5-5.8-47.5s1.7-4,2.2-8.1c0.2-1.9,0.2-7.4,0.2-7.4S50.5,288.3,51.8,288.4z"/>
			</g>
		</g>
		<g>
			<g>
				<path class="st19" d="M55.6,285.9c0,0,10-0.5,12.3-1.8c0.2-0.1,0.5-0.5,0.5-0.7c0.7-1.3,1.7-4.1-3.3-3.5
					c-5.6,0.6-9.7,2.6-9.7,2.6S55.7,283,55.6,285.9z"/>
			</g>
		</g>
		<g>
			<g>
				<path class="st19" d="M49.4,271c0,0,4.4,9.3,7.3,12.5c3.7,4.1,3.1-2.4,3.1-2.4s-1.6-5.3-3.4-7.6C54.9,271.4,49.6,268.4,49.4,271
					z"/>
			</g>
		</g>
		<g>
			<g>
				<path class="st3" d="M55.4,275.8c0.6,4.1,0.8,5.7-0.5,11c-0.4,1.5-15,2.8-15.2,2c-0.1-0.3-0.6-2.8-0.9-4.1
					c-1.4-6.3-1.9-8.1-1.1-10.4c0.6-1.6,0.9-3.5,9.3-4.5c2.6-0.3,4.6,0.4,5.5,1C54.1,271.7,55.2,274.1,55.4,275.8z"/>
			</g>
		</g>
		<g>
			<g>
				<g>
					<path class="st20" d="M43.1,265.7C43.1,265.7,43.1,265.7,43.1,265.7"/>
				</g>
			</g>
		</g>
		<g>
			<g>
				<path class="st15" d="M47.5,269.7c0,0,2,3.9,2.3,8.3c0.4,4.6-0.3,9.7-0.6,10.5c0,0,3.6,0,5.3-1.1c0.3-0.2,0.4-0.4,0.5-0.7
					c0.4-1.7,1.9-8.8,0.4-12.8C53.6,269.1,47.5,269.7,47.5,269.7z"/>
			</g>
		</g>
		<g>
			<g>
				<path class="st19" d="M42.9,285.5c-0.3-1.6-1.1-6.6-1.1-6.6s-0.2-9.5-3.4-6c-2.2,2.4-0.7,11.2,1.4,16.2
					C40.6,291,43.5,289.1,42.9,285.5z"/>
			</g>
		</g>
		<g>
			<g>
				<path class="st19" d="M44.8,285.8c0,0,11.7,2.2,12.1,3.9c0.4,1.8-1.4,3.4-4.7,3.8c-1.4,0.2-10.3,0.1-12.3-4.1
					C38.1,285.5,44.8,285.8,44.8,285.8z"/>
			</g>
		</g>
		<g>
			<g>
				<g>
					<path class="st4" d="M49.2,267.2c0,0-0.7,3.1-1,3.3c-0.3,0.2-1.3,0.4-1.4-0.5c-0.2-0.9,1.3-3.2,1.3-3.2L49.2,267.2z"/>
				</g>
			</g>
			<g>
				<g>
					<path class="st11" d="M48.7,269.1c-0.6,0.1-1.4-0.5-1.4-1.2c0.2-0.5,0.1-0.2,0.3-0.6l1.4,0.6C48.9,268.3,48.9,268.6,48.7,269.1
						z"/>
				</g>
			</g>
		</g>
		<g>
			<g>
				<path class="st4" d="M47.3,266.4c0-0.5,1-2.2,1-2.2c1-1,3.4,0.8,3.7,1.3c0.3,0.5,0,1.2-0.2,1.7c-0.2,0.5-0.8,1.3-1.3,1.6
					c-0.4,0.2-1.4,0.2-1.8,0C47.4,268,47.2,267.5,47.3,266.4z"/>
			</g>
		</g>
		<g>
			<path class="st2" d="M47.5,270.5c0,0,0.2,0.2,0.8,0l0.4,0.6l-0.1,0.4c-0.1,0.2-0.3,0.4-0.5,0.4l0,0c-0.3,0-0.5-0.1-0.6-0.4
				l-0.2-0.4L47.5,270.5z"/>
		</g>
		<g>
			<path class="st2" d="M48.3,271.4c0,0,1.5,3.8,1.8,5.2c0.6,2.4,0.3,5.3,0.3,5.3l-1.3,1.2l-1.8-1.3l0.5-10.5L48.3,271.4z"/>
		</g>
		<g>
			<path class="st19" d="M46.8,269.5c0,0,0.1,0.3,0.4,0.6c0.2,0.2,0.8,0.5,0.8,0.5l-0.7,1.1c0,0-1.2-1.2-1.1-1.8L46.8,269.5z"/>
		</g>
		<g>
			<path class="st19" d="M47.9,270.6l0.8,1c0,0,0.5-0.7,0.4-1.5c0-0.2-0.1-0.3-0.1-0.3l-0.6-0.1C48.6,269.6,48.4,270.1,47.9,270.6z"
				/>
		</g>
		<g>
			<g>
				<g>
					<polygon class="st21" points="40.7,286 40.8,287.4 47.7,290.4 53.5,290 47.6,288.6 					"/>
				</g>
			</g>
			<g>
				<g>
					<polygon class="st22" points="66.5,287.7 47.9,288.7 40.7,286 66.4,284.9 					"/>
				</g>
			</g>
			<g>
				<g>
					<polygon class="st22" points="66.5,289.1 47.7,290.4 49.6,275.4 68.6,275.2 					"/>
				</g>
			</g>
			<g>
				<g>
					<polygon class="st21" points="47,290 47.7,290.4 49.6,275.4 48.8,275.2 					"/>
				</g>
			</g>
			<g>
				<g>
					<polygon class="st21" points="48.8,275.2 67.1,275 68.6,275.2 49.6,275.4 					"/>
				</g>
			</g>
			<path class="st23" d="M60.3,282.3c-0.3,0.7-1.1,1-1.7,0.7s-0.9-1.1-0.5-1.8c0.3-0.7,1.1-1,1.7-0.7S60.6,281.6,60.3,282.3z"/>
		</g>
		<g>
			<g>
				<g>
					<path class="st4" d="M57.7,290.2c0.3-0.3,0.5-0.9,0.5-1.2c0-0.2-0.1-0.3-0.1-0.3s0.1-0.3-0.1-0.3c-0.1,0-0.4,0.5-0.8,0.8
						c-0.2,0.2-0.5,0.3-0.6,0.4c0,0,0.2-0.5,0-0.6c-0.2,0-0.4,0.6-0.5,1C55.9,290.4,57.3,290.7,57.7,290.2z"/>
				</g>
			</g>
			<g>
				<path class="st4" d="M56.7,289.7c0.3-0.5,0.7-1.3,0.8-1.2c0.2,0.1,0.1,0.4-0.1,0.8C57.2,289.7,56.7,289.7,56.7,289.7z"/>
			</g>
		</g>
		<g>
			<path class="st4" d="M67.6,281.7c-0.3-0.2-0.4-0.3-0.7-0.5c0,0-0.1-0.1-0.2-0.2c-0.1,0-0.2-0.1-0.1-0.2c0,0,0.1-0.1,0.1-0.1
				c0,0,0,0,0,0c0,0,0,0,0,0c0,0,0,0,0.1,0c0,0,0,0,0,0c0,0,0.1,0,0.1,0c0-0.1-0.1-0.1-0.1-0.2c0-0.1-0.2-0.2-0.2-0.3
				c0-0.1,0-0.1,0.1-0.1c0,0,0.1,0,0.1,0c0,0,0-0.1,0-0.1c0-0.1,0.2-0.2,0.5,0c-0.1-0.1,0-0.2,0-0.2c0.2,0,0.6,0.3,0.7,0.4
				C68.2,280.6,67.8,281.8,67.6,281.7z"/>
		</g>
		<g>
			<path class="st2" d="M48.6,262.2c0,0,1.3-2.7,6.4-0.7c3,1.2,3.2,4.8-1.9,4.2c-5.1-0.5-4.5-1.2-4.5-1.2s0.2,2.5-1.5,2.2
				c-0.8-0.1-0.9-3.5-0.2-4.4C47.5,261.4,48.3,261.7,48.6,262.2z"/>
		</g>
		<g>
			<path class="st7" d="M47,266.7c-0.3-0.1-0.4-0.4-0.5-0.6c-0.1-0.3-0.2-0.6-0.2-0.8c-0.1-0.6-0.1-1.1-0.1-1.7
				c0-0.3,0.1-0.6,0.2-0.9c0-0.1,0.1-0.3,0.2-0.4c0.1-0.1,0.2-0.2,0.3-0.4c0.2-0.2,0.6-0.4,1-0.3c0.4,0.1,0.7,0.3,0.9,0.5l-0.4,0
				c0.3-0.6,0.9-1,1.4-1.2c0.6-0.2,1.2-0.3,1.8-0.3c0.6,0,1.2,0.1,1.8,0.3c0.6,0.2,1.1,0.4,1.6,0.6c-0.3-0.1-0.6-0.1-0.8-0.2
				c-0.3-0.1-0.6-0.1-0.9-0.2c-0.6-0.1-1.1-0.2-1.7-0.1c-0.6,0-1.1,0.1-1.6,0.4c-0.5,0.2-0.9,0.6-1.2,1l0,0
				c-0.1,0.1-0.2,0.2-0.3,0.1c0,0-0.1,0-0.1-0.1c-0.3-0.4-0.8-0.5-1.1-0.2c-0.1,0.1-0.2,0.2-0.3,0.3c-0.1,0.1-0.1,0.2-0.2,0.3
				c-0.1,0.2-0.2,0.5-0.2,0.8c-0.1,0.5-0.1,1.1-0.1,1.7c0,0.3,0,0.6,0.1,0.8C46.7,266.2,46.8,266.5,47,266.7z"/>
		</g>
	</g>
</g>
</svg>
