<?xml version="1.0" encoding="utf-8"?>
<!-- Generator: Adobe Illustrator 23.0.6, SVG Export Plug-In . SVG Version: 6.00 Build 0)  -->
<svg version="1.1" xmlns="http://www.w3.org/2000/svg" xmlns:xlink="http://www.w3.org/1999/xlink" x="0px" y="0px"
	 viewBox="0 0 200 200" style="enable-background:new 0 0 200 200;" xml:space="preserve">
<style type="text/css">
	.st0{fill:#FFFFFF;}
	.st1{fill:#E0ECF6;}
	.st2{fill:#8DBBDD;}
	.st3{fill:none;stroke:#3184C1;stroke-width:1.3621;stroke-linecap:round;stroke-linejoin:round;stroke-miterlimit:10;}
	.st4{fill:#A1C7E3;}
	.st5{fill:none;stroke:#8DBBDD;stroke-width:1.3621;stroke-linecap:round;stroke-linejoin:round;stroke-miterlimit:10;}
	.st6{fill:#3184C1;}
	.st7{fill:none;stroke:#0D6EB6;stroke-width:1.2244;stroke-linecap:round;stroke-linejoin:round;stroke-miterlimit:10;}
	.st8{fill:none;stroke:#8DBBDD;stroke-width:1.5702;stroke-linecap:round;stroke-linejoin:round;stroke-miterlimit:10;}
	.st9{opacity:0.3;}
	.st10{fill:#D6E6F3;}
	.st11{fill:#E9F2F8;}
	.st12{fill:#5A9DCE;}
	.st13{fill:none;stroke:#E9F2F8;stroke-miterlimit:10;}
	.st14{fill:#CCCCCC;}
	.st15{fill:#FF97A8;}
	.st16{fill:#FF5D7B;}
	.st17{fill:#08478E;}
	.st18{fill:#331239;}
	.st19{fill:#3B2B5B;}
	.st20{fill:#380A37;}
	.st21{fill:#B7CADE;}
	.st22{fill:#5E87B5;}
	.st23{fill:#295A6E;}
	.st24{fill:#3E7687;}
	.st25{fill:#F39734;}
	.st26{fill:none;}
	.st27{fill:#EF7F19;}
	.st28{fill:#FDCA49;}
	.st29{fill:#86B7DB;}
	.st30{fill:#FF97A6;}
	.st31{fill:#C95D77;}
	.st32{fill:#30193B;}
	.st33{fill:#FFCB48;}
	.st34{fill:#FF9A2E;}
	.st35{clip-path:url(#SVGID_2_);}
	.st36{fill:#0D6EB6;}
	.st37{clip-path:url(#SVGID_4_);}
	.st38{fill:#EFEFF6;}
	.st39{fill:#EF7F18;}
	.st40{fill:#4071A8;}
	.st41{fill:#0A498F;}
	.st42{fill:#3A7182;}
	.st43{fill:#E6E6E6;}
	.st44{fill:#FF9A19;}
	.st45{fill:#FFCB37;}
	.st46{opacity:0.1;}
	.st47{fill:#30183A;}
	.st48{fill:#F194A5;}
	.st49{fill:#C85D77;}
	.st50{fill:#BA2F7D;}
	.st51{fill:#B12384;}
	.st52{fill:#62BCD6;}
	.st53{fill:#BF7323;}
	.st54{fill:#80CAD5;}
	.st55{fill:#767579;}
	.st56{opacity:0.8;}
	.st57{fill:#9BCBE9;}
	.st58{fill:#3E275C;}
	.st59{fill:#406EB3;}
	.st60{fill:#DDD6FC;}
	.st61{fill:#EEEAFE;}
	.st62{fill:#7F65C1;}
	.st63{fill:none;stroke:#EEEAFE;stroke-width:0.5019;stroke-miterlimit:10;}
	.st64{fill:#EAE6FF;}
	.st65{fill:#D4EAF5;}
	.st66{fill:#A9CAE7;}
	.st67{fill:#ABC8E6;}
	.st68{fill:#D1C5FC;}
	.st69{fill:#CBB3FC;}
	.st70{fill:#CEAFF9;}
	.st71{fill:#FFC200;}
	.st72{fill:#E8853A;}
	.st73{fill:#5AC0F9;}
	.st74{fill:#53F9F4;}
	.st75{fill:#BF3904;}
	.st76{fill:#822302;}
	.st77{fill:#7964A8;}
	.st78{fill:#8865C4;}
	.st79{fill:#CCEAF5;}
	.st80{fill:#FFD67C;}
	.st81{fill:url(#SVGID_5_);}
	.st82{fill:url(#SVGID_6_);}
	.st83{fill:url(#SVGID_7_);}
	.st84{fill:url(#SVGID_8_);}
	.st85{fill:url(#SVGID_9_);}
	.st86{fill:url(#SVGID_10_);}
	.st87{fill:url(#SVGID_11_);}
	.st88{fill:#54565A;}
	.st89{fill:#9F79FF;}
	.st90{fill:#F2EEFF;}
	.st91{opacity:0.4;}
	.st92{fill:#E45D79;}
	.st93{fill:#FFE5AE;}
	.st94{fill:#FF97A7;}
	.st95{fill:#82CBEA;}
	.st96{fill:#BFEAF5;}
	.st97{fill:#8FD9ED;}
	.st98{fill:#43225D;}
	.st99{fill:#5C319A;}
	.st100{opacity:0.5;fill:url(#SVGID_12_);}
	.st101{fill:#632678;}
	.st102{fill:none;stroke:#FFFFFF;stroke-width:2;stroke-linecap:round;stroke-linejoin:round;stroke-miterlimit:10;}
	.st103{fill:none;stroke:#EEEAFE;stroke-miterlimit:10;}
	.st104{fill:#F98A8A;}
	.st105{fill:#AACBE8;}
	.st106{fill:#99B4DD;}
	.st107{fill:#6A54AF;}
	.st108{fill:#FD9E38;}
	.st109{fill:#DBCFFD;}
	.st110{fill:#B5B5B5;}
	.st111{fill:#80540A;}
	.st112{fill:#AD7121;}
	.st113{fill:#D5EAF5;}
	.st114{opacity:0.3;fill:#3B2B5B;}
	.st115{fill:#BAA4FF;}
	.st116{fill:#4E3E75;}
	.st117{fill:#D07BB5;}
	.st118{fill:#C14F9D;}
	.st119{fill:none;stroke:#000000;stroke-width:0.75;stroke-linecap:round;stroke-linejoin:round;stroke-miterlimit:10;}
	.st120{fill:#B3B3B3;}
	.st121{fill:#F2F2F2;}
	.st122{fill:#141414;}
	.st123{fill:#A3A3A3;}
	.st124{fill:#474747;}
	.st125{fill:#C7C7C7;}
	.st126{fill:#DBDBDB;}
</style>
<g id="Fondo">
</g>
<g id="Capa_7">
</g>
<g id="Contenido">
</g>
<g id="Footer">
</g>
<g id="Header">
</g>
<g id="Alertas">
</g>
<g id="Capa_2">
	<g>
		<g>
			<g class="st9">
				<path d="M158.2,168.5c0,2-27,3.5-60.3,3.5s-60.3-1.6-60.3-3.5c0-2,27-3.5,60.3-3.5S158.2,166.5,158.2,168.5z"/>
			</g>
			<g>
				<path class="st10" d="M153.5,31.9v120.6c0,8.6-7,15.6-15.6,15.6H59.3c-8.6,0-15.6-7-15.6-15.6V31.9c0-8.6,7-15.6,15.6-15.6h78.6
					C146.5,16.3,153.5,23.3,153.5,31.9z"/>
				<path class="st11" d="M144.9,31.3v121.8c0,3.4-2.7,6.1-6.1,6.1H58.4c-3.4,0-6.1-2.7-6.1-6.1V31.3c0-3.4,2.7-6.1,6.1-6.1h80.4
					C142.2,25.2,144.9,27.9,144.9,31.3z"/>
				<path class="st12" d="M139.3,36.6v16.3c0,1.1-0.9,2-2,2H59.9c-1.1,0-2-0.9-2-2V36.6c0-1.1,0.9-2,2-2h77.5
					C138.4,34.6,139.3,35.5,139.3,36.6z"/>
				<path class="st10" d="M74,69.8v13.6c0,0.9-0.8,1.7-1.7,1.7H59.5c-0.9,0-1.7-0.8-1.7-1.7V69.8c0-0.9,0.8-1.7,1.7-1.7h12.8
					C73.3,68.1,74,68.9,74,69.8z"/>
				<path class="st10" d="M95.8,69.8v13.6c0,0.9-0.8,1.7-1.7,1.7H81.3c-0.9,0-1.7-0.8-1.7-1.7V69.8c0-0.9,0.8-1.7,1.7-1.7h12.8
					C95,68.1,95.8,68.9,95.8,69.8z"/>
				<path class="st10" d="M117.6,69.8v13.6c0,0.9-0.8,1.7-1.7,1.7h-12.8c-0.9,0-1.7-0.8-1.7-1.7V69.8c0-0.9,0.8-1.7,1.7-1.7h12.8
					C116.8,68.1,117.6,68.9,117.6,69.8z"/>
				<path class="st10" d="M139.3,69.8v13.6c0,0.9-0.8,1.7-1.7,1.7h-12.8c-0.9,0-1.7-0.8-1.7-1.7V69.8c0-0.9,0.8-1.7,1.7-1.7h12.8
					C138.6,68.1,139.3,68.9,139.3,69.8z"/>
				<path class="st10" d="M74,91.7v13.6c0,0.9-0.8,1.7-1.7,1.7H59.5c-0.9,0-1.7-0.8-1.7-1.7V91.7c0-0.9,0.8-1.7,1.7-1.7h12.8
					C73.3,90,74,90.8,74,91.7z"/>
				<path class="st10" d="M95.8,91.7v13.6c0,0.9-0.8,1.7-1.7,1.7H81.3c-0.9,0-1.7-0.8-1.7-1.7V91.7c0-0.9,0.8-1.7,1.7-1.7h12.8
					C95,90,95.8,90.8,95.8,91.7z"/>
				<path class="st10" d="M117.6,91.7v13.6c0,0.9-0.8,1.7-1.7,1.7h-12.8c-0.9,0-1.7-0.8-1.7-1.7V91.7c0-0.9,0.8-1.7,1.7-1.7h12.8
					C116.8,90,117.6,90.8,117.6,91.7z"/>
				<path class="st10" d="M139.3,91.7v13.6c0,0.9-0.8,1.7-1.7,1.7h-12.8c-0.9,0-1.7-0.8-1.7-1.7V91.7c0-0.9,0.8-1.7,1.7-1.7h12.8
					C138.6,90,139.3,90.8,139.3,91.7z"/>
				<path class="st10" d="M74,113.6v13.6c0,0.9-0.8,1.7-1.7,1.7H59.5c-0.9,0-1.7-0.8-1.7-1.7v-13.6c0-0.9,0.8-1.7,1.7-1.7h12.8
					C73.3,111.9,74,112.6,74,113.6z"/>
				<path class="st10" d="M95.8,113.6v13.6c0,0.9-0.8,1.7-1.7,1.7H81.3c-0.9,0-1.7-0.8-1.7-1.7v-13.6c0-0.9,0.8-1.7,1.7-1.7h12.8
					C95,111.9,95.8,112.6,95.8,113.6z"/>
				<path class="st10" d="M117.6,113.6v13.6c0,0.9-0.8,1.7-1.7,1.7h-12.8c-0.9,0-1.7-0.8-1.7-1.7v-13.6c0-0.9,0.8-1.7,1.7-1.7h12.8
					C116.8,111.9,117.6,112.6,117.6,113.6z"/>
				<path class="st10" d="M139.3,114.5v33.8c0,1.4-1.2,2.6-2.6,2.6h-11.1c-1.4,0-2.6-1.2-2.6-2.6v-33.8c0-1.4,1.2-2.6,2.6-2.6h11.1
					C138.2,111.9,139.3,113,139.3,114.5z"/>
				<path class="st10" d="M74,135.4v13.6c0,0.9-0.8,1.7-1.7,1.7H59.5c-0.9,0-1.7-0.8-1.7-1.7v-13.6c0-0.9,0.8-1.7,1.7-1.7h12.8
					C73.3,133.8,74,134.5,74,135.4z"/>
				<path class="st10" d="M95.8,135.4v13.6c0,0.9-0.8,1.7-1.7,1.7H81.3c-0.9,0-1.7-0.8-1.7-1.7v-13.6c0-0.9,0.8-1.7,1.7-1.7h12.8
					C95,133.8,95.8,134.5,95.8,135.4z"/>
				<path class="st10" d="M117.6,135.4v13.6c0,0.9-0.8,1.7-1.7,1.7h-12.8c-0.9,0-1.7-0.8-1.7-1.7v-13.6c0-0.9,0.8-1.7,1.7-1.7h12.8
					C116.8,133.8,117.6,134.5,117.6,135.4z"/>
				<g>
					<line class="st13" x1="128.5" y1="38.4" x2="133.6" y2="38.4"/>
					<line class="st13" x1="128" y1="38.9" x2="128" y2="44"/>
					<line class="st13" x1="134.1" y1="44" x2="134.1" y2="38.9"/>
					<line class="st13" x1="128" y1="45" x2="128" y2="50.1"/>
					<line class="st13" x1="133.6" y1="50.7" x2="128.5" y2="50.7"/>
					<line class="st13" x1="134.1" y1="50.1" x2="134.1" y2="45"/>
				</g>
				<g>
					<line class="st13" x1="119.4" y1="38.4" x2="124.5" y2="38.4"/>
					<line class="st13" x1="124.5" y1="44.5" x2="119.4" y2="44.5"/>
					<line class="st13" x1="125" y1="44" x2="125" y2="38.9"/>
					<line class="st13" x1="118.9" y1="45" x2="118.9" y2="50.1"/>
					<line class="st13" x1="124.5" y1="50.7" x2="119.4" y2="50.7"/>
				</g>
				<g>
					<line class="st13" x1="110.3" y1="38.4" x2="115.4" y2="38.4"/>
					<line class="st13" x1="109.8" y1="38.9" x2="109.8" y2="44"/>
					<line class="st13" x1="115.4" y1="44.5" x2="110.3" y2="44.5"/>
					<line class="st13" x1="115.4" y1="50.7" x2="110.3" y2="50.7"/>
					<line class="st13" x1="115.9" y1="50.1" x2="115.9" y2="45"/>
				</g>
				<line class="st13" x1="106.9" y1="50.7" x2="105.4" y2="50.7"/>
				<g>
					<line class="st13" x1="96.4" y1="38.9" x2="96.4" y2="44"/>
					<line class="st13" x1="102" y1="44.5" x2="96.9" y2="44.5"/>
					<line class="st13" x1="102.5" y1="44" x2="102.5" y2="38.9"/>
					<line class="st13" x1="102.5" y1="50.1" x2="102.5" y2="45"/>
				</g>
				<g>
					<line class="st13" x1="87.8" y1="38.4" x2="92.9" y2="38.4"/>
					<line class="st13" x1="92.9" y1="44.5" x2="87.8" y2="44.5"/>
					<line class="st13" x1="93.4" y1="44" x2="93.4" y2="38.9"/>
					<line class="st13" x1="92.9" y1="50.7" x2="87.8" y2="50.7"/>
					<line class="st13" x1="93.4" y1="50.1" x2="93.4" y2="45"/>
				</g>
			</g>
		</g>
		<g>
			<path class="st14" d="M134.6,176.4c-15.3,0-27.7,1.6-27.7,3.5s12.4,3.5,27.7,3.5s27.7-1.6,27.7-3.5S150,176.4,134.6,176.4z"/>
			<g>
				<g>
					<g>
						<g>
							<g>
								<path class="st15" d="M94.7,65.7c-0.7-0.8-0.6-2.2,0.3-2.2c0.1,0,0.5,0.1,0.9,0.3c0.3,0.1,0.5,0.2,0.5,0.2s-0.7-0.5-0.5-0.7
									c0.3-0.2,0.6,0.1,0.9,0.3c0.3,0.2,1.9,1.4,1.7,2.7c0.1-0.1-0.2,0.3-0.3,0.3C97.4,66.9,95.4,66.6,94.7,65.7z"/>
							</g>
						</g>
					</g>
					<g>
						<g>
							<g>
								<path class="st15" d="M93.5,63.2c0,0-0.6,0.1,0.9,0.8l1.7-0.1C96.1,63.9,93.9,63.1,93.5,63.2z"/>
							</g>
						</g>
					</g>
				</g>
				<g>
					<g>
						<g>
							<path class="st15" d="M135,79.6c0,0-0.6,3-0.3,3.4c0.3,0.3,1.2,0.8,1.7,0c0.5-0.8,0-3.4,0-3.4L135,79.6z"/>
						</g>
					</g>
					<g>
						<g>
							<path class="st16" d="M134.7,81.8c0.6,0.3,1.3,0.4,2,0.1c0-0.6,0-1.2-0.1-1.6l-1.7,0C134.8,80.7,134.8,81.3,134.7,81.8z"/>
						</g>
					</g>
				</g>
				<g>
					<g>
						<path class="st15" d="M138.1,80.3c0.3-0.3,0.8-1.5,1.1-2.6c0.3-0.9-0.2-1.8-1.1-2.1c-1.4-0.4-2.9-0.8-3.4-0.7
							c-0.8,0.2-1.1,1.1-1.4,1.8c-0.3,0.7-0.5,2-0.3,2.7c0.2,0.7,1.1,1.5,1.7,1.7C136.5,81.7,137.3,81.5,138.1,80.3z"/>
					</g>
				</g>
				<g>
					<g>
						<g>
							<g>
								<path class="st17" d="M141.5,178.2c0-1.4,2.1-1.2,3.4-1.6c-0.4,0.2-0.8,0.6-0.2,0.8c0.9,0.3,3,0,3.6-0.6
									c0.2,0.5,0.3,1.2,0.2,1.7C148.5,179.1,141.5,179.4,141.5,178.2z"/>
							</g>
						</g>
					</g>
					<g>
						<g>
							<g>
								<path class="st18" d="M144.7,177.4c-0.6-0.2-0.2-0.6,0.2-0.8c0.8-0.2,1.6-0.4,1.7-0.5c0.4-0.2,0.5-0.5,0.5-0.5l0.4-0.1
									c0,0,0.7,1.1,0.7,1.3C147.7,177.5,145.6,177.7,144.7,177.4z"/>
							</g>
						</g>
					</g>
				</g>
				<g>
					<g>
						<g>
							<g>
								<path class="st17" d="M120.2,178.9c-0.1-1.4,2.1-1.2,3.4-1.6c-0.4,0.2-0.8,0.6-0.2,0.8c0.9,0.3,3,0,3.6-0.6
									c0.2,0.5,0.3,1.2,0.2,1.7C127.2,179.7,120.3,180,120.2,178.9z"/>
							</g>
						</g>
					</g>
					<g>
						<g>
							<g>
								<path class="st18" d="M123.4,178.1c-0.6-0.2-0.2-0.6,0.2-0.8c0.8-0.2,1.6-0.4,1.7-0.5c0.4-0.2,0.5-0.5,0.5-0.5l0.4-0.1
									c0,0,0.7,1.1,0.7,1.3C126.4,178.1,124.3,178.3,123.4,178.1z"/>
							</g>
						</g>
					</g>
				</g>
				<g>
					<g>
						<g>
							<path class="st19" d="M143.3,100.9c0,0.2,4.6,4.9,5.8,10.2c2.6,11.7-0.1,57-0.5,63.8c0,0.5-0.4,0.9-1,0.9l-0.8,0
								c-0.4,0-0.7-0.3-0.8-0.6l-9.8-57l-2.3,17.3l-7.1,40.9l-1.5,0.2c0,0-1.6-34.3-2.4-42.8c-2-22.4,3.6-31.4,4.1-32.8
								C128.9,101.8,139.8,102.4,143.3,100.9z"/>
						</g>
					</g>
				</g>
				<g>
					<g>
						<g>
							<path class="st20" d="M143.3,100.9c0,0.2,4.6,4.9,5.8,10.2c2.6,11.7-0.1,57-0.5,63.8c0,0.5-0.4,0.9-1,0.9l-0.8,0
								c-0.4,0-0.7-0.3-0.8-0.6l-9.8-57c0,0,1-5.8,1-8.9c0-4.7-0.8-7.5-0.8-7.5s0.3,0,0.5,0C139.5,101.7,141.9,101.5,143.3,100.9z"
								/>
						</g>
					</g>
				</g>
				<g>
					<g>
						<path class="st21" d="M98.5,65.8c0.3-0.3,18.4,9.3,19.6,10.5c1.1,1.1,4.5,4.4,4.5,4.4s-11-1.2-15.2-2.6
							C101.3,76,91.9,72.6,98.5,65.8z"/>
					</g>
				</g>
				<g>
					<path class="st21" d="M113.8,73.9c0,0,14.4,8.8,15.9,8.2c3.1-1.2,12,0.4,13.1,0.3c5.2-0.3,3.9,6.1,3.9,6.1s-1.2,3.6-1.5,5.2
						c-0.5,2.6-1.4,5.8-1.8,7.2c-4.1,2-14.5,0.9-16.4,0.5c0-0.1,0.1-3.4-0.2-6.2c-0.3-2.6-1.2-8.8-1.7-9.3c-3-3.5-13.8-7-13.8-7
						L113.8,73.9z"/>
				</g>
				<g>
					<path class="st22" d="M135.9,82.8c0,0,0.3,0,0.4,0c3-0.2,5.9-0.4,6.5-0.4c5.2-0.2,16.3,8,16.3,8l-0.3,4.4
						c0,0.1-12.2-6.2-12.2-6.2s-1.3,3.6-1.6,5.2c-0.5,2.6-1.4,5.8-1.8,7.2c-1.7,0.8-4,1.1-6.4,1.1c-0.1,0-0.4,0-0.4,0
						s1.9-5.2,1.3-13.1C137.5,85.4,135.9,82.8,135.9,82.8z"/>
				</g>
				<g>
					<path class="st23" d="M138.4,73.4c-0.3-0.4-0.9-1.7-1.4-2.7c-0.4-0.8-1.9-1.4-2.3-0.6c-0.5-0.8-1.3-2.1-2.3-1.1
						c-0.6,0.6-0.8,2.2-0.2,3.2c-0.5,0.4-0.4,1.4-0.1,2c1.1,1.6,2.9,1.4,4,2.3c0.3,0.9,0.5,1.8,0.7,2.7c0,0.2,0.1,0.4,0.1,0.6
						c0,0.2,0,0.4,0.1,0.6c0.1,0.4,0.5,0.8,1,0.8c0.7,0,2-0.9,2.4-1.6c0.7-1.2,1.3-2,1.2-3.2C141.5,75.2,139.6,73.2,138.4,73.4z"/>
				</g>
				<g>
					<path class="st24" d="M134.4,75.6c-0.4,0-0.8-0.1-1.3-0.3c-0.4-0.2-0.8-0.4-1.1-0.8c-0.3-0.3-0.5-0.8-0.6-1.3
						c0-0.2,0-0.5,0-0.7c0-0.2,0.1-0.6,0.5-0.8l-0.2,0.5c-0.2-0.5-0.3-0.9-0.4-1.4c0-0.5,0-1,0.2-1.5c0.1-0.2,0.3-0.4,0.4-0.6
						c0.2-0.2,0.4-0.4,0.7-0.4c0.6,0,1,0.4,1.2,0.8c-0.3-0.3-0.7-0.6-1.1-0.4c-0.2,0.1-0.3,0.2-0.4,0.3c-0.1,0.2-0.2,0.3-0.3,0.5
						c-0.2,0.7-0.1,1.6,0.2,2.4l0.1,0.1c0.1,0.1,0,0.3-0.1,0.3c0,0-0.1,0-0.1,0c0,0-0.1,0.1-0.1,0.3c0,0.2,0,0.3,0,0.5
						c0,0.4,0.1,0.7,0.3,1C132.9,74.9,133.7,75.3,134.4,75.6z"/>
				</g>
				<g>
					<g>
						<path class="st15" d="M149.1,104.4c0.2,0.1,0.3,0.3,0.3,0.5c-0.1,0.5-0.4,1.1-0.6,2.1c-0.1,0.5-0.3,0.9-0.4,1.4
							c0,0-0.3-0.4-1.1-2c-0.1-0.1-0.2-0.7-0.5-0.7c-1.7-0.5-1.5-0.9-1.5-1c0.1-0.4,1.6,0.5,2.1,0.3c0,0,0.5-0.5,0.7-0.7
							C148.2,104,148.7,104.2,149.1,104.4z"/>
					</g>
				</g>
				<g>
					<g>
						<path class="st22" d="M147.9,104.1c-0.2-0.4,2.6-4.7,2.8-5.1c1.5-2.9,3.2-6.2,4.4-7.4c1-1,3.9-3.1,4.7,0.1
							c0.1,0.3-0.4,1.8-1.5,5.6C156.4,103.5,152.4,111,147.9,104.1z"/>
					</g>
				</g>
			</g>
		</g>
		<path class="st14" d="M72.4,171.9c-12.2,0-22.2,2.6-22.2,5.9s9.9,5.9,22.2,5.9s22.2-2.6,22.2-5.9S84.6,171.9,72.4,171.9z"/>
		<g>
			<g>
				<path class="st25" d="M89.4,177.6c0,2.9-7.9,5.2-17.6,5.2c-9.7,0-17.6-2.3-17.6-5.2c0-0.5-0.3-2.5,0.1-3c2-2.2,9.3-2.2,17.5-2.2
					c8.2,0,15.5-0.1,17.4,2.1C89.5,175,89.4,177.2,89.4,177.6z"/>
				<g>
					<path class="st26" d="M89.2,174.6c-1.9-2.3-9.2-2.1-17.4-2.1c-8.2,0-15.5,0-17.5,2.2c-0.4,0.4-0.1,2.5-0.1,3
						c0,0.7,0.5,1.3,1.3,1.9v-3.5H56v3.9c0.8,0.4,1.7,0.9,2.9,1.2v-3.5h0.6v3.7c0.9,0.3,1.8,0.5,2.9,0.7v-3.8h0.6v3.9
						c0.9,0.2,1.9,0.3,2.9,0.4v-3.7h0.6v3.8c1,0.1,2.1,0.2,3.2,0.2v-4H70v4c0.6,0,1.2,0,1.7,0c0.5,0,0.9,0,1.4,0v-3.7h0.6v3.7
						c0.9,0,1.8-0.1,2.7-0.2v-3.5h0.6v3.5c1.1-0.1,2.2-0.2,3.3-0.4v-3.5h0.6v3.4c1.4-0.2,2.6-0.5,3.7-0.9v-3.6H85v3.4
						c1.1-0.4,2.1-0.8,2.8-1.3v-3.7h0.6v3.3c0.7-0.5,1-1.1,1-1.7C89.4,177.2,89.5,175,89.2,174.6z"/>
					<path class="st27" d="M55.4,176.1v3.5c0.2,0.1,0.4,0.2,0.6,0.4v-3.9H55.4z"/>
					<path class="st27" d="M58.9,177.6v3.5c0.2,0.1,0.4,0.1,0.6,0.2v-3.7H58.9z"/>
					<path class="st27" d="M62.3,178.2v3.8c0.2,0,0.4,0.1,0.6,0.1v-3.9H62.3z"/>
					<path class="st27" d="M65.7,178.8v3.7c0.2,0,0.4,0,0.6,0.1v-3.8H65.7z"/>
					<path class="st27" d="M69.5,178.8v4c0.2,0,0.4,0,0.6,0v-4H69.5z"/>
					<path class="st27" d="M73.1,179.1v3.7c0.2,0,0.4,0,0.6,0v-3.7H73.1z"/>
					<path class="st27" d="M76.4,179.1v3.5c0.2,0,0.4,0,0.6,0v-3.5H76.4z"/>
					<path class="st27" d="M80.2,178.6v3.5c0.2,0,0.4-0.1,0.6-0.1v-3.4H80.2z"/>
					<path class="st27" d="M84.4,177.6v3.6c0.2-0.1,0.4-0.1,0.6-0.2v-3.4H84.4z"/>
					<path class="st27" d="M87.8,176.1v3.7c0.2-0.1,0.4-0.3,0.6-0.4v-3.3H87.8z"/>
				</g>
				<path class="st28" d="M89.4,175c0,2-5.2,5-17.6,5c-14.1,0-17.6-3-17.6-5c0-2,7.9-3.6,17.6-3.6C81.5,171.4,89.4,173,89.4,175z"/>
			</g>
			<g>
				<path class="st25" d="M91,171.9c0,2.9-7.9,5.2-17.6,5.2c-9.7,0-17.6-2.3-17.6-5.2c0-0.5-0.3-2.5,0.1-3c2-2.2,9.3-2.2,17.5-2.2
					c8.2,0,15.5-0.1,17.4,2.1C91.2,169.3,91,171.5,91,171.9z"/>
				<g>
					<path class="st26" d="M90.9,168.9c-1.9-2.3-9.2-2.1-17.4-2.1c-8.2,0-15.5,0-17.5,2.2c-0.4,0.4-0.1,2.5-0.1,3
						c0,0.7,0.5,1.3,1.3,1.9v-3.5h0.6v3.9c0.8,0.4,1.7,0.9,2.9,1.2v-3.5h0.6v3.7c0.9,0.3,1.8,0.5,2.9,0.7v-3.8h0.6v3.9
						c0.9,0.2,1.9,0.3,2.9,0.4v-3.7h0.6v3.8c1,0.1,2.1,0.2,3.2,0.2v-4h0.6v4c0.6,0,1.2,0,1.7,0c0.5,0,0.9,0,1.4,0v-3.7h0.6v3.7
						c0.9,0,1.8-0.1,2.7-0.2v-3.5h0.6v3.5c1.1-0.1,2.2-0.2,3.3-0.4v-3.5h0.6v3.4c1.4-0.2,2.6-0.5,3.7-0.9v-3.6h0.6v3.4
						c1.1-0.4,2.1-0.8,2.8-1.3v-3.7H90v3.3c0.7-0.5,1-1.1,1-1.7C91,171.5,91.2,169.3,90.9,168.9z"/>
					<path class="st27" d="M57.1,170.4v3.5c0.2,0.1,0.4,0.2,0.6,0.4v-3.9H57.1z"/>
					<path class="st27" d="M60.5,171.9v3.5c0.2,0.1,0.4,0.1,0.6,0.2v-3.7H60.5z"/>
					<path class="st27" d="M63.9,172.5v3.8c0.2,0,0.4,0.1,0.6,0.1v-3.9H63.9z"/>
					<path class="st27" d="M67.4,173.1v3.7c0.2,0,0.4,0,0.6,0.1v-3.8H67.4z"/>
					<path class="st27" d="M71.1,173.1v4c0.2,0,0.4,0,0.6,0v-4H71.1z"/>
					<path class="st27" d="M74.8,173.4v3.7c0.2,0,0.4,0,0.6,0v-3.7H74.8z"/>
					<path class="st27" d="M78,173.4v3.5c0.2,0,0.4,0,0.6,0v-3.5H78z"/>
					<path class="st27" d="M81.9,172.9v3.5c0.2,0,0.4-0.1,0.6-0.1v-3.4H81.9z"/>
					<path class="st27" d="M86.1,171.9v3.6c0.2-0.1,0.4-0.1,0.6-0.2v-3.4H86.1z"/>
					<path class="st27" d="M89.4,170.4v3.7c0.2-0.1,0.4-0.3,0.6-0.4v-3.3H89.4z"/>
				</g>
				<path class="st28" d="M91,169.3c0,2-5.2,5-17.6,5c-14.1,0-17.6-3-17.6-5c0-2,7.9-3.6,17.6-3.6C83.1,165.7,91,167.3,91,169.3z"/>
			</g>
			<g>
				<path class="st25" d="M91.2,167.2c0,2.9-7.9,5.2-17.6,5.2c-9.7,0-17.6-2.3-17.6-5.2c0-0.5-0.3-2.5,0.1-3c2-2.2,9.3-2.2,17.5-2.2
					c8.2,0,15.5-0.1,17.4,2.1C91.4,164.5,91.2,166.8,91.2,167.2z"/>
				<g>
					<path class="st26" d="M91,164.1c-1.9-2.3-9.2-2.1-17.4-2.1c-8.2,0-15.5,0-17.5,2.2c-0.4,0.4-0.1,2.5-0.1,3
						c0,0.7,0.5,1.3,1.3,1.9v-3.5h0.6v3.9c0.8,0.4,1.7,0.9,2.9,1.2v-3.5h0.6v3.7c0.9,0.3,1.8,0.5,2.9,0.7v-3.8h0.6v3.9
						c0.9,0.2,1.9,0.3,2.9,0.4v-3.7h0.6v3.8c1,0.1,2.1,0.2,3.2,0.2v-4h0.6v4c0.6,0,1.2,0,1.7,0c0.5,0,0.9,0,1.4,0v-3.7h0.6v3.7
						c0.9,0,1.8-0.1,2.7-0.2v-3.5h0.6v3.5c1.1-0.1,2.2-0.2,3.3-0.4v-3.5h0.6v3.4c1.4-0.2,2.6-0.5,3.7-0.9v-3.6h0.6v3.4
						c1.1-0.4,2.1-0.8,2.8-1.3v-3.7h0.6v3.3c0.7-0.5,1-1.1,1-1.7C91.2,166.8,91.4,164.5,91,164.1z"/>
					<path class="st27" d="M57.3,165.6v3.5c0.2,0.1,0.4,0.2,0.6,0.4v-3.9H57.3z"/>
					<path class="st27" d="M60.7,167.2v3.5c0.2,0.1,0.4,0.1,0.6,0.2v-3.7H60.7z"/>
					<path class="st27" d="M64.1,167.8v3.8c0.2,0,0.4,0.1,0.6,0.1v-3.9H64.1z"/>
					<path class="st27" d="M67.6,168.4v3.7c0.2,0,0.4,0,0.6,0.1v-3.8H67.6z"/>
					<path class="st27" d="M71.3,168.4v4c0.2,0,0.4,0,0.6,0v-4H71.3z"/>
					<path class="st27" d="M75,168.7v3.7c0.2,0,0.4,0,0.6,0v-3.7H75z"/>
					<path class="st27" d="M78.2,168.7v3.5c0.2,0,0.4,0,0.6,0v-3.5H78.2z"/>
					<path class="st27" d="M82.1,168.2v3.5c0.2,0,0.4-0.1,0.6-0.1v-3.4H82.1z"/>
					<path class="st27" d="M86.3,167.2v3.6c0.2-0.1,0.4-0.1,0.6-0.2v-3.4H86.3z"/>
					<path class="st27" d="M89.6,165.6v3.7c0.2-0.1,0.4-0.3,0.6-0.4v-3.3H89.6z"/>
				</g>
				<path class="st28" d="M91.2,164.6c0,2-5.2,5-17.6,5c-14.1,0-17.6-3-17.6-5c0-2,7.9-3.6,17.6-3.6C83.3,161,91.2,162.6,91.2,164.6
					z"/>
			</g>
			<g>
				<path class="st25" d="M93.2,161.4c0,2.9-7.9,5.2-17.6,5.2S58,164.3,58,161.4c0-0.5-0.3-2.5,0.1-3c2-2.2,9.3-2.2,17.5-2.2
					c8.2,0,15.5-0.1,17.4,2.1C93.4,158.7,93.2,161,93.2,161.4z"/>
				<g>
					<path class="st26" d="M93.1,158.3c-1.9-2.3-9.2-2.1-17.4-2.1c-8.2,0-15.5,0-17.5,2.2c-0.4,0.4-0.1,2.5-0.1,3
						c0,0.7,0.5,1.3,1.3,1.9v-3.5h0.6v3.9c0.8,0.4,1.7,0.9,2.9,1.2v-3.5h0.6v3.7c0.9,0.3,1.8,0.5,2.9,0.7v-3.8h0.6v3.9
						c0.9,0.2,1.9,0.3,2.9,0.4v-3.7h0.6v3.8c1,0.1,2.1,0.2,3.2,0.2v-4h0.6v4c0.6,0,1.2,0,1.7,0c0.5,0,0.9,0,1.4,0v-3.7h0.6v3.7
						c0.9,0,1.8-0.1,2.7-0.2v-3.5h0.6v3.5c1.1-0.1,2.2-0.2,3.3-0.4v-3.5h0.6v3.4c1.4-0.2,2.6-0.5,3.7-0.9v-3.6h0.6v3.4
						c1.1-0.4,2.1-0.8,2.8-1.3v-3.7h0.6v3.3c0.7-0.5,1-1.1,1-1.7C93.2,161,93.4,158.7,93.1,158.3z"/>
					<path class="st27" d="M59.3,159.8v3.5c0.2,0.1,0.4,0.2,0.6,0.4v-3.9H59.3z"/>
					<path class="st27" d="M62.7,161.4v3.5c0.2,0.1,0.4,0.1,0.6,0.2v-3.7H62.7z"/>
					<path class="st27" d="M66.2,161.9v3.8c0.2,0,0.4,0.1,0.6,0.1v-3.9H66.2z"/>
					<path class="st27" d="M69.6,162.5v3.7c0.2,0,0.4,0,0.6,0.1v-3.8H69.6z"/>
					<path class="st27" d="M73.3,162.5v4c0.2,0,0.4,0,0.6,0v-4H73.3z"/>
					<path class="st27" d="M77,162.9v3.7c0.2,0,0.4,0,0.6,0v-3.7H77z"/>
					<path class="st27" d="M80.3,162.9v3.5c0.2,0,0.4,0,0.6,0v-3.5H80.3z"/>
					<path class="st27" d="M84.1,162.4v3.5c0.2,0,0.4-0.1,0.6-0.1v-3.4H84.1z"/>
					<path class="st27" d="M88.3,161.4v3.6c0.2-0.1,0.4-0.1,0.6-0.2v-3.4H88.3z"/>
					<path class="st27" d="M91.6,159.8v3.7c0.2-0.1,0.4-0.3,0.6-0.4v-3.3H91.6z"/>
				</g>
				<path class="st28" d="M93.2,158.8c0,2-5.2,5-17.6,5c-14.1,0-17.6-3-17.6-5c0-2,7.9-3.6,17.6-3.6S93.2,156.8,93.2,158.8z"/>
			</g>
			<g>
				<path class="st25" d="M91,156.2c0,2.9-7.9,5.2-17.6,5.2s-17.6-2.3-17.6-5.2c0-0.5-0.3-2.5,0.1-3c2-2.2,9.3-2.2,17.5-2.2
					c8.2,0,15.5-0.1,17.4,2.1C91.2,153.5,91,155.7,91,156.2z"/>
				<g>
					<path class="st26" d="M90.9,153.1c-1.9-2.3-9.2-2.1-17.4-2.1c-8.2,0-15.5,0-17.5,2.2c-0.4,0.4-0.1,2.5-0.1,3
						c0,0.7,0.5,1.3,1.3,1.9v-3.5h0.6v3.9c0.8,0.4,1.7,0.9,2.9,1.2v-3.5h0.6v3.7c0.9,0.3,1.8,0.5,2.9,0.7v-3.8h0.6v3.9
						c0.9,0.2,1.9,0.3,2.9,0.4v-3.7h0.6v3.8c1,0.1,2.1,0.2,3.2,0.2v-4h0.6v4c0.6,0,1.2,0,1.7,0c0.5,0,0.9,0,1.4,0v-3.7h0.6v3.7
						c0.9,0,1.8-0.1,2.7-0.2v-3.5h0.6v3.5c1.1-0.1,2.2-0.2,3.3-0.4v-3.5h0.6v3.4c1.4-0.2,2.6-0.5,3.7-0.9v-3.6h0.6v3.4
						c1.1-0.4,2.1-0.8,2.8-1.3v-3.7H90v3.3c0.7-0.5,1-1.1,1-1.7C91,155.7,91.2,153.5,90.9,153.1z"/>
					<path class="st27" d="M57.1,154.6v3.5c0.2,0.1,0.4,0.2,0.6,0.4v-3.9H57.1z"/>
					<path class="st27" d="M60.5,156.2v3.5c0.2,0.1,0.4,0.1,0.6,0.2v-3.7H60.5z"/>
					<path class="st27" d="M64,156.7v3.8c0.2,0,0.4,0.1,0.6,0.1v-3.9H64z"/>
					<path class="st27" d="M67.4,157.3v3.7c0.2,0,0.4,0,0.6,0.1v-3.8H67.4z"/>
					<path class="st27" d="M71.1,157.3v4c0.2,0,0.4,0,0.6,0v-4H71.1z"/>
					<path class="st27" d="M74.8,157.7v3.7c0.2,0,0.4,0,0.6,0v-3.7H74.8z"/>
					<path class="st27" d="M78.1,157.7v3.5c0.2,0,0.4,0,0.6,0v-3.5H78.1z"/>
					<path class="st27" d="M81.9,157.2v3.5c0.2,0,0.4-0.1,0.6-0.1v-3.4H81.9z"/>
					<path class="st27" d="M86.1,156.2v3.6c0.2-0.1,0.4-0.1,0.6-0.2v-3.4H86.1z"/>
					<path class="st27" d="M89.5,154.6v3.7c0.2-0.1,0.4-0.3,0.6-0.4v-3.3H89.5z"/>
				</g>
				<path class="st28" d="M91,153.6c0,2-5.2,5-17.6,5c-14.1,0-17.6-3-17.6-5c0-2,7.9-3.6,17.6-3.6S91,151.6,91,153.6z"/>
			</g>
			<g>
				<path class="st25" d="M94.9,151.5c0,2.9-7.9,5.2-17.6,5.2c-9.7,0-17.6-2.3-17.6-5.2c0-0.5-0.3-2.5,0.1-3c2-2.2,9.3-2.2,17.5-2.2
					c8.2,0,15.5-0.1,17.4,2.1C95.1,148.8,94.9,151.1,94.9,151.5z"/>
				<g>
					<path class="st26" d="M94.7,148.4c-1.9-2.3-9.2-2.1-17.4-2.1c-8.2,0-15.5,0-17.5,2.2c-0.4,0.4-0.1,2.5-0.1,3
						c0,0.7,0.5,1.3,1.3,1.9v-3.5h0.6v3.9c0.8,0.4,1.7,0.9,2.9,1.2v-3.5h0.6v3.7c0.9,0.3,1.8,0.5,2.9,0.7v-3.8h0.6v3.9
						c0.9,0.2,1.9,0.3,2.9,0.4v-3.7h0.6v3.8c1,0.1,2.1,0.2,3.2,0.2v-4h0.6v4c0.6,0,1.2,0,1.7,0c0.5,0,0.9,0,1.4,0V153h0.6v3.7
						c0.9,0,1.8-0.1,2.7-0.2V153h0.6v3.5c1.1-0.1,2.2-0.2,3.3-0.4v-3.5h0.6v3.4c1.4-0.2,2.6-0.5,3.7-0.9v-3.6h0.6v3.4
						c1.1-0.4,2.1-0.8,2.8-1.3v-3.7h0.6v3.3c0.7-0.5,1-1.1,1-1.7C94.9,151.1,95.1,148.8,94.7,148.4z"/>
					<path class="st27" d="M61,149.9v3.5c0.2,0.1,0.4,0.2,0.6,0.4v-3.9H61z"/>
					<path class="st27" d="M64.4,151.5v3.5c0.2,0.1,0.4,0.1,0.6,0.2v-3.7H64.4z"/>
					<path class="st27" d="M67.8,152.1v3.8c0.2,0,0.4,0.1,0.6,0.1v-3.9H67.8z"/>
					<path class="st27" d="M71.2,152.7v3.7c0.2,0,0.4,0,0.6,0.1v-3.8H71.2z"/>
					<path class="st27" d="M75,152.7v4c0.2,0,0.4,0,0.6,0v-4H75z"/>
					<path class="st27" d="M78.6,153v3.7c0.2,0,0.4,0,0.6,0V153H78.6z"/>
					<path class="st27" d="M81.9,153v3.5c0.2,0,0.4,0,0.6,0V153H81.9z"/>
					<path class="st27" d="M85.7,152.5v3.5c0.2,0,0.4-0.1,0.6-0.1v-3.4H85.7z"/>
					<path class="st27" d="M90,151.5v3.6c0.2-0.1,0.4-0.1,0.6-0.2v-3.4H90z"/>
					<path class="st27" d="M93.3,149.9v3.7c0.2-0.1,0.4-0.3,0.6-0.4v-3.3H93.3z"/>
				</g>
				<path class="st28" d="M94.9,148.9c0,2-5.2,5-17.6,5c-14.1,0-17.6-3-17.6-5c0-2,7.9-3.6,17.6-3.6C87,145.3,94.9,146.9,94.9,148.9
					z"/>
			</g>
			<g>
				<path class="st25" d="M92.9,146.7c0,2.9-7.9,5.2-17.6,5.2c-9.7,0-17.6-2.3-17.6-5.2c0-0.5-0.3-2.5,0.1-3c2-2.2,9.3-2.2,17.5-2.2
					c8.2,0,15.5-0.1,17.4,2.1C93,144,92.9,146.2,92.9,146.7z"/>
				<g>
					<path class="st26" d="M92.7,143.6c-1.9-2.3-9.2-2.1-17.4-2.1c-8.2,0-15.5,0-17.5,2.2c-0.4,0.4-0.1,2.5-0.1,3
						c0,0.7,0.5,1.3,1.3,1.9v-3.5h0.6v3.9c0.8,0.4,1.7,0.9,2.9,1.2v-3.5h0.6v3.7c0.9,0.3,1.8,0.5,2.9,0.7v-3.8h0.6v3.9
						c0.9,0.2,1.9,0.3,2.9,0.4v-3.7h0.6v3.8c1,0.1,2.1,0.2,3.2,0.2v-4h0.6v4c0.6,0,1.2,0,1.7,0c0.5,0,0.9,0,1.4,0v-3.7h0.6v3.7
						c0.9,0,1.8-0.1,2.7-0.2v-3.5h0.6v3.5c1.1-0.1,2.2-0.2,3.3-0.4v-3.5h0.6v3.4c1.4-0.2,2.6-0.5,3.7-0.9v-3.6h0.6v3.4
						c1.1-0.4,2.1-0.8,2.8-1.3v-3.7h0.6v3.3c0.7-0.5,1-1.1,1-1.7C92.9,146.2,93,144,92.7,143.6z"/>
					<path class="st27" d="M58.9,145.1v3.5c0.2,0.1,0.4,0.2,0.6,0.4v-3.9H58.9z"/>
					<path class="st27" d="M62.4,146.7v3.5c0.2,0.1,0.4,0.1,0.6,0.2v-3.7H62.4z"/>
					<path class="st27" d="M65.8,147.2v3.8c0.2,0,0.4,0.1,0.6,0.1v-3.9H65.8z"/>
					<path class="st27" d="M69.2,147.8v3.7c0.2,0,0.4,0,0.6,0.1v-3.8H69.2z"/>
					<path class="st27" d="M73,147.8v4c0.2,0,0.4,0,0.6,0v-4H73z"/>
					<path class="st27" d="M76.6,148.2v3.7c0.2,0,0.4,0,0.6,0v-3.7H76.6z"/>
					<path class="st27" d="M79.9,148.2v3.5c0.2,0,0.4,0,0.6,0v-3.5H79.9z"/>
					<path class="st27" d="M83.7,147.7v3.5c0.2,0,0.4-0.1,0.6-0.1v-3.4H83.7z"/>
					<path class="st27" d="M87.9,146.7v3.6c0.2-0.1,0.4-0.1,0.6-0.2v-3.4H87.9z"/>
					<path class="st27" d="M91.3,145.1v3.7c0.2-0.1,0.4-0.3,0.6-0.4v-3.3H91.3z"/>
				</g>
				<path class="st28" d="M92.9,144.1c0,2-5.2,5-17.6,5c-14.1,0-17.6-3-17.6-5c0-2,7.9-3.6,17.6-3.6C85,140.5,92.9,142.1,92.9,144.1
					z"/>
				<g>
					<g>
						<path class="st25" d="M75.4,148.4c-7.3,0.1-13.8-1.2-15.3-3c-1.6-2,3.8-4.1,12.2-4.5c8.3-0.5,16.5,0.8,18.1,2.9l0,0
							c0.8,1,0,2-2.3,2.8c-2.3,0.9-5.8,1.4-9.8,1.7C77.3,148.4,76.3,148.4,75.4,148.4z M75.1,141.4c-0.8,0-1.6,0-2.4,0.1
							c-7.2,0.4-11.9,2.1-10.5,3.9c1.4,1.8,8.4,2.9,15.6,2.5c3.5-0.2,6.5-0.7,8.5-1.4c2-0.7,2.7-1.6,2-2.5l0,0
							C87,142.4,81.4,141.3,75.1,141.4z"/>
					</g>
					<g>
						<g>
							<path class="st25" d="M80.5,143.2c-0.4-0.4-1.8-0.8-3.5-1c-1.4-0.1-2.9,0-4.2,0.1c-1.4,0.2-2.9,0.4-3.8,0.7
								c-1.2,0.4-0.7,0.8,0.3,1.1c1.1,0.4,2.4,0.5,4.2,0.6c2,0.1,4.2,0,6.1,0.3c3.2,0.4,1.6,1.4-1.7,1.5c-2.8,0.1-6.2-0.2-6.4-1
								c0-0.1-1.8,0-1.7,0.2c0.2,1.1,5.9,1.3,9.4,0.9c1.6-0.2,3.3-0.4,3.8-0.9c0.6-0.5-0.5-0.9-2.2-1c-1.7-0.2-3.6-0.2-5.5-0.2
								c-2.4-0.1-4.4-0.4-5.1-0.9c-0.7-0.6,1.8-1.1,4-1.1c2.2,0,4.2,0.5,4.6,1C78.9,143.5,80.6,143.3,80.5,143.2L80.5,143.2z"/>
						</g>
						<g>
							<path class="st25" d="M70.8,142c1.4,1.9,2.8,3.8,4.2,5.7c0.1,0.1,1.8-0.1,1.7-0.2c-1.4-1.9-2.8-3.8-4.2-5.7
								C72.4,141.7,70.6,141.9,70.8,142L70.8,142z"/>
						</g>
						<g>
							<path class="st25" d="M73.5,141.8c1.4,1.9,2.8,3.8,4.2,5.7c0.1,0.1,1.8-0.1,1.7-0.2c-1.4-1.9-2.8-3.8-4.2-5.7
								C75.2,141.5,73.4,141.6,73.5,141.8L73.5,141.8z"/>
						</g>
					</g>
				</g>
			</g>
		</g>
	</g>
</g>
</svg>
