<svg xmlns="http://www.w3.org/2000/svg" viewBox="0 0 222.04 39.8"><defs><style>.cls-1{fill:#fff;}</style></defs><title>Logo-Datacreditoldpi</title><g id="Capa_2" data-name="Capa 2"><g id="Footer"><path class="cls-1" d="M19.47,9.36H15a2.42,2.42,0,0,1-2.43-2.42V2.43A2.43,2.43,0,0,1,15,0h4.51A2.43,2.43,0,0,1,21.9,2.43V6.94a2.42,2.42,0,0,1-2.43,2.42"/><path class="cls-1" d="M7.8,19.47H2.73A2.72,2.72,0,0,1,0,16.75V11.67A2.73,2.73,0,0,1,2.73,8.94H7.8a2.74,2.74,0,0,1,2.74,2.73v5.08A2.73,2.73,0,0,1,7.8,19.47"/><path class="cls-1" d="M7.32,30H4.22a1.67,1.67,0,0,1-1.67-1.67v-3.1a1.67,1.67,0,0,1,1.67-1.67h3.1A1.67,1.67,0,0,1,9,25.24v3.1A1.67,1.67,0,0,1,7.32,30"/><path class="cls-1" d="M15.64,39.8H12a2,2,0,0,1-2-2V34.16a2,2,0,0,1,2-2h3.66a2,2,0,0,1,2,2v3.67a2,2,0,0,1-2,2"/><path class="cls-1" d="M29.07,11.21H26.53a1.36,1.36,0,0,1-1.36-1.36V7.31a1.37,1.37,0,0,1,1.36-1.37h2.54a1.37,1.37,0,0,1,1.36,1.37V9.85a1.36,1.36,0,0,1-1.36,1.36"/><path class="cls-1" d="M190.38,13.77a1.16,1.16,0,1,0,1.16,1.16A1.16,1.16,0,0,0,190.38,13.77Zm-28.89,3.64a5.71,5.71,0,0,0-3.85,1.48v-.48a1,1,0,0,0-1.91,0v14a1,1,0,0,0,1.91,0v-5a5.79,5.79,0,1,0,3.85-10.09Zm0,9.66a3.87,3.87,0,1,1,3.88-3.86A3.82,3.82,0,0,1,161.49,27.07Zm-7.28-8.57a.91.91,0,0,0-.45-.8.93.93,0,0,0-.49-.14,1,1,0,0,0-.81.41l-2.22,3.47L148,18a.94.94,0,0,0-.8-.41,1,1,0,0,0-.5.14.9.9,0,0,0-.44.8.91.91,0,0,0,.13.48l2.69,4.23-2.69,4.24a.79.79,0,0,0-.13.45,1,1,0,0,0,.42.83,1.13,1.13,0,0,0,.54.13.9.9,0,0,0,.78-.4l2.2-3.45,2.22,3.45a.92.92,0,0,0,.79.4,1.07,1.07,0,0,0,.53-.13,1,1,0,0,0,.43-.83.79.79,0,0,0-.13-.45l-2.69-4.24L154.08,19A.91.91,0,0,0,154.21,18.5ZM140,17.41A5.78,5.78,0,1,0,140,29a5.67,5.67,0,0,0,4-1.63,1,1,0,0,0-.63-1.68,1.14,1.14,0,0,0-.76.38,3.56,3.56,0,0,1-2.63,1,3.84,3.84,0,0,1-3.83-3.16h8.75l.1,0a1,1,0,0,0,.75-1A5.75,5.75,0,0,0,140,17.41ZM136.31,22a3.88,3.88,0,0,1,7.37,0ZM190.4,17.5a1,1,0,0,0-1,.91V28a1,1,0,0,0,1.91,0V18.41A1,1,0,0,0,190.4,17.5Zm-16-.09a5.78,5.78,0,1,0,0,11.56,5.67,5.67,0,0,0,4-1.63,1,1,0,0,0-.63-1.68,1.14,1.14,0,0,0-.76.38,3.56,3.56,0,0,1-2.63,1,3.84,3.84,0,0,1-3.83-3.16h8.7l.08,0h0a1,1,0,0,0,.79-1A5.75,5.75,0,0,0,174.43,17.41ZM170.73,22a3.88,3.88,0,0,1,7.38,0Zm32.8-4.48a1,1,0,0,0-1,.91v.48a5.78,5.78,0,1,0,0,8.61V28a1,1,0,0,0,1,.91,1,1,0,0,0,.95-.91V18.41A1,1,0,0,0,203.53,17.5Zm-4.82,9.55a3.87,3.87,0,1,1,3.86-3.88A3.85,3.85,0,0,1,198.71,27.05Zm12.47-9.64a4.77,4.77,0,0,0-3,1,1,1,0,0,0-.94-.87,1,1,0,0,0-1,.91V28a1,1,0,0,0,1.91,0V22.16c0-2.24,1.43-2.87,3-2.87a3.05,3.05,0,0,1,3,3V28a1,1,0,0,0,1.91,0V22A4.82,4.82,0,0,0,211.18,17.41Zm-24.57,0a4.86,4.86,0,0,0-2.89,1,1,1,0,0,0-.95-.87,1,1,0,0,0-1,.91V28a1,1,0,0,0,1,.91,1,1,0,0,0,.95-.91V22.16c0-2.24,1.39-2.78,2.89-2.83a1,1,0,0,0,1-1A1,1,0,0,0,186.61,17.41Z"/><path class="cls-1" d="M24.41,13.24a1,1,0,0,0-1,.92V19.1a5.78,5.78,0,0,0-9.64,4.27,5.79,5.79,0,0,0,9.64,4.32v.47a1,1,0,0,0,1,.91,1,1,0,0,0,.94-.91v-14A1,1,0,0,0,24.41,13.24Zm-4.81,14a3.86,3.86,0,1,1,3.85-3.87A3.83,3.83,0,0,1,19.6,27.24ZM47.24,18H44.81V15.5a1,1,0,0,0-.94-.92,1,1,0,0,0-1,.92V18H40.47a.87.87,0,0,0-.78.85.85.85,0,0,0,.78.87h2.44v8.46a1,1,0,0,0,1,.91,1,1,0,0,0,.94-.91V19.7h2.43a.86.86,0,0,0,.79-.87A.87.87,0,0,0,47.24,18Zm11.47-.27a1,1,0,0,0-1,.92v.47a5.77,5.77,0,0,0-9.63,4.27,5.78,5.78,0,0,0,9.63,4.32v.47a1,1,0,0,0,1.91,0V18.63A1,1,0,0,0,58.71,17.71ZM53.9,27.24a3.86,3.86,0,1,1,3.84-3.87A3.83,3.83,0,0,1,53.9,27.24Zm17.32-2.55a1.11,1.11,0,0,0-.92.67A3.61,3.61,0,0,1,67,27.24a3.86,3.86,0,1,1,0-7.72,3.73,3.73,0,0,1,3.13,1.59,1,1,0,0,0,1.79-.47,1.12,1.12,0,0,0-.29-.67A6.23,6.23,0,0,0,67,17.62a5.77,5.77,0,1,0,0,11.54A5.52,5.52,0,0,0,72.11,26a.86.86,0,0,0,.07-.34A1,1,0,0,0,71.22,24.69Zm7.21-7.07a5,5,0,0,0-2.89,1,1,1,0,0,0-1.9.05v9.53a1,1,0,0,0,1.9,0v-5.8c0-2.23,1.39-2.77,2.89-2.81a1,1,0,0,0,1-1A1,1,0,0,0,78.43,17.62Zm6.59,0a5.77,5.77,0,1,0,0,11.54,5.6,5.6,0,0,0,4-1.63,1,1,0,0,0,.34-.72,1,1,0,0,0-1-1,1.14,1.14,0,0,0-.76.38,3.54,3.54,0,0,1-2.62,1,3.83,3.83,0,0,1-3.82-3.15h8.68a1,1,0,0,0,.89-1A5.73,5.73,0,0,0,85,17.62Zm-3.69,4.57a3.87,3.87,0,0,1,7.36,0Zm21.3-9a1,1,0,0,0-1,.92V19.1a5.69,5.69,0,0,0-3.84-1.48,5.77,5.77,0,1,0,3.84,10.07v.47a1,1,0,0,0,1,.91,1,1,0,0,0,.94-.91v-14A1,1,0,0,0,102.63,13.24Zm-4.8,14a3.86,3.86,0,1,1,3.84-3.87A3.83,3.83,0,0,1,97.83,27.24ZM116.53,18H114.1V15.5a1,1,0,0,0-.94-.92,1,1,0,0,0-1,.92V18h-2.44a.87.87,0,0,0-.78.85.85.85,0,0,0,.78.87h2.44v8.46a1,1,0,0,0,1,.91,1,1,0,0,0,.94-.91V19.7h2.43a.86.86,0,0,0,.79-.87A.87.87,0,0,0,116.53,18Zm6.49-.36a5.77,5.77,0,1,0,5.74,5.75A5.75,5.75,0,0,0,123,17.62Zm0,9.62a3.86,3.86,0,1,1,3.84-3.87A3.83,3.83,0,0,1,123,27.24ZM82.38,15.56l0,.06a.86.86,0,0,0,.81.6,1.14,1.14,0,0,0,.46-.11l3.39-1.39a.92.92,0,0,0,.68-.85,1.06,1.06,0,0,0-.1-.45l0,0a.9.9,0,0,0-.75-.46,1.39,1.39,0,0,0-.52.11L82.93,14.4a.89.89,0,0,0-.62.79,1.08,1.08,0,0,0,0,.28A.29.29,0,0,1,82.38,15.56ZM106.44,14a1.16,1.16,0,1,0,0,2.32,1.16,1.16,0,1,0,0-2.32Zm0,3.72a1,1,0,0,0-1,.92v9.53a1,1,0,0,0,1,.91,1,1,0,0,0,.94-.91V18.63A1,1,0,0,0,106.46,17.71Zm-69.06,0a1,1,0,0,0-1,.92v.47a5.77,5.77,0,1,0,0,8.59v.47a1,1,0,0,0,1,.91,1,1,0,0,0,.94-.91V18.63A1,1,0,0,0,37.4,17.71Zm-4.81,9.53a3.86,3.86,0,1,1,3.85-3.87A3.83,3.83,0,0,1,32.59,27.24Z"/><path class="cls-1" d="M218.52,29.16a.2.2,0,0,1-.2-.2v-2h-.46a.2.2,0,0,1-.19-.2.19.19,0,0,1,.19-.2h1.32a.2.2,0,1,1,0,.4h-.46v2A.2.2,0,0,1,218.52,29.16Z"/><path class="cls-1" d="M220.88,29.16a.21.21,0,0,1-.2-.15l-.57-1.67V29a.19.19,0,0,1-.2.2.2.2,0,0,1-.2-.2V26.81a.3.3,0,0,1,.59-.08l.58,1.69.57-1.69a.3.3,0,0,1,.59.08V29a.2.2,0,0,1-.4,0V27.34l-.33,1c-.23.67-.23.67-.23.68A.22.22,0,0,1,220.88,29.16Z"/></g></g></svg>