<?xml version="1.0" encoding="utf-8"?>
<!-- Generator: Adobe Illustrator 23.0.6, SVG Export Plug-In . SVG Version: 6.00 Build 0)  -->
<svg version="1.1" xmlns="http://www.w3.org/2000/svg" xmlns:xlink="http://www.w3.org/1999/xlink" x="0px" y="0px"
	 viewBox="0 0 327.4 105.7" style="enable-background:new 0 0 327.4 105.7;" xml:space="preserve">
<style type="text/css">
	.st0{fill:#FFFFFF;}
	.st1{fill:#E0ECF6;}
	.st2{fill:#8DBBDD;}
	.st3{fill:none;stroke:#3184C1;stroke-width:1.3621;stroke-linecap:round;stroke-linejoin:round;stroke-miterlimit:10;}
	.st4{fill:#A1C7E3;}
	.st5{fill:none;stroke:#8DBBDD;stroke-width:1.3621;stroke-linecap:round;stroke-linejoin:round;stroke-miterlimit:10;}
	.st6{fill:#3184C1;}
	.st7{fill:none;stroke:#0D6EB6;stroke-width:1.2244;stroke-linecap:round;stroke-linejoin:round;stroke-miterlimit:10;}
	.st8{fill:none;stroke:#8DBBDD;stroke-width:1.5702;stroke-linecap:round;stroke-linejoin:round;stroke-miterlimit:10;}
	.st9{opacity:0.3;}
	.st10{fill:#D6E6F3;}
	.st11{fill:#E9F2F8;}
	.st12{fill:#5A9DCE;}
	.st13{fill:none;stroke:#E9F2F8;stroke-miterlimit:10;}
	.st14{fill:#CCCCCC;}
	.st15{fill:#FF97A8;}
	.st16{fill:#FF5D7B;}
	.st17{fill:#08478E;}
	.st18{fill:#331239;}
	.st19{fill:#3B2B5B;}
	.st20{fill:#380A37;}
	.st21{fill:#B7CADE;}
	.st22{fill:#5E87B5;}
	.st23{fill:#295A6E;}
	.st24{fill:#3E7687;}
	.st25{fill:#F39734;}
	.st26{fill:none;}
	.st27{fill:#EF7F19;}
	.st28{fill:#FDCA49;}
	.st29{fill:#86B7DB;}
	.st30{fill:#FF97A6;}
	.st31{fill:#C95D77;}
	.st32{fill:#30193B;}
	.st33{fill:#FFCB48;}
	.st34{fill:#FF9A2E;}
	.st35{clip-path:url(#SVGID_2_);}
	.st36{fill:#0D6EB6;}
	.st37{clip-path:url(#SVGID_4_);}
	.st38{fill:#EFEFF6;}
	.st39{fill:#EF7F18;}
	.st40{fill:#4071A8;}
	.st41{fill:#0A498F;}
	.st42{fill:#3A7182;}
	.st43{fill:#E6E6E6;}
	.st44{fill:#FF9A19;}
	.st45{fill:#FFCB37;}
	.st46{opacity:0.1;}
	.st47{fill:#30183A;}
	.st48{fill:#F194A5;}
	.st49{fill:#C85D77;}
	.st50{fill:#BA2F7D;}
	.st51{fill:#B12384;}
	.st52{fill:#62BCD6;}
	.st53{fill:#BF7323;}
	.st54{fill:#80CAD5;}
	.st55{fill:#767579;}
	.st56{opacity:0.8;}
	.st57{fill:#9BCBE9;}
	.st58{fill:#3E275C;}
	.st59{fill:#406EB3;}
	.st60{fill:#DDD6FC;}
	.st61{fill:#EEEAFE;}
	.st62{fill:#7F65C1;}
	.st63{fill:none;stroke:#EEEAFE;stroke-width:0.5019;stroke-miterlimit:10;}
	.st64{fill:#EAE6FF;}
	.st65{fill:#D4EAF5;}
	.st66{fill:#A9CAE7;}
	.st67{fill:#ABC8E6;}
	.st68{fill:#D1C5FC;}
	.st69{fill:#CBB3FC;}
	.st70{fill:#CEAFF9;}
	.st71{fill:#FFC200;}
	.st72{fill:#E8853A;}
	.st73{fill:#5AC0F9;}
	.st74{fill:#53F9F4;}
	.st75{fill:#BF3904;}
	.st76{fill:#822302;}
	.st77{fill:#7964A8;}
	.st78{fill:#8865C4;}
	.st79{fill:#CCEAF5;}
	.st80{fill:#FFD67C;}
	.st81{fill:url(#SVGID_5_);}
	.st82{fill:url(#SVGID_6_);}
	.st83{fill:url(#SVGID_7_);}
	.st84{fill:url(#SVGID_8_);}
	.st85{fill:url(#SVGID_9_);}
	.st86{fill:url(#SVGID_10_);}
	.st87{fill:url(#SVGID_11_);}
	.st88{fill:#54565A;}
	.st89{fill:#9F79FF;}
	.st90{fill:#F2EEFF;}
	.st91{opacity:0.4;}
	.st92{fill:#E45D79;}
	.st93{fill:#FFE5AE;}
	.st94{fill:#FF97A7;}
	.st95{fill:#82CBEA;}
	.st96{fill:#BFEAF5;}
	.st97{fill:#8FD9ED;}
	.st98{fill:#43225D;}
	.st99{fill:#5C319A;}
	.st100{opacity:0.5;fill:url(#SVGID_12_);}
	.st101{fill:#632678;}
	.st102{fill:none;stroke:#FFFFFF;stroke-width:2;stroke-linecap:round;stroke-linejoin:round;stroke-miterlimit:10;}
	.st103{fill:none;stroke:#EEEAFE;stroke-miterlimit:10;}
	.st104{fill:#F98A8A;}
	.st105{fill:#AACBE8;}
	.st106{fill:#99B4DD;}
	.st107{fill:#6A54AF;}
	.st108{fill:#FD9E38;}
	.st109{fill:#DBCFFD;}
	.st110{fill:#B5B5B5;}
	.st111{fill:#80540A;}
	.st112{fill:#AD7121;}
	.st113{fill:#D5EAF5;}
	.st114{opacity:0.3;fill:#3B2B5B;}
	.st115{fill:#BAA4FF;}
	.st116{fill:#4E3E75;}
	.st117{fill:#D07BB5;}
	.st118{fill:#C14F9D;}
	.st119{fill:none;stroke:#000000;stroke-width:0.75;stroke-linecap:round;stroke-linejoin:round;stroke-miterlimit:10;}
	.st120{fill:#B3B3B3;}
	.st121{fill:#F2F2F2;}
	.st122{fill:#141414;}
	.st123{fill:#A3A3A3;}
	.st124{fill:#474747;}
	.st125{fill:#C7C7C7;}
	.st126{fill:#DBDBDB;}
</style>
<g id="Fondo">
</g>
<g id="Capa_7">
</g>
<g id="Contenido">
</g>
<g id="Footer">
</g>
<g id="Header">
</g>
<g id="Alertas">
</g>
<g id="Capa_2">
	<g>
		<g>
			<g>
				<path class="st50" d="M90.3,67.7c0,12.4-10.2,22.6-22.6,22.6H22.6C10.2,90.3,0,80.1,0,67.7V22.6C0,10.2,10.2,0,22.6,0h45.2
					c12.4,0,22.6,10.2,22.6,22.6V67.7z"/>
				<path class="st0" d="M53,59.9c-0.3,0-0.5-0.2-0.5-0.5V45.9c0-3.7-1.7-5.9-5.2-5.9c-3.1,0-5.3,2.2-5.3,5.6v13.8
					c0,0.3-0.2,0.5-0.5,0.5h-3.1c-0.3,0-0.5-0.2-0.5-0.5V45.9c0-3.7-1.7-5.9-5.2-5.9c-3.1,0-5.3,2.2-5.3,5.6v13.8
					c0,0.3-0.2,0.5-0.5,0.5h-3.1c-0.3,0-0.5-0.2-0.5-0.5V37.3c0-0.3,0.2-0.5,0.5-0.5H27c0.3,0,0.5,0.2,0.5,0.5v2.1h0
					c1.1-1.8,3.3-3.1,6.5-3.1c3.1,0,5.5,1.3,6.8,3.6h0c1.6-2.2,4-3.6,7.5-3.6c5.4,0,8.3,3.4,8.3,8.7v14.5c0,0.3-0.2,0.5-0.5,0.5H53z
					"/>
				<path class="st0" d="M63.1,31.6c-0.3,0-0.5-0.2-0.5-0.5v-3.5c0-0.3,0.2-0.5,0.5-0.5h3.3c0.3,0,0.5,0.2,0.5,0.5v3.5
					c0,0.3-0.2,0.5-0.5,0.5H63.1z M63.2,59.9c-0.3,0-0.5-0.2-0.5-0.5V37.3c0-0.3,0.2-0.5,0.5-0.5h3.1c0.3,0,0.5,0.2,0.5,0.5v22.2
					c0,0.3-0.2,0.5-0.5,0.5H63.2z"/>
				<g>
					<path class="st50" d="M150.4,78.8c4.8,0,7.7,3.1,7.7,8.6V90c0,5-2.5,8.7-7.7,8.7c-2.5,0-4.2-0.8-5.2-2.2v9.3h-3.1V79.1h3.1V81
						C146.2,79.6,147.9,78.8,150.4,78.8z M155.1,90v-2.5c0-3.7-1.8-5.9-4.9-5.9c-3.1,0-4.9,2.1-4.9,5.6V90c0,3.3,1.4,5.9,4.9,5.9
						C153.4,95.9,155.1,93.3,155.1,90z"/>
					<path class="st50" d="M176.9,90c0,5-2.5,8.7-8,8.7c-5.1,0-8-3.4-8-8.7v-2.5c0-5.5,3-8.6,8-8.6c5.1,0,8,3.1,8,8.6V90z M173.8,90
						v-2.5c0-3.7-1.8-5.9-4.9-5.9c-3.2,0-4.9,2.2-4.9,5.9V90c0,3.3,1.4,5.9,4.9,5.9C172.2,95.9,173.8,93.3,173.8,90z"/>
					<path class="st50" d="M180.6,79.1h3.1V81c1-1.5,2.3-2.2,5.2-2.2c4.1,0,7,2.2,7,7.6v12h-3.1v-12c0-3.9-2.1-4.7-4.4-4.7
						c-2.9,0-4.7,2-4.7,4.7v12h-3.1V79.1z"/>
					<path class="st50" d="M198.8,79.1h2.5v-4.2h3.1v4.2h4.4v2.8h-4.4v9.8c0,2.7,0.3,3.8,2.9,3.8h1.5v2.9h-1.7
						c-4.6,0-5.9-1.9-5.9-5.9V81.9h-2.5V79.1z"/>
					<path class="st50" d="M226.3,95.5c-1.3,2.4-3.4,3.2-6.7,3.2c-5.2,0-8.3-3.4-8.3-8.7v-2.5c0-5.5,2.6-8.6,7.6-8.6
						c5.1,0,7.6,3.1,7.6,8.6v2h-12.2V90c0,3.3,1.6,5.9,4.9,5.9c2.5,0,3.8-0.7,4.6-2.2L226.3,95.5z M214.3,86.7h9.1
						c-0.2-3.2-1.6-5.2-4.5-5.2C215.9,81.6,214.5,83.5,214.3,86.7z"/>
					<path class="st50" d="M246.1,87.2h4.6V85c0-2.7-1.3-3.4-4.3-3.4c-2.3,0-3.5,0.2-4.6,2l-2.3-1.6c1.4-2.2,3.3-3.2,7-3.2
						c4.9,0,7.3,1.6,7.3,6.2v13.4h-3.1v-1.9c-1.1,1.8-2.4,2.2-4.9,2.2c-4.5,0-6.9-2.2-6.9-5.9C238.9,88.6,241.9,87.2,246.1,87.2z
						 M250.7,89.9h-4.6c-3,0-4.1,1-4.1,3c0,2.2,1.5,3,3.8,3c2.9,0,4.9-0.5,4.9-4.9V89.9z"/>
					<path class="st50" d="M258.4,71.8h3.1v19.9c0,2.1,0.1,3.9,3.3,3.9v2.9c-4.9,0-6.4-1.9-6.4-5.9V71.8z"/>
					<path class="st50" d="M289.8,71.8h3.1v26.6h-3.1v-1.7c-1,1.3-2.7,2-5.2,2c-5.2,0-7.7-3.7-7.7-8.7v-2.5c0-5.5,2.9-8.6,7.7-8.6
						c2.5,0,4.2,0.8,5.2,2.2V71.8z M289.8,90.3v-2.8c0-3.6-1.8-5.9-4.9-5.9c-3.2,0-4.9,2.2-4.9,5.9V90c0,3.3,1.7,5.9,4.9,5.9
						C288.3,95.9,289.8,93.5,289.8,90.3z"/>
					<path class="st50" d="M300.6,70.4h3.7l-3.5,6.1h-2.9L300.6,70.4z M297.9,79.1h3.1v19.3h-3.1V79.1z"/>
					<path class="st50" d="M312.3,87.2h4.6V85c0-2.7-1.3-3.4-4.3-3.4c-2.3,0-3.5,0.2-4.6,2l-2.3-1.6c1.4-2.2,3.3-3.2,7-3.2
						c4.9,0,7.3,1.6,7.3,6.2v13.4h-3.1v-1.9c-1.1,1.8-2.4,2.2-4.9,2.2c-4.5,0-6.9-2.2-6.9-5.9C305.1,88.6,308,87.2,312.3,87.2z
						 M316.9,89.9h-4.6c-3,0-4.1,1-4.1,3c0,2.2,1.5,3,3.8,3c2.9,0,4.9-0.5,4.9-4.9V89.9z"/>
				</g>
				<g>
					<g>
						<path class="st88" d="M119.6,25.8h2.7v33.4h-2.7v-3c-1.4,2.2-3.7,3.2-7.3,3.2c-6.3,0-9.4-4.1-9.4-10.7v-3.5
							c0-6.9,3.4-10.6,9.4-10.6c3.6,0,6,1.2,7.3,3.4V25.8z M119.6,48.9v-3.5c0-4.9-1.9-8.2-7.1-8.2c-4.6,0-7,2.9-7,8.1v3.5
							c0,5.1,2.3,8.2,7,8.2C117.9,57.1,119.6,53.6,119.6,48.9z"/>
					</g>
				</g>
				<g>
					<g>
						<path class="st88" d="M137.8,45.5h7.1v-3c0-4.1-1.6-5.2-6.1-5.2c-2.9,0-4.8,0.2-6.3,2.8l-2-1.4c1.7-2.9,4.1-3.9,8.4-3.9
							c5.9,0,8.7,1.8,8.7,7.7v16.8h-2.7v-3c-1.4,2.6-3.8,3.3-6.9,3.3c-5.4,0-8.4-2.6-8.4-7.2S132.8,45.5,137.8,45.5z M144.9,47.9
							h-7.1c-4.2,0-5.6,1.9-5.6,4.5c0,3.4,2.4,4.6,5.8,4.6c3.9,0,6.9-1.4,6.9-6.8V47.9z"/>
						<path class="st88" d="M152.2,35h3.1v-5.3h2.7V35h6v2.5h-6v13.6c0,3.9,0.4,5.6,4.4,5.6h1.6v2.6h-1.7c-5.4,0-6.9-2.4-6.9-7.5
							V37.5h-3.1V35z"/>
					</g>
				</g>
				<g>
					<g>
						<path class="st88" d="M175.8,45.5h7.1v-3c0-4.1-1.6-5.2-6.1-5.2c-2.9,0-4.8,0.2-6.3,2.8l-2-1.4c1.7-2.9,4.1-3.9,8.4-3.9
							c5.9,0,8.7,1.8,8.7,7.7v16.8h-2.7v-3c-1.4,2.6-3.8,3.3-6.9,3.3c-5.4,0-8.4-2.6-8.4-7.2S170.8,45.5,175.8,45.5z M182.8,47.9
							h-7.1c-4.2,0-5.6,1.9-5.6,4.5c0,3.4,2.4,4.6,5.8,4.6c3.9,0,6.9-1.4,6.9-6.8V47.9z"/>
					</g>
				</g>
				<g>
					<g>
						<path class="st88" d="M211.8,55.6c-1.6,2.6-4.5,3.9-8.2,3.9c-6.5,0-10.2-3.9-10.2-10.7v-3.5c0-6.9,3.8-10.6,10.2-10.6
							c3.5,0,6.4,1.3,8.2,3.7l-2.1,1.5c-1.4-1.8-3.6-2.7-6.1-2.7c-4.8,0-7.6,2.9-7.6,8.1v3.5c0,4.8,2.2,8.2,7.6,8.2
							c2.5,0,4.7-0.8,6.1-3L211.8,55.6z"/>
						<path class="st88" d="M218.7,44.7v14.6H216V35h2.7v3.3c1-2.2,3.1-3.6,6.1-3.6c3.1,0,5.2,1.2,6.8,3.3l-2.2,1.6
							c-1.3-1.6-2.7-2.5-4.8-2.5C220.8,37.3,218.7,40.3,218.7,44.7z"/>
						<path class="st88" d="M236.2,47.8v1c0,4.8,2.2,8.2,7.4,8.2c3,0,4.9-0.9,6.3-3l2.1,1.5c-1.7,2.7-4.4,3.9-8.3,3.9
							c-6.4,0-10.2-4-10.2-10.7v-3.5c0-6.9,3.3-10.6,9.3-10.6s9.3,3.7,9.3,10.6v2.5H236.2z M236.2,45.4h13.4v0
							c0-5.3-2.3-8.1-6.7-8.1S236.2,40.1,236.2,45.4L236.2,45.4z M244.6,24.1h3.2l-4.3,7.7H241L244.6,24.1z"/>
						<path class="st88" d="M273.7,25.8h2.7v33.4h-2.7v-3c-1.4,2.2-3.7,3.2-7.3,3.2c-6.3,0-9.4-4.1-9.4-10.7v-3.5
							c0-6.9,3.4-10.6,9.4-10.6c3.6,0,6,1.2,7.3,3.4V25.8z M273.7,48.9v-3.5c0-4.9-1.9-8.2-7.1-8.2c-4.6,0-7,2.9-7,8.1v3.5
							c0,5.1,2.3,8.2,7,8.2C272,57.1,273.7,53.6,273.7,48.9z"/>
						<path class="st88" d="M283.6,25.8h3.2v3.2h-3.2V25.8z M283.9,35h2.7v24.2h-2.7V35z"/>
						<path class="st88" d="M292,35h3.1v-5.3h2.7V35h6v2.5h-6v13.6c0,3.9,0.4,5.6,4.4,5.6h1.6v2.6H302c-5.4,0-6.9-2.4-6.9-7.5V37.5
							H292V35z"/>
						<path class="st88" d="M317.6,59.5c-6.2,0-9.8-3.9-9.8-10.7v-3.5c0-6.9,3.6-10.6,9.8-10.6s9.8,3.7,9.8,10.6v3.5
							C327.4,55.5,324.1,59.5,317.6,59.5z M324.8,45.3c0-5.3-2.6-8.1-7.2-8.1c-4.6,0-7.2,2.9-7.2,8.1v3.5c0,5.1,2.3,8.2,7.2,8.2
							c4.7,0,7.2-3.1,7.2-8.2V45.3z"/>
					</g>
				</g>
			</g>
		</g>
	</g>
</g>
</svg>
