<svg xmlns="http://www.w3.org/2000/svg" viewBox="0 0 120 120"><defs><style>.cls-1{fill:none;}.cls-2{fill:#006837;}.cls-3{fill:#39b34a;}.cls-4{fill:#009045;}</style></defs><title>aliado_03</title><g id="Capa_2" data-name="Capa 2"><g id="Assets"><rect class="cls-1" width="120" height="120"/><path class="cls-2" d="M64,61.47l4.21-4.22.67-.67,2.74-2.74a1,1,0,1,0-1.46-1.46l-3.41,3.41-2.09,2.09a1,1,0,1,1-1.46-1.46l2.09-2.1L69.58,50l2.79-2.79a5.18,5.18,0,0,1,7.32,7.32l-1.18,1.18-5.15,5.15-1.27,1.26a1,1,0,1,1-1.46-1.46l.48-.48,1.35-1.35A1,1,0,1,0,71,57.37l-.68.68-.66.66-4.22,4.22a1,1,0,0,1-1.46,0A1,1,0,0,1,64,61.47Z"/><path class="cls-3" d="M64.7,63.9A1.7,1.7,0,0,1,63.49,61l7.63-7.63a.37.37,0,0,0,0-.52.36.36,0,0,0-.26-.1.37.37,0,0,0-.26.1l-5.5,5.5a1.7,1.7,0,0,1-2.41-2.41l9.21-9.2A5.84,5.84,0,0,1,80.16,55l-7.59,7.59a1.73,1.73,0,0,1-2.41,0,1.7,1.7,0,0,1,0-2.41L72,58.36a.35.35,0,0,0,.11-.26.34.34,0,0,0-.11-.26.36.36,0,0,0-.51,0L65.9,63.4a1.66,1.66,0,0,1-1.2.5Zm6.16-12.49a1.71,1.71,0,0,1,1.21,2.91l-7.63,7.62h0a.36.36,0,0,0,0,.52.36.36,0,0,0,.26.1.37.37,0,0,0,.26-.1l5.56-5.57a1.71,1.71,0,0,1,2.91,1.21,1.7,1.7,0,0,1-.5,1.2L71.1,61.13a.37.37,0,0,0,0,.52.39.39,0,0,0,.52,0l7.59-7.6a4.5,4.5,0,1,0-6.37-6.36l-9.2,9.2a.37.37,0,0,0,.52.52l5.5-5.5A1.7,1.7,0,0,1,70.86,51.41ZM64,61.47Z"/><path class="cls-3" d="M50.54,69.28a1.7,1.7,0,0,1-1.2-2.91l3.42-3.43a.36.36,0,0,0,0-.52.34.34,0,0,0-.26-.11.36.36,0,0,0-.26.11L46.64,68a1.75,1.75,0,0,1-2.41,0,1.7,1.7,0,0,1,0-2.41l4.2-4.21a.36.36,0,0,0-.52-.51l0,0-5.52,5.52a1.74,1.74,0,0,1-2.41,0A1.7,1.7,0,0,1,40,64L51.5,52.47A.37.37,0,0,0,51,52L37.71,65.22a1.71,1.71,0,0,1-2.42-2.42h0l9.46-9.45a.37.37,0,0,0,0-.52.35.35,0,0,0-.26-.11.34.34,0,0,0-.26.11L38.4,58.66A1.71,1.71,0,1,1,36,56.24l3.89-3.89a.37.37,0,0,0,0-.52.39.39,0,0,0-.52,0l-3.89,3.89a1.7,1.7,0,1,1-2.41-2.41L55.76,30.6a5.84,5.84,0,0,1,8.26,0L80.16,46.74a.67.67,0,1,1-1,.95,4.5,4.5,0,0,0-6.37,0L51.75,68.78A1.71,1.71,0,0,1,50.54,69.28Zm2-8.31a1.7,1.7,0,0,1,1.21,2.91l-3.43,3.43a.39.39,0,0,0,0,.52.37.37,0,0,0,.52,0L71.9,46.74a5.82,5.82,0,0,1,4.68-1.68L63.07,31.55a4.5,4.5,0,0,0-6.37,0L34,54.25a.36.36,0,0,0-.11.26.34.34,0,0,0,.11.26.37.37,0,0,0,.52,0l3.88-3.88a1.75,1.75,0,0,1,2.42,0,1.71,1.71,0,0,1,0,2.41l-3.89,3.89a.37.37,0,1,0,.52.52l5.83-5.83a1.75,1.75,0,0,1,2.41,0,1.7,1.7,0,0,1,0,2.41l-9.45,9.46a.37.37,0,0,0,.52.52L50,51a1.7,1.7,0,0,1,2.41,2.41L40.89,65a.39.39,0,0,0-.1.26.36.36,0,0,0,.1.26.36.36,0,0,0,.26.11.34.34,0,0,0,.26-.11L47,59.93l.05,0a1.71,1.71,0,0,1,2.35,0,1.73,1.73,0,0,1,0,2.4l-4.22,4.21a.39.39,0,0,0-.1.26.36.36,0,0,0,.1.26.36.36,0,0,0,.26.11.34.34,0,0,0,.26-.11l5.61-5.6A1.7,1.7,0,0,1,52.5,61Z"/><path class="cls-4" d="M57.4,42.82a.82.82,0,0,0,0,.26.5.5,0,0,0,.06.24.57.57,0,0,0,.12.18.77.77,0,0,0,.28.19.58.58,0,0,0,.28.05.58.58,0,0,0,.26-.06.71.71,0,0,0,.15-.08l-1-1A1.13,1.13,0,0,0,57.4,42.82Z"/><path class="cls-4" d="M60.83,44.21a.79.79,0,0,0-.28-.18.67.67,0,0,0-.28,0,1.4,1.4,0,0,0-.28.06,1,1,0,0,0-.18.08l1.11,1.11a.85.85,0,0,0,.09-.14.53.53,0,0,0,.08-.26.7.7,0,0,0,0-.31A1,1,0,0,0,60.83,44.21Z"/><path class="cls-2" d="M64.35,39a7.12,7.12,0,1,0,0,10.08A7.12,7.12,0,0,0,64.35,39Zm-.66,9.41a6.18,6.18,0,1,1,0-8.74A6.19,6.19,0,0,1,63.69,48.4Z"/><path class="cls-4" d="M63,40.37a5.18,5.18,0,1,0,0,7.32A5.18,5.18,0,0,0,63,40.37Zm-.89,6.14-.27.27-.07.07-.58-.59a2.88,2.88,0,0,1-.67.43,1.42,1.42,0,0,1-1.31,0,3.14,3.14,0,0,1-.65-.51l.77-.77a2,2,0,0,0,.32.24,1,1,0,0,0,.3.14.7.7,0,0,0,.32,0,1.38,1.38,0,0,0,.29-.13l-1.25-1.25c-.16.09-.32.18-.49.26a2.11,2.11,0,0,1-.62.19,1.47,1.47,0,0,1-.62,0,1.4,1.4,0,0,1-.62-.4,1.86,1.86,0,0,1-.39-.54,1.5,1.5,0,0,1-.16-.62,1.53,1.53,0,0,1,.12-.65,2,2,0,0,1,.38-.59l-.39-.39.06-.06.28-.27,0,0,.39.39a4.17,4.17,0,0,1,.38-.27,1.56,1.56,0,0,1,.57-.21,1.45,1.45,0,0,1,.68,0,2.09,2.09,0,0,1,.8.46l-.76.76a1.72,1.72,0,0,0-.38-.26.75.75,0,0,0-.3-.08.56.56,0,0,0-.23.07l-.14.11L59,43.34c.34-.17.62-.29.83-.37a2.58,2.58,0,0,1,.56-.12,1.42,1.42,0,0,1,.42.06,1.26,1.26,0,0,1,.33.14,1.2,1.2,0,0,1,.25.16l.15.14a2.06,2.06,0,0,1,.36.5,1.72,1.72,0,0,1,.17.61,1.82,1.82,0,0,1-.1.71,2.11,2.11,0,0,1-.43.72l.58.58Z"/><path class="cls-2" d="M57.72,33.4,41.21,49.91a.31.31,0,0,1-.44,0h0a.3.3,0,0,1,0-.44L57.28,33a6.41,6.41,0,0,1,6.64-1.51l1.34,1.33C63.66,31.19,59.86,31.25,57.72,33.4Z"/><path class="cls-2" d="M54.73,61.48a.31.31,0,0,1,0-.44l16-16a5.51,5.51,0,0,1,5.48-1.37l1.17,1.18c-1.23-1.23-4.43-1.16-6.21.63l-16,16a.31.31,0,0,1-.44,0Z"/><path class="cls-2" d="M26.18,93.86v3.91H24.79V87.62c1.05-.05,1.68-.07,1.9-.07q4.43,0,4.42,3,0,3.42-3.91,3.42C27.05,93.93,26.7,93.91,26.18,93.86Zm0-5v3.74l.93.07c1.71,0,2.57-.67,2.57-2s-.91-1.85-2.75-1.85A5,5,0,0,0,26.18,88.87Z"/><path class="cls-2" d="M36,91.62a1.47,1.47,0,0,0-.86-.3,1.51,1.51,0,0,0-1.22.64,2.39,2.39,0,0,0-.53,1.55v4.26H32V90.35h1.31v1.18a2.31,2.31,0,0,1,2.14-1.32,5.39,5.39,0,0,1,1,.13Z"/><path class="cls-2" d="M43.69,94.19H38.35a2.67,2.67,0,0,0,.71,2,2.26,2.26,0,0,0,1.62.61,2.75,2.75,0,0,0,1.88-.66l.56,1a2.42,2.42,0,0,1-.94.52,4.89,4.89,0,0,1-1.76.29A3.27,3.27,0,0,1,38.05,97,3.72,3.72,0,0,1,37,94.14a3.94,3.94,0,0,1,1.12-2.94,3.23,3.23,0,0,1,2.36-1,3.38,3.38,0,0,1,2.48.89,3.05,3.05,0,0,1,.88,2.28A3,3,0,0,1,43.69,94.19ZM40.5,91.32a2.09,2.09,0,0,0-2.12,1.91h4.11A1.89,1.89,0,0,0,42,91.9,1.94,1.94,0,0,0,40.5,91.32Z"/><path class="cls-2" d="M44.7,97.32l.46-1.24a3.62,3.62,0,0,0,1.77.72c.82,0,1.22-.34,1.22-1q0-.73-1.17-1.26a10.46,10.46,0,0,1-1.23-.63,2.31,2.31,0,0,1-.54-.49,1.84,1.84,0,0,1-.35-.58,1.76,1.76,0,0,1-.11-.66,1.71,1.71,0,0,1,.66-1.43,2.77,2.77,0,0,1,1.74-.51,5.59,5.59,0,0,1,2,.51l-.37,1.22a2.55,2.55,0,0,0-1.57-.62,1.37,1.37,0,0,0-.8.22.67.67,0,0,0-.32.56,1.16,1.16,0,0,0,.81,1.08l.94.43a3.2,3.2,0,0,1,1.26.9,2,2,0,0,1,.4,1.27,1.89,1.89,0,0,1-.7,1.56,3,3,0,0,1-1.94.56A4.39,4.39,0,0,1,44.7,97.32Z"/><path class="cls-2" d="M51.39,91.39h-.85v-1h.85V88.8l1.32-.51v2.06h2v1h-2v3.68A2.14,2.14,0,0,0,53,96.4a1.19,1.19,0,0,0,1,.4,2.46,2.46,0,0,0,1.05-.26l.19,1.16a7.22,7.22,0,0,1-1.79.2A1.93,1.93,0,0,1,52,97.25a2.37,2.37,0,0,1-.61-1.65Z"/><path class="cls-2" d="M60.74,96.91a2.91,2.91,0,0,1-2.42,1,2.07,2.07,0,0,1-1.51-.63,2.11,2.11,0,0,1-.64-1.57,2.36,2.36,0,0,1,1-1.91A4,4,0,0,1,59.67,93a2.92,2.92,0,0,1,.94.18c0-1.2-.53-1.8-1.6-1.8a2.57,2.57,0,0,0-1.9.66L56.55,91a3.25,3.25,0,0,1,1-.52,3.89,3.89,0,0,1,1.26-.22,2.64,2.64,0,0,1,3.08,3.07v2.66a1.35,1.35,0,0,0,.58,1.3v.66a2.47,2.47,0,0,1-1.2-.23A1.23,1.23,0,0,1,60.74,96.91Zm-.13-2.79a4.88,4.88,0,0,0-.87-.14,2.53,2.53,0,0,0-1.63.52,1.51,1.51,0,0,0-.63,1.21c0,.77.46,1.16,1.37,1.16a2.24,2.24,0,0,0,1.76-1Z"/><path class="cls-2" d="M65.59,97.58v3.1H63.86V90.35h1.73v.5a2.19,2.19,0,0,1,1.6-.64q3.56,0,3.55,3.91a3.8,3.8,0,0,1-1,2.8,3.61,3.61,0,0,1-2.68,1A3.35,3.35,0,0,1,65.59,97.58Zm0-5.42v3.9a1.67,1.67,0,0,0,1.1.38,2.23,2.23,0,0,0,1.72-.57,2.6,2.6,0,0,0,.53-1.8,2.64,2.64,0,0,0-.52-1.85,2.32,2.32,0,0,0-1.72-.54A1.54,1.54,0,0,0,65.59,92.16Z"/><path class="cls-2" d="M72.56,87.59l1.73-.42v8.34c0,.91.27,1.46.82,1.63a1.42,1.42,0,0,1-1.37.76c-.79,0-1.18-.54-1.18-1.63Z"/><path class="cls-2" d="M80.57,97a1.66,1.66,0,0,1-.82.63,3.2,3.2,0,0,1-1.22.24,2.74,2.74,0,0,1-1.88-.59,2.14,2.14,0,0,1-.69-1.7,2.37,2.37,0,0,1,1-2,4.51,4.51,0,0,1,2.74-.73,3,3,0,0,1,.72.11c0-.88-.55-1.31-1.65-1.31A3.8,3.8,0,0,0,77.1,92l-.37-1.34a4.77,4.77,0,0,1,2.12-.43,3.47,3.47,0,0,1,2.49.77,4.1,4.1,0,0,1,.79,2.93v1.58c0,1,.2,1.61.6,1.87a1,1,0,0,1-.48.46,1.9,1.9,0,0,1-.6.08,1,1,0,0,1-.68-.27A1.58,1.58,0,0,1,80.57,97Zm-.16-2.75a3.75,3.75,0,0,0-.67-.09c-1.37,0-2,.44-2,1.34,0,.66.39,1,1.16,1A1.38,1.38,0,0,0,80.41,95Z"/><path class="cls-2" d="M84.26,91.74H83.4V90.35h.86V88.84L86,88.2v2.15h2v1.39H86V95a1.92,1.92,0,0,0,.25,1.12,1,1,0,0,0,.88.33,2.12,2.12,0,0,0,1.16-.34v1.6a5.49,5.49,0,0,1-1.72.2,2.22,2.22,0,0,1-1.7-.62,2.48,2.48,0,0,1-.6-1.79Z"/><path class="cls-2" d="M93.75,97a1.71,1.71,0,0,1-.82.63,3.2,3.2,0,0,1-1.22.24,2.78,2.78,0,0,1-1.89-.59,2.16,2.16,0,0,1-.68-1.7,2.37,2.37,0,0,1,1-2,4.49,4.49,0,0,1,2.74-.73,3.08,3.08,0,0,1,.72.11c0-.88-.55-1.31-1.65-1.31a3.8,3.8,0,0,0-1.64.32l-.37-1.34A4.77,4.77,0,0,1,92,90.21a3.47,3.47,0,0,1,2.49.77,4.1,4.1,0,0,1,.79,2.93v1.58c0,1,.2,1.61.6,1.87a1,1,0,0,1-.48.46,1.9,1.9,0,0,1-.6.08,1,1,0,0,1-.68-.27A1.47,1.47,0,0,1,93.75,97Zm-.16-2.75a3.75,3.75,0,0,0-.67-.09c-1.37,0-2,.44-2,1.34,0,.66.39,1,1.16,1A1.38,1.38,0,0,0,93.59,95Z"/></g></g></svg>