<svg xmlns="http://www.w3.org/2000/svg" viewBox="0 0 440.03 214.99"><defs><style>.cls-1{isolation:isolate;}.cls-2{fill:#fff;}.cls-3{fill:#bfbae6;}.cls-3,.cls-4{mix-blend-mode:multiply;}.cls-4{fill:#eae6ff;}.cls-5{fill:#3e275c;}.cls-6{fill:#9bcbe9;}.cls-7{fill:#ff97a7;}.cls-8{fill:#bfeaf5;}.cls-9{fill:#dfb3ff;}.cls-10{fill:#8865c4;}.cls-11{fill:#ffcb37;}.cls-12{fill:#331239;}.cls-13{fill:#82cbea;}.cls-14{fill:#e45d79;}.cls-15{fill:#cbe7f2;}.cls-16{fill:#7050b2;}.cls-17{fill:#ffd980;}.cls-18{fill:#7dbdde;}.cls-19{fill:#ff5e4b;}.cls-20{fill:#ff8076;}.cls-21{fill:#005a6f;}.cls-22{fill:#a1d7eb;}.cls-23{fill:none;stroke:#3e275c;stroke-linecap:round;stroke-linejoin:round;stroke-width:0;}.cls-24{fill:#406eb3;}.cls-25{fill:aqua;}</style></defs><title>FAQ</title><g class="cls-1"><g id="Capa_2" data-name="Capa 2"><g id="Contenido"><path class="cls-2" d="M438.73,20.71a4.93,4.93,0,0,1,.86,5l-48.32-.86a4.55,4.55,0,1,1,8.15-3.92,21.19,21.19,0,0,1,2-10.51,13.74,13.74,0,0,1,7.84-7,10.23,10.23,0,0,1,10.08,2.1c3.08,3,3.59,7.66,3.84,11.94a5.76,5.76,0,0,1,10.73,1.82A4.94,4.94,0,0,1,438.73,20.71Z"/><path class="cls-2" d="M439.67,25.81h-.08l-48.38-.86,0-.05a4.58,4.58,0,0,1,5.7-6.7,4.75,4.75,0,0,1,2.41,2.14,20.77,20.77,0,0,1,2-10,13.88,13.88,0,0,1,7.9-7.1,10.42,10.42,0,0,1,10.2,2.13c3,2.91,3.59,7.5,3.85,11.65a5.88,5.88,0,0,1,10.73,2,5,5,0,0,1,5.71,6.65Zm-48.34-1.09,48.19.86a4.73,4.73,0,0,0-5.59-6.25l-.12,0,0-.12a5.65,5.65,0,0,0-10.52-1.79l-.19.34,0-.39c-.25-4.19-.77-8.92-3.81-11.86a10.16,10.16,0,0,0-10-2.07,13.56,13.56,0,0,0-7.77,7,20.89,20.89,0,0,0-2,10.46l0,.75-.25-.71a4.62,4.62,0,0,0-6.11-2.54A4.37,4.37,0,0,0,391,21.2,4.44,4.44,0,0,0,391.33,24.72Z"/><path class="cls-2" d="M30.28,83.15a5.38,5.38,0,0,1,3.53,5.52v.06c0,.29.43.35.5.07a.64.64,0,0,0,0-.07c.93-3.83,1-9.16,5-11.23a4.35,4.35,0,0,1,5.45.93c1.56,1.78,1.74,4.26,1.9,6.5a.25.25,0,0,0,.47.13.61.61,0,0,1,.07-.1,2.19,2.19,0,0,1,3.2-.08c1.06,1,1.24,2.57,1.32,3.93a.26.26,0,0,0,.26.25,3.46,3.46,0,0,1,3.76,3.45.2.2,0,0,0,0,.14c-3.42-.15-6.85,0-10.26,0H12.75c-4,0-8.12-.17-12.14.08a3.21,3.21,0,0,1,4.58-4c.17.09.42-.07.35-.27l-.06-.16A16.88,16.88,0,0,1,7.15,74.07c1.26-2,3.31-4.07,5.86-4s4.17,2.3,5,4.43c1.11,3,.59,6.37,1,9.5a.24.24,0,0,0,.48,0,1.89,1.89,0,0,1,2.44-1.61,2.93,2.93,0,0,1,1.83,2.64v.12a.25.25,0,0,0,.47.13A5.4,5.4,0,0,1,30.28,83.15Z"/><path class="cls-2" d="M55.84,92.65l.41,0A.26.26,0,0,1,55.84,92.65Z"/><path class="cls-2" d="M52.26,88.54l0,.27L52,88.56Z"/><path class="cls-2" d="M52.26,88.54a4,4,0,0,1,4,4,.25.25,0,0,1,0,.16l-.41,0a.2.2,0,0,1,0-.14A3.46,3.46,0,0,0,52,89.06a.26.26,0,0,1-.26-.25c-.08-1.36-.26-3-1.32-3.93a2.19,2.19,0,0,0-3.2.08l0,0c0-.21,0-.42,0-.64a2.74,2.74,0,0,1,3.12-.15c1.51.88,1.85,2.79,2,4.4l-.22,0,.24.25Z"/><path class="cls-2" d="M47.22,84.93l-.46-.12a1.78,1.78,0,0,1,.42-.52C47.19,84.51,47.21,84.72,47.22,84.93Z"/><path class="cls-2" d="M46.72,84.93c-.16-2.24-.34-4.72-1.9-6.5a4.35,4.35,0,0,0-5.45-.93c-4,2.07-4.11,7.4-5,11.23h0a5.86,5.86,0,0,0-.12-1.82c.8-4,1.52-8.85,5.86-10.24a4.78,4.78,0,0,1,5.27,1.59c1.38,1.71,1.68,3.9,1.85,6a1.78,1.78,0,0,0-.42.52l.46.12,0,0a.61.61,0,0,0-.07.1A.25.25,0,0,1,46.72,84.93Z"/><path class="cls-2" d="M34.2,86.91a5.86,5.86,0,0,1,.12,1.82l-.5-.06C34,88.11,34.08,87.52,34.2,86.91Z"/><path class="cls-2" d="M34.32,88.73h0a.64.64,0,0,1,0,.07c-.07.28-.53.22-.5-.07v-.06h0Z"/><path class="cls-2" d="M24.25,85.19l-.48-.13a6.26,6.26,0,0,1,.39-.51A4.69,4.69,0,0,1,24.25,85.19Z"/><path class="cls-2" d="M30.28,83.15a5.4,5.4,0,0,0-6.07,2.17.25.25,0,0,1-.47-.13v-.12h0l.48.13a4.69,4.69,0,0,0-.09-.64,5.68,5.68,0,0,1,10,2.36c-.12.61-.25,1.2-.38,1.76h0A5.38,5.38,0,0,0,30.28,83.15Z"/><path class="cls-2" d="M21.65,81.87a3.16,3.16,0,0,1,2.51,2.68,6.26,6.26,0,0,0-.39.51h0a2.93,2.93,0,0,0-1.83-2.64A1.89,1.89,0,0,0,19.46,84,.24.24,0,0,1,19,84l.47-.07c0-.35-.08-.7-.11-1.06A2.53,2.53,0,0,1,21.65,81.87Z"/><path class="cls-2" d="M19.34,82.91c0,.36.07.71.11,1.06L19,84A2.1,2.1,0,0,1,19.34,82.91Z"/><path class="cls-2" d="M5.43,88.3l-.35.27c-.06-.17-.12-.34-.17-.5A3.93,3.93,0,0,1,5.43,88.3Z"/><path class="cls-2" d="M18.44,74.4c1,2.71.68,5.67.9,8.51A2.1,2.1,0,0,0,19,84c-.42-3.13.1-6.5-1-9.5-.79-2.13-2.52-4.32-5-4.43s-4.6,2-5.86,4A16.88,16.88,0,0,0,5.48,88.29H5.43a3.93,3.93,0,0,0-.52-.23,17,17,0,0,1-.47-8.49,16,16,0,0,1,3.34-7.2c1.5-1.77,3.75-3.22,6.16-2.62C16.16,70.31,17.69,72.35,18.44,74.4Z"/><path class="cls-2" d="M.61,92.69c.08.21-.24.28-.32.09,0,0,0,0,0,0a.13.13,0,0,1,.09,0Z"/><path class="cls-2" d="M5.54,88.45c.07.2-.18.36-.35.27a3.21,3.21,0,0,0-4.58,4H.37a.13.13,0,0,0-.09,0,3.59,3.59,0,0,1,4.63-4.67c0,.16.11.33.17.5l.35-.27h.05Z"/><path class="cls-2" d="M12.75,92.61H45.58c3.41,0,6.84-.11,10.26,0a.26.26,0,0,0,.41,0h.27a.16.16,0,0,1,0,.32c-4.11.22-8.26.08-12.37.08H11.32c-3.64,0-7.32.15-11-.09a.14.14,0,0,1-.09-.24s0,0,0,0c.08.19.4.12.32-.09h0C4.63,92.44,8.72,92.62,12.75,92.61Z"/><path class="cls-3" d="M122.36,203.76H321.6s3.61-134.43-49.2-161.91C195,1.59,139,134.06,122.36,203.76Z"/><path class="cls-4" d="M339.3,205.62c0,5.17-53.37,9.37-119.21,9.37s-119.2-4.2-119.2-9.37,53.37-9.37,119.2-9.37S339.3,200.44,339.3,205.62Z"/><path class="cls-5" d="M165.49,123.56H143.43a7.32,7.32,0,0,0-7.32,7.32v68.88a7.33,7.33,0,0,0,7.32,7.33h68.88a7.33,7.33,0,0,0,7.33-7.33v-22a12.4,12.4,0,1,0,0-24.79V130.88a7.33,7.33,0,0,0-7.33-7.32H190.26a12.39,12.39,0,0,1-24.77,0Z"/><path class="cls-6" d="M281.41,96.8l21.49,4.91a7.33,7.33,0,0,0,8.77-5.51l4.91-21.49a12.4,12.4,0,0,0,5.52-24.17L327,29.06a7.33,7.33,0,0,0-5.51-8.78L300,15.37a1.66,1.66,0,0,0,.06-.21,12.4,12.4,0,1,0-24.17-5.52,1.43,1.43,0,0,0,0,.22L254.35,5a7.34,7.34,0,0,0-8.78,5.51L240.67,32a12.4,12.4,0,1,1-5.52,24.17l-4.91,21.49a7.33,7.33,0,0,0,5.52,8.77l21.48,4.91a12.4,12.4,0,0,1,24.17,5.51Z"/><path class="cls-7" d="M190.15,65c.15-.17.28.13.37.41a2,2,0,0,1,.11.26h0a2.37,2.37,0,0,1,.6-.75c.12-.16.35-.46.52-.41a0,0,0,0,1,0,0h0l0,0c.05,0,.12,0,.09.08a2.76,2.76,0,0,1-.31.68c-.23.45-.63.79-.72,1.29,0,.14-.1.25-.27.2,0,0,0,0,0,0a.2.2,0,0,1-.15,0,0,0,0,0,1-.06,0,.06.06,0,0,0,0,0l0,0a.87.87,0,0,1-.05-.19,1.61,1.61,0,0,1-.16-.38v-.06a1.7,1.7,0,0,1-.06-.31C190.05,65.55,190,65.15,190.15,65Z"/><path class="cls-8" d="M195.57,81l.11.09-.82-.69a2.65,2.65,0,0,1-.35-.24c-1-.76-3-2.33-3.35-4.19-.48-2.41,1.22-1.49,1.22-1.49s1.77,3.91,4,4.17C197,78.69,196.68,81.65,195.57,81Z"/><path class="cls-8" d="M192.93,77.66c.33-.2-.19-1.57-.09-2a31.24,31.24,0,0,0,.13-8.24,1.4,1.4,0,0,0-1.59-1.06h0c-2.1.24-1.83,1.79-1.79,3a39.64,39.64,0,0,0,1.31,6.3C191.08,76.24,192.17,78.14,192.93,77.66Z"/><path class="cls-9" d="M106.75,79.88l7.76,20.63a7.33,7.33,0,0,0,9.44,4.28L144.58,97a12.39,12.39,0,1,0,23.2-8.73l20.63-7.75a7.33,7.33,0,0,0,4.28-9.44l-7.76-20.64.21-.07a12.4,12.4,0,1,0-8.73-23.21l-.2.09L168.45,6.65A7.33,7.33,0,0,0,159,2.37l-20.62,7.75a12.4,12.4,0,1,1-23.21,8.73L94.55,26.61A7.31,7.31,0,0,0,90.27,36L98,56.67a12.4,12.4,0,1,1,8.73,23.21Z"/><path class="cls-10" d="M229.41,178.37v22a7.33,7.33,0,0,0,7.33,7.33h68.88a7.33,7.33,0,0,0,7.32-7.33V131.54a7.32,7.32,0,0,0-7.32-7.32H283.57a12.4,12.4,0,1,0-24.79,0h-22a7.33,7.33,0,0,0-7.33,7.32V153.6a12.39,12.39,0,0,1,0,24.77Z"/><path class="cls-11" d="M311.75,107.13c-.13.06-.23.15-.35.2a1.59,1.59,0,0,0-.32.16.77.77,0,0,0-.24.37s0,.09,0,.13a.43.43,0,0,0,0,.05.64.64,0,0,0,0,.41,1.17,1.17,0,0,0,.12.39,4.51,4.51,0,0,0-.36,2.25,2,2,0,0,0,2.69,1.1c.44-.29.21-1.41.19-1.8a9.83,9.83,0,0,0-.56-2.73,3.15,3.15,0,0,1,.63,1s.1,0,.09,0C313.51,108,312.61,106.77,311.75,107.13Z"/><path class="cls-5" d="M315.92,156.11c-.19-.17,0-1.07.2-1.68,0,.21,0,.44.25.24a2.24,2.24,0,0,0,.6-1.54,1.8,1.8,0,0,1,.68.27C317.87,153.54,316.31,156.43,315.92,156.11Z"/><path class="cls-7" d="M316.37,154.67c-.22.2-.25,0-.25-.24.11-.39.21-.7.22-.77a.44.44,0,0,0-.08-.33l.26-.4s0,.45.26.21c0,0,.12,0,.19,0A2.24,2.24,0,0,1,316.37,154.67Z"/><path class="cls-5" d="M332.25,143.28c-.25.05-.8-.69-1.17-1.22.16.14.37.26.35,0a2.27,2.27,0,0,0-.81-1.44,2,2,0,0,1,.64-.35C331.51,140.15,332.75,143.19,332.25,143.28Z"/><path class="cls-7" d="M331.43,142c0,.3-.19.18-.35,0-.22-.32-.4-.6-.45-.66s-1.11,0-1.11,0l-.47-.94s1.46.61,1.46.23c0-.06.07-.11.11-.16A2.27,2.27,0,0,1,331.43,142Z"/><path class="cls-7" d="M316.75,119.33a19.12,19.12,0,0,1,2.52,3.74,17.6,17.6,0,0,1,2.09,8.13c.06,1.32.34,6.32.34,6.32s5.23,1.87,7.45,3c.46.23,1.1.82.48.93-2,.38-12.07-.26-12.8-3.28-1.28-5.32-2.51-10.67-2.51-10.67l-.45,11.93,2.64,13.93-.18.36c.06.07-5.3-8.15-7.18-15.7-1.09-4.4-1.53-9.85-1.32-11,.79-4.72,1.6-5.88,1.66-7.09C310.34,120.11,315.29,120.2,316.75,119.33Z"/><path class="cls-5" d="M309.49,120.05a18.26,18.26,0,0,0-2,7.66c0,3.87,1.71,10.73,1.71,10.73s5.77-.42,8.43-1l-.3-4.12,1.28,4,3.11-.36s.38-7.16-.74-10.87-2.66-5.64-4.61-7Z"/><path class="cls-12" d="M317.31,133.34l1.28,4,3.11-.36s.38-7.16-.74-10.87-2.66-5.64-4.61-7l-2.52.37s1.5,3.44,2.2,5.44C316.78,127,317.31,133.34,317.31,133.34Z"/><path class="cls-7" d="M313.05,95.86c.05,0-.09-.07-.12-.13s-.25-.43-.38-.75c0,0-.23-1.16-.36-1.1s0,.22,0,.22a.11.11,0,0,0-.14.09,5.12,5.12,0,0,0,.08,1.19s-.25-.2-.29-.1.42.5.62.53a.55.55,0,0,1,.29.17C312.81,96.1,312.94,96,313.05,95.86Z"/><path class="cls-7" d="M300.69,102a.15.15,0,0,1-.19,0l-.66-.69s-.37-.38-.3-.67c0,0,.07-.07.15.07s-.13-.41,0-.51.22.06.22.06,0-.12.13-.11a2,2,0,0,1,.6.81s-.09-.3,0-.31.3.58.25.78a1.35,1.35,0,0,1,.05.34C300.92,101.87,300.81,101.93,300.69,102Z"/><path class="cls-13" d="M315.87,97.35a30,30,0,0,1,1.3,5.2c.37,2.49-1.58,3-1.84,2.33a27,27,0,0,0-1.29-3.14c-.83-1.48-1.9-2.93-2.23-3.64-.44-.94,1.39-2.65,1.39-2.65A3,3,0,0,1,315.87,97.35Z"/><path class="cls-7" d="M312.61,109.46a11.35,11.35,0,0,1,.29,1.83c-.07.19-.36.47-.59.07a6,6,0,0,1-.2-1.85Z"/><path class="cls-14" d="M312.76,110.16a.49.49,0,0,1-.63.29,2.71,2.71,0,0,1,0-.56l.58,0C312.74,110.07,312.71,109.89,312.76,110.16Z"/><path class="cls-7" d="M311,109.31c-.09-.27,0-1.29.31-1.47a2.67,2.67,0,0,1,2.07.22c.26.22.2.6.17.89a2,2,0,0,1-.43,1,1.47,1.47,0,0,1-1,.29C311.34,110.11,311.13,109.88,311,109.31Z"/><path class="cls-15" d="M308,112.14a13.55,13.55,0,0,1,4.28-1.23,20,20,0,0,1,2.11-.18,7,7,0,0,1,2.7.48s-.32,7.24-.31,8.12a5,5,0,0,1-3.05,1.37c-2.45.45-3.92.26-4.33-.18a39.78,39.78,0,0,1-.81-4.52A33.59,33.59,0,0,0,308,112.14Z"/><path class="cls-8" d="M302.38,107.54c-.73-2.35,3.19.86,3.19.86s1.84,3.43,4.53,2.95c.89-.16-1.41,2.8-1.41,2.8S303.31,110.52,302.38,107.54Z"/><path class="cls-8" d="M305.25,110.5c-1.46.36-6.65-6-5-8.34a1.36,1.36,0,0,1,1.52-.54S307.61,109.91,305.25,110.5Z"/><path class="cls-13" d="M317.24,103.62c.37,5.07.32,7.58-.24,8.95-.26.63-1.87-.44-2-1.41,1.12-2,.12-6.62.24-7.51C315.35,103,317.12,102,317.24,103.62Z"/><path class="cls-16" d="M311.81,110.73a9.44,9.44,0,0,0,1.59-.37l.44.39-2.25.27Z"/><path class="cls-15" d="M309.43,119.71c.06.15-1.1,2.73-1.43,4.22,0,0,4.11,1.6,7.82.34s3.59-1.88,3.59-1.88a10.22,10.22,0,0,0-3-3.58Z"/><path class="cls-8" d="M316.75,119.07c0-1.55.31-7.86.31-7.86a7,7,0,0,0-2.7-.48,20,20,0,0,0-2.11.18,13.55,13.55,0,0,0-4.28,1.23,33.59,33.59,0,0,1,.59,3.86,39.13,39.13,0,0,0,.73,4.2,34.22,34.22,0,0,0-1.29,3.73s4.11,1.6,7.82.34,3.59-1.88,3.59-1.88A10.09,10.09,0,0,0,316.75,119.07Z"/><path class="cls-13" d="M316.75,119.07c0-1.55.31-7.86.31-7.86a7,7,0,0,0-2.7-.48c-.41,0-.82,0-1.21.07-.08,0,.7,2.25,1,4.53a22.27,22.27,0,0,1,0,4.44l1.69,4.5.65-.23c3-1.11,2.94-1.65,2.94-1.65A10.09,10.09,0,0,0,316.75,119.07Z"/><path class="cls-11" d="M316.24,111.38c-.1-.21-.07-.89-.16-1.12-.34-.94-.86-.73-.86-.73a4.22,4.22,0,0,0-.26-1.65,1.75,1.75,0,0,0-2.25-.73c-.47.18-.83,0-.95.46a.06.06,0,0,0,0,0s0,0,0,0a1.06,1.06,0,0,0,.28.87c.17.23.34.46.49.69s-.26.62-.21.92a.4.4,0,0,0,.35.33,1.37,1.37,0,0,0,.57,1.7c-.68.91-1.27,2-.64,3.13a2,2,0,0,0,2.83.74c.06,0,.39-.23.35-.25C318,116,318.2,112.15,316.24,111.38Z"/><path class="cls-17" d="M313.43,116.08a2.31,2.31,0,0,1-.89-.76,2.08,2.08,0,0,1-.36-1.14,3.26,3.26,0,0,1,.06-.62,5.2,5.2,0,0,1,.21-.55,3.3,3.3,0,0,1,.63-1l0,.24a2.28,2.28,0,0,1-.39-.37,1.48,1.48,0,0,1-.26-.46,1.1,1.1,0,0,1-.08-.54,1.58,1.58,0,0,1,.12-.52l.12.2a.58.58,0,0,1-.26-.09.41.41,0,0,1-.17-.24.65.65,0,0,1,.08-.49,2.2,2.2,0,0,0,.13-.36.41.41,0,0,0,0-.15s-.07-.08-.1-.13a3.7,3.7,0,0,1-.48-.69.8.8,0,0,1-.07-.8.77.77,0,0,0,.16.75,6.1,6.1,0,0,0,.52.62.37.37,0,0,1,.17.44,2.9,2.9,0,0,1-.12.42.54.54,0,0,0-.05.31.21.21,0,0,0,.2.12.15.15,0,0,1,.13.16s0,0,0,0a1.16,1.16,0,0,0,0,.84,1.22,1.22,0,0,0,.22.38,1.76,1.76,0,0,0,.31.3h0a.16.16,0,0,1,0,.22v0a3.51,3.51,0,0,0-.59.93c-.07.17-.15.35-.21.53a2.93,2.93,0,0,0-.09.53A2.25,2.25,0,0,0,313.43,116.08Z"/><path class="cls-12" d="M223.14,210c0-.81-1-.69-1.58-.82.17.1.37.25.1.31a2,2,0,0,1-1.47-.28,1.5,1.5,0,0,0-.13.64A7.29,7.29,0,0,0,223.14,210Z"/><path class="cls-7" d="M221.66,209.47c.27-.06.35-.23,0-.3a3,3,0,0,1-.71-.21c-.17-.07-.23-.32-.23-.32h-.32s-.14.5-.16.56A2,2,0,0,0,221.66,209.47Z"/><path class="cls-12" d="M231.14,210c.06-.81-.92-.68-1.51-.81.16.1.35.24.1.3a1.94,1.94,0,0,1-1.42-.29,1.41,1.41,0,0,0-.13.62A7.06,7.06,0,0,0,231.14,210Z"/><path class="cls-7" d="M229.73,209.47c.25-.06.33-.22,0-.29A2.85,2.85,0,0,1,229,209a.51.51,0,0,1-.22-.31l-.31,0s-.13.49-.15.54A1.94,1.94,0,0,0,229.73,209.47Z"/><path class="cls-12" d="M219.18,177a11.75,11.75,0,0,1,3-4.61c1.32.06,5.65,1.28,6.18,1.31.43.23,2.36,3.56,2.84,6.38,1,5.86-1.86,26.3-2,28.51,0,.09-1.35.3-1.39,0-.27-2.24-.5-8.78-1.95-16.95-.85-4.77-1.42-9-1.89-9.93a96.53,96.53,0,0,0-1.06,9.81c-.68,8.9-1.79,17.07-1.79,17.07l-1.43.2-.87-15.48S217.24,182,219.18,177Z"/><path class="cls-7" d="M239.1,172.29s0,.09,0,.11a1,1,0,0,0,.29.25c0-.14.49.07.58.11a1.42,1.42,0,0,0,.35.11.92.92,0,0,0,.57-.16s.2-.15.19-.17-.46,0-.63-.09a4.77,4.77,0,0,1-.69-.32C239.43,172,239.24,171.85,239.1,172.29Z"/><path class="cls-5" d="M219.18,177a11.75,11.75,0,0,1,3-4.61c.53,0,2.62.49,2.62.49a79.84,79.84,0,0,1,1.88,10.61c1.13,10.56,2,25.22,1.83,25.24-.38,0-.73,0-.75-.14-.27-2.24-.5-8.78-1.95-16.95-.85-4.77-1.42-9-1.89-9.93a96.53,96.53,0,0,0-1.06,9.81c-.68,8.9-1.79,17.07-1.79,17.07l-1.43.2-.87-15.48S217.24,182,219.18,177Z"/><path class="cls-7" d="M228.51,151.65a.16.16,0,0,1,0-.2l.7-.71s.38-.4.67-.35c0,0,.08.07-.07.15s.41-.16.52-.07-.06.23-.06.23a.12.12,0,0,1,.11.13,2.28,2.28,0,0,1-.81.65s.3-.1.31,0-.59.35-.79.31a1.39,1.39,0,0,1-.34.08C228.63,151.87,228.57,151.76,228.51,151.65Z"/><path class="cls-18" d="M228.07,155.18a34.33,34.33,0,0,1-4.71,3c-2.32,1.18-2.68.12-2.51-.62.22-.91,1.88-2,2.46-2.62,1.21-1.29,2.33-2.78,2.93-3.33.8-.74,2.95.44,2.95.44A3.17,3.17,0,0,1,228.07,155.18Z"/><path class="cls-18" d="M222.42,157.65c1.15,5.13,1.71,6.43,1.37,7.88-.16.67-1.52,1.93-1.77,1,.12-2.12-1.94-7.82-1.53-8.62C220.78,157.32,222.06,156.05,222.42,157.65Z"/><path class="cls-7" d="M227.3,163a8.33,8.33,0,0,0-.45,1.55c.06.21.36.61.66.25a4.37,4.37,0,0,0,.36-1.67Z"/><path class="cls-14" d="M227,164a.69.69,0,0,0,.73.37,8.27,8.27,0,0,0,.15-.89l-.67-.15C227.09,163.54,227,163.71,227,164Z"/><path class="cls-7" d="M226.75,161.42a5.3,5.3,0,0,1,1.63-.11.79.79,0,0,1,.77.79,4.32,4.32,0,0,1-.15,1.27c-.23.61-.5.82-1.43.76a1.61,1.61,0,0,1-1-.56,2.39,2.39,0,0,1-.21-1.21C226.39,162,226.43,161.6,226.75,161.42Z"/><path class="cls-6" d="M222.05,166l-.25,4.1v2.77s.07.36,3.09,1.27a12.72,12.72,0,0,0,4.07.57c-.25.49,3.31-7.28,2.08-8.53-1-1-2.37-1.49-5.14-1.9C224.49,164,222.46,164.65,222.05,166Z"/><path class="cls-6" d="M230.08,166.06s-.76,6.18,1.22,8.35c1.48,1.61,6.53,1.19,7.94-.94a1.3,1.3,0,0,0-.24-1.56l-6,.61-1.76-6Z"/><path class="cls-18" d="M222.05,166l-.25,4.1v2.77s.07.34,2.84,1.2l.25.07a25.11,25.11,0,0,1-.31-5.89,9,9,0,0,1,1.32-4l-.39,0C224.15,164.14,222.43,164.76,222.05,166Z"/><path class="cls-5" d="M226.19,161.2a1,1,0,0,1,.1-.88A1.06,1.06,0,0,1,227,160h0c.24-.07,1-.08,1.17-.12.82-.31,2-1.34,2.3-.14.22,1-1.21,1.83-1.91,2-.5.15-1,0-1.5.13a2,2,0,0,0-.35,1.49.06.06,0,0,1-.08.07c-.46-.15-1-1.2-1.07-1.46A.89.89,0,0,1,226.19,161.2Z"/><path class="cls-10" d="M225.52,162a.89.89,0,0,1,.23-.49.71.71,0,0,1,.44-.25,0,0,0,0,0,.05-.05v0h0a.89.89,0,0,1,.07-.75.92.92,0,0,1,.66-.35h0a4.78,4.78,0,0,1,.68-.06l.36,0a.45.45,0,0,0,.19,0l.17-.07a9.47,9.47,0,0,1,1.26-.59.51.51,0,0,1,.56.13,1,1,0,0,1,.17.62,1.86,1.86,0,0,1-.72,1.14,1.84,1.84,0,0,0,.85-1.13,1.25,1.25,0,0,0-.17-.72.61.61,0,0,0-.34-.23,1,1,0,0,0-.39,0,7.42,7.42,0,0,0-1.31.58l-.15.07-.15,0-.34,0a6.1,6.1,0,0,0-.72.08h0a1.06,1.06,0,0,0-.77.46,1,1,0,0,0,0,.87l.05-.07a.69.69,0,0,0-.48.32A.83.83,0,0,0,225.52,162Z"/><path class="cls-5" d="M198.28,122.61c-.19.11-.37.27-.09.36a2.1,2.1,0,0,0,1.62-.28,2.06,2.06,0,0,1,.11.76,7.9,7.9,0,0,1-2.41.2c-.26,0-.63-.21-.59-.39S198,122.68,198.28,122.61Z"/><path class="cls-7" d="M198.19,123c-.28-.09-.1-.25.09-.36l.91-.25c.18-.07.21-1.17.21-1.17h.34s0,1.44.07,1.5A2.1,2.1,0,0,1,198.19,123Z"/><path class="cls-5" d="M213,123.56c.1.19.18.42-.11.35a2.09,2.09,0,0,1-1.24-1.08,2.08,2.08,0,0,0-.49.59,8.18,8.18,0,0,0,2,1.43c.23.13.65.15.7,0S213.15,123.74,213,123.56Z"/><path class="cls-7" d="M212.87,123.91c.29.07.21-.16.11-.35l-.55-.58c-.12-.16-.6-1-.6-1l-.19.24a2.31,2.31,0,0,1,0,.64A2.09,2.09,0,0,0,212.87,123.91Z"/><path class="cls-7" d="M203.49,86a29.81,29.81,0,0,1,2.75,4.68c1.62,3.82,5.17,23.27,5.82,30.36a7.41,7.41,0,0,0,.25,1.75c.13.42-.6-.11-.65-.27L200.05,94.84l-.31,26.75-.39.71s-3.68-10.33-4.56-18.15c-1.75-15.66,2.56-16,2.75-17.22C198.35,87.28,202,86.74,203.49,86Z"/><path class="cls-5" d="M197.54,86.93s-2.95,1.07-3.23,9.58,1,11,1,11,7.59.26,11.75-1.46c0,0-1.95-10.75-1.73-12l2.91,11.76,1.44-.26s-.85-11.67-3.13-15.74-5-4.77-5-4.77Z"/><path class="cls-12" d="M197.54,86.93s-2.95,1.07-3.23,9.58,1,11,1,11a48.93,48.93,0,0,0,6.37-.26l.46,0a44,44,0,0,1-3.07-10.55c-.69-4.42.94-10.28.94-10.28Z"/><path class="cls-19" d="M208.64,79.62c-.17,0-.2.16-.58.22a1.79,1.79,0,0,1-1.12-.26,3.43,3.43,0,0,1-.53-.48c-.18-.2-.36-.41-.53-.62a12.68,12.68,0,0,0-3.46-4.63c-.67-.5-2-1-2.8-.49-.82-.54-1.66.14-2.07,1a4.12,4.12,0,0,0-.29,1,4.65,4.65,0,0,0,.56,3.7h0a11.74,11.74,0,0,0,1.35,2.27,12,12,0,0,0,3.47,3.23.2.2,0,0,0,.31-.19,5.75,5.75,0,0,0,1.86-.55,8.5,8.5,0,0,0,2.12-1.48C207.68,81.73,208.9,79.71,208.64,79.62Z"/><path class="cls-13" d="M200.26,78.35h0a19.46,19.46,0,0,0-4.12.16,11.26,11.26,0,0,0-.79,2.94c-.22,2.65.34,5.27,1.18,6.4.18.25,1.53.31,3,.18,1.9-.16,4.08-.63,4.85-1.22a23.83,23.83,0,0,1-1.07-5.31C203.16,79.86,202.59,78.45,200.26,78.35Z"/><path class="cls-8" d="M198.76,78.3a20.42,20.42,0,0,0-2.67.21,11.26,11.26,0,0,0-.79,2.94c-.22,2.65.34,5.27,1.18,6.4a5.27,5.27,0,0,0,2.65.21l.33,0a24.25,24.25,0,0,1-1.63-5.23C197.47,80.5,199,78.3,198.76,78.3Z"/><path class="cls-13" d="M201.88,79.93h0c0,.15-.09.28-.13.4-.43,1.22-2.28,4.63-3.89,5.63-2.11,1.3-.94-1.95-.94-1.95l2.85-3.77C199.93,79.63,202.23,78.67,201.88,79.93Z"/><path class="cls-13" d="M197.79,85c-.4-2.25-5.35-4.14-8.25-4.81a.43.43,0,0,0-.5.25c-.1.24-.19.55-.33,1-.6,2,1.06,2.53,2.28,3.07s5.16,1.56,5.16,1.56S198.12,86.84,197.79,85Z"/><path class="cls-7" d="M198.93,76.3a12.07,12.07,0,0,1,.24,1.93c-.08.2-.4.48-.63.06a6.39,6.39,0,0,1-.15-2Z"/><path class="cls-14" d="M199.13,77.56a.62.62,0,0,1-.73.12c0-.32,0-.68,0-1l.62,0C199,76.94,199.1,77.27,199.13,77.56Z"/><path class="cls-7" d="M197.67,76a4.77,4.77,0,0,1,.59-1.22c.57-.56,1.91.5,2.06.77s0,.67-.15.94a2.22,2.22,0,0,1-.75.86,1.36,1.36,0,0,1-1,0C197.66,76.85,197.55,76.55,197.67,76Z"/><path class="cls-19" d="M201.1,76.52l-.09-.15a.06.06,0,0,0,0-.08,8.71,8.71,0,0,0-1.12-1.46c0-.07-.07-.14-.1-.22h0c.08,0,.14-.11.08-.17a.07.07,0,0,0,0-.08,1.27,1.27,0,0,0-.34,0,2.24,2.24,0,0,0-1.53.57l-.16.09a.09.09,0,0,0,0,.11l-.13.18s0,.11.07.08a5.91,5.91,0,0,1,1.07-.53,2.13,2.13,0,0,1,.42-.1,2.64,2.64,0,0,0,1.8,2.18.08.08,0,0,0,.07-.13l-.07-.07A.13.13,0,0,0,201.1,76.52Z"/><path class="cls-8" d="M201.92,80.47c-.43.58-.85,1.16-1.26,1.73l-1.25,1.74c-.42.57-.84,1.15-1.3,1.68a4.35,4.35,0,0,1-.38.36,1.24,1.24,0,0,1-.45.25,1.74,1.74,0,0,1-1-.08,1.68,1.68,0,0,0,1.06.17,1.22,1.22,0,0,0,.5-.24,3.44,3.44,0,0,0,.41-.35,18,18,0,0,0,1.36-1.67c.41-.58.82-1.17,1.21-1.76S201.56,81.09,201.92,80.47Z"/><path class="cls-7" d="M186.71,80.4a7.54,7.54,0,0,1,.82,0h.08l-.32-.18a.72.72,0,0,1-.22-.1h0a.06.06,0,0,1-.05-.08s0,0,0,0a0,0,0,0,0,0,0,0,0,0,0,1,0,0h.07a2.58,2.58,0,0,1,.82.24.37.37,0,0,1,.19.09h0a.59.59,0,0,1,0-.14s0,0,0,0h0a.56.56,0,0,0,0-.12c0-.05.06-.09.09-.05a1.54,1.54,0,0,1,.23.29,2.48,2.48,0,0,1,.29.37.65.65,0,0,1,.24.22.58.58,0,0,1,0,.39c-.09.16-.41.12-.68,0a1.65,1.65,0,0,1-.48-.1h-.19a1.63,1.63,0,0,1-.5,0,0,0,0,0,1,0-.07s0,0,0,0h.12a2.34,2.34,0,0,1,.62-.19l-.25-.06a1.9,1.9,0,0,1-.36-.09.4.4,0,0,1-.15,0,1.11,1.11,0,0,1-.29-.1s0-.07,0-.07h0A.08.08,0,0,1,186.71,80.4Z"/><path class="cls-20" d="M204.82,83.91a7.22,7.22,0,0,0,1.3-.73,8.12,8.12,0,0,0,1.14-1,10.15,10.15,0,0,0,.9-1.2c.14-.21.27-.43.39-.65a3.59,3.59,0,0,0,.17-.34,1.46,1.46,0,0,0,.07-.19.5.5,0,0,0,0-.12.38.38,0,0,0,0-.1.17.17,0,0,0-.11-.11s-.05,0-.07,0h0a1.8,1.8,0,0,0-.31.15l-.26.07a1.61,1.61,0,0,1-.57-.06,1.55,1.55,0,0,1-.52-.24,3.41,3.41,0,0,1-.44-.42h0l-.52-.62,0,0a14.15,14.15,0,0,0-2.45-3.71,5.42,5.42,0,0,0-1.78-1.36,3.8,3.8,0,0,0-1.1-.29,1.69,1.69,0,0,0-1.11.24h.08a1.05,1.05,0,0,0-.67-.19,1.24,1.24,0,0,0-.64.23,2.51,2.51,0,0,0-.8,1.06,2.55,2.55,0,0,1,.85-1,1.17,1.17,0,0,1,.6-.18,1,1,0,0,1,.58.2.06.06,0,0,0,.08,0h0a1.54,1.54,0,0,1,1-.18,3.65,3.65,0,0,1,1,.31,5.85,5.85,0,0,1,1.68,1.34,15.26,15.26,0,0,1,2.37,3.65h0s0,0,0,0l.53.62h0a5.23,5.23,0,0,0,.48.44,2,2,0,0,0,.62.28,1.9,1.9,0,0,0,.68,0,1.46,1.46,0,0,0,.34-.1,2.07,2.07,0,0,1,.25-.13h-.07c-.07,0,0-.07-.06,0v.06a1,1,0,0,1-.06.16c0,.11-.09.22-.14.33s-.23.43-.36.64a11.33,11.33,0,0,1-.84,1.21,9.34,9.34,0,0,1-1.08,1A7.35,7.35,0,0,1,204.82,83.91Z"/><path class="cls-6" d="M301,214.45a.47.47,0,0,1-.52-.4l-.36-56.28c0-.21.23-.39.52-.39h0c.29,0,.52.17.52.39l.36,56.28a.47.47,0,0,1-.52.4Z"/><path class="cls-6" d="M339.39,214.31a.48.48,0,0,1-.52-.4l-.36-56.27a.47.47,0,0,1,.52-.4h0c.29,0,.52.17.52.39l.36,56.28a.47.47,0,0,1-.52.4Z"/><path class="cls-6" d="M339.41,175.28H300.64a.52.52,0,0,1,0-1h38.77a.52.52,0,1,1,0,1Z"/><path class="cls-6" d="M339.59,195.11H300.64a.52.52,0,0,1-.52-.52.53.53,0,0,1,.52-.53h38.95a.53.53,0,0,1,.53.53A.52.52,0,0,1,339.59,195.11Z"/><rect class="cls-21" x="299.41" y="156.69" width="41.78" height="1.69"/><path class="cls-21" d="M341.39,158.57H299.21V156.5h42.18Zm-41.79-.39H341v-1.29H299.6Z"/><path class="cls-12" d="M123.12,207.47c.1-.52-.78-.52-1.3-.69.15.1.3.25.06.32a1.8,1.8,0,0,1-1.39-.31,1.78,1.78,0,0,0-.12.66C120.37,207.7,123,207.94,123.12,207.47Z"/><path class="cls-7" d="M121.88,207.1c.24-.07.09-.22-.06-.32-.33-.11-.6-.18-.66-.21a.4.4,0,0,1-.2-.23l-.17,0-.3.49A1.8,1.8,0,0,0,121.88,207.1Z"/><path class="cls-12" d="M103.69,207.57c0-.57.72-.46,1.21-.62-.15.1-.29.23-.06.3a1.71,1.71,0,0,0,1.28-.26,1.66,1.66,0,0,1,.1.61C106.21,207.82,103.69,208,103.69,207.57Z"/><path class="cls-7" d="M104.84,207.25c-.23-.07-.09-.2.06-.3l.61-.18a.37.37,0,0,0,.18-.2l.16,0,.27.46A1.71,1.71,0,0,1,104.84,207.25Z"/><path class="cls-5" d="M120.14,168.82c0,.09,2.59,3.22,3.11,5.65,1.57,7.32-1.48,27.91-1.93,31.81-.06.53-1.14-.08-1.18-.73-.25-4.1-3.42-27.82-3.42-27.82l-10.12,29-1.2-.21S107,193.5,108,186c.62-4.43,1.31-11.14,5.25-17.22A39.3,39.3,0,0,1,120.14,168.82Z"/><path class="cls-12" d="M120.14,168.82c0,.09,2.59,3.22,3.11,5.65,1.57,7.32-1.48,27.91-1.93,31.81-.06.53-1.14-.08-1.18-.73-.25-4.1-3.42-27.82-3.42-27.82A20,20,0,0,0,118,173c.13-1.11.09-4.31.09-4.31S119.36,168.77,120.14,168.82Z"/><path class="cls-22" d="M122.35,167.33s5.87-.29,7.19-1.08a1.56,1.56,0,0,0,.32-.43c.39-.76,1-2.38-2-2.06a18.86,18.86,0,0,0-5.66,1.53A7,7,0,0,1,122.35,167.33Z"/><path class="cls-22" d="M118.74,158.63s2.58,5.46,4.25,7.29c2.17,2.4,1.83-1.38,1.83-1.38a19.67,19.67,0,0,0-2-4.44C121.91,158.83,118.84,157.08,118.74,158.63Z"/><path class="cls-6" d="M122.23,161.42a12.62,12.62,0,0,1-.32,6.43c-.23.9-8.76,1.66-8.87,1.15,0-.19-.35-1.62-.52-2.38-.81-3.66-1.11-4.72-.62-6.09.34-1,.52-2.07,5.45-2.64a5.13,5.13,0,0,1,3.21.57A4.68,4.68,0,0,1,122.23,161.42Z"/><path class="cls-23" d="M115,155.53h0"/><path class="cls-18" d="M117.58,157.84a15.07,15.07,0,0,1,1.36,4.84,23.62,23.62,0,0,1-.35,6.13,7.5,7.5,0,0,0,3.1-.67.66.66,0,0,0,.3-.41c.24-1,1.12-5.14.21-7.52C121.16,157.49,117.58,157.84,117.58,157.84Z"/><path class="cls-22" d="M114.91,167.12c-.16-.91-.66-3.88-.66-3.88s-.13-5.53-2-3.49c-1.26,1.41-.4,6.56.81,9.51C113.53,170.33,115.27,169.21,114.91,167.12Z"/><path class="cls-22" d="M116,167.29s6.86,1.27,7.11,2.3-.81,2-2.73,2.24c-.84.11-6,.09-7.23-2.39C112.09,167.13,116,167.29,116,167.29Z"/><path class="cls-7" d="M118.6,156.37a9.09,9.09,0,0,1-.6,1.93.53.53,0,0,1-.84-.32c-.1-.52.74-1.89.74-1.89Z"/><path class="cls-14" d="M118.31,157.51a.82.82,0,0,1-.82-.69c.11-.31.07-.13.2-.37l.81.32C118.44,157,118.4,157.22,118.31,157.51Z"/><path class="cls-7" d="M117.5,156a5.05,5.05,0,0,1,.58-1.28c.57-.6,2,.46,2.16.73s0,.69-.13,1a2.22,2.22,0,0,1-.75.91,1.46,1.46,0,0,1-1.07,0C117.52,156.88,117.4,156.57,117.5,156Z"/><path class="cls-5" d="M117.6,158.31s.13.13.45,0l.24.33-.08.22a.36.36,0,0,1-.32.24h0a.37.37,0,0,1-.36-.21l-.1-.23Z"/><path class="cls-5" d="M118.05,158.86s.88,2.2,1.07,3a11.27,11.27,0,0,1,.18,3.13l-.76.71-1-.76.27-6.14Z"/><path class="cls-22" d="M117.17,157.73a.76.76,0,0,0,.24.36,3.93,3.93,0,0,0,.44.28l-.38.66s-.73-.7-.67-1.08Z"/><path class="cls-22" d="M117.85,158.37l.49.55a1.57,1.57,0,0,0,.26-.9.45.45,0,0,0,0-.16l-.34-.08A1.49,1.49,0,0,1,117.85,158.37Z"/><polygon class="cls-24" points="113.62 167.38 113.65 168.21 117.71 169.99 121.09 169.74 117.65 168.92 113.62 167.38"/><polygon class="cls-24" points="128.7 168.38 117.82 168.99 113.62 167.38 128.63 166.76 128.7 168.38"/><polygon class="cls-24" points="128.74 169.19 117.71 169.99 118.84 161.19 129.96 161.06 128.74 169.19"/><polygon class="cls-24" points="117.3 169.71 117.71 169.99 118.84 161.19 118.36 161.1 117.3 169.71"/><polygon class="cls-24" points="118.36 161.1 129.07 160.99 129.97 161.06 118.85 161.19 118.36 161.1"/><path class="cls-25" d="M125.08,165.25a.73.73,0,1,1-1.32-.62.78.78,0,0,1,1-.43A.78.78,0,0,1,125.08,165.25Z"/><path class="cls-7" d="M123.59,169.88a1.05,1.05,0,0,0,.27-.7c0-.13-.08-.15-.08-.15s0-.17-.09-.17-.25.31-.44.49a1.72,1.72,0,0,1-.37.25s.11-.31,0-.33-.22.37-.29.56S123.35,170.13,123.59,169.88Z"/><path class="cls-7" d="M123,169.54c.2-.28.4-.77.47-.73s.05.25-.08.5A.42.42,0,0,1,123,169.54Z"/><path class="cls-7" d="M129.39,164.88a2.87,2.87,0,0,1-.4-.31l-.11-.12s-.1-.06-.08-.12a.09.09,0,0,1,.07,0h.07l.06,0a.39.39,0,0,1-.08-.1.4.4,0,0,1-.09-.17s0,0,0,0l.06,0s0,0,0-.05.13-.14.31,0c-.07-.08,0-.11,0-.11a.82.82,0,0,1,.38.25C129.72,164.25,129.46,164.92,129.39,164.88Z"/><path class="cls-5" d="M118.23,153.45s.77-1.58,3.76-.42c1.77.69,1.86,2.78-1.13,2.46s-2.65-.7-2.65-.7.12,1.47-.88,1.29c-.44-.08-.53-2.06-.13-2.57S118.05,153.19,118.23,153.45Z"/><path class="cls-10" d="M117.33,156.08c-.17,0-.25-.23-.31-.38a3.89,3.89,0,0,1-.12-.49,4.26,4.26,0,0,1,0-1,1.84,1.84,0,0,1,.1-.51,1.51,1.51,0,0,1,.12-.26,1.8,1.8,0,0,1,.19-.2.68.68,0,0,1,.57-.18.75.75,0,0,1,.5.32l-.25,0a1.77,1.77,0,0,1,.84-.72,2.59,2.59,0,0,1,1.06-.17,4,4,0,0,1,1,.16,6.56,6.56,0,0,1,1,.37l-.49-.13-.5-.1a3.75,3.75,0,0,0-1-.07,2.47,2.47,0,0,0-.94.2,1.58,1.58,0,0,0-.7.59h0a.15.15,0,0,1-.2.05l0,0a.42.42,0,0,0-.65-.1.71.71,0,0,0-.15.15.69.69,0,0,0-.1.19,2.12,2.12,0,0,0-.12.45,4.45,4.45,0,0,0,0,1,2.63,2.63,0,0,0,.06.48C117.14,155.83,117.18,156,117.33,156.08Z"/></g></g></g></svg>