<svg xmlns="http://www.w3.org/2000/svg" viewBox="0 0 120 120"><defs><style>.cls-1{fill:none;}.cls-2{fill:#d7de21;}.cls-3{fill:#009045;}</style></defs><title>aliado_04</title><g id="Capa_2" data-name="Capa 2"><g id="Assets"><rect class="cls-1" width="120" height="120"/><path class="cls-2" d="M31.48,93.42v3.85H28.75V85.92h4.52a5.3,5.3,0,0,1,2.31.48,3.74,3.74,0,0,1,1.55,1.36,3.79,3.79,0,0,1,.55,2,3.28,3.28,0,0,1-1.19,2.65,4.89,4.89,0,0,1-3.26,1Zm0-2.11h1.79a1.74,1.74,0,0,0,1.22-.4,1.51,1.51,0,0,0,.41-1.12,1.79,1.79,0,0,0-.43-1.27A1.51,1.51,0,0,0,33.3,88H31.48Z"/><path class="cls-2" d="M41.78,97.27H39.15v-12h2.63Z"/><path class="cls-2" d="M48.15,97.27a2.8,2.8,0,0,1-.25-.76,2.45,2.45,0,0,1-2,.91,3,3,0,0,1-2-.72A2.28,2.28,0,0,1,43,94.89a2.36,2.36,0,0,1,1-2.07,5.16,5.16,0,0,1,2.95-.7h.81v-.45c0-.78-.34-1.17-1-1.17a.82.82,0,0,0-.93.93H43.21a2.37,2.37,0,0,1,1-2,4.39,4.39,0,0,1,2.66-.76,3.79,3.79,0,0,1,2.54.79,2.69,2.69,0,0,1,1,2.16v3.73a3.78,3.78,0,0,0,.36,1.77v.14ZM46.5,95.55a1.49,1.49,0,0,0,.82-.21,1.36,1.36,0,0,0,.46-.47V93.52H47c-.92,0-1.37.41-1.37,1.23a.75.75,0,0,0,.24.58A.85.85,0,0,0,46.5,95.55Z"/><path class="cls-2" d="M54.92,86.74v2.1h1.39v1.82H54.92v3.86a1,1,0,0,0,.18.66.93.93,0,0,0,.67.18,4.16,4.16,0,0,0,.66,0V97.2a4.87,4.87,0,0,1-1.48.22,2.72,2.72,0,0,1-2-.64,2.57,2.57,0,0,1-.65-1.94V90.66H51.22V88.84H52.3v-2.1Z"/><path class="cls-2" d="M62.09,97.27a3.2,3.2,0,0,1-.25-.76,2.43,2.43,0,0,1-2,.91,3,3,0,0,1-2-.72A2.3,2.3,0,0,1,57,94.89a2.36,2.36,0,0,1,1-2.07,5.16,5.16,0,0,1,3-.7h.81v-.45c0-.78-.34-1.17-1-1.17a.82.82,0,0,0-.93.93H57.16a2.37,2.37,0,0,1,1-2,4.35,4.35,0,0,1,2.65-.76,3.8,3.8,0,0,1,2.55.79,2.75,2.75,0,0,1,1,2.16v3.73a3.78,3.78,0,0,0,.36,1.77v.14Zm-1.64-1.72a1.46,1.46,0,0,0,.81-.21,1.4,1.4,0,0,0,.47-.47V93.52H61c-.91,0-1.37.41-1.37,1.23a.75.75,0,0,0,.24.58A.87.87,0,0,0,60.45,95.55Z"/><path class="cls-3" d="M67,97.27V89.6H65.57v-.76H67v-1a2.76,2.76,0,0,1,.66-2,2.41,2.41,0,0,1,1.83-.69,3.44,3.44,0,0,1,1,.13l-.07.77a3.76,3.76,0,0,0-.85-.09,1.54,1.54,0,0,0-1.2.48,2,2,0,0,0-.42,1.36v1h2v.76h-2v7.67Z"/><path class="cls-3" d="M76.89,97.27a4.81,4.81,0,0,1-.18-1.18,3.11,3.11,0,0,1-1.25,1,3.66,3.66,0,0,1-1.6.35,2.8,2.8,0,0,1-2-.68A2.2,2.2,0,0,1,71.14,95a2.27,2.27,0,0,1,1-2A4.92,4.92,0,0,1,75,92.37h1.69v-1A1.83,1.83,0,0,0,76.15,90a2.27,2.27,0,0,0-1.62-.52,2.53,2.53,0,0,0-1.62.5,1.49,1.49,0,0,0-.64,1.2h-.93a2.17,2.17,0,0,1,.93-1.74,3.62,3.62,0,0,1,2.3-.74,3.31,3.31,0,0,1,2.23.71,2.5,2.5,0,0,1,.83,2v4a4.93,4.93,0,0,0,.26,1.83v.1ZM74,96.6a3.1,3.1,0,0,0,1.68-.46,2.69,2.69,0,0,0,1.07-1.2V93.08H75a4.15,4.15,0,0,0-2.18.51,1.57,1.57,0,0,0-.26,2.54A2,2,0,0,0,74,96.6Z"/><path class="cls-3" d="M85.17,95.12A1.33,1.33,0,0,0,84.61,94a4.31,4.31,0,0,0-1.68-.66,7.86,7.86,0,0,1-1.74-.54,2.37,2.37,0,0,1-.92-.76A1.85,1.85,0,0,1,80,91a2,2,0,0,1,.83-1.65,3.92,3.92,0,0,1,4.4,0,2.23,2.23,0,0,1,.86,1.82h-.94A1.5,1.5,0,0,0,84.5,90a2.41,2.41,0,0,0-1.56-.5,2.47,2.47,0,0,0-1.48.41A1.27,1.27,0,0,0,80.91,91a1.13,1.13,0,0,0,.46,1,4.66,4.66,0,0,0,1.69.64,7.75,7.75,0,0,1,1.84.62,2.37,2.37,0,0,1,.91.78,2.1,2.1,0,0,1,.29,1.12,2,2,0,0,1-.86,1.7,3.64,3.64,0,0,1-2.25.64,3.79,3.79,0,0,1-2.38-.71,2.21,2.21,0,0,1-.92-1.8h.94a1.58,1.58,0,0,0,.69,1.27,2.82,2.82,0,0,0,1.67.45,2.71,2.71,0,0,0,1.58-.42A1.3,1.3,0,0,0,85.17,95.12Z"/><path class="cls-3" d="M89.65,86.68v2.16h1.74v.76H89.65v5.62a1.77,1.77,0,0,0,.25,1,1,1,0,0,0,.85.34,4.73,4.73,0,0,0,.75-.08l0,.76a3,3,0,0,1-1,.13,1.63,1.63,0,0,1-1.39-.56,2.61,2.61,0,0,1-.44-1.64V89.6H87.16v-.76h1.55V86.68Z"/><path class="cls-3" d="M85.23,62.67H44.4a.93.93,0,0,1,0-1.85H84.55L91,40.51H89a.93.93,0,1,1,0-1.85H92.3a.93.93,0,0,1,.75.38.94.94,0,0,1,.13.83L86.1,62A.91.91,0,0,1,85.23,62.67Z"/><path class="cls-3" d="M82.53,59.09H37a.92.92,0,1,1,0-1.84H81.84L88.65,35H45a.92.92,0,0,1,0-1.84H89.89a.93.93,0,0,1,.89,1.19L83.41,58.44A.92.92,0,0,1,82.53,59.09Z"/><path class="cls-3" d="M41.38,35.2H37.74a1.15,1.15,0,1,1,0-2.3h3.64a1.15,1.15,0,0,1,0,2.3Z"/><path class="cls-2" d="M31.34,48.55H27.7a.93.93,0,0,1,0-1.85h3.64a.93.93,0,1,1,0,1.85Z"/><path class="cls-2" d="M36.48,55.28H32.83a.93.93,0,0,1,0-1.85h3.65a.93.93,0,0,1,0,1.85Z"/><path class="cls-3" d="M41.67,62.67H38a.93.93,0,0,1,0-1.85h3.65a.93.93,0,0,1,0,1.85Z"/><path class="cls-2" d="M41.44,36.52a.86.86,0,1,0,0,1.71H47.5a.86.86,0,0,1,.85.86.84.84,0,0,1-.64.82H32.2a.86.86,0,0,0,0,1.72H48.07a.86.86,0,1,1,0,1.71H36.39a.89.89,0,0,0-.61.25.87.87,0,0,0-.25.61.85.85,0,0,0,.86.85h8.82a.86.86,0,1,1,0,1.71H34.3a.85.85,0,0,0-.85.86.86.86,0,0,0,.85.86h8.86a.86.86,0,0,1,.86.85.88.88,0,0,1-.54.8H33.24v0H31.73a.83.83,0,0,0-.61.25.86.86,0,0,0-.25.6.85.85,0,0,0,.86.86H44.17a.86.86,0,1,1,0,1.71h-5a.86.86,0,0,0-.86.86.83.83,0,0,0,.26.6.81.81,0,0,0,.6.25H80.46L86,36.52Zm27,6.68-3.1-.15a1.45,1.45,0,0,0-.14-1.23,1.4,1.4,0,0,0-1.06-.43,1.62,1.62,0,0,0-1.12.3,1.43,1.43,0,0,0-.52.89,1,1,0,0,0,.14.88,4.29,4.29,0,0,0,1.21.8,7.32,7.32,0,0,1,2.88,1.63,2.6,2.6,0,0,1,.56,2.45,3.44,3.44,0,0,1-1.5,2.25,5.81,5.81,0,0,1-3,.82L62.45,53,61,53l.34-1.62a4.88,4.88,0,0,1-2.8-1.2,2.64,2.64,0,0,1-.62-2.71l0,0,3,.15a1.36,1.36,0,0,0,.22,1.36,2,2,0,0,0,1.3.45,1.74,1.74,0,0,0,1.16-.29,1.4,1.4,0,0,0,.55-.86,1.18,1.18,0,0,0-.14-1,3.54,3.54,0,0,0-1.21-.76,8.54,8.54,0,0,1-2.92-1.65,2.43,2.43,0,0,1-.52-2.38,3.36,3.36,0,0,1,1.53-2.24,5.93,5.93,0,0,1,3.11-.84l.36-1.7,1.45.08-.36,1.73a3.89,3.89,0,0,1,2.44,1.29A2.82,2.82,0,0,1,68.45,43.2Z"/></g></g></svg>