<svg xmlns="http://www.w3.org/2000/svg" xmlns:xlink="http://www.w3.org/1999/xlink" viewBox="0 0 305.77 344.6"><defs><style>.cls-1{isolation:isolate;}.cls-2{fill:#9f79ff;}.cls-3{fill:#f2eeff;}.cls-4{opacity:0.4;}.cls-5{fill:#fff;}.cls-6{fill:#ccc;mix-blend-mode:multiply;}.cls-7{fill:#9bcbe9;}.cls-8{fill:#331239;}.cls-9{fill:#e45d79;}.cls-10{fill:#ffcb37;}.cls-11{fill:#ffe5ae;}.cls-12{fill:#3e275c;}.cls-13{fill:#ff97a7;}.cls-14{fill:#ff9a19;}.cls-15{fill:#ff97a8;}.cls-16{fill:#ff5d7b;}.cls-17{fill:#82cbea;}.cls-18{fill:#bfeaf5;}.cls-19{fill:#8fd9ed;}.cls-20{fill:#380a37;}.cls-21{fill:#43225d;}.cls-22{opacity:0.5;mix-blend-mode:overlay;fill:url(#Degradado_sin_nombre_4);}.cls-23{fill:#ba2f7d;}.cls-24{fill:#efeff6;}.cls-25{fill:none;stroke:#fff;stroke-linecap:round;stroke-linejoin:round;stroke-width:3.78px;}</style><linearGradient id="Degradado_sin_nombre_4" x1="155.25" y1="220.78" x2="199.39" y2="178.83" gradientUnits="userSpaceOnUse"><stop offset="0" stop-color="#00c4bb"/><stop offset="0.19" stop-color="#00c4bb" stop-opacity="0.76"/><stop offset="0.47" stop-color="#00c4bb" stop-opacity="0.43"/><stop offset="0.71" stop-color="#00c4bb" stop-opacity="0.2"/><stop offset="0.9" stop-color="#00c4bb" stop-opacity="0.05"/><stop offset="1" stop-color="#00c4bb" stop-opacity="0"/></linearGradient></defs><g class="cls-1"><g id="Capa_2" data-name="Capa 2"><g id="Alertas"><rect class="cls-2" x="140.91" width="107.75" height="57.31" transform="translate(389.57 57.31) rotate(180)"/><rect class="cls-3" x="109.69" y="18.36" width="102.25" height="4.02" transform="translate(321.63 40.74) rotate(180)"/><rect class="cls-3" x="127.62" y="26.29" width="84.33" height="4.02" transform="translate(339.56 56.6) rotate(180)"/><rect class="cls-3" x="151.88" y="34.11" width="60.06" height="4.02" transform="translate(363.82 72.24) rotate(180)"/><g class="cls-4"><polygon class="cls-5" points="158.09 49.06 282.55 49.06 282.55 116.71 263.36 92.2 158.09 92.2 158.09 49.06"/></g><path class="cls-5" d="M1.66,49a6.92,6.92,0,0,0-1.2,7L68,54.78A6.36,6.36,0,1,0,56.63,49.3a29.81,29.81,0,0,0-2.78-14.7,19.31,19.31,0,0,0-11-9.84c-4.8-1.53-10.48-.57-14.1,2.94-4.3,4.16-5,10.71-5.37,16.69A8.29,8.29,0,0,0,15,40.33a8.31,8.31,0,0,0-6.6,6.61A6.9,6.9,0,0,0,1.66,49Z"/><path class="cls-6" d="M185.26,325.34c-35.94,0-65.07,3.1-65.07,6.91s29.13,6.92,65.07,6.92,65.07-3.1,65.07-6.92S221.2,325.34,185.26,325.34Z"/><rect class="cls-7" x="173.61" y="204.53" width="4.07" height="52.4" transform="translate(-41.19 38.2) rotate(-11.12)"/><rect class="cls-7" x="220.05" y="204.53" width="4.07" height="52.4" transform="translate(395.51 499.96) rotate(-168.88)"/><rect class="cls-7" x="149.91" y="255.53" width="4.07" height="77.35" transform="translate(244.32 612.18) rotate(-168.88)"/><path class="cls-8" d="M161.81,208.16h0a19,19,0,0,1,22.43-22.43l12.25,2.53a18.75,18.75,0,0,0,7.68,0l9.71-2A18.66,18.66,0,0,1,235.5,210h0a20.2,20.2,0,0,1-19.3,14.28H181.57A20.17,20.17,0,0,1,161.81,208.16Z"/><rect class="cls-7" x="219.05" y="255.53" width="4.07" height="77.35" transform="translate(-52.58 48.15) rotate(-11.12)"/><path class="cls-8" d="M218.55,259.39H154.48a3.54,3.54,0,0,1-3.53-3.53h0a3.54,3.54,0,0,1,3.53-3.53h64.07a3.54,3.54,0,0,1,3.53,3.53h0A3.54,3.54,0,0,1,218.55,259.39Z"/><path class="cls-9" d="M175.59,212.64s-35.89,9-37.41,37.27,10.6,86.43,10.6,86.43l1.72-.38s7.06-76.23,8-82.29,38.16-7.87,44.82-18.77a34,34,0,0,0,4.42-22.26Z"/><path class="cls-10" d="M187,202.05c-7.49,1.44-24.55-7.24-24.17-19.89.51-17.3,18.75-21.93,21.86-27.31,4.2-7.29,8.57-14.79,14.85-6.76,0,0,4.89-2.1,6.51,4.86,1.52,6.53,7.59,12.22,10,16.08C237.28,203.39,205.16,198.55,187,202.05Z"/><path class="cls-11" d="M165.84,176.93c1.48-5.94,9.83-10.85,15.57-14.68s10.36-14,12.44-15.75a4,4,0,0,1,3.62-.59c-5.19-4.12-9,2.49-12.75,8.94-3.11,5.38-21.35,10-21.86,27.31a14.69,14.69,0,0,0,1.89,7.53A35.67,35.67,0,0,1,165.84,176.93Z"/><path class="cls-12" d="M76.59,303.66c1.17-.9,4.75-.49,7.54,0-.95.1-2,.4-1,1.28,1.43,1.29,5.35,2.56,7,1.89a8.52,8.52,0,0,1-1,3.25C88.61,311.14,74.71,305.1,76.59,303.66Z"/><path class="cls-13" d="M83.12,304.91c-1-.88.06-1.18,1-1.28,1.73.28,2.85.44,3.19.45a4,4,0,0,0,1.73-.4l.84.21s.26,2.6.25,2.91C88.47,307.47,84.55,306.2,83.12,304.91Z"/><path class="cls-12" d="M140.29,343.48c-.47-1.36,4.61-5.66,6.53-6.45-.58.51-1.41,1.57-.52,2,1.31.61,3.91-.32,4.78-1.7a12.61,12.61,0,0,1,.33,3.53C151.38,342.13,141.4,346.69,140.29,343.48Z"/><path class="cls-9" d="M144.79,340.19c-.89-.42,1.17-2.45,1.75-3a13.11,13.11,0,0,1,2.16-1.28,2,2,0,0,0,.76-1.14l1-.13a2.32,2.32,0,0,0,.3,1.83,2.86,2.86,0,0,1,.33.81C150.21,338.69,146.1,340.79,144.79,340.19Z"/><path class="cls-14" d="M216.05,169c-2.38-3.86-8.45-9.55-10-16.08-1.62-7-6.51-4.86-6.51-4.86a14.12,14.12,0,0,1,1.82,4.36c1,3.26-5.62,4.44-5.62,4.44l.7,43.93C214,199.1,233.91,197.93,216.05,169Z"/><path class="cls-15" d="M172.17,222.14c7-7.73,11.48-35.7,5.57-41.73-2.11-2.15-4.34-3.48-8.08-1.15-5,3.09-5.17,35.17-5.17,35.17l-3.15-.52C163.12,216.28,168.37,219.75,172.17,222.14Z"/><path class="cls-16" d="M172.17,222.14c5.48-6,9.4-24.42,8-35v0c0-.18-.05-.35-.08-.52v-.11c0-.15-.05-.31-.08-.46s0-.09,0-.14-.05-.28-.08-.42l0-.16-.09-.4c0-.05,0-.1,0-.16l-.09-.38,0-.11c-.07-.23-.13-.45-.2-.66s-.05-.14-.07-.21a2.25,2.25,0,0,1-.08-.24,2.6,2.6,0,0,0-.1-.25,1.8,1.8,0,0,0-.08-.21l-.11-.24-.09-.2a1.63,1.63,0,0,0-.11-.23,1.14,1.14,0,0,0-.1-.19l-.12-.22-.1-.16-.14-.22-.1-.14a1.84,1.84,0,0,0-.17-.22.44.44,0,0,0-.08-.11c-.09-.1-.18-.21-.27-.3h0l-.43-.42c-.23-.22-.47-.43-.71-.63a6.93,6.93,0,0,0-1.36-.87c.26,8.19.58,28.51-2.28,36.15A11.23,11.23,0,0,1,168.9,220C170,220.79,171.15,221.5,172.17,222.14Z"/><path class="cls-17" d="M169.66,179.26c3.74-2.33,6-1,8.08,1.15,2.76,2.81,3.25,10.4,2.29,18.49l-14.58-3.64C166.17,187.77,167.44,180.63,169.66,179.26Z"/><path class="cls-16" d="M179.39,183.34h0a.78.78,0,0,0,0-.14A.78.78,0,0,1,179.39,183.34Z"/><path class="cls-16" d="M178.72,181.78l.08.16-.08-.16Z"/><polygon class="cls-16" points="179.46 183.55 179.46 183.55 179.46 183.55 179.46 183.55"/><path class="cls-16" d="M180.48,192v0Z"/><path class="cls-16" d="M178,180.71l0,0,0,0Z"/><path class="cls-16" d="M178.26,181l.08.12-.08-.12Z"/><polygon class="cls-16" points="177.74 180.41 177.74 180.41 177.74 180.41 177.74 180.41 177.74 180.41"/><path class="cls-16" d="M180.13,186.55c0,.1,0,.2.05.3,0-.1,0-.2-.05-.3Z"/><polygon class="cls-16" points="180.21 187.09 180.21 187.09 180.21 187.09 180.21 187.09"/><path class="cls-16" d="M180.33,188.23s0-.1,0-.15S180.33,188.18,180.33,188.23Z"/><path class="cls-16" d="M180.12,186.44h0l0-.17Z"/><path class="cls-16" d="M179.94,185.42l0,.16,0-.16Z"/><path class="cls-16" d="M180.46,190.68v0Z"/><path class="cls-16" d="M179.69,184.32l.09.38h0l-.09-.38Z"/><path class="cls-16" d="M180.42,189.43c0-.08,0-.17,0-.25C180.41,189.26,180.41,189.35,180.42,189.43Z"/><path class="cls-16" d="M180,198.73c.05-.37.09-.73.12-1.1C180.13,198,180.09,198.36,180,198.73Z"/><path class="cls-16" d="M180.32,195.84c0-.2,0-.4,0-.6C180.35,195.44,180.34,195.64,180.32,195.84Z"/><path class="cls-16" d="M180.2,197.27c0-.31.06-.61.08-.91C180.26,196.66,180.23,197,180.2,197.27Z"/><path class="cls-16" d="M180.41,194.46c0-.19,0-.37,0-.55C180.42,194.09,180.42,194.27,180.41,194.46Z"/><polygon class="cls-16" points="177.31 179.99 177.31 179.99 177.31 179.99 177.31 179.99"/><path class="cls-16" d="M176,178.9l-.08-.05Z"/><path class="cls-16" d="M180.45,193.26c0-.2,0-.4,0-.59C180.47,192.86,180.46,193.06,180.45,193.26Z"/><path class="cls-18" d="M180.46,190.36c0-.32,0-.63,0-.93C180.43,189.73,180.45,190,180.46,190.36Z"/><path class="cls-18" d="M180,198.9h0a1,1,0,0,0,0-.17C180,198.79,180,198.84,180,198.9Z"/><path class="cls-18" d="M180.36,195.24c0-.26,0-.52,0-.78C180.39,194.72,180.38,195,180.36,195.24Z"/><path class="cls-18" d="M180.43,193.91c0-.21,0-.43,0-.65C180.45,193.48,180.44,193.7,180.43,193.91Z"/><path class="cls-18" d="M180.16,197.63c0-.12,0-.24,0-.36C180.19,197.39,180.18,197.51,180.16,197.63Z"/><path class="cls-18" d="M180.47,192.67c0-.24,0-.47,0-.71C180.48,192.2,180.47,192.43,180.47,192.67Z"/><path class="cls-18" d="M180.28,196.36c0-.18,0-.35,0-.52C180.31,196,180.29,196.18,180.28,196.36Z"/><path class="cls-18" d="M180.48,191.6c0-.31,0-.62,0-.92C180.47,191,180.48,191.29,180.48,191.6Z"/><path class="cls-18" d="M179.21,182.85a1.8,1.8,0,0,0-.08-.21l-.11-.24-.09-.2c0-.08-.07-.16-.11-.23l0,0a9.74,9.74,0,0,1,.54,1.26l0-.1A2.6,2.6,0,0,0,179.21,182.85Z"/><path class="cls-18" d="M179.46,183.55c.08.25.16.51.23.77l0-.11C179.59,184,179.53,183.76,179.46,183.55Z"/><path class="cls-18" d="M178.5,181.4l-.14-.22,0,0a5.39,5.39,0,0,1,.38.62l-.12-.22Z"/><path class="cls-18" d="M180.18,186.85l0,.24v0Z"/><path class="cls-18" d="M178.05,180.76l.21.28a1.84,1.84,0,0,0-.17-.22Z"/><path class="cls-18" d="M179.82,184.86c0-.05,0-.1,0-.16.06.23.11.47.16.72l0-.16Z"/><path class="cls-18" d="M180,185.84c0-.09,0-.17-.05-.26q.06.33.12.69c0-.1,0-.2-.05-.29A.68.68,0,0,0,180,185.84Z"/><path class="cls-18" d="M178,180.71l-.27-.3Z"/><path class="cls-18" d="M180.13,186.55s0-.07,0-.11S180.13,186.51,180.13,186.55Z"/><path class="cls-18" d="M180.32,188.08c0-.34-.07-.67-.11-1C180.25,187.41,180.29,187.74,180.32,188.08Z"/><path class="cls-18" d="M179.46,183.55c0-.07-.05-.14-.07-.21S179.44,183.48,179.46,183.55Z"/><path class="cls-18" d="M177.74,180.41l-.43-.42Z"/><path class="cls-18" d="M180.4,189.18c0-.32,0-.64-.07-1C180.36,188.54,180.38,188.86,180.4,189.18Z"/><path class="cls-18" d="M176,178.9a10.32,10.32,0,0,1,1.34,1.09c-.23-.22-.47-.43-.71-.63S176.18,179,176,178.9Z"/><path class="cls-19" d="M174.76,178.48a4.36,4.36,0,0,0-.71.11H174q-.36.09-.72.21c-.28.09-.56.2-.84.32h0l-.52.24h0a2.79,2.79,0,0,0-.34.18l0,0-.06,0-.21.14-.12.08v0l-.2.15-.14.11-.17.16-.12.12,0,0-.17.17-.14.15-.16.18a2.09,2.09,0,0,0-.14.17c-.06.06-.11.13-.16.19l-.06.08a.76.76,0,0,0-.08.11l-.13.17h0l-.36.54-.07.09-.19.31-.08.14a3.54,3.54,0,0,0-.19.33l-.08.13s0,.09-.07.14l-.12.22-.06.12-.12.24a.8.8,0,0,0-.08.16.36.36,0,0,0,0,.09,2.1,2.1,0,0,0-.13.26l-.09.19h0c-.12.28-.25.57-.37.86l-.06.13-.33.85a2,2,0,0,1-.08.22l-.3.83-.09.3-.27.83c0,.11-.07.22-.1.33s-.13.43-.19.65l-.15.55c-.06.2-.11.4-.16.6s-.09.34-.13.51-.12.48-.17.73-.09.37-.13.56-.07.32-.11.49l-.18.86-.06.34c-.07.35-.14.7-.2,1.05a.78.78,0,0,0,0,.16l4.82.56C171.2,189.21,173.45,182.33,174.76,178.48Z"/><path class="cls-18" d="M176.17,177.5c2.81-3.35,16.09-5.8,28.74-3.82,6.5,1,14.93,5,16.19,9.06,2.54,8.22-13.75,26.1-13.39,29.9-6.9,3.07-28.61,1.68-32.12,0C175.65,212.32,171,183.67,176.17,177.5Z"/><path class="cls-13" d="M197.21,166.11s.9,7.75.51,8.62-1.88,2-2.75.09-.07-8.71-.07-8.71Z"/><path class="cls-9" d="M197.74,171.76a2.68,2.68,0,0,1-3.17.32c0-1.41.06-3,.16-4.2h2.67C197.52,169,197.66,170.46,197.74,171.76Z"/><path class="cls-13" d="M190.7,165.39c-.64-1.15,4.78-8.23,5.07-8.5,1.32.21,2.93.17,4.1.88s1.39,2.59,1.5,3.94a9.82,9.82,0,0,1-1,4.95,6.21,6.21,0,0,1-4,2.1C192.68,168.85,191.59,168,190.7,165.39Z"/><path class="cls-20" d="M201.12,165.19h0l0-5.16h.61a2.58,2.58,0,0,1,2.28,2.85v0A2.58,2.58,0,0,1,201.12,165.19Z"/><path class="cls-20" d="M189.21,157.11a6.71,6.71,0,0,1,5.69-4h.1a7.25,7.25,0,0,1,5.86,1.68c1.64,1.54,2.22,4.66,2.17,6.34l-1.43-.83a6.14,6.14,0,0,0-1.69-4.5,6,6,0,0,0-4.79-1.3C191.76,154.79,188.87,157.89,189.21,157.11Z"/><ellipse class="cls-20" cx="197.31" cy="167.48" rx="0.91" ry="0.73"/><path class="cls-20" d="M199.19,168.18a5.1,5.1,0,0,1-1.37-.19l.19-.61a3.83,3.83,0,0,0,2.78-.26A3.07,3.07,0,0,0,202,164.8l.64.08a3.61,3.61,0,0,1-1.52,2.78A3.53,3.53,0,0,1,199.19,168.18Z"/><path class="cls-13" d="M193,215.57c-9.6.29-23.07-2.57-38.42,0s-30.08,8.06-38.15,27.12-28.13,61.44-28.13,61.44l1.59,1.18s48.24-53.08,52.58-65.17c0,0,32.94,15.66,50.18,14.94,26.67-1.11,27.3-31.58,15.11-42.44C207.71,212.64,198.54,215.4,193,215.57Z"/><path class="cls-21" d="M162.85,214.65s7.63,36.6,7.23,40.43c0,0,13.48,2.12,19.86,2.43,9.62.46,19.73-4.73,23.14-9.9,3.25-4.92,8.29-24.37-5.37-35,0,0-26.81,2.38-32.12,0Z"/><path class="cls-15" d="M159.91,217.26s-4.64.41-6-.95c-2.35-2.29-3.47-5.21-2.84-5.8s4.73,1.77,5.3,2.46,4.13,1,5.33,2.31C162.11,215.77,161.47,216.91,159.91,217.26Z"/><path class="cls-15" d="M213.19,223.17c-15.48,11.88-54.78-7.15-54.78-7.15a40,40,0,0,1,23.1-5.28c5.33.38,25.09,3.69,25.09,3.69s.19-32.08,5.17-35.17c3.74-2.33,6-1,8.08,1.15C226.06,186.74,220.81,217.32,213.19,223.17Z"/><path class="cls-16" d="M195.29,222.64c4.34.16,16.17,1.67,19.79-8,2.86-7.64,2.53-28,2.27-36.15a6.65,6.65,0,0,1,1.36.87c.24.2.48.41.71.63l.43.42h0l.27.3.09.11c0,.07.11.14.16.22a.71.71,0,0,1,.1.14l.14.22.1.16.12.22a1.14,1.14,0,0,1,.1.19,1.63,1.63,0,0,1,.11.23c0,.06.07.13.1.2a2.44,2.44,0,0,0,.1.24l.09.21.09.25a2.25,2.25,0,0,1,.08.24,1.72,1.72,0,0,1,.07.21c.07.21.14.43.2.66l0,.11.09.38a1.24,1.24,0,0,1,0,.16l.09.4,0,.16c0,.14,0,.28.08.42a.68.68,0,0,1,0,.14c0,.15.06.31.08.46s0,.07,0,.11.05.34.07.52v0c1.45,11.33-3.09,31.45-9.13,36.08-15.48,11.88-54.78-7.15-54.78-7.15s.59-.39,1.68-1C175.55,218.64,192.94,222.55,195.29,222.64Z"/><path class="cls-22" d="M131.83,191.78l54-60.65s38.51,15.22,61.05,63.06l-73.54,22.66"/><path class="cls-23" d="M136.67,216.37l-5.12-21.9a4.89,4.89,0,0,1,4.76-6H173a4.89,4.89,0,0,1,4.66,6.39l-4.37,21.52Z"/><path class="cls-23" d="M136.67,216.37l.52,1.66a4.75,4.75,0,0,0,4.53,3.34h45.6a4.44,4.44,0,0,0,4.28-3.28l.58-2.13-21.4.41Z"/><path class="cls-24" d="M156,202.42a2.79,2.79,0,1,1-2.79-2.79A2.79,2.79,0,0,1,156,202.42Z"/><path class="cls-15" d="M134.89,210s-1.09-2.52-.63-3.19,1.11,2.11,1.76,2.67,4,3.15,4,4.12-1.62.22-1.62.22,1.76,1.36,1.19,1.69-2.32.68-3.62-1.42A7.12,7.12,0,0,1,134.89,210Z"/><path class="cls-17" d="M211.77,179.26c3.74-2.33,6-1,8.08,1.15,2.76,2.81,3.25,10.4,2.29,18.49l-14.58-3.64C208.28,187.77,209.55,180.63,211.77,179.26Z"/><path class="cls-16" d="M221.5,183.34h0a.78.78,0,0,0-.05-.14A.78.78,0,0,1,221.5,183.34Z"/><path class="cls-16" d="M220.83,181.78l.09.16-.09-.16Z"/><polygon class="cls-16" points="221.57 183.55 221.57 183.55 221.57 183.55 221.57 183.55"/><path class="cls-16" d="M222.59,192v0Z"/><path class="cls-16" d="M220.12,180.71l0,0,0,0Z"/><path class="cls-16" d="M220.37,181l.09.12-.09-.12Z"/><polygon class="cls-16" points="219.85 180.41 219.85 180.41 219.85 180.41 219.85 180.41 219.85 180.41"/><path class="cls-16" d="M222.25,186.55c0,.1,0,.2,0,.3,0-.1,0-.2,0-.3Z"/><polygon class="cls-16" points="222.32 187.09 222.32 187.09 222.32 187.09 222.32 187.09"/><path class="cls-16" d="M222.44,188.23s0-.1,0-.15S222.44,188.18,222.44,188.23Z"/><path class="cls-16" d="M222.23,186.44h0l0-.17Z"/><path class="cls-16" d="M222.05,185.42l0,.16,0-.16Z"/><path class="cls-16" d="M222.58,190.68c0-.11,0-.22,0-.32C222.57,190.46,222.57,190.57,222.58,190.68Z"/><path class="cls-16" d="M221.8,184.32l.09.38h0l-.09-.38Z"/><path class="cls-16" d="M222.53,189.43c0-.08,0-.17,0-.25C222.52,189.26,222.52,189.35,222.53,189.43Z"/><path class="cls-16" d="M222.16,198.73l.12-1.1Z"/><path class="cls-16" d="M222.43,195.84c0-.2,0-.4,0-.6C222.46,195.44,222.45,195.64,222.43,195.84Z"/><path class="cls-16" d="M222.31,197.27c0-.31.06-.61.08-.91C222.37,196.66,222.34,197,222.31,197.27Z"/><path class="cls-16" d="M222.52,194.46c0-.19,0-.37,0-.55C222.54,194.09,222.53,194.27,222.52,194.46Z"/><polygon class="cls-16" points="219.42 179.99 219.42 179.99 219.42 179.99 219.42 179.99"/><path class="cls-16" d="M218.08,178.9l-.08-.05Z"/><path class="cls-16" d="M222.57,193.26c0-.2,0-.4,0-.59C222.58,192.86,222.57,193.06,222.57,193.26Z"/><path class="cls-18" d="M222.57,190.36c0-.32,0-.63,0-.93C222.54,189.73,222.56,190,222.57,190.36Z"/><path class="cls-18" d="M222.14,198.9h0a1,1,0,0,1,0-.17A1,1,0,0,0,222.14,198.9Z"/><path class="cls-18" d="M222.47,195.24c0-.26,0-.52.05-.78C222.51,194.72,222.49,195,222.47,195.24Z"/><path class="cls-18" d="M222.54,193.91l0-.65Z"/><path class="cls-18" d="M222.28,197.63l0-.36Z"/><path class="cls-18" d="M222.58,192.67c0-.24,0-.47,0-.71C222.59,192.2,222.58,192.43,222.58,192.67Z"/><path class="cls-18" d="M222.39,196.36c0-.18,0-.35,0-.52C222.42,196,222.41,196.18,222.39,196.36Z"/><path class="cls-18" d="M222.59,191.6c0-.31,0-.62,0-.92C222.58,191,222.59,191.29,222.59,191.6Z"/><path class="cls-18" d="M221.33,182.85l-.09-.21a2.44,2.44,0,0,1-.1-.24c0-.07-.07-.14-.1-.2a1.63,1.63,0,0,0-.11-.23v0a11.37,11.37,0,0,1,.53,1.26l0-.1Z"/><path class="cls-18" d="M221.57,183.55c.08.25.16.51.23.77l0-.11C221.71,184,221.64,183.76,221.57,183.55Z"/><path class="cls-18" d="M220.61,181.4l-.14-.22v0c.13.19.25.4.37.62l-.12-.22Z"/><path class="cls-18" d="M222.29,186.85l0,.24v0Z"/><path class="cls-18" d="M220.16,180.76l.21.28c-.05-.08-.11-.15-.16-.22Z"/><path class="cls-18" d="M221.93,184.86a1.24,1.24,0,0,0,0-.16c.06.23.11.47.16.72l0-.16Z"/><path class="cls-18" d="M222.13,185.84c0-.09,0-.17,0-.26q.06.33.12.69a2.5,2.5,0,0,0,0-.29A.68.68,0,0,0,222.13,185.84Z"/><path class="cls-18" d="M220.12,180.71l-.27-.3Z"/><path class="cls-18" d="M222.25,186.55s0-.07,0-.11S222.24,186.51,222.25,186.55Z"/><path class="cls-18" d="M222.43,188.08c0-.34-.07-.67-.11-1C222.36,187.41,222.4,187.74,222.43,188.08Z"/><path class="cls-18" d="M221.57,183.55a1.72,1.72,0,0,0-.07-.21A1.72,1.72,0,0,1,221.57,183.55Z"/><path class="cls-18" d="M219.85,180.41l-.43-.42Z"/><path class="cls-18" d="M222.51,189.18c0-.32,0-.64-.07-1C222.47,188.54,222.49,188.86,222.51,189.18Z"/><path class="cls-18" d="M218.08,178.9a9.69,9.69,0,0,1,1.34,1.09c-.23-.22-.47-.43-.71-.63S218.3,179,218.08,178.9Z"/><path class="cls-19" d="M216.87,178.48a4.53,4.53,0,0,0-.71.11h-.09c-.24.06-.48.13-.71.21a8.71,8.71,0,0,0-.85.32h0l-.52.24h0a2.68,2.68,0,0,0-.33.18l-.06,0,0,0a1.64,1.64,0,0,0-.22.14l-.11.08,0,0-.2.15-.13.11-.18.16-.12.12,0,0-.17.17-.15.15-.16.18a2.09,2.09,0,0,0-.14.17c-.05.06-.1.13-.16.19l-.06.08a.76.76,0,0,0-.08.11l-.12.17h0l-.36.54-.07.09c-.06.1-.12.21-.19.31l-.08.14-.19.33-.07.13-.08.14-.12.22-.06.12-.12.24s0,.1-.08.16l0,.09c0,.08-.09.17-.13.26l-.09.19h0c-.13.28-.26.57-.38.86l-.06.13c-.11.28-.22.56-.32.85l-.09.22c-.1.27-.2.55-.29.83,0,.1-.07.2-.1.3l-.27.83c0,.11-.07.22-.1.33s-.13.43-.19.65l-.15.55c-.05.2-.11.4-.16.6s-.09.34-.13.51-.12.48-.17.73-.09.37-.13.56-.07.32-.11.49l-.18.86-.06.34c-.07.35-.13.7-.2,1.05a1,1,0,0,1,0,.16l4.83.56C213.31,189.21,215.56,182.33,216.87,178.48Z"/><path class="cls-24" d="M154.37,150.91s-10.89-8.94-19.81-8.06-34.47,28.54-65,9.87-28-58.94,1.37-74.17c26.49-13.74,54.77-3.26,68.46,35C144.29,127.16,154.37,150.91,154.37,150.91Z"/><path class="cls-23" d="M117.38,116A25.13,25.13,0,1,1,92.26,90.86,25.12,25.12,0,0,1,117.38,116Z"/><polyline class="cls-25" points="83.75 123.04 89.4 128.76 102.11 103.98"/><path class="cls-24" d="M233.66,177.26s7.71-5.1,13.48-3.93,20.59,21,41.77,10.81,22.24-36.6,4.1-48.52c-16.37-10.76-35.55-5.82-47.06,18.22C241.84,162.42,233.66,177.26,233.66,177.26Z"/><path class="cls-14" d="M290.62,160a14.35,14.35,0,1,1-14.25-14.09A14.18,14.18,0,0,1,290.62,160Z"/><path class="cls-10" d="M288.1,160a13.56,13.56,0,1,1-13.46-14.09A13.77,13.77,0,0,1,288.1,160Z"/><path class="cls-5" d="M274.15,168.54h0a6.1,6.1,0,0,1-6.06-6.14v-.8l12.19.09v.8A6.1,6.1,0,0,1,274.15,168.54Z"/><path class="cls-8" d="M268.91,156.24a1.17,1.17,0,0,1-1.21,1.16,1.17,1.17,0,1,1,1.21-1.16Z"/><path class="cls-8" d="M282.38,156.33a1.2,1.2,0,1,1-1.19-1.18A1.18,1.18,0,0,1,282.38,156.33Z"/></g></g></g></svg>