<svg xmlns="http://www.w3.org/2000/svg" viewBox="0 0 40.75 36.56"><defs><style>.cls-1{fill:#ba2f7d;}.cls-2{fill:none;stroke:#ba2f7d;stroke-linecap:round;stroke-linejoin:round;stroke-width:1.56px;}</style></defs><g id="Capa_2" data-name="Capa 2"><g id="Contenido"><path class="cls-1" d="M20.37,25.26a.78.78,0,0,1-.78-.78v-13a.78.78,0,1,1,1.56,0v13A.78.78,0,0,1,20.37,25.26Z"/><circle class="cls-1" cx="20.41" cy="29.19" r="0.93"/><path class="cls-2" d="M20.37,35.78H36a4,4,0,0,0,3.47-6L31.63,16.28,23.84,2.78a4,4,0,0,0-6.94,0L9.11,16.28,1.32,29.77a4,4,0,0,0,3.47,6Z"/></g></g></svg>