<?xml version="1.0" encoding="utf-8"?>
<!-- Generator: Adobe Illustrator 22.0.1, SVG Export Plug-In . SVG Version: 6.00 Build 0)  -->
<svg version="1.1" id="Layer_1" xmlns="http://www.w3.org/2000/svg" xmlns:xlink="http://www.w3.org/1999/xlink" x="0px" y="0px"
	 viewBox="0 0 1920 1142.8" style="enable-background:new 0 0 1920 1142.8;" xml:space="preserve">
<style type="text/css">
	.st0{fill:#F1F1F7;}
	.st1{fill:#FFFFFF;}
	.st2{fill:#E0ECF6;}
	.st3{fill:#8DBBDD;}
	.st4{fill:none;stroke:#3184C1;stroke-width:2.0413;stroke-linecap:round;stroke-linejoin:round;}
	.st5{fill:#A1C7E3;}
	.st6{fill:none;stroke:#8DBBDD;stroke-width:2.0413;stroke-linecap:round;stroke-linejoin:round;}
	.st7{fill:#3184C1;}
	.st8{fill:none;stroke:#0D6EB6;stroke-width:1.8311;stroke-linecap:round;stroke-linejoin:round;}
	.st9{fill:none;stroke:#8DBBDD;stroke-width:2.3565;stroke-linecap:round;stroke-linejoin:round;}
</style>
<g id="Capa_2">
	<g id="Fondo">
		<rect class="st0" width="1920" height="1148.1"/>
		<path class="st1" d="M1895,713.8c3.5,4.2,4.5,9.9,2.6,15l-146.2-2.6c-4.1-6.4-2.1-14.9,4.3-19c6.4-4.1,14.9-2.1,19,4.3
			c0.6,0.9,1,1.8,1.4,2.8c-0.5-10.9,1.1-22.1,6-31.8c4.9-9.7,13.3-18,23.7-21.3c10.4-3.3,22.7-1.2,30.5,6.4
			c9.3,9,10.9,23.2,11.6,36.1c4.6-8.4,15.3-11.5,23.7-6.9c4.7,2.6,7.9,7.1,8.8,12.4C1885.7,708,1891.3,709.7,1895,713.8z"/>
		<path class="st1" d="M133.7,525c6.9,2.5,11.3,9.4,10.7,16.7c0,0.1,0,0.1,0,0.2c-0.1,0.9,1.3,1,1.5,0.2c0,0,0-0.1,0-0.2
			c2.8-11.6,3.1-27.7,15.2-34c5.5-3.1,12.4-1.9,16.5,2.8c4.7,5.4,5.3,12.9,5.7,19.7c-0.1,0.4,0.1,0.8,0.6,0.9
			c0.4,0.1,0.8-0.1,0.9-0.6l0.2-0.3c2.2-3.2,7.1-2.7,9.7-0.2c3.2,3,3.8,7.8,4,11.9c0,0.4,0.3,0.8,0.8,0.8c5.8-0.5,10.9,3.8,11.4,9.6
			c0,0.3,0,0.6,0,0.9c0,0.1,0,0.3,0.1,0.4c-10.3-0.5-20.7-0.2-31.1-0.2H80.7c-12.2,0-24.6-0.5-36.7,0.2c-3.1-8.6,5.7-16.7,13.9-12
			c0.4,0.2,0.8,0.1,1-0.3c0.1-0.2,0.1-0.3,0.1-0.5c0-0.2-0.1-0.3-0.2-0.5c-4.8-14.4-2.9-30.1,5-43c3.8-6,10-12.3,17.7-12
			c7.4,0.3,12.6,6.9,15,13.4c3.4,9.1,1.8,19.3,3,28.8c0,0.4,0.3,0.8,0.8,0.8c0.4,0,0.8-0.3,0.8-0.8c0.1-3.6,4.1-5.9,7.4-4.9
			c3.3,1,5.2,4.7,5.5,8c0,0.1,0,0.3,0,0.4c0,0.4,0.3,0.8,0.8,0.8c0.3,0,0.5-0.1,0.7-0.4C119.3,525.5,126.8,522.9,133.7,525z"/>
		<path class="st1" d="M211,553.8h1.2C212,554.1,211.5,554.1,211,553.8C211.1,553.8,211.1,553.8,211,553.8z"/>
		<path class="st1" d="M200.2,541.3c0,0.3,0,0.5,0,0.8l-0.8-0.8C199.7,541.3,200,541.3,200.2,541.3z"/>
		<path class="st1" d="M200.2,541.3c6.6-0.1,12.1,5.2,12.2,11.8c0,0.1,0,0.1,0,0.2c0,0.2-0.1,0.3-0.2,0.5H211
			c-0.1-0.1-0.1-0.3-0.1-0.4c0-5.8-4.7-10.5-10.5-10.5c-0.3,0-0.6,0-0.9,0c-0.4,0-0.7-0.4-0.8-0.8c-0.3-4.1-0.8-9-4-11.9
			c-2.6-2.4-7.5-2.9-9.7,0.2l-0.1-0.1c0-0.6-0.1-1.3-0.2-1.9c2.7-2.1,6.5-2.3,9.5-0.5C198.8,530.6,199.9,536.4,200.2,541.3
			c-0.2,0-0.4,0-0.6,0l0.8,0.8C200.3,541.8,200.3,541.6,200.2,541.3z"/>
		<path class="st1" d="M185,530.4l-1.5-0.4c0.3-0.6,0.8-1.1,1.3-1.5C184.9,529.1,184.9,529.7,185,530.4z"/>
		<path class="st1" d="M183.5,530.4c-0.5-6.8-1-14.3-5.7-19.7c-4.1-4.8-11-5.9-16.5-2.8c-12.1,6.3-12.4,22.4-15.2,34l0,0
			c0.2-1.8,0.1-3.7-0.4-5.5c2.4-12.1,4.6-26.8,17.7-31c5.8-1.9,12.2,0,16,4.8c4.2,5.2,5.1,11.8,5.6,18.3c-0.5,0.4-0.9,0.9-1.3,1.5
			l1.5,0.4l0.1,0.1l-0.2,0.3c-0.1,0.4-0.5,0.7-0.9,0.6C183.6,531.2,183.4,530.8,183.5,530.4L183.5,530.4z"/>
		<path class="st1" d="M145.6,536.4c0.4,1.8,0.6,3.7,0.4,5.5l-1.5-0.2C144.8,540,145.2,538.2,145.6,536.4z"/>
		<path class="st1" d="M145.9,541.8L145.9,541.8c0,0,0,0.1,0,0.2c-0.2,0.8-1.6,0.7-1.5-0.2c0-0.1,0-0.1,0-0.2l0,0L145.9,541.8z"/>
		<path class="st1" d="M115.5,531.2l-1.5-0.4c0.4-0.5,0.7-1,1.2-1.5C115.3,529.9,115.4,530.5,115.5,531.2z"/>
		<path class="st1" d="M133.7,525c-6.9-2.1-14.3,0.6-18.4,6.6c-0.2,0.4-0.7,0.5-1,0.3c-0.2-0.1-0.4-0.4-0.4-0.7c0-0.1,0-0.2,0-0.4
			h0.2l1.5,0.4c0-0.7-0.1-1.3-0.3-1.9c5.9-7.4,16.7-8.7,24.1-2.8c3.2,2.5,5.4,6,6.2,10c-0.4,1.8-0.7,3.6-1.2,5.3l0,0
			C145,534.3,140.6,527.5,133.7,525z"/>
		<path class="st1" d="M107.6,521.1c4.2,0.5,6.8,4.2,7.5,8.1c-0.4,0.5-0.8,1-1.2,1.5h-0.1c-0.3-3.3-2.1-6.9-5.5-8
			c-3.4-1-7.3,1.3-7.4,4.9c0,0.4-0.3,0.8-0.8,0.8c-0.4,0-0.8-0.3-0.8-0.8l1.5-0.2c-0.2-1.1-0.3-2.1-0.3-3.2
			C102.2,522,104.9,520.8,107.6,521.1z"/>
		<path class="st1" d="M100.6,524.3c0.1,1.1,0.2,2.2,0.3,3.2l-1.5,0.2C99.5,526.5,99.9,525.3,100.6,524.3z"/>
		<path class="st1" d="M58.5,540.6l-1.1,0.8c-0.2-0.5-0.3-1-0.5-1.5C57.5,540.1,58,540.3,58.5,540.6z"/>
		<path class="st1" d="M97.9,498.5c3,8.2,2.1,17.1,2.7,25.7c-0.7,1-1.1,2.2-1.1,3.4c-1.3-9.5,0.3-19.6-3-28.8
			c-2.4-6.4-7.6-13-15-13.4c-7.7-0.4-13.9,6-17.7,12c-8,12.9-9.8,28.6-5,43h-0.2c-0.5-0.3-1-0.5-1.5-0.7c-2.7-8.3-3.2-17.1-1.5-25.7
			c1.5-8,5-15.5,10.1-21.8c4.5-5.4,11.3-9.8,18.6-7.9C91,486.1,95.6,492.3,97.9,498.5z"/>
		<path class="st1" d="M43.9,553.8c0.2,0.6-0.7,0.8-1,0.3c0,0,0-0.1,0-0.1c0.1-0.1,0.2-0.1,0.3-0.1L43.9,553.8L43.9,553.8z"/>
		<path class="st1" d="M58.8,541c0.1,0.4-0.2,0.8-0.6,0.9c-0.2,0-0.4,0-0.5-0.1c-8.1-4.7-16.9,3.5-13.9,12h-0.7
			c-0.1,0-0.2,0.1-0.3,0.1c-3.7-9,5.5-17.3,14-14.2c0.2,0.5,0.3,1,0.5,1.5l1.1-0.8h0.2C58.7,540.7,58.8,540.9,58.8,541z"/>
		<path class="st1" d="M80.7,553.6H180c10.3,0,20.7-0.3,31.1,0.2c0.3,0.3,0.8,0.4,1.2,0.1c0,0,0.1-0.1,0.1-0.1h0.8
			c0.3,0,0.5,0.2,0.5,0.5s-0.2,0.5-0.5,0.5l0,0c-12.4,0.7-25,0.2-37.4,0.2H76.3c-11,0-22.1,0.4-33.1-0.3c-0.2,0-0.4-0.2-0.4-0.5
			c0-0.1,0-0.2,0.1-0.3c0,0,0,0.1,0,0.1c0.2,0.6,1.2,0.4,1-0.3l0,0C56.1,553.1,68.5,553.6,80.7,553.6z"/>
		<path class="st2" d="M1842.3,924.6c-8.6-22.2-15.1-45.7-22.2-70.6c-4.7-16.8-12.4-35.5-29-40.8c-16.2-5.1-33.5,5.5-43.5,19.2
			c-10,13.7-14.9,30.4-23.4,45c-15.4,26.6-42.7,37.7-65.2,14.3c-32.2-33.4-46.7-78.9-67.1-119.6c-14.8-29.6-27.2-64.2-45.9-91.4
			c-28.5-41.5-67.5-77-119.5-77c-32.9,5-61.9,34.2-81.6,70.5c-19.6,36.4-31.1,79.8-40.9,123.1c-17.8,78.6-30.8,159.1-43.7,239.5
			c0,0,525.2-7.6,596-7.6C1853.7,1029.2,1853.7,953.6,1842.3,924.6z"/>
		<path class="st3" d="M1717.9,962c-1.3,25.5-29,70-54.5,68.7c-25.5-1.3-39-47.9-37.8-73.4c1.2-25.5,28.4-153,53.9-151.7
			C1705.1,806.9,1719.2,936.5,1717.9,962z"/>
		<line class="st4" x1="1678.3" y1="822.2" x2="1665.4" y2="1028.7"/>
		<path class="st5" d="M1659.6,956.7c-5.9,12.8-10.2,26.2-12.9,40.1c-1.4,7.1-2.2,14.7,1,21.2c3.5,7,11.2,11.1,19,12.4
			c18.9,3.1,37.9-8.5,49-24.2c11.1-15.7,15.9-34.8,20.3-53.5c3.5-14.7,6.9-29.6,13.5-43.3c2.8-5.9,19.2-28.5,11.5-34.5
			c-10.6-8.4-41.4,0.7-61.1,22.3C1683.3,914.7,1669.8,934.8,1659.6,956.7z"/>
		<path class="st6" d="M1666.7,1030.3c0,0,22.9-89,78-140.1"/>
		<path class="st7" d="M1793.5,935.7c-2,3.5-5.6,5.9-9,7.8c-4.1,2.3-8.5,4.4-12.7,6.3c-5.6,2.5-11,5.3-16.2,8.4
			c-3.6,2.2-7,4.9-10,7.9c4.1-9.6,9.4-18.6,15.8-26.8c8.1-10.4,16.3-15.6,24.6-15.6h0.6c2.1-0.1,4.2,0.6,5.9,1.9
			C1795.3,927.9,1795.2,932.6,1793.5,935.7z"/>
		<path class="st7" d="M1802.7,993.2c-3.3,2.3-7.6,3-11.4,3.2c-4.7,0.3-9.5,0.3-14.2,0.3c-6.1-0.2-12.2,0-18.3,0.6
			c-4.2,0.5-8.4,1.5-12.4,2.9c7.8-6.9,16.5-12.7,25.7-17.5c11.7-6,21.5-7.1,28.9-3.6l0.5,0.3c1.9,0.9,3.5,2.3,4.5,4.2
			C1807.7,987,1805.6,991.2,1802.7,993.2z"/>
		<path class="st7" d="M1780.9,1021.6c-2.7-0.6-5.2-1.9-7.2-3.8c-2.5-2-4.9-4.3-7.2-6.5c-3-2.9-6.1-5.7-9.4-8.2
			c-2.3-1.7-4.8-3.2-7.5-4.4c7.1,0.2,14.2,1.4,21,3.4c8.6,2.6,14,6.5,16.1,11.8l0.1,0.4c0.6,1.3,0.7,2.8,0.3,4.2
			C1786.3,1020.8,1783.3,1021.9,1780.9,1021.6z"/>
		<path class="st8" d="M1718.9,1030.8c0,0,0.3-54.5,66.8-100.7"/>
		<path class="st8" d="M1718.9,1030.8c0,0,20.4-43.8,75.8-43.8"/>
		<path class="st8" d="M1749.1,999.2c0,0,10.7-0.8,33.1,16.1"/>
		<path class="st2" d="M421,1031.3c-15.4-58.1-30.8-116.2-48.9-172.6c-10.2-31.7-21.4-63.3-37.1-88.7c-15.6-25.4-36.3-44.1-57-44
			c-32,6.2-52.7,37.8-66.2,72.8c-8.9,22.9-13.2,50.8-19.5,75c-8.7,33.4-13.2,69.8-29.8,99.1c-11.6,20.5-29.5,15.2-41.6-3.2
			c-6.6-10.1-11.3-22.2-18.8-31.5s-19.2-15.3-28.7-9.5c-9.7,6-12.6,21.2-13.9,34.5c-1.9,19.8-3.6,38.5-6.8,56.4
			c-0.7,3.9-1.5,7.8-2.3,11.6H421z"/>
		<path class="st2" d="M916.9,1031.3c-20.3-76.5-40.6-153.2-64.5-227.3c-13.5-41.8-28.2-83.5-48.8-116.9
			c-20.6-33.5-47.8-58.1-75.2-58c-42.2,8.2-69.4,49.8-87.2,95.9c-11.7,30.3-17.4,66.9-25.7,98.9c-11.4,44-20.5,202.4-21.6,207.4
			L916.9,1031.3z"/>
		<path class="st5" d="M283.6,951.1c-9.6-11.1-21.8-20.6-25.6-34.6c-2.8-10.2-0.6-21,0.5-31.5c1.1-10.5,0.7-22.2-6.1-30.3
			c-5.6-6.7-14.5-9.6-23-11.4s-17.4-3-25-7.3c-12.3-7.1-9.8-19-16.5-29.6c-7.4-11.8-24.6-26.9-39.4-19c-15.6,8.3-13.2,33.5-2.8,44.6
			c6.9,7.4,15.7,14.5,16.8,24.5c1.5,15.1-15.8,28.8-11,43.2c3.5,10.7,17,14.3,23.6,23.4s5.3,21.5,1.4,32s-10,20.1-12.4,30.9
			c-4.9,22.2,12.5,37.5,32.4,42.5c18.2,4.5,57.6,2.4,57.6,2.4c14-4.9,29.6-17.3,37.3-30.7c5.8-10.4,6.6-22.9,2.1-33.9
			C290.9,960.7,287.6,955.5,283.6,951.1z"/>
		<path class="st9" d="M165.9,811.2c0,0,67.2,103.8,74.5,219"/>
		<path class="st3" d="M106.1,951.2c1.3-1,2.9-1.5,4.5-1.4h0.5c6.2,0,12.5,4,18.6,11.8c4.8,6.2,8.9,13,12,20.3
			c-2.3-2.3-4.8-4.3-7.5-6c-4-2.3-8.2-4.4-12.4-6.3c-3.2-1.5-6.5-3-9.6-4.8c-2.7-1.3-5.1-3.4-6.8-5.9
			C104.1,956.5,104,953.1,106.1,951.2z"/>
		<path class="st3" d="M95.8,995.1c0.7-1.4,2-2.6,3.4-3.2l0.4-0.2c5.7-2.7,13-1.8,21.9,2.7c7,3.6,13.6,8,19.5,13.2
			c-3-1.1-6.2-1.8-9.4-2.2c-4.6-0.5-9.2-0.6-13.8-0.5c-3.5,0-7.2,0-10.7-0.2c-3,0-6-0.9-8.6-2.4C96.2,1000.8,94.6,997.7,95.8,995.1z
			"/>
		<path class="st3" d="M110.2,1021.4c-0.3-1.1-0.2-2.2,0.2-3.2l0.1-0.3c1.5-4,5.6-7,12.2-8.9c5.2-1.5,10.5-2.4,15.9-2.6
			c-2,0.9-3.9,2-5.7,3.3c-2.5,1.9-4.9,4-7.1,6.2c-1.7,1.7-3.5,3.4-5.4,4.9c-1.5,1.4-3.4,2.4-5.4,2.9
			C112.9,1024.2,111,1023.2,110.2,1021.4z"/>
		<path class="st8" d="M161.7,1030.8c0,0-0.2-41.2-50.5-76.2"/>
		<path class="st8" d="M161.7,1030.8c0,0-15.4-33-57.3-33"/>
		<path class="st8" d="M139,1006.9c0,0-8.1-0.6-25,12.2"/>
	</g>
</g>
</svg>
