<svg xmlns="http://www.w3.org/2000/svg" xmlns:xlink="http://www.w3.org/1999/xlink" viewBox="0 0 634.95 641"><defs><style>.cls-1{fill:url(#Degradado_sin_nombre_29);}.cls-2{fill:url(#Degradado_sin_nombre_29-2);}.cls-3{fill:url(#Degradado_sin_nombre_29-3);}.cls-4{fill:url(#Degradado_sin_nombre_29-4);}.cls-5{fill:url(#Degradado_sin_nombre_29-5);}.cls-6{fill:url(#Degradado_sin_nombre_29-6);}</style><linearGradient id="Degradado_sin_nombre_29" x1="0.06" y1="75.99" x2="632.31" y2="75.99" gradientUnits="userSpaceOnUse"><stop offset="0" stop-color="#b12384"/><stop offset="1" stop-color="#750050"/></linearGradient><linearGradient id="Degradado_sin_nombre_29-2" x1="0.06" y1="41.22" x2="632.31" y2="41.22" xlink:href="#Degradado_sin_nombre_29"/><linearGradient id="Degradado_sin_nombre_29-3" x1="0.06" y1="577.76" x2="632.31" y2="577.76" xlink:href="#Degradado_sin_nombre_29"/><linearGradient id="Degradado_sin_nombre_29-4" x1="0.06" y1="598.92" x2="632.31" y2="598.92" xlink:href="#Degradado_sin_nombre_29"/><linearGradient id="Degradado_sin_nombre_29-5" x1="0" y1="298.26" x2="632.26" y2="298.26" xlink:href="#Degradado_sin_nombre_29"/><linearGradient id="Degradado_sin_nombre_29-6" x1="0.06" y1="588.28" x2="632.31" y2="588.28" xlink:href="#Degradado_sin_nombre_29"/></defs><g id="Capa_2" data-name="Capa 2"><g id="Fondo"><path class="cls-1" d="M29.78,79.94l-.91-.77a4.84,4.84,0,0,1-1.13-2.26l0-.23a5,5,0,0,1,.64-3.33l.75-.89,1-.67a3.39,3.39,0,0,1,1.72-.44,2.25,2.25,0,0,1,1.15.08,3.37,3.37,0,0,1,1.6.6l.88.76.17.16a4.74,4.74,0,0,1,1.13,2.27,3.46,3.46,0,0,1,0,1.75,3.51,3.51,0,0,1-.62,1.63l-.77.9-1,.69a3.4,3.4,0,0,1-1.75.44,2.32,2.32,0,0,1-1.17-.07A3.43,3.43,0,0,1,29.78,79.94Z"/><path class="cls-2" d="M47.52,75.93c-6.77-19.21,17.75-48.7,30.65-59.54C85.63,9.93,100,0,100,0l78.44.17c-26,5.94-53.72,19.32-79.25,42.45-13,11.68-24,32-39.57,39.1C54.8,83.9,49.24,81,47.52,75.93Z"/><path class="cls-3" d="M465.33,574.43a3.08,3.08,0,0,0-.89-1.24,4.26,4.26,0,0,0-1.84-1.38l-1.47-.41-1.47,0a4.16,4.16,0,0,0-2,.81,4.34,4.34,0,0,0-1.67,1.52l-.19.23a7,7,0,0,0-1.21,3.2c0,.54,0,1.08,0,1.62a5.07,5.07,0,0,0,.76,2.23,3.17,3.17,0,0,0,.9,1.26,4.37,4.37,0,0,0,1.87,1.4l1.5.42,1.5,0a4.22,4.22,0,0,0,2.06-.82,4.47,4.47,0,0,0,1.69-1.55,6.83,6.83,0,0,0,1.21-3.2c0-.1,0-.2,0-.31,0-.53,0-1.06,0-1.59A4.94,4.94,0,0,0,465.33,574.43Z"/><path class="cls-4" d="M584,573.8a168.51,168.51,0,0,0-52.56-15.28c-19.51-2.95-48.51-2.75-57.56,6.61-3.31,3.32.18,8.45,8.07,11.08,16.83,5.6,35.54,7.47,50.72,10.91,1.27.29,2.53.58,3.78.89,19.41,5.56,36.45,10.87,51,18.51C604.18,615,624.7,629.6,635,641V609.13C622.35,596.23,604.42,583.7,584,573.8Z"/><path class="cls-5" d="M634.49,596.52V0H186.61C153.19,18,82.19,62.4,38.7,148.78-15.14,255.74-20,413.4,70.4,505.48c86.95,88.59,247.31,101.5,342.65,61.66,21.94-9.16,54.3-24.63,100.31-24.46C564.15,542.87,634.49,596.52,634.49,596.52Z"/><path class="cls-6" d="M521,588.26c-.52,0-1.09,0-.47,0Z"/></g></g></svg>