<svg xmlns="http://www.w3.org/2000/svg" viewBox="0 0 183.13 66.15"><defs><style>.cls-1{fill:#fefefe;}.cls-2{fill:#5a5a5a;}.cls-3{fill:#fdfdfd;}.cls-4{fill:none;}</style></defs><g id="Capa_2" data-name="Capa 2"><g id="Contenido"><path class="cls-1" d="M17.39,42.43c0-9.31,0-18.62,0-27.92,0-.78.16-.93.93-.93q73.28,0,146.53,0c.78,0,.94.15.94.93q-.06,18.57,0,37.14c0,.77-.16.93-.94.93q-73.26,0-146.53,0c-.77,0-1-.16-.93-.93.06-2.3,0-4.59,0-6.89.65,0,.94.56,1.44.79,1,.45,1.44.32,1.7-.77.59-2.44,1.08-4.9,1.6-7.36.37-1.78.74-2.07,2.54-2.1H26.5a2,2,0,0,1,1.94,1.07c1.66,3.54,6.75,3,8.88.89a5.71,5.71,0,0,0,.55-.55c1.24-1.67,3-1.57,4.75-1.32,1,.15,1.29.77.91,1.71A7.32,7.32,0,0,1,42,39.24c-3.15,3.51-7,5.31-11.82,4.81a7.34,7.34,0,0,1-2.95-1c-.81-.48-1.13-.22-1.33.63-.52,2.16-.45,2.28,1.8,2.28h14c2.74,0,3.46-.59,4-3.23,1.28-6.23,2.66-12.44,4-18.67.5-2.39-.38-3.55-2.86-3.58-4.83-.07-9.67,0-14.5,0-.94,0-1.47.34-1.59,1.3-.08.63-.35,1.23-.37,1.87.45.21.72-.09,1-.22a12.75,12.75,0,0,1,5.85-1.07,8.58,8.58,0,0,1,8.15,8.28,1.54,1.54,0,0,1-.29,1.1c-.93,1.06-2.18.63-3.31.65a1.68,1.68,0,0,1-1.69-1.18c-1.75-4.11-5.83-5-9.22-2a11,11,0,0,0-1.82,2c-.77,1.12-3.75,1.67-4.86.92-.7-.48-.62-1.2-.49-1.89.43-2.29,1-4.57,1.45-6.86.11-.5.24-1,.32-1.52.22-1.28-.11-1.54-1.4-1.23A2.82,2.82,0,0,0,22,23.2c-.61,3.06-1.33,6.09-1.95,9.14s-1.27,5.93-1.91,8.89C18,41.68,18.11,42.32,17.39,42.43Z"/><path class="cls-2" d="M17.39,42.43c.94-3,1.37-6,2.06-9.06.82-3.58,1.53-7.18,2.33-10.77a3,3,0,0,1,3.79-2.4c.83.18.44.74.37,1.11-.62,3-1.27,5.92-1.91,8.87-.36,1.64-.22,1.81,1.44,1.82a11.37,11.37,0,0,1,1.43,0,1.86,1.86,0,0,0,2-1.1,7.43,7.43,0,0,1,6.68-3.81,4.58,4.58,0,0,1,4.76,3.78c.19.87.55,1.18,1.39,1.13.61,0,1.22,0,1.83,0,1.4,0,1.65-.31,1.47-1.73-.72-5.78-5.87-8.94-11.73-7.2a23.7,23.7,0,0,0-3.5,1.51c.3-1.4.56-2.61.81-3.83.1-.5.45-.55.88-.55,5.4,0,10.79,0,16.19,0a2.45,2.45,0,0,1,2.53,3.23Q48,33.67,45.82,43.87A2.54,2.54,0,0,1,43,46.19c-5.65,0-11.31,0-17,0-.67,0-1-.16-.8-.89.27-1.09.5-2.18.77-3.4a10.53,10.53,0,0,0,10.82.8,14.72,14.72,0,0,0,6.29-5.48c.7-1,.45-1.47-.79-1.54-1.7-.09-3.2,0-4.48,1.56a6.32,6.32,0,0,1-5.66,2.06,4.42,4.42,0,0,1-3.92-2.6,1.57,1.57,0,0,0-1.71-1c-4.54.13-3.42-.74-4.46,3.63-.44,1.9-.93,3.79-1.2,5.71-.18,1.33-.85,1.26-1.8,1-.78-.18-1.17-.82-1.7-1.31Z"/><path class="cls-2" d="M107.52,40.4c-.2,1-.44,2-.58,2.93-.18,1.28-1.13,1-1.89.92-1-.09-.49-.86-.4-1.31.67-3.39,1.39-6.77,2.1-10.15a1.33,1.33,0,0,1,2.1-.85,1.61,1.61,0,0,0,1.3.07c2-.56,3.73-.08,4.69,1.29a4.35,4.35,0,0,1-.23,5A5.54,5.54,0,0,1,107.52,40.4Z"/><path class="cls-2" d="M55.71,32.16a15.56,15.56,0,0,1,2.06-.43c3.3-.1,5.13,2.53,3.83,5.56a5.54,5.54,0,0,1-7.05,3.19c-.71-.26-1,.37-1.67.31-.89-.08-1.38-.12-1.12-1.26.8-3.4,1.52-6.83,2.19-10.26.26-1.3,1.2-.93,1.92-.87,1,.09.44.87.39,1.32C56.16,30.49,55.93,31.23,55.71,32.16Z"/><path class="cls-2" d="M128,40.38c-.21,1-.41,1.86-.59,2.74-.23,1.09-.86,1.44-2,1.17-.57-.15-.5-.55-.42-.91.75-3.64,1.49-7.27,2.3-10.9.26-1.19,1.35-.74,1.92-.54a2.21,2.21,0,0,0,1.43.06,3.88,3.88,0,0,1,4.76,5.66A5.57,5.57,0,0,1,128,40.38Z"/><path class="cls-2" d="M149,37.31a5.59,5.59,0,0,1,7.25-5.2c.79.28,1.11-.4,1.77-.34.93.09,1.39.22,1.14,1.29-.52,2.18-1,4.37-1.44,6.56-.26,1.16-1.05,1.72-2,1.14a1.48,1.48,0,0,0-1.47,0C151.51,41.65,149,40,149,37.31Z"/><path class="cls-2" d="M68.59,31.74a6.45,6.45,0,0,0,3.3.06c.72-.22,1,.23.86,1-.52,2.41-1,4.82-1.56,7.22-.28,1.25-1.34.86-2,.64a1.76,1.76,0,0,0-1.28,0,4,4,0,0,1-4.45-.92A4,4,0,0,1,63,35.2,5.91,5.91,0,0,1,68.59,31.74Z"/><path class="cls-2" d="M116.12,37.18a5.84,5.84,0,0,1,6.53-5.35,3.57,3.57,0,0,1,3,3.67,5.79,5.79,0,0,1-6.34,5.41A3.5,3.5,0,0,1,116.12,37.18Z"/><path class="cls-2" d="M97.15,31.74a3.6,3.6,0,0,1,3.67,4.7,5.94,5.94,0,0,1-5.16,4.43c-3.15.17-5-2.3-4-5.29A5.89,5.89,0,0,1,97.15,31.74Z"/><path class="cls-2" d="M136.5,37.48c.32-1.47.65-3.25,1.09-5,.25-1,1.15-.55,1.78-.55s.6.6.5,1.06c-.25,1.23-.53,2.45-.78,3.67-.17.81-.19,1.59.8,1.91a1.81,1.81,0,0,0,2.27-1.22,37.89,37.89,0,0,0,.92-4.17c.17-1.1.71-1.42,1.76-1.3.7.07.9.35.76,1-.52,2.4-1,4.8-1.55,7.21-.19.93-.94.93-1.51.74a4.6,4.6,0,0,0-2.25.1A3.12,3.12,0,0,1,136.5,37.48Z"/><path class="cls-2" d="M81.34,35.05c-.32,1.5-.64,3.33-1.1,5.12-.24.95-1.16.56-1.79.55s-.59-.59-.49-1.06c.25-1.18.54-2.36.76-3.54.16-.82.3-1.75-.81-2a1.74,1.74,0,0,0-2.26,1.24,37.16,37.16,0,0,0-1,4.42c-.2,1.31-1.12,1-1.87.94-.93-.08-.58-.82-.48-1.31.46-2.24,1-4.46,1.45-6.7.12-.56.24-1.06,1-.92,1.28.24,2.55-.13,3.83,0A2.94,2.94,0,0,1,81.34,35.05Z"/><path class="cls-2" d="M87.61,31.74a3.14,3.14,0,0,1,2.33.72c.46.38,1.32.83.66,1.52-.48.5-1.09,1.2-2.12.5a2.77,2.77,0,0,0-4.18,2.09,1.64,1.64,0,0,0,.85,1.75A2.08,2.08,0,0,0,87.68,38a1.44,1.44,0,0,1,1.95-.24c.65.37.61.71.21,1.23a5.48,5.48,0,0,1-5.39,1.77,3.75,3.75,0,0,1-2.44-5A5.92,5.92,0,0,1,87.61,31.74Z"/><path class="cls-2" d="M146.21,40.85c-1,.17-1.3-.29-1.09-1.26.74-3.37,1.49-6.75,2.14-10.14.26-1.33,1.19-1.09,2-1,1,.16.44.93.33,1.44-.67,3.3-1.4,6.59-2,9.9C147.36,40.61,147,41,146.21,40.85Z"/><path class="cls-2" d="M159.76,40.86c-.92.12-1.29-.21-1.08-1.17.54-2.35,1.06-4.7,1.53-7.07.13-.66.47-.89,1.07-.79a14.7,14.7,0,0,0,3.18-.08c.41,0,1.08-.24,1,.57s.14,1.73-.9,1.71c-2,0-2.62,1.1-2.86,2.78-.15,1-.48,2-.63,3C161,40.66,160.55,41,159.76,40.86Z"/><path class="cls-3" d="M111.21,34.12a1.7,1.7,0,0,1,1.88,1.69,3,3,0,0,1-2.81,2.83A1.64,1.64,0,0,1,108.43,37,2.88,2.88,0,0,1,111.21,34.12Z"/><path class="cls-3" d="M59.55,35.8a3,3,0,0,1-2.87,2.77,1.76,1.76,0,0,1-1.89-1.84,3,3,0,0,1,2.84-2.68A1.65,1.65,0,0,1,59.55,35.8Z"/><path class="cls-3" d="M133.57,35.92a3.09,3.09,0,0,1-3,2.72,1.69,1.69,0,0,1-1.77-1.81,3,3,0,0,1,2.93-2.71A1.76,1.76,0,0,1,133.57,35.92Z"/><path class="cls-3" d="M154.2,34.12a1.68,1.68,0,0,1,1.88,1.68,3,3,0,0,1-2.81,2.84,1.73,1.73,0,0,1-1.89-1.82A3,3,0,0,1,154.2,34.12Z"/><path class="cls-3" d="M69.66,35.83a3,3,0,0,1-2.93,2.74,1.74,1.74,0,0,1-1.79-1.81,3,3,0,0,1,2.94-2.71A1.67,1.67,0,0,1,69.66,35.83Z"/><path class="cls-1" d="M121.45,34.12a1.62,1.62,0,0,1,1.76,1.77,2.9,2.9,0,0,1-2.74,2.75,1.7,1.7,0,0,1-1.85-1.85A2.92,2.92,0,0,1,121.45,34.12Z"/><path class="cls-3" d="M98.57,35.83a3.07,3.07,0,0,1-3,2.74,1.68,1.68,0,0,1-1.7-1.87,2.86,2.86,0,0,1,2.84-2.64A1.71,1.71,0,0,1,98.57,35.83Z"/><rect class="cls-4" width="183.13" height="66.15"/></g></g></svg>