<svg xmlns="http://www.w3.org/2000/svg" viewBox="0 0 66.41 135.05"><defs><style>.cls-1{opacity:0.1;}.cls-2{fill:#3b2b5b;}.cls-3{fill:#3a7182;}.cls-4{fill:#30183a;}.cls-5{fill:#62bcd6;}.cls-6{fill:#80cad5;}.cls-7{fill:#f194a5;}.cls-8{fill:#c85d77;}.cls-9{fill:#fdca49;}.cls-10{fill:#a3e9ef;}</style></defs><g id="Capa_2" data-name="Capa 2"><g id="Contenido"><g class="cls-1"><ellipse cx="35.62" cy="130.39" rx="30.79" ry="4.66"/></g><path class="cls-2" d="M50.58,18.63c-1.55-2.73-7.73-3-9.75-1.46-2.68,2-2.59,7.89-1.95,8.51s4.39-3.26,4.58-1.57-.31,1.94-.31,1.94a2.27,2.27,0,0,0,2.65-.44c1.45-1.11,2.91-2.4,2.52-4.18C47.71,18.66,53.32,23.44,50.58,18.63Z"/><path class="cls-3" d="M50.58,18.63a4,4,0,0,0-1.9-1.5,8.39,8.39,0,0,0-2.36-.62,10.49,10.49,0,0,0-2.44-.07,7.19,7.19,0,0,0-2.35.54,3.65,3.65,0,0,0-1.7,1.6A8.56,8.56,0,0,0,39,20.83a12.51,12.51,0,0,0-.36,2.43c0,.41,0,.83,0,1.24a2.67,2.67,0,0,0,.29,1.18,2.56,2.56,0,0,1-.37-1.18,10.19,10.19,0,0,1-.09-1.24,13.09,13.09,0,0,1,.27-2.49,8,8,0,0,1,.87-2.35,4,4,0,0,1,1.83-1.76,7.55,7.55,0,0,1,2.47-.54,10,10,0,0,1,2.5.12,9.06,9.06,0,0,1,2.39.73A4.1,4.1,0,0,1,50.58,18.63Z"/><path class="cls-2" d="M53.4,130.24c.28-1.62-2-1.17-3.29-1.53.4.23.79.57.18.76a4.46,4.46,0,0,1-3.45-.59,4.2,4.2,0,0,0-.22,1.62C46.64,131.09,53.21,131.36,53.4,130.24Z"/><path class="cls-4" d="M50.29,129.47c.61-.19.22-.53-.18-.76-.81-.23-1.49-.39-1.64-.45a.93.93,0,0,1-.52-.52l-.41-.08s-.64,1.08-.7,1.22A4.46,4.46,0,0,0,50.29,129.47Z"/><path class="cls-2" d="M16.89,129c-.27-1.61,2-1.17,3.29-1.53-.39.23-.79.57-.18.76a4.49,4.49,0,0,0,3.45-.58,4.13,4.13,0,0,1,.22,1.61C23.65,129.86,17.08,130.13,16.89,129Z"/><path class="cls-4" d="M20,128.24c-.61-.19-.21-.53.18-.76.81-.23,1.49-.38,1.64-.45a.93.93,0,0,0,.52-.52l.41-.08s.64,1.08.7,1.23A4.49,4.49,0,0,1,20,128.24Z"/><path class="cls-2" d="M43.67,53.09a58.53,58.53,0,0,1,4.48,9c2.91,7.87,1.24,56.89.1,65.31-.16,1.13-2.86,0-2.93-1.42-.39-8.87-10.38-54.7-10.38-54.7L23.06,126.93H20.27S23.69,54.86,25,52.76C27.66,52.2,39.58,52.76,43.67,53.09Z"/><path class="cls-4" d="M43.67,53.09a58.53,58.53,0,0,1,4.48,9c2.91,7.87,1.24,56.89.1,65.31-.08.6-.89.56-1.64.18-.32-.17-.06-17.53-4.29-37.79-3.78-18.15-8.41-34.73-6.27-34.66C39.53,55.28,41.82,52.94,43.67,53.09Z"/><path class="cls-5" d="M28.57,31c2-1.48,7.81-2.9,18-.37a10.77,10.77,0,0,1,2.94,1.23c-.84,3.4.3,8,.3,8a34.88,34.88,0,0,0-2.64,7,16.09,16.09,0,0,0,.41,8.72,47,47,0,0,1,1.6,8.23s-9.65,1.79-12,1.48c-.78-.09-2.24-7-2.24-7s-1.9,6.56-2.72,6.41c-2.06-.37-9.82-3.22-9.82-3.22s3.07-9.17,3.09-10.83a44.37,44.37,0,0,1,1.39-10.33C28,34.87,28.57,31,28.57,31Z"/><path class="cls-5" d="M9.47,5.16c1.62,2.05,9.34,14.25,9.34,14.25s-1.33,5-3.71,3.25c-2.62-1.91-5.63-4.88-9.18-8S3.12,2.88,3.12,2.88,7.85,3.12,9.47,5.16Z"/><path class="cls-5" d="M15.86,17.17s10,7.22,12.55,8.88a29.71,29.71,0,0,0,7,3.21c1.33.49-2.76,1.7-2,5.32-2.8-.93-17.87-11.31-20.06-13.26S15.86,17.17,15.86,17.17Z"/><path class="cls-6" d="M49.37,31.79a15.3,15.3,0,0,1,3.9,5.68c2.09,4.23,4.18,16.73,4.45,18.9.51,4.12-6.86-4.55-6.86-4.55s.14-3.35-2.07-8.64c-.53-1.26-2.24-4.73-2.24-4.73A55.7,55.7,0,0,0,49.37,31.79Z"/><path class="cls-6" d="M58.79,70.48C61,67,57.22,48.09,54.08,51.23a2.57,2.57,0,0,1-3.23.61L52.6,70.36S54.94,76.71,58.79,70.48Z"/><path class="cls-7" d="M55.68,72.34A5.5,5.5,0,0,1,58,74.09c.31.57.65,2.36.4,2.55s-.36-.18-.36-.18,0,.4-.29.34-.4-.88-.74-1.41c-.2-.33-.6-.58-.68-.82,0,0,0,.8-.2.78s-.62-1.38-.58-1.82S55.39,72.44,55.68,72.34Z"/><path class="cls-7" d="M.51,2.88C.07,1.89.58.53,1.45.81a5.69,5.69,0,0,1,.78.55l.45.36S2.13,1,2.43.89s.6.3.78.62,1.4,2,.85,3.23c.11,0-.29.23-.44.21A4.91,4.91,0,0,1,.51,2.88Z"/><path class="cls-7" d="M.15,0S-.46,0,.79,1.07l1.67.48A14.29,14.29,0,0,0,.15,0Z"/><path class="cls-6" d="M40.23,29.46s1.35.16,2.07.28c1.31.22,2.72.5,4.23.88a10.77,10.77,0,0,1,2.94,1.23c-.84,3.4.3,8,.3,8a34.88,34.88,0,0,0-2.64,7,16.09,16.09,0,0,0,.41,8.72,47,47,0,0,1,1.6,8.23s-9.65,1.79-12,1.48c-.78-.09-2.24-7-2.24-7s.34-4,.8-10.89C36.17,39.74,40.23,29.46,40.23,29.46Z"/><path class="cls-7" d="M41.77,26.75s0,3.83-.43,4.16a1.89,1.89,0,0,1-2.53-.52c-.61-1.09.84-4.11.84-4.11Z"/><path class="cls-8" d="M41.67,29.51A3.07,3.07,0,0,1,39,27.89c.12-.67.08-.27.29-.81l2.45-.55C41.74,27.07,41.73,28.89,41.67,29.51Z"/><path class="cls-7" d="M38.49,24.76a7.9,7.9,0,0,1,1-2.31,1,1,0,0,1,.64-.52c1.49-.35,3.7,1.11,4,1.62s0,1.42-.24,2S41.85,28.93,40,28C38,26.89,38.3,26.05,38.49,24.76Z"/><path class="cls-9" d="M38.58,31.51,39,32.83l.65.1,1.17-1.14S39.66,30.57,38.58,31.51Z"/><path class="cls-2" d="M39.66,32.26s.51,9.28.51,12.38-.69,3.81-.69,3.81l-2.77,1.24-2.05-2.32s3.45-13.89,4.55-15.11S39.66,32.26,39.66,32.26Z"/><path class="cls-10" d="M38.77,28.76s-.27.79,1,2.38l-1.2,1.12S37.1,31.05,38.77,28.76Z"/><path class="cls-10" d="M41.7,29.27s0,.43-2,1.85l.8,1.63A2.43,2.43,0,0,0,41.7,29.27Z"/></g></g></svg>