<svg xmlns="http://www.w3.org/2000/svg" viewBox="0 0 89.97 147.92"><defs><style>.cls-1{opacity:0.1;}.cls-2{fill:#3b2b5b;}.cls-3{fill:#30183a;}.cls-4{fill:#380a37;}.cls-5{fill:#62bcd6;}.cls-6{fill:#f194a5;}.cls-7{fill:#ff9a2e;}.cls-8{fill:#fdca49;}.cls-9{fill:#bf7323;}.cls-10{fill:#80cad5;}.cls-11{fill:#c85d77;}.cls-12{fill:#3a7182;}</style></defs><g id="Capa_2" data-name="Capa 2"><g id="Contenido"><g class="cls-1"><path d="M68.21,142.49c0,3-15.27,5.43-34.1,5.43S0,145.49,0,142.49s15.27-5.43,34.11-5.43S68.21,139.49,68.21,142.49Z"/></g><path class="cls-2" d="M51.83,141.86c.26-1.56-1.92-1.13-3.19-1.48.38.23.76.56.18.74a4.38,4.38,0,0,1-3.35-.57,4.11,4.11,0,0,0-.21,1.57C45.28,142.69,51.64,143,51.83,141.86Z"/><path class="cls-3" d="M48.82,141.12c.58-.18.2-.51-.18-.74-.79-.22-1.45-.37-1.59-.43a.9.9,0,0,1-.5-.51l-.4-.07s-.62,1-.68,1.18A4.38,4.38,0,0,0,48.82,141.12Z"/><path class="cls-2" d="M24.32,141.86c.27-1.56-1.91-1.13-3.18-1.48.38.23.76.56.17.74a4.35,4.35,0,0,1-3.34-.57,4.12,4.12,0,0,0-.22,1.57C17.78,142.69,24.14,143,24.32,141.86Z"/><path class="cls-3" d="M21.31,141.12c.59-.18.21-.51-.17-.74-.79-.22-1.45-.37-1.6-.43a.94.94,0,0,1-.5-.51l-.39-.07s-.62,1-.68,1.18A4.35,4.35,0,0,0,21.31,141.12Z"/><path class="cls-2" d="M22.54,67.22A52,52,0,0,0,18.08,76c-2.82,7.62-.67,55.56.43,63.72.15,1.1.4,1.12.53-.24.85-8.43,11.6-52.6,11.6-52.6l8.92,16.83L46,139.82l.58,0s3.17-26,2.21-37.42C48,93,43,69.06,41.66,67,39.11,66.49,26.49,66.9,22.54,67.22Z"/><path class="cls-4" d="M32.76,68c0,.19-2.12,18.89-2.12,18.89l8.92,16.83L46,139.82l.58,0s3.17-26,2.21-37.42C48,93,43,69.06,41.66,67,39.11,66.49,36.72,67.63,32.76,68Z"/><path class="cls-5" d="M61.51,41.06s-14.25.61-19.53,1c-1.28.1-4.79-.24-7.64,1.55,2.38,1.24,8.38,4.26,8.15,4,2.22.72,12,1.47,14.57.82C60.65,47.53,61.51,41.06,61.51,41.06Z"/><path class="cls-6" d="M59.47,27.33C61.11,26,59.2,25.21,60.88,24c1-.7-1.3-1-3,.21-.43.32.59,3.52.59,3.52Z"/><path class="cls-7" d="M44.86,30.46a1.17,1.17,0,0,0-.86.31c-.16.19.06.71.26,1s.63.6.84.51.65-.63.65-.63Z"/><path class="cls-7" d="M49.7,26.81l-5.14,3.54s-.19.24.09.91a1.08,1.08,0,0,0,.91.69l5.56-3.36Z"/><path class="cls-8" d="M53.26,23.86,49.55,26.6a.45.45,0,0,0-.19.22,1.4,1.4,0,0,0,.25,1.32,2.2,2.2,0,0,0,.81.78.69.69,0,0,0,.68,0,43.59,43.59,0,0,1,4.2-2.3C55.47,26.86,53.26,23.86,53.26,23.86Z"/><path class="cls-7" d="M62.26,16.05l-10.2,7.34a1.06,1.06,0,0,0-.45.95,3.87,3.87,0,0,0,.88,1.92c1.48,2,2.29,1.46,2.29,1.46L66,21.35Z"/><path class="cls-8" d="M80.84,3.05,62.23,15.34A2,2,0,0,0,61.3,17a5.31,5.31,0,0,0,.73,2.4,3.84,3.84,0,0,0,2.83,2.24,2.12,2.12,0,0,0,1.33-.26L85.32,10.36Z"/><path class="cls-7" d="M84.47,0,80.25,3a.28.28,0,0,0-.11.3,14.12,14.12,0,0,0,1.58,4,16,16,0,0,0,2.76,3.27.86.86,0,0,0,.92.1l4.44-2.18A70.86,70.86,0,0,1,84.47,0Z"/><path class="cls-9" d="M86.28,4.82c1.49,2.33,3.08,4,3.56,3.67S89.5,6.05,88,3.71,85-.27,84.47,0,84.8,2.48,86.28,4.82Z"/><path class="cls-8" d="M86.25,4.76c.94,1.48,1.87,2.57,2.08,2.43S88,5.75,87,4.27,85.14,1.7,84.93,1.84,85.31,3.28,86.25,4.76Z"/><path class="cls-5" d="M58,27.45c-.72,2.24-2,14.32-2,14.32L45.18,44.11s13.25,4,15.17,1.09c.6-.93,2.75-10.29,2.53-15.89-.07-1.74-2.43-2.72-4.14-2.41l-.19,0A.75.75,0,0,0,58,27.45Z"/><path class="cls-6" d="M58.84,25.41c.08,0,.82-2.42,1.45-2.17s-.39,2.26-.39,2.26Z"/><path class="cls-10" d="M22.17,47.06a5.16,5.16,0,0,1,3.29-3.84c2.84-1,6.17-1.64,13.09-.75a38.44,38.44,0,0,1,5.56,2C43.69,47.8,41.56,66,41.66,67c-3.21,1.43-17.49,1-19.12.19a120.15,120.15,0,0,1-1.12-12.44A39.54,39.54,0,0,1,22.17,47.06Z"/><path class="cls-6" d="M20,69.65s2.17-2.44,3.13-1.91,2.57,1.35,2.46,1.82-1.28-.16-1.28-.16a9.29,9.29,0,0,1,.53,1.29c0,.23-.64.06-.64.06a.58.58,0,0,1-.07.62c-.24.32-.76-.55-1.24-.7s-2.13.71-3.11.46C19.4,71,19.35,70.3,20,69.65Z"/><path class="cls-10" d="M21.21,67.46c-1.31-2.13-9.65-10.85-9.65-10.85l2.54-8.8s-9.34,6.4-8.3,10c.33,1.13,4.5,11.5,9.6,14.54,2.25,1.34,4.79-2.26,5.71-3.88l.11-.18A.85.85,0,0,0,21.21,67.46Z"/><path class="cls-10" d="M28.67,42.34h-.2c-1.46,0-12,2.49-17.4,7.88-5.91,5.88.49,6.38.49,6.38L25,49.48"/><path class="cls-5" d="M35.62,42.16l.29,0c.82.07,1.69.17,2.64.29a38.44,38.44,0,0,1,5.56,2C43.69,47.8,41.56,66,41.66,67c-1.4.62-4.89.88-8.53.92h-.37s.4-11.12.76-14.75C33.79,50.34,35.62,42.16,35.62,42.16Z"/><path class="cls-6" d="M35,38s-1.42,4.34-1.12,4.89a1.57,1.57,0,0,0,2.47.39c.94-1,.75-5,.75-5Z"/><path class="cls-11" d="M34.11,41.13A3.59,3.59,0,0,0,37,41.7a15.06,15.06,0,0,0,.18-2.43l-2.42-.33C34.52,39.57,34.28,40.39,34.11,41.13Z"/><path class="cls-6" d="M39.56,37a7,7,0,0,0-.66-2.26c-.21-.5-.88-1.32-1.42-1.38-1.38-.13-3,1.22-3.29,1.61A2.47,2.47,0,0,0,34,37c.17.61,1.65,3.39,3.57,2.69C39.66,39,39.58,38.25,39.56,37Z"/><path class="cls-2" d="M35.46,40.93a6,6,0,0,1-1.91-2v0a4.47,4.47,0,0,1-.57-.82l-.12-.13H32.8a3.87,3.87,0,0,1-1.7-1.42,4.67,4.67,0,0,1-.13-4.4C31.71,30.6,33,30.23,34.44,30A5.15,5.15,0,0,0,36.35,29c.51-.41.83-1,1.31-1.41a1.88,1.88,0,0,1,.24-.18A1.57,1.57,0,0,1,39.68,27a2.83,2.83,0,0,1,1.59,2.14,3.91,3.91,0,0,1-3.65,4.62c-.35.09-1.16.07-1.5.18a2.68,2.68,0,0,0-2.06,1.74,2.25,2.25,0,0,0,0,1.21l.12.3.06.14A3.76,3.76,0,0,0,35.58,39a2.81,2.81,0,0,0,1.72.55,2.32,2.32,0,0,0,2-1.14,2.42,2.42,0,0,0,.11-1.55,11.8,11.8,0,0,0-.71-2.45,39.3,39.3,0,0,1,2,3.76c.12.3.36,2-1.85,2.74A4.46,4.46,0,0,1,35.46,40.93Z"/><path class="cls-12" d="M35.46,40.93a3.49,3.49,0,0,1-1.11-.88c-.16-.18-.31-.36-.45-.55a6.71,6.71,0,0,1-.43-.58v0l-.59-.82v0L32.78,38l.08,0a.24.24,0,0,1-.16,0l-.12,0-.22-.11a3,3,0,0,1-.42-.27,3.67,3.67,0,0,1-.75-.67,4.3,4.3,0,0,1-.8-1.83,4.86,4.86,0,0,1,.9-3.81A3.68,3.68,0,0,1,33,30.15a6.9,6.9,0,0,1,1-.27,6.19,6.19,0,0,0,.92-.23,4.43,4.43,0,0,0,1.6-.93,10.63,10.63,0,0,1,1.38-1.39l0,0a1.56,1.56,0,0,1,1.12-.54,1.79,1.79,0,0,1,1.17.34,3,3,0,0,1,1.18,2A3,3,0,0,0,40,27.28,1.69,1.69,0,0,0,38.94,27a1.33,1.33,0,0,0-.94.48v0h0A10.4,10.4,0,0,0,36.68,29,4.78,4.78,0,0,1,35,30a7.57,7.57,0,0,1-1,.25,6.8,6.8,0,0,0-.91.26,3.51,3.51,0,0,0-1.51,1A4.48,4.48,0,0,0,30.72,35a4.36,4.36,0,0,0,.7,1.71,3.85,3.85,0,0,0,1.06.91l.2.11.11.06.05,0h0l.09,0,.12.14h0v0l.53.82h0l.38.58c.14.19.27.38.42.56A3.34,3.34,0,0,0,35.46,40.93Z"/><path class="cls-6" d="M31.29,42A3.93,3.93,0,0,0,35,44.6a3.83,3.83,0,0,0,3.87-2.38A59.25,59.25,0,0,0,31.29,42Z"/></g></g></svg>