<svg xmlns="http://www.w3.org/2000/svg" viewBox="0 0 183.13 66.15"><defs><style>.cls-1,.cls-7{fill:#555;}.cls-1,.cls-2,.cls-3,.cls-4,.cls-5,.cls-6{fill-rule:evenodd;}.cls-2,.cls-5{fill:#616161;}.cls-3{fill:#d6d6d6;}.cls-4{fill:#a3a3a3;}.cls-5{stroke:#252525;stroke-miterlimit:3.86;stroke-width:0.19px;}.cls-6{fill:#252525;}.cls-8{fill:none;}</style></defs><g id="Capa_2" data-name="Capa 2"><g id="Contenido"><path class="cls-1" d="M75.18,23c.14.81,0,4.43-3.22,9.26-3.35,5.36,2,14.34,12.74,12.06a21.23,21.23,0,0,0,6.57.94,20.57,20.57,0,0,0,6.57-.94c10.87,2.28,16.1-6.7,12.74-12.06-3.21-4.83-3.35-8.45-3.21-9.26Z"/><path class="cls-2" d="M91.27,45.19C80.68,44.93,78.8,40.1,81.75,39a30.58,30.58,0,0,0,3.89-1.6c-1.07-5.5.67-12.48,5.63-12.48S98,32.19,96.91,37.55c0,0,2.28.8,3.89,1.47C103.64,40.14,101.87,45,91.27,45.19Z"/><path class="cls-3" d="M87.38,41.34c-2.81-7.91-.4-15.15,4-15.15,4.16,0,7,7.11,4,15.15a23.14,23.14,0,0,0-4.16-.26A29.78,29.78,0,0,0,87.38,41.34Z"/><path class="cls-4" d="M91.27,45.37c4.3,0,7.65-.94,7.65-2.15s-3.35-2.14-7.65-2.14-7.64.94-7.64,2.14S87,45.37,91.27,45.37Z"/><path class="cls-5" d="M77.19,26.86h5.1a1.49,1.49,0,0,1,1.47,1.48v3.44a1.49,1.49,0,0,1-1.47,1.48h-5.1a1.49,1.49,0,0,1-1.47-1.48V28.3A1.49,1.49,0,0,1,77.19,26.86Z"/><path class="cls-6" d="M76.66,28.87a1.06,1.06,0,0,1,1-1.07h4a1.06,1.06,0,0,1,1.08,1.05v2.57a1.06,1.06,0,0,1-1,1.07h-4a1,1,0,0,1-1.07-1V28.87Z"/><path class="cls-3" d="M83,30.75c-1.88-.13-2.41-2.28-2.68-2.95h1.47a1.06,1.06,0,0,1,1.08,1.05v1.9Z"/><path class="cls-3" d="M79.34,27.67c-.14.67-.67,2.95-2.68,2.95V28.74a1,1,0,0,1,1-1.07h1.64Z"/><path class="cls-5" d="M100.26,26.86h5.09a1.5,1.5,0,0,1,1.48,1.48v3.44a1.5,1.5,0,0,1-1.48,1.48h-5.09a1.5,1.5,0,0,1-1.48-1.48V28.3A1.5,1.5,0,0,1,100.26,26.86Z"/><path class="cls-6" d="M99.72,28.87a1.06,1.06,0,0,1,1-1.07h4a1.06,1.06,0,0,1,1.07,1.05v2.57a1,1,0,0,1-1,1.07h-4a1.06,1.06,0,0,1-1.08-1V28.87Z"/><path class="cls-3" d="M106,30.75c-1.87-.13-2.41-2.28-2.68-2.95H105a1.06,1.06,0,0,1,1.07,1.05v0Z"/><path class="cls-3" d="M102.4,27.67c-.13.67-.67,2.95-2.68,2.95V28.74a1,1,0,0,1,1-1.07h1.63Z"/><path class="cls-1" d="M101.87,9.7c-.54-1.88-.67-2.82,1.07-2.82h3.76c2.28,0,1.34,1.74,1.07,3.35-.27,2.28-.27,2.95-.27,2.95S101.87,9.83,101.87,9.7Z"/><path class="cls-4" d="M91.27,22.84c-5.49,0-13.14.53-18,.8-3.75.27-6.57-2.54-4.15-5.23,5.23-5.76,18.23-13,22.12-13,4.16,0,16.9,7.24,22.13,13,2.55,2.69,0,5.23-3.75,5.23C105.49,23.64,96.77,22.84,91.27,22.84Z"/><path class="cls-6" d="M94.25,35.71a.75.75,0,0,1,.67-.8c.4,0,.67.27.67.8a.63.63,0,0,1-.59.67h-.08A.72.72,0,0,1,94.25,35.71Z"/><path class="cls-6" d="M91.27,40.81a30.05,30.05,0,0,0-4,.27c-2.68-7.65-.27-14.89,4-14.89s6.57,7.24,4,14.89C95.3,41.17,93.55,40.81,91.27,40.81Zm3.89.67c2.15.4,3.62.94,3.62,1.74,0,1.07-3.35,2-7.51,2s-7.51-.94-7.51-2c0-.67,1.48-1.34,3.62-1.74,0,0,2.42-.27,3.89-.27A18.06,18.06,0,0,1,95.16,41.48Zm.43-.31C98.27,33.26,95.73,26,91.43,26s-7,7.24-4.15,15.15c-2.15.4-3.49,1.07-3.49,1.88a.75.75,0,0,0,.4.67c-3.62-1.61-3.89-4.16-2-4.83l3.76-1.34c-1.08-5.36.53-12.47,5.49-12.47s6.58,7.11,5.5,12.47c0,0,2,.8,3.76,1.34s1.61,3.22-1.88,4.83c.27-.27.4-.4.4-.67C99.05,42.28,97.58,41.61,95.59,41.17Zm6.57-31.51c-.4-1.61-.4-2.42,1.08-2.42h3.21c2.15,0,1.21,1.61,1.08,3.22-.14.94-.14,1.74-.27,2.41-1.77-1.2-3.51-2.23-5.12-3.17ZM98.54,44.25c10.19,1.75,15.16-6.83,11.8-11.93a17.62,17.62,0,0,1-3.22-8.45c-6.7-.4-11.26-.67-15.82-.8s-9.12.4-15.82.8a17.62,17.62,0,0,1-3.22,8.45C69,37.42,74,46,84.06,44.25c-4.29-1.6-4.83-4.42-2.55-5.36l3.89-1.47c-1.07-5.5.8-12.74,5.77-12.74S98,31.92,96.93,37.42c0,0,2.28.8,3.89,1.47,2.52.94,2,3.8-2.3,5.4ZM91.27,22.4c-5.76.13-11.13.53-17.56.93-4,.27-6.17-2.41-3.62-5.09,3.62-4,16.22-12.34,21.18-12.34s17.57,8.32,21.19,12.34c2.55,2.68.27,5.36-3.62,5.09C102.4,23,97,22.57,91.27,22.4Zm10.2-13.28c0-.13-.14-.27-.14-.54a1.54,1.54,0,0,1,.8-2,1.49,1.49,0,0,1,.81-.11h3.76c2.14,0,1.87,1.47,1.6,3a16.4,16.4,0,0,0-.53,3.62s3.08,2.28,4.69,3.62c5.37,4.42,1.88,7.38-3.22,7.11a4.86,4.86,0,0,1-1.47-.14A13.08,13.08,0,0,0,110.58,31c5.9,7-1.87,15.82-12.87,13.27a21,21,0,0,1-6.3.94,21.65,21.65,0,0,1-6.3-.94C74.11,46.67,66.33,38,72.23,31a13.09,13.09,0,0,0,2.82-7.38l-1.48.14c-5.09.27-8.45-2.69-3.22-7.11C78.27,10.06,87.79,5.1,91.41,5.1c1.88.17,5.76,1.65,10.06,4.06Z"/><path class="cls-7" d="M35.49,59.45c2.28.4,7.78.27,7.91-3.22,0-1.48-1.88-2.82-3.62-3.22A10.48,10.48,0,0,0,34,53c-1.34.54-1.74-.8-.53-1.21C35.76,51,45,50.73,45.41,56.23c-.4,5.36-8.31,5-10.19,4.69-.67-.13-1.21-.4-1.21-1.34V55a.81.81,0,0,1,1.61,0Z"/><path class="cls-7" d="M52.52,53.15c-1.75,0-4.83,5.36-5.63,7.37a.89.89,0,0,1-1.21.4.88.88,0,0,1-.4-1.2h0c.94-2.15,4.56-8.45,7.24-8.32s6.3,6.3,7.24,8.32a.9.9,0,0,1-1.61.8C57.35,58.51,54.4,53.15,52.52,53.15Z"/><path class="cls-7" d="M65,59.18c1.74,0,4.83-5.36,5.63-7.38a.9.9,0,0,1,1.61.81c-.94,2.14-4.56,8.45-7.24,8.31s-6.3-6.3-7.24-8.31a.9.9,0,0,1,1.61-.81C60.3,53.82,63.25,59.18,65,59.18Z"/><path class="cls-7" d="M75.32,52.21v7.91a.88.88,0,0,1-1.75,0V52.21a.88.88,0,1,1,1.75,0Z"/><path class="cls-7" d="M83.9,59.18c1.74,0,4.83-5.36,5.63-7.38a.9.9,0,0,1,1.61.81c-.94,2.14-4.56,8.45-7.24,8.31s-6.3-6.3-7.24-8.31a.89.89,0,0,1,.4-1.21.91.91,0,0,1,1.21.4C79.07,53.82,82,59.18,83.9,59.18Z"/><path class="cls-7" d="M97.58,56.9a5.09,5.09,0,0,0,3.48,2.28,10.48,10.48,0,0,0,5.77,0c1.34-.4,1.74.8.54,1.21C105,61.19,96,61.46,95.43,56c.27-5.23,7.51-5.09,10.19-4.69,1.34.13,1.08,1.61-.27,1.34-1.87-.27-6.83-.54-7.77,2.82h5.09c.81,0,.81,1.47,0,1.47Z"/><path class="cls-7" d="M126,59.45c2.28.4,7.77.27,7.91-3.22,0-1.48-1.88-2.82-3.62-3.22a10.48,10.48,0,0,0-5.77,0c-1.34.54-1.74-.8-.54-1.21,2.28-.8,11.54-1.07,11.94,4.43-.4,5.36-8.31,5-10.19,4.69-.67-.13-1.21-.4-1.21-1.34V55a.81.81,0,0,1,1.61,0Z"/><path class="cls-7" d="M143,53.15c-1.75,0-4.83,5.36-5.64,7.37a.89.89,0,1,1-1.6-.8c.93-2.15,4.56-8.45,7.24-8.32s6.3,6.3,7.24,8.32a.9.9,0,0,1-1.61.8C147.89,58.51,144.91,53.15,143,53.15Z"/><path class="cls-7" d="M94.09,52.21v7.91a.87.87,0,1,1-1.74,0V52.21a.87.87,0,1,1,1.74,0Z"/><path class="cls-7" d="M115.55,57.7c-1.08-2-2.28-4.69-3.22-4.69-2,0-1.08,4-1.21,7.24,0,1.08-1.74,1.08-1.74-.13,0-4-.81-8.85,3-8.85,1.07,0,2.14,1.74,3.22,3.22,1.07,2,2.41,4.69,3.21,4.82,2,0,1.08-4,1.08-7.1,0-1.08,1.74-1.08,1.74.13,0,4,.94,8.72-3,8.72C117.69,61.06,116.62,59.31,115.55,57.7Z"/><rect class="cls-8" width="183.13" height="66.15"/></g></g></svg>