<svg xmlns="http://www.w3.org/2000/svg" viewBox="0 0 82.89 98.35"><defs><style>.cls-1{isolation:isolate;}.cls-2{fill:#d07bb5;}.cls-3{fill:#c14f9d;}.cls-4{fill:#fff;}.cls-5{fill:#aacbe8;}.cls-6{fill:#3b2b5b;}.cls-7{fill:#ba2f7d;}.cls-8{fill:none;stroke:#000;stroke-linecap:round;stroke-linejoin:round;stroke-width:0.75px;}.cls-9{fill:#ff97a6;}.cls-10{fill:#30193b;}.cls-11{fill:#99b4dd;}.cls-12{fill:#c95d77;}.cls-13{fill:#7f65c1;}.cls-14{mix-blend-mode:multiply;}.cls-15{fill:#b3b3b3;}.cls-16{fill:#f2f2f2;}</style></defs><g class="cls-1"><g id="Capa_2" data-name="Capa 2"><g id="Contenido"><path class="cls-2" d="M0,95.68H82.87s1.5-75.94-20.46-91.46C30.23-18.53,6.93,56.31,0,95.68Z"/><path class="cls-3" d="M59,94.62c-8.1,0-14.66.83-14.66,1.86S50.85,98.35,59,98.35s14.65-.84,14.65-1.87S67,94.62,59,94.62Z"/><polygon class="cls-4" points="53.44 36.41 25.15 37.7 14.5 47.43 15.37 93.5 53.8 93.86 53.44 36.41"/><polygon class="cls-5" points="49.59 57.56 18.83 58.44 18.78 57.09 49.63 56.12 49.59 57.56"/><polygon class="cls-5" points="49.52 60.27 18.92 61.02 18.87 59.67 49.56 58.86 49.52 60.27"/><polygon class="cls-5" points="45.72 63.04 19.01 63.56 18.96 62.23 45.74 61.64 45.72 63.04"/><polygon class="cls-5" points="49.32 68.25 19.19 68.58 19.14 67.28 49.35 66.88 49.32 68.25"/><polygon class="cls-5" points="49.25 70.86 19.27 71.05 19.23 69.76 49.29 69.5 49.25 70.86"/><polygon class="cls-5" points="45.53 73.44 19.36 73.5 19.32 72.22 45.56 72.11 45.53 73.44"/><polygon class="cls-5" points="26.29 78.36 19.53 78.32 19.49 77.07 26.26 77.09 26.29 78.36"/><polygon class="cls-5" points="26.34 80.77 19.61 80.69 19.57 79.45 26.31 79.51 26.34 80.77"/><polygon class="cls-5" points="26.39 83.15 19.7 83.05 19.65 81.82 26.36 81.9 26.39 83.15"/><polygon class="cls-5" points="33.82 78.41 29.22 78.38 29.2 77.11 33.81 77.13 33.82 78.41"/><polygon class="cls-5" points="33.83 80.85 29.26 80.8 29.24 79.54 33.83 79.58 33.83 80.85"/><polygon class="cls-5" points="33.85 83.26 29.3 83.19 29.28 81.94 33.84 82 33.85 83.26"/><polygon class="cls-5" points="41.23 78.46 36.52 78.43 36.52 77.14 41.25 77.16 41.23 78.46"/><polygon class="cls-5" points="41.21 80.92 36.52 80.87 36.52 79.6 41.22 79.64 41.21 80.92"/><polygon class="cls-5" points="41.19 83.36 36.52 83.3 36.52 82.03 41.2 82.09 41.19 83.36"/><polygon class="cls-5" points="48.84 78.51 44 78.48 44.02 77.17 48.87 77.19 48.84 78.51"/><polygon class="cls-5" points="48.78 81 43.97 80.95 43.98 79.66 48.81 79.7 48.78 81"/><polygon class="cls-5" points="48.72 83.48 43.93 83.41 43.95 82.13 48.75 82.19 48.72 83.48"/><polygon class="cls-6" points="36.47 53.14 18.67 53.8 18.62 52.51 36.47 51.81 36.47 53.14"/><polygon class="cls-5" points="36.49 89.79 19.92 89.36 19.88 88.24 36.49 88.64 36.49 89.79"/><polygon class="cls-7" points="28.05 49.19 18.47 49.62 18.36 46.42 27.62 45.57 28.05 49.19"/><path class="cls-8" d="M21.86,90.37c-.55-3.8-.57-5.22-.3-5.28.51-.12,2,4.73,2.49,4.6s-.27-4.1.11-4.19,1.59,4.36,2.07,4.26,0-4.4.25-4.44.91,4.09,1.64,4.07.76-3.25,1.58-3.32.94,2.6,2.72,3.84c1.56,1.09,3.79.7,5.72,0"/><path class="cls-6" d="M53.62,96c.17-.45,1.26-1,2.13-1.3-.25.19-.49.46-.07.54A3.1,3.1,0,0,0,58,94.56a3,3,0,0,1,.28,1.09C58.31,96.06,53.33,96.71,53.62,96Z"/><path class="cls-9" d="M55.68,95.22c-.42-.08-.18-.35.07-.54.54-.21,1-.37,1.09-.42a.69.69,0,0,0,.32-.4l.27-.08s-.15.4.39.55c.09,0,.13.14.18.23A3.1,3.1,0,0,1,55.68,95.22Z"/><path class="cls-6" d="M65.44,96.57c.18-.45-1.44-1.94-2.06-2.24.18.18.44.55.14.67A1.56,1.56,0,0,1,62,94.37a4.7,4.7,0,0,0-.16,1.16C61.79,96,65,97.61,65.44,96.57Z"/><path class="cls-9" d="M64,95.41c.3-.12-.35-.83-.53-1a3.82,3.82,0,0,0-.7-.45.7.7,0,0,1-.23-.39l-.33-.06a.78.78,0,0,1-.13.6,1.78,1.78,0,0,0-.12.27C62.23,94.83,63.56,95.59,64,95.41Z"/><path class="cls-6" d="M63.48,43.3A10.39,10.39,0,0,1,68,47.8c3,6.09,2.86,13.66,2.39,19.54-.51,6.49-5.27,20.81-6.58,26.1-.18.76-1.88,1.41-2.09.46-.69-3.06,1.51-25.44,1.51-25.44L61.21,54,58.4,94.09S56.62,95,56.56,94c-.42-6.65-5.12-34.95-5.05-38.27.17-8.51,1.39-9,2.11-10.78C54.87,45.27,61.41,44.7,63.48,43.3Z"/><path class="cls-10" d="M63.48,43.3A10.39,10.39,0,0,1,68,47.8c3,6.09,2.86,13.66,2.39,19.54-.51,6.49-5.27,20.81-6.58,26.1a1.33,1.33,0,0,1-.75.76c-.33.16,4-14,4.71-26.19.64-10.34-8.51-23.64-5.75-24.34C63,43.42,62.93,43.67,63.48,43.3Z"/><path class="cls-6" d="M56.65,25.38S57.2,23,60,24c1.57.58,1.68,2.56,1.67,3.27a3.76,3.76,0,0,0,0,.67c.08.65,1.15,1.2,1.59,1.22,1.6.05,3.66.24,4.95,2,2.08,2.82-.33,6.16-3.8,7.91-1.4.7-7.41,1-8.45-.45s-.39.56-2.06-4.6a25,25,0,0,1-.3-6.89C53.9,25.79,55.5,24.38,56.65,25.38Z"/><path class="cls-5" d="M54.29,33.92s-1.11-.68-5-.73c-5.52-.08-6.75,3-6.75,3l2.18,1.15s6.64-2.16,8.1-1.66S54.29,33.92,54.29,33.92Z"/><path class="cls-5" d="M51.15,42.68a.59.59,0,0,0-.1-.67c-1.26-1.26-6.33-6.37-7.15-6.78s-2.59,1.55-1,4.89S48.76,47.44,51.15,42.68Z"/><path class="cls-9" d="M51.31,42.66a3.58,3.58,0,0,1,.7,1.62A3.73,3.73,0,0,1,51.55,46c-.28.06,0-.61,0-.61s-.17.91-.42.77-.1-.5-.1-.5,0,.19-.23,0a2.42,2.42,0,0,1-.18-1.44c.08-.28-.33-1.17-.18-1.74C50.49,42.33,50.92,42.3,51.31,42.66Z"/><path class="cls-5" d="M65.46,44.62c-.22.69-1.63,1.4-3.39,1.52a21.5,21.5,0,0,1-8.45-1.21,12.31,12.31,0,0,0,.22-6,30.69,30.69,0,0,0-2.19-5.57,35.64,35.64,0,0,0,4.22-.13c7.59-.7,9.2,1.44,9.2,1.44s.27,2.15.47,4.59A33.16,33.16,0,0,1,65.46,44.62Z"/><path class="cls-11" d="M61.55,33.24A6,6,0,0,1,67,36.86a69,69,0,0,1,3.37,9l-3.71-2.26s-2.48-7.14-3.78-8A3,3,0,0,1,61.55,33.24Z"/><path class="cls-11" d="M65.17,53.26a.56.56,0,0,1-.3-.6c.3-1.75,1.53-8.84,2-9.66s3-.21,3.62,3.45S69.86,55.8,65.17,53.26Z"/><path class="cls-9" d="M65.88,53.45a3.43,3.43,0,0,0-.4,1.67,3.54,3.54,0,0,0,.74,1.58c.27,0-.11-.59-.11-.59s.32.85.54.66,0-.49,0-.49.07.18.23,0,.07-1.14-.06-1.4.11-1.17-.13-1.7C66.61,53,66.19,53,65.88,53.45Z"/><path class="cls-9" d="M57.47,31a15.15,15.15,0,0,0,.64,2.17c.18.18.64.33.69-.23A7.67,7.67,0,0,0,58,30.82Z"/><path class="cls-12" d="M58.57,32a5.84,5.84,0,0,1-.26-.69l-.68.32.14.6A.52.52,0,0,0,58.57,32Z"/><path class="cls-9" d="M56,30.93A7.22,7.22,0,0,1,55.56,29c0-1,1.48-1.15,1.85-1.17a2.44,2.44,0,0,1,1.22.19c.46.19.58.78.68,1.22a3.27,3.27,0,0,1-.08,1.67,2.08,2.08,0,0,1-1.23.88C56.79,32,56.39,31.72,56,30.93Z"/><path class="cls-11" d="M65.46,44.62c-.59,1.57-3.69,1.57-3.69,1.57a10.8,10.8,0,0,0,1.35-5.76c-.18-3.92-3.19-7.35-3.19-7.35a18.47,18.47,0,0,1,2.84.28,17.19,17.19,0,0,1,2.3,1.27s.27,2.15.47,4.59A33.16,33.16,0,0,1,65.46,44.62Z"/><path class="cls-13" d="M53.57,31.33c-.09-.7-.14-1.39-.17-2.09a10.66,10.66,0,0,1,.1-2.11,3.09,3.09,0,0,1,1.15-1.8,2.08,2.08,0,0,1,1-.41,1.31,1.31,0,0,1,.28,0,1.53,1.53,0,0,1,.29.07l.26.12.23.17-.23.07a2.67,2.67,0,0,1,.54-1,2.15,2.15,0,0,1,1-.63,2.55,2.55,0,0,1,1.13-.06,3.16,3.16,0,0,1,.55.13,2.62,2.62,0,0,1,.53.2,2.34,2.34,0,0,1,.84.75,3.24,3.24,0,0,1,.46,1,5,5,0,0,1,.14,1.09v1.09l0-.54c0-.19,0-.37,0-.55a4.86,4.86,0,0,0-.21-1.06,2.47,2.47,0,0,0-1.26-1.6,3.08,3.08,0,0,0-2-.23,2.09,2.09,0,0,0-1.31,1.46h0a.15.15,0,0,1-.17.1l0,0a1.13,1.13,0,0,0-.87-.31,1.72,1.72,0,0,0-.89.36,2.87,2.87,0,0,0-1.09,1.63,10.88,10.88,0,0,0-.18,2.06C53.52,29.93,53.54,30.63,53.57,31.33Z"/><g class="cls-14"><polygon class="cls-15" points="24.27 47.1 14.5 47.43 25.15 37.7 24.27 47.1"/></g><polygon class="cls-16" points="23.19 46.02 14.5 47.43 25.15 37.7 23.19 46.02"/></g></g></g></svg>