<svg xmlns="http://www.w3.org/2000/svg" viewBox="0 0 57.48 57.47"><defs><style>.cls-1{opacity:0.3;}.cls-2{fill:#141414;}.cls-3{fill:#a3a3a3;}.cls-4{fill:#474747;}.cls-5{fill:#b3b3b3;}.cls-6{fill:#c7c7c7;}</style></defs><g id="Capa_2" data-name="Capa 2"><g id="Contenido"><g class="cls-1"><rect class="cls-2" x="1.12" y="40.12" width="6.68" height="14.15"/><path class="cls-3" d="M50.59,44.75c-1.31-3.07-4.68-1.79-5-1.7l-9,2.5h0a3.77,3.77,0,0,0-2.66-3.49L25,39a7.6,7.6,0,0,0-6.45-3.12c-2.87,0-5.35,2.32-6.48,4.35v1.5h0v8.9c5.07.23,3.61,1.12,12.43,5.09A8.38,8.38,0,0,0,31,55.64h0l17.33-6.2C48.87,49.17,51.72,47.62,50.59,44.75Z"/><path d="M51.64,44.34v0c-1-2.42-3.46-3.32-6.33-2.34l-7.82,2.17A5.12,5.12,0,0,0,34.31,41h0l-8.6-2.92a8.89,8.89,0,0,0-7.15-3.29c-2.94,0-5.53,2-7,4.2H1.12A1.13,1.13,0,0,0,0,40.12V54.27a1.12,1.12,0,0,0,1.12,1.12H7.8a1.12,1.12,0,0,0,1.12-1.12v-1h3.13a1.12,1.12,0,0,0,1.12-1.12v-.32a7.89,7.89,0,0,1,4.1,1.47A69.73,69.73,0,0,0,24,56.77l.05,0a10,10,0,0,0,3.61.68,9,9,0,0,0,3.72-.79l17.29-6.19.09,0C50.43,49.69,52.89,47.55,51.64,44.34Zm-45,8.81H2.25V41.24H6.67Zm4.26-2.09h-2V41.24h2Zm37-2.67L30.6,54.58l-.05,0-.05,0a7.29,7.29,0,0,1-5.59.09,63.67,63.67,0,0,1-6.51-3.33,10.07,10.07,0,0,0-5.23-1.77v-9C14.24,38.82,16.3,37,18.53,37A6.47,6.47,0,0,1,24,39.62a1.12,1.12,0,0,0,.6.47l8.92,3a2.52,2.52,0,0,1,1.83,3,2.16,2.16,0,0,1-1,1.31,2.11,2.11,0,0,1-1.65.2L22.62,44.41A1.12,1.12,0,0,0,22,46.55L32,49.75h0a4.72,4.72,0,0,0,1.22.17,4.44,4.44,0,0,0,4.26-3.22,2.86,2.86,0,0,0,.07-.28L46,44.1c1.21-.42,2.81-.57,3.52,1.07C50.29,47.1,48.38,48.15,47.88,48.39Z"/><polyline class="cls-4" points="26.93 11.09 16.96 1.12 4.46 13.62 25.82 34.99 37.62 23.19"/><path class="cls-5" d="M21,12.8h0a5.22,5.22,0,0,0-3.37,1.53,5.28,5.28,0,1,0,9,3.87"/><path class="cls-5" d="M4.46,13.62,8.7,9.39a6,6,0,0,1,0,8.47Z"/><path class="cls-5" d="M21.58,30.75a6,6,0,0,1,8.48,0L25.82,35Z"/><path class="cls-5" d="M12.72,5.36,17,1.12,21.2,5.36A6,6,0,0,1,12.72,5.36Z"/><path class="cls-5" d="M32.69,20.43a6,6,0,0,0,1.4,6.29l3.53-3.53"/><path class="cls-6" d="M33,3.45a8.33,8.33,0,0,0-6.49.11h0L21.27,5.43l5.4,5.4,5.14,1.81-6.69-2.12A3.31,3.31,0,0,0,21,12.8a3.62,3.62,0,0,0,2.53,4.33l8.94,3h0A7.6,7.6,0,0,0,39,23.28c2.87,0,5.35-2.32,6.48-4.35V8.53C40.36,8.31,41.82,7.41,33,3.45Z"/><rect class="cls-2" x="49.68" y="4.92" width="6.68" height="14.15"/><path d="M56.36,3.8H49.68a1.12,1.12,0,0,0-1.12,1.12v1H45.43A1.13,1.13,0,0,0,44.31,7v.32A8,8,0,0,1,40.2,5.87a65.21,65.21,0,0,0-6.74-3.45l-.05,0a9.54,9.54,0,0,0-7.33.12L21.56,4.14,17.76.33a1.12,1.12,0,0,0-1.59,0L3.67,12.83a1.1,1.1,0,0,0,0,1.59L25,35.78a1.21,1.21,0,0,0,1.59,0L38,24.37c.3,0,.6,0,.92,0,2.94,0,5.53-2,7-4.21h10.4a1.12,1.12,0,0,0,1.12-1.12V4.92A1.12,1.12,0,0,0,56.36,3.8ZM19.81,14.21a5,5,0,0,0,3.36,4h0l2.25.76a4.16,4.16,0,1,1-7-3.84A4.39,4.39,0,0,1,19.81,14.21Zm2.24-4.38a4.48,4.48,0,0,0-1.83,1.93,6.41,6.41,0,0,0-3.35,10.82,6.39,6.39,0,0,0,10.71-2.9L31.37,21a7.18,7.18,0,0,0,1.19,5.69L30,29.22a7.13,7.13,0,0,0-8.35,0L10.22,17.8a7.13,7.13,0,0,0,0-8.35l2.57-2.56A7.09,7.09,0,0,0,17,8.24a7.14,7.14,0,0,0,4.18-1.35l2.43,2.42A4.43,4.43,0,0,0,22.05,9.83ZM34.18,25a4.93,4.93,0,0,1-.72-2.33,8.74,8.74,0,0,0,2,1.07ZM17,2.71l2.56,2.56a4.91,4.91,0,0,1-5.12,0ZM8.61,11.07a4.89,4.89,0,0,1,0,5.11L6.05,13.62ZM25.82,33.4l-2.56-2.56a4.91,4.91,0,0,1,5.12,0ZM39,22.16a8.72,8.72,0,0,1-1.17-.08h0a6.39,6.39,0,0,1-4.16-2.28l-.14-.18a1.16,1.16,0,0,0-.61-.52l-8.93-3a2.53,2.53,0,0,1-1.83-3h0a2.16,2.16,0,0,1,1-1.31,2.2,2.2,0,0,1,1.65-.2l10.05,3.19a1.12,1.12,0,0,0,.68-2.14l-8-2.53L27.46,10h0L23.32,5.89l3.56-1.27,0,0h0l0,0a7.25,7.25,0,0,1,5.59-.1,66.37,66.37,0,0,1,6.52,3.33,10.17,10.17,0,0,0,5.23,1.78v9C43.24,20.38,41.18,22.16,39,22.16Zm7.6-14h2V18h-2ZM55.23,18H50.8V6.05h4.43Z"/></g></g></g></svg>