<svg xmlns="http://www.w3.org/2000/svg" width="345.5039365348505" height="112.35433018833567"><rect id="backgroundrect" width="100%" height="100%" x="0" y="0" fill="none" stroke="none" class="" style=""/><defs><style>.cls-1{fill:none;}.cls-2{fill:#ba2f7d;}.cls-3{fill:#fff;}.cls-4{fill:#54565a;}</style></defs><g class="currentLayer" style=""><title>Layer 1</title><g id="Capa_2" data-name="Capa 2" class=""><g id="Footer"><rect class="cls-1" width="566.3599853515625" height="163.94000244140625" id="svg_1" y="-23.622047066688538" x="-114.1732337474823"/><path class="cls-2" d="M95.59676625251771,73.21795293331147 a22.65,22.65 0 0 1 -22.58,22.58 H27.8267662525177 a22.64,22.64 0 0 1 -22.57,-22.58 V28.06795293331146 A22.64,22.64 0 0 1 27.8267662525177,5.487952933311462 h45.16 a22.65,22.65 0 0 1 22.58,22.58 z" id="svg_2"/><path class="cls-3" d="M58.24676625251769,65.37795293331146 a0.45,0.45 0 0 1 -0.4800000000000003,-0.4800000000000003 V51.37795293331146 c0,-3.71 -1.6900000000000008,-5.8900000000000015 -5.17,-5.8900000000000015 c-3.09,0 -5.3,2.23 -5.3,5.65 V64.90795293331146 A0.46,0.46 0 0 1 46.8267662525177,65.37795293331146 h-3.09 a0.45,0.45 0 0 1 -0.4800000000000003,-0.4800000000000003 V51.37795293331146 c0,-3.71 -1.6900000000000008,-5.8900000000000015 -5.17,-5.8900000000000015 c-3.13,0 -5.3100000000000005,2.23 -5.3100000000000005,5.65 V64.90795293331146 a0.45,0.45 0 0 1 -0.4800000000000003,0.4800000000000003 h-3.09 a0.45,0.45 0 0 1 -0.4800000000000003,-0.4800000000000003 V42.75795293331146 a0.45,0.45 0 0 1 0.4800000000000003,-0.4900000000000003 h3.09 a0.45,0.45 0 0 1 0.4800000000000003,0.4900000000000003 V44.87795293331146 h0 a8.18,8.18 0 0 1 13.23,0.4800000000000003 h0 a8.61,8.61 0 0 1 7.48,-3.62 c5.36,0 8.25,3.43 8.25,8.69 V64.90795293331146 a0.45,0.45 0 0 1 -0.4800000000000003,0.4800000000000003 z" id="svg_3"/><path class="cls-3" d="M68.3567662525177,37.05795293331146 a0.46,0.46 0 0 1 -0.4900000000000003,-0.4800000000000003 V33.047952933311464 a0.46,0.46 0 0 1 0.4900000000000003,-0.4800000000000003 h3.2800000000000002 a0.45,0.45 0 0 1 0.4800000000000003,0.4800000000000003 V36.577952933311465 a0.46,0.46 0 0 1 -0.4800000000000003,0.4800000000000003 zM68.4467662525177,65.37795293331146 a0.45,0.45 0 0 1 -0.4800000000000003,-0.4800000000000003 V42.75795293331146 a0.45,0.45 0 0 1 0.4800000000000003,-0.4900000000000003 h3.09 a0.46,0.46 0 0 1 0.4900000000000003,0.4900000000000003 V64.90795293331146 a0.46,0.46 0 0 1 -0.4900000000000003,0.4800000000000003 z" id="svg_4"/><path class="cls-2" d="M155.72676625251768,84.27795293331147 c4.78,0 7.72,3.13 7.72,8.65 v2.54 c0,5 -2.47,8.72 -7.72,8.72 c-2.54,0 -4.2,-0.81 -5.24,-2.24 v9.26 h-3.09 V84.58795293331146 h3.09 v1.9300000000000002 C151.5267662525177,85.08795293331146 153.1867662525177,84.27795293331147 155.72676625251768,84.27795293331147 zm4.63,11.19 v-2.54 c0,-3.67 -1.77,-5.87 -4.94,-5.87 s-4.93,2.12 -4.93,5.59 v2.8200000000000003 c0,3.3200000000000003 1.3800000000000001,5.94 4.93,5.94 C158.6967662525177,101.37795293331146 160.35676625251767,98.74795293331147 160.35676625251767,95.46795293331147 z" id="svg_5"/><path class="cls-2" d="M182.1867662525177,95.46795293331147 c0,5 -2.47,8.72 -8,8.72 c-5.13,0 -8,-3.4 -8,-8.72 v-2.54 c0,-5.48 3,-8.65 8,-8.65 s8,3.13 8,8.65 zm-3.09,0 v-2.54 c0,-3.67 -1.77,-5.87 -4.93,-5.87 s-4.94,2.24 -4.94,5.87 v2.54 c0,3.3200000000000003 1.3900000000000001,5.94 4.94,5.94 C177.4367662525177,101.37795293331146 179.09676625251768,98.74795293331147 179.09676625251768,95.46795293331147 z" id="svg_6"/><path class="cls-2" d="M185.8267662525177,84.58795293331146 h3.09 v1.8900000000000001 c1,-1.46 2.31,-2.2 5.16,-2.2 c4.13,0 7,2.16 7,7.57 v12 h-3.08 v-12 c0,-3.89 -2.12,-4.74 -4.4,-4.74 a4.49,4.49 0 0 0 -4.7,4.71 v12 H185.8267662525177 z" id="svg_7"/><path class="cls-2" d="M204.04676625251773,84.58795293331146 h2.47 V80.37795293331146 h3.09 v4.24 h4.43 V87.37795293331146 h-4.43 v9.8 c0,2.66 0.3000000000000003,3.7800000000000002 2.89,3.7800000000000002 h1.54 v2.93 h-1.6600000000000001 c-4.55,0 -5.86,-1.9300000000000002 -5.86,-5.94 V87.37795293331146 h-2.47 z" id="svg_8"/><path class="cls-2" d="M231.54676625251773,100.94795293331146 c-1.35,2.35 -3.39,3.24 -6.75,3.24 c-5.17,0 -8.25,-3.36 -8.25,-8.72 v-2.54 c0,-5.48 2.58,-8.65 7.63,-8.65 S231.8267662525177,87.37795293331146 231.8267662525177,92.92795293331146 v2 H219.6267662525177 v0.54 c0,3.3200000000000003 1.58,5.94 4.94,5.94 c2.51,0 3.7800000000000002,-0.7300000000000006 4.59,-2.16 zm-11.92,-8.72 h9.07 c-0.1600000000000008,-3.24 -1.58,-5.17 -4.52,-5.17 S219.8267662525177,89.02795293331147 219.6267662525177,92.22795293331146 z" id="svg_9"/><path class="cls-2" d="M251.40676625251768,92.72795293331146 h4.59 v-2.24 c0,-2.73 -1.27,-3.35 -4.28,-3.35 c-2.31,0 -3.55,0.19000000000000075 -4.63,2 L244.8267662525177,87.48795293331146 c1.35,-2.24 3.31,-3.21 7,-3.21 c4.9,0 7.33,1.59 7.33,6.21 V103.87795293331146 h-3.09 v-1.8900000000000001 c-1.08,1.77 -2.39,2.2 -4.9,2.2 c-4.47,0 -6.9,-2.2 -6.9,-5.94 C244.1967662525177,94.07795293331147 247.16676625251768,92.72795293331146 251.40676625251768,92.72795293331146 zm4.59,2.63 h-4.59 c-3.05,0 -4.13,1 -4.13,3 c0,2.16 1.55,3 3.8200000000000003,3 c2.8600000000000003,0 4.9,-0.54 4.9,-4.86 z" id="svg_10"/><path class="cls-2" d="M263.6667662525177,77.25795293331146 h3.09 v19.91 c0,2.08 0.12000000000000002,3.8600000000000003 3.2800000000000002,3.8600000000000003 v2.85 c-4.86,0 -6.37,-1.9300000000000002 -6.37,-5.94 z" id="svg_11"/><path class="cls-2" d="M295.1067662525177,77.25795293331146 h3.08 V103.87795293331146 h-3.08 v-1.7000000000000002 c-1,1.35 -2.7,2 -5.25,2 c-5.25,0 -7.71,-3.7 -7.71,-8.72 v-2.54 c0,-5.52 2.93,-8.65 7.71,-8.65 c2.55,0 4.21,0.81 5.25,2.24 zm0,18.48 v-2.81 c0,-3.63 -1.78,-5.87 -4.94,-5.87 s-4.94,2.2 -4.94,5.87 v2.54 c0,3.2800000000000002 1.6600000000000001,5.94 4.94,5.94 C293.5967662525177,101.37795293331146 295.1067662525177,98.93795293331146 295.1067662525177,95.73795293331146 z" id="svg_12"/><path class="cls-2" d="M305.8967662525177,75.90795293331146 h3.71 l-3.51,6.1 h-2.9 zm-2.7,8.68 h3.09 V103.87795293331146 h-3.09 z" id="svg_13"/><path class="cls-2" d="M317.5467662525177,92.72795293331146 h4.59 v-2.24 c0,-2.73 -1.27,-3.35 -4.28,-3.35 c-2.31,0 -3.55,0.19000000000000075 -4.63,2 l-2.31,-1.62 c1.35,-2.24 3.31,-3.21 7,-3.21 c4.9,0 7.33,1.59 7.33,6.21 V103.87795293331146 h-3.09 v-1.8900000000000001 c-1.08,1.77 -2.39,2.2 -4.9,2.2 c-4.47,0 -6.9,-2.2 -6.9,-5.94 C310.3367662525177,94.07795293331147 313.3067662525177,92.72795293331146 317.5467662525177,92.72795293331146 zm4.59,2.63 h-4.59 c-3.05,0 -4.13,1 -4.13,3 c0,2.16 1.55,3 3.8200000000000003,3 c2.8600000000000003,0 4.9,-0.54 4.9,-4.86 z" id="svg_14"/><path class="cls-4" d="M124.9167662525177,31.307952933311462 h2.66 V64.71795293331147 h-2.66 v-3 c-1.36,2.23 -3.68,3.24 -7.3100000000000005,3.24 c-6.3,0 -9.45,-4.06 -9.45,-10.7 V50.827952933311465 c0,-6.88 3.44,-10.61 9.45,-10.61 c3.63,0 5.95,1.1600000000000001 7.3100000000000005,3.44 zm0,23.05 V50.86795293331146 c0,-4.94 -1.94,-8.18 -7.12,-8.18 c-4.6,0 -7,2.8600000000000003 -7,8.14 v3.48 c0,5.09 2.27,8.23 7,8.23 C123.21676625251769,62.53795293331146 124.9167662525177,59.107952933311466 124.9167662525177,54.37795293331146 z" id="svg_15"/><path class="cls-4" d="M143.0767662525177,50.967952933311466 h7.07 v-3 c0,-4.12 -1.6400000000000001,-5.23 -6.1,-5.23 c-2.91,0 -4.79,0.19000000000000075 -6.34,2.7600000000000002 l-2,-1.4100000000000001 c1.7000000000000002,-2.85 4.12,-3.87 8.43,-3.87 c5.91,0 8.72,1.84 8.72,7.75 V64.71795293331147 h-2.67 v-3 c-1.35,2.5700000000000003 -3.7800000000000002,3.29 -6.87,3.29 c-5.38,0 -8.43,-2.56 -8.43,-7.21 S138.0867662525177,50.967952933311466 143.0767662525177,50.967952933311466 zM150.1467662525177,53.37795293331146 h-7.07 c-4.16,0 -5.57,1.94 -5.57,4.51 c0,3.39 2.38,4.65 5.77,4.65 c3.92,0 6.87,-1.36 6.87,-6.78 z" id="svg_16"/><path class="cls-4" d="M157.4667662525177,40.50795293331146 h3.1 V35.17795293331146 h2.66 v5.33 h6 V42.97795293331146 h-6 V56.53795293331146 c0,3.87 0.4400000000000014,5.62 4.36,5.62 h1.6 v2.56 h-1.7000000000000002 c-5.37,0 -6.92,-2.42 -6.92,-7.45 V42.97795293331146 h-3.1 z" id="svg_17"/><path class="cls-4" d="M181.04676625251773,50.967952933311466 h7.07 v-3 c0,-4.12 -1.6400000000000001,-5.23 -6.1,-5.23 c-2.91,0 -4.79,0.19000000000000075 -6.34,2.7600000000000002 l-2,-1.4100000000000001 c1.7000000000000002,-2.85 4.12,-3.87 8.43,-3.87 c5.91,0 8.71,1.84 8.71,7.75 V64.71795293331147 h-2.66 v-3 c-1.35,2.5700000000000003 -3.7800000000000002,3.29 -6.87,3.29 c-5.38,0 -8.43,-2.56 -8.43,-7.21 S176.05676625251772,50.967952933311466 181.04676625251773,50.967952933311466 zM188.11676625251772,53.37795293331146 h-7.07 c-4.16,0 -5.57,1.94 -5.57,4.51 c0,3.39 2.38,4.65 5.77,4.65 c3.92,0 6.87,-1.36 6.87,-6.78 z" id="svg_18"/><path class="cls-4" d="M217.0767662525177,61.087952933311456 c-1.6,2.5700000000000003 -4.45,3.92 -8.23,3.92 c-6.49,0 -10.22,-3.87 -10.22,-10.7 V50.827952933311465 c0,-6.88 3.83,-10.61 10.22,-10.61 c3.54,0 6.39,1.26 8.18,3.73 L214.8967662525177,45.37795293331146 A7.3100000000000005,7.3100000000000005 0 0 0 208.8267662525177,42.687952933311465 c-4.79,0 -7.55,2.91 -7.55,8.14 v3.48 c0,4.8 2.22,8.23 7.55,8.23 a6.8100000000000005,6.8100000000000005 0 0 0 6.1,-3 z" id="svg_19"/><path class="cls-4" d="M223.9567662525177,50.147952933311444 V64.71795293331147 h-2.66 V40.50795293331146 h2.66 v3.29 c1,-2.22 3.05,-3.58 6.1,-3.58 a7.9,7.9 0 0 1 6.83,3.34 l-2.23,1.6500000000000008 A5.63,5.63 0 0 0 229.8267662525177,42.73795293331146 C226.03676625251768,42.73795293331146 223.9567662525177,45.73795293331146 223.9567662525177,50.147952933311444 z" id="svg_20"/><path class="cls-4" d="M241.48676625251773,53.297952933311464 v1 c0,4.8 2.23,8.23 7.36,8.23 c3,0 4.94,-0.8700000000000028 6.3,-3 l2.13,1.5 c-1.6900000000000008,2.67 -4.36,3.92 -8.28,3.92 c-6.44,0 -10.17,-4 -10.17,-10.7 V50.827952933311465 c0,-6.88 3.29,-10.61 9.35,-10.61 s9.34,3.73 9.34,10.61 v2.47 zm0,-2.43 H254.8267662525177 v0 c0,-5.28 -2.2800000000000002,-8.14 -6.68,-8.14 s-6.69,2.91 -6.69,8.14 zm8.43,-21.25 h3.2 L248.8267662525177,37.26795293331146 h-2.56 z" id="svg_21"/><path class="cls-4" d="M279.0267662525177,31.307952933311462 h2.66 V64.71795293331147 H279.0267662525177 v-3 c-1.36,2.23 -3.6900000000000004,3.24 -7.32,3.24 c-6.29,0 -9.44,-4.06 -9.44,-10.7 V50.827952933311465 c0,-6.88 3.44,-10.61 9.44,-10.61 c3.63,0 6,1.1600000000000001 7.32,3.44 zm0,23.05 V50.86795293331146 c0,-4.94 -1.94,-8.18 -7.12,-8.18 c-4.6,0 -7,2.8600000000000003 -7,8.14 v3.48 c0,5.09 2.2800000000000002,8.23 7,8.23 C277.3267662525177,62.53795293331146 279.0267662525177,59.107952933311466 279.0267662525177,54.37795293331146 z" id="svg_22"/><path class="cls-4" d="M288.9067662525177,31.307952933311462 h3.24 v3.25 h-3.24 zm0.2900000000000003,9.2 H291.8267662525177 V64.71795293331147 h-2.66 z" id="svg_23"/><path class="cls-4" d="M297.2367662525177,40.50795293331146 h3.1 V35.17795293331146 h2.66 v5.33 h6 V42.97795293331146 h-6 V56.53795293331146 c0,3.87 0.4400000000000014,5.62 4.36,5.62 h1.6 v2.56 h-1.7000000000000002 c-5.37,0 -6.92,-2.42 -6.92,-7.45 V42.97795293331146 h-3.1 z" id="svg_24"/><path class="cls-4" d="M322.8967662525177,65.00795293331146 c-6.24,0 -9.83,-3.87 -9.83,-10.65 V50.827952933311465 c0,-6.88 3.63,-10.61 9.83,-10.61 s9.83,3.73 9.83,10.61 V54.37795293331146 C332.7267662525177,60.947952933311456 329.3867662525177,65.00795293331146 322.8967662525177,65.00795293331146 zm7.17,-14.18 c0,-5.28 -2.5700000000000003,-8.14 -7.17,-8.14 s-7.16,2.8600000000000003 -7.16,8.14 V54.37795293331146 c0,5.09 2.27,8.18 7.16,8.18 c4.7,0 7.17,-3.09 7.17,-8.18 z" id="svg_25"/></g></g></g></svg>