<svg xmlns="http://www.w3.org/2000/svg" xmlns:xlink="http://www.w3.org/1999/xlink" viewBox="0 0 222.74 192.74"><defs><style>.cls-1{fill:none;}.cls-2{isolation:isolate;}.cls-19,.cls-3{opacity:0.5;}.cls-19,.cls-4{fill:#cccbcb;}.cls-5{fill:url(#Degradado_sin_nombre_186);}.cls-6{fill:url(#Degradado_sin_nombre_186-2);}.cls-10,.cls-7,.cls-9{opacity:0.3;}.cls-10,.cls-15,.cls-7,.cls-9{mix-blend-mode:multiply;}.cls-7{fill:url(#linear-gradient);}.cls-8{fill:#d6e6f3;}.cls-9{fill:url(#linear-gradient-2);}.cls-10{fill:url(#linear-gradient-3);}.cls-11{fill:#e6e6e6;}.cls-12{fill:#30193b;}.cls-13{fill:#482f78;}.cls-14{fill:#8865c4;}.cls-15{opacity:0.3;}.cls-16{clip-path:url(#clip-path);}.cls-17{fill:#b3b3b2;}.cls-18{fill:#2c8bd3;}.cls-20{fill:#f39734;}.cls-21{fill:#ef7f19;}.cls-22{fill:#fdca49;}.cls-23{fill:#3b2b5b;}.cls-24{fill:#f194a5;}.cls-25{fill:#aacbe8;}.cls-26{fill:#ffcb48;}.cls-27{fill:#ff9a2e;}.cls-28{fill:#ef7f18;}.cls-29{fill:#e9e6ff;}.cls-30{fill:#d5eaf5;}.cls-31{fill:#ff97a6;}.cls-32{fill:#c95d77;}.cls-33{fill:#9b89e5;}</style><linearGradient id="Degradado_sin_nombre_186" x1="39.84" y1="65.94" x2="173.56" y2="65.94" gradientUnits="userSpaceOnUse"><stop offset="0" stop-color="#a8d9ff"/><stop offset="1" stop-color="#359bdb"/></linearGradient><linearGradient id="Degradado_sin_nombre_186-2" x1="29.22" y1="120.59" x2="184.17" y2="120.59" xlink:href="#Degradado_sin_nombre_186"/><linearGradient id="linear-gradient" x1="29.29" y1="127.04" x2="183.99" y2="132.79" gradientUnits="userSpaceOnUse"><stop offset="0" stop-color="#359bdb"/><stop offset="1" stop-color="#359bdb"/></linearGradient><linearGradient id="linear-gradient-2" x1="51.56" y1="107.17" x2="77.57" y2="108.14" xlink:href="#linear-gradient"/><linearGradient id="linear-gradient-3" x1="134.98" y1="107.17" x2="161" y2="108.14" xlink:href="#linear-gradient"/><clipPath id="clip-path"><rect class="cls-1" x="107.34" y="31.51" width="59.61" height="68.85"/></clipPath></defs><g class="cls-2"><g id="Capa_2" data-name="Capa 2"><g id="Contenido"><rect class="cls-1" width="222.74" height="192.74"/><g class="cls-3"><path class="cls-4" d="M106.7,125.3c-47,0-85,3.74-85,8.35s38.07,8.36,85,8.36,85-3.74,85-8.36-38.08-8.35-85-8.35"/></g><path class="cls-5" d="M168.47,25.12H44.93a5.08,5.08,0,0,0-5.09,5.08v71.47a5.09,5.09,0,0,0,5.09,5.09H168.47a5.09,5.09,0,0,0,5.09-5.09V30.2a5.08,5.08,0,0,0-5.09-5.08"/><path class="cls-6" d="M180.18,132.1l-146.93.53A4,4,0,0,1,30,126.24l11.5-15.49a5.48,5.48,0,0,1,4.38-2.2H168.81a5.46,5.46,0,0,1,4.52,2.39l10.14,14.91a4,4,0,0,1-3.29,6.25"/><path class="cls-7" d="M29.44,127.35a4,4,0,0,0,3.81,5.28l146.93-.53a4,4,0,0,0,3.92-4.75Z"/><polygon class="cls-8" points="174.34 123.46 39.05 123.75 47.51 111.7 166.25 111.7 174.34 123.46"/><rect class="cls-9" x="51.57" y="106.76" width="25.98" height="1.79"/><rect class="cls-10" x="135" y="106.76" width="25.98" height="1.79"/><path class="cls-11" d="M165,31.51H48.43a2,2,0,0,0-2,2V98.37a2,2,0,0,0,2,2H165a2,2,0,0,0,2-2V33.5a2,2,0,0,0-2-2"/><path class="cls-12" d="M122.05,81.57,86.75,84.4c-1.17,0-1.85-.42-1.76-3.71l1.5-23.79a1.69,1.69,0,0,1,1.59-1.12H124.2a1.69,1.69,0,0,1,1.59,2.27l-2.14,22.4a1.71,1.71,0,0,1-1.6,1.12"/><rect class="cls-11" x="95.83" y="49.54" width="21.18" height="29.22" transform="translate(-14.19 94.04) rotate(-45)"/><path class="cls-13" d="M109.26,82.83,87.74,61.31l15.84-15.84L125.11,67ZM89.47,61.31,109.26,81.1,123.37,67,103.58,47.2Z"/><path class="cls-14" d="M123.62,84.58H87.5a1.69,1.69,0,0,1-1.59-2.26L93.54,61a1.69,1.69,0,0,1,1.59-1.12h36.13a1.7,1.7,0,0,1,1.59,2.27l-7.63,21.27a1.7,1.7,0,0,1-1.6,1.12"/><g class="cls-15"><g class="cls-16"><path class="cls-17" d="M165,31.51H107.34v68.85H165a2,2,0,0,0,2-2V33.5a2,2,0,0,0-2-2"/></g></g><path class="cls-18" d="M108.25,28.41a1.56,1.56,0,0,1-3.11,0,1.56,1.56,0,1,1,3.11,0"/><path class="cls-19" d="M42.17,137.52c-12.25,0-22.17,2.64-22.17,5.9s9.92,5.9,22.17,5.9,22.16-2.65,22.16-5.9S54.41,137.52,42.17,137.52Z"/><path class="cls-20" d="M59.14,143.23c0,2.86-7.87,5.19-17.59,5.19S24,146.09,24,143.23c0-.46-.29-2.54.09-3,2-2.22,9.35-2.22,17.51-2.22s15.53-.15,17.44,2.11C59.33,140.56,59.14,142.8,59.14,143.23Z"/><path class="cls-1" d="M59,140.16c-1.91-2.26-9.2-2.11-17.44-2.11S26,138.05,24,140.27c-.38.42-.09,2.5-.09,3a2.56,2.56,0,0,0,1.28,1.94v-3.51h.55v3.87a14.52,14.52,0,0,0,2.87,1.23v-3.53h.56v3.7c.87.25,1.83.47,2.87.67v-3.82h.55v3.92c.91.16,1.87.29,2.87.4v-3.72h.55v3.78c1,.1,2.1.17,3.2.21v-4h.55v4c.57,0,1.16,0,1.75,0l1.35,0v-3.68h.55v3.66c.93,0,1.84-.08,2.72-.15v-3.51h.55v3.47c1.15-.11,2.24-.24,3.27-.41v-3.54h.56v3.45a32.19,32.19,0,0,0,3.67-.86v-3.6h.55v3.42a12.86,12.86,0,0,0,2.79-1.27v-3.72h.55V145a2.32,2.32,0,0,0,1-1.75C59.14,142.8,59.33,140.56,59,140.16Z"/><path class="cls-21" d="M25.23,141.66v3.51a5.81,5.81,0,0,0,.55.36v-3.87Z"/><path class="cls-21" d="M28.65,143.23v3.53l.56.17v-3.7Z"/><path class="cls-21" d="M32.08,143.78v3.82l.55.1v-3.92Z"/><path class="cls-21" d="M35.5,144.38v3.72l.55.06v-3.78Z"/><path class="cls-21" d="M39.25,144.38v4l.55,0v-4Z"/><path class="cls-21" d="M42.9,144.72v3.68l.55,0v-3.66Z"/><path class="cls-21" d="M46.17,144.72v3.51l.55,0v-3.47Z"/><path class="cls-21" d="M50,144.24v3.54l.56-.09v-3.45Z"/><path class="cls-21" d="M54.22,143.23v3.6l.55-.18v-3.42Z"/><path class="cls-21" d="M57.56,141.66v3.72a4.88,4.88,0,0,0,.55-.4v-3.32Z"/><path class="cls-22" d="M59.14,140.63c0,2-5.17,5-17.62,5-14.1,0-17.57-3-17.57-5s7.88-3.6,17.6-3.6S59.14,138.64,59.14,140.63Z"/><path class="cls-20" d="M60.8,137.54c0,2.86-7.88,5.18-17.6,5.18s-17.59-2.32-17.59-5.18c0-.46-.29-2.54.09-3,2-2.22,9.34-2.23,17.5-2.23s15.54-.14,17.45,2.11C61,134.86,60.8,137.1,60.8,137.54Z"/><path class="cls-1" d="M60.65,134.46c-1.91-2.25-9.2-2.11-17.45-2.11s-15.51,0-17.5,2.23c-.38.42-.09,2.5-.09,3a2.57,2.57,0,0,0,1.28,1.94V136h.55v3.88a13.73,13.73,0,0,0,2.87,1.22v-3.52h.55v3.69c.87.25,1.84.48,2.87.67v-3.81h.56V142c.9.16,1.86.3,2.87.41v-3.72h.55v3.77c1,.1,2.09.17,3.19.21v-4h.55v4c.58,0,1.16,0,1.75,0l1.36,0V139h.55v3.66c.93,0,1.84-.08,2.72-.15V139h.55v3.46c1.14-.1,2.24-.24,3.27-.41v-3.53h.55V142a31.69,31.69,0,0,0,3.67-.86v-3.59h.55V141a13,13,0,0,0,2.8-1.27V136h.55v3.33a2.38,2.38,0,0,0,1-1.75C60.8,137.1,61,134.86,60.65,134.46Z"/><path class="cls-21" d="M26.89,136v3.52c.17.12.35.24.55.36V136Z"/><path class="cls-21" d="M30.31,137.54v3.52l.55.17v-3.69Z"/><path class="cls-21" d="M33.73,138.09v3.81l.56.1v-3.91Z"/><path class="cls-21" d="M37.16,138.69v3.72l.55.05v-3.77Z"/><path class="cls-21" d="M40.9,138.69v4l.55,0v-4Z"/><path class="cls-21" d="M44.56,139v3.67h.55V139Z"/><path class="cls-21" d="M47.83,139v3.51l.55,0V139Z"/><path class="cls-21" d="M51.65,138.55v3.53l.55-.09v-3.44Z"/><path class="cls-21" d="M55.87,137.54v3.59l.55-.17v-3.42Z"/><path class="cls-21" d="M59.22,136v3.73c.2-.13.38-.27.55-.4V136Z"/><path class="cls-22" d="M60.8,134.94c0,2-5.17,5-17.62,5-14.1,0-17.57-3-17.57-5s7.88-3.61,17.59-3.61S60.8,133,60.8,134.94Z"/><path class="cls-20" d="M61,132.81c0,2.87-7.88,5.19-17.59,5.19s-17.6-2.32-17.6-5.19c0-.45-.29-2.53.09-3,2-2.22,9.35-2.22,17.51-2.22s15.53-.15,17.44,2.11C61.18,130.14,61,132.38,61,132.81Z"/><path class="cls-1" d="M60.84,129.74c-1.91-2.26-9.2-2.11-17.44-2.11s-15.52,0-17.51,2.22c-.38.43-.09,2.51-.09,3a2.56,2.56,0,0,0,1.28,1.94v-3.51h.55v3.88a14.54,14.54,0,0,0,2.87,1.22v-3.53h.56v3.7c.87.25,1.83.48,2.87.67v-3.82h.55v3.92c.91.16,1.87.3,2.87.4V134h.55v3.78c1,.1,2.1.17,3.2.21v-4h.55v4c.57,0,1.16,0,1.75,0l1.35,0V134.3h.55V138c.93,0,1.84-.08,2.72-.15V134.3h.55v3.47c1.15-.1,2.24-.24,3.27-.41v-3.54h.56v3.45a32.19,32.19,0,0,0,3.67-.86v-3.6h.55v3.42A12.4,12.4,0,0,0,59.41,135v-3.72H60v3.32a2.32,2.32,0,0,0,1-1.75C61,132.38,61.18,130.14,60.84,129.74Z"/><path class="cls-21" d="M27.08,131.24v3.51a5.85,5.85,0,0,0,.55.37v-3.88Z"/><path class="cls-21" d="M30.5,132.81v3.53l.56.17v-3.7Z"/><path class="cls-21" d="M33.93,133.36v3.82l.55.1v-3.92Z"/><path class="cls-21" d="M37.35,134v3.72l.55.06V134Z"/><path class="cls-21" d="M41.1,134v4l.55,0v-4Z"/><path class="cls-21" d="M44.75,134.3V138h.55V134.3Z"/><path class="cls-21" d="M48,134.3v3.52l.55,0V134.3Z"/><path class="cls-21" d="M51.84,133.82v3.54l.56-.09v-3.45Z"/><path class="cls-21" d="M56.07,132.81v3.6l.55-.18v-3.42Z"/><path class="cls-21" d="M59.41,131.24V135a4.88,4.88,0,0,0,.55-.4v-3.32Z"/><path class="cls-22" d="M61,130.22c0,2-5.17,5-17.62,5-14.1,0-17.57-3-17.57-5s7.88-3.61,17.6-3.61S61,128.22,61,130.22Z"/><path class="cls-20" d="M63,127c0,2.87-7.88,5.19-17.6,5.19S27.83,129.86,27.83,127c0-.46-.29-2.54.09-3,2-2.22,9.34-2.22,17.5-2.22s15.54-.15,17.44,2.11C63.2,124.32,63,126.56,63,127Z"/><path class="cls-1" d="M62.86,123.92c-1.9-2.26-9.19-2.11-17.44-2.11s-15.51,0-17.5,2.22c-.38.42-.09,2.5-.09,3a2.53,2.53,0,0,0,1.28,1.94v-3.51h.55v3.87a14,14,0,0,0,2.87,1.23V127h.55v3.7c.87.25,1.84.47,2.87.67v-3.82h.55v3.92c.91.16,1.87.29,2.88.4v-3.72h.55v3.78c1,.1,2.09.17,3.19.21v-4h.55v4c.58,0,1.16,0,1.75,0l1.35,0v-3.68h.56v3.67c.93,0,1.83-.09,2.72-.16v-3.51h.55V132c1.14-.11,2.24-.24,3.27-.41V128h.55v3.45a31.69,31.69,0,0,0,3.67-.86V127h.55v3.42a12.65,12.65,0,0,0,2.79-1.27v-3.72H62v3.32A2.35,2.35,0,0,0,63,127C63,126.56,63.2,124.32,62.86,123.92Z"/><path class="cls-21" d="M29.11,125.42v3.51a4.76,4.76,0,0,0,.55.36v-3.87Z"/><path class="cls-21" d="M32.53,127v3.53l.55.17V127Z"/><path class="cls-21" d="M36,127.54v3.82l.55.1v-3.92Z"/><path class="cls-21" d="M39.38,128.14v3.72l.55.06v-3.78Z"/><path class="cls-21" d="M43.12,128.14v4l.55,0v-4Z"/><path class="cls-21" d="M46.77,128.48v3.68h.56v-3.67Z"/><path class="cls-21" d="M50.05,128.48V132l.55,0v-3.47Z"/><path class="cls-21" d="M53.87,128v3.54l.55-.09V128Z"/><path class="cls-21" d="M58.09,127v3.6l.55-.18V127Z"/><path class="cls-21" d="M61.43,125.42v3.72a5,5,0,0,0,.56-.4v-3.32Z"/><path class="cls-22" d="M63,124.39c0,2-5.17,5-17.63,5-14.09,0-17.56-3-17.56-5s7.88-3.6,17.59-3.6S63,122.4,63,124.39Z"/><path class="cls-20" d="M60.83,121.78c0,2.86-7.88,5.18-17.6,5.18s-17.59-2.32-17.59-5.18c0-.46-.3-2.54.08-3,2-2.22,9.35-2.22,17.51-2.22s15.54-.15,17.44,2.11C61,119.1,60.83,121.34,60.83,121.78Z"/><path class="cls-1" d="M60.67,118.7c-1.9-2.26-9.19-2.11-17.44-2.11s-15.52,0-17.51,2.22c-.38.43-.08,2.51-.08,3a2.53,2.53,0,0,0,1.27,1.93V120.2h.56v3.88a13.5,13.5,0,0,0,2.87,1.22v-3.53h.55v3.7c.87.25,1.84.48,2.87.67v-3.81h.55v3.91c.91.16,1.87.3,2.87.4v-3.71h.56v3.77c1,.1,2.09.17,3.19.21v-4h.55v4c.58,0,1.16,0,1.75,0l1.35,0v-3.68h.56v3.67c.93,0,1.83-.08,2.71-.15v-3.52h.56v3.47c1.14-.1,2.24-.24,3.27-.41v-3.54h.55v3.45a32.19,32.19,0,0,0,3.67-.86v-3.6h.55v3.42a12.4,12.4,0,0,0,2.79-1.27V120.2h.56v3.33a2.38,2.38,0,0,0,1-1.75C60.83,121.34,61,119.1,60.67,118.7Z"/><path class="cls-21" d="M26.91,120.2v3.51a6,6,0,0,0,.56.37V120.2Z"/><path class="cls-21" d="M30.34,121.77v3.53l.55.17v-3.7Z"/><path class="cls-21" d="M33.76,122.33v3.81l.55.1v-3.91Z"/><path class="cls-21" d="M37.18,122.93v3.71l.56.06v-3.77Z"/><path class="cls-21" d="M40.93,122.93v4l.55,0v-4Z"/><path class="cls-21" d="M44.58,123.26v3.68h.56v-3.67Z"/><path class="cls-21" d="M47.85,123.26v3.52l.56,0v-3.47Z"/><path class="cls-21" d="M51.68,122.78v3.54l.55-.09v-3.45Z"/><path class="cls-21" d="M55.9,121.77v3.6l.55-.18v-3.42Z"/><path class="cls-21" d="M59.24,120.2v3.72a6.79,6.79,0,0,0,.56-.39V120.2Z"/><path class="cls-22" d="M60.83,119.18c0,2-5.17,5-17.63,5-14.09,0-17.56-3-17.56-5s7.87-3.61,17.59-3.61S60.83,117.18,60.83,119.18Z"/><path class="cls-20" d="M64.67,117.1c0,2.86-7.87,5.18-17.59,5.18s-17.6-2.32-17.6-5.18c0-.46-.29-2.54.09-3,2-2.22,9.35-2.22,17.51-2.22s15.53-.15,17.44,2.11C64.86,114.43,64.67,116.67,64.67,117.1Z"/><path class="cls-1" d="M64.52,114c-1.91-2.26-9.19-2.11-17.44-2.11s-15.52,0-17.51,2.22c-.38.42-.09,2.5-.09,3A2.56,2.56,0,0,0,30.76,119v-3.52h.55v3.88a14.52,14.52,0,0,0,2.87,1.23V117.1h.56v3.69c.87.26,1.83.48,2.87.68v-3.82h.55v3.92c.91.16,1.87.29,2.87.4v-3.72h.55V122c1,.09,2.1.17,3.2.21v-4h.55v4c.58,0,1.16,0,1.75,0h1.35v-3.68H49v3.66c.93,0,1.84-.08,2.72-.15v-3.51h.55v3.47c1.15-.11,2.24-.24,3.27-.41v-3.54h.56v3.45a32.19,32.19,0,0,0,3.67-.86v-3.6h.55v3.42a12.86,12.86,0,0,0,2.79-1.27v-3.73h.55v3.33a2.34,2.34,0,0,0,1-1.75C64.67,116.67,64.86,114.43,64.52,114Z"/><path class="cls-21" d="M30.76,115.52V119a5.81,5.81,0,0,0,.55.36v-3.88Z"/><path class="cls-21" d="M34.18,117.1v3.53l.56.16V117.1Z"/><path class="cls-21" d="M37.61,117.65v3.82l.55.1v-3.92Z"/><path class="cls-21" d="M41,118.25V122l.55.06v-3.78Z"/><path class="cls-21" d="M44.78,118.25v4l.55,0v-4Z"/><path class="cls-21" d="M48.43,118.59v3.68l.55,0v-3.66Z"/><path class="cls-21" d="M51.7,118.59v3.51l.55,0v-3.47Z"/><path class="cls-21" d="M55.52,118.11v3.54l.56-.09v-3.45Z"/><path class="cls-21" d="M59.75,117.1v3.6l.55-.18V117.1Z"/><path class="cls-21" d="M63.09,115.52v3.73a4.88,4.88,0,0,0,.55-.4v-3.33Z"/><path class="cls-22" d="M64.67,114.5c0,2-5.17,5-17.62,5-14.1,0-17.57-3-17.57-5s7.88-3.6,17.6-3.6S64.67,112.51,64.67,114.5Z"/><path class="cls-20" d="M62.65,112.28c0,2.86-7.88,5.18-17.6,5.18s-17.59-2.32-17.59-5.18c0-.46-.29-2.54.09-3,2-2.22,9.34-2.22,17.5-2.22s15.54-.15,17.45,2.11C62.84,109.61,62.65,111.85,62.65,112.28Z"/><path class="cls-1" d="M62.5,109.21c-1.91-2.26-9.2-2.11-17.45-2.11s-15.51,0-17.5,2.22c-.38.42-.09,2.5-.09,3a2.53,2.53,0,0,0,1.28,1.94V110.7h.55v3.88a14,14,0,0,0,2.87,1.23v-3.53h.55V116c.87.26,1.84.48,2.87.68v-3.82h.56v3.92c.9.16,1.86.29,2.87.4v-3.72h.55v3.77c1,.1,2.09.18,3.19.22v-4h.55v4c.58,0,1.16,0,1.75,0h1.36v-3.68H47v3.66c.93,0,1.84-.08,2.72-.15v-3.51h.55v3.47c1.14-.11,2.24-.24,3.27-.41v-3.54h.55v3.44a29.84,29.84,0,0,0,3.67-.85v-3.6h.55v3.42a13,13,0,0,0,2.8-1.27V110.7h.55V114a2.38,2.38,0,0,0,1-1.75C62.65,111.85,62.84,109.61,62.5,109.21Z"/><path class="cls-21" d="M28.74,110.7v3.52c.17.12.35.24.55.36V110.7Z"/><path class="cls-21" d="M32.16,112.28v3.53l.55.16v-3.69Z"/><path class="cls-21" d="M35.58,112.83v3.82l.56.1v-3.92Z"/><path class="cls-21" d="M39,113.43v3.72l.55,0v-3.77Z"/><path class="cls-21" d="M42.75,113.43v4l.55,0v-4Z"/><path class="cls-21" d="M46.41,113.77v3.68l.55,0v-3.66Z"/><path class="cls-21" d="M49.68,113.77v3.51l.55,0v-3.47Z"/><path class="cls-21" d="M53.5,113.29v3.54l.55-.1v-3.44Z"/><path class="cls-21" d="M57.72,112.28v3.6l.55-.18v-3.42Z"/><path class="cls-21" d="M61.07,110.7v3.73a6,6,0,0,0,.55-.4V110.7Z"/><path class="cls-22" d="M62.65,109.68c0,2-5.17,5-17.62,5-14.1,0-17.57-3-17.57-5s7.88-3.61,17.59-3.61S62.65,107.69,62.65,109.68Z"/><path class="cls-20" d="M45.18,114c-7.28.06-13.83-1.15-15.28-3-1.63-2,3.83-4.06,12.18-4.51s16.46.84,18.1,2.87h0c.79,1,0,2-2.34,2.84A36,36,0,0,1,48,113.93Q46.58,114,45.18,114Zm-.28-7c-.8,0-1.61,0-2.42.08-7.2.39-11.9,2.13-10.49,3.89s8.41,2.88,15.61,2.49A31.13,31.13,0,0,0,56.07,112c2-.74,2.7-1.62,2-2.47h0C56.84,108,51.18,106.93,44.9,107Z"/><path class="cls-20" d="M50.3,108.79c-.36-.43-1.83-.82-3.53-1a21.84,21.84,0,0,0-4.21.12,21.22,21.22,0,0,0-3.84.68c-1.15.36-.71.79.3,1.13a15,15,0,0,0,4.24.59,59.06,59.06,0,0,1,6.06.25c3.16.41,1.65,1.39-1.75,1.5-2.83.1-6.22-.19-6.35-1a4.12,4.12,0,0,0-1.75.16c.19,1.11,5.87,1.26,9.39.92a10.12,10.12,0,0,0,3.81-.86c.61-.47-.46-.85-2.16-1s-3.63-.17-5.48-.21c-2.4,0-4.42-.35-5.12-.94S41.67,108.05,44,108s4.21.52,4.62,1c.07.09,1.84-.07,1.72-.21Z"/><path class="cls-20" d="M40.55,107.62l4.2,5.72c.08.1,1.84-.06,1.73-.21l-4.2-5.71c-.08-.11-1.84,0-1.73.2Z"/><path class="cls-20" d="M43.33,107.38l4.2,5.71c.08.11,1.84,0,1.73-.2l-4.2-5.72c-.08-.1-1.84.06-1.73.21Z"/><g class="cls-3"><path class="cls-4" d="M159.88,146.16c0,1.8,11.47,3.26,25.61,3.26s25.6-1.46,25.6-3.26-11.46-3.26-25.6-3.26-25.61,1.46-25.61,3.26"/></g><path class="cls-23" d="M167.59,145.19c-.24-1.44,1.77-1,2.93-1.36-.35.21-.7.51-.16.68a4,4,0,0,0,3.07-.52,3.63,3.63,0,0,1,.21,1.43c0,.53-5.88.77-6-.23"/><path class="cls-24" d="M170.36,144.51c-.54-.17-.19-.47.16-.68.73-.2,1.33-.34,1.47-.4a.87.87,0,0,0,.46-.47l.36-.06s.57,1,.62,1.09a4,4,0,0,1-3.07.52"/><path class="cls-23" d="M192.89,145.19c-.25-1.44,1.76-1,2.92-1.36-.35.21-.7.51-.16.68a4.06,4.06,0,0,0,3.08-.52,3.81,3.81,0,0,1,.2,1.43c0,.53-5.87.77-6-.23"/><path class="cls-24" d="M195.65,144.51c-.54-.17-.19-.47.16-.68.73-.2,1.33-.34,1.47-.4a.87.87,0,0,0,.46-.47l.37-.06s.56,1,.62,1.09a4,4,0,0,1-3.08.52"/><path class="cls-12" d="M170.35,108.87c.72-8.59,5.71-31.09,6.91-33a60.87,60.87,0,0,1,9-.13c0,5.64.68,13.41.93,19l-.06-.24-8.2,15.48-6,33.24-.54,0s-2.92-23.89-2-34.41"/><path class="cls-23" d="M186,96.57V75.7l8,.45s5.37,5.48,5.92,9.54,0,21,0,21c-.13,14.81-.76,31.78-1.36,36.22,0,.46-1.3.74-1.7,0-.49-4.92-3.75-23-6.72-35.59L186,96.56h0Z"/><path class="cls-25" d="M160.35,66.79s9-7.05,12.19-9.39c.74-.53,2.33-2.31,4.74-2.49-.42,1.77-1.59,6.48-1.63,6.2-.72,1.61-6.3,8.18-8.39,9.37-3.11,1.77-6.91-3.69-6.91-3.69"/><path class="cls-24" d="M161.62,52.81c-1.94.24-1.25-1.53-3.13-1.17-1.07.21.14-1.52,2-1.85.49-.08,2,2.62,2,2.62Z"/><path class="cls-26" d="M175.2,47.14a1.06,1.06,0,0,1,.8-.26c.22,0,.36.54.36.83s-.12.8-.32.86a1.84,1.84,0,0,1-.83-.1Z"/><path class="cls-27" d="M169.63,47.27l5.73-.38s.27.07.45.71a1,1,0,0,1-.27,1l-5.92.74Z"/><path class="cls-26" d="M165.38,47.17l4.23-.14a.49.49,0,0,1,.27,0,1.3,1.3,0,0,1,.57,1.1,2,2,0,0,1-.14,1,.63.63,0,0,1-.5.38,40.16,40.16,0,0,0-4.34.74c0,.27-.09-3.15-.09-3.15"/><path class="cls-27" d="M154.43,46.67,166,46.14a1,1,0,0,1,.86.43,3.68,3.68,0,0,1,.46,1.89c.09,2.31-.82,2.36-.82,2.36l-11.72,1.79Z"/><path class="cls-26" d="M133.61,47.88,154,46.13a1.9,1.9,0,0,1,1.65.7,5,5,0,0,1,.84,2.15,3.53,3.53,0,0,1-.77,3.23,1.89,1.89,0,0,1-1.11.57L134.54,55.7Z"/><path class="cls-27" d="M129.27,47.77l4.72-.29a.27.27,0,0,1,.25.15,13.2,13.2,0,0,1,1.16,3.82,15.07,15.07,0,0,1-.13,3.93.78.78,0,0,1-.61.59l-4.44,1a64.15,64.15,0,0,0-.95-9.16"/><path class="cls-28" d="M130.69,52.25c.26,2.53.05,4.63-.47,4.68s-1.15-2-1.41-4.48-.05-4.63.46-4.68,1.16,1.95,1.42,4.48"/><path class="cls-29" d="M130.68,52.19c.17,1.6.12,2.92-.11,3s-.55-1.26-.72-2.86-.11-2.93.12-3,.55,1.26.71,2.86"/><path class="cls-25" d="M162.31,52.29c.93,2.05,3.43,14,3.43,14L171.35,65s-4.28,10.68-9.39,6.37c-.76-.64-3.74-9.58-4.14-15.41-.12-1.82,2-3.66,3.69-3.94l.19,0a.55.55,0,0,1,.61.32"/><path class="cls-24" d="M161,51.8c-.08,0-2.14-1-2.37-.4s1.75,1.16,1.75,1.16Z"/><path class="cls-30" d="M194.86,58a4.75,4.75,0,0,0-3-3.53c-2.61-1-5.67-1.5-12-.69a35.57,35.57,0,0,0-5.12,1.81c.39,3.1,2.34,19.79,2.25,20.78,3,1.31,16.08.89,17.59.18a114.59,114.59,0,0,0,1-11.44,35.56,35.56,0,0,0-.7-7.11"/><path class="cls-30" d="M188.88,53.67h.19c1.35,0,11,2.28,16,7.24,5.44,5.41-.44,5.87-.44,5.87L192.3,60.23"/><path class="cls-25" d="M182.5,53.5l-.27,0c-.75.07-1.56.15-2.42.26a35.57,35.57,0,0,0-5.12,1.81c.39,3.1,2.34,19.79,2.25,20.78,1.29.57,4.5.81,7.85.85h.34s-.37-10.23-.7-13.56C184.18,61,182.5,53.5,182.5,53.5"/><path class="cls-24" d="M196.88,78.78s-2-2.25-2.88-1.76-2.36,1.24-2.26,1.68,1.18-.15,1.18-.15a7.72,7.72,0,0,0-.49,1.19c0,.21.59.05.59.05a.53.53,0,0,0,.06.57c.22.3.7-.5,1.14-.64s2,.65,2.86.42c.33-.09.38-.76-.2-1.36"/><path class="cls-30" d="M195.75,76.77c1.2-2,8.88-10,8.88-10l-2.34-8.1s8.58,5.89,7.63,9.2c-.3,1-4.13,10.58-8.83,13.38-2.06,1.23-4.4-2.08-5.25-3.57l-.1-.17a.76.76,0,0,1,0-.76"/><path class="cls-23" d="M179.92,47.11a3.11,3.11,0,0,1-2.33-.85,1.77,1.77,0,0,1,0-2.18s-2.15-.44-1.3-3.51,4.92-1.65,5.32-.28c0,0,1.94-1.55,2.94.44A2.85,2.85,0,0,1,188,42.78a3,3,0,0,1-1.15,3.64,1.82,1.82,0,0,1-.41,2.18c-2.56,2-6.53-1.49-6.53-1.49"/><path class="cls-31" d="M183.86,49.74s.49,4,.06,4.38a2,2,0,0,1-2.71-.23c-.76-1.06.38-4.38.38-4.38Z"/><path class="cls-32" d="M184.09,52.63a4.78,4.78,0,0,1-3.13-.15,10.78,10.78,0,0,1,.37-2.1l2.63.27c0,.57.12,1.32.13,2"/><path class="cls-31" d="M179.64,46.16c1-1.46,4.29-1,4.87-.65s.66,1.33.69,2-.41,3.61-2.59,4c-4.09.76-3-5.38-3-5.38"/><path class="cls-33" d="M187.5,42.93a3.5,3.5,0,0,0-3.22-1.71s-.6-1.1-1.52-.86a2,2,0,0,0-1.17.6,4.26,4.26,0,0,0-2.89-2.22c1.31,0,2.69.78,2.91,1.55,0,0,1.94-1.55,2.94.44A2.85,2.85,0,0,1,188,42.78a3,3,0,0,1-1.15,3.64,3.18,3.18,0,0,0,.64-3.49"/></g></g></g></svg>