<svg xmlns="http://www.w3.org/2000/svg" xmlns:xlink="http://www.w3.org/1999/xlink" viewBox="0 0 222.74 192.74"><defs><style>.cls-1{fill:none;}.cls-2{isolation:isolate;}.cls-3{opacity:0.5;}.cls-4{fill:#cccbcb;}.cls-5{fill:url(#Degradado_sin_nombre_186);}.cls-6{fill:url(#Degradado_sin_nombre_186-2);}.cls-10,.cls-7,.cls-9{opacity:0.3;}.cls-10,.cls-12,.cls-16,.cls-7,.cls-9{mix-blend-mode:multiply;}.cls-7{fill:url(#Degradado_sin_nombre_11);}.cls-8{fill:#d6e6f3;}.cls-9{fill:url(#linear-gradient);}.cls-10{fill:url(#linear-gradient-2);}.cls-11{fill:#e6e6e6;}.cls-12{opacity:0.3;}.cls-13{clip-path:url(#clip-path);}.cls-14{fill:#b3b3b2;}.cls-15{fill:#2c8bd3;}.cls-17{fill:#ccc;}.cls-18{fill:#30183a;}.cls-19{fill:#f194a5;}.cls-20{fill:#3b2b5b;}.cls-21{fill:#9b89e5;}.cls-22{fill:#aacbe8;}.cls-23{fill:#c9c9c9;}.cls-24{fill:#c85d77;}.cls-25{fill:#7964a8;}.cls-26{fill:#f39734;}.cls-27{fill:#fdca49;}.cls-28{fill:#ef7f19;}.cls-29{fill:#ffcb48;}.cls-30{fill:#d5eaf5;}</style><linearGradient id="Degradado_sin_nombre_186" x1="44.51" y1="69.64" x2="178.23" y2="69.64" gradientUnits="userSpaceOnUse"><stop offset="0" stop-color="#a8d9ff"/><stop offset="1" stop-color="#359bdb"/></linearGradient><linearGradient id="Degradado_sin_nombre_186-2" x1="33.9" y1="124.29" x2="188.84" y2="124.29" xlink:href="#Degradado_sin_nombre_186"/><linearGradient id="Degradado_sin_nombre_11" x1="33.96" y1="130.74" x2="188.67" y2="136.5" gradientUnits="userSpaceOnUse"><stop offset="0" stop-color="#359bdb"/><stop offset="1" stop-color="#359bdb"/></linearGradient><linearGradient id="linear-gradient" x1="56.23" y1="110.87" x2="82.24" y2="111.84" xlink:href="#Degradado_sin_nombre_11"/><linearGradient id="linear-gradient-2" x1="139.66" y1="110.87" x2="165.67" y2="111.84" xlink:href="#Degradado_sin_nombre_11"/><clipPath id="clip-path"><rect class="cls-1" x="112.01" y="35.21" width="59.61" height="68.85"/></clipPath></defs><g class="cls-2"><g id="Capa_2" data-name="Capa 2"><g id="Contenido"><rect class="cls-1" width="222.74" height="192.74"/><g class="cls-3"><path class="cls-4" d="M111.37,129c-47,0-85,3.74-85,8.35s38.08,8.35,85,8.35,85-3.74,85-8.35-38.07-8.35-85-8.35"/></g><path class="cls-5" d="M173.14,28.82H49.6a5.09,5.09,0,0,0-5.09,5.09v71.46a5.09,5.09,0,0,0,5.09,5.09H173.14a5.09,5.09,0,0,0,5.09-5.09V33.91a5.09,5.09,0,0,0-5.09-5.09"/><path class="cls-6" d="M184.85,135.8l-146.93.53A4,4,0,0,1,34.69,130L46.2,114.46a5.45,5.45,0,0,1,4.38-2.21H173.49a5.48,5.48,0,0,1,4.51,2.39l10.14,14.92a4,4,0,0,1-3.29,6.24"/><path class="cls-7" d="M34.11,131.06a4,4,0,0,0,3.81,5.27l146.93-.53a4,4,0,0,0,3.92-4.74Z"/><polygon class="cls-8" points="179.01 127.16 43.73 127.45 52.18 115.41 170.93 115.41 179.01 127.16"/><rect class="cls-9" x="56.25" y="110.46" width="25.98" height="1.79"/><rect class="cls-10" x="139.67" y="110.46" width="25.98" height="1.79"/><path class="cls-11" d="M169.63,35.22H53.1a2,2,0,0,0-2,2v64.87a2,2,0,0,0,2,2H169.63a2,2,0,0,0,2-2V37.21a2,2,0,0,0-2-2"/><g class="cls-12"><g class="cls-13"><path class="cls-14" d="M169.63,35.22H112v68.85h57.62a2,2,0,0,0,2-2V37.21a2,2,0,0,0-2-2"/></g></g><path class="cls-15" d="M112.93,32.11a1.56,1.56,0,1,1-1.56-1.56,1.56,1.56,0,0,1,1.56,1.56"/><g class="cls-16"><path class="cls-17" d="M158.41,142.27c0,2.07-17.9,3.75-40,3.75s-40-1.68-40-3.75,17.9-3.76,40-3.76,40,1.68,40,3.76"/></g><path class="cls-18" d="M96.78,139.91c0-1.27,1.72-1.18,2.88-1.58-.35.23-.68.57-.13.71a4,4,0,0,0,3.08-.73,3.72,3.72,0,0,1,.28,1.47c0,.54-6.11,1.18-6.11.13"/><path class="cls-19" d="M99.53,139c-.55-.14-.22-.48.13-.71.71-.25,1.32-.43,1.45-.5a.87.87,0,0,0,.44-.51l.36-.09s.64,1,.7,1.08a4,4,0,0,1-3.08.73"/><path class="cls-18" d="M140.69,140.26c.1-1.36-1.76-1.09-2.93-1.43.35.22.7.53.15.7a4,4,0,0,1-3.09-.58,3.85,3.85,0,0,0-.21,1.47c0,.54,6,.88,6.08-.16"/><path class="cls-19" d="M137.91,139.53c.55-.17.2-.48-.15-.7-.73-.22-1.34-.37-1.47-.43a.87.87,0,0,1-.46-.48l-.37-.07s-.58,1-.63,1.11a4,4,0,0,0,3.08.57"/><path class="cls-20" d="M105.34,65.86c0,.18-5,6.47-6,11.31-2.91,14.59.62,52.39,1.62,60.13.14,1,2.28-.19,2.34-1.49.38-8.15,7.86-52.31,7.86-52.31l22.67,54.9,2.38-.44s-1.13-19.69-4.42-35.84c-1.77-8.7-3.3-22.86-12.39-33.74-2.38-.51-10.36-2.81-14-2.52"/><path class="cls-18" d="M105.34,65.86c0,.18-5,6.47-6,11.31-2.91,14.59.62,52.39,1.62,60.13.14,1,2.28-.19,2.34-1.49.38-8.15,7.86-52.31,7.86-52.31l22.67,54.9,1-.18s-6.72-25.65-9.66-34c-3.48-9.89-16.79-38.16-16.79-38.16a18.35,18.35,0,0,0-3-.22"/><path class="cls-21" d="M144.71,81.67c0,5.11,8.83,9.24,19.72,9.24s19.71-4.15,19.71-9.25"/><path class="cls-20" d="M183.34,82.38a.67.67,0,0,0,.24,0,.71.71,0,0,0,.43-.92c-.18-.51-18.72-51.8-18.93-52.43l-.68.23-.59-.42c-.21.31-.21.31.73,2.91l2.14,5.95c1.78,4.91,4.14,11.47,6.51,18l9.48,26.22a.71.71,0,0,0,.67.47"/><path class="cls-20" d="M163.08,31.82a1.25,1.25,0,0,0,.33-2.46c-.28-.07-28.46-7.71-49.38-7.76h-.27c-24.5,0-49.92,7.61-50.18,7.68a1.25,1.25,0,0,0,.73,2.4c.25-.07,25.33-7.58,49.44-7.58H114c20.57,0,48.44,7.59,48.72,7.67a1.24,1.24,0,0,0,.33,0"/><path class="cls-20" d="M160.6,28.18a3.8,3.8,0,1,1,3.8,3.8,3.8,3.8,0,0,1-3.8-3.8m2.15,0a1.65,1.65,0,1,0,1.65-1.65,1.65,1.65,0,0,0-1.65,1.65"/><path class="cls-20" d="M145.45,82.38a.72.72,0,0,0,.68-.47l9.47-26.22,6.51-18,2.15-5.95c.94-2.6.94-2.6.72-2.91l-1.16.83.58-.42-.68-.22c-.22.63-18.75,51.92-18.94,52.43a.72.72,0,0,0,.43.92.67.67,0,0,0,.24,0"/><path class="cls-20" d="M144.71,81.67c0,1.55,8.83,2.8,19.71,2.8s19.72-1.26,19.72-2.81-8.83-2.8-19.72-2.79-19.71,1.26-19.71,2.8"/><path class="cls-21" d="M81.57,81.83c0,5.1-8.83,9.23-19.72,9.23s-19.71-4.14-19.71-9.25Z"/><path class="cls-20" d="M43.61,82.06l9.48-26.22c2.37-6.56,4.73-13.12,6.51-18l2.14-6c.94-2.6.94-2.6.73-2.91l-1.17.83.58-.42-.67-.22c-.22.63-18.75,51.92-18.94,52.44Z"/><path class="cls-20" d="M58.09,28.34a3.8,3.8,0,1,1,3.79,3.79,3.8,3.8,0,0,1-3.79-3.79m2.14,0a1.65,1.65,0,1,0,1.65-1.66,1.65,1.65,0,0,0-1.65,1.66"/><path class="cls-20" d="M80.83,82.54a.69.69,0,0,0,.24-.05.71.71,0,0,0,.43-.91c-.19-.52-18.72-51.81-18.94-52.44l-.67.23L61.3,29c-.22.31-.22.31.72,2.91l2.15,6,6.51,18,9.47,26.22a.73.73,0,0,0,.68.48"/><path class="cls-20" d="M81.57,81.83c0,1.54-8.83,2.79-19.71,2.79s-19.72-1.26-19.72-2.81S51,79,61.86,79s19.71,1.26,19.71,2.81"/><path class="cls-19" d="M133.2,26.83a.36.36,0,0,0,.3-.29,10.39,10.39,0,0,0,.64-1.9,3.21,3.21,0,0,0-.26-1.52,1.51,1.51,0,0,0-1-.65,3.33,3.33,0,0,0-.55,0,.28.28,0,0,0-.26.28,7.57,7.57,0,0,1,.14,2s-.8-.28-1-.16.69,1.12,1,1.41a4.3,4.3,0,0,1,.53.83c0,.17.19,0,.46,0"/><path class="cls-22" d="M128.33,42.15S129,30.9,129.61,29a5,5,0,0,1,2.1-1.88c.51-.25,2-.57,2.48-.21,1.27,1.07.74,13.56-3.08,18.19-2.34,2.84-2.78-3-2.78-3"/><path class="cls-22" d="M120.11,50.78A113.3,113.3,0,0,0,128.28,42s5.77-5,3.82,1c-1.13,3.44-5.89,8.9-9.17,11.69-1.16,1.35-4.4-2.51-2.82-3.9"/><path class="cls-19" d="M93.55,26.71a.35.35,0,0,1-.3-.29,10.62,10.62,0,0,1-.64-1.9A3.25,3.25,0,0,1,92.87,23a1.53,1.53,0,0,1,1-.65,3.21,3.21,0,0,1,.54,0,.26.26,0,0,1,.26.27,7.64,7.64,0,0,0-.14,2s.8-.27,1-.15-.68,1.12-1,1.4a4.13,4.13,0,0,0-.53.84c0,.16-.19,0-.46,0"/><path class="cls-22" d="M98.25,41.77S97.62,30.52,97,28.63a5,5,0,0,0-2.1-1.88c-.51-.25-2.05-.57-2.49-.21-1.26,1.07-.73,13.56,3.09,18.19,2.33,2.83,2.78-3,2.78-3"/><path class="cls-22" d="M106.37,49.11c-4.41-1.93-8.07-7.47-8.07-7.47s-5.77-5-3.82,1c1.13,3.44,5.89,8.9,9.16,11.69,1.17,1.34,4.66-4.34,2.73-5.19"/><path class="cls-11" d="M106.9,49.89c3.23.69,3.3-1.53,11.56.54.83.2,1.55,1.21,2.33,1.68a16.57,16.57,0,0,0,.25,6.54,28.55,28.55,0,0,0-2.15,5.66c-.64,2.35-1.41,7.58-1.41,7.58s-5.7.21-8.45,0c-2.27-.17-6.69-1.43-6.67-2.78a55.41,55.41,0,0,1,1.15-10.65,34.55,34.55,0,0,1,3.39-8.57"/><path class="cls-22" d="M114.92,49.76s-2.28,21.29-.87,27.3a1.54,1.54,0,0,0,1.46,1.2l9.67-.93s-1.38-3.2-2.05-4.42c-.91-1.67-3.36-5.7-3.36-5.7L123,54.13s0-5-1.79-4.37c-2.94,1-3.58.15-6.28,0"/><path class="cls-23" d="M112.8,51.52S109.44,66.87,111.1,72c0,0-6.19,0-8-1.88C101.7,68.67,108.23,50,108.23,50Z"/><path class="cls-22" d="M112,49.84s-6.7,18.12-7.63,27.32a.69.69,0,0,1-1,.55l-4.08-.63,2.84-10.76s.5-6.75.82-8.39c.13-.63.44-2.46.9-4.14C104.1,53,102,51,102,51s3.17-1.91,4.36-1.91a26.58,26.58,0,0,1,5.71.42Z"/><path class="cls-23" d="M114.32,49.51A6.53,6.53,0,0,1,113,50.58l.49,1.67s1.76-.61.87-2.74"/><path class="cls-19" d="M114.29,47.74s.18,2.09-.14,2.45-1.29.72-1.74,0a1,1,0,0,1-.09-.59,7.79,7.79,0,0,1,.54-2.11Z"/><path class="cls-24" d="M114.33,48.78a1.88,1.88,0,0,1-2,.39,4.59,4.59,0,0,1,.29-1.12l1.65,0c0,.37,0,.27,0,.69"/><path class="cls-11" d="M112.35,49.33a1.24,1.24,0,0,0,.19.75,1.13,1.13,0,0,0,.43.5l-1.27,1s-1.22-1,.65-2.29"/><path class="cls-19" d="M113.14,44.05c1.12-.52,3,1,3.17,1.4s-.09,1-.33,1.46-1.57,2-3,1.47c-2.75-1.05.19-4.33.19-4.33"/><path class="cls-20" d="M112,39.46a3.67,3.67,0,0,1,.48-.5.2.2,0,0,1,.32.16c-.22,1.74,2.58,1.47,3.49,2.43a1.75,1.75,0,0,1,.5,1.16,2.45,2.45,0,0,1,1.46,2c0,2.41-3.17,3.15-3.27,3.22a5.82,5.82,0,0,0,.54-1,1.92,1.92,0,0,0-.19-2.21l-.18-.14c-1-.55-2.35-.48-3.25-1.28l-.1-.1c-1.06-1-.53-2.61.2-3.79"/><path class="cls-25" d="M115.32,47.85a5.49,5.49,0,0,0,1.62-.73,4.3,4.3,0,0,0,.69-.59,2.67,2.67,0,0,0,.5-.78,2.41,2.41,0,0,0,0-1.83,2.34,2.34,0,0,0-.51-.79,2.29,2.29,0,0,0-.81-.5l.09.17a1.38,1.38,0,0,0-.12-.76,1.72,1.72,0,0,0-.46-.6,2.34,2.34,0,0,0-.61-.39l-.34-.14-.34-.1h0a6.57,6.57,0,0,1-1.23-.33,3,3,0,0,1-.56-.3,1,1,0,0,1-.4-.48,1,1,0,0,0,.36.53,2.74,2.74,0,0,0,.55.36A5.5,5.5,0,0,0,115,41h0l.33.11.3.14a2.34,2.34,0,0,1,.55.38,1.55,1.55,0,0,1,.37.51,1.13,1.13,0,0,1,.09.59h0a.15.15,0,0,0,.1.16A2,2,0,0,1,117.89,44a2.24,2.24,0,0,1,0,1.63A3,3,0,0,1,116.85,47a6.21,6.21,0,0,1-1.53.86"/><path class="cls-26" d="M48.38,83.69c1.73.09,3.46.17,5.2.2,4.46,0,8.89.37,13.34.56,1.29,0,2.58.09,3.87.06.71-.45,1.12-1,1.12-1.47,0-.31.2-1.72-.06-2-1.34-1.5-6.3-1.5-11.81-1.5S49.56,79.44,48.27,81c-.23.27-.1,1.78-.1,2.08a1.17,1.17,0,0,0,.21.65"/><path class="cls-27" d="M52.57,84.29c.46,0,8.75.54,12.75.08,5.15-.59,6.59-2,6.59-3.09,0-1.34-5.31-2.43-11.87-2.43s-11.87,1.09-11.87,2.43c0,.8,1.62,2.3,4.4,3"/><path class="cls-26" d="M47.05,79.19c0,1.94,5.31,3.5,11.87,3.5s11.87-1.56,11.87-3.5c0-.31.2-1.71-.05-2-1.35-1.5-6.31-1.5-11.82-1.5s-10.48-.1-11.77,1.42c-.23.27-.1,1.78-.1,2.07"/><path class="cls-28" d="M69.93,78.13V80.5a3.41,3.41,0,0,1-.37.25V78.13Z"/><path class="cls-28" d="M67.62,79.19v2.38l-.37.12v-2.5Z"/><path class="cls-28" d="M65.31,79.57v2.57l-.37.07V79.57Z"/><path class="cls-28" d="M63,80v2.51l-.37,0V80Z"/><path class="cls-28" d="M60.48,80v2.69H60.1V80Z"/><path class="cls-28" d="M58,80.2v2.48h-.37V80.2Z"/><path class="cls-28" d="M55.8,80.2v2.37l-.37,0V80.2Z"/><path class="cls-28" d="M53.22,79.87v2.39l-.37-.06V79.87Z"/><path class="cls-28" d="M50.37,79.19v2.43L50,81.5V79.19Z"/><path class="cls-28" d="M48.12,78.13v2.51a2.81,2.81,0,0,1-.38-.26V78.13Z"/><path class="cls-27" d="M47.05,77.44c0,1.34,3.49,3.38,11.89,3.37,9.51,0,11.85-2,11.85-3.37S65.48,75,58.92,75,47.05,76.1,47.05,77.44"/><path class="cls-26" d="M46.92,76c0,1.93,5.31,3.49,11.87,3.49S70.66,77.94,70.66,76c0-.31.2-1.72,0-2-1.35-1.5-6.31-1.5-11.82-1.5S48.31,72.41,47,73.93c-.23.27-.1,1.78-.1,2.08"/><path class="cls-28" d="M69.8,74.94v2.38l-.37.24V74.94Z"/><path class="cls-28" d="M67.49,76v2.38l-.37.11V76Z"/><path class="cls-28" d="M65.18,76.38V79l-.37.07V76.38Z"/><path class="cls-28" d="M62.87,76.78v2.51l-.37,0V76.78Z"/><path class="cls-28" d="M60.34,76.78v2.69l-.37,0V76.78Z"/><path class="cls-28" d="M57.88,77v2.48h-.37V77Z"/><path class="cls-28" d="M55.67,77v2.37l-.37,0V77Z"/><path class="cls-28" d="M53.09,76.69v2.39L52.72,79V76.69Z"/><path class="cls-28" d="M50.24,76v2.42l-.37-.12V76Z"/><path class="cls-28" d="M48,74.94v2.52a4.17,4.17,0,0,1-.38-.27V74.94Z"/><path class="cls-27" d="M46.92,74.25c0,1.35,3.49,3.39,11.89,3.37,9.51,0,11.85-2,11.85-3.37s-5.31-2.43-11.87-2.43-11.87,1.09-11.87,2.43"/><path class="cls-26" d="M45.55,72.08c0,1.93,5.32,3.5,11.88,3.5S69.3,74,69.3,72.08c0-.31.19-1.71-.06-2-1.34-1.5-6.31-1.5-11.81-1.5S46.94,68.48,45.65,70a6.59,6.59,0,0,0-.1,2.08"/><path class="cls-28" d="M68.44,71v2.38l-.38.24V71Z"/><path class="cls-28" d="M66.13,72.08v2.38l-.38.11V72.08Z"/><path class="cls-28" d="M63.82,72.45V75l-.38.06V72.45Z"/><path class="cls-28" d="M61.51,72.85v2.51l-.38,0V72.85Z"/><path class="cls-28" d="M59,72.85v2.7H58.6V72.85Z"/><path class="cls-28" d="M56.51,73.08v2.49h-.37V73.08Z"/><path class="cls-28" d="M54.31,73.08v2.37l-.38,0V73.08Z"/><path class="cls-28" d="M51.73,72.76v2.39l-.38-.07V72.76Z"/><path class="cls-28" d="M48.88,72.08V74.5l-.38-.11V72.08Z"/><path class="cls-28" d="M46.62,71v2.52a4,4,0,0,1-.37-.27V71Z"/><path class="cls-27" d="M45.55,70.32c0,1.35,3.49,3.39,11.89,3.37,9.52,0,11.86-2,11.86-3.37S64,67.89,57.43,67.89,45.55,69,45.55,70.32"/><path class="cls-26" d="M47,68.56c0,1.93,5.32,3.5,11.87,3.5s11.88-1.57,11.88-3.5c0-.31.19-1.71-.06-2-1.34-1.5-6.31-1.5-11.82-1.5S48.42,65,47.13,66.48c-.23.27-.1,1.79-.1,2.08"/><path class="cls-28" d="M69.91,67.49v2.38a4,4,0,0,1-.37.24V67.49Z"/><path class="cls-28" d="M67.6,68.56v2.38l-.37.11V68.56Z"/><path class="cls-28" d="M65.29,68.93V71.5l-.37.07V68.93Z"/><path class="cls-28" d="M63,69.33v2.51l-.37,0V69.33Z"/><path class="cls-28" d="M60.46,69.33V72l-.38,0V69.33Z"/><path class="cls-28" d="M58,69.56V72h-.37V69.56Z"/><path class="cls-28" d="M55.78,69.56v2.37l-.37,0V69.56Z"/><path class="cls-28" d="M53.2,69.24v2.39l-.37-.07V69.24Z"/><path class="cls-28" d="M50.35,68.56V71L50,70.86v-2.3Z"/><path class="cls-28" d="M48.1,67.49V70a4,4,0,0,1-.37-.27V67.49Z"/><path class="cls-27" d="M47,66.8c0,1.35,3.49,3.39,11.89,3.37,9.51,0,11.86-2,11.86-3.37s-5.32-2.43-11.88-2.43S47,65.46,47,66.8"/><path class="cls-26" d="M44.43,65.4c0,1.94,5.32,3.5,11.88,3.5s11.87-1.56,11.87-3.5c0-.31.2-1.71-.06-2-1.34-1.5-6.31-1.5-11.81-1.5s-10.49-.1-11.77,1.42a6.25,6.25,0,0,0-.11,2.07"/><path class="cls-28" d="M67.32,64.34v2.37L67,67V64.34Z"/><path class="cls-28" d="M65,65.4v2.38l-.38.12V65.4Z"/><path class="cls-28" d="M62.7,65.77v2.58l-.38.07V65.77Z"/><path class="cls-28" d="M60.39,66.18v2.51l-.38,0V66.18Z"/><path class="cls-28" d="M57.86,66.18v2.69h-.37v-2.7Z"/><path class="cls-28" d="M55.4,66.41v2.48H55V66.41Z"/><path class="cls-28" d="M53.19,66.41v2.37l-.38,0V66.41Z"/><path class="cls-28" d="M50.61,66.08v2.39l-.38-.06V66.08Z"/><path class="cls-28" d="M47.76,65.4v2.43l-.38-.12V65.4Z"/><path class="cls-28" d="M45.5,64.34v2.51a2.51,2.51,0,0,1-.37-.27V64.34Z"/><path class="cls-27" d="M44.43,63.65C44.43,65,47.92,67,56.33,67c9.51,0,11.85-2,11.85-3.37s-5.32-2.43-11.87-2.43-11.88,1.09-11.88,2.43"/><path class="cls-26" d="M45.8,62.15c0,1.93,5.32,3.5,11.87,3.5s11.88-1.57,11.88-3.5c0-.31.19-1.71-.06-2-1.34-1.5-6.31-1.5-11.82-1.5s-10.48-.1-11.77,1.42a6.32,6.32,0,0,0-.1,2.08"/><path class="cls-28" d="M68.69,61.09v2.37l-.38.24V61.09Z"/><path class="cls-28" d="M66.37,62.15v2.38l-.37.11V62.15Z"/><path class="cls-28" d="M64.06,62.52V65.1l-.37.07V62.52Z"/><path class="cls-28" d="M61.75,62.93v2.51l-.37,0V62.93Z"/><path class="cls-28" d="M59.23,62.93v2.69h-.38v-2.7Z"/><path class="cls-28" d="M56.76,63.16v2.48h-.37V63.16Z"/><path class="cls-28" d="M54.55,63.16v2.37l-.37,0V63.16Z"/><path class="cls-28" d="M52,62.83v2.39l-.37-.06V62.83Z"/><path class="cls-28" d="M49.12,62.15v2.43l-.37-.12V62.15Z"/><path class="cls-28" d="M46.87,61.09V63.6a4,4,0,0,1-.37-.27V61.09Z"/><path class="cls-27" d="M45.8,60.4c0,1.34,3.49,3.38,11.89,3.36,9.52,0,11.86-2,11.86-3.36S64.23,58,57.67,58,45.8,59.05,45.8,60.4"/><path class="cls-27" d="M73.42,84.36a25.89,25.89,0,0,0,3.7-.68A10.58,10.58,0,0,0,78.59,80a10.22,10.22,0,1,0-20.08-3.8,12,12,0,0,0,2,8.46c2.24.11,10.78,0,12.94-.26"/><path class="cls-26" d="M60.91,84.15l1.85.1a8.53,8.53,0,0,1-2.4-7.74,8.51,8.51,0,0,1,8.27-7,8.66,8.66,0,0,1,1.51.14,8.45,8.45,0,0,1,6.6,10,8.58,8.58,0,0,1-2.52,4.64c.71-.1,1.41-.22,2.1-.37a9.94,9.94,0,0,0,1.73-4,9.67,9.67,0,1,0-19-3.59,9.93,9.93,0,0,0,1.48,7.38c.12.18.25.34.38.51"/><path class="cls-26" d="M65.24,74.37a3.86,3.86,0,0,1,2.21-2.64,3.41,3.41,0,0,1,2.65.21,6,6,0,0,1,2.41,1.69,2.43,2.43,0,0,1-.18,3,3.67,3.67,0,0,1-2.66,1.63c-1.29.2-2.63.12-3.8.8-2,1.16-1,3.67,1.1,3.89,1.78.19,3.91-.64,4-2.7,0-.33,1.1.07,1.09.38-.11,2.93-3.67,3.43-5.88,2.63a3.68,3.68,0,0,1-2.39-2.16,2.27,2.27,0,0,1,1.34-2.77,10.62,10.62,0,0,1,3.44-.67,3.56,3.56,0,0,0,3.2-2.57c.42-1.48-1.11-2.82-2.54-2.88s-2.64,1.45-2.89,2.7c0,.24-1.16-.15-1.09-.5"/><path class="cls-26" d="M69,84.51q1.17-6.7,2.32-13.41c.07-.4-1-.79-1.08-.51q-1.2,6.94-2.41,13.89.58,0,1.17,0"/><path class="cls-26" d="M66.92,84.45h.28q1.2-7,2.41-13.94c.07-.4-1-.78-1.08-.5Q67.29,77.21,66,84.41l.89,0"/><path class="cls-29" d="M186.06,72.57l-6.7-16a2.1,2.1,0,0,0-2.73-1.12L147.15,67.78A2.1,2.1,0,0,0,146,70.51l5.6,13.29s2.39.25,6.63.53c2,.13,5.43.14,5.43.14l21.25-9.17a2.07,2.07,0,0,0,1.12-2.73"/><path class="cls-21" d="M183.91,71.1a3.06,3.06,0,1,1-4-1.64,3.05,3.05,0,0,1,4,1.64"/><polygon class="cls-30" points="160.59 83.68 164.49 82.04 163.91 80.65 156.68 83.68 160.59 83.68"/><rect class="cls-30" x="165.49" y="76.78" width="3.63" height="1.57" transform="translate(-16.97 70.62) rotate(-22.71)"/><rect class="cls-30" x="151.41" y="77.15" width="5.92" height="1.57" transform="translate(-18.12 65.64) rotate(-22.71)"/><rect class="cls-30" x="159.41" y="73.81" width="5.92" height="1.57" transform="translate(-16.21 68.47) rotate(-22.71)"/><rect class="cls-30" x="167.41" y="70.46" width="5.92" height="1.57" transform="translate(-14.3 71.31) rotate(-22.71)"/><rect class="cls-30" x="175.4" y="67.11" width="5.92" height="1.57" transform="translate(-12.38 74.13) rotate(-22.71)"/><rect class="cls-30" x="169.93" y="74.92" width="3.63" height="1.57" transform="translate(-15.91 72.19) rotate(-22.71)"/><rect class="cls-20" x="146.29" y="64.94" width="36.13" height="5.11" transform="translate(-13.31 68.69) rotate(-22.71)"/></g></g></g></svg>