<svg xmlns="http://www.w3.org/2000/svg" xmlns:xlink="http://www.w3.org/1999/xlink" viewBox="0 0 222.74 192.74"><defs><style>.cls-1{fill:none;}.cls-2{isolation:isolate;}.cls-3,.cls-30{opacity:0.5;}.cls-30,.cls-4{fill:#cccbcb;}.cls-5{fill:url(#Degradado_sin_nombre_186);}.cls-6{fill:url(#Degradado_sin_nombre_186-2);}.cls-10,.cls-7,.cls-9{opacity:0.3;}.cls-10,.cls-12,.cls-7,.cls-9{mix-blend-mode:multiply;}.cls-7{fill:url(#linear-gradient);}.cls-8{fill:#d6e6f3;}.cls-9{fill:url(#linear-gradient-2);}.cls-10{fill:url(#linear-gradient-3);}.cls-11{fill:#e6e6e6;}.cls-12{opacity:0.3;}.cls-13{clip-path:url(#clip-path);}.cls-14{fill:#b3b3b2;}.cls-15{fill:#2c8bd3;}.cls-16{fill:#9b89e5;}.cls-17{fill:#ff9a2e;}.cls-18{fill:#ef7f18;}.cls-19{fill:#ffcb48;}.cls-20{fill:#3b2b5b;}.cls-21{fill:#4071a8;}.cls-22{fill:#ff97a6;}.cls-23{fill:#0a498f;}.cls-24{fill:#30193b;}.cls-25{fill:#d5eaf5;}.cls-26{fill:#aacbe8;}.cls-27{fill:#c95d77;}.cls-28{fill:#3a7182;}.cls-29{fill:#fff;}.cls-31{fill:#ff9a19;}.cls-32{fill:#ffcb37;}.cls-33{fill:#331239;}</style><linearGradient id="Degradado_sin_nombre_186" x1="44.51" y1="87.96" x2="178.23" y2="87.96" gradientUnits="userSpaceOnUse"><stop offset="0" stop-color="#a8d9ff"/><stop offset="1" stop-color="#359bdb"/></linearGradient><linearGradient id="Degradado_sin_nombre_186-2" x1="33.9" y1="142.61" x2="188.84" y2="142.61" xlink:href="#Degradado_sin_nombre_186"/><linearGradient id="linear-gradient" x1="33.96" y1="149.06" x2="188.67" y2="154.81" gradientUnits="userSpaceOnUse"><stop offset="0" stop-color="#359bdb"/><stop offset="1" stop-color="#359bdb"/></linearGradient><linearGradient id="linear-gradient-2" x1="56.23" y1="129.19" x2="82.24" y2="130.16" xlink:href="#linear-gradient"/><linearGradient id="linear-gradient-3" x1="139.66" y1="129.19" x2="165.67" y2="130.16" xlink:href="#linear-gradient"/><clipPath id="clip-path"><rect class="cls-1" x="112.01" y="53.53" width="59.61" height="68.85"/></clipPath></defs><g class="cls-2"><g id="Capa_2" data-name="Capa 2"><g id="Contenido"><rect class="cls-1" width="222.74" height="192.74"/><g class="cls-3"><path class="cls-4" d="M111.37,147.32c-47,0-85,3.74-85,8.35s38.08,8.35,85,8.35,85-3.73,85-8.35-38.07-8.35-85-8.35"/></g><path class="cls-5" d="M173.14,47.13H49.6a5.09,5.09,0,0,0-5.09,5.09v71.47a5.09,5.09,0,0,0,5.09,5.09H173.14a5.09,5.09,0,0,0,5.09-5.09V52.22a5.09,5.09,0,0,0-5.09-5.09"/><path class="cls-6" d="M184.85,154.12l-146.93.53a4,4,0,0,1-3.23-6.39L46.2,132.77a5.44,5.44,0,0,1,4.38-2.2H173.49A5.47,5.47,0,0,1,178,133l10.14,14.92a4,4,0,0,1-3.29,6.25"/><path class="cls-7" d="M34.11,149.37a4,4,0,0,0,3.81,5.28l146.93-.53a4,4,0,0,0,3.92-4.75Z"/><polygon class="cls-8" points="179.01 145.48 43.73 145.77 52.18 133.72 170.93 133.72 179.01 145.48"/><rect class="cls-9" x="56.25" y="128.78" width="25.98" height="1.79"/><rect class="cls-10" x="139.67" y="128.78" width="25.98" height="1.79"/><path class="cls-11" d="M169.63,53.53H53.1a2,2,0,0,0-2,2v64.87a2,2,0,0,0,2,2H169.63a2,2,0,0,0,2-2V55.52a2,2,0,0,0-2-2"/><rect class="cls-11" x="100.51" y="71.56" width="21.18" height="29.22" transform="translate(-28.39 103.79) rotate(-45)"/><g class="cls-12"><g class="cls-13"><path class="cls-14" d="M169.63,53.53H112v68.85h57.62a2,2,0,0,0,2-2V55.52a2,2,0,0,0-2-2"/></g></g><path class="cls-15" d="M112.93,50.43a1.56,1.56,0,1,1-1.56-1.56,1.55,1.55,0,0,1,1.56,1.56"/><path class="cls-16" d="M72.58,32.87a2.67,2.67,0,0,0-2.11.83l.1.1s0,0,0,0a2.56,2.56,0,0,0,3,4,2.49,2.49,0,0,0,1.37-1.74,2.47,2.47,0,0,0-2.35-3.18Z"/><path class="cls-16" d="M79.89,37.13a1.64,1.64,0,0,0-1.44-.78A1.61,1.61,0,0,0,77,37.1a1.71,1.71,0,0,0,1.41,2.49,1.58,1.58,0,0,0,1-.43,1.65,1.65,0,0,0,.33-.41A1.62,1.62,0,0,0,79.89,37.13Z"/><path class="cls-16" d="M61.59,17.94A8.58,8.58,0,0,0,55,17.55a6.33,6.33,0,0,0-3.46,3.32,21.69,21.69,0,0,0-2.63-4,10.61,10.61,0,0,0-7.74-4,8.25,8.25,0,0,0-8,6.74,8.14,8.14,0,0,0,1.46,5.9,8,8,0,0,0-5.13,7.18,8,8,0,0,0,5.84,7.62,12.07,12.07,0,0,0,12.21,12,11.08,11.08,0,0,0,6.9-3.07,14.12,14.12,0,0,0,1.33-1.45,11.55,11.55,0,0,0,2.54-8.69,11.41,11.41,0,0,0,9.58-9.16A11.36,11.36,0,0,0,61.59,17.94Z"/><path class="cls-17" d="M52.27,40.77c0,1-2.81,1.85-6.28,1.85s-6.29-.83-6.29-1.85c0-.16-.1-.91,0-1.06.71-.79,3.34-.79,6.26-.79s5.55-.06,6.23.75C52.34,39.81,52.27,40.61,52.27,40.77Z"/><path class="cls-1" d="M52.22,39.67c-.68-.81-3.29-.75-6.23-.75s-5.55,0-6.26.79c-.13.15,0,.9,0,1.06a.9.9,0,0,0,.46.69V40.21h.2v1.38a4.94,4.94,0,0,0,1,.44V40.77h.2v1.32q.47.13,1,.24V41h.2v1.39c.33.06.67.11,1,.15V41.18H44v1.35c.37,0,.75.06,1.14.07V41.18h.2v1.43h1.11V41.3h.2v1.31l1,0V41.3h.19v1.24q.62-.06,1.17-.15V41.13h.2v1.23a10.12,10.12,0,0,0,1.31-.31V40.77h.2V42a5.27,5.27,0,0,0,1-.45V40.21h.19v1.18a.82.82,0,0,0,.37-.62C52.27,40.61,52.34,39.81,52.22,39.67Z"/><path class="cls-18" d="M40.16,40.21v1.25a1,1,0,0,0,.2.13V40.21Z"/><path class="cls-18" d="M41.38,40.77V42l.2.06V40.77Z"/><path class="cls-18" d="M42.6,41v1.36l.2,0V41Z"/><path class="cls-18" d="M43.83,41.18v1.33l.19,0V41.18Z"/><path class="cls-18" d="M45.16,41.18V42.6h.2V41.18Z"/><path class="cls-18" d="M46.47,41.3v1.31h.2V41.3Z"/><path class="cls-18" d="M47.64,41.3v1.26l.19,0V41.3Z"/><path class="cls-18" d="M49,41.13v1.26l.2,0V41.13Z"/><path class="cls-18" d="M50.51,40.77v1.28l.2-.06V40.77Z"/><path class="cls-18" d="M51.71,40.21v1.33l.19-.15V40.21Z"/><path class="cls-19" d="M52.27,39.84c0,.71-1.84,1.79-6.29,1.78-5,0-6.28-1.07-6.28-1.78s2.82-1.29,6.29-1.29S52.27,39.13,52.27,39.84Z"/><path class="cls-17" d="M53.65,39.05c0,1-2.82,1.86-6.29,1.86s-6.28-.83-6.28-1.86c0-.16-.11-.9,0-1,.71-.8,3.34-.8,6.25-.8s5.55-.05,6.23.76A3.32,3.32,0,0,1,53.65,39.05Z"/><path class="cls-1" d="M53.59,38c-.68-.81-3.28-.76-6.23-.76s-5.54,0-6.25.8c-.14.15,0,.89,0,1a.92.92,0,0,0,.45.7V38.49h.2v1.39a5.21,5.21,0,0,0,1,.43V39.05H43v1.32c.31.09.66.17,1,.24V39.25h.2v1.4c.32.06.66.1,1,.14V39.46h.2v1.35c.36,0,.75.06,1.14.08V39.46h.2V40.9h1.1V39.59H48v1.3c.33,0,.66,0,1,0V39.59h.2v1.23c.41,0,.8-.08,1.17-.14V39.41h.19v1.23a10,10,0,0,0,1.32-.3V39.05h.19v1.22a4.08,4.08,0,0,0,1-.45V38.49h.2v1.19a.85.85,0,0,0,.37-.63A3.32,3.32,0,0,0,53.59,38Z"/><path class="cls-18" d="M41.53,38.49v1.26l.2.13V38.49Z"/><path class="cls-18" d="M42.75,39.05v1.26l.2.06V39.05Z"/><path class="cls-18" d="M44,39.25v1.36l.2,0v-1.4Z"/><path class="cls-18" d="M45.2,39.46v1.33l.2,0V39.46Z"/><path class="cls-18" d="M46.54,39.46v1.43h.2V39.46Z"/><path class="cls-18" d="M47.84,39.59V40.9H48v-1.3Z"/><path class="cls-18" d="M49,39.59v1.25l.2,0V39.59Z"/><path class="cls-18" d="M50.38,39.41v1.27l.19,0V39.41Z"/><path class="cls-18" d="M51.89,39.05v1.29l.19-.07V39.05Z"/><path class="cls-18" d="M53.08,38.49v1.33l.2-.14V38.49Z"/><path class="cls-19" d="M53.65,38.13c0,.71-1.85,1.79-6.3,1.78-5,0-6.27-1.07-6.27-1.78s2.81-1.29,6.28-1.29S53.65,37.41,53.65,38.13Z"/><path class="cls-17" d="M52.27,37c0,1-2.81,1.86-6.28,1.86S39.7,38,39.7,37c0-.16-.1-.9,0-1,.71-.8,3.34-.8,6.26-.8s5.55,0,6.23.76C52.34,36,52.27,36.82,52.27,37Z"/><path class="cls-1" d="M52.22,35.88c-.68-.81-3.29-.76-6.23-.76s-5.55,0-6.26.8c-.13.15,0,.89,0,1a.91.91,0,0,0,.46.7V36.41h.2V37.8a5,5,0,0,0,1,.43V37h.2v1.32q.47.14,1,.24V37.17h.2v1.4c.33.06.67.1,1,.14V37.39H44v1.34c.37,0,.75.06,1.14.08V37.39h.2v1.43h1.11V37.51h.2v1.3c.33,0,.65,0,1-.05V37.51h.19v1.23c.41,0,.8-.08,1.17-.14V37.33h.2v1.24a12.09,12.09,0,0,0,1.31-.31V37h.2V38.2a4.7,4.7,0,0,0,1-.46V36.41h.19V37.6a.85.85,0,0,0,.37-.63C52.27,36.82,52.34,36,52.22,35.88Z"/><path class="cls-18" d="M40.16,36.41v1.26l.2.13V36.41Z"/><path class="cls-18" d="M41.38,37v1.26l.2.06V37Z"/><path class="cls-18" d="M42.6,37.17v1.36l.2,0v-1.4Z"/><path class="cls-18" d="M43.83,37.39v1.32l.19,0V37.39Z"/><path class="cls-18" d="M45.16,37.39v1.42h.2V37.39Z"/><path class="cls-18" d="M46.47,37.51v1.31h.2v-1.3Z"/><path class="cls-18" d="M47.64,37.51v1.25l.19,0V37.51Z"/><path class="cls-18" d="M49,37.33V38.6l.2,0V37.33Z"/><path class="cls-18" d="M50.51,37v1.29l.2-.06V37Z"/><path class="cls-18" d="M51.71,36.41v1.33l.19-.14V36.41Z"/><path class="cls-19" d="M52.27,36.05c0,.71-1.84,1.79-6.29,1.78-5,0-6.28-1.07-6.28-1.78s2.82-1.29,6.29-1.29S52.27,35.33,52.27,36.05Z"/><path class="cls-17" d="M51.75,35.26c0,1-2.82,1.85-6.29,1.85s-6.28-.83-6.28-1.85c0-.16-.11-.91,0-1.06.71-.79,3.34-.79,6.25-.79s5.55-.06,6.23.75A3.37,3.37,0,0,1,51.75,35.26Z"/><path class="cls-1" d="M51.69,34.16c-.68-.81-3.28-.75-6.23-.75s-5.54,0-6.25.79c-.14.15,0,.9,0,1.06a.91.91,0,0,0,.45.69V34.7h.2v1.38a5,5,0,0,0,1,.44V35.26h.19v1.32c.32.09.66.17,1,.24V35.46h.2v1.39q.48.09,1,.15V35.67h.2V37c.37,0,.75.06,1.14.07V35.67h.2V37.1h1.1V35.79h.2V37.1l1-.05V35.79h.2V37q.61-.06,1.17-.15V35.62h.2v1.23A10.12,10.12,0,0,0,50,36.54V35.26h.19v1.22a5,5,0,0,0,1-.45V34.7h.2v1.18a.82.82,0,0,0,.37-.62A3.37,3.37,0,0,0,51.69,34.16Z"/><path class="cls-18" d="M39.63,34.7V36a1.37,1.37,0,0,0,.2.13V34.7Z"/><path class="cls-18" d="M40.86,35.26v1.26l.19.06V35.26Z"/><path class="cls-18" d="M42.08,35.46v1.36l.2,0V35.46Z"/><path class="cls-18" d="M43.3,35.67V37l.2,0V35.67Z"/><path class="cls-18" d="M44.64,35.67v1.42h.2V35.67Z"/><path class="cls-18" d="M45.94,35.79V37.1h.2V35.79Z"/><path class="cls-18" d="M47.11,35.79v1.26l.2,0V35.79Z"/><path class="cls-18" d="M48.48,35.62v1.26l.2,0V35.62Z"/><path class="cls-18" d="M50,35.26v1.28l.19-.06V35.26Z"/><path class="cls-18" d="M51.18,34.7V36l.2-.15V34.7Z"/><path class="cls-19" d="M51.75,34.33c0,.71-1.85,1.79-6.3,1.78-5,0-6.27-1.07-6.27-1.78S42,33,45.46,33,51.75,33.62,51.75,34.33Z"/><path class="cls-17" d="M52.27,33.18c0,1-2.81,1.85-6.28,1.85s-6.29-.83-6.29-1.85c0-.16-.1-.91,0-1.06.71-.79,3.34-.79,6.26-.79s5.55,0,6.23.75C52.34,32.22,52.27,33,52.27,33.18Z"/><path class="cls-1" d="M52.22,32.08c-.68-.8-3.29-.75-6.23-.75s-5.55,0-6.26.79c-.13.15,0,.9,0,1.06a.9.9,0,0,0,.46.69V32.62h.2V34a4.94,4.94,0,0,0,1,.44V33.18h.2V34.5q.47.14,1,.24V33.38h.2v1.4l1,.14V33.59H44v1.35c.37,0,.75.06,1.14.07V33.59h.2V35h1.11V33.71h.2V35l1-.05V33.71h.19V35q.62-.06,1.17-.15V33.54h.2v1.23a10.12,10.12,0,0,0,1.31-.31V33.18h.2V34.4a5.27,5.27,0,0,0,1-.45V32.62h.19V33.8a.82.82,0,0,0,.37-.62C52.27,33,52.34,32.22,52.22,32.08Z"/><path class="cls-18" d="M40.16,32.62v1.25a1,1,0,0,0,.2.13V32.62Z"/><path class="cls-18" d="M41.38,33.18v1.26l.2.06V33.18Z"/><path class="cls-18" d="M42.6,33.38v1.36l.2,0v-1.4Z"/><path class="cls-18" d="M43.83,33.59v1.33l.19,0V33.59Z"/><path class="cls-18" d="M45.16,33.59V35h.2V33.59Z"/><path class="cls-18" d="M46.47,33.71V35h.2V33.71Z"/><path class="cls-18" d="M47.64,33.71V35l.19,0V33.71Z"/><path class="cls-18" d="M49,33.54V34.8l.2,0V33.54Z"/><path class="cls-18" d="M50.51,33.18v1.28l.2-.06V33.18Z"/><path class="cls-18" d="M51.71,32.62V34l.19-.15V32.62Z"/><path class="cls-19" d="M52.27,32.25C52.27,33,50.43,34,46,34c-5,0-6.28-1.07-6.28-1.78S42.52,31,46,31,52.27,31.54,52.27,32.25Z"/><path class="cls-17" d="M52.86,31.14c0,1-2.81,1.86-6.28,1.86s-6.29-.83-6.29-1.86c0-.16-.1-.9,0-1.05.72-.8,3.34-.8,6.26-.8s5.55-.05,6.23.76C52.93,30.19,52.86,31,52.86,31.14Z"/><path class="cls-1" d="M52.81,30.05c-.68-.81-3.29-.76-6.23-.76s-5.54,0-6.26.8c-.13.15,0,.89,0,1.05a.94.94,0,0,0,.46.7V30.58H41V32a5,5,0,0,0,1,.43V31.14h.2v1.32c.31.09.66.18,1,.25V31.34h.19v1.4c.33.06.67.11,1,.14V31.56h.2V32.9c.36,0,.74.07,1.14.08V31.56H46V33h1.11V31.68h.2V33c.33,0,.65,0,1-.06V31.68h.2v1.23c.41,0,.8-.08,1.16-.14V31.51h.2v1.23a11.05,11.05,0,0,0,1.31-.31V31.14h.2v1.23a4.7,4.7,0,0,0,1-.46V30.58h.19v1.19a.85.85,0,0,0,.37-.63C52.86,31,52.93,30.19,52.81,30.05Z"/><path class="cls-18" d="M40.75,30.58v1.26L41,32V30.58Z"/><path class="cls-18" d="M42,31.14V32.4l.2.06V31.14Z"/><path class="cls-18" d="M43.2,31.34v1.37l.19,0v-1.4Z"/><path class="cls-18" d="M44.42,31.56v1.32l.2,0V31.56Z"/><path class="cls-18" d="M45.76,31.56V33H46V31.56Z"/><path class="cls-18" d="M47.06,31.68V33h.2V31.68Z"/><path class="cls-18" d="M48.23,31.68v1.25l.2,0V31.68Z"/><path class="cls-18" d="M49.59,31.51v1.26l.2,0V31.51Z"/><path class="cls-18" d="M51.1,31.14v1.29l.2-.06V31.14Z"/><path class="cls-18" d="M52.3,30.58v1.33a.94.94,0,0,0,.19-.14V30.58Z"/><path class="cls-19" d="M52.86,30.22c0,.71-1.84,1.79-6.29,1.78-5,0-6.28-1.07-6.28-1.78s2.82-1.29,6.29-1.29S52.86,29.5,52.86,30.22Z"/><path class="cls-17" d="M52.93,29.46c0,1-2.81,1.85-6.28,1.85s-6.29-.83-6.29-1.85c0-.17-.1-.91,0-1.06.71-.79,3.34-.79,6.26-.79s5.55-.06,6.23.75C53,28.5,52.93,29.3,52.93,29.46Z"/><path class="cls-1" d="M52.88,28.36c-.68-.81-3.29-.75-6.23-.75s-5.55,0-6.26.79c-.13.15,0,.89,0,1.06a.93.93,0,0,0,.46.69V28.89H41v1.39a4.94,4.94,0,0,0,1,.44V29.46h.2v1.32q.46.13,1,.24V29.65h.2v1.4c.33.06.67.11,1,.15V29.87h.19v1.35c.37,0,.75.06,1.14.07V29.87H46V31.3h1.11V30h.2V31.3c.33,0,.65,0,1-.06V30h.2v1.24c.4,0,.8-.09,1.16-.15V29.82h.2v1.23a12.09,12.09,0,0,0,1.31-.31V29.46h.2v1.22a5.27,5.27,0,0,0,1-.45V28.89h.19v1.19a.82.82,0,0,0,.37-.62C52.93,29.3,53,28.5,52.88,28.36Z"/><path class="cls-18" d="M40.82,28.89v1.26a1.74,1.74,0,0,0,.2.13V28.89Z"/><path class="cls-18" d="M42,29.46v1.26l.2.06V29.46Z"/><path class="cls-18" d="M43.26,29.65V31l.2,0v-1.4Z"/><path class="cls-18" d="M44.49,29.87V31.2l.19,0V29.87Z"/><path class="cls-18" d="M45.82,29.87v1.42H46V29.87Z"/><path class="cls-18" d="M47.13,30V31.3h.2V30Z"/><path class="cls-18" d="M48.3,30v1.25h.2V30Z"/><path class="cls-18" d="M49.66,29.82v1.26l.2,0V29.82Z"/><path class="cls-18" d="M51.17,29.46v1.28l.2-.06V29.46Z"/><path class="cls-18" d="M52.37,28.89v1.34l.19-.15V28.89Z"/><path class="cls-19" d="M52.93,28.53c0,.71-1.84,1.79-6.29,1.78-5,0-6.28-1.07-6.28-1.78s2.82-1.29,6.29-1.29S52.93,27.82,52.93,28.53Z"/><path class="cls-17" d="M53.66,27.38c0,1-2.82,1.85-6.29,1.85s-6.28-.83-6.28-1.85c0-.17-.11-.91,0-1.06.71-.79,3.34-.79,6.25-.79s5.55-.06,6.23.75A3.37,3.37,0,0,1,53.66,27.38Z"/><path class="cls-1" d="M53.6,26.28c-.68-.81-3.28-.75-6.23-.75s-5.54,0-6.25.79c-.14.15,0,.89,0,1.06a.91.91,0,0,0,.45.69V26.82h.2V28.2a5.19,5.19,0,0,0,1,.44V27.38H43V28.7c.31.09.66.17,1,.24V27.57h.2V29q.48.09,1,.15V27.79h.2v1.35c.36,0,.75.06,1.14.07V27.79h.2v1.43h1.1V27.91h.2v1.31c.33,0,.66,0,1-.06V27.91h.2v1.24q.62-.06,1.17-.15V27.74h.19V29a11.75,11.75,0,0,0,1.32-.31V27.38h.19V28.6a5,5,0,0,0,1-.45V26.82h.2V28a.82.82,0,0,0,.37-.62A3.37,3.37,0,0,0,53.6,26.28Z"/><path class="cls-18" d="M41.54,26.82v1.25a1.37,1.37,0,0,0,.2.13V26.82Z"/><path class="cls-18" d="M42.76,27.38v1.26l.2.06V27.38Z"/><path class="cls-18" d="M44,27.57v1.37l.2,0v-1.4Z"/><path class="cls-18" d="M45.21,27.79v1.33l.2,0V27.79Z"/><path class="cls-18" d="M46.55,27.79v1.42h.2V27.79Z"/><path class="cls-18" d="M47.85,27.91v1.31h.2V27.91Z"/><path class="cls-18" d="M49,27.91v1.25h.2V27.91Z"/><path class="cls-18" d="M50.39,27.74V29l.19,0V27.74Z"/><path class="cls-18" d="M51.9,27.38v1.28l.19-.06V27.38Z"/><path class="cls-18" d="M53.09,26.82v1.33l.2-.15V26.82Z"/><path class="cls-19" d="M53.66,26.45c0,.71-1.85,1.79-6.3,1.78-5,0-6.27-1.07-6.27-1.78s2.81-1.29,6.28-1.29S53.66,25.74,53.66,26.45Z"/><path class="cls-20" d="M82.72,68.05c1.2-.62,8.5-8.54,3.34-13.61,0,0,.55-1.92-2-3.16s-4.61,1.36-4.8,1.77,2.5,15,3,15Z"/><path class="cls-21" d="M89.49,80c1.48,2,5.14,8.34,5.14,8.34,1.7,3.88-2.81,5-4.56,3.54-3.27-2.7-7-12.62-7-15.85S87,76.75,89.49,80Z"/><path class="cls-22" d="M93.48,91.63a.51.51,0,0,0,0,.45,8.58,8.58,0,0,0,1,1.6s1,1,1.58,1c0,0,.17-.15-.11-.36,0,0,.82.43,1,.24s-.06-.51-.06-.51a.24.24,0,0,0,.24-.26,4.59,4.59,0,0,0-1.55-1.61s.61.3.64.07-1.14-.87-1.56-.83a3.51,3.51,0,0,1-.69-.23C93.93,91.11,93.64,91.39,93.48,91.63Z"/><path class="cls-22" d="M90.51,141.31c.46-.17.14-.42-.17-.6-.64-.15-1.17-.25-1.3-.29a.78.78,0,0,1-.42-.4L88.3,140s-.45.88-.5,1A3.46,3.46,0,0,0,90.51,141.31Z"/><path class="cls-23" d="M93,141.82c0-.47-1.58-.86-2.61-1.11.31.18.63.43.17.6A3.46,3.46,0,0,1,87.8,141a3.39,3.39,0,0,0-.11,1.29C87.72,142.72,93,142.72,93,141.82Z"/><path class="cls-23" d="M66.75,141.15a7.45,7.45,0,0,0-2.36-1.55c.28.23.54.53.06.62a3.45,3.45,0,0,1-2.58-.83,3.15,3.15,0,0,0-.36,1.23C61.47,141.09,66.7,142.05,66.75,141.15Z"/><path class="cls-22" d="M64.45,140.22c.48-.09.22-.39-.06-.62-.6-.26-1.1-.46-1.21-.53a.72.72,0,0,1-.34-.46l-.31-.1s-.6.77-.66.88A3.45,3.45,0,0,0,64.45,140.22Z"/><path class="cls-24" d="M86.26,79.1c.54,1.31-.53,14.67-.53,14.67-.34,1.6-7-1.22-8.38,3.79-1.11,4.12,3.87,10.37,2.79,13.79-1.36,4.35-13.31,23.09-15.49,26.57-.48.77-2.71,1.42-2.77.3s10.2-29.81,10.2-29.81-9.48-25.6,4.6-32.93A44.53,44.53,0,0,1,86.26,79.1Z"/><path class="cls-22" d="M103.63,79.35a.35.35,0,0,0,.17.35,7.64,7.64,0,0,0,1.69.94c.51.15,2,.11,2.15-.12s-.25-.39-.25-.39a.21.21,0,0,0,.11-.29,4.21,4.21,0,0,0-1.86-.78s.61,0,.55-.16-1.26-.32-1.59-.15a3,3,0,0,1-.65,0C103.8,78.77,103.66,79.1,103.63,79.35Z"/><path class="cls-20" d="M86.3,77.69c1,1-2.26,11.15-2.26,11.15s4.55,12.33,5.55,20.2c.58,4.53.72,30.68.72,30.68l-2.39.62-6.19-29s-9-8.45-11.94-18c-1.81-5.84-.13-10.85,3.55-15.6C75.39,77.23,83.12,77.44,86.3,77.69Z"/><path class="cls-25" d="M82.4,61.85c-2.46-.05-5,.65-6.21,3.16-1.32,2.68-.29,4-1.36,9.12-.61,2.91-3.11,5.55-3.42,6.39,1.76.55,3.63,1.65,7.13,2s6.43.33,7.87-.26c0,0,2.6-7.57,2.6-11.59C89,67.05,85.85,61.91,82.4,61.85Z"/><path class="cls-26" d="M81.55,61.86s2,4.62,2.25,7.85-3.59,13.11-3.59,13.11-3.21,5.5-4.92,5.9-7.86-1.52-8.05-2.31,2.9-5.91,4.88-7.74c0,0,3-3.94,2.84-8.43S76.54,62.26,81.55,61.86Z"/><path class="cls-21" d="M87.59,65.66A12.15,12.15,0,0,1,89,73.51c-.64,4.72,0,15.27-.64,15.76a4.79,4.79,0,0,1-2.34.42l.38-7.38a72.58,72.58,0,0,0,1.17-10.47Z"/><path class="cls-26" d="M83.12,61.55a17.33,17.33,0,0,1,4,10.29c.47,6.63.14,4.58.14,4.58s1.46-7.79.67-11.34L87,64.8l.65-.59s-2-3-4.56-2.66"/><path class="cls-22" d="M81.9,59.14a20.73,20.73,0,0,0,.46,3.39c.23.31.93.63,1.14-.2s-.65-3.39-.65-3.39Z"/><path class="cls-27" d="M82.09,61.1c.74-.05,1-.2,1.2-.61a4.3,4.3,0,0,0-.23-.88l-1.16-.56C81.94,59.49,82,60.58,82.09,61.1Z"/><path class="cls-21" d="M82.12,61.38s2.13,6.07,2.08,8.85-2.62,8.55-2.62,8.55-.12-12.11-.75-13.24l1.55-.32-1.69-.63S79.93,62.11,82.12,61.38Z"/><path class="cls-26" d="M76.35,66.89c.77,3.29,5,5.63,10.06,10a23.37,23.37,0,0,0,9.82,5.34c4.12.95,8.12-2.75,8.12-2.75s-1.13-2.68-3.34-3.32-8.72-2.65-11.5-3.2-7.07-5.61-8.93-7.34c-1-.92-1.42-2.32-2.27-2.12S76.13,65.94,76.35,66.89Z"/><path class="cls-22" d="M85.17,58.06a9.57,9.57,0,0,0-.49-2.51,1.51,1.51,0,0,0-1.87-1,9.75,9.75,0,0,0-2.9,1.18c-.49.53-.29,1.39-.16,2a4.81,4.81,0,0,0,1.11,2.19,3,3,0,0,0,2.15.46C84.73,59.93,85.11,59.37,85.17,58.06Z"/><path class="cls-26" d="M88.7,79.27c.11,1.8.09,3.6.08,5.39,0,.9,0,1.8-.09,2.7q0,.67-.09,1.35a.87.87,0,0,1-.29.63,1,1,0,0,1-.64.22,1.12,1.12,0,0,0,.59-.28.75.75,0,0,0,.19-.58c0-.45,0-.9,0-1.35l0-2.69C88.53,82.86,88.56,81.07,88.7,79.27Z"/><path class="cls-21" d="M82.83,74.78a40.21,40.21,0,0,1-3.45-3.33,18,18,0,0,1-2.81-3.86,17.94,17.94,0,0,0,3,3.64,40.26,40.26,0,0,0,3.6,3.07Z"/><path class="cls-20" d="M83,52.69c.13.76,1.86,2.66.77,4a8.4,8.4,0,0,1-3,2.2,5.85,5.85,0,0,1-.6,5.66,4,4,0,0,1-4.64,1.77s1,7.45-4.37,9.47-10.56-2.58-10.28-7.08,2.8-7.91,6.47-7.9a5.53,5.53,0,0,1,6.14-4s.28-7.93,7.09-5.26C80.63,51.57,82.74,50.77,83,52.69Z"/><path class="cls-28" d="M71.21,75.83a7.49,7.49,0,0,1-6.32-.36,8,8,0,0,1-4-5l-.13-.82,0-.84a14.79,14.79,0,0,1,.19-1.63A9.94,9.94,0,0,1,62,64.05a7.08,7.08,0,0,1,2.2-2.48,5.92,5.92,0,0,1,3.19-.94l-.21.16a6.59,6.59,0,0,1,.92-1.86,5.48,5.48,0,0,1,1.47-1.45,4.83,4.83,0,0,1,1.92-.79,6.78,6.78,0,0,1,2.06,0l-.2.16A9.81,9.81,0,0,1,74,54.14a5.45,5.45,0,0,1,1.5-2.28A3.8,3.8,0,0,1,78,51a7.21,7.21,0,0,1,2.63.6A7.21,7.21,0,0,0,78,51.08a3.59,3.59,0,0,0-2.4,1,5.33,5.33,0,0,0-1.39,2.21,9.21,9.21,0,0,0-.5,2.59.18.18,0,0,1-.18.17h0c-.32,0-.65-.06-1,0a6.26,6.26,0,0,0-1,.11,4.56,4.56,0,0,0-1.76.74,5.33,5.33,0,0,0-1.36,1.36,6.36,6.36,0,0,0-.84,1.74h0a.21.21,0,0,1-.2.16,5.36,5.36,0,0,0-2.94.88,7,7,0,0,0-2.07,2.31,9.76,9.76,0,0,0-1.06,3,7.57,7.57,0,0,0-.07,3.14A7.68,7.68,0,0,0,65,75.25,7.4,7.4,0,0,0,71.21,75.83Z"/><path class="cls-20" d="M133.8,122.53c2.4-13.53,5.75-30.36,5.75-30.36l16.21,30.13,6.45,0c-1.44-4.7-2.92-9.49-4.1-13.23-2.3-7.31-4.59-20.94-12.44-30.33-2-.45-10.67-1.5-13.85-1.25,0,.16-2.95,5.92-3.79,10.1-1.53,7.67-1,22.76-.15,34.9C129.84,122.38,131.86,122.51,133.8,122.53Z"/><path class="cls-22" d="M109.39,79.15a.32.32,0,0,1-.17.33,8,8,0,0,1-2.11,1c-.5.12-1.43-.08-1.53-.3s.24-.36.24-.36a.19.19,0,0,1-.09-.28,5.19,5.19,0,0,1,2-.76s-.68-.33-.62-.51,1.07.15,1.38.32a3.85,3.85,0,0,0,.61.06C109.25,78.61,109.36,78.91,109.39,79.15Z"/><path class="cls-24" d="M133.8,122.53c2.4-13.53,5.75-30.36,5.75-30.36l16.21,30.13,6.45,0c-1.44-4.7-2.92-9.49-4.1-13.23-2.3-7.31-4.59-20.94-12.44-30.33-1.1-.24-4.08-.65-7.1-.95-1.33-.12-5.51,13.12-7.17,28.77-.56,5.27-.88,10.86-1.06,15.91C131.51,122.47,132.67,122.52,133.8,122.53Z"/><path class="cls-29" d="M131.76,66a73.78,73.78,0,0,1-7.09,8.75,21.79,21.79,0,0,1-8.52,5.91C112.45,82,108.39,79,108.39,79s.77-2.58,2.74-3.4,7.78-3.32,10.28-4.11,6.78-7,8.63-8.49a17,17,0,0,1,2.48-1.56Z"/><path class="cls-29" d="M131.14,62.25c1.48-1.29,5.91-2.77,14-1.38a8.57,8.57,0,0,1,2.38.8,16.29,16.29,0,0,0,.76,6.36,37.82,37.82,0,0,0-2.57,10.39c-2.64,1.07-13,.56-14.31-.14a27,27,0,0,1-1.19-8A44.89,44.89,0,0,1,131.14,62.25Z"/><path class="cls-11" d="M140.67,60.31c.81.14,5.8.68,6.85,1.36a16.29,16.29,0,0,0,.76,6.36,39.63,39.63,0,0,0-2.61,10.68c-1.32.53-8.11.33-8.11.33a32.28,32.28,0,0,0,2.14-8.73C140.47,62.81,140.39,60.26,140.67,60.31Z"/><path class="cls-22" d="M151.16,97.42a5.25,5.25,0,0,1,1.24,2.32c0,.59-.36,2.21-.64,2.28s-.23-.29-.23-.29-.17.32-.37.17,0-.88-.08-1.45c-.05-.35-.29-.71-.26-.94,0,0-.26.68-.46.57s0-1.37.21-1.73S150.88,97.4,151.16,97.42Z"/><path class="cls-11" d="M148.61,79.15s-1-9-1.62-10.9C145.7,64.58,144.9,65,144.9,65l.76-3.84s3,.31,4,2.25c1.83,3.6,2.75,19.11,3,19.67Z"/><path class="cls-11" d="M153.16,85.52c.19,2.43,1.09,9.65,1.09,9.65.05,4.19-4.48,3.46-5.52,1.47-1.92-3.73-1.82-12.77.19-18.34.79-2.18,3.24-1.37,3.51,1.79C152.65,82.64,153,83.86,153.16,85.52Z"/><path class="cls-22" d="M140,57.39a14.46,14.46,0,0,0,.22,3.22.83.83,0,0,0,1.41-.18c.35-.78-.44-3.21-.44-3.21Z"/><path class="cls-27" d="M140,59.27a1.3,1.3,0,0,0,1.52-.76c-.06-.52-.06-.22-.17-.65l-1.38.2C140,58.48,140,58.79,140,59.27Z"/><path class="cls-20" d="M140.56,61.87s.37,6.76.37,9-.5,2.77-.5,2.77l-2,.91-1.5-1.69s2.51-10.12,3.31-11S140.56,61.87,140.56,61.87Z"/><path class="cls-23" d="M141.22,61.19s-.52.8-.85.78-.34-.44-.37-.79.53-.48,1-.26S141.22,61.19,141.22,61.19Z"/><path class="cls-11" d="M140,59.32a2.43,2.43,0,0,0,0,.51c.05.24,0,.36.47,1l-.92,1S138.74,60.81,140,59.32Z"/><path class="cls-29" d="M141.7,59.52a.87.87,0,0,1-.11.44,1.84,1.84,0,0,1-1.05.82l.67,1.27A1.68,1.68,0,0,0,141.7,59.52Z"/><path class="cls-20" d="M141.48,57.64s1.26.12,2.4-1.64c1.49-2.28-.41-3.19-.41-3.19s1.49-2.3-2-3.34-.85-4.12-3.2-2.33c-.78.59-2.83,4.08-.5,6,0,0-.63,3.49.45,4A10,10,0,0,0,141.48,57.64Z"/><path class="cls-22" d="M141.94,57.38a8,8,0,0,0,.33-2.22c-.26-1.3-3.08-1.1-3.54-.87s-.59.92-.67,1.42a3.73,3.73,0,0,0,.22,1.87,2.32,2.32,0,0,0,1.46.89C141.11,58.61,141.54,58.3,141.94,57.38Z"/><path class="cls-28" d="M137.82,56.65a2.74,2.74,0,0,1-.26-.84,5.24,5.24,0,0,1-.08-.88,10.48,10.48,0,0,1,.14-1.77l.09.21a3.06,3.06,0,0,1-1.15-1.74,3.89,3.89,0,0,1,.11-2.06,5.41,5.41,0,0,1,.87-1.81,3.06,3.06,0,0,1,1.61-1.16,3.55,3.55,0,0,0-1.38,1.31,5.93,5.93,0,0,0-.69,1.78,3.67,3.67,0,0,0-.07,1.83,2.82,2.82,0,0,0,.92,1.52h0a.18.18,0,0,1,.06.19c0,.28-.12.56-.17.84a8.2,8.2,0,0,0-.1.85A5,5,0,0,0,137.82,56.65Z"/><path class="cls-30" d="M76.57,138.67c-15.48,0-28,1.5-28,3.35s12.55,3.36,28,3.36,28-1.51,28-3.36S92.06,138.67,76.57,138.67Z"/><path class="cls-16" d="M148.66,34.18s3.88-2.57,6.78-2,10.36,10.55,21,5.45,11.19-18.43,2.06-24.43c-8.24-5.41-17.89-2.92-23.69,9.17C152.77,26.72,148.66,34.18,148.66,34.18Z"/><path class="cls-31" d="M177.33,24.44a8.29,8.29,0,1,1-8.23-8.14A8.2,8.2,0,0,1,177.33,24.44Z"/><path class="cls-32" d="M175.88,24.44a7.84,7.84,0,1,1-15.67-.11,7.84,7.84,0,1,1,15.67.11Z"/><path class="cls-29" d="M167.82,29.39h0a3.51,3.51,0,0,1-3.5-3.55v-.46l7.05.05v.46A3.52,3.52,0,0,1,167.82,29.39Z"/><path class="cls-33" d="M164.79,22.28a.67.67,0,0,1-.7.67.68.68,0,0,1-.69-.68.7.7,0,0,1,.7-.67A.69.69,0,0,1,164.79,22.28Z"/><path class="cls-33" d="M172.57,22.33a.7.7,0,1,1-.69-.68A.69.69,0,0,1,172.57,22.33Z"/></g></g></g></svg>