<svg xmlns="http://www.w3.org/2000/svg" viewBox="0 0 268.41 304.9"><defs><style>.cls-1{isolation:isolate;}.cls-2{fill:gray;opacity:0.2;}.cls-12,.cls-2{mix-blend-mode:multiply;}.cls-3{fill:#ff9a2e;}.cls-4{fill:#ffcb48;}.cls-5{fill:#fff;}.cls-6{fill:#30193b;}.cls-7{fill:#632678;}.cls-8{fill:#9b89e5;}.cls-9{fill:#3b2b5b;}.cls-10{fill:#f5f5f5;}.cls-11{fill:#aacbe8;}.cls-12{opacity:0.36;}.cls-13{fill:#e7e7e7;}.cls-14{fill:#462261;}.cls-15{fill:#3f1251;}.cls-16{fill:#2795f8;}.cls-17{fill:#f68895;}.cls-18{fill:#f17785;}.cls-19{fill:#371a4f;}.cls-20{fill:#e96077;}.cls-21{fill:#462161;}.cls-22{fill:#0577e7;}.cls-23{fill:#8a5aff;}.cls-24{fill:#fb446c;}.cls-25{fill:#c5205c;}.cls-26{fill:#703cd5;}.cls-27{fill:#4625ac;}</style></defs><g class="cls-1"><g id="Capa_2" data-name="Capa 2"><g id="Header"><ellipse class="cls-2" cx="41.7" cy="298.08" rx="34.64" ry="4.72"/><ellipse class="cls-2" cx="134.06" cy="284.96" rx="69.27" ry="9.45"/><ellipse class="cls-2" cx="194.94" cy="298.6" rx="69.27" ry="6.3"/><path class="cls-3" d="M151,17.08h-10.8l-1.42-1s.72-3.85-3.23-3.85-4.38,4.19-4.39,4.37l-.05.49h-11l-1.43-1a24.08,24.08,0,0,1,5.62-10.85C127,2.43,130.75,1,135.57,1s8.61,1.41,11.28,4.2C151.22,9.77,151,16.29,151,16.56Z"/><path class="cls-4" d="M149.54,16.07h-10.8l-.06-.48c0-.17-.64-4.39-4.59-4.39s-4.38,4.19-4.4,4.37l0,.5h-11l0-.53c0-.27-.18-6.79,4.21-11.34,2.69-2.79,6.5-4.2,11.32-4.2s8.61,1.41,11.28,4.2c4.36,4.55,4.14,11.07,4.13,11.35Z"/><path class="cls-5" d="M134.68,8.83h-1V2.52h1Z"/><path class="cls-5" d="M139.23,11.13l-.7-.7L143,6l.7.7Z"/><path class="cls-5" d="M124.76,6.67l.7-.7,4.46,4.46-.7.7Z"/><path class="cls-6" d="M143.41,6.37l-9,7.35h-.15a1.7,1.7,0,1,0,1.7,1.7,1,1,0,0,0,0-.17Z"/><path class="cls-7" d="M24.82,121.89,1.18,123.78C.4,123.78,0,123.5,0,121.3l1-15.93a1.14,1.14,0,0,1,1.07-.75H26.25a1.14,1.14,0,0,1,1.07,1.52l-1.44,15A1.13,1.13,0,0,1,24.82,121.89Z"/><rect class="cls-5" x="7.26" y="100.44" width="14.18" height="19.56" transform="translate(-73.74 42.43) rotate(-45)"/><path class="cls-7" d="M16.25,122.73,1.84,108.32l10.61-10.6,14.41,14.41ZM3,108.32l13.25,13.25,9.45-9.44L12.45,98.88Z"/><path class="cls-4" d="M25.87,123.9H1.68a1.13,1.13,0,0,1-1.06-1.51l5.11-14.25a1.13,1.13,0,0,1,1.06-.75H31A1.13,1.13,0,0,1,32,108.91l-5.11,14.24A1.13,1.13,0,0,1,25.87,123.9Z"/><path class="cls-8" d="M202.11,47.16l5.21-8.42c.18-.29-.13-.62-.42-.62h-3.47a10.06,10.06,0,0,1,2.67-6.46A8.52,8.52,0,0,1,212.41,29,10.06,10.06,0,0,1,218,30.75,1.67,1.67,0,0,0,219.91,28a13.34,13.34,0,0,0-7.5-2.29,12,12,0,0,0-8.72,3.65,13.35,13.35,0,0,0-3.6,8.77h-3.66a.3.3,0,0,0-.25.47q2.59,4.26,5.2,8.52a.39.39,0,0,0,.08.1c.16.18.45.27.59,0h0A.26.26,0,0,0,202.11,47.16Z"/><path class="cls-8" d="M229.28,38.65l-5.17-8.47c0-.22-.51-.42-.74-.27a.13.13,0,0,0-.09.11L218,38.5c-.14.24.39.42.52.42H222a10,10,0,0,1-2.68,6.55A8.55,8.55,0,0,1,213,48.09a10,10,0,0,1-5.62-1.72,1.68,1.68,0,0,0-2.32.45,1.66,1.66,0,0,0,.45,2.32A13.33,13.33,0,0,0,213,51.43a12,12,0,0,0,8.72-3.65,13.35,13.35,0,0,0,3.61-8.86H229C229.15,38.92,229.38,38.82,229.28,38.65Z"/><path class="cls-8" d="M51.51,55.5h-.14c-.85-.17-3.93-1.07-7.65-5.65-4.25-5.23-3.59-16.17-3.56-16.64a.26.26,0,0,1,.1-.2.34.34,0,0,1,.22-.07,15.38,15.38,0,0,0,10.69-3.17h0l.1-.08a.29.29,0,0,1,.34,0l.07.06A15.43,15.43,0,0,0,62.4,32.86a.26.26,0,0,1,.21.06.29.29,0,0,1,.11.21c0,.46.75,11.4-3.46,16.65-3.69,4.61-6.77,5.53-7.63,5.7Zm-10.79-22c-.07,1.8-.27,11.35,3.45,15.94s6.74,5.33,7.32,5.44h0c.66-.14,3.69-1,7.31-5.5s3.44-14.15,3.36-16a16.05,16.05,0,0,1-10.73-3.17A16.11,16.11,0,0,1,40.72,33.53Z"/><path class="cls-8" d="M61,34.38a13.64,13.64,0,0,1-9.5-2.76l-.06-.05s.07,22,.06,22,.07,0,.07,0c.59-.12,3.27-.86,6.47-4.86C61.7,44.14,61,34.38,61,34.38Z"/><path class="cls-4" d="M268.17,97.91a6,6,0,0,0-.59-1.42l-4.16,4.5-2.58-.08-.47-2.5,1.47-1.79,2.43-3,0,0a6.36,6.36,0,0,0-3.87-.14,6.33,6.33,0,0,0-4.4,7.81,7.61,7.61,0,0,0,.25.72L253.57,105l-.07-.06-6.68,7.45a6.27,6.27,0,0,0-3.49,0,6.34,6.34,0,0,0-4.4,7.81,6,6,0,0,0,.59,1.42l4.16-4.5,2.58.08.47,2.5-1.47,1.79-2.43,3,0,0a6.37,6.37,0,0,0,3.87.14,6.33,6.33,0,0,0,4.4-7.81,5.55,5.55,0,0,0-.25-.72l3.27-3.65.07.06,6-6.75a6.33,6.33,0,0,0,7.89-7.78Z"/><rect class="cls-9" x="71.85" y="53.63" width="126.37" height="229.37" rx="10.06"/><rect class="cls-10" x="82.04" y="76.39" width="105.99" height="169.86"/><rect class="cls-8" x="118.92" y="64.54" width="30.3" height="2.96"/><path class="cls-8" d="M71.85,100.94h0a1.66,1.66,0,0,1-1.66-1.66V84.64A1.66,1.66,0,0,1,71.85,83h0Z"/><path class="cls-8" d="M71.85,121.93h0a1.66,1.66,0,0,1-1.66-1.66V105.63A1.66,1.66,0,0,1,71.85,104h0Z"/><path class="cls-11" d="M148.19,270.37H125a6.35,6.35,0,0,1-6.35-6.35h0a6.35,6.35,0,0,1,6.35-6.35h23.18a6.35,6.35,0,0,1,6.35,6.35h0A6.35,6.35,0,0,1,148.19,270.37Z"/><path class="cls-8" d="M179.22,64.54A3.19,3.19,0,1,1,176,61.35,3.19,3.19,0,0,1,179.22,64.54Z"/><circle class="cls-8" cx="183.15" cy="64.81" r="1.71"/><g class="cls-12"><path class="cls-13" d="M186.94,283H136.6L136,53.63h50.95a11.28,11.28,0,0,1,11.28,11.28V271.73A11.27,11.27,0,0,1,186.94,283Z"/></g><path class="cls-14" d="M36.27,284.39a11.24,11.24,0,0,1-9.65,8.12c-1.38.12-2.78,0-4.15.21A4.15,4.15,0,0,0,19.2,295a4.08,4.08,0,0,0,.71,3.71c1.91,2.75,5.69,3.8,8.94,3a13.52,13.52,0,0,0,7.81-5.91,33.07,33.07,0,0,0,3.86-9.21C39.2,285.67,37.59,285.3,36.27,284.39Z"/><path class="cls-14" d="M56.42,278.68a8.19,8.19,0,0,1-.12,9c-.87,1.23-2.07,2.19-2.95,3.4a4.3,4.3,0,0,0-.8,4.22,3.66,3.66,0,0,0,4.33,1.58,7.94,7.94,0,0,0,3.84-3.09,14.22,14.22,0,0,0,3-7.75,9,9,0,0,0-3.26-7.43c-1.47-1.1-3.41-1.73-4.29-3.34C56.13,276.35,56.45,277.6,56.42,278.68Z"/><path class="cls-7" d="M57.11,273.38q-2.94-4.9-6.31-9.52c2.32-6.29,4.53-13.09,6.57-20.06,3.36-11.44,6.26-23.32,8.5-34.1,0,0-7.14-20.71-19.07-21.58-3-.22-6.29.81-9.85,3.73a45.16,45.16,0,0,0-10.33,12.64C18,219.58,16,240.26,16,240.26c5.43,10.55,12.59,20.5,21.82,28.09.43.36.86.71,1.3,1-1.25,5.55-2.21,11.15-4,16.52,1.7,1,3.63,2,5.33,3q3.27-7.17,6.24-14.47c.75.48,1.52.94,2.29,1.39a81.08,81.08,0,0,0,8,4.09c.88-.59,1.84-1.45,2.71-2Q58.45,275.6,57.11,273.38Zm-25-31.31c.12-.16.23-.33.34-.5,3.92-5.77,7.72-13.46,11.64-19.13A232.75,232.75,0,0,1,42,253.6C38.56,249.81,36,245.42,32.08,242.07Z"/><path class="cls-15" d="M65.87,209.7c-2.24,10.78-5.14,22.66-8.5,34.1a65,65,0,0,0-.58-12.62c-.51-3.56-1.36-7.18-3.45-10.09-3.07-4.29-8.29-6.38-13.24-8.18s-10.19-3.72-13.5-7.82c5.78-6.64,12.39-13,20.2-17C58.73,189,65.87,209.7,65.87,209.7Z"/><path class="cls-16" d="M78.51,197.41a30.91,30.91,0,0,1-3.76,8.7A10.34,10.34,0,0,1,67,203.82c-.61,3-1.09,6-1.7,9l0,.14a60.86,60.86,0,0,1-20.5.43,59.8,59.8,0,0,1-18.36-8.7c.6-2.68,1.12-5.29,1.7-8,.08-.37.17-.75.25-1.14a10.27,10.27,0,0,1-8-1.05A31.5,31.5,0,0,1,23.49,176c.21-.4.42-.81.65-1.2A28.86,28.86,0,0,1,36.4,163.1,34.57,34.57,0,0,1,45,160.35c2.59-.51,5.23-.83,7.84-1.15,1,.65,2,1.37,3.09,2.06,1.24-.21,1.9-.56,3-.76,1.42.86,2.91,1.73,4.4,2.65A39.37,39.37,0,0,1,73,170.9a28.43,28.43,0,0,1,5.94,12.55,29.47,29.47,0,0,1,.58,4.5A31.15,31.15,0,0,1,78.51,197.41Z"/><path class="cls-17" d="M63.37,163.15c-2.74,3.79-6.83,5.86-10.83,5-3.66-.78-6.38-3.82-7.55-7.81,1.63-.32,3.29-.57,4.94-.79l.77-.1,2.13-.25,3,2,.06,0,.28-.06c1.07-.21,1.71-.53,2.77-.71l0,0C60.42,161.37,61.9,162.24,63.37,163.15Z"/><path class="cls-17" d="M55.92,165.5a6.52,6.52,0,0,1-4.5-.54,10.77,10.77,0,0,1-3.51-3,15.8,15.8,0,0,0,2-2.43l.32-.48a12.9,12.9,0,0,0,1.08-2.21,19.73,19.73,0,0,0,8.35-2.81A17.34,17.34,0,0,0,59,160.5s0,0,0,0a16.92,16.92,0,0,0,.28,2C59.56,164.08,57.41,165.09,55.92,165.5Z"/><path class="cls-18" d="M59,160.53h0a8.33,8.33,0,0,1-2.77.67l-.34,0a9,9,0,0,1-1.16-.07,8,8,0,0,1-4-1.7,5.63,5.63,0,0,1-.45-.38,12.9,12.9,0,0,0,1.08-2.21,19.73,19.73,0,0,0,8.35-2.81A17.34,17.34,0,0,0,59,160.5Z"/><path class="cls-18" d="M52.13,147.56a1.73,1.73,0,0,0,0-.68.6.6,0,0,0-.5-.42.76.76,0,0,0-.55.34,3.64,3.64,0,0,0-.65,3.46C50.91,149.37,52.06,148.6,52.13,147.56Z"/><path class="cls-19" d="M52.75,143.08a8.06,8.06,0,0,0-.5,5.59A6.11,6.11,0,0,0,52.75,143.08Z"/><path class="cls-20" d="M60.35,150.12a3.68,3.68,0,0,1,.61-.69,1.27,1.27,0,0,1,.84-.31,1.23,1.23,0,0,1,1,1.15,2.88,2.88,0,0,1-.43,1.6,3.68,3.68,0,0,1-.75,1,1.74,1.74,0,0,1-1.16.51,1.15,1.15,0,0,1-1.06-.61A7.68,7.68,0,0,0,60.35,150.12Z"/><path class="cls-17" d="M60,152.48c0,.1-.07.21-.11.31a9.55,9.55,0,0,1-3.29,4.9,5.47,5.47,0,0,1-5.09.6,4.6,4.6,0,0,1-2.82-4.16,6.45,6.45,0,0,1,1.22-3.34c.65-1,1.43-1.93,2-3a6.29,6.29,0,0,0,1-3.71l.16-.06a8.58,8.58,0,0,1,8.16,1A23.34,23.34,0,0,1,60,152.48Z"/><path class="cls-18" d="M60,152.48a10.42,10.42,0,0,1-2.46.49,9.92,9.92,0,0,0,2.1-3.64,4,4,0,0,0,.24-1.46,1.82,1.82,0,0,0-.61-1.3,2.12,2.12,0,0,0-1.34-.4c-.48,0-1,.07-1.42.06A4.11,4.11,0,0,1,53,144.05a8.58,8.58,0,0,1,8.16,1A23.34,23.34,0,0,1,60,152.48Z"/><path class="cls-14" d="M63.82,145.54a9.24,9.24,0,0,1-1.11,1.32c-1.48,1.69-1.92,4-2.48,6.19s-1.41,4.48-3.33,5.65-4.46.85-6.57,0a7,7,0,0,1-2.79-1.89,3.5,3.5,0,0,1-.68-1.26A4.47,4.47,0,0,1,48,151.47a12.83,12.83,0,0,1,3.37-2.76A3.46,3.46,0,0,0,53,152.28a4.61,4.61,0,0,0,3.88.15,6,6,0,0,0,3.26-3,5.24,5.24,0,0,0,.19-4.06,10.35,10.35,0,0,1-5.44-.09,5.72,5.72,0,0,1-2.07-1.25,4.36,4.36,0,0,1-1.43-2.63,4.23,4.23,0,0,1,1.64-3.86,4.68,4.68,0,0,1,4.18-.67,5.26,5.26,0,0,1,3.12,2.9c.47,1.1.66,2.47,1.68,3.08.61.38,1.45.42,1.85,1A1.55,1.55,0,0,1,63.82,145.54Z"/><path class="cls-19" d="M63.82,145.54a9.24,9.24,0,0,1-1.11,1.32c-1.48,1.69-1.92,4-2.48,6.19s-1.41,4.48-3.33,5.65-4.46.85-6.57,0a7,7,0,0,1-2.79-1.89,8.79,8.79,0,0,0,1.68,1,6.11,6.11,0,0,0,5.15.1,6.48,6.48,0,0,0,2.41-2.27,19.38,19.38,0,0,0,1.51-3,2.85,2.85,0,0,0,.31-1.19,6.18,6.18,0,0,0,1.57-2,5.24,5.24,0,0,0,.19-4.06,10.35,10.35,0,0,1-5.44-.09,5.72,5.72,0,0,1-2.07-1.25A12,12,0,0,0,56,145a3.66,3.66,0,0,0,4.28-4.44,7.52,7.52,0,0,0-.54-1.88,5,5,0,0,1,.67,1.14c.47,1.1.66,2.47,1.68,3.08.61.38,1.45.42,1.85,1A1.55,1.55,0,0,1,63.82,145.54Z"/><path class="cls-21" d="M55.86,180.32l-2.84,13a1,1,0,0,1-1.08.82l-5.18-.74a1,1,0,0,1-.82-1.09l1.27-13.08a1,1,0,0,1,1.09-.82l6.74.83A1,1,0,0,1,55.86,180.32Z"/><path class="cls-22" d="M78.51,197.41a30.91,30.91,0,0,1-3.76,8.7A10.34,10.34,0,0,1,67,203.82c-.61,3-1.09,6-1.7,9a24.41,24.41,0,0,0-23.6-17.92c-4.58,0-9.05,1.3-13.59,1.83.08-.37.17-.75.25-1.14a10.6,10.6,0,0,1-3.08.37,1.44,1.44,0,0,1,.35-1,5.53,5.53,0,0,1,2-1.39,75.35,75.35,0,0,1,13.49-5.32c4.7-1.17,9.75-1.42,14.32.18,6.43,2.25,11.57,7.95,18.35,8.68C75.42,197.27,77,197.16,78.51,197.41Z"/><path class="cls-5" d="M53.94,179.13a3.11,3.11,0,0,1-.58,0l-1.58-.2-2.34-.35a4.91,4.91,0,0,0-.67-.06,2.09,2.09,0,0,0-.66.07,1.28,1.28,0,0,0-.55.37,1.82,1.82,0,0,0-.32.62A7.14,7.14,0,0,0,47,181c0,.48-.08.94-.12,1.39-.08.88-.15,1.68-.21,2.35s-.13,1.21-.17,1.59a2.71,2.71,0,0,1-.1.58,2.24,2.24,0,0,1,0-.59c0-.38,0-.92.08-1.59s.1-1.47.16-2.36l.11-1.39a6.77,6.77,0,0,1,.21-1.51,2.14,2.14,0,0,1,.37-.72,1.48,1.48,0,0,1,.67-.44,2.16,2.16,0,0,1,.75-.08,5,5,0,0,1,.69.08l2.33.39,1.57.29A2.49,2.49,0,0,1,53.94,179.13Z"/><path class="cls-17" d="M74.75,206.12a10.87,10.87,0,0,1-3.75-.28,10.36,10.36,0,0,1-4-2A52.19,52.19,0,0,1,53.53,191l-.7-1a17.31,17.31,0,0,1,2.5-4.51A24.77,24.77,0,0,1,66,190.26a23.34,23.34,0,0,0-.15-5.28c-.06-.43-.13-.85-.22-1.28a25.64,25.64,0,0,0,13.3-.25,29.6,29.6,0,0,1,.58,4.51A31.47,31.47,0,0,1,74.75,206.12Z"/><path class="cls-18" d="M74.75,206.12a10.87,10.87,0,0,1-3.75-.28A11.46,11.46,0,0,0,65.85,185c-.06-.43-.13-.85-.22-1.28a25.64,25.64,0,0,0,13.3-.25,29.6,29.6,0,0,1,.58,4.51A31.47,31.47,0,0,1,74.75,206.12Z"/><path class="cls-17" d="M46.15,189.42l0,0a40.31,40.31,0,0,1-17.72,6.13,10.33,10.33,0,0,1-8-1.05A31.42,31.42,0,0,1,23.49,176c.06-.11.12-.22.17-.33l.48-.87a20.78,20.78,0,0,0,10.72,5A27.34,27.34,0,0,1,32,187.06l-.12.22.15,0,.86-.22,12.82-3.29A12.21,12.21,0,0,1,46.15,189.42Z"/><path class="cls-18" d="M34.86,179.83A27.34,27.34,0,0,1,32,187.06a15.79,15.79,0,0,0-8.36-11.38l.48-.87A20.78,20.78,0,0,0,34.86,179.83Z"/><path class="cls-17" d="M55.88,186a3.66,3.66,0,0,0,.62-.8,1.2,1.2,0,0,0,.08-1,1.25,1.25,0,0,0-.59-.59,3.63,3.63,0,0,0-.81-.25l-.35,1.6a2.91,2.91,0,0,1-2.2-.5,1.75,1.75,0,0,0-2.29.11,2.31,2.31,0,0,0-.2.24,4.78,4.78,0,0,0-.68,2.07,7.27,7.27,0,0,0-.12,1.67,2.39,2.39,0,0,0,.65,1.51,3.23,3.23,0,0,0,2.06.65,21.8,21.8,0,0,0,2.8,0C55.15,189.18,55.58,187.58,55.88,186Z"/><path class="cls-17" d="M44.77,184.2a2.41,2.41,0,0,1-.17-.58.86.86,0,0,1,.11-.59,1.08,1.08,0,0,1,.47-.34,4.24,4.24,0,0,1,1.49-.33L46.55,184a4.4,4.4,0,0,0,1.29.14c.43-.08.85-.23,1.28-.28a1.48,1.48,0,0,1,1.22.33,2,2,0,0,1,.45,1.22,8.2,8.2,0,0,1,.05,2.66,2.8,2.8,0,0,1-1.49,2.08,4.11,4.11,0,0,1-2.23.09c-1.17-.17-2.34-.37-3.51-.58C44.56,188.08,45.47,185.94,44.77,184.2Z"/><path class="cls-15" d="M57.11,273.38a9.69,9.69,0,0,0-3.83.12A9.27,9.27,0,0,0,49,275.83c-.77-.45-1.54-.91-2.29-1.39l4.09-10.58Q54.16,268.47,57.11,273.38Z"/><path class="cls-15" d="M32.08,242.07c.12-.16.23-.33.34-.5,3.92-5.77,7.72-13.46,11.64-19.13-1.41-.75-2.89-1.42-4.3-2.17A57.16,57.16,0,0,0,30.24,242l11.38,13.69L42,253.6C38.56,249.81,36,245.42,32.08,242.07Z"/><path class="cls-5" d="M38,274.12a24,24,0,0,1,.77-3.52c.26-1.08.56-2.37.87-3.8s.64-3,.95-4.67.57-3.25.8-4.7.4-2.76.54-3.86a24.73,24.73,0,0,1,.55-3.56,16,16,0,0,1-.09,3.61c-.08,1.11-.22,2.43-.41,3.89s-.44,3.07-.75,4.74-.65,3.25-1,4.69-.7,2.71-1,3.78A16.22,16.22,0,0,1,38,274.12Z"/><path class="cls-22" d="M64.89,180.56c.07,0,.18.09.3.32a2.88,2.88,0,0,1,.21.43c.06.17.14.36.21.58a15.39,15.39,0,0,1,.39,1.56c0,.3.11.61.15.94s.08.67.11,1,0,.69.06,1,0,.65,0,1c0,.61,0,1.15-.07,1.6,0,.23,0,.44-.06.62s0,.33-.06.46-.08.39-.12.39,0-.15-.07-.4L65.88,189c0-.45-.08-1-.14-1.57,0-.29-.07-.6-.11-.92s-.09-.65-.14-1l-.15-1c0-.32-.11-.62-.16-.91-.1-.58-.19-1.1-.26-1.55,0-.22-.07-.42-.09-.6s0-.33,0-.46S64.82,180.58,64.89,180.56Z"/><path class="cls-22" d="M35.19,177.06c.07,0,.13.17.17.45a4,4,0,0,1,0,.53c0,.2,0,.43,0,.68a13.73,13.73,0,0,1-.25,1.78c-.08.33-.15.67-.26,1s-.21.71-.33,1.08-.27.72-.41,1.06-.3.65-.44,1c-.3.6-.59,1.13-.86,1.56-.13.22-.27.4-.38.57a4.74,4.74,0,0,1-.3.42c-.18.22-.29.33-.32.32s0-.18.13-.43l.21-.47c.08-.18.18-.38.27-.61.2-.46.42-1,.65-1.62.11-.31.24-.63.34-1s.22-.69.33-1,.21-.71.29-1.06.17-.67.25-1c.14-.63.27-1.2.37-1.69.06-.24.1-.46.15-.65s.09-.36.13-.49S35.11,177.06,35.19,177.06Z"/><path class="cls-5" d="M44.88,184.15c0,.18-3.64.89-8.1,2s-8,2.27-8.08,2.09,3.43-1.58,7.92-2.73S44.86,184,44.88,184.15Z"/><path class="cls-23" d="M35.46,161.45l4.14,6.27-7.24-5.22c-2.64.16-5.33.59-7.86-.27a10.21,10.21,0,0,1-6.06-5.3,8.38,8.38,0,0,1,.64-8.26,9.33,9.33,0,0,1,4.58-2.93,14.17,14.17,0,0,1,9.18-.25,10,10,0,0,1,6.37,6.92C40,155.73,38.28,160,35.46,161.45Z"/><path class="cls-5" d="M20.57,159.63s-.42-.15-1-.7a7.4,7.4,0,0,1-1.82-3,9.51,9.51,0,0,1-.3-1.17,9.24,9.24,0,0,1-.12-1.31,8.55,8.55,0,0,1,.46-2.86,8.18,8.18,0,0,1,1.56-2.72,9.69,9.69,0,0,1,2.53-2,12.79,12.79,0,0,1,5.69-1.62,12.17,12.17,0,0,1,4.75.74,12,12,0,0,1,2.9,1.54c.63.47.93.79.9.84s-.39-.17-1.06-.54a14.42,14.42,0,0,0-2.9-1.24,12.58,12.58,0,0,0-4.55-.53,12.8,12.8,0,0,0-5.37,1.6,9,9,0,0,0-2.33,1.79,7.49,7.49,0,0,0-1.44,2.4,8.2,8.2,0,0,0-.48,2.57,9.17,9.17,0,0,0,.07,1.19,8.4,8.4,0,0,0,.22,1.09,8.14,8.14,0,0,0,1.51,2.92C20.28,159.29,20.61,159.57,20.57,159.63Z"/><path class="cls-5" d="M25.66,156.77a1.2,1.2,0,0,1-.75.2,1.29,1.29,0,0,1-.57-.19,16.89,16.89,0,0,1,.61-4.42,1.29,1.29,0,0,1,1.24.38A11.48,11.48,0,0,0,25.66,156.77Z"/><path class="cls-5" d="M26.78,152.75a1.5,1.5,0,0,0,1.38-1.25,4.13,4.13,0,0,0,0-.86,1.61,1.61,0,0,1,.11-.84.67.67,0,0,1,.69-.41.7.7,0,0,1,.47.39,1.59,1.59,0,0,1,.13.61,5.82,5.82,0,0,1-.24,2.16,5.84,5.84,0,0,1,2.28-.13,1.67,1.67,0,0,1,1.15.54,1,1,0,0,1-.95,1.51,1.5,1.5,0,0,1,0,1.16,1.34,1.34,0,0,1-.85.69,1.09,1.09,0,0,1-.75,1.38,2.09,2.09,0,0,1-1-.08l-3-.74A9.89,9.89,0,0,1,26.78,152.75Z"/><path class="cls-14" d="M119.39,262.42a4.54,4.54,0,0,0-3-2.27,9.33,9.33,0,0,0-3.9,0c-1.28.25-2.54.63-3.82.86a3.83,3.83,0,0,1-1.75,0,1.37,1.37,0,0,1-.6-2.43,4.34,4.34,0,0,1,1.16-.72,21.09,21.09,0,0,1,5.15-2,6.33,6.33,0,0,1,7.85,4.34,20.69,20.69,0,0,1,.91,4.27A10.62,10.62,0,0,1,119.39,262.42Z"/><polygon class="cls-16" points="117.48 261.2 144.68 295.36 145.75 296.67 148.08 286.47 135.81 273.91 120.81 258.56 117.48 261.2"/><path class="cls-22" d="M135.81,273.91q2.25,3.54,4.34,7.18a37.56,37.56,0,0,1,3.94,8.63,16.54,16.54,0,0,1,.59,5.64l1.07,1.31,2.33-10.2Z"/><path class="cls-14" d="M151.71,249a5.33,5.33,0,0,0-.69-4.4,10.68,10.68,0,0,0-3.29-3.16c-1.28-.84-2.64-1.55-3.91-2.42a4.37,4.37,0,0,1-1.47-1.43,1.6,1.6,0,0,1,1.5-2.52,5.2,5.2,0,0,1,1.55.35,24.52,24.52,0,0,1,5.94,2.56,7.44,7.44,0,0,1,3,10.08,23.86,23.86,0,0,1-2.74,4.32A12.69,12.69,0,0,1,151.71,249Z"/><path class="cls-24" d="M190.46,289.28c1.51,1.07,3.68,1.54,5.14.41a12.86,12.86,0,0,0,3.2-4.48c.29-.58.59-1.16.91-1.73a10.12,10.12,0,0,1,2.2-2.82,5.5,5.5,0,0,1,5-.94,31.9,31.9,0,0,1,3.62,1.13,9.55,9.55,0,0,0,12.66-9.26,1.15,1.15,0,0,0,0-.19c-.06-1.63-.44-3.4.46-4.74,1-1.54,3.18-1.7,4.92-2.32a8.45,8.45,0,0,0,5.45-7.67c0-3.33-2.21-7.17-5.33-8.36a6.19,6.19,0,0,0-3.05-3.93,5.88,5.88,0,0,0-2.58-.75,6.22,6.22,0,0,0-6,4.2c-.5,1.56-.35,3.28-.95,4.8-.87,2.19-3.14,3.54-5.42,4.11a58.65,58.65,0,0,1-7,.78c-2.34.27-4.77,1-6.38,2.67-2.17,2.31-2.32,5.87-1.77,9s1.69,6.18,1.62,9.34a12.33,12.33,0,0,1-1.13,4.82A12.64,12.64,0,0,1,190.46,289.28Z"/><path class="cls-25" d="M215.18,280.08a4.78,4.78,0,0,0,.35,1.09,9.54,9.54,0,0,0,3.78-1.64,9.7,9.7,0,0,0,3.91-7.94,1.15,1.15,0,0,0,0-.19,3.17,3.17,0,0,1-.49-.17,4.38,4.38,0,0,1-2.15-2.4,9.67,9.67,0,0,1-.57-3.25c0-.64.05-1.41.62-1.71a2.45,2.45,0,0,1,1.08-.11,3.58,3.58,0,0,0,2.56-1.12c-.92-1.3-2.22-2.75-3.77-3.11a4,4,0,0,0-3.2.72,5.32,5.32,0,0,0-2.27,4.37c0,2.14,1.31,4.09,1.48,6.22C216.76,274,214.58,277,215.18,280.08Z"/><path class="cls-17" d="M209.22,274.09a106,106,0,0,0,.93,15.88,120.15,120.15,0,0,0,25.67,3.93c1.63.07,3.28.1,5,.1.15-1.24.09-1.78.24-3-8.43-1.77-15.63-4.05-24-5.84l-.44-.09a84.57,84.57,0,0,1-.15-9.42c0-.66.08-1.32.15-2-.58-.08-1.15-.14-1.73-.17A18.27,18.27,0,0,0,209.22,274.09Z"/><path class="cls-18" d="M209.22,274.09a106,106,0,0,0,.93,15.88,120.15,120.15,0,0,0,25.67,3.93c-5.24-.71-10.52-1.59-15.25-3.91a7.19,7.19,0,0,1-3.11-2.45,3.39,3.39,0,0,1-.46-2.4l-.44-.09a84.57,84.57,0,0,1-.15-9.42,9.79,9.79,0,0,0-1.58-2.14A18.27,18.27,0,0,0,209.22,274.09Z"/><path class="cls-25" d="M195.53,269.17c.56,3.12,1.69,6.18,1.62,9.34a12.33,12.33,0,0,1-1.13,4.82,10.63,10.63,0,0,0,3.69.15,11.42,11.42,0,0,0,3.54-1.06,13.6,13.6,0,0,0,3.69-2.7,17.32,17.32,0,0,0,3.29-4.82,29.73,29.73,0,0,0,2.3-10.13,8.73,8.73,0,0,1-3-1.1,3.26,3.26,0,0,1-1.55-2.71,3.42,3.42,0,0,1,2.11-2.72,12.76,12.76,0,0,1,3.52-.79A7.15,7.15,0,0,0,217,256.3c1.49-1.12,2-3.11,2.3-5s.53-3.81,1.69-5.26a5,5,0,0,1,3.67-1.81,5.16,5.16,0,0,1,1,.1,5.88,5.88,0,0,0-2.58-.75,6.22,6.22,0,0,0-6,4.2c-.5,1.56-.35,3.28-.95,4.8-.87,2.19-3.14,3.54-5.42,4.11a58.65,58.65,0,0,1-7,.78c-2.34.27-4.77,1-6.38,2.67C195.13,262.5,195,266.06,195.53,269.17Z"/><path class="cls-16" d="M145.75,296.67l43,.06.13-.6,2.82-12.78a18.6,18.6,0,0,0-13-3.6c-4.53.47-8.86,4.14-13.14,5.71s-7.4,3-11.94,3.41l1.81-41.5h-4.54l-5,48.47Z"/><path class="cls-17" d="M212.24,264.12a12.89,12.89,0,0,1,4.62,3.82,15.63,15.63,0,0,1,2.86-5.25,15.19,15.19,0,0,1,2.41-2.33l.42-.32-.25-.12a5,5,0,0,1-2.13-2.94,27,27,0,0,1-5.53,4.21,24.48,24.48,0,0,1-2.35,1.17A1,1,0,0,0,212.24,264.12Z"/><path class="cls-26" d="M188.53,295.55c.06.39.13.78.2,1.18,7.9-.23,16-2.41,22.18-7.26.36-.29.71-.58,1.05-.88.5-.44,1-.89,1.46-1.37a22.22,22.22,0,0,0,6.24-14.14V273a24,24,0,0,0-.11-4.72,22.21,22.21,0,0,0-1.7-6.2,9.23,9.23,0,0,0-3-.65c-.39.06-.77.13-1.16.22l-.42.1-.46.12a16.28,16.28,0,0,0-6,3.21,32.19,32.19,0,0,0-5.58,6.81,33.11,33.11,0,0,1-5.56,6.83,11.78,11.78,0,0,1-6.52,2.95A36.37,36.37,0,0,0,188.53,295.55Z"/><path class="cls-17" d="M214.63,266.56a6.41,6.41,0,0,0,4.92,1.74,22.21,22.21,0,0,0-1.7-6.2,9.23,9.23,0,0,0-3-.65c-.39.06-.77.13-1.16.22l-.42.1-.46.12A6.38,6.38,0,0,0,214.63,266.56Z"/><path class="cls-27" d="M188.53,295.55c.06.39.13.78.2,1.18,7.9-.23,16-2.41,22.18-7.26-.42-1.08-.88-2.14-1.32-3.2a82.6,82.6,0,0,1-4.73-16.46,27,27,0,0,0-1.62,10.49,26.93,26.93,0,0,1,0,5.31c-.56,3.47-3.21,6.34-6.36,7.92A21.91,21.91,0,0,1,188.53,295.55Z"/><path class="cls-27" d="M209.76,283a9.74,9.74,0,0,0,1,4.07,4.57,4.57,0,0,0,.92,1.34,2,2,0,0,0,.27.23c.5-.44,1-.89,1.46-1.37a23.08,23.08,0,0,0,1.53-1.75,6.36,6.36,0,0,1,.44-6.48,3.24,3.24,0,0,0-2.27-.69,3.38,3.38,0,0,0-2.22,1A5,5,0,0,0,209.76,283Z"/><path class="cls-17" d="M205.59,277.11a97.56,97.56,0,0,0,3.53,19l2.11.22a118,118,0,0,0,28.77-.64c0-1.24-.17-1.78-.2-3-8.74-.55-16.3-1.81-25.05-2.35a80.75,80.75,0,0,1-1.56-10q-.1-1.33-.12-2.67a29.49,29.49,0,0,1,.75-7.37,35.88,35.88,0,0,0-8.34.62A57.4,57.4,0,0,0,205.59,277.11Z"/><path class="cls-18" d="M205.59,277.11a97.56,97.56,0,0,0,3.53,19l2.11.22a12.1,12.1,0,0,1-2.08-3.16,11.92,11.92,0,0,1-.92-6.48,8.72,8.72,0,0,1,1.7-4.26,6,6,0,0,1,3.26-2.14q-.1-1.33-.12-2.67a4.38,4.38,0,0,0-1-1.1,4.65,4.65,0,0,0-3.92-.78A6.73,6.73,0,0,0,205.59,277.11Z"/><path class="cls-26" d="M214.33,269.23a26.66,26.66,0,0,0,1,9.89,17,17,0,0,0-10.31,4,35.13,35.13,0,0,1-.33-13.78C207.87,269.23,211.13,269.31,214.33,269.23Z"/><path class="cls-18" d="M214.64,261.19a5.43,5.43,0,0,1,2.34,0,5.55,5.55,0,0,1,2.74,1.51,15.19,15.19,0,0,1,2.41-2.33c.06-.14.12-.29.17-.44a5,5,0,0,1-2.13-2.94A27,27,0,0,1,214.64,261.19Z"/><path class="cls-17" d="M221.61,263.34c2.35.82,5.56-2.26,6.75-5.68a6.25,6.25,0,0,0,.19-4.08,4,4,0,0,0-.31-.7,3,3,0,0,1-1.13,1.4,6.81,6.81,0,0,1-2.8.92,9,9,0,0,0-2.86.8,7.65,7.65,0,0,0-1.55,1.26c-.22.21-.43.41-.66.6C219.13,260.43,219.93,262.76,221.61,263.34Z"/><path class="cls-5" d="M214.84,277.81c-.14-.45-.27-1-.4-1.58s-.23-1.28-.3-2-.09-1.39-.09-2a15.29,15.29,0,0,1,.08-1.63,4.1,4.1,0,0,1,.3-1.48c.13,0-.13,2.29.16,5.06s1,5,.83,5A4.09,4.09,0,0,1,214.84,277.81Z"/><path class="cls-5" d="M213.14,280.05a4.1,4.1,0,0,1,.05-.82,4.15,4.15,0,0,1,.08.81c0,.53.09,1.3.19,2.26a40.11,40.11,0,0,0,1.59,7.6l6.81.73c4.94.55,9.41,1.06,12.65,1.46,1.62.2,2.93.37,3.83.5a8.22,8.22,0,0,1,1.4.24,9.39,9.39,0,0,1-1.42-.07c-.91-.07-2.22-.19-3.84-.35-3.25-.32-7.73-.79-12.67-1.33l-6.94-.79h-.13l0-.13a35.1,35.1,0,0,1-1.49-7.82C213.14,281.35,213.13,280.58,213.14,280.05Z"/><polygon class="cls-14" points="235.8 294.44 239.67 279.23 263.28 278.69 259.57 293.83 258.79 296.88 235.18 296.88 226.06 296.88 226.06 294.85 235.8 294.44"/><polygon class="cls-22" points="145.83 295.84 145.84 295.84 150.87 247.37 151.44 247.37 147.44 295.64 188.53 295.55 188.86 296.13 188.73 296.73 145.75 296.67 145.83 295.84"/><path class="cls-24" d="M252.48,272.13l.28,4.87-3.32-3.94c-2.59.14-5.23.51-7.71-.25a9.79,9.79,0,0,1-5.94-4.71,6.83,6.83,0,0,1,.65-7.32,9.12,9.12,0,0,1,4.49-2.59,15.08,15.08,0,0,1,9-.22,9.32,9.32,0,0,1,6.25,6.15A7.37,7.37,0,0,1,252.48,272.13Z"/><path class="cls-5" d="M235.81,261.42s.13,0,.31-.17.19-.16.33-.26.27-.22.44-.34a14.45,14.45,0,0,1,1.27-.86,15.06,15.06,0,0,1,1.8-.9,15.4,15.4,0,0,1,2.32-.76,16.48,16.48,0,0,1,2.77-.4c.49,0,1,0,1.51,0a14.2,14.2,0,0,1,1.57.17,11.58,11.58,0,0,1,3.14,1,9.37,9.37,0,0,1,2.63,2,8.66,8.66,0,0,1,1.67,2.57,7.13,7.13,0,0,1,.41,1.37l0,.17,0,.17c0,.12,0,.23,0,.34s0,.45,0,.67a6.88,6.88,0,0,1-1.47,4.14c-.1.12-.19.24-.29.34l-.27.28c-.2.17-.37.34-.54.46l-.25.18-.22.13-.19.12-.17.09-.3.16a1.46,1.46,0,0,0,.32-.12l.18-.07.2-.11.23-.13.26-.17c.18-.11.36-.27.57-.43l.3-.29c.1-.09.19-.21.3-.32a7.34,7.34,0,0,0,1.11-1.78,7,7,0,0,0,.57-2.47c0-.23,0-.47,0-.7l0-.36,0-.19,0-.18a7.36,7.36,0,0,0-.39-1.46,8.66,8.66,0,0,0-1.68-2.78,9.78,9.78,0,0,0-2.74-2.16,11.57,11.57,0,0,0-3.31-1.12,12,12,0,0,0-1.65-.2c-.54,0-1.07,0-1.59,0a15.19,15.19,0,0,0-2.9.44,14.25,14.25,0,0,0-2.42.85,11.8,11.8,0,0,0-1.83,1,10.06,10.06,0,0,0-1.22,1c-.16.15-.29.3-.4.42a3.05,3.05,0,0,0-.27.33C235.84,261.29,235.78,261.4,235.81,261.42Z"/><path class="cls-5" d="M240.89,267.76c0-1.95.08-3.79.14-5.45V262h.34c4.4.14,7.42.33,7.42.49a44.76,44.76,0,0,1-6.78.21,43,43,0,0,1,3.61,2.72c2.28-1.64,4.17-2.81,4.3-2.64s-1.68,1.71-4.07,3.46l-.26.19-.25-.21-.07-.05a42.32,42.32,0,0,1-3.55-3.21c0,1.38,0,2.88,0,4.45,3,.06,5.77.14,8,.23a24.7,24.7,0,0,1,.39-4.6,28.17,28.17,0,0,1,.21,4.92v.3H250c-2.27,0-5.17,0-8.32-.06h-.75Z"/><path class="cls-8" d="M174.7,155.45q-.52,2.24-1.14,4.35c2.82-25.34-22.49-51.41-55-35.8a39.46,39.46,0,0,0-5.1,2.93c-9.39,6.36-15.77,16.72-16.84,26.95a30.37,30.37,0,0,0,1.51,13c-4.72-8.84-3.61-21.32,1.93-29.64,8.25-12.4,27.15-24.61,42.46-19.76.36.11.63-.44.28-.56-14.08-4.7-31.17,4.84-40.68,15.43-7.27,8.09-9.19,18.78-8.39,27.67,1,11.32,5.43,20,15.35,25.75-.88,6.09-5.2,12.41-5.2,12.41s8.43-2.34,13-7.6c13.94,5.35,23.94,3.14,27.45,1.86a52.27,52.27,0,0,0,17.21-10c-1.3,1.54-2.68,3-4.17,4.52-.44.44,0,1.1.51.72,9.77-7.08,17.18-20.12,17.74-32.34C175.67,154.8,174.82,154.93,174.7,155.45Z"/><path class="cls-5" d="M154.7,142.18c-1.22-.8-2.94.81-4.08,1.92-.21.21-18.12,18.56-18.29,18.72a24.18,24.18,0,0,0-2.8,3.09l-8.08-7.62c-1.18-1.06-3-2.6-4.16-1.75a1,1,0,0,0-.43,1.28c-.07.57,10.29,10.46,12.26,12.34a.42.42,0,0,0,.61,0c2.91-3.08,25.63-25.58,25.46-26.7A1,1,0,0,0,154.7,142.18Z"/></g></g></g></svg>