<svg xmlns="http://www.w3.org/2000/svg" viewBox="0 0 15.59 15.66"><defs><style>.cls-1{fill:#f7f7f7;stroke:#b12384;stroke-linecap:round;stroke-linejoin:round;}</style></defs><g id="Capa_2" data-name="Capa 2"><g id="Contenido"><path class="cls-1" d="M12.78,9.24a1.52,1.52,0,0,0-1.11-.51,1.58,1.58,0,0,0-1.12.5l-1,1-.25-.13L8.94,10A11.06,11.06,0,0,1,6.23,7.5a6.47,6.47,0,0,1-.88-1.4c.27-.24.52-.5.76-.75l.27-.28a1.5,1.5,0,0,0,0-2.27l-.89-.89-.31-.32c-.19-.2-.4-.41-.61-.61A1.58,1.58,0,0,0,3.47.5,1.62,1.62,0,0,0,2.35,1h0L1.23,2.12A2.44,2.44,0,0,0,.51,3.64,5.88,5.88,0,0,0,.93,6.08a14.37,14.37,0,0,0,2.52,4.19,15.34,15.34,0,0,0,5.14,4,7.94,7.94,0,0,0,2.89.85h.21a2.44,2.44,0,0,0,1.89-.82h0a6.37,6.37,0,0,1,.57-.6c.14-.13.29-.27.43-.42a1.65,1.65,0,0,0,.49-1.14,1.58,1.58,0,0,0-.5-1.12Z"/></g></g></svg>