<svg xmlns="http://www.w3.org/2000/svg" viewBox="0 0 235.38 62.51"><defs><style>.cls-1{fill:#fff;}</style></defs><g id="Capa_2" data-name="Capa 2"><g id="Contenido"><path class="cls-1" d="M46.88,0H15.63A15.67,15.67,0,0,0,0,15.63V46.88A15.67,15.67,0,0,0,15.63,62.51H46.88A15.67,15.67,0,0,0,62.51,46.88V15.63A15.67,15.67,0,0,0,46.88,0ZM39.13,41.13a.31.31,0,0,1-.33.33H36.66a.31.31,0,0,1-.33-.33V31.77c0-2.57-1.17-4.07-3.58-4.07a3.61,3.61,0,0,0-3.67,3.91v9.52a.32.32,0,0,1-.34.33H26.6a.31.31,0,0,1-.33-.33V31.77c0-2.57-1.17-4.07-3.58-4.07A3.59,3.59,0,0,0,19,31.61v9.52a.31.31,0,0,1-.33.33H16.55a.32.32,0,0,1-.34-.33V25.8a.32.32,0,0,1,.34-.34h2.14a.31.31,0,0,1,.33.34v1.46h0a5.08,5.08,0,0,1,4.48-2.17,5,5,0,0,1,4.68,2.51h0a6,6,0,0,1,5.18-2.51c3.71,0,5.71,2.37,5.71,6Zm7.06,0a.31.31,0,0,1-.33.33H43.72a.31.31,0,0,1-.33-.33V25.8a.31.31,0,0,1,.33-.34h2.14a.31.31,0,0,1,.33.34Zm.07-19.61a.31.31,0,0,1-.33.33H43.66a.31.31,0,0,1-.34-.33V19.08a.32.32,0,0,1,.34-.34h2.27a.32.32,0,0,1,.33.34Z"/><path class="cls-1" d="M91.54,5.84h1.84V29H91.54v-2c-.94,1.54-2.55,2.24-5.06,2.24-4.36,0-6.54-2.81-6.54-7.41V19.35c0-4.76,2.38-7.34,6.54-7.34,2.51,0,4.12.81,5.06,2.38Zm0,16V19.38c0-3.41-1.34-5.66-4.93-5.66-3.18,0-4.83,2-4.83,5.63v2.41c0,3.52,1.58,5.7,4.83,5.7C90.36,27.46,91.54,25.08,91.54,21.8Z"/><path class="cls-1" d="M104.11,19.45H109V17.37c0-2.85-1.14-3.62-4.22-3.62-2,0-3.32.14-4.39,1.91l-1.41-1c1.17-2,2.85-2.68,5.83-2.68,4.09,0,6,1.27,6,5.36V29H109V26.89c-.94,1.78-2.61,2.28-4.76,2.28-3.72,0-5.83-1.77-5.83-5S100.66,19.45,104.11,19.45ZM109,21.09h-4.89c-2.88,0-3.86,1.34-3.86,3.12,0,2.35,1.65,3.22,4,3.22,2.72,0,4.76-.94,4.76-4.69Z"/><path class="cls-1" d="M114.07,12.21h2.14V8.53h1.84v3.68h4.13v1.71h-4.13v9.39c0,2.68.31,3.88,3,3.88h1.11V29H121c-3.72,0-4.79-1.67-4.79-5.16V13.92h-2.14Z"/><path class="cls-1" d="M130.39,19.45h4.89V17.37c0-2.85-1.14-3.62-4.22-3.62-2,0-3.32.14-4.39,1.91l-1.41-1c1.17-2,2.85-2.68,5.83-2.68,4.09,0,6,1.27,6,5.36V29h-1.85V26.89c-.93,1.78-2.61,2.28-4.76,2.28-3.72,0-5.83-1.77-5.83-5S126.94,19.45,130.39,19.45Zm4.89,1.64h-4.89c-2.88,0-3.85,1.34-3.85,3.12,0,2.35,1.64,3.22,4,3.22,2.72,0,4.76-.94,4.76-4.69Z"/><path class="cls-1" d="M155.33,26.46c-1.11,1.77-3.08,2.71-5.7,2.71-4.49,0-7.07-2.68-7.07-7.41V19.35c0-4.76,2.65-7.34,7.07-7.34a6.66,6.66,0,0,1,5.67,2.58l-1.48,1a5.05,5.05,0,0,0-4.19-1.88c-3.32,0-5.23,2-5.23,5.63v2.41c0,3.32,1.54,5.7,5.23,5.7a4.72,4.72,0,0,0,4.22-2Z"/><path class="cls-1" d="M160.09,18.88V29h-1.84V12.21h1.84v2.28A4.28,4.28,0,0,1,164.31,12,5.49,5.49,0,0,1,169,14.32l-1.54,1.14a3.9,3.9,0,0,0-3.35-1.71C161.53,13.75,160.09,15.83,160.09,18.88Z"/><path class="cls-1" d="M172.23,21.06v.7c0,3.32,1.54,5.7,5.09,5.7,2,0,3.42-.6,4.36-2l1.47,1c-1.17,1.84-3,2.71-5.73,2.71-4.46,0-7-2.75-7-7.41V19.35c0-4.76,2.28-7.34,6.47-7.34s6.47,2.58,6.47,7.34v1.71Zm0-1.68h9.25v0c0-3.65-1.58-5.63-4.63-5.63s-4.62,2-4.62,5.63Zm5.83-14.71h2.21l-3,5.3h-1.78Z"/><path class="cls-1" d="M198.2,5.84h1.85V29H198.2v-2c-.94,1.54-2.54,2.24-5.06,2.24-4.36,0-6.53-2.81-6.53-7.41V19.35c0-4.76,2.38-7.34,6.53-7.34,2.52,0,4.12.81,5.06,2.38Zm0,16V19.38c0-3.41-1.34-5.66-4.92-5.66-3.19,0-4.83,2-4.83,5.63v2.41c0,3.52,1.57,5.7,4.83,5.7C197,27.46,198.2,25.08,198.2,21.8Z"/><path class="cls-1" d="M205,5.84h2.25V8.09H205Zm.2,6.37h1.85V29h-1.85Z"/><path class="cls-1" d="M210.81,12.21H213V8.53h1.85v3.68h4.12v1.71H214.8v9.39c0,2.68.3,3.88,3,3.88h1.11V29h-1.17C214,29,213,27.3,213,23.81V13.92h-2.14Z"/><path class="cls-1" d="M228.57,29.17c-4.32,0-6.8-2.68-6.8-7.37V19.35c0-4.76,2.51-7.34,6.8-7.34s6.81,2.58,6.81,7.34V21.8C235.38,26.36,233.07,29.17,228.57,29.17Zm5-9.82c0-3.65-1.78-5.63-5-5.63s-5,2-5,5.63V21.8c0,3.52,1.58,5.66,5,5.66s5-2.14,5-5.66Z"/><path class="cls-1" d="M108.23,42.57c3.54,0,5.71,2.31,5.71,6.4v1.88c0,3.72-1.83,6.46-5.71,6.46a4.44,4.44,0,0,1-3.89-1.66v6.86h-2.28V42.8h2.28v1.43A4.44,4.44,0,0,1,108.23,42.57Zm3.42,8.28V49c0-2.72-1.31-4.35-3.65-4.35s-3.66,1.58-3.66,4.15v2.08c0,2.46,1,4.4,3.66,4.4C110.43,55.25,111.65,53.28,111.65,50.85Z"/><path class="cls-1" d="M128,50.85c0,3.72-1.83,6.46-5.94,6.46-3.8,0-5.94-2.52-5.94-6.46V49c0-4.06,2.2-6.4,5.94-6.4S128,44.88,128,49Zm-2.28,0V49c0-2.72-1.32-4.35-3.66-4.35s-3.66,1.66-3.66,4.35v1.88c0,2.46,1,4.4,3.66,4.4C124.45,55.25,125.68,53.28,125.68,50.85Z"/><path class="cls-1" d="M130.82,42.8h2.28v1.4c.72-1.09,1.72-1.63,3.83-1.63,3.06,0,5.2,1.6,5.2,5.6v8.91h-2.29V48.2c0-2.89-1.57-3.52-3.25-3.52a3.33,3.33,0,0,0-3.49,3.49v8.91h-2.28Z"/><path class="cls-1" d="M144.44,42.8h1.83V39.65h2.28V42.8h3.29v2.05h-3.29v7.26c0,2,.23,2.8,2.15,2.8h1.14v2.17h-1.23c-3.37,0-4.34-1.43-4.34-4.4V44.85h-1.83Z"/><path class="cls-1" d="M165,54.91c-1,1.74-2.52,2.4-5,2.4-3.83,0-6.11-2.49-6.11-6.46V49c0-4.06,1.91-6.4,5.65-6.4s5.66,2.31,5.66,6.4v1.48h-9v.4c0,2.46,1.17,4.4,3.66,4.4,1.85,0,2.8-.54,3.4-1.6Zm-8.83-6.46h6.71c-.11-2.4-1.17-3.83-3.34-3.83S156.26,46.08,156.12,48.45Z"/><path class="cls-1" d="M180,48.82h3.4V47.17c0-2-.94-2.49-3.17-2.49-1.72,0-2.63.14-3.43,1.46l-1.71-1.2c1-1.66,2.45-2.37,5.17-2.37,3.63,0,5.42,1.17,5.42,4.6v9.91h-2.28v-1.4c-.8,1.31-1.77,1.63-3.63,1.63-3.31,0-5.11-1.63-5.11-4.4C174.63,49.82,176.83,48.82,180,48.82Zm3.4,2H180c-2.26,0-3.06.77-3.06,2.2,0,1.6,1.15,2.22,2.83,2.22,2.11,0,3.63-.4,3.63-3.6Z"/><path class="cls-1" d="M189.22,37.37h2.29V52.11c0,1.54.08,2.86,2.43,2.86v2.11c-3.6,0-4.72-1.43-4.72-4.4Z"/><path class="cls-1" d="M212.79,37.37h2.28V57.08h-2.28V55.82c-.77,1-2,1.49-3.89,1.49-3.88,0-5.71-2.74-5.71-6.46V49c0-4.09,2.17-6.4,5.71-6.4a4.44,4.44,0,0,1,3.89,1.66Zm0,13.68V49c0-2.69-1.32-4.35-3.66-4.35s-3.66,1.63-3.66,4.35v1.88c0,2.43,1.23,4.4,3.66,4.4S212.79,53.42,212.79,51.05Z"/><path class="cls-1" d="M220.93,36.37h2.74l-2.6,4.51h-2.14Zm-2,6.43h2.28V57.08h-2.28Z"/><path class="cls-1" d="M229.69,48.82h3.4V47.17c0-2-.94-2.49-3.17-2.49-1.71,0-2.63.14-3.43,1.46l-1.71-1.2c1-1.66,2.46-2.37,5.17-2.37,3.63,0,5.43,1.17,5.43,4.6v9.91h-2.29v-1.4c-.8,1.31-1.77,1.63-3.62,1.63-3.32,0-5.12-1.63-5.12-4.4C224.35,49.82,226.55,48.82,229.69,48.82Zm3.4,2h-3.4c-2.25,0-3.05.77-3.05,2.2,0,1.6,1.14,2.22,2.83,2.22,2.11,0,3.62-.4,3.62-3.6Z"/></g></g></svg>