<svg xmlns="http://www.w3.org/2000/svg" viewBox="0 0 387.05 599.2"><defs><style>.cls-1{isolation:isolate;}.cls-2{fill:#ba2f7d;}.cls-3{opacity:0.3;}.cls-21,.cls-3{mix-blend-mode:multiply;}.cls-4{fill:#ddd6fc;}.cls-5{fill:#eeeafe;}.cls-6{fill:#7f65c1;}.cls-7{fill:none;stroke:#eeeafe;stroke-miterlimit:10;}.cls-8{fill:#3b2b5b;}.cls-9{fill:#f98a8a;}.cls-10{fill:#30193b;}.cls-11{fill:#ff97a6;}.cls-12{fill:#aacbe8;}.cls-13{fill:#99b4dd;}.cls-14{fill:#c95d77;}.cls-15{fill:#6a54af;}.cls-16{fill:#fd9e38;}.cls-17{fill:#ffcb48;}.cls-18{fill:#cbb3fc;}.cls-19{fill:#dbcffd;}.cls-20{fill:#fff;}.cls-21{fill:#b5b5b5;}.cls-22{fill:#80540a;}.cls-23{fill:#ad7121;}.cls-24{fill:#d5eaf5;}</style></defs><g class="cls-1"><g id="Capa_2" data-name="Capa 2"><g id="Alertas"><path class="cls-2" d="M367,599.2a20,20,0,0,0,20-20V20.56a20,20,0,0,0-20-20H81.2a404.36,404.36,0,0,0-41,110.23C13.39,237.63,16.77,372,53.43,496.6c9.51,32.35,21.94,64,39.26,93q2.86,4.8,5.92,9.56Z"/><path class="cls-2" d="M41.19,15.07C43.12,9.88,45.1,4.9,47.15,0H68.76A660.52,660.52,0,0,0,30,129.63a728.33,728.33,0,0,0-12,94.41c-1.8,32.07-.56,64-.9,96.16-.09,8.26-9.25,8.92-10.86.94-7.38-36.8-7.11-76.16-5-113.36A662.84,662.84,0,0,1,41.19,15.07Z"/><path class="cls-2" d="M16.71,336.58c-8.62-2-10.54,11.16-1.91,13.13S25.34,338.54,16.71,336.58Z"/><g class="cls-3"><path d="M289,426.71c0,3.15-43.64,5.71-97.48,5.71S94,429.86,94,426.71,137.64,421,191.48,421,289,423.55,289,426.71Z"/></g><rect class="cls-4" x="69.82" y="214.59" width="245.44" height="177.61" rx="25.23" transform="translate(-110.85 495.93) rotate(-90)"/><rect class="cls-5" x="84.18" y="228.5" width="216.72" height="149.78" rx="9.88" transform="translate(-110.85 495.93) rotate(-90)"/><rect class="cls-6" x="176.11" y="160.82" width="32.87" height="131.77" rx="3.28" transform="translate(-34.16 419.24) rotate(-90)"/><rect class="cls-4" x="125.99" y="265.18" width="27.52" height="26.19" rx="2.75" transform="translate(-138.53 418.03) rotate(-90)"/><rect class="cls-4" x="161.18" y="265.18" width="27.52" height="26.19" rx="2.75" transform="translate(-103.33 453.22) rotate(-90)"/><rect class="cls-4" x="196.38" y="265.18" width="27.52" height="26.19" rx="2.75" transform="translate(-68.14 488.41) rotate(-90)"/><rect class="cls-4" x="231.57" y="265.18" width="27.52" height="26.19" rx="2.75" transform="translate(-32.95 523.6) rotate(-90)"/><rect class="cls-4" x="125.99" y="300.53" width="27.52" height="26.19" rx="2.75" transform="translate(-173.87 453.38) rotate(-90)"/><rect class="cls-4" x="161.18" y="300.53" width="27.52" height="26.19" rx="2.75" transform="translate(-138.68 488.57) rotate(-90)"/><rect class="cls-4" x="196.38" y="300.53" width="27.52" height="26.19" rx="2.75" transform="translate(-103.49 523.76) rotate(-90)"/><rect class="cls-4" x="231.57" y="300.53" width="27.52" height="26.19" rx="2.75" transform="translate(-68.3 558.95) rotate(-90)"/><rect class="cls-4" x="125.99" y="335.88" width="27.52" height="26.19" rx="2.75" transform="translate(-209.22 488.73) rotate(-90)"/><rect class="cls-4" x="161.18" y="335.88" width="27.52" height="26.19" rx="2.75" transform="translate(-174.03 523.92) rotate(-90)"/><rect class="cls-4" x="196.38" y="335.88" width="27.52" height="26.19" rx="2.75" transform="translate(-138.84 559.11) rotate(-90)"/><rect class="cls-4" x="213.89" y="353.55" width="62.87" height="26.19" rx="4.15" transform="translate(-121.32 611.98) rotate(-90)"/><rect class="cls-4" x="125.99" y="371.23" width="27.52" height="26.19" rx="2.75" transform="translate(-244.57 524.08) rotate(-90)"/><rect class="cls-4" x="161.18" y="371.23" width="27.52" height="26.19" rx="2.75" transform="translate(-209.38 559.27) rotate(-90)"/><rect class="cls-4" x="196.38" y="371.23" width="27.52" height="26.19" rx="2.75" transform="translate(-174.19 594.46) rotate(-90)"/><line class="cls-7" x1="240.87" y1="216.47" x2="249.12" y2="216.47"/><line class="cls-7" x1="240.06" y1="217.29" x2="240.06" y2="225.54"/><line class="cls-7" x1="249.93" y1="225.54" x2="249.93" y2="217.29"/><line class="cls-7" x1="240.06" y1="227.17" x2="240.06" y2="235.42"/><line class="cls-7" x1="249.12" y1="236.23" x2="240.87" y2="236.23"/><line class="cls-7" x1="249.93" y1="235.42" x2="249.93" y2="227.17"/><line class="cls-7" x1="226.19" y1="216.47" x2="234.44" y2="216.47"/><line class="cls-7" x1="234.44" y1="226.35" x2="226.19" y2="226.35"/><line class="cls-7" x1="235.26" y1="225.54" x2="235.26" y2="217.29"/><line class="cls-7" x1="225.38" y1="227.17" x2="225.38" y2="235.42"/><line class="cls-7" x1="234.44" y1="236.23" x2="226.19" y2="236.23"/><line class="cls-7" x1="211.51" y1="216.47" x2="219.76" y2="216.47"/><line class="cls-7" x1="210.7" y1="217.29" x2="210.7" y2="225.54"/><line class="cls-7" x1="219.76" y1="226.35" x2="211.51" y2="226.35"/><line class="cls-7" x1="219.76" y1="236.23" x2="211.51" y2="236.23"/><line class="cls-7" x1="220.58" y1="235.42" x2="220.58" y2="227.17"/><line class="cls-7" x1="205.9" y1="236.23" x2="203.61" y2="236.23"/><line class="cls-7" x1="188.93" y1="217.29" x2="188.93" y2="225.54"/><line class="cls-7" x1="198" y1="226.35" x2="189.75" y2="226.35"/><line class="cls-7" x1="198.81" y1="225.54" x2="198.81" y2="217.29"/><line class="cls-7" x1="198.81" y1="235.42" x2="198.81" y2="227.17"/><line class="cls-7" x1="175.07" y1="216.47" x2="183.32" y2="216.47"/><line class="cls-7" x1="183.32" y1="226.35" x2="175.07" y2="226.35"/><line class="cls-7" x1="184.13" y1="225.54" x2="184.13" y2="217.29"/><line class="cls-7" x1="183.32" y1="236.23" x2="175.07" y2="236.23"/><line class="cls-7" x1="184.13" y1="235.42" x2="184.13" y2="227.17"/><path class="cls-8" d="M300,193.19a6.63,6.63,0,0,1,5.65-.62c2.59,1.07,2.18,3,2.18,3s5.69-2.69,10.58,4.62-4.15,14.37-6.87,13.72-20.79-8.33-20.79-8.33,0-11.68,2.52-12.75S300,193.19,300,193.19Z"/><path class="cls-9" d="M290.05,226.1c4.27.31,1.48,28.37,2.14,40.85a66.76,66.76,0,0,0,1.63,11.51l6.27,35,.62-.14s3.56-27.06,2-41.52c-1.13-10.16,10.51-32.63,1-46.61C300.85,224.65,294.38,225.72,290.05,226.1Z"/><path class="cls-10" d="M295.46,315.49c.15-.41,1.67-1.12,2.8-1.5-.34.22-.66.54-.13.68a3.83,3.83,0,0,0,3-.67,3.6,3.6,0,0,1,.26,1.42C301.38,316,295.11,316.43,295.46,315.49Z"/><path class="cls-9" d="M298.13,314.67c-.53-.14-.21-.46.13-.68.69-.24,1.28-.41,1.41-.47a.8.8,0,0,0,.42-.49l.36-.08s.6.93.66,1.05A3.83,3.83,0,0,1,298.13,314.67Z"/><path class="cls-11" d="M294.77,226.47c0,.21,12.33,46.1,12.33,46.1L312,312.91l.71.25s7.65-29.42,3.15-42.82c-2.24-6.66,2-17.09,1.85-29-.09-5.39-2.37-12.18-6.86-15.93C308,225,299.08,225.92,294.77,226.47Z"/><path class="cls-8" d="M310.38,225.62s3.06.27,6.66,9.69,1.51,28.11,1.51,28.11-18.05,6.64-28.22,2.28L292,230Z"/><path class="cls-10" d="M310.38,225.62s3.06.27,6.66,9.69,1.51,28.11,1.51,28.11A74.12,74.12,0,0,1,303.3,267l-2.53.12s-.07-15.5,0-20.75c.22-12.43-1.27-18.43-1.27-18.43Z"/><path class="cls-10" d="M307.41,315.35c.14-.41,1.63-1.18,2.74-1.6-.33.24-.64.57-.1.69a3.87,3.87,0,0,0,2.95-.79,3.88,3.88,0,0,1,.32,1.41C313.35,315.59,307.1,316.32,307.41,315.35Z"/><path class="cls-11" d="M310.05,314.44c-.54-.12-.23-.45.1-.69.68-.26,1.26-.45,1.39-.52a.86.86,0,0,0,.41-.5l.35-.1s.63.9.7,1A3.87,3.87,0,0,1,310.05,314.44Z"/><path class="cls-12" d="M289.08,222.66s-13.73-.34-16.84-2.11a3.43,3.43,0,0,1-.77-1c-1-1.75-2.39-5.51,4.44-4.92a43.93,43.93,0,0,1,13.29,3.26S288.89,218.71,289.08,222.66Z"/><path class="cls-12" d="M297,202.15s-5.73,12.89-9.52,17.27c-4.94,5.72-4.36-3.13-4.36-3.13s2.05-7.25,4.35-10.48C289.64,202.8,296.7,198.54,297,202.15Z"/><path class="cls-13" d="M289,208.87c-.68,5.6-.91,7.88,1.1,15,.58,2.08,20.55,3.37,20.78,2.18.08-.43.73-3.8,1.08-5.59,1.7-8.59,2.34-11.09,1.12-14.26-.86-2.21-1.34-4.8-12.89-5.87a12,12,0,0,0-7.46,1.53C290.71,203.23,289.32,206.53,289,208.87Z"/><path class="cls-12" d="M299.71,200.25a35.09,35.09,0,0,0-2.93,11.38A54.33,54.33,0,0,0,298,225.91s-4.86.07-7.27-1.38a1.61,1.61,0,0,1-.73-.95c-.61-2.34-2.9-11.94-.91-17.54C291.32,199.62,299.71,200.25,299.71,200.25Z"/><path class="cls-12" d="M306.45,221.76c.32-2.14,1.33-9.08,1.33-9.08s0-13,4.4-8.27c3,3.21,1.3,15.3-1.37,22.24C309.84,229.19,305.72,226.65,306.45,221.76Z"/><path class="cls-12" d="M303.81,222.22s-15.94,3.35-16.48,5.77,2,4.61,6.52,5.08c2,.2,14.1-.13,16.73-6C313,221.62,303.81,222.22,303.81,222.22Z"/><path class="cls-11" d="M297.12,196.9s1.2,4.09,1.6,4.44,1.42.59,1.46-.58-1.84-4.38-1.84-4.38Z"/><path class="cls-14" d="M297.9,199.39c.59.38,1.84.35,1.73-.48a15.52,15.52,0,0,0-.82-1.68l-1.45.61C297.54,198.43,297.66,198.72,297.9,199.39Z"/><path class="cls-11" d="M299.78,195.81a11.58,11.58,0,0,0-1.42-2.95c-1.38-1.37-4.65,1.18-5,1.84s0,1.61.35,2.27a5.36,5.36,0,0,0,1.8,2.09A3.43,3.43,0,0,0,298,199C299.78,198,300.05,197.26,299.78,195.81Z"/><polygon class="cls-6" points="309.48 222.31 309.45 224.25 300.07 228.61 292.16 228.23 300.14 226.13 309.48 222.31"/><polygon class="cls-12" points="274.3 225.47 299.76 226.29 309.48 222.31 274.37 221.67 274.3 225.47"/><polygon class="cls-15" points="274.26 227.37 300.07 228.61 296.93 208.14 270.95 208.45 274.26 227.37"/><polygon class="cls-6" points="301.01 227.95 300.07 228.61 296.93 208.14 298.06 207.9 301.01 227.95"/><polygon class="cls-6" points="298.05 207.9 273.03 208.22 270.95 208.46 296.92 208.14 298.05 207.9"/><path class="cls-11" d="M286.32,228.69a2.46,2.46,0,0,1-.66-1.62c0-.3.19-.36.19-.36s-.09-.39.18-.4.61.71,1.07,1.12a4.52,4.52,0,0,0,.87.58s-.27-.74,0-.79.52.86.69,1.3S286.89,229.27,286.32,228.69Z"/><path class="cls-11" d="M287.72,227.87c-.49-.65-1-1.77-1.15-1.68s-.11.58.2,1.16A1,1,0,0,0,287.72,227.87Z"/><path class="cls-11" d="M272.51,217.33a5.35,5.35,0,0,0,.9-.75,2.2,2.2,0,0,0,.27-.27c.08-.07.22-.16.16-.28a.13.13,0,0,0-.15-.07h0l-.07,0-.05,0-.15.06a1.55,1.55,0,0,0,.19-.24c.05-.09.21-.28.2-.4s0-.08-.08-.12-.1,0-.13,0,0-.1,0-.13-.33-.32-.73,0c.16-.21.05-.28,0-.26a1.79,1.79,0,0,0-.88.59C271.7,215.88,272.35,217.44,272.51,217.33Z"/><path class="cls-8" d="M294.43,192.72s.13,4.11,4,4.25c0,0,.22,5.19,5,5.19s5.33-.24,5.33-.24l-2-6.9Z"/><path class="cls-16" d="M294.47,194.57l.09.46a.23.23,0,0,0,.27.19.25.25,0,0,0,.19-.28l-.09-.46Zm.34.51a.09.09,0,0,1-.11-.07.09.09,0,0,1,.07-.11.09.09,0,1,1,0,.18Z"/><path class="cls-8" d="M297.36,194.08l.72.74a.19.19,0,0,0,.19.05l1.19-.25.12.21A2,2,0,0,0,300,194C300,193.63,297.36,194.08,297.36,194.08Z"/><path class="cls-17" d="M290.83,196.19s-.24.55,2.51-.65a3,3,0,0,0,.56-.3,6,6,0,0,1,2.74-1.1c1.39,0,1.26.37,2.25.23s1.84-.48,1.82-.69c0,0,0-.08-.26-.05l-.34-1-.2-.1s-1-3.59-4.2-3.09-3.47,2.32-3.65,3.2a10.22,10.22,0,0,0-.07,2.06.84.84,0,0,1-.36.71C291.29,195.63,290.85,196,290.83,196.19Z"/><path class="cls-16" d="M300,192.59a5.28,5.28,0,0,1-2.89.53,6.18,6.18,0,0,0-3.28.8c-.91.29-1.34.46-1.34.46a4.7,4.7,0,0,1-.42,1,3.29,3.29,0,0,0,2.26-.59c1.52-.82,2.07-.9,2.79-.83s1.1.39,1.69.29,1.57-.4,1.61-.57A5,5,0,0,0,300,192.59Z"/><path class="cls-17" d="M293,195.29l-.08-.62a.15.15,0,0,1,.1-.15l.43-.11a.14.14,0,0,1,.17.09l.13.55A2.24,2.24,0,0,1,293,195.29Z"/><path class="cls-16" d="M292.88,191.27a4.15,4.15,0,0,1,1.2-1.16,4.44,4.44,0,0,1,.76-.37,4.81,4.81,0,0,1,.84-.17,5.9,5.9,0,0,1,.84,0,3.45,3.45,0,0,1,.84.15,3.31,3.31,0,0,1,1.38.93,4.4,4.4,0,0,0-1.44-.71,4.71,4.71,0,0,0-1.59,0,4,4,0,0,0-.78.15,5.21,5.21,0,0,0-.74.3A6.39,6.39,0,0,0,292.88,191.27Z"/><g class="cls-3"><path d="M338.79,443.34c0,4-15.91,7.15-35.54,7.15s-35.55-3.2-35.55-7.15,15.92-7.15,35.55-7.15S338.79,439.39,338.79,443.34Z"/></g><path class="cls-6" d="M316.19,407.83a1,1,0,0,1-.52-.15l-24.16-16.15a.92.92,0,0,1-.26-1.27.91.91,0,0,1,1.27-.25l24.16,16.14a.92.92,0,0,1,.26,1.27A1,1,0,0,1,316.19,407.83Z"/><path class="cls-6" d="M315.73,424.43a.93.93,0,0,1-.53-.17l-23.85-16.59a.91.91,0,1,1,1-1.5l23.86,16.59a.92.92,0,0,1-.52,1.67Z"/><path class="cls-18" d="M291.87,424.43a.92.92,0,0,1-.51-1.68l24.45-16.59a.93.93,0,0,1,1.27.24.92.92,0,0,1-.25,1.27l-24.45,16.6A.86.86,0,0,1,291.87,424.43Z"/><path class="cls-6" d="M310.2,438.87a.92.92,0,0,1-.45-.12L291.06,428a.92.92,0,0,1,.91-1.59l18.69,10.71a.92.92,0,0,1,.34,1.25A.93.93,0,0,1,310.2,438.87Z"/><path class="cls-6" d="M297.24,438.87a.92.92,0,0,1-.79-.46.9.9,0,0,1,.33-1.25l19-11a.92.92,0,0,1,.92,1.59l-19,11A.89.89,0,0,1,297.24,438.87Z"/><rect class="cls-6" x="289.11" y="437.95" width="30.5" height="1.31"/><polygon class="cls-6" points="286.72 428.16 289.48 438.61 291.2 438.61 291.2 428.16 286.72 428.16"/><path class="cls-19" d="M294.67,438.62a5,5,0,1,1-5-5A5,5,0,0,1,294.67,438.62Z"/><path class="cls-6" d="M291.2,438.62a1.58,1.58,0,1,1-1.57-1.57A1.57,1.57,0,0,1,291.2,438.62Z"/><polygon class="cls-6" points="322.95 427.84 320.19 438.28 318.47 438.28 318.47 427.84 322.95 427.84"/><path class="cls-19" d="M315,438.3a5,5,0,1,0,5.05-5.05A5,5,0,0,0,315,438.3Z"/><path class="cls-6" d="M318.47,438.3a1.58,1.58,0,1,0,1.58-1.58A1.58,1.58,0,0,0,318.47,438.3Z"/><rect class="cls-19" x="285.05" y="423.51" width="40.04" height="5.06"/><path class="cls-6" d="M316.89,341a.94.94,0,0,1-.53-.16l-23.85-16.6a.9.9,0,0,1-.23-1.27.92.92,0,0,1,1.27-.23l23.86,16.6a.91.91,0,0,1-.52,1.66Z"/><path class="cls-6" d="M316.59,357.84a.91.91,0,0,1-.52-.16l-23.86-16.6a.92.92,0,1,1,1.05-1.5l23.85,16.6a.9.9,0,0,1,.23,1.27A.92.92,0,0,1,316.59,357.84Z"/><path class="cls-18" d="M292.74,341.25a.91.91,0,0,1-.52-1.67L317,322.7a.91.91,0,0,1,1.27.24.92.92,0,0,1-.24,1.27l-24.75,16.88A.9.9,0,0,1,292.74,341.25Z"/><path class="cls-18" d="M292.74,357.84a.91.91,0,0,1-.52-1.67l24.45-16.59a.91.91,0,1,1,1,1.51l-24.45,16.59A.9.9,0,0,1,292.74,357.84Z"/><path class="cls-6" d="M316.17,374.65a.91.91,0,0,1-.52-.16l-23.86-16.6a.92.92,0,1,1,1-1.5L316.69,373a.91.91,0,0,1-.52,1.66Z"/><path class="cls-6" d="M315.87,391.53a.91.91,0,0,1-.52-.16l-23.86-16.6a.91.91,0,0,1-.22-1.27.9.9,0,0,1,1.27-.23l23.86,16.59a.92.92,0,0,1-.53,1.67Z"/><path class="cls-18" d="M292,374.94a.93.93,0,0,1-.76-.4.91.91,0,0,1,.24-1.27l24.75-16.88a.91.91,0,1,1,1,1.51l-24.75,16.88A.88.88,0,0,1,292,374.94Z"/><path class="cls-18" d="M292,391.53a.91.91,0,0,1-.52-1.67L316,373.26a.93.93,0,0,1,1.28.25.92.92,0,0,1-.25,1.27l-24.45,16.59A.88.88,0,0,1,292,391.53Z"/><path class="cls-18" d="M324.63,323.44H284.7V261.3A4.31,4.31,0,0,1,289,257h31.31a4.32,4.32,0,0,1,4.31,4.31Zm-39-.92h38.09V261.3a3.39,3.39,0,0,0-3.39-3.39H289a3.39,3.39,0,0,0-3.39,3.39Z"/><rect class="cls-18" x="297.03" y="257.26" width="0.92" height="62.99"/><rect class="cls-18" x="289.6" y="257.26" width="0.92" height="62.99"/><rect class="cls-18" x="304.46" y="257.26" width="0.92" height="62.99"/><rect class="cls-18" x="319.32" y="257.26" width="0.92" height="62.99"/><rect class="cls-18" x="311.89" y="257.73" width="0.92" height="62.04"/><rect class="cls-19" x="284.65" y="316.57" width="39.96" height="6.88"/><path class="cls-18" d="M291.72,408.05a.93.93,0,0,1-.76-.4.92.92,0,0,1,.25-1.27l24.45-16.59a.91.91,0,0,1,1.27.24.92.92,0,0,1-.24,1.27l-24.46,16.59A.86.86,0,0,1,291.72,408.05Z"/><path class="cls-20" d="M234.44,178.7a14.18,14.18,0,0,1,5.95-6.75l0,0a20.4,20.4,0,0,1,4.74-2.9,27.55,27.55,0,0,1,16-2,30.39,30.39,0,0,1,13.78,6.2c3.06,2.43,7.88,6.63,6.34,11.93a7.91,7.91,0,0,1-2.52,3.81.2.2,0,0,0,0,.26c1.38,1.79,4,4.74,6.84,5.82.15.06.13.34,0,.35a27.13,27.13,0,0,1-14.12-2.91.1.1,0,0,0-.09,0l-1.18.34a44.26,44.26,0,0,1-16.94,1.68C247.35,194,229.63,191.09,234.44,178.7Z"/><path class="cls-21" d="M154.45,446.82c-17.51,0-31.71,1.81-31.71,4s14.2,4,31.71,4,31.72-1.81,31.72-4S172,446.82,154.45,446.82Z"/><path class="cls-13" d="M177.47,332.24a1.05,1.05,0,0,0-1.14.55c-1.58,3-8,16.52-8.86,18.06s-.31,4.65,2.94,3.5c1.25-.44,5.68-3.93,7.1-5.27C182.51,344.37,187.42,334.09,177.47,332.24Z"/><path class="cls-13" d="M154.45,339.23s.47,2.61,4.09,7a37.33,37.33,0,0,0,9.82,8.19l2.42-4.14s-7.54-7.87-11.37-11C157.23,337.43,154.45,339.23,154.45,339.23Z"/><path class="cls-10" d="M176.75,450.29c.07-1.73-2.16-1.34-3.48-1.5.37.19.82.47.29.67a4.05,4.05,0,0,1-3.15-.33,3.73,3.73,0,0,0-.12,1.47C170.35,451.14,176.74,450.75,176.75,450.29Z"/><path class="cls-11" d="M173.56,449.46c.53-.2.67-.6-.18-.66a6.21,6.21,0,0,1-1.54-.33c-.37-.12-.55-.67-.55-.67l-.68,0s-.16,1.16-.2,1.29A4.05,4.05,0,0,0,173.56,449.46Z"/><path class="cls-10" d="M131,451c-.33-1.71,1.93-1.66,3.21-2-.34.25-.74.59-.18.72a4.13,4.13,0,0,0,3.06-.81,3.61,3.61,0,0,1,.34,1.44C137.45,450.85,131.08,451.45,131,451Z"/><path class="cls-11" d="M134,449.69c-.56-.13-.76-.5.08-.69a6.29,6.29,0,0,0,1.47-.55c.34-.18.44-.76.44-.76l.68-.06s.33,1.12.39,1.25A4.13,4.13,0,0,1,134,449.69Z"/><path class="cls-8" d="M136.4,370.51c2.06-5.84,3.66-9.38,4.67-10,3.09-.16,17.4.53,18.63.45,1.07.47,2.57,3.89,4.68,10,5.15,14.83,8.73,76.78,8.73,76.78l-3.2.46s-7.3-25.43-12-45.4c-2.85-12.17-6.68-25.4-6.79-25.54-1.14,5.51-11.9,59.55-12.6,69.17-.12,1.62-3.21,2.84-3.35,1.53C134.19,438.22,131.17,385.3,136.4,370.51Z"/><path class="cls-22" d="M150.21,335.3a18,18,0,0,1-2-4c-.39-1.54-1-2.85,0-3s4-.45,4.6-3.34a3.54,3.54,0,0,0-.41-1.68.17.17,0,0,1,.23-.22,6.24,6.24,0,0,1,3.22,3.18,7.87,7.87,0,0,1-.08,5.13c-.17.6-.83,2.12-.83,2.12Z"/><path class="cls-23" d="M148.21,331.31c-.19-.46-.36-.91-.53-1.37a5.74,5.74,0,0,1-.2-.74,1,1,0,0,1,.2-.87.86.86,0,0,1,.44-.23,3.48,3.48,0,0,1,.38-.07c.23,0,.47-.08.69-.14a5.83,5.83,0,0,0,1.32-.43,3.63,3.63,0,0,0,1.91-1.83,5,5,0,0,0,.23-.65,1.58,1.58,0,0,0,0-.65,5.88,5.88,0,0,0-.16-.7c0-.12-.08-.21-.11-.36a.19.19,0,0,1,.29-.18.15.15,0,0,0-.2.17l.17.31a7.17,7.17,0,0,1,.3.69,1.83,1.83,0,0,1,.1.79,4.82,4.82,0,0,1-.18.75,3.76,3.76,0,0,1-2.09,2.21,6.48,6.48,0,0,1-1.46.45l-.74.1a1.12,1.12,0,0,0-.56.11c-.1.06-.14.28-.13.5a4.3,4.3,0,0,0,.08.69C148,330.34,148.16,330.82,148.21,331.31Z"/><path class="cls-12" d="M146.48,337.88a10.72,10.72,0,0,0-6.22.89c-5.11,2.11-12.77,6.94-14.54,11.53-2,5.24,1.76,17.83,8.07,18.73,2.35.33,3.29-3.31,3.29-3.31l-5.22-14.49,12.42-9.43Z"/><path class="cls-11" d="M135.92,367s1-2.72,2-2.6,2.55.28,2.61.7-1.1.29-1.1.29a8.36,8.36,0,0,1,.86.89c.09.18-.52.25-.52.25a.51.51,0,0,1,.16.53c-.1.35-.81-.2-1.25-.17s-1.53,1.29-2.41,1.4C135.89,368.33,135.61,367.74,135.92,367Z"/><path class="cls-11" d="M179.94,333.74a.44.44,0,0,0,.48-.17c.28-.41,1.75-1.23,2.27-2,0,0,.78-1.16.53-1.88,0,0-.22-.14-.36.26,0,0,.2-1.11-.09-1.31s-.54.25-.54.25a.28.28,0,0,0-.37-.2c-.17.06-.47.75-1,1.31-.37.39-.93.74-1,1.05,0,0,0-.93-.24-.89s-.57,1.63-.38,2.11a4.76,4.76,0,0,1,0,.9C179.21,333.39,179.62,333.64,179.94,333.74Z"/><path class="cls-10" d="M151.08,360.73c4.12.15,8,.3,8.62.26,1.07.47,2.57,3.89,4.68,10,5.15,14.83,8.73,76.78,8.73,76.78l-1.34.19s-2.2-29.44-7-49.39C158.79,373.42,147,360.59,151.08,360.73Z"/><path class="cls-12" d="M136.9,341s6.46-3.71,9-3.23a32.12,32.12,0,0,0,9.76.73c2.16-.2,2.91.24,4.23,2,3.67,4.84.25,20.84.25,20.84S153.58,363,149.66,363c-6.53,0-9.18-1.87-9.18-1.87a71.29,71.29,0,0,0-.33-8.21C139.49,349.32,136.9,341,136.9,341Z"/><path class="cls-11" d="M150.92,335.34s-.55,3.16-.22,3.49a1.58,1.58,0,0,0,2.17-.07c.65-.82-.13-3.51-.13-3.51Z"/><path class="cls-14" d="M150.63,337.54a3.75,3.75,0,0,0,2.5,0,8.81,8.81,0,0,0-.2-1.7l-2.11.11C150.75,336.43,150.67,337,150.63,337.54Z"/><path class="cls-11" d="M155.57,334.33a9.86,9.86,0,0,0-.06-2.79,1.64,1.64,0,0,0-1.84-1.46,11.23,11.23,0,0,0-3.38.78c-.63.49-.57,1.45-.55,2.16a5.24,5.24,0,0,0,.8,2.55,3.31,3.31,0,0,0,2.25.87C154.74,336.26,155.26,335.72,155.57,334.33Z"/><path class="cls-13" d="M155.65,338.5s2.93-.59,4.25,1.15c3.67,4.84.23,21.66.23,21.66a20.72,20.72,0,0,1-5.38,1.69,30.1,30.1,0,0,1-5.09,0,33.56,33.56,0,0,0,6-10.81C157.52,346.16,155.65,338.5,155.65,338.5Z"/><path class="cls-17" d="M200.79,357.45a10.82,10.82,0,0,0,2.68-.73l-7.13-8.51.73-4.63,4.6-.28,2.88,3.06,4.75,5.05a.43.43,0,0,0,0-.07,11.49,11.49,0,0,0-11.89-16.63,12,12,0,0,0-1.35.29l-4.71-5.44.14-.1-11.87-13.72a11.47,11.47,0,0,0-12.18-16,10.78,10.78,0,0,0-2.69.73l7.14,8.51-.74,4.63-4.6.28-2.87-3.06L159,305.8l0,.07a11.49,11.49,0,0,0,11.89,16.63,12,12,0,0,0,1.35-.29l5.82,6.73-.13.11,10.75,12.42a11.37,11.37,0,0,0-.85,6.28A11.49,11.49,0,0,0,200.79,357.45Z"/><path class="cls-24" d="M319,145.16a.54.54,0,0,0-.37-.46l-1.15-.41a.58.58,0,0,1-.36-.39,8.27,8.27,0,0,0-.4-1.22,9.52,9.52,0,0,0-.58-1.15.49.49,0,0,1,0-.51l.53-1.06a.55.55,0,0,0-.06-.59,11.28,11.28,0,0,0-1.44-1.41.59.59,0,0,0-.6-.07l-1.11.49a.55.55,0,0,1-.53,0,9.64,9.64,0,0,0-2.44-1,.57.57,0,0,1-.39-.35l-.4-1.12a.56.56,0,0,0-.47-.36l-.27,0h-.79q-.49,0-1,0a.56.56,0,0,0-.48.36l-.43,1.11a.54.54,0,0,1-.39.34,8.48,8.48,0,0,0-1.27.4,9.27,9.27,0,0,0-1.19.56.6.6,0,0,1-.54,0l-1.1-.52a.59.59,0,0,0-.6.06,10.7,10.7,0,0,0-1.46,1.39.54.54,0,0,0-.08.58l.51,1.07a.51.51,0,0,1,0,.51,9,9,0,0,0-1,2.36.53.53,0,0,1-.36.37l-1.16.39a.57.57,0,0,0-.38.45,10.08,10.08,0,0,0,0,2,.58.58,0,0,0,.37.47l1.15.4a.58.58,0,0,1,.36.39,8.27,8.27,0,0,0,.4,1.22,9.58,9.58,0,0,0,.59,1.15.52.52,0,0,1,0,.51l-.53,1.07a.53.53,0,0,0,.06.58,10.65,10.65,0,0,0,1.44,1.41.59.59,0,0,0,.6.08l1.11-.5a.55.55,0,0,1,.53,0,9.64,9.64,0,0,0,2.44,1,.57.57,0,0,1,.39.35l.4,1.12a.56.56,0,0,0,.47.36c.41,0,.81.06,1.22.06H309a.56.56,0,0,0,.48-.36l.43-1.11a.54.54,0,0,1,.4-.34,8.74,8.74,0,0,0,1.26-.4,9.27,9.27,0,0,0,1.19-.56.6.6,0,0,1,.54,0l1.1.52a.59.59,0,0,0,.6-.06,10.15,10.15,0,0,0,1.46-1.39.54.54,0,0,0,.08-.58l-.51-1.07a.51.51,0,0,1,0-.51,9,9,0,0,0,1-2.36.55.55,0,0,1,.36-.37l1.16-.39a.55.55,0,0,0,.38-.45A10.07,10.07,0,0,0,319,145.16Zm-10.85,6.13a5.1,5.1,0,1,1,5.28-5.09A5.19,5.19,0,0,1,308.18,151.29Z"/><path class="cls-20" d="M194.16,142.91h.32A.2.2,0,0,1,194.16,142.91Z"/><path class="cls-20" d="M191.3,139.63l0,.21-.2-.2Z"/><path class="cls-20" d="M194.12,142.8a2.76,2.76,0,0,0-3-2.76c-.11,0-.19-.1-.2-.2a4.54,4.54,0,0,0-1.06-3.14,1.76,1.76,0,0,0-2.56.07l0,0c0-.17,0-.34,0-.51a2.18,2.18,0,0,1,2.49-.13c1.21.7,1.48,2.23,1.57,3.52h-.18l.2.2,0-.21a3.18,3.18,0,0,1,3.23,3.17.17.17,0,0,1-.05.12h-.32A.14.14,0,0,1,194.12,142.8Z"/><path class="cls-20" d="M187.28,136.75l-.37-.1a1.49,1.49,0,0,1,.33-.41C187.25,136.41,187.27,136.58,187.28,136.75Z"/><path class="cls-20" d="M187.28,136.75l0,0-.05.08a.2.2,0,0,1-.37-.1v-.1h0Z"/><path class="cls-20" d="M185.77,131.42a8.43,8.43,0,0,1,1.47,4.82,1.49,1.49,0,0,0-.33.41h0c-.13-1.77-.29-3.7-1.51-5.09a3.47,3.47,0,0,0-4.35-.75c-3.21,1.65-3.28,5.91-4,9h0a4.69,4.69,0,0,0-.1-1.45c.64-3.2,1.21-7.07,4.67-8.18A3.83,3.83,0,0,1,185.77,131.42Z"/><path class="cls-20" d="M176.88,138.33a4.69,4.69,0,0,1,.1,1.45l-.41-.05C176.68,139.29,176.78,138.81,176.88,138.33Z"/><path class="cls-20" d="M173.74,135.32a4.3,4.3,0,0,1,2.83,4.41v.05c0,.23.34.28.4.06,0,0,0,0,0-.06.75-3.06.82-7.32,4-9a3.47,3.47,0,0,1,4.35.75c1.22,1.39,1.38,3.32,1.51,5.09v.1a.2.2,0,0,0,.37.1l.05-.08a1.76,1.76,0,0,1,2.56-.07,4.54,4.54,0,0,1,1.06,3.14c0,.1.09.21.2.2a2.76,2.76,0,0,1,3,2.76.14.14,0,0,0,0,.11c-2.73-.12-5.47,0-8.2,0H159.75c-3.22,0-6.48-.14-9.7.06a2.56,2.56,0,0,1,3.66-3.17.19.19,0,0,0,.28-.22.5.5,0,0,1,0-.13,13.47,13.47,0,0,1,1.33-11.35c1-1.59,2.64-3.25,4.68-3.16s3.33,1.84,4,3.53c.88,2.41.47,5.1.8,7.59,0,.24.38.26.39,0V136a1.52,1.52,0,0,1,1.95-1.23,2.33,2.33,0,0,1,1.46,2.1v.1a.2.2,0,0,0,.37.1L169,137A4.33,4.33,0,0,1,173.74,135.32Z"/><path class="cls-20" d="M177,139.78h0s0,0,0,.06c-.06.22-.43.17-.4-.06v-.05h0Z"/><path class="cls-20" d="M176.57,139.73A4.17,4.17,0,0,0,169,137l0,0a3.12,3.12,0,0,0-.07-.51,4.53,4.53,0,0,1,8,1.89c-.1.48-.2,1-.31,1.4Z"/><path class="cls-20" d="M168.93,137l-.38-.1c.1-.14.2-.28.31-.41A3.12,3.12,0,0,1,168.93,137Z"/><path class="cls-20" d="M168.93,137l0,0-.06.08a.2.2,0,0,1-.37-.1v-.1h0Z"/><path class="cls-20" d="M166.86,134.3a2.52,2.52,0,0,1,2,2.14c-.11.13-.21.27-.31.41h0a2.33,2.33,0,0,0-1.46-2.1,1.52,1.52,0,0,0-1.95,1.23h0l-.09-.84A2,2,0,0,1,166.86,134.3Z"/><path class="cls-20" d="M165.11,136V136c0,.26-.35.24-.39,0l.38-.05Z"/><path class="cls-20" d="M165,135.14l.09.84-.38.05A1.68,1.68,0,0,1,165,135.14Z"/><path class="cls-20" d="M153.9,139.44l-.28.21c-.05-.13-.09-.27-.13-.4A2.17,2.17,0,0,1,153.9,139.44Z"/><path class="cls-20" d="M164.29,128.34c.79,2.16.55,4.53.72,6.8a1.68,1.68,0,0,0-.29.89c-.33-2.49.08-5.18-.8-7.59-.63-1.69-2-3.44-4-3.53s-3.67,1.57-4.68,3.16A13.47,13.47,0,0,0,154,139.42l0,0a2.17,2.17,0,0,0-.41-.19,13.56,13.56,0,0,1-.38-6.78,12.83,12.83,0,0,1,2.67-5.75c1.2-1.41,3-2.57,4.92-2.09A5.62,5.62,0,0,1,164.29,128.34Z"/><path class="cls-20" d="M150.06,142.94c.06.17-.19.23-.26.07,0,0,0,0,0,0a.11.11,0,0,1,.08,0h.19Z"/><path class="cls-20" d="M154,139.55a.19.19,0,0,1-.28.22,2.56,2.56,0,0,0-3.66,3.17h-.18a.11.11,0,0,0-.08,0,2.87,2.87,0,0,1,3.7-3.73c0,.13.08.27.13.4l.28-.21,0,0A.5.5,0,0,0,154,139.55Z"/><path class="cls-20" d="M159.75,142.88H186c2.73,0,5.47-.08,8.2,0a.2.2,0,0,0,.32,0h.22a.13.13,0,0,1,0,.26c-3.28.17-6.59.06-9.88.06H158.61c-2.9,0-5.84.12-8.74-.06a.12.12,0,0,1-.08-.2s0,0,0,0c.07.16.32.1.26-.07h0C153.27,142.74,156.53,142.88,159.75,142.88Z"/><path class="cls-20" d="M77.62,257.62a6.22,6.22,0,0,1,6.21,6.45.3.3,0,0,1-.32.3.28.28,0,0,1-.3-.3,5.61,5.61,0,0,0-5.65-5.84V258A2.63,2.63,0,0,0,77.62,257.62Z"/><path class="cls-20" d="M77.27,257.62h.35a2.63,2.63,0,0,1-.06.39Z"/><path class="cls-20" d="M72.64,254a3.52,3.52,0,0,1,5,3.58h-.35l.29.39v.22h-.29a.31.31,0,0,1-.3-.39,2.91,2.91,0,0,0-4.49-3l0-.06A7.44,7.44,0,0,0,72.64,254Z"/><path class="cls-20" d="M72.64,254a7.44,7.44,0,0,1-.2.74l-.45-.34A3.46,3.46,0,0,1,72.64,254Z"/><path class="cls-20" d="M72.44,254.78l0,.06-.18.12c-.22.17-.53-.1-.45-.34l.06-.21.08,0Z"/><path class="cls-20" d="M50.14,259.61l-.5.21a5.7,5.7,0,0,1,.06-.58C49.85,259.36,50,259.48,50.14,259.61Z"/><path class="cls-20" d="M65.51,243.92c4.65.91,8.16,5.41,7.13,10.12a3.46,3.46,0,0,0-.65.4l-.08,0a7.78,7.78,0,0,0-2.31-7.83,9.68,9.68,0,0,0-9.08-1.85c-6.61,1.89-9.62,8.8-10.3,15.09a.3.3,0,0,1-.5.21l-.15-.14.07-.07.5-.21c-.14-.13-.29-.25-.44-.37a21.07,21.07,0,0,1,2.88-8.94C55.3,245.93,60.26,242.89,65.51,243.92Z"/><path class="cls-20" d="M83.5,264.67c-7.36-.29-14.74-.17-22.1-.16-3.71,0-7.4,0-11.11,0l-5.55,0c-1.46,0-3-.07-4.45.08v-.07a.16.16,0,0,0,.17-.15A5.91,5.91,0,0,1,43.51,259a5.57,5.57,0,0,1,6.06.86l.15.14a.3.3,0,0,0,.5-.21c.68-6.29,3.69-13.2,10.3-15.09a9.68,9.68,0,0,1,9.08,1.85,7.78,7.78,0,0,1,2.31,7.83l-.06.21c-.08.24.23.51.45.34l.18-.12a2.91,2.91,0,0,1,4.49,3,.31.31,0,0,0,.3.39h.29a5.61,5.61,0,0,1,5.65,5.84.28.28,0,0,0,.3.3Z"/><path class="cls-20" d="M49.7,259.24a5.7,5.7,0,0,0-.06.58l-.07.07a5.57,5.57,0,0,0-6.06-.86,5.91,5.91,0,0,0-3.06,5.39.16.16,0,0,1-.17.15.13.13,0,0,1-.13-.11,5.88,5.88,0,0,1,3.24-5.92A6.15,6.15,0,0,1,49.7,259.24Z"/><path class="cls-20" d="M61.4,264.51c7.36,0,14.74-.13,22.1.16h.11a.09.09,0,0,1,0,.18c-7.4.29-14.81.17-22.21.16l-11.11,0-5.55,0a32.9,32.9,0,0,1-5.16-.18s0,0,0,0l.71-.1c1.47-.15,3-.07,4.45-.08l5.55,0C54,264.51,57.69,264.51,61.4,264.51Z"/></g></g></g></svg>