<svg xmlns="http://www.w3.org/2000/svg" viewBox="0 0 299.22 330.38"><defs><style>.cls-1{isolation:isolate;}.cls-2{opacity:0.3;}.cls-2,.cls-20{mix-blend-mode:multiply;}.cls-3{fill:#ddd6fc;}.cls-4{fill:#eeeafe;}.cls-5{fill:#7f65c1;}.cls-6{fill:none;stroke:#eeeafe;stroke-miterlimit:10;}.cls-7{fill:#3b2b5b;}.cls-8{fill:#f98a8a;}.cls-9{fill:#30193b;}.cls-10{fill:#ff97a6;}.cls-11{fill:#aacbe8;}.cls-12{fill:#99b4dd;}.cls-13{fill:#c95d77;}.cls-14{fill:#6a54af;}.cls-15{fill:#fd9e38;}.cls-16{fill:#ffcb48;}.cls-17{fill:#cbb3fc;}.cls-18{fill:#dbcffd;}.cls-19{fill:#fff;}.cls-20{fill:#b5b5b5;}.cls-21{fill:#80540a;}.cls-22{fill:#ad7121;}.cls-23{fill:#d5eaf5;}</style></defs><g class="cls-1"><g id="Capa_2" data-name="Capa 2"><g id="Alertas"><g class="cls-2"><path d="M249.4,302.19c0,3.15-43.65,5.71-97.49,5.71s-97.48-2.56-97.48-5.71,43.65-5.72,97.48-5.72S249.4,299,249.4,302.19Z"/></g><rect class="cls-3" x="30.25" y="90.07" width="245.44" height="177.61" rx="25.23" transform="translate(-25.9 331.85) rotate(-90)"/><rect class="cls-4" x="44.62" y="103.98" width="216.72" height="149.78" rx="9.88" transform="translate(-25.9 331.85) rotate(-90)"/><rect class="cls-5" x="136.54" y="36.3" width="32.87" height="131.77" rx="3.28" transform="translate(50.79 255.16) rotate(-90)"/><rect class="cls-3" x="86.43" y="140.66" width="27.52" height="26.19" rx="2.75" transform="translate(-53.57 253.95) rotate(-90)"/><rect class="cls-3" x="121.62" y="140.66" width="27.52" height="26.19" rx="2.75" transform="translate(-18.38 289.14) rotate(-90)"/><rect class="cls-3" x="156.81" y="140.66" width="27.52" height="26.19" rx="2.75" transform="translate(16.81 324.33) rotate(-90)"/><rect class="cls-3" x="192" y="140.66" width="27.52" height="26.19" rx="2.75" transform="translate(52 359.52) rotate(-90)"/><rect class="cls-3" x="86.43" y="176.01" width="27.52" height="26.19" rx="2.75" transform="translate(-88.92 289.29) rotate(-90)"/><rect class="cls-3" x="121.62" y="176.01" width="27.52" height="26.19" rx="2.75" transform="translate(-53.73 324.49) rotate(-90)"/><rect class="cls-3" x="156.81" y="176.01" width="27.52" height="26.19" rx="2.75" transform="translate(-18.54 359.68) rotate(-90)"/><rect class="cls-3" x="192" y="176.01" width="27.52" height="26.19" rx="2.75" transform="translate(16.65 394.87) rotate(-90)"/><rect class="cls-3" x="86.43" y="211.36" width="27.52" height="26.19" rx="2.75" transform="translate(-124.27 324.64) rotate(-90)"/><rect class="cls-3" x="121.62" y="211.36" width="27.52" height="26.19" rx="2.75" transform="translate(-89.08 359.84) rotate(-90)"/><rect class="cls-3" x="156.81" y="211.36" width="27.52" height="26.19" rx="2.75" transform="translate(-53.89 395.03) rotate(-90)"/><rect class="cls-3" x="174.33" y="229.04" width="62.87" height="26.19" rx="4.15" transform="translate(-36.37 447.89) rotate(-90)"/><rect class="cls-3" x="86.43" y="246.71" width="27.52" height="26.19" rx="2.75" transform="translate(-159.62 359.99) rotate(-90)"/><rect class="cls-3" x="121.62" y="246.71" width="27.52" height="26.19" rx="2.75" transform="translate(-124.43 395.18) rotate(-90)"/><rect class="cls-3" x="156.81" y="246.71" width="27.52" height="26.19" rx="2.75" transform="translate(-89.23 430.38) rotate(-90)"/><line class="cls-6" x1="201.31" y1="91.96" x2="209.56" y2="91.96"/><line class="cls-6" x1="200.49" y1="92.77" x2="200.49" y2="101.02"/><line class="cls-6" x1="210.37" y1="101.02" x2="210.37" y2="92.77"/><line class="cls-6" x1="200.49" y1="102.65" x2="200.49" y2="110.9"/><line class="cls-6" x1="209.56" y1="111.71" x2="201.31" y2="111.71"/><line class="cls-6" x1="210.37" y1="110.9" x2="210.37" y2="102.65"/><line class="cls-6" x1="186.63" y1="91.96" x2="194.88" y2="91.96"/><line class="cls-6" x1="194.88" y1="101.83" x2="186.63" y2="101.83"/><line class="cls-6" x1="195.69" y1="101.02" x2="195.69" y2="92.77"/><line class="cls-6" x1="185.81" y1="102.65" x2="185.81" y2="110.9"/><line class="cls-6" x1="194.88" y1="111.71" x2="186.63" y2="111.71"/><line class="cls-6" x1="171.95" y1="91.96" x2="180.2" y2="91.96"/><line class="cls-6" x1="171.14" y1="92.77" x2="171.14" y2="101.02"/><line class="cls-6" x1="180.2" y1="101.83" x2="171.95" y2="101.83"/><line class="cls-6" x1="180.2" y1="111.71" x2="171.95" y2="111.71"/><line class="cls-6" x1="181.01" y1="110.9" x2="181.01" y2="102.65"/><line class="cls-6" x1="166.34" y1="111.71" x2="164.04" y2="111.71"/><line class="cls-6" x1="149.37" y1="92.77" x2="149.37" y2="101.02"/><line class="cls-6" x1="158.43" y1="101.83" x2="150.18" y2="101.83"/><line class="cls-6" x1="159.24" y1="101.02" x2="159.24" y2="92.77"/><line class="cls-6" x1="159.24" y1="110.9" x2="159.24" y2="102.65"/><line class="cls-6" x1="135.5" y1="91.96" x2="143.75" y2="91.96"/><line class="cls-6" x1="143.75" y1="101.83" x2="135.5" y2="101.83"/><line class="cls-6" x1="144.57" y1="101.02" x2="144.57" y2="92.77"/><line class="cls-6" x1="143.75" y1="111.71" x2="135.5" y2="111.71"/><line class="cls-6" x1="144.57" y1="110.9" x2="144.57" y2="102.65"/><path class="cls-7" d="M260.42,68.67a6.65,6.65,0,0,1,5.66-.62c2.59,1.07,2.17,3,2.17,3s5.69-2.69,10.58,4.62S274.69,90.07,272,89.42s-20.79-8.33-20.79-8.33,0-11.68,2.51-12.75S260.42,68.67,260.42,68.67Z"/><path class="cls-8" d="M250.49,101.58c4.27.32,1.47,28.37,2.14,40.85a66.75,66.75,0,0,0,1.62,11.51l6.28,35,.61-.14s3.56-27.06,2-41.52c-1.12-10.16,10.51-32.63,1-46.61C261.28,100.13,254.81,101.2,250.49,101.58Z"/><path class="cls-9" d="M255.9,191c.15-.41,1.67-1.12,2.79-1.5-.33.22-.66.54-.12.68a3.82,3.82,0,0,0,3-.67,3.88,3.88,0,0,1,.27,1.42C261.82,191.43,255.54,191.92,255.9,191Z"/><path class="cls-8" d="M258.57,190.15c-.54-.14-.21-.46.12-.68.7-.24,1.28-.41,1.41-.47a.83.83,0,0,0,.43-.48l.35-.09s.6.93.66,1A3.82,3.82,0,0,1,258.57,190.15Z"/><path class="cls-10" d="M255.21,102c0,.21,12.33,46.1,12.33,46.1l4.86,40.34.7.25s7.66-29.42,3.16-42.82c-2.24-6.66,2-17.09,1.85-29-.09-5.39-2.37-12.18-6.86-15.93C268.43,100.45,259.52,101.4,255.21,102Z"/><path class="cls-7" d="M270.82,101.1s3.05.27,6.66,9.7S279,138.91,279,138.91s-18.05,6.64-28.22,2.28l1.7-35.75Z"/><path class="cls-9" d="M270.82,101.1s3.05.27,6.66,9.7S279,138.91,279,138.91a74.62,74.62,0,0,1-15.26,3.52l-2.53.12s-.06-15.5,0-20.75c.23-12.43-1.27-18.43-1.27-18.43Z"/><path class="cls-9" d="M267.85,190.84c.14-.42,1.62-1.19,2.73-1.61-.32.24-.64.57-.1.69a3.86,3.86,0,0,0,2.95-.78,3.6,3.6,0,0,1,.32,1.4C273.78,191.07,267.53,191.8,267.85,190.84Z"/><path class="cls-10" d="M270.48,189.92c-.54-.12-.22-.45.1-.69.69-.26,1.27-.45,1.4-.52a.8.8,0,0,0,.4-.5l.35-.1s.64.91.7,1A3.86,3.86,0,0,1,270.48,189.92Z"/><path class="cls-11" d="M249.51,98.15S235.79,97.8,232.67,96a3.81,3.81,0,0,1-.77-1c-1-1.75-2.39-5.51,4.45-4.91a43.64,43.64,0,0,1,13.28,3.25S249.32,94.19,249.51,98.15Z"/><path class="cls-11" d="M257.47,77.63S251.74,90.52,248,94.9c-4.95,5.72-4.36-3.13-4.36-3.13s2-7.25,4.34-10.48C250.07,78.28,257.14,74,257.47,77.63Z"/><path class="cls-12" d="M249.47,84.35c-.68,5.6-.91,7.89,1.1,15,.59,2.08,20.56,3.37,20.78,2.18.09-.43.73-3.8,1.08-5.59,1.7-8.59,2.34-11.09,1.12-14.26-.85-2.21-1.34-4.8-12.89-5.87a12,12,0,0,0-7.46,1.53C251.15,78.71,249.76,82,249.47,84.35Z"/><path class="cls-11" d="M260.14,75.73a34.93,34.93,0,0,0-2.92,11.38,54,54,0,0,0,1.17,14.29s-4.87.06-7.28-1.39a1.56,1.56,0,0,1-.72-1c-.62-2.34-2.91-11.94-.91-17.54C251.76,75.1,260.14,75.73,260.14,75.73Z"/><path class="cls-11" d="M266.88,97.25c.32-2.15,1.33-9.09,1.33-9.09s0-13,4.4-8.27c3,3.21,1.3,15.3-1.36,22.25C270.27,104.67,266.16,102.14,266.88,97.25Z"/><path class="cls-11" d="M264.24,97.7s-15.94,3.35-16.47,5.77,2,4.62,6.51,5.08c2,.2,14.1-.13,16.74-6C273.48,97.11,264.24,97.7,264.24,97.7Z"/><path class="cls-10" d="M257.56,72.38a29.64,29.64,0,0,0,1.59,4.44c.4.35,1.42.59,1.47-.57s-1.85-4.39-1.85-4.39Z"/><path class="cls-13" d="M258.34,74.87c.59.38,1.84.36,1.72-.48a15.55,15.55,0,0,0-.81-1.68l-1.46.61C258,73.91,258.1,74.2,258.34,74.87Z"/><path class="cls-10" d="M260.21,71.29a11.25,11.25,0,0,0-1.42-3c-1.37-1.37-4.64,1.18-5,1.84s0,1.61.36,2.27a5.25,5.25,0,0,0,1.79,2.09,3.43,3.43,0,0,0,2.5-.11C260.21,73.47,260.48,72.75,260.21,71.29Z"/><polygon class="cls-5" points="269.92 97.79 269.88 99.73 260.5 104.09 252.59 103.71 260.58 101.61 269.92 97.79"/><polygon class="cls-11" points="234.74 100.95 260.19 101.77 269.92 97.79 234.81 97.16 234.74 100.95"/><polygon class="cls-14" points="234.7 102.85 260.5 104.09 257.36 83.62 231.39 83.94 234.7 102.85"/><polygon class="cls-5" points="261.44 103.43 260.5 104.09 257.36 83.62 258.49 83.38 261.44 103.43"/><polygon class="cls-5" points="258.49 83.38 233.46 83.7 231.38 83.94 257.36 83.62 258.49 83.38"/><path class="cls-10" d="M246.76,104.17a2.41,2.41,0,0,1-.66-1.62c0-.3.18-.36.18-.36s-.08-.39.19-.4.6.71,1.07,1.12a4.48,4.48,0,0,0,.86.58s-.26-.74,0-.79.52.86.69,1.3S247.33,104.75,246.76,104.17Z"/><path class="cls-10" d="M248.15,103.35c-.48-.65-1-1.77-1.14-1.68s-.11.58.2,1.16A1,1,0,0,0,248.15,103.35Z"/><path class="cls-10" d="M232.94,92.81a5,5,0,0,0,.91-.75l.27-.27c.07-.06.21-.16.16-.28a.13.13,0,0,0-.15-.07h0l-.08,0,0,0-.14.06a1.5,1.5,0,0,0,.18-.24c.06-.09.21-.28.2-.4s0-.08-.08-.12-.1,0-.12,0,0-.1,0-.13-.32-.32-.73,0c.17-.21.05-.27,0-.26a1.84,1.84,0,0,0-.88.59C232.14,91.36,232.79,92.92,232.94,92.81Z"/><path class="cls-7" d="M254.86,68.2s.14,4.11,4,4.25c0,0,.22,5.19,5,5.19s5.33-.24,5.33-.24l-2-6.9Z"/><path class="cls-15" d="M254.91,70.05l.08.46a.25.25,0,0,0,.28.19.23.23,0,0,0,.18-.27l-.08-.46Zm.33.51a.08.08,0,0,1-.1-.07.09.09,0,1,1,.18,0A.1.1,0,0,1,255.24,70.56Z"/><path class="cls-7" d="M257.8,69.56l.72.74a.19.19,0,0,0,.19,0l1.19-.25.11.21a1.88,1.88,0,0,0,.43-.84C260.46,69.11,257.8,69.56,257.8,69.56Z"/><path class="cls-16" d="M251.26,71.67s-.24.55,2.52-.64a3.7,3.7,0,0,0,.55-.31,6,6,0,0,1,2.74-1.09c1.39-.06,1.26.36,2.25.22s1.85-.48,1.83-.69c0,0,0-.07-.27,0l-.33-1-.2-.1s-1-3.59-4.21-3.09-3.47,2.32-3.64,3.2a10.24,10.24,0,0,0-.08,2.06.79.79,0,0,1-.36.71C251.72,71.11,251.28,71.45,251.26,71.67Z"/><path class="cls-15" d="M260.46,68.07a5.28,5.28,0,0,1-2.89.53,6.23,6.23,0,0,0-3.27.8c-.91.29-1.34.46-1.34.46a5.35,5.35,0,0,1-.42,1s.73.23,2.26-.59,2.07-.9,2.79-.83,1.1.39,1.68.29a3.79,3.79,0,0,0,1.61-.56A5.1,5.1,0,0,0,260.46,68.07Z"/><path class="cls-16" d="M253.4,70.77l-.07-.62a.13.13,0,0,1,.1-.15l.43-.11A.13.13,0,0,1,254,70l.13.55A2.24,2.24,0,0,1,253.4,70.77Z"/><path class="cls-15" d="M253.32,66.75a4,4,0,0,1,1.19-1.15,3.21,3.21,0,0,1,.77-.37,4.11,4.11,0,0,1,.83-.18,6,6,0,0,1,.85,0,3.53,3.53,0,0,1,.84.15,3.38,3.38,0,0,1,1.38.93,3.8,3.8,0,0,0-3-.76,4.09,4.09,0,0,0-.79.15,5.1,5.1,0,0,0-.73.3A6.39,6.39,0,0,0,253.32,66.75Z"/><g class="cls-2"><path d="M299.22,318.82c0,3.95-15.91,7.15-35.54,7.15s-35.54-3.2-35.54-7.15,15.91-7.15,35.54-7.15S299.22,314.87,299.22,318.82Z"/></g><path class="cls-5" d="M276.63,283.31a1,1,0,0,1-.53-.15L251.94,267a.92.92,0,1,1,1-1.52l24.16,16.14a.92.92,0,0,1,.25,1.27A.89.89,0,0,1,276.63,283.31Z"/><path class="cls-5" d="M276.16,299.91a.85.85,0,0,1-.52-.17l-23.86-16.59a.92.92,0,1,1,1.05-1.5l23.85,16.59a.92.92,0,0,1-.52,1.67Z"/><path class="cls-17" d="M252.31,299.91a.91.91,0,0,1-.52-1.67l24.45-16.6a.92.92,0,0,1,1,1.52l-24.45,16.59A.9.9,0,0,1,252.31,299.91Z"/><path class="cls-5" d="M270.64,314.35a1,1,0,0,1-.46-.12l-18.69-10.71a.92.92,0,0,1,.91-1.59l18.69,10.71a.92.92,0,0,1-.45,1.71Z"/><path class="cls-5" d="M257.67,314.35a.91.91,0,0,1-.79-.46.93.93,0,0,1,.33-1.25l19-11a.92.92,0,0,1,.92,1.59l-19,11A.93.93,0,0,1,257.67,314.35Z"/><rect class="cls-5" x="249.54" y="313.43" width="30.5" height="1.31"/><polygon class="cls-5" points="247.15 303.64 249.91 314.09 251.63 314.09 251.63 303.64 247.15 303.64"/><path class="cls-18" d="M255.11,314.1a5,5,0,1,1-5.05-5A5,5,0,0,1,255.11,314.1Z"/><path class="cls-5" d="M251.63,314.1a1.57,1.57,0,1,1-1.57-1.57A1.57,1.57,0,0,1,251.63,314.1Z"/><polygon class="cls-5" points="283.39 303.32 280.63 313.76 278.91 313.76 278.91 303.32 283.39 303.32"/><path class="cls-18" d="M275.44,313.78a5,5,0,1,0,5-5A5,5,0,0,0,275.44,313.78Z"/><path class="cls-5" d="M278.91,313.78a1.57,1.57,0,1,0,1.57-1.58A1.57,1.57,0,0,0,278.91,313.78Z"/><rect class="cls-18" x="245.48" y="298.99" width="40.04" height="5.06"/><path class="cls-5" d="M277.32,216.44a.91.91,0,0,1-.52-.16l-23.86-16.59a.92.92,0,0,1-.22-1.28.91.91,0,0,1,1.27-.23l23.86,16.6a.91.91,0,0,1,.22,1.27A.89.89,0,0,1,277.32,216.44Z"/><path class="cls-5" d="M277,233.32a.92.92,0,0,1-.53-.16l-23.85-16.6a.91.91,0,0,1,1-1.5l23.86,16.6a.91.91,0,0,1-.52,1.66Z"/><path class="cls-17" d="M253.17,216.73a.91.91,0,0,1-.52-1.67l24.75-16.88a.91.91,0,1,1,1,1.51l-24.74,16.88A.91.91,0,0,1,253.17,216.73Z"/><path class="cls-17" d="M253.17,233.32a.93.93,0,0,1-.76-.4.92.92,0,0,1,.25-1.27l24.45-16.59a.91.91,0,1,1,1,1.51l-24.45,16.59A.86.86,0,0,1,253.17,233.32Z"/><path class="cls-5" d="M276.61,250.13a.92.92,0,0,1-.53-.16l-23.85-16.59a.92.92,0,0,1,1-1.51l23.86,16.6a.92.92,0,0,1,.23,1.27A.9.9,0,0,1,276.61,250.13Z"/><path class="cls-5" d="M276.31,267a.91.91,0,0,1-.52-.16l-23.86-16.6a.92.92,0,1,1,1-1.5l23.85,16.6a.91.91,0,0,1-.52,1.66Z"/><path class="cls-17" d="M252.45,250.42a.9.9,0,0,1-.75-.4.91.91,0,0,1,.24-1.27l24.74-16.88a.92.92,0,1,1,1,1.51L253,250.26A.91.91,0,0,1,252.45,250.42Z"/><path class="cls-17" d="M252.45,267a.9.9,0,0,1-.75-.4.91.91,0,0,1,.24-1.27l24.45-16.59a.91.91,0,1,1,1,1.51L253,266.85A.91.91,0,0,1,252.45,267Z"/><path class="cls-17" d="M285.06,198.92H245.14V136.78a4.31,4.31,0,0,1,4.31-4.31h31.3a4.31,4.31,0,0,1,4.31,4.31Zm-39-.92h38.1V136.78a3.4,3.4,0,0,0-3.4-3.39h-31.3a3.4,3.4,0,0,0-3.4,3.39Z"/><rect class="cls-17" x="257.47" y="132.74" width="0.92" height="62.99"/><rect class="cls-17" x="250.04" y="132.74" width="0.92" height="62.99"/><rect class="cls-17" x="264.9" y="132.74" width="0.92" height="62.99"/><rect class="cls-17" x="279.76" y="132.74" width="0.92" height="62.99"/><rect class="cls-17" x="272.33" y="133.21" width="0.92" height="62.04"/><rect class="cls-18" x="245.08" y="192.05" width="39.96" height="6.88"/><path class="cls-17" d="M252.16,283.53a.91.91,0,0,1-.52-1.67l24.45-16.59a.91.91,0,1,1,1,1.51l-24.45,16.6A1,1,0,0,1,252.16,283.53Z"/><path class="cls-19" d="M194.88,54.18a14.13,14.13,0,0,1,6-6.75l0,0a21,21,0,0,1,4.74-2.9,27.57,27.57,0,0,1,16-2,30.29,30.29,0,0,1,13.78,6.2c3.07,2.43,7.89,6.63,6.35,11.93a8,8,0,0,1-2.52,3.81.19.19,0,0,0,0,.26c1.38,1.79,4,4.74,6.83,5.83.16,0,.13.33,0,.34A27.13,27.13,0,0,1,231.88,68a.1.1,0,0,0-.09,0l-1.18.34A44.21,44.21,0,0,1,213.68,70C207.79,69.44,190.07,66.57,194.88,54.18Z"/><path class="cls-20" d="M114.89,322.31c-17.52,0-31.72,1.8-31.72,4s14.2,4,31.72,4,31.72-1.81,31.72-4S132.41,322.31,114.89,322.31Z"/><path class="cls-12" d="M137.91,207.72a1.07,1.07,0,0,0-1.15.56c-1.58,3-7.95,16.51-8.86,18.05s-.31,4.65,2.95,3.5c1.24-.44,5.68-3.93,7.1-5.27C143,219.85,147.85,209.57,137.91,207.72Z"/><path class="cls-12" d="M114.89,214.72s.46,2.6,4.08,7a37.29,37.29,0,0,0,9.83,8.19l2.41-4.13s-7.53-7.88-11.36-11C117.66,212.91,114.89,214.72,114.89,214.72Z"/><path class="cls-9" d="M137.19,325.78c.07-1.74-2.17-1.35-3.49-1.51.37.19.83.47.29.67a4.06,4.06,0,0,1-3.15-.33,3.72,3.72,0,0,0-.11,1.47C130.78,326.62,137.17,326.23,137.19,325.78Z"/><path class="cls-10" d="M134,324.94c.54-.2.67-.6-.18-.66a7.11,7.11,0,0,1-1.54-.32c-.37-.13-.55-.68-.55-.68l-.68,0s-.15,1.16-.2,1.29A4.06,4.06,0,0,0,134,324.94Z"/><path class="cls-9" d="M91.42,326.48c-.33-1.7,1.94-1.66,3.22-2-.34.24-.75.59-.18.71a4.05,4.05,0,0,0,3.06-.81,3.77,3.77,0,0,1,.33,1.44C97.88,326.33,91.51,326.93,91.42,326.48Z"/><path class="cls-10" d="M94.46,325.17c-.57-.12-.76-.5.07-.69a6.1,6.1,0,0,0,1.47-.55c.35-.18.44-.76.44-.76l.68-.06s.33,1.13.4,1.25A4.05,4.05,0,0,1,94.46,325.17Z"/><path class="cls-7" d="M96.83,246c2.06-5.84,3.67-9.38,4.68-10,3.09-.16,17.39.53,18.62.45,1.07.48,2.58,3.89,4.69,10,5.15,14.83,8.72,76.78,8.72,76.78l-3.19.46s-7.3-25.43-12-45.4c-2.85-12.17-6.69-25.4-6.8-25.54-1.13,5.51-11.9,59.55-12.6,69.17-.12,1.62-3.21,2.84-3.34,1.53C94.63,313.7,91.61,260.78,96.83,246Z"/><path class="cls-21" d="M110.64,210.78a18.45,18.45,0,0,1-2-4c-.38-1.54-1-2.85,0-3s4-.45,4.61-3.34a3.45,3.45,0,0,0-.42-1.68.17.17,0,0,1,.23-.22,6.24,6.24,0,0,1,3.22,3.18,7.84,7.84,0,0,1-.08,5.14c-.16.59-.82,2.11-.82,2.11Z"/><path class="cls-22" d="M108.64,206.79c-.18-.46-.36-.91-.53-1.37a4.46,4.46,0,0,1-.19-.74,1,1,0,0,1,.2-.87.83.83,0,0,1,.43-.23c.16,0,.26,0,.38-.07l.7-.13a6.4,6.4,0,0,0,1.32-.44,3.62,3.62,0,0,0,1.9-1.83,4.57,4.57,0,0,0,.24-.65,1.43,1.43,0,0,0,0-.65,4.41,4.41,0,0,0-.16-.7c0-.12-.07-.21-.11-.36a.2.2,0,0,1,.29-.18.14.14,0,0,0-.19.17l.16.31a5.32,5.32,0,0,1,.3.69,1.87,1.87,0,0,1,.11.8,5,5,0,0,1-.19.74,3.76,3.76,0,0,1-2.09,2.21,6.32,6.32,0,0,1-1.46.45l-.74.1a1.11,1.11,0,0,0-.55.11c-.11.07-.14.28-.14.5a4.21,4.21,0,0,0,.09.69C108.47,205.82,108.59,206.3,108.64,206.79Z"/><path class="cls-11" d="M106.91,213.36a10.69,10.69,0,0,0-6.21.89c-5.11,2.12-12.77,6.94-14.54,11.53-2,5.24,1.75,17.83,8.07,18.73,2.34.33,3.29-3.31,3.29-3.31l-5.23-14.49,12.42-9.43Z"/><path class="cls-10" d="M96.35,242.48s1-2.72,2-2.6,2.56.28,2.62.7-1.11.29-1.11.29a8.36,8.36,0,0,1,.86.89c.09.18-.51.26-.51.26a.49.49,0,0,1,.15.52c-.09.35-.81-.2-1.25-.16s-1.52,1.28-2.41,1.39C96.33,243.81,96.05,243.22,96.35,242.48Z"/><path class="cls-10" d="M140.38,209.22a.45.45,0,0,0,.48-.17c.27-.4,1.74-1.23,2.26-2,0,0,.79-1.16.53-1.87,0,0-.21-.15-.35.25,0,0,.2-1.11-.09-1.31s-.54.25-.54.25a.29.29,0,0,0-.37-.2c-.17.06-.47.75-1,1.31-.38.39-.93.74-1,1.05,0,0,0-.93-.24-.89s-.57,1.64-.38,2.12a4.65,4.65,0,0,1,0,.89C139.64,208.87,140.05,209.12,140.38,209.22Z"/><path class="cls-9" d="M111.52,236.22c4.11.14,8,.29,8.61.25,1.07.48,2.58,3.89,4.69,10,5.15,14.83,8.72,76.78,8.72,76.78l-1.33.19S130,294,125.23,274C119.22,248.9,107.4,236.07,111.52,236.22Z"/><path class="cls-11" d="M97.33,216.48s6.46-3.7,9-3.23a32.08,32.08,0,0,0,9.75.73c2.17-.2,2.92.24,4.23,2,3.68,4.84.25,20.85.25,20.85s-6.55,1.67-10.46,1.68c-6.53,0-9.18-1.87-9.18-1.87a71.29,71.29,0,0,0-.33-8.21C99.93,224.8,97.33,216.48,97.33,216.48Z"/><path class="cls-10" d="M111.36,210.82s-.55,3.16-.22,3.5a1.58,1.58,0,0,0,2.16-.08c.65-.82-.12-3.51-.12-3.51Z"/><path class="cls-13" d="M111.06,213a3.81,3.81,0,0,0,2.5,0,9,9,0,0,0-.2-1.71l-2.11.11C111.19,211.91,111.1,212.49,111.06,213Z"/><path class="cls-10" d="M116,209.81A10.26,10.26,0,0,0,116,207a1.63,1.63,0,0,0-1.84-1.45,10.92,10.92,0,0,0-3.38.77c-.63.49-.58,1.45-.55,2.16a5.1,5.1,0,0,0,.79,2.55,3.31,3.31,0,0,0,2.26.87C115.17,211.75,115.69,211.2,116,209.81Z"/><path class="cls-12" d="M116.08,214s2.94-.59,4.25,1.15c3.68,4.84.23,21.67.23,21.67a20.85,20.85,0,0,1-5.38,1.68,28.8,28.8,0,0,1-5.08,0,33.51,33.51,0,0,0,6-10.81C118,221.64,116.08,214,116.08,214Z"/><path class="cls-16" d="M161.22,232.94a11.5,11.5,0,0,0,2.69-.74l-7.14-8.51.74-4.63,4.59-.28,2.88,3.06,4.76,5,0-.06a11.49,11.49,0,0,0-11.88-16.64,12,12,0,0,0-1.35.29L151.83,205l.14-.1L140.1,191.22a11.48,11.48,0,0,0-12.19-16,12,12,0,0,0-2.69.73l7.14,8.51-.74,4.64-4.59.27-2.88-3.06-4.75-5.05a.43.43,0,0,0,0,.07A11.49,11.49,0,0,0,131.24,198a9.94,9.94,0,0,0,1.36-.29l5.82,6.73-.13.11L149,217a11.48,11.48,0,0,0,12.18,16Z"/><path class="cls-23" d="M279.47,20.64a.55.55,0,0,0-.38-.46L278,19.77a.54.54,0,0,1-.36-.39,8.75,8.75,0,0,0-.41-1.22A8.26,8.26,0,0,0,276.6,17a.54.54,0,0,1,0-.51l.54-1.06a.53.53,0,0,0-.07-.59,11.21,11.21,0,0,0-1.43-1.41.59.59,0,0,0-.6-.07l-1.12.49a.55.55,0,0,1-.53,0,9.64,9.64,0,0,0-2.44-1,.59.59,0,0,1-.39-.35l-.39-1.12a.57.57,0,0,0-.48-.36l-.26,0h-.27l-.53,0h0c-.33,0-.66,0-1,0a.55.55,0,0,0-.48.35l-.42,1.11a.61.61,0,0,1-.4.35,9.63,9.63,0,0,0-1.26.39,9.4,9.4,0,0,0-1.2.56.58.58,0,0,1-.53,0l-1.1-.52a.59.59,0,0,0-.61.07,10.6,10.6,0,0,0-1.46,1.38.54.54,0,0,0-.08.58l.52,1.07a.54.54,0,0,1,0,.52,8.82,8.82,0,0,0-1,2.35.58.58,0,0,1-.36.37L258,20a.55.55,0,0,0-.38.46,10,10,0,0,0,0,2,.55.55,0,0,0,.37.47l1.15.4a.57.57,0,0,1,.35.39,9.2,9.2,0,0,0,.41,1.22,9.52,9.52,0,0,0,.58,1.15.52.52,0,0,1,0,.51L260,27.61a.53.53,0,0,0,.07.58,10.58,10.58,0,0,0,1.43,1.41.59.59,0,0,0,.61.08l1.11-.5a.55.55,0,0,1,.53,0,9.64,9.64,0,0,0,2.44,1,.57.57,0,0,1,.39.35l.4,1.12a.57.57,0,0,0,.47.37,9.71,9.71,0,0,0,1.21.05h.84a.57.57,0,0,0,.48-.36l.42-1.11a.57.57,0,0,1,.4-.34,9.77,9.77,0,0,0,1.27-.39,11.84,11.84,0,0,0,1.19-.57.58.58,0,0,1,.53,0l1.1.52a.58.58,0,0,0,.61-.06,10.67,10.67,0,0,0,1.46-1.39.53.53,0,0,0,.08-.58l-.52-1.07a.54.54,0,0,1,0-.51,9,9,0,0,0,1-2.35.56.56,0,0,1,.37-.38l1.15-.38a.55.55,0,0,0,.38-.46A10.89,10.89,0,0,0,279.47,20.64Zm-10.86,6.13a5.1,5.1,0,1,1,5.28-5.09A5.19,5.19,0,0,1,268.61,26.77Z"/><path class="cls-19" d="M154.59,18.39l.33,0A.22.22,0,0,1,154.59,18.39Z"/><path class="cls-19" d="M151.74,15.11v.21l-.19-.2Z"/><path class="cls-19" d="M154.56,18.28a2.77,2.77,0,0,0-3-2.76.21.21,0,0,1-.21-.2,4.49,4.49,0,0,0-1.06-3.14,1.75,1.75,0,0,0-2.55.07l0,0,0-.51a2.16,2.16,0,0,1,2.49-.12c1.2.69,1.47,2.22,1.57,3.51h-.18l.19.2v-.21A3.17,3.17,0,0,1,155,18.28a.18.18,0,0,1,0,.13l-.33,0A.18.18,0,0,1,154.56,18.28Z"/><path class="cls-19" d="M147.71,12.23l-.37-.1a1.52,1.52,0,0,1,.34-.41Z"/><path class="cls-19" d="M147.71,12.23l0,0-.05.08a.21.21,0,0,1-.38-.1v-.1h0Z"/><path class="cls-19" d="M146.2,6.9a8.52,8.52,0,0,1,1.48,4.82,1.52,1.52,0,0,0-.34.41h0c-.12-1.77-.29-3.7-1.5-5.09a3.5,3.5,0,0,0-4.36-.75c-3.2,1.66-3.28,5.91-4,9h0a4.4,4.4,0,0,0-.1-1.45c.64-3.2,1.22-7.07,4.68-8.18A3.82,3.82,0,0,1,146.2,6.9Z"/><path class="cls-19" d="M137.31,13.81a4.4,4.4,0,0,1,.1,1.45l-.4,0C137.12,14.77,137.21,14.3,137.31,13.81Z"/><path class="cls-19" d="M134.18,10.8A4.3,4.3,0,0,1,137,15.21v0a.2.2,0,0,0,.4.06s0,0,0-.06c.74-3.06.82-7.31,4-9A3.5,3.5,0,0,1,145.8,7c1.21,1.39,1.38,3.32,1.5,5.09v.1a.21.21,0,0,0,.38.1l.05-.08a1.75,1.75,0,0,1,2.55-.07,4.49,4.49,0,0,1,1.06,3.14.21.21,0,0,0,.21.2,2.77,2.77,0,0,1,3,2.76.18.18,0,0,0,0,.11c-2.72-.12-5.47,0-8.19,0H120.18c-3.22,0-6.47-.14-9.69.06a2.56,2.56,0,0,1,3.65-3.17c.14.08.34-.05.28-.21a.5.5,0,0,0,0-.13,13.49,13.49,0,0,1,1.33-11.36c1-1.58,2.64-3.25,4.68-3.16s3.34,1.84,4,3.54c.89,2.4.47,5.09.81,7.58a.19.19,0,1,0,.38,0,.43.43,0,0,0,0,0,1.51,1.51,0,0,1,1.94-1.23A2.34,2.34,0,0,1,129,12.34v.09a.21.21,0,0,0,.38.11l.06-.09A4.32,4.32,0,0,1,134.18,10.8Z"/><path class="cls-19" d="M137.41,15.26h0s0,0,0,.06a.2.2,0,0,1-.4-.06v0h0Z"/><path class="cls-19" d="M137,15.21a4.16,4.16,0,0,0-7.6-2.76l0,0a3.17,3.17,0,0,0-.08-.51,4.72,4.72,0,0,1,5-1.51,4.64,4.64,0,0,1,3,3.4c-.1.49-.19,1-.3,1.4Z"/><path class="cls-19" d="M129.37,12.43l-.38-.1a3.91,3.91,0,0,1,.3-.41A3.17,3.17,0,0,1,129.37,12.43Z"/><path class="cls-19" d="M129.37,12.43l0,0-.06.09a.21.21,0,0,1-.38-.11v-.09h0Z"/><path class="cls-19" d="M127.3,9.79a2.49,2.49,0,0,1,2,2.13,3.91,3.91,0,0,0-.3.41h0a2.34,2.34,0,0,0-1.46-2.11,1.51,1.51,0,0,0-1.94,1.23h0q-.06-.42-.09-.84A2,2,0,0,1,127.3,9.79Z"/><path class="cls-19" d="M125.55,11.46a.43.43,0,0,1,0,0,.19.19,0,1,1-.38,0l.38,0Z"/><path class="cls-19" d="M125.45,10.62q0,.42.09.84l-.38,0A1.6,1.6,0,0,1,125.45,10.62Z"/><path class="cls-19" d="M114.34,14.92l-.28.21c0-.13-.1-.27-.14-.4A2.6,2.6,0,0,1,114.34,14.92Z"/><path class="cls-19" d="M124.73,3.82c.79,2.16.54,4.53.72,6.8a1.6,1.6,0,0,0-.29.89c-.34-2.49.08-5.18-.81-7.58-.62-1.7-2-3.45-4-3.54S116.72,2,115.71,3.55a13.49,13.49,0,0,0-1.33,11.36h0a2.6,2.6,0,0,0-.42-.19A13.67,13.67,0,0,1,113.55,8a12.82,12.82,0,0,1,2.66-5.75c1.2-1.41,3-2.57,4.93-2.09A5.62,5.62,0,0,1,124.73,3.82Z"/><path class="cls-19" d="M110.49,18.42c.06.17-.19.23-.25.07a0,0,0,0,1,0,0,.09.09,0,0,1,.07,0Z"/><path class="cls-19" d="M114.42,15c.06.16-.14.29-.28.21a2.56,2.56,0,0,0-3.65,3.17h-.19a.09.09,0,0,0-.07,0,2.87,2.87,0,0,1,3.69-3.73c0,.13.09.27.14.4l.28-.21h0A.5.5,0,0,1,114.42,15Z"/><path class="cls-19" d="M120.18,18.36H146.4c2.72,0,5.47-.09,8.19,0a.22.22,0,0,0,.33,0h.21a.13.13,0,1,1,0,.25c-3.28.18-6.59.06-9.87.06H119c-2.9,0-5.84.11-8.74-.07a.12.12,0,0,1-.07-.2,0,0,0,0,0,0,0c.06.16.31.1.25-.07h0C113.71,18.22,117,18.36,120.18,18.36Z"/><path class="cls-19" d="M38.06,133.1a6.22,6.22,0,0,1,6.21,6.45.3.3,0,0,1-.32.3.28.28,0,0,1-.3-.3A5.62,5.62,0,0,0,38,133.71v-.22Z"/><path class="cls-19" d="M37.7,133.1h.36l-.06.39Z"/><path class="cls-19" d="M33.07,129.52a3.53,3.53,0,0,1,5,3.58H37.7l.3.39v.22h-.3a.32.32,0,0,1-.3-.39,2.9,2.9,0,0,0-4.49-3l0-.06A6.77,6.77,0,0,0,33.07,129.52Z"/><path class="cls-19" d="M33.07,129.52a6.77,6.77,0,0,1-.2.74c-.15-.11-.29-.23-.45-.34A4.56,4.56,0,0,1,33.07,129.52Z"/><path class="cls-19" d="M32.87,130.26l0,.06-.18.13c-.21.16-.52-.11-.45-.35a1.72,1.72,0,0,0,.07-.21l.07,0C32.58,130,32.72,130.15,32.87,130.26Z"/><path class="cls-19" d="M10.58,135.09l-.51.21.06-.58Z"/><path class="cls-19" d="M25.94,119.4c4.66.91,8.17,5.42,7.13,10.12a4.56,4.56,0,0,0-.65.4l-.07,0A7.82,7.82,0,0,0,30,122.06,9.69,9.69,0,0,0,21,120.21c-6.61,1.89-9.61,8.8-10.29,15.09a.3.3,0,0,1-.5.21l-.15-.14.06-.07.51-.21-.45-.37A21.22,21.22,0,0,1,13,125.78C15.74,121.41,20.7,118.37,25.94,119.4Z"/><path class="cls-19" d="M43.94,140.15c-7.36-.29-14.74-.17-22.11-.16-3.7,0-7.4,0-11.1,0l-5.55,0c-1.46,0-3-.07-4.45.08v-.07a.16.16,0,0,0,.17-.15,5.88,5.88,0,0,1,3.05-5.38,5.56,5.56,0,0,1,6.07.85l.15.14a.3.3,0,0,0,.5-.21c.68-6.29,3.68-13.2,10.29-15.09A9.69,9.69,0,0,1,30,122.06a7.82,7.82,0,0,1,2.31,7.83,1.72,1.72,0,0,1-.07.21c-.07.24.24.51.45.35l.18-.13a2.9,2.9,0,0,1,4.49,3,.32.32,0,0,0,.3.39H38a5.62,5.62,0,0,1,5.65,5.84.28.28,0,0,0,.3.3Z"/><path class="cls-19" d="M10.13,134.72l-.06.58-.06.07a5.56,5.56,0,0,0-6.07-.85,5.88,5.88,0,0,0-3,5.38.16.16,0,0,1-.17.15.12.12,0,0,1-.13-.11A5.85,5.85,0,0,1,3.82,134,6.15,6.15,0,0,1,10.13,134.72Z"/><path class="cls-19" d="M21.83,140c7.37,0,14.75-.13,22.11.16H44a.09.09,0,0,1,0,.18c-7.39.29-14.81.17-22.21.16-3.7,0-7.4,0-11.1,0l-5.55,0A33.07,33.07,0,0,1,0,140.26s0,0,0,0l.72-.1c1.46-.15,3-.07,4.45-.08l5.55,0C14.43,140,18.13,140,21.83,140Z"/></g></g></g></svg>