<svg xmlns="http://www.w3.org/2000/svg" viewBox="0 0 80 80"><defs><style>.cls-1{fill:#fff;}.cls-2{fill:none;}</style></defs><g id="Capa_2" data-name="Capa 2"><g id="Contenido"><path class="cls-1" d="M52.26,59.29H19a3.5,3.5,0,0,1-3.5-3.5v-19a3.5,3.5,0,0,1,3.5-3.5H52.26a3.5,3.5,0,0,1,3.5,3.5v19A3.5,3.5,0,0,1,52.26,59.29ZM19,34.24a2.5,2.5,0,0,0-2.5,2.5v19a2.5,2.5,0,0,0,2.5,2.5H52.26a2.5,2.5,0,0,0,2.5-2.5v-19a2.5,2.5,0,0,0-2.5-2.5Z"/><path class="cls-1" d="M61,46.76H55.26v-1H61a2.5,2.5,0,0,0,2.5-2.5v-19a2.5,2.5,0,0,0-2.5-2.5H27.74a2.5,2.5,0,0,0-2.5,2.5v9.53h-1V24.21a3.5,3.5,0,0,1,3.5-3.5H61a3.5,3.5,0,0,1,3.5,3.5v19A3.5,3.5,0,0,1,61,46.76Z"/><rect class="cls-1" x="24.74" y="26.47" width="39.23" height="4.68"/><rect class="cls-1" x="45.29" y="39.59" width="5.47" height="4.68"/><rect class="cls-1" x="20.63" y="50.48" width="30.13" height="1.88"/><rect class="cls-2" width="80" height="80"/></g></g></svg>