<svg xmlns="http://www.w3.org/2000/svg" viewBox="0 0 80 80"><defs><style>.cls-1{fill:#fff;}.cls-2{fill:none;}</style></defs><g id="Capa_2" data-name="Capa 2"><g id="Contenido"><path class="cls-1" d="M58.09,51.42H21.91a3.6,3.6,0,0,1-3.6-3.6v-22H61.69v22A3.6,3.6,0,0,1,58.09,51.42ZM19.51,27V47.82a2.4,2.4,0,0,0,2.4,2.4H58.09a2.4,2.4,0,0,0,2.4-2.4V27Z"/><path class="cls-1" d="M61,27H19a3.46,3.46,0,0,1,0-6.92H61A3.46,3.46,0,1,1,61,27ZM19,21.31a2.26,2.26,0,1,0,0,4.52H61a2.26,2.26,0,1,0,0-4.52Z"/><path class="cls-1" d="M30.64,45a7,7,0,1,1,0-14h.6v6.38h6.38V38A7,7,0,0,1,30.64,45ZM30,32.24a5.79,5.79,0,1,0,6.35,6.35H30Z"/><polyline class="cls-1" points="55.89 43.38 55.89 43.38 40.91 43.38 40.91 41.21 55.89 41.21 55.89 43.38"/><polyline class="cls-1" points="55.89 34.11 55.89 34.11 40.91 34.11 40.91 31.94 55.89 31.94 55.89 34.11"/><rect class="cls-1" x="40.91" y="36.58" width="7.98" height="2.17"/><path class="cls-1" d="M47.47,59.89a.63.63,0,0,1-.42-.17l-7-7-7,7a.6.6,0,0,1-.85-.85L40,51l7.9,7.9a.61.61,0,0,1,0,.85A.63.63,0,0,1,47.47,59.89Z"/><rect class="cls-2" width="80" height="80"/></g></g></svg>