<svg xmlns="http://www.w3.org/2000/svg" viewBox="0 0 402.11 60"><defs><style>.cls-1{fill:#982881;}.cls-2{fill:#54565a;}</style></defs><g id="Capa_2" data-name="Capa 2"><g id="Header"><path class="cls-1" d="M262.59,22.92c3.93,0,6.35,2.57,6.35,7.11v2.1c0,4.13-2,7.18-6.35,7.18a4.92,4.92,0,0,1-4.32-1.85v7.63h-2.54V23.18h2.54v1.58A4.94,4.94,0,0,1,262.59,22.92Zm3.81,9.21V30c0-3-1.46-4.82-4.07-4.82s-4.06,1.74-4.06,4.6v2.32c0,2.73,1.14,4.89,4.06,4.89C265,37,266.4,34.83,266.4,32.13Z"/><path class="cls-1" d="M284.36,32.13c0,4.13-2,7.18-6.6,7.18-4.22,0-6.6-2.8-6.6-7.18V30c0-4.51,2.44-7.11,6.6-7.11s6.6,2.57,6.6,7.11Zm-2.53,0V30c0-3-1.47-4.82-4.07-4.82S273.7,27.05,273.7,30v2.1c0,2.73,1.14,4.89,4.06,4.89C280.46,37,281.83,34.83,281.83,32.13Z"/><path class="cls-1" d="M287.38,23.18h2.54v1.55c.79-1.21,1.9-1.81,4.25-1.81,3.4,0,5.78,1.78,5.78,6.23v9.9h-2.54V29.18c0-3.21-1.74-3.91-3.62-3.91a3.7,3.7,0,0,0-3.87,3.88v9.9h-2.54Z"/><path class="cls-1" d="M302.36,23.18h2v-3.5h2.55v3.5h3.65v2.28h-3.65v8.07c0,2.19.25,3.11,2.38,3.11h1.27v2.41h-1.37c-3.75,0-4.83-1.59-4.83-4.89v-8.7h-2Z"/><path class="cls-1" d="M325,36.64c-1.11,1.94-2.79,2.67-5.56,2.67-4.25,0-6.79-2.77-6.79-7.18V30c0-4.51,2.13-7.11,6.29-7.11s6.28,2.57,6.28,7.11v1.65h-10v.45c0,2.73,1.3,4.89,4.06,4.89,2.07,0,3.11-.6,3.78-1.78Zm-9.81-7.18h7.46c-.13-2.66-1.3-4.25-3.71-4.25S315.35,26.83,315.19,29.46Z"/><path class="cls-1" d="M341.35,29.88h3.78V28c0-2.25-1.05-2.76-3.53-2.76-1.9,0-2.92.16-3.81,1.62l-1.9-1.33c1.11-1.85,2.73-2.64,5.74-2.64,4,0,6,1.3,6,5.11v11h-2.54V37.5c-.89,1.46-2,1.81-4,1.81-3.68,0-5.68-1.81-5.68-4.89C335.41,31,337.86,29.88,341.35,29.88ZM345.13,32h-3.78c-2.51,0-3.4.86-3.4,2.45,0,1.78,1.27,2.48,3.14,2.48,2.35,0,4-.45,4-4Z"/><path class="cls-1" d="M351.44,17.14H354V33.53c0,1.71.1,3.17,2.7,3.17v2.35c-4,0-5.24-1.59-5.24-4.89Z"/><path class="cls-1" d="M377.32,17.14h2.54V39.05h-2.54v-1.4c-.86,1.12-2.22,1.66-4.32,1.66-4.32,0-6.35-3.05-6.35-7.18V30c0-4.54,2.41-7.11,6.35-7.11a5,5,0,0,1,4.32,1.84Zm0,15.21V30c0-3-1.46-4.82-4.07-4.82S369.19,27,369.19,30v2.1c0,2.7,1.37,4.89,4.06,4.89S377.32,35,377.32,32.35Z"/><path class="cls-1" d="M386.21,16h3.05l-2.89,5H384ZM384,23.18h2.54V39.05H384Z"/><path class="cls-1" d="M395.79,29.88h3.78V28c0-2.25-1-2.76-3.52-2.76-1.91,0-2.92.16-3.81,1.62l-1.91-1.33c1.11-1.85,2.73-2.64,5.75-2.64,4,0,6,1.3,6,5.11v11h-2.54V37.5c-.89,1.46-2,1.81-4,1.81-3.68,0-5.68-1.81-5.68-4.89C389.86,31,392.3,29.88,395.79,29.88ZM399.57,32h-3.78c-2.5,0-3.39.86-3.39,2.45,0,1.78,1.27,2.48,3.14,2.48,2.35,0,4-.45,4-4Z"/><path class="cls-2" d="M78.73,17.16H80.5v22.2H78.73v-2c-.9,1.48-2.45,2.16-4.86,2.16-4.18,0-6.27-2.7-6.27-7.11V30.12c0-4.57,2.28-7,6.27-7,2.41,0,4,.77,4.86,2.28Zm0,15.31V30.15c0-3.28-1.29-5.43-4.73-5.43-3.06,0-4.64,1.9-4.64,5.4v2.32c0,3.38,1.52,5.47,4.64,5.47C77.6,37.91,78.73,35.62,78.73,32.47Z"/><path class="cls-2" d="M90.79,30.22h4.7v-2c0-2.73-1.09-3.47-4-3.47-1.93,0-3.19.13-4.22,1.83l-1.35-.93c1.13-1.9,2.74-2.57,5.6-2.57,3.92,0,5.79,1.22,5.79,5.14V39.36H95.49v-2c-.9,1.71-2.51,2.19-4.57,2.19-3.57,0-5.59-1.71-5.59-4.79S87.48,30.22,90.79,30.22Zm4.7,1.58h-4.7c-2.76,0-3.7,1.28-3.7,3,0,2.25,1.58,3.09,3.83,3.09,2.61,0,4.57-.9,4.57-4.51Z"/><path class="cls-2" d="M100.35,23.27h2.06V19.73h1.77v3.54h4v1.64h-4v9c0,2.57.29,3.73,2.9,3.73h1.06v1.71H107c-3.57,0-4.6-1.61-4.6-5V24.91h-2.06Z"/><path class="cls-2" d="M116,30.22h4.7v-2c0-2.73-1.1-3.47-4.06-3.47-1.93,0-3.18.13-4.21,1.83l-1.35-.93c1.12-1.9,2.73-2.57,5.6-2.57,3.92,0,5.79,1.22,5.79,5.14V39.36h-1.77v-2c-.9,1.71-2.51,2.19-4.57,2.19-3.57,0-5.6-1.71-5.6-4.79S112.71,30.22,116,30.22Zm4.7,1.58H116c-2.77,0-3.7,1.28-3.7,3,0,2.25,1.58,3.09,3.83,3.09,2.61,0,4.57-.9,4.57-4.51Z"/><path class="cls-2" d="M140,36.94c-1.06,1.71-3,2.61-5.47,2.61-4.31,0-6.79-2.57-6.79-7.11V30.12c0-4.57,2.54-7,6.79-7a6.39,6.39,0,0,1,5.44,2.47l-1.42,1a4.87,4.87,0,0,0-4-1.8c-3.18,0-5,1.93-5,5.4v2.32c0,3.18,1.48,5.47,5,5.47a4.54,4.54,0,0,0,4-2Z"/><path class="cls-2" d="M144.53,29.67v9.69h-1.77V23.27h1.77v2.19a4.12,4.12,0,0,1,4.05-2.38,5.24,5.24,0,0,1,4.54,2.22l-1.48,1.09a3.76,3.76,0,0,0-3.22-1.64C145.91,24.75,144.53,26.74,144.53,29.67Z"/><path class="cls-2" d="M156.18,31.76v.68c0,3.18,1.48,5.47,4.89,5.47a4.49,4.49,0,0,0,4.18-2l1.42,1c-1.13,1.77-2.9,2.61-5.51,2.61-4.27,0-6.75-2.64-6.75-7.11V30.12c0-4.57,2.19-7,6.21-7s6.21,2.47,6.21,7v1.64Zm0-1.61h8.88v0c0-3.5-1.51-5.4-4.44-5.4s-4.44,1.93-4.44,5.4ZM161.78,16h2.12l-2.83,5.08h-1.71Z"/><path class="cls-2" d="M181.11,17.16h1.77v22.2h-1.77v-2c-.9,1.48-2.44,2.16-4.85,2.16-4.19,0-6.28-2.7-6.28-7.11V30.12c0-4.57,2.29-7,6.28-7,2.41,0,4,.77,4.85,2.28Zm0,15.31V30.15c0-3.28-1.28-5.43-4.73-5.43-3,0-4.63,1.9-4.63,5.4v2.32c0,3.38,1.51,5.47,4.63,5.47C180,37.91,181.11,35.62,181.11,32.47Z"/><path class="cls-2" d="M187.68,17.16h2.15v2.15h-2.15Zm.19,6.11h1.77V39.36h-1.77Z"/><path class="cls-2" d="M193.21,23.27h2.06V19.73H197v3.54h4v1.64h-4v9c0,2.57.29,3.73,2.9,3.73H201v1.71h-1.13c-3.57,0-4.6-1.61-4.6-5V24.91h-2.06Z"/><path class="cls-2" d="M210.27,39.55c-4.15,0-6.54-2.57-6.54-7.08V30.12c0-4.57,2.42-7,6.54-7s6.53,2.47,6.53,7v2.35C216.8,36.85,214.58,39.55,210.27,39.55ZM215,30.12c0-3.5-1.71-5.4-4.76-5.4s-4.77,1.9-4.77,5.4v2.35c0,3.38,1.52,5.44,4.77,5.44S215,35.85,215,32.47Z"/><rect class="cls-2" x="236.17" y="11.58" width="0.93" height="39.35"/><path class="cls-1" d="M45,0H15A15,15,0,0,0,0,15V45A15,15,0,0,0,15,60H45A15,15,0,0,0,60,45V15A15,15,0,0,0,45,0ZM37.76,39.48a.5.5,0,0,1-.52.52H35.19a.5.5,0,0,1-.52-.52v-9c0-1.69-.56-3.71-3.23-3.71a3.26,3.26,0,0,0-3.33,3.55v9.14a.5.5,0,0,1-.52.52H25.54a.5.5,0,0,1-.52-.52v-9c0-1.69-.56-3.71-3.24-3.71a3.25,3.25,0,0,0-3.32,3.55v9.14a.5.5,0,0,1-.52.52H15.88a.5.5,0,0,1-.52-.52V24.76a.5.5,0,0,1,.52-.52h2.06a.5.5,0,0,1,.52.52v.84a5.21,5.21,0,0,1,4.13-1.71,5,5,0,0,1,4.52,2.27,6,6,0,0,1,5-2.27c3.56,0,5.68,2.23,5.68,6Zm6.78,0A.5.5,0,0,1,44,40H42a.5.5,0,0,1-.52-.52V24.76a.5.5,0,0,1,.52-.52H44a.5.5,0,0,1,.52.52Zm.07-18.82a.5.5,0,0,1-.52.52H41.9a.5.5,0,0,1-.52-.52V18.31a.5.5,0,0,1,.52-.52h2.19a.5.5,0,0,1,.52.52Z"/></g></g></svg>