<svg xmlns="http://www.w3.org/2000/svg" viewBox="0 0 166.76 24.88"><defs><style>.cls-1{fill:#b12384;}.cls-2{fill:#54565a;}</style></defs><g id="Capa_2" data-name="Capa 2"><g id="Contenido"><path class="cls-1" d="M108.89,9.51c1.64,0,2.64,1.06,2.64,3v.86c0,1.72-.85,3-2.64,3a2.07,2.07,0,0,1-1.79-.76V18.7h-1V9.61h1v.66A2,2,0,0,1,108.89,9.51Zm1.58,3.81v-.86c0-1.26-.6-2-1.68-2a1.67,1.67,0,0,0-1.69,1.91v1c0,1.14.48,2,1.69,2S110.47,14.44,110.47,13.32Z"/><path class="cls-1" d="M117.93,13.32c0,1.72-.85,3-2.74,3s-2.74-1.16-2.74-3v-.86c0-1.87,1-3,2.74-3s2.74,1.06,2.74,3Zm-1.06,0v-.86c0-1.26-.6-2-1.68-2s-1.69.77-1.69,2v.86c0,1.14.48,2,1.69,2S116.87,14.44,116.87,13.32Z"/><path class="cls-1" d="M119.18,9.61h1v.65A1.81,1.81,0,0,1,122,9.51c1.41,0,2.4.73,2.4,2.58v4.1h-1V12.1c0-1.33-.73-1.62-1.5-1.62a1.54,1.54,0,0,0-1.61,1.61v4.1h-1Z"/><path class="cls-1" d="M125.39,9.61h.84V8.16h1.06V9.61h1.51v1h-1.51V13.9c0,.91.1,1.29,1,1.29h.53v1h-.57c-1.55,0-2-.65-2-2V10.56h-.84Z"/><path class="cls-1" d="M134.78,15.19a2.31,2.31,0,0,1-2.31,1.11,2.69,2.69,0,0,1-2.82-3v-.86c0-1.87.89-3,2.61-3s2.61,1.06,2.61,3v.68h-4.16v.18c0,1.14.54,2,1.68,2a1.56,1.56,0,0,0,1.57-.74Zm-4.07-3h3.09c-.05-1.11-.54-1.77-1.54-1.77S130.77,11.13,130.71,12.22Z"/><path class="cls-1" d="M141.56,12.39h1.56v-.76c0-.94-.43-1.15-1.46-1.15-.79,0-1.21.07-1.58.67l-.79-.55a2.4,2.4,0,0,1,2.39-1.09c1.67,0,2.5.54,2.5,2.12v4.56h-1.06v-.64c-.36.61-.81.75-1.67.75-1.53,0-2.36-.75-2.36-2S140.11,12.39,141.56,12.39Zm1.56.89h-1.56c-1,0-1.41.36-1.41,1s.52,1,1.3,1c1,0,1.67-.19,1.67-1.66Z"/><path class="cls-1" d="M145.74,7.11h1.06V13.9c0,.71,0,1.32,1.12,1.32v1c-1.66,0-2.18-.65-2.18-2Z"/><path class="cls-1" d="M156.47,7.11h1.06v9.08h-1.06v-.57a2.08,2.08,0,0,1-1.79.68c-1.79,0-2.63-1.26-2.63-3v-.86c0-1.89,1-3,2.63-3a2,2,0,0,1,1.79.76Zm0,6.31v-1c0-1.24-.6-2-1.68-2s-1.69.75-1.69,2v.86c0,1.12.57,2,1.69,2S156.47,14.51,156.47,13.42Z"/><path class="cls-1" d="M160.16,6.65h1.26l-1.19,2.08h-1Zm-.92,3h1v6.58h-1Z"/><path class="cls-1" d="M164.14,12.39h1.56v-.76c0-.94-.43-1.15-1.46-1.15-.79,0-1.21.07-1.58.67l-.79-.55a2.39,2.39,0,0,1,2.38-1.09c1.68,0,2.51.54,2.51,2.12v4.56H165.7v-.64c-.37.61-.81.75-1.67.75-1.53,0-2.36-.75-2.36-2S162.69,12.39,164.14,12.39Zm1.56.89h-1.56c-1,0-1.41.36-1.41,1s.52,1,1.3,1c1,0,1.67-.19,1.67-1.66Z"/><path class="cls-2" d="M32.65,7.12h.73v9.2h-.73v-.81a2.14,2.14,0,0,1-2,.89c-1.73,0-2.6-1.12-2.6-2.95v-1c0-1.89.95-2.92,2.6-2.92a2.13,2.13,0,0,1,2,.95Zm0,6.35v-1c0-1.37-.54-2.26-2-2.26s-1.92.79-1.92,2.24v1c0,1.4.62,2.27,1.92,2.27C32.18,15.72,32.65,14.77,32.65,13.47Z"/><path class="cls-2" d="M37.65,12.53h2V11.7c0-1.13-.45-1.44-1.68-1.44-.8,0-1.32.06-1.75.76l-.56-.38a2.32,2.32,0,0,1,2.32-1.07c1.63,0,2.4.51,2.4,2.13v4.62H39.6v-.83a1.89,1.89,0,0,1-1.89.91c-1.49,0-2.33-.71-2.33-2S36.28,12.53,37.65,12.53Zm2,.66h-2c-1.15,0-1.53.53-1.53,1.24,0,.93.65,1.28,1.59,1.28s1.89-.38,1.89-1.87Z"/><path class="cls-2" d="M41.62,9.65h.85V8.18h.73V9.65h1.64v.68H43.2v3.74c0,1.06.12,1.54,1.2,1.54h.44v.71h-.46c-1.48,0-1.91-.67-1.91-2.05V10.33h-.85Z"/><path class="cls-2" d="M48.11,12.53h2V11.7c0-1.13-.45-1.44-1.68-1.44-.8,0-1.32.06-1.75.76l-.56-.38a2.32,2.32,0,0,1,2.32-1.07c1.63,0,2.41.51,2.41,2.13v4.62h-.74v-.83a1.89,1.89,0,0,1-1.89.91c-1.48,0-2.32-.71-2.32-2S46.74,12.53,48.11,12.53Zm2,.66h-2c-1.14,0-1.53.53-1.53,1.24,0,.93.65,1.28,1.59,1.28s1.89-.38,1.89-1.87Z"/><path class="cls-2" d="M58,15.32a2.5,2.5,0,0,1-2.27,1.08A2.62,2.62,0,0,1,53,13.45v-1a2.61,2.61,0,0,1,2.81-2.92,2.66,2.66,0,0,1,2.26,1l-.59.4a2,2,0,0,0-1.67-.75,2,2,0,0,0-2.08,2.24v1c0,1.32.62,2.27,2.08,2.27a1.89,1.89,0,0,0,1.68-.81Z"/><path class="cls-2" d="M59.94,12.31v4H59.2V9.65h.74v.91a1.7,1.7,0,0,1,1.68-1,2.17,2.17,0,0,1,1.88.92l-.61.45a1.57,1.57,0,0,0-1.34-.68C60.51,10.26,59.94,11.09,59.94,12.31Z"/><path class="cls-2" d="M64.77,13.17v.28c0,1.32.61,2.27,2,2.27a1.86,1.86,0,0,0,1.74-.81l.59.41a2.47,2.47,0,0,1-2.29,1.08A2.63,2.63,0,0,1,64,13.45v-1c0-1.89.91-2.92,2.58-2.92s2.57,1,2.57,2.92v.68Zm0-.66h3.68v0c0-1.45-.63-2.24-1.84-2.24s-1.84.8-1.84,2.24Zm2.32-5.86H68L66.79,8.76h-.7Z"/><path class="cls-2" d="M75.11,7.12h.73v9.2h-.73v-.81a2.14,2.14,0,0,1-2,.89c-1.73,0-2.6-1.12-2.6-2.95v-1c0-1.89,1-2.92,2.6-2.92a2.13,2.13,0,0,1,2,.95Zm0,6.35v-1c0-1.37-.54-2.26-2-2.26s-1.92.79-1.92,2.24v1c0,1.4.62,2.27,1.92,2.27C74.64,15.72,75.11,14.77,75.11,13.47Z"/><path class="cls-2" d="M77.83,7.12h.89V8h-.89Zm.08,2.53h.73v6.67h-.73Z"/><path class="cls-2" d="M80.13,9.65H81V8.18h.73V9.65h1.64v.68H81.71v3.74c0,1.06.12,1.54,1.2,1.54h.44v.71h-.46c-1.48,0-1.91-.67-1.91-2.05V10.33h-.85Z"/><path class="cls-2" d="M87.2,16.4c-1.72,0-2.71-1.07-2.71-2.93v-1c0-1.89,1-2.92,2.71-2.92s2.71,1,2.71,2.92v1C89.91,15.28,89,16.4,87.2,16.4Zm2-3.91c0-1.45-.71-2.24-2-2.24s-2,.79-2,2.24v1c0,1.4.63,2.25,2,2.25s2-.85,2-2.25Z"/><rect class="cls-2" x="97.94" y="4.8" width="0.39" height="16.32"/><path class="cls-1" d="M18.66,0H6.22A6.24,6.24,0,0,0,0,6.22V18.66a6.24,6.24,0,0,0,6.22,6.22H18.66a6.24,6.24,0,0,0,6.22-6.22V6.22A6.24,6.24,0,0,0,18.66,0Zm-3,16.37a.21.21,0,0,1-.22.22h-.85a.21.21,0,0,1-.21-.22V12.65c0-.7-.24-1.54-1.34-1.54a1.35,1.35,0,0,0-1.38,1.47v3.79a.21.21,0,0,1-.22.22h-.85a.22.22,0,0,1-.22-.22V12.65c0-.7-.23-1.54-1.34-1.54a1.35,1.35,0,0,0-1.38,1.47v3.79a.21.21,0,0,1-.21.22H6.59a.21.21,0,0,1-.22-.22v-6.1a.21.21,0,0,1,.22-.22h.85a.21.21,0,0,1,.21.22v.35a2.16,2.16,0,0,1,1.72-.71,2.07,2.07,0,0,1,1.87.94,2.46,2.46,0,0,1,2.06-.94,2.22,2.22,0,0,1,2.36,2.47Zm2.81,0a.21.21,0,0,1-.21.22H17.4a.21.21,0,0,1-.21-.22v-6.1a.21.21,0,0,1,.21-.22h.86a.21.21,0,0,1,.21.22Zm0-7.8a.21.21,0,0,1-.22.21h-.9a.21.21,0,0,1-.22-.21v-1a.21.21,0,0,1,.22-.21h.9a.21.21,0,0,1,.22.21Z"/></g></g></svg>