<svg xmlns="http://www.w3.org/2000/svg" viewBox="0 0 167.55 25"><defs><style>.cls-1{fill:#fff;}</style></defs><g id="Capa_2" data-name="Capa 2"><g id="Header"><path class="cls-1" d="M109.41,9.55c1.64,0,2.65,1.07,2.65,3v.88c0,1.72-.85,3-2.65,3a2.06,2.06,0,0,1-1.8-.77v3.18h-1.06V9.66h1.06v.66A2.06,2.06,0,0,1,109.41,9.55ZM111,13.39v-.88c0-1.25-.61-2-1.7-2s-1.69.73-1.69,1.92v1c0,1.14.48,2,1.69,2S111,14.51,111,13.39Z"/><path class="cls-1" d="M118.49,13.39c0,1.72-.85,3-2.76,3s-2.75-1.17-2.75-3v-.88c0-1.87,1-3,2.75-3s2.76,1.07,2.76,3Zm-1.06,0v-.88c0-1.25-.61-2-1.7-2s-1.69.77-1.69,2v.88c0,1.14.48,2,1.69,2S117.43,14.51,117.43,13.39Z"/><path class="cls-1" d="M119.74,9.66h1.06v.64a1.82,1.82,0,0,1,1.77-.75c1.42,0,2.41.74,2.41,2.59v4.13h-1.06V12.16c0-1.34-.73-1.63-1.51-1.63a1.54,1.54,0,0,0-1.61,1.61v4.13h-1.06Z"/><path class="cls-1" d="M126,9.66h.85V8.2h1.06V9.66h1.52v.95h-1.52V14c0,.91.11,1.3,1,1.3h.53v1h-.57c-1.56,0-2-.66-2-2V10.61H126Z"/><path class="cls-1" d="M135.42,15.27a2.35,2.35,0,0,1-2.32,1.11,2.69,2.69,0,0,1-2.83-3v-.88c0-1.87.89-3,2.62-3s2.62,1.07,2.62,3v.69h-4.18v.19c0,1.14.54,2,1.69,2a1.58,1.58,0,0,0,1.58-.74Zm-4.09-3h3.11c-.06-1.12-.54-1.78-1.55-1.78S131.39,11.18,131.33,12.28Z"/><path class="cls-1" d="M142.23,12.45h1.57v-.77c0-.94-.43-1.15-1.47-1.15-.79,0-1.21.07-1.58.67l-.8-.55a2.43,2.43,0,0,1,2.4-1.1c1.68,0,2.51.54,2.51,2.13v4.59H143.8v-.65c-.37.61-.82.76-1.68.76-1.53,0-2.37-.76-2.37-2C139.75,12.91,140.77,12.45,142.23,12.45Zm1.57.9h-1.57c-1,0-1.42.35-1.42,1s.53,1,1.31,1c1,0,1.68-.19,1.68-1.67Z"/><path class="cls-1" d="M146.43,7.14h1.06V14c0,.71,0,1.32,1.13,1.32v1c-1.67,0-2.19-.66-2.19-2Z"/><path class="cls-1" d="M157.22,7.14h1.05v9.13h-1.05v-.58a2.11,2.11,0,0,1-1.8.69c-1.8,0-2.65-1.27-2.65-3v-.88c0-1.89,1-3,2.65-3a2.06,2.06,0,0,1,1.8.77Zm0,6.34v-1c0-1.24-.61-2-1.7-2s-1.69.76-1.69,2v.88c0,1.12.57,2,1.69,2S157.22,14.58,157.22,13.48Z"/><path class="cls-1" d="M160.92,6.68h1.27L161,8.77h-1Zm-.93,3h1.06v6.61H160Z"/><path class="cls-1" d="M164.91,12.45h1.58v-.77c0-.94-.44-1.15-1.47-1.15-.79,0-1.22.07-1.59.67l-.79-.55A2.41,2.41,0,0,1,165,9.55c1.68,0,2.52.54,2.52,2.13v4.59h-1.06v-.65c-.37.61-.82.76-1.68.76-1.54,0-2.37-.76-2.37-2C162.44,12.91,163.46,12.45,164.91,12.45Zm1.58.9h-1.58c-1,0-1.41.35-1.41,1s.53,1,1.31,1c1,0,1.68-.19,1.68-1.67Z"/><path class="cls-1" d="M32.8,7.15h.74V16.4H32.8v-.82a2.12,2.12,0,0,1-2,.9c-1.74,0-2.62-1.13-2.62-3v-1c0-1.9,1-2.93,2.62-2.93a2.12,2.12,0,0,1,2,1Zm0,6.38v-1c0-1.36-.53-2.26-2-2.26-1.27,0-1.93.79-1.93,2.25v1c0,1.4.63,2.28,1.93,2.28C32.33,15.8,32.8,14.84,32.8,13.53Z"/><path class="cls-1" d="M37.83,12.59h2v-.83c0-1.14-.46-1.45-1.69-1.45-.81,0-1.33.06-1.76.77l-.56-.39a2.33,2.33,0,0,1,2.33-1.07c1.64,0,2.42.5,2.42,2.14V16.4h-.74v-.83a1.92,1.92,0,0,1-1.91.91c-1.48,0-2.33-.71-2.33-2S36.45,12.59,37.83,12.59Zm2,.66h-2c-1.15,0-1.54.53-1.54,1.25,0,.93.66,1.28,1.59,1.28,1.09,0,1.91-.37,1.91-1.87Z"/><path class="cls-1" d="M41.81,9.7h.86V8.22h.74V9.7h1.65v.68H43.41v3.75c0,1.08.12,1.56,1.2,1.56h.45v.71h-.47c-1.49,0-1.92-.67-1.92-2.07V10.38h-.86Z"/><path class="cls-1" d="M48.34,12.59h2v-.83c0-1.14-.46-1.45-1.69-1.45-.8,0-1.33.06-1.76.77l-.56-.39a2.33,2.33,0,0,1,2.33-1.07c1.64,0,2.42.5,2.42,2.14V16.4H50.3v-.83a1.91,1.91,0,0,1-1.9.91c-1.49,0-2.34-.71-2.34-2S47,12.59,48.34,12.59Zm2,.66h-2c-1.15,0-1.54.53-1.54,1.25,0,.93.66,1.28,1.6,1.28s1.9-.37,1.9-1.87Z"/><path class="cls-1" d="M58.32,15.39A2.54,2.54,0,0,1,56,16.48a2.63,2.63,0,0,1-2.83-3v-1a2.88,2.88,0,0,1,5.09-1.9l-.59.4A2,2,0,0,0,56,10.3,2,2,0,0,0,54,12.55v1c0,1.32.61,2.28,2.09,2.28A1.9,1.9,0,0,0,57.73,15Z"/><path class="cls-1" d="M60.22,12.36v4h-.74V9.7h.74v.91a1.71,1.71,0,0,1,1.69-1,2.18,2.18,0,0,1,1.89.92l-.62.46a1.56,1.56,0,0,0-1.34-.69C60.8,10.31,60.22,11.14,60.22,12.36Z"/><path class="cls-1" d="M65.07,13.23v.29c0,1.32.62,2.28,2,2.28A1.87,1.87,0,0,0,68.85,15l.59.41a2.45,2.45,0,0,1-2.29,1.09,2.64,2.64,0,0,1-2.81-3v-1c0-1.9.91-2.93,2.58-2.93s2.59,1,2.59,2.93v.68Zm0-.67h3.7c0-1.46-.63-2.25-1.85-2.25s-1.85.8-1.85,2.25Zm2.34-5.88h.88L67.11,8.8H66.4Z"/><path class="cls-1" d="M75.46,7.15h.74V16.4h-.74v-.82a2.11,2.11,0,0,1-2,.9c-1.74,0-2.61-1.13-2.61-3v-1c0-1.9,1-2.93,2.61-2.93a2.11,2.11,0,0,1,2,1Zm0,6.38v-1c0-1.36-.53-2.26-2-2.26-1.27,0-1.93.79-1.93,2.25v1c0,1.4.63,2.28,1.93,2.28C75,15.8,75.46,14.84,75.46,13.53Z"/><path class="cls-1" d="M78.2,7.15h.9v.9h-.9Zm.08,2.55H79v6.7h-.74Z"/><path class="cls-1" d="M80.51,9.7h.85V8.22h.74V9.7h1.65v.68H82.1v3.75c0,1.08.12,1.56,1.21,1.56h.44v.71h-.47c-1.49,0-1.92-.67-1.92-2.07V10.38h-.85Z"/><path class="cls-1" d="M87.61,16.48c-1.73,0-2.72-1.07-2.72-3v-1c0-1.9,1-2.93,2.72-2.93s2.72,1,2.72,2.93v1C90.33,15.35,89.41,16.48,87.61,16.48Zm2-3.93c0-1.46-.71-2.25-2-2.25s-2,.79-2,2.25v1c0,1.41.63,2.27,2,2.27s2-.86,2-2.27Z"/><rect class="cls-1" x="98.41" y="4.82" width="0.39" height="16.4"/><path class="cls-1" d="M18.75,0H6.25A6.27,6.27,0,0,0,0,6.25v12.5A6.27,6.27,0,0,0,6.25,25h12.5A6.27,6.27,0,0,0,25,18.75V6.25A6.27,6.27,0,0,0,18.75,0Zm-3,16.45a.21.21,0,0,1-.21.22h-.86a.21.21,0,0,1-.21-.22V12.71c0-.71-.24-1.55-1.35-1.55a1.36,1.36,0,0,0-1.39,1.48v3.81a.21.21,0,0,1-.21.22h-.86a.21.21,0,0,1-.22-.22V12.71c0-.71-.23-1.55-1.34-1.55a1.36,1.36,0,0,0-1.39,1.48v3.81a.21.21,0,0,1-.22.22H6.62a.21.21,0,0,1-.22-.22V10.32a.21.21,0,0,1,.22-.22h.85a.21.21,0,0,1,.22.22v.35A2.17,2.17,0,0,1,9.41,10a2.12,2.12,0,0,1,1.89,1,2.47,2.47,0,0,1,2.07-1,2.23,2.23,0,0,1,2.36,2.49Zm2.83,0a.21.21,0,0,1-.22.22h-.85a.21.21,0,0,1-.22-.22V10.32a.21.21,0,0,1,.22-.22h.85a.21.21,0,0,1,.22.22Zm0-7.84a.21.21,0,0,1-.22.21h-.91a.21.21,0,0,1-.22-.21v-1a.21.21,0,0,1,.22-.22h.91a.22.22,0,0,1,.22.22Z"/></g></g></svg>