<svg xmlns="http://www.w3.org/2000/svg" xmlns:xlink="http://www.w3.org/1999/xlink" viewBox="0 0 333.26 351.12"><defs><style>.cls-1{fill:#fff;}.cls-2{fill:#ccc;}.cls-3{fill:#9bcbe9;}.cls-4{fill:#331239;}.cls-5{fill:#e45d79;}.cls-6{fill:#ffcb37;}.cls-7{fill:#ffe5ae;}.cls-8{fill:#3e275c;}.cls-9{fill:#ff97a7;}.cls-10{fill:#ff9a19;}.cls-11{fill:#ff97a8;}.cls-12{fill:#ff5d7b;}.cls-13{fill:#82cbea;}.cls-14{fill:#bfeaf5;}.cls-15{fill:#8fd9ed;}.cls-16{fill:#380a37;}.cls-17{fill:#43225d;}.cls-18{opacity:0.5;isolation:isolate;fill:url(#Degradado_sin_nombre_2);}.cls-19{fill:#ba2f7d;}.cls-20{fill:#efeff6;}.cls-21{fill:#0c9;}.cls-22{fill:none;stroke:#fff;stroke-linecap:round;stroke-linejoin:round;stroke-width:3.78px;}</style><linearGradient id="Degradado_sin_nombre_2" x1="-6637.39" y1="-2731.91" x2="-6637.01" y2="-2731.42" gradientTransform="matrix(148.68, 0, 0, -110.72, 987010.2, -302282.54)" gradientUnits="userSpaceOnUse"><stop offset="0" stop-color="#00c4bb"/><stop offset="0.19" stop-color="#00c4bb" stop-opacity="0.76"/><stop offset="0.47" stop-color="#00c4bb" stop-opacity="0.44"/><stop offset="0.71" stop-color="#00c4bb" stop-opacity="0.2"/><stop offset="0.9" stop-color="#00c4bb" stop-opacity="0.05"/><stop offset="1" stop-color="#00c4bb" stop-opacity="0"/></linearGradient></defs><g id="Capa_2" data-name="Capa 2"><g id="Alertas"><g id="Grupo_1299" data-name="Grupo 1299"><g id="Grupo_1264" data-name="Grupo 1264"><g id="Grupo_1263" data-name="Grupo 1263"><g id="Grupo_1262" data-name="Grupo 1262"><path id="Trazado_1800" data-name="Trazado 1800" class="cls-1" d="M29.15,55.54a6.89,6.89,0,0,0-1.2,7l67.56-1.2a6.36,6.36,0,0,0-10.77-6.77,5.88,5.88,0,0,0-.62,1.29,29.9,29.9,0,0,0-2.78-14.7,19.29,19.29,0,0,0-11-9.84,14.35,14.35,0,0,0-14.1,2.94c-4.3,4.16-5,10.71-5.37,16.69a8.06,8.06,0,0,0-15,2.55A6.9,6.9,0,0,0,29.15,55.54Z"/></g></g></g><g id="Grupo_1298" data-name="Grupo 1298"><path id="Trazado_1801" data-name="Trazado 1801" class="cls-2" d="M177.59,326.24c-46.43,0-84.06,4-84.06,8.93s37.63,8.93,84.06,8.93,84-4,84-8.93S224,326.24,177.59,326.24Z"/><g id="Grupo_1291" data-name="Grupo 1291"><g id="Grupo_1286" data-name="Grupo 1286"><g id="Grupo_1265" data-name="Grupo 1265"><rect id="Rectángulo_219" data-name="Rectángulo 219" class="cls-3" x="162.54" y="170.18" width="5.26" height="67.69" transform="translate(-36.24 35.68) rotate(-11.12)"/><rect id="Rectángulo_220" data-name="Rectángulo 220" class="cls-3" x="191.31" y="201.4" width="67.69" height="5.26" transform="translate(-18.46 385.61) rotate(-78.88)"/><rect id="Rectángulo_221" data-name="Rectángulo 221" class="cls-3" x="84.6" y="283.38" width="99.92" height="5.26" transform="matrix(0.19, -0.98, 0.98, 0.19, -172.04, 362.9)"/><path id="Trazado_1802" data-name="Trazado 1802" class="cls-4" d="M147.29,174.87h0a24.52,24.52,0,0,1,29-29l15.83,3.27a24.73,24.73,0,0,0,9.92,0l12.55-2.59a24.1,24.1,0,0,1,27.92,30.64h0a26.06,26.06,0,0,1-24.93,18.44H172.81A26.06,26.06,0,0,1,147.29,174.87Z"/><rect id="Rectángulo_222" data-name="Rectángulo 222" class="cls-3" x="221.23" y="236.05" width="5.26" height="99.91" transform="translate(-50.95 48.54) rotate(-11.12)"/><path id="Trazado_1803" data-name="Trazado 1803" class="cls-4" d="M220.59,241H137.82a4.57,4.57,0,0,1-4.56-4.55h0a4.57,4.57,0,0,1,4.56-4.56h82.77a4.56,4.56,0,0,1,4.56,4.56h0A4.56,4.56,0,0,1,220.59,241Z"/></g><path id="Trazado_1804" data-name="Trazado 1804" class="cls-5" d="M165.09,180.66s-46.36,11.6-48.32,48.14,13.69,111.65,13.69,111.65l2.23-.5s9.12-98.47,10.29-106.3,49.29-10.17,57.89-24.25a43.74,43.74,0,0,0,5.71-28.74Z"/><g id="Grupo_1267" data-name="Grupo 1267"><g id="Grupo_1266" data-name="Grupo 1266"><path id="Trazado_1805" data-name="Trazado 1805" class="cls-6" d="M179.87,167c-9.68,1.87-31.72-9.35-31.23-25.68.67-22.36,24.23-28.34,28.24-35.29,5.43-9.41,11.07-19.11,19.19-8.73,0,0,6.32-2.71,8.41,6.28,2,8.43,9.8,15.78,12.88,20.77C244.78,168.71,203.3,162.45,179.87,167Z"/></g></g><g id="Grupo_1268" data-name="Grupo 1268"><path id="Trazado_1806" data-name="Trazado 1806" class="cls-7" d="M152.5,134.53c1.91-7.67,12.7-14,20.12-19S186,97.46,188.68,95.22a5.12,5.12,0,0,1,4.68-.76c-6.7-5.32-11.67,3.21-16.48,11.54-4,7-27.57,12.93-28.24,35.28A18.88,18.88,0,0,0,151.1,151C150.16,144.1,151.88,137,152.5,134.53Z"/></g><g id="Grupo_1271" data-name="Grupo 1271"><g id="Grupo_1269" data-name="Grupo 1269"><path id="Trazado_1807" data-name="Trazado 1807" class="cls-8" d="M37.21,298.23c1.5-1.15,6.14-.63,9.74,0-1.23.13-2.57.51-1.3,1.66,1.85,1.67,6.9,3.31,9.06,2.44a11,11,0,0,1-1.26,4.19C52.73,307.9,34.78,300.09,37.21,298.23Z"/></g><g id="Grupo_1270" data-name="Grupo 1270"><path id="Trazado_1808" data-name="Trazado 1808" class="cls-9" d="M45.65,299.85c-1.27-1.14.07-1.53,1.3-1.66,2.23.36,3.68.57,4.12.58a5.07,5.07,0,0,0,2.23-.52l1.09.28s.34,3.35.32,3.76C52.55,303.16,47.5,301.52,45.65,299.85Z"/></g></g><g id="Grupo_1274" data-name="Grupo 1274"><g id="Grupo_1272" data-name="Grupo 1272"><path id="Trazado_1809" data-name="Trazado 1809" class="cls-8" d="M119.5,349.67c-.61-1.76,6-7.31,8.43-8.34-.75.67-1.82,2-.67,2.57,1.68.78,5-.42,6.18-2.2a17,17,0,0,1,.42,4.56C133.82,347.92,120.93,353.81,119.5,349.67Z"/></g><g id="Grupo_1273" data-name="Grupo 1273"><path id="Trazado_1810" data-name="Trazado 1810" class="cls-5" d="M125.31,345.42c-1.15-.54,1.5-3.17,2.25-3.83a17.05,17.05,0,0,1,2.79-1.65,2.62,2.62,0,0,0,1-1.48l1.28-.17a3,3,0,0,0,.4,2.36,4.38,4.38,0,0,1,.43,1.05C132.3,343.48,127,346.2,125.31,345.42Z"/></g></g><g id="Grupo_1275" data-name="Grupo 1275"><path id="Trazado_1811" data-name="Trazado 1811" class="cls-10" d="M217.36,124.32c-3.08-5-10.92-12.34-12.88-20.77-2.09-9-8.41-6.28-8.41-6.28s1.12,1.42,2.35,5.63-7.26,5.74-7.26,5.74l.9,56.75C214.74,163.16,240.42,161.65,217.36,124.32Z"/></g><path id="Trazado_1812" data-name="Trazado 1812" class="cls-11" d="M160.67,192.92c9.06-10,14.83-46.11,7.2-53.9-2.73-2.78-5.61-4.5-10.44-1.49-6.43,4-6.67,45.44-6.67,45.44l-4.07-.68C149,185.35,155.76,189.84,160.67,192.92Z"/><g id="Grupo_1276" data-name="Grupo 1276"><path id="Trazado_1813" data-name="Trazado 1813" class="cls-12" d="M160.68,192.93c7.07-7.8,12.13-31.54,10.38-45.28v0L171,147l0-.14c0-.2-.06-.4-.1-.6l0-.18c0-.18-.06-.37-.09-.54s0-.14-.05-.21-.07-.34-.11-.51a1.6,1.6,0,0,0-.05-.21l-.12-.48c0-.05,0-.1,0-.15-.08-.29-.17-.58-.25-.85l-.09-.28c0-.09-.08-.2-.11-.31l-.12-.31c0-.1-.08-.19-.11-.28s-.09-.21-.14-.31-.07-.17-.11-.26l-.15-.3-.12-.24-.17-.28-.12-.22a2.61,2.61,0,0,0-.19-.27l-.12-.19a3,3,0,0,0-.22-.28.76.76,0,0,0-.11-.14,4.32,4.32,0,0,0-.34-.39h0c-.19-.18-.37-.37-.56-.54s-.61-.56-.92-.82a8.75,8.75,0,0,0-1.76-1.12c.34,10.58.76,36.83-2.93,46.7a14.6,14.6,0,0,1-5.26,7C157.92,191.18,159.36,192.1,160.68,192.93Z"/></g><path id="Trazado_1814" data-name="Trazado 1814" class="cls-13" d="M157.43,137.53c4.83-3,7.72-1.29,10.44,1.49,3.56,3.63,4.2,13.44,2.95,23.88L152,158.2C152.93,148.53,154.56,139.31,157.43,137.53Z"/><g id="Grupo_1277" data-name="Grupo 1277"><path id="Trazado_1815" data-name="Trazado 1815" class="cls-12" d="M170,142.8h0l-.06-.17Z"/><path id="Trazado_1816" data-name="Trazado 1816" class="cls-12" d="M169.14,140.79c0,.07.07.14.1.2S169.17,140.86,169.14,140.79Z"/><path id="Trazado_1818" data-name="Trazado 1818" class="cls-12" d="M171.41,154v0Z"/><path id="Trazado_1819" data-name="Trazado 1819" class="cls-12" d="M168.22,139.41l.05.07Z"/><path id="Trazado_1820" data-name="Trazado 1820" class="cls-12" d="M168.54,139.83l.11.16Z"/><path id="Trazado_1822" data-name="Trazado 1822" class="cls-12" d="M171,147l.06.39-.06-.4Z"/><path id="Trazado_1824" data-name="Trazado 1824" class="cls-12" d="M171.22,149.12a1.23,1.23,0,0,1,0-.19A1.23,1.23,0,0,0,171.22,149.12Z"/><path id="Trazado_1825" data-name="Trazado 1825" class="cls-12" d="M170.94,146.81h0l0-.23Z"/><path id="Trazado_1826" data-name="Trazado 1826" class="cls-12" d="M170.71,145.49c0,.07,0,.14,0,.21S170.72,145.56,170.71,145.49Z"/><path id="Trazado_1827" data-name="Trazado 1827" class="cls-12" d="M171.39,152.29c0-.14,0-.28,0-.42C171.38,152,171.39,152.15,171.39,152.29Z"/><path id="Trazado_1828" data-name="Trazado 1828" class="cls-12" d="M170.38,144.08c.05.15.09.32.13.48h0c0-.16-.08-.33-.13-.49Z"/><path id="Trazado_1829" data-name="Trazado 1829" class="cls-12" d="M171.33,150.67c0-.11,0-.22,0-.32C171.31,150.45,171.32,150.56,171.33,150.67Z"/><path id="Trazado_1830" data-name="Trazado 1830" class="cls-12" d="M170.85,162.69l.15-1.42Z"/><path id="Trazado_1831" data-name="Trazado 1831" class="cls-12" d="M171.2,159l.06-.77Z"/><path id="Trazado_1832" data-name="Trazado 1832" class="cls-12" d="M171.05,160.8c0-.39.07-.79.1-1.18C171.12,160,171.09,160.41,171.05,160.8Z"/><path id="Trazado_1833" data-name="Trazado 1833" class="cls-12" d="M171.32,157.17l0-.7Z"/><path id="Trazado_1835" data-name="Trazado 1835" class="cls-12" d="M165.58,137.08l-.1-.07Z"/><path id="Trazado_1836" data-name="Trazado 1836" class="cls-12" d="M171.38,155.62c0-.26,0-.51,0-.77C171.39,155.11,171.38,155.36,171.38,155.62Z"/><path id="Trazado_1837" data-name="Trazado 1837" class="cls-14" d="M171.38,151.87c0-.4,0-.8,0-1.2C171.35,151.07,171.37,151.47,171.38,151.87Z"/><path id="Trazado_1838" data-name="Trazado 1838" class="cls-14" d="M170.82,162.9h0l0-.21Z"/><path id="Trazado_1839" data-name="Trazado 1839" class="cls-14" d="M171.26,158.18l.06-1Z"/><path id="Trazado_1840" data-name="Trazado 1840" class="cls-14" d="M171.35,156.47l0-.85Z"/><path id="Trazado_1841" data-name="Trazado 1841" class="cls-14" d="M171,161.27c0-.16,0-.31.05-.47C171,161,171,161.11,171,161.27Z"/><path id="Trazado_1842" data-name="Trazado 1842" class="cls-14" d="M171.39,154.85c0-.3,0-.61,0-.91C171.4,154.25,171.4,154.55,171.39,154.85Z"/><path id="Trazado_1843" data-name="Trazado 1843" class="cls-14" d="M171.15,159.62l.06-.67Z"/><path id="Trazado_1844" data-name="Trazado 1844" class="cls-14" d="M171.41,153.47c0-.4,0-.79,0-1.18C171.4,152.67,171.41,153.07,171.41,153.47Z"/><path id="Trazado_1845" data-name="Trazado 1845" class="cls-14" d="M169.78,142.18l-.12-.28-.13-.31-.12-.26-.15-.3,0,0a12.43,12.43,0,0,1,.7,1.64s0-.09,0-.14S169.82,142.28,169.78,142.18Z"/><path id="Trazado_1846" data-name="Trazado 1846" class="cls-14" d="M170.09,143.07l.3,1,0-.14C170.26,143.64,170.18,143.35,170.09,143.07Z"/><path id="Trazado_1847" data-name="Trazado 1847" class="cls-14" d="M168.85,140.29l-.18-.27,0,0c.18.26.34.53.49.8,0-.1-.11-.19-.16-.28S168.89,140.36,168.85,140.29Z"/><path id="Trazado_1848" data-name="Trazado 1848" class="cls-14" d="M171,147.34c0,.1,0,.2,0,.3v0A2.7,2.7,0,0,1,171,147.34Z"/><path id="Trazado_1849" data-name="Trazado 1849" class="cls-14" d="M168.27,139.48l.27.36-.21-.29Z"/><path id="Trazado_1850" data-name="Trazado 1850" class="cls-14" d="M170.56,144.77a1.29,1.29,0,0,1-.05-.21c.07.3.14.61.2.93,0-.07,0-.14-.05-.2S170.59,144.94,170.56,144.77Z"/><path id="Trazado_1851" data-name="Trazado 1851" class="cls-14" d="M170.81,146l-.06-.34c.06.29.11.58.16.88l-.06-.36A1.16,1.16,0,0,1,170.81,146Z"/><path id="Trazado_1852" data-name="Trazado 1852" class="cls-14" d="M168.22,139.41a4.4,4.4,0,0,0-.35-.39C168,139.14,168.11,139.28,168.22,139.41Z"/><path id="Trazado_1853" data-name="Trazado 1853" class="cls-14" d="M171,147a.68.68,0,0,0,0-.14A.68.68,0,0,1,171,147Z"/><path id="Trazado_1854" data-name="Trazado 1854" class="cls-14" d="M171.2,148.93c0-.44-.09-.87-.14-1.28C171.11,148.07,171.16,148.49,171.2,148.93Z"/><path id="Trazado_1855" data-name="Trazado 1855" class="cls-14" d="M170.09,143.07l-.09-.27Z"/><path id="Trazado_1856" data-name="Trazado 1856" class="cls-14" d="M167.87,139l-.55-.54Z"/><path id="Trazado_1857" data-name="Trazado 1857" class="cls-14" d="M171.31,150.35l-.09-1.23Z"/><path id="Trazado_1858" data-name="Trazado 1858" class="cls-14" d="M165.58,137.08a12.26,12.26,0,0,1,1.74,1.4c-.3-.29-.61-.56-.92-.81A8.89,8.89,0,0,0,165.58,137.08Z"/><path id="Trazado_1859" data-name="Trazado 1859" class="cls-15" d="M164,136.52c-.31,0-.61.08-.92.14l-.11,0a8.08,8.08,0,0,0-.93.26c-.36.12-.72.26-1.09.42h0l-.67.31h0a3.55,3.55,0,0,0-.43.23l-.07,0-.08.05-.28.18-.14.11,0,0-.25.19-.17.15-.24.2-.15.15,0,0-.22.22-.18.19-.21.24-.19.22-.2.25-.08.1-.11.14-.15.22h0q-.24.33-.48.69l-.08.12-.25.41-.1.17-.24.43a1,1,0,0,0-.1.17,1.62,1.62,0,0,1-.1.18l-.15.28-.08.15-.16.32-.1.2-.06.12-.16.34-.11.24v0h0c-.17.36-.33.74-.49,1.12,0,.06,0,.11-.07.17-.14.36-.28.72-.43,1.09,0,.1-.07.19-.1.29-.13.35-.26.71-.38,1.08-.05.12-.09.25-.13.37-.12.36-.23.72-.35,1.08,0,.14-.08.29-.13.43l-.24.83c-.07.24-.13.48-.2.72s-.14.51-.2.77-.12.44-.17.66-.15.62-.23.94-.11.48-.16.73-.09.41-.14.62c-.08.37-.16.75-.23,1.12,0,.15,0,.29-.08.44-.09.45-.18.9-.26,1.35l0,.21,6.24.73C159.42,150.38,162.32,141.51,164,136.52Z"/></g><g id="Grupo_1278" data-name="Grupo 1278"><path id="Trazado_1860" data-name="Trazado 1860" class="cls-14" d="M165.85,135.27c3.63-4.33,20.77-7.51,37.11-4.94,8.4,1.32,19.29,6.42,20.92,11.71,3.28,10.61-17.76,33.71-17.3,38.62-8.9,4-37,2.16-41.49,0C165.17,180.24,159.18,143.23,165.85,135.27Z"/></g><g id="Grupo_1280" data-name="Grupo 1280"><path id="Trazado_1862" data-name="Trazado 1862" class="cls-9" d="M193,120.55s1.16,10,.65,11.14-2.42,2.61-3.55.11-.09-11.25-.09-11.25Z"/></g><g id="Grupo_1281" data-name="Grupo 1281"><path id="Trazado_1863" data-name="Trazado 1863" class="cls-5" d="M193.7,127.85a3.47,3.47,0,0,1-4.1.41,54.1,54.1,0,0,1,.21-5.42h3.46C193.42,124.28,193.6,126.17,193.7,127.85Z"/></g><g id="Grupo_1282" data-name="Grupo 1282"><path id="Trazado_1864" data-name="Trazado 1864" class="cls-9" d="M184.62,119.63c-.83-1.5,6.17-10.64,6.54-11,1.7.27,3.78.22,5.3,1.14s1.8,3.34,1.94,5.08-.25,4.89-1.24,6.4a8,8,0,0,1-5.23,2.72C187.17,124.1,185.76,122.92,184.62,119.63Z"/></g><g id="Grupo_1285" data-name="Grupo 1285"><g id="Grupo_1283" data-name="Grupo 1283"><path id="Trazado_1865" data-name="Trazado 1865" class="cls-16" d="M198.07,119.36h0l0-6.67h.79a3.34,3.34,0,0,1,2.94,3.69h0v0a3.32,3.32,0,0,1-3.68,2.94Z"/></g><g id="Grupo_1284" data-name="Grupo 1284"><path id="Trazado_1866" data-name="Trazado 1866" class="cls-16" d="M182.69,108.92a8.64,8.64,0,0,1,7.35-5.16h.13c3.19-.29,5.74.44,7.57,2.16,2.12,2,2.86,6,2.8,8.19L198.69,113a7.94,7.94,0,0,0-2.19-5.81c-1.44-1.35-3.51-1.91-6.18-1.68C186,105.92,182.26,109.93,182.69,108.92Z"/></g><ellipse id="Elipse_20" data-name="Elipse 20" class="cls-16" cx="193.15" cy="122.32" rx="1.18" ry="0.95"/><path id="Trazado_1867" data-name="Trazado 1867" class="cls-16" d="M195.58,123.22a6.57,6.57,0,0,1-1.77-.24l.25-.8a4.88,4.88,0,0,0,3.58-.33,3.89,3.89,0,0,0,1.58-3l.82.1a4.25,4.25,0,0,1-4.46,4.27Z"/></g><path id="Trazado_1868" data-name="Trazado 1868" class="cls-9" d="M187.52,184.44c-12.4.38-29.8-3.32-49.63,0s-38.85,10.41-49.28,35-36.33,79.37-36.33,79.37l2,1.52s62.32-68.56,67.92-84.18c0,0,42.55,20.23,64.82,19.3,34.45-1.43,35.26-40.8,19.51-54.82C206.58,180.66,194.74,184.22,187.52,184.44Z"/><path id="Trazado_1869" data-name="Trazado 1869" class="cls-17" d="M148.64,183.25s9.86,47.28,9.33,52.23c0,0,17.42,2.74,25.66,3.13,12.42.6,25.48-6.1,29.89-12.78,4.21-6.36,10.71-31.49-6.93-45.17,0,0-34.64,3.07-41.49,0Z"/></g><g id="Grupo_1290" data-name="Grupo 1290"><path id="Trazado_1871" data-name="Trazado 1871" class="cls-11" d="M144.84,186.63s-6,.53-7.8-1.23c-3-3-4.48-6.73-3.68-7.49s6.12,2.28,6.85,3.17,5.34,1.28,6.89,3C147.68,184.7,146.85,186.18,144.84,186.63Z"/><path id="Trazado_1872" data-name="Trazado 1872" class="cls-11" d="M213.67,194.25c-20,15.35-70.77-9.23-70.77-9.23a51.73,51.73,0,0,1,29.84-6.82c6.88.5,32.42,4.76,32.42,4.76s.24-41.43,6.67-45.43c4.83-3,7.71-1.29,10.44,1.49C230.29,147.2,223.51,186.7,213.67,194.25Z"/><g id="Grupo_1287" data-name="Grupo 1287"><path id="Trazado_1873" data-name="Trazado 1873" class="cls-12" d="M190.54,193.57c5.61.21,20.88,2.17,25.56-10.33,3.7-9.87,3.28-36.12,2.94-46.7a8.68,8.68,0,0,1,1.75,1.12c.31.26.62.53.92.82s.38.35.56.54h0c.12.12.23.25.35.39l.1.14a3,3,0,0,1,.22.28l.13.18.18.28.13.22.16.28.12.24.15.3.12.26c0,.1.09.2.13.31s.08.18.11.28.08.21.12.31.08.21.11.31.06.18.09.27c.09.28.17.56.25.86l0,.15c0,.15.08.32.11.48l.06.21c0,.17.07.34.11.51a1.18,1.18,0,0,0,0,.2c0,.18.07.37.1.55l0,.18c0,.2.07.4.1.6s0,.09,0,.14l.09.67v0c1.87,14.63-4,40.62-11.79,46.6-20,15.35-70.77-9.23-70.77-9.23s.76-.5,2.18-1.24C165,188.4,187.5,193.46,190.54,193.57Z"/></g><g id="Grupo_1288" data-name="Grupo 1288"><path id="Trazado_1874" data-name="Trazado 1874" class="cls-18" d="M108.57,153.71l69.82-78.34S228.13,95,257.25,156.82l-95,29.27"/><path id="Trazado_1875" data-name="Trazado 1875" class="cls-19" d="M114.82,185.47l-6.62-28.29a6.29,6.29,0,0,1,6.15-7.75h47.41a6.32,6.32,0,0,1,6,8.24l-5.64,27.8Z"/><path id="Trazado_1876" data-name="Trazado 1876" class="cls-19" d="M114.82,185.47l.67,2.15a6.13,6.13,0,0,0,5.86,4.3h58.9a5.75,5.75,0,0,0,5.54-4.23l.74-2.75-27.65.53Z"/><path id="Trazado_1877" data-name="Trazado 1877" class="cls-20" d="M139.76,167.45a3.6,3.6,0,1,1-3.6-3.6h0A3.6,3.6,0,0,1,139.76,167.45Z"/></g><path id="Trazado_1878" data-name="Trazado 1878" class="cls-11" d="M112.51,177.26s-1.41-3.25-.8-4.13,1.43,2.74,2.27,3.45,5.13,4.08,5.19,5.32-2.08.29-2.08.29,2.27,1.75,1.53,2.18-3,.88-4.67-1.83A9.27,9.27,0,0,1,112.51,177.26Z"/><path id="Trazado_1879" data-name="Trazado 1879" class="cls-13" d="M211.83,137.53c4.83-3,7.71-1.29,10.44,1.49,3.56,3.63,4.2,13.44,2.95,23.88l-18.83-4.7C207.32,148.53,209,139.31,211.83,137.53Z"/><g id="Grupo_1289" data-name="Grupo 1289"><path id="Trazado_1880" data-name="Trazado 1880" class="cls-12" d="M224.4,142.8h0l-.06-.17Z"/><path id="Trazado_1881" data-name="Trazado 1881" class="cls-12" d="M223.54,140.8c0,.06.07.13.1.2S223.57,140.86,223.54,140.8Z"/><path id="Trazado_1883" data-name="Trazado 1883" class="cls-12" d="M225.8,154v0Z"/><path id="Trazado_1884" data-name="Trazado 1884" class="cls-12" d="M222.62,139.41l0,.07Z"/><path id="Trazado_1885" data-name="Trazado 1885" class="cls-12" d="M222.94,139.83l.11.16-.11-.16Z"/><path id="Trazado_1887" data-name="Trazado 1887" class="cls-12" d="M225.36,147l.06.39-.06-.4Z"/><path id="Trazado_1889" data-name="Trazado 1889" class="cls-12" d="M225.62,149.12c0-.06,0-.13,0-.19S225.61,149.06,225.62,149.12Z"/><path id="Trazado_1890" data-name="Trazado 1890" class="cls-12" d="M225.34,146.81h0a1.7,1.7,0,0,0,0-.22A1.7,1.7,0,0,1,225.34,146.81Z"/><path id="Trazado_1891" data-name="Trazado 1891" class="cls-12" d="M225.11,145.49a1.55,1.55,0,0,0,0,.21A1.55,1.55,0,0,1,225.11,145.49Z"/><path id="Trazado_1892" data-name="Trazado 1892" class="cls-12" d="M225.79,152.29v0Z"/><path id="Trazado_1893" data-name="Trazado 1893" class="cls-12" d="M224.79,144.08c0,.16.08.32.11.48h0c0-.16-.07-.33-.11-.48Z"/><path id="Trazado_1894" data-name="Trazado 1894" class="cls-12" d="M225.73,150.67c0-.11,0-.21,0-.32C225.71,150.46,225.72,150.56,225.73,150.67Z"/><path id="Trazado_1895" data-name="Trazado 1895" class="cls-12" d="M225.25,162.69l.15-1.42Z"/><path id="Trazado_1896" data-name="Trazado 1896" class="cls-12" d="M225.6,159l.06-.77Z"/><path id="Trazado_1897" data-name="Trazado 1897" class="cls-12" d="M225.45,160.8c0-.39.07-.79.1-1.18C225.52,160,225.49,160.41,225.45,160.8Z"/><path id="Trazado_1898" data-name="Trazado 1898" class="cls-12" d="M225.72,157.17l0-.7Z"/><path id="Trazado_1900" data-name="Trazado 1900" class="cls-12" d="M220,137.08l-.09-.07Z"/><path id="Trazado_1901" data-name="Trazado 1901" class="cls-12" d="M225.78,155.63c0-.27,0-.52,0-.78C225.79,155.11,225.78,155.36,225.78,155.63Z"/><path id="Trazado_1902" data-name="Trazado 1902" class="cls-14" d="M225.78,151.87c0-.4,0-.8-.05-1.2C225.75,151.07,225.77,151.47,225.78,151.87Z"/><path id="Trazado_1903" data-name="Trazado 1903" class="cls-14" d="M225.22,162.9h0l0-.21Z"/><path id="Trazado_1904" data-name="Trazado 1904" class="cls-14" d="M225.66,158.18l.06-1Z"/><path id="Trazado_1905" data-name="Trazado 1905" class="cls-14" d="M225.75,156.47q0-.43,0-.84Q225.77,156,225.75,156.47Z"/><path id="Trazado_1906" data-name="Trazado 1906" class="cls-14" d="M225.4,161.27c0-.16,0-.31,0-.47C225.43,161,225.41,161.11,225.4,161.27Z"/><path id="Trazado_1907" data-name="Trazado 1907" class="cls-14" d="M225.79,154.85c0-.3,0-.61,0-.91C225.8,154.25,225.8,154.55,225.79,154.85Z"/><path id="Trazado_1908" data-name="Trazado 1908" class="cls-14" d="M225.55,159.62c0-.22,0-.44,0-.67C225.59,159.18,225.57,159.4,225.55,159.62Z"/><path id="Trazado_1909" data-name="Trazado 1909" class="cls-14" d="M225.81,153.47c0-.4,0-.79,0-1.18C225.8,152.68,225.8,153.07,225.81,153.47Z"/><path id="Trazado_1910" data-name="Trazado 1910" class="cls-14" d="M224.17,142.18a2.33,2.33,0,0,0-.11-.28l-.13-.31-.12-.26-.15-.3,0,0a12.43,12.43,0,0,1,.7,1.64s0-.09,0-.14S224.21,142.28,224.17,142.18Z"/><path id="Trazado_1911" data-name="Trazado 1911" class="cls-14" d="M224.49,143.08c.1.32.2.65.3,1a1.13,1.13,0,0,1,0-.15C224.66,143.64,224.58,143.35,224.49,143.08Z"/><path id="Trazado_1912" data-name="Trazado 1912" class="cls-14" d="M223.25,140.3l-.18-.28,0,0a8.3,8.3,0,0,1,.49.81l-.16-.29C223.33,140.44,223.29,140.36,223.25,140.3Z"/><path id="Trazado_1913" data-name="Trazado 1913" class="cls-14" d="M225.42,147.34c0,.1,0,.2,0,.3v0A2.36,2.36,0,0,1,225.42,147.34Z"/><path id="Trazado_1914" data-name="Trazado 1914" class="cls-14" d="M222.67,139.48l.27.36-.21-.29Z"/><path id="Trazado_1915" data-name="Trazado 1915" class="cls-14" d="M225,144.77a1.46,1.46,0,0,1-.05-.2c.07.3.14.6.2.92,0-.07,0-.14,0-.2S225,144.94,225,144.77Z"/><path id="Trazado_1916" data-name="Trazado 1916" class="cls-14" d="M225.21,146l-.06-.34c.06.29.11.58.15.89,0-.13,0-.25-.06-.37Z"/><path id="Trazado_1917" data-name="Trazado 1917" class="cls-14" d="M222.62,139.41l-.35-.39Z"/><path id="Trazado_1918" data-name="Trazado 1918" class="cls-14" d="M225.36,147a.68.68,0,0,0,0-.14A.68.68,0,0,1,225.36,147Z"/><path id="Trazado_1919" data-name="Trazado 1919" class="cls-14" d="M225.6,148.93c0-.44-.09-.87-.14-1.28C225.51,148.07,225.56,148.49,225.6,148.93Z"/><path id="Trazado_1920" data-name="Trazado 1920" class="cls-14" d="M224.49,143.07l-.09-.27Z"/><path id="Trazado_1921" data-name="Trazado 1921" class="cls-14" d="M222.27,139l-.55-.54Z"/><path id="Trazado_1922" data-name="Trazado 1922" class="cls-14" d="M225.71,150.35l-.09-1.23Z"/><path id="Trazado_1923" data-name="Trazado 1923" class="cls-14" d="M220,137.08a12.18,12.18,0,0,1,1.73,1.4c-.3-.29-.61-.56-.92-.81S220.26,137.26,220,137.08Z"/><path id="Trazado_1924" data-name="Trazado 1924" class="cls-15" d="M218.42,136.52c-.31,0-.61.08-.92.14l-.11,0a8.08,8.08,0,0,0-.93.26c-.36.12-.73.26-1.09.42h0l-.67.31h0a3.55,3.55,0,0,0-.43.23l-.07,0-.07.05-.29.18-.14.11,0,0-.24.19-.18.15-.23.21-.16.14,0,0-.22.22-.18.2-.21.23a2.15,2.15,0,0,1-.19.22l-.2.25-.08.1s-.07.09-.1.14-.11.15-.16.22h0q-.24.33-.48.69a.83.83,0,0,1-.08.12l-.25.41-.1.17c-.09.14-.17.28-.25.43l-.1.17-.09.18a2.54,2.54,0,0,1-.16.28l-.08.16c-.05.09-.1.21-.16.31l-.09.2-.06.12c-.05.11-.11.22-.16.34a2.56,2.56,0,0,0-.11.24l0,0h0c-.16.36-.32.74-.48,1.12l-.07.17c-.15.36-.29.72-.43,1.09,0,.1-.07.19-.11.29-.13.35-.25.71-.38,1.08,0,.12-.08.25-.13.38-.11.35-.23.71-.34,1.07,0,.14-.09.29-.13.44l-.24.83c-.07.23-.13.47-.2.71s-.14.51-.21.78-.11.43-.17.65-.15.62-.22.94-.11.48-.17.73-.09.42-.13.62c-.08.37-.16.75-.23,1.12l-.09.44c-.09.45-.17.9-.25,1.36l0,.2,6.23.73C213.82,150.39,216.72,141.51,218.42,136.52Z"/></g></g></g><g id="Grupo_1294" data-name="Grupo 1294"><g id="Grupo_1292" data-name="Grupo 1292"><path id="Trazado_1925" data-name="Trazado 1925" class="cls-20" d="M137.67,100.91s-14-11.54-25.57-10.4-44.53,36.86-83.95,12.74S-8,27.12,29.91,7.45c34.22-17.75,70.75-4.2,88.43,45.15C124.66,70.23,137.67,100.91,137.67,100.91Z"/></g><g id="Grupo_1293" data-name="Grupo 1293"><path id="Trazado_1926" data-name="Trazado 1926" class="cls-21" d="M89.9,55.79A32.46,32.46,0,1,1,57.45,23.34h0A32.45,32.45,0,0,1,89.9,55.79Z"/><path id="Trazado_1927" data-name="Trazado 1927" class="cls-22" d="M46.46,64.91l7.3,7.39,16.42-32"/></g></g><g id="Grupo_1297" data-name="Grupo 1297"><g id="Grupo_1295" data-name="Grupo 1295"><path id="Trazado_1928" data-name="Trazado 1928" class="cls-20" d="M240.11,135s10-6.59,17.4-5.08,26.6,27.07,54,14,28.72-47.29,5.29-62.69c-21.15-13.9-45.92-7.51-60.79,23.54C250.67,115.79,240.11,135,240.11,135Z"/></g><g id="Grupo_1296" data-name="Grupo 1296"><path id="Trazado_1929" data-name="Trazado 1929" class="cls-10" d="M313.69,112.62a18.54,18.54,0,1,1-18.88-18.2h.47A18.32,18.32,0,0,1,313.69,112.62Z"/><path id="Trazado_1930" data-name="Trazado 1930" class="cls-6" d="M310.43,112.62c-.06,10-8,18-17.63,17.95s-17.46-8.22-17.39-18.2,8-18,17.63-18S310.5,102.63,310.43,112.62Z"/><path id="Trazado_1931" data-name="Trazado 1931" class="cls-1" d="M292.41,123.69h0a7.89,7.89,0,0,1-7.83-7.93h0v-1l15.76.11v1A7.87,7.87,0,0,1,292.41,123.69Z"/><path id="Trazado_1932" data-name="Trazado 1932" class="cls-4" d="M285.64,107.8a1.55,1.55,0,1,1-1.58-1.53h0A1.53,1.53,0,0,1,285.64,107.8Z"/><path id="Trazado_1933" data-name="Trazado 1933" class="cls-4" d="M303,107.91a1.55,1.55,0,1,1-1.58-1.52h0A1.54,1.54,0,0,1,303,107.91Z"/></g></g></g></g></g></g></svg>