<svg xmlns="http://www.w3.org/2000/svg" xmlns:xlink="http://www.w3.org/1999/xlink" viewBox="0 0 25.41 36.41"><defs><style>.cls-1{isolation:isolate;}.cls-2{fill:#f1f1f7;}.cls-16,.cls-2,.cls-6,.cls-8{opacity:0.3;}.cls-12,.cls-17,.cls-3{fill:#f4f7fa;}.cls-3{opacity:0.75;}.cls-4{fill:url(#linear-gradient);}.cls-5{fill:url(#linear-gradient-2);}.cls-16,.cls-18,.cls-6,.cls-8{mix-blend-mode:multiply;}.cls-6{fill:url(#linear-gradient-3);}.cls-7{fill:url(#linear-gradient-4);}.cls-8{fill:url(#linear-gradient-5);}.cls-9{fill:url(#linear-gradient-6);}.cls-10{fill:url(#linear-gradient-7);}.cls-11{fill:url(#linear-gradient-8);}.cls-12{opacity:0.5;}.cls-12,.cls-17{mix-blend-mode:soft-light;}.cls-13{fill:url(#linear-gradient-9);}.cls-14{fill:url(#linear-gradient-10);}.cls-15{fill:url(#linear-gradient-11);}.cls-16{fill:url(#linear-gradient-12);}.cls-17{opacity:0.44;}.cls-18{fill:gray;opacity:0.2;}</style><linearGradient id="linear-gradient" x1="12.57" y1="30" x2="12.72" y2="28.79" gradientUnits="userSpaceOnUse"><stop offset="0" stop-color="#26264f"/><stop offset="1" stop-color="#444b8c"/></linearGradient><linearGradient id="linear-gradient-2" x1="11.95" y1="28.9" x2="13.45" y2="26.19" xlink:href="#linear-gradient"/><linearGradient id="linear-gradient-3" x1="10.25" y1="27.61" x2="15.24" y2="27.61" xlink:href="#linear-gradient"/><linearGradient id="linear-gradient-4" x1="12.09" y1="28.16" x2="13.58" y2="25.3" xlink:href="#linear-gradient"/><linearGradient id="linear-gradient-5" x1="10.02" y1="26.77" x2="15.47" y2="26.77" xlink:href="#linear-gradient"/><linearGradient id="linear-gradient-6" x1="9.94" y1="25.79" x2="15.55" y2="25.79" xlink:href="#linear-gradient"/><linearGradient id="linear-gradient-7" x1="12.61" y1="25.36" x2="13.16" y2="22.78" xlink:href="#linear-gradient"/><linearGradient id="linear-gradient-8" x1="11.55" y1="10.94" x2="22.5" y2="28.33" gradientUnits="userSpaceOnUse"><stop offset="0" stop-color="#fcb148"/><stop offset="0.05" stop-color="#fdba46"/><stop offset="0.14" stop-color="#ffc244"/><stop offset="0.32" stop-color="#ffc444"/><stop offset="0.48" stop-color="#fdb946"/><stop offset="0.78" stop-color="#f99c4d"/><stop offset="0.87" stop-color="#f8924f"/><stop offset="1" stop-color="#f8924f"/></linearGradient><linearGradient id="linear-gradient-9" x1="9.54" y1="24.33" x2="11.78" y2="17.81" gradientUnits="userSpaceOnUse"><stop offset="0.49" stop-color="#ebeff2"/><stop offset="1" stop-color="#fff"/></linearGradient><linearGradient id="linear-gradient-10" x1="11.68" y1="25.06" x2="13.91" y2="18.54" xlink:href="#linear-gradient-9"/><linearGradient id="linear-gradient-11" x1="8.77" y1="24.07" x2="11" y2="17.54" xlink:href="#linear-gradient-9"/><linearGradient id="linear-gradient-12" x1="11.93" y1="7.02" x2="9.75" y2="25.02" xlink:href="#linear-gradient-8"/></defs><g class="cls-1"><g id="Capa_2" data-name="Capa 2"><g id="Contenido"><circle class="cls-2" cx="12.71" cy="12.71" r="12.71"/><path class="cls-3" d="M21.22,12.62a8.27,8.27,0,0,0-8.47-8.07,8.28,8.28,0,0,0-8.48,8.07,8,8,0,0,0,3.54,6.57,3.32,3.32,0,0,1,1.46,2.75v.61A2.43,2.43,0,0,0,11.7,25h2.09a2.43,2.43,0,0,0,2.43-2.43v-.61a3.32,3.32,0,0,1,1.46-2.75A8,8,0,0,0,21.22,12.62Z"/><ellipse class="cls-4" cx="12.75" cy="28.58" rx="1.88" ry="1"/><path class="cls-5" d="M10.25,26.8v1a.89.89,0,0,0,.5.81,4.81,4.81,0,0,0,2.19.4,5,5,0,0,0,1.75-.3.91.91,0,0,0,.55-.84v-.57Z"/><path class="cls-6" d="M10.25,27.69a.83.83,0,0,0,.26.19,12.33,12.33,0,0,0,4.42.46,1.35,1.35,0,0,0,.26-.15.79.79,0,0,0,.05-.3v-.57l-5-.52Z"/><path class="cls-7" d="M10.47,26.11a.48.48,0,0,0-.53.48v0a1,1,0,0,0,.57.9,12.11,12.11,0,0,0,4.42.46.92.92,0,0,0,.62-.89v0a.48.48,0,0,0-.43-.47Z"/><path class="cls-8" d="M15.12,26.6l-4.65-.49a.48.48,0,0,0-.45.21,1,1,0,0,0,.49.51c.48.23,3.79.82,4.42.52a1.15,1.15,0,0,0,.54-.55A.47.47,0,0,0,15.12,26.6Z"/><path class="cls-9" d="M10.29,24.47a.35.35,0,0,0-.35.34v.8a1,1,0,0,0,.57.9c.48.23,3.79.81,4.42.52a1.06,1.06,0,0,0,.62-1V24.81a.35.35,0,0,0-.35-.34Z"/><ellipse class="cls-10" cx="12.75" cy="24.71" rx="2.73" ry="0.65"/><path class="cls-11" d="M21.22,12.62a8.27,8.27,0,0,0-8.47-8.07,8.28,8.28,0,0,0-8.48,8.07,8,8,0,0,0,3.54,6.57,3.32,3.32,0,0,1,1.46,2.75v.61A2.43,2.43,0,0,0,11.7,25h2.09a2.43,2.43,0,0,0,2.43-2.43v-.61a3.32,3.32,0,0,1,1.46-2.75A8,8,0,0,0,21.22,12.62Z"/><ellipse class="cls-12" cx="12.75" cy="24.2" rx="2" ry="0.47"/><path class="cls-13" d="M12.22,24.49a.12.12,0,0,1-.11-.1L10.64,13a.11.11,0,0,1,.1-.13.11.11,0,0,1,.13.1l1.47,11.44a.11.11,0,0,1-.1.13Z"/><path class="cls-14" d="M13.14,24.49h0a.11.11,0,0,1-.1-.13l1.47-11.44a.11.11,0,0,1,.13-.1.11.11,0,0,1,.1.13L13.25,24.39A.11.11,0,0,1,13.14,24.49Z"/><path class="cls-15" d="M14.34,12.94a.12.12,0,0,1-.1,0l-.41-.62h0l-.27.45a.24.24,0,0,1-.21.12.26.26,0,0,1-.21-.11l-.37-.55h0l-.32.46a.26.26,0,0,1-.21.11h0a.23.23,0,0,1-.2-.11L11.51,12h0l-.43.73a.11.11,0,0,1-.16,0,.11.11,0,0,1,0-.15l.43-.74a.24.24,0,0,1,.2-.12.23.23,0,0,1,.22.1l.47.67h0l.32-.46a.26.26,0,0,1,.21-.11.23.23,0,0,1,.2.11l.37.55h0l.27-.45a.27.27,0,0,1,.21-.12.27.27,0,0,1,.22.11l.4.62a.11.11,0,0,1,0,.16Z"/><path class="cls-16" d="M12.9,19c.18-3.11,5.43-3.84,5.4-6.62,0-1.71-2.09-3-2.54-3.23-3.28-1.88-7.32.29-8.15-1.25a1.38,1.38,0,0,1-.05-1,2.21,2.21,0,0,1,.55-1,7.87,7.87,0,0,0-.3,13.33,3.32,3.32,0,0,1,1.46,2.75v.61A2.43,2.43,0,0,0,11.7,25h2.09a2.43,2.43,0,0,0,2.43-2.43v-.49a1.63,1.63,0,0,1-1,.37C14,22.42,12.81,20.54,12.9,19Z"/><ellipse class="cls-17" cx="12.88" cy="12.94" rx="7.3" ry="7.04"/><ellipse class="cls-18" cx="12.75" cy="35.06" rx="8.48" ry="1.36"/></g></g></g></svg>