<svg xmlns="http://www.w3.org/2000/svg" viewBox="0 0 248.77 427.47"><defs><style>.cls-1{fill:#9f79ff;}.cls-2{fill:#f2eeff;}.cls-3{opacity:0.4;}.cls-4{fill:#fff;}.cls-10,.cls-5{fill:#3b2b5b;}.cls-6{fill:#ffcb48;}.cls-7{fill:#ff9a2e;}.cls-8{fill:#aacbe8;}.cls-9{fill:#d5eaf5;}.cls-10{opacity:0.3;}.cls-11{fill:#baa4ff;}.cls-12{fill:#30193b;}.cls-13{fill:#ff97a6;}.cls-14{fill:#c95d77;}.cls-15{fill:#4e3e75;}</style></defs><g id="Capa_2" data-name="Capa 2"><g id="Alertas"><rect class="cls-1" x="104.02" y="94.44" width="100.44" height="53.42" transform="translate(308.47 242.3) rotate(180)"/><rect class="cls-2" x="74.91" y="111.55" width="95.32" height="3.75" transform="translate(245.15 226.85) rotate(180)"/><rect class="cls-2" x="91.62" y="118.95" width="78.61" height="3.75" transform="translate(261.85 241.64) rotate(180)"/><rect class="cls-2" x="114.24" y="126.24" width="55.99" height="3.75" transform="translate(284.47 256.22) rotate(180)"/><g class="cls-3"><polygon class="cls-4" points="120.03 140.17 236.05 140.17 236.05 203.24 218.16 180.38 120.03 180.38 120.03 140.17"/></g><path class="cls-5" d="M77.94,115.52a36.39,36.39,0,0,1,4,4.7,38.74,38.74,0,0,1,4.87,35,37.52,37.52,0,0,1-8.61,13.5c10.11-7.54,15.86-19.46,13.4-32.88-3-16.07-17.1-34.46-34.83-34.12-.4,0-.39-.6,0-.62,16.38-.55,30.09,14.25,35,28.75,5.71,16.79-.58,33.55-15.76,42.63a44.24,44.24,0,0,1-6.41,3.15c.17.62.34,1.25.52,1.87,1.2,4.1,2.94,8,4.48,12a1.1,1.1,0,0,1-1.83,1.07l-.17-.21a1.25,1.25,0,0,1-.83-.3,63.07,63.07,0,0,1-10.07-10.66C47.5,185,30.67,184,19,174.09-23.79,137.82,41.44,79.46,77.94,115.52Z"/><path class="cls-6" d="M71,145.75a15.11,15.11,0,0,0-.57-2.67c-.21-1.94,2-3.12,1-5.23a4.94,4.94,0,0,0-3.61-2.6c-2.41-.42-4.84.55-7.25.58a12,12,0,0,1-3.93-.59,4.68,4.68,0,0,1-1.77-.88c-.74-.73,1.73-6.87-1.3-10.06a5.94,5.94,0,0,0-5.46-1c-1.77.63-2,2.35-1.76,4a36.47,36.47,0,0,1-.79,12c-7.94-.19-6.27,2.8-7.16,6.17a8.6,8.6,0,0,0,.39,5.55c.83,1.93,2.07,2.23,4,2.5q8,1.11,16.09,1.48a58.43,58.43,0,0,0,7.6.14c1.27-.1,2.82-.42,3.61-1.52a2.55,2.55,0,0,0,.45-1.66c-.07-1.36-.56-2.29-.17-3.72A11.66,11.66,0,0,0,71,145.75Z"/><path class="cls-7" d="M51,127.12a33.52,33.52,0,0,1-.12,6.83,37.53,37.53,0,0,1,3.83.05c-.18-1.52,1.57-6.81-1.17-9.7A5.4,5.4,0,0,0,49.89,123,10.69,10.69,0,0,1,51,127.12Z"/><path class="cls-7" d="M71,145.75a15.11,15.11,0,0,0-.57-2.67c-.21-1.94,2-3.12,1-5.23a4.94,4.94,0,0,0-3.61-2.6c-2-.35-4,.25-6,.49l.29.13c3.72,1.85,5.23,4.77,4.53,7.85,1.88,3.44,1.19,8-1.09,11.48.32,0,.65,0,1,0,1.27-.1,2.82-.42,3.61-1.52a2.55,2.55,0,0,0,.45-1.66c-.07-1.36-.56-2.29-.17-3.72A11.66,11.66,0,0,0,71,145.75Z"/><path class="cls-8" d="M42.12,153.49c-1.95,1.68-4.62-.2-5.76-1.91A9.24,9.24,0,0,1,35,146c.1-1.85.38-4.21,1.7-5.62A4.9,4.9,0,0,1,39.05,139c.68-.18,2.68-.49,3,.48.12.38.72.22.59-.16a1.93,1.93,0,0,0-2.06-1.15h0l-5.91-.31a8.32,8.32,0,0,0-4.53.56c-2.19,1.22-2.75,4-2.91,6.27-.2,2.65-.14,6.69,2.14,8.57a6.8,6.8,0,0,0,3.54,1,54.41,54.41,0,0,0,6.63.44l.11,0a3.31,3.31,0,0,0,2.89-.73C42.86,153.67,42.42,153.23,42.12,153.49Z"/><path class="cls-9" d="M33.65,137.76a6.66,6.66,0,0,0-3.5.61c-2.19,1.22-2.75,4-2.91,6.27-.2,2.65-.14,6.69,2.14,8.57a3.52,3.52,0,0,0,1.18.62C29.83,148.42,30.67,142,33.65,137.76Z"/><path class="cls-5" d="M2.52,140.41c.08-.49.83-.35.84.12.32,11.42,3.37,20.59,10.39,29.66.35.45-.19,1-.63.64C5.08,163.45.71,151.21,2.52,140.41Z"/><ellipse class="cls-10" cx="119.37" cy="392.25" rx="80.76" ry="8.31"/><rect class="cls-8" x="104.72" y="230.39" width="5.13" height="65.99" transform="translate(-48.76 25.62) rotate(-11.11)"/><rect class="cls-8" x="163.19" y="230.39" width="5.13" height="65.99" transform="translate(277.65 553.78) rotate(-168.89)"/><rect class="cls-8" x="74.87" y="294.61" width="5.13" height="97.4" transform="translate(87.26 695.1) rotate(-168.89)"/><path class="cls-7" d="M89.85,235h0a23.9,23.9,0,0,1,28.25-28.24l15.43,3.18a23.86,23.86,0,0,0,9.67,0l12.23-2.52a23.49,23.49,0,0,1,27.22,29.87h0a25.42,25.42,0,0,1-24.3,18H114.74A25.41,25.41,0,0,1,89.85,235Z"/><rect class="cls-8" x="161.94" y="294.61" width="5.13" height="97.4" transform="translate(-63.09 38.15) rotate(-11.11)"/><path class="cls-7" d="M161.31,299.47H80.62A4.46,4.46,0,0,1,76.18,295h0a4.46,4.46,0,0,1,4.44-4.45h80.69a4.46,4.46,0,0,1,4.45,4.45h0A4.46,4.46,0,0,1,161.31,299.47Z"/><path class="cls-5" d="M112.85,179.17s-8.66-2.1-10.94-7.91,4.14-13.32,12-14,19,.79,21.2,11.13-9.87,14.62-14.7,14.51A10.44,10.44,0,0,1,112.85,179.17Z"/><path class="cls-11" d="M132.89,169.39c-2.22-10.35-13.33-11.82-21.2-11.13a13.6,13.6,0,0,0-3.49.77,14.3,14.3,0,0,1,5.71-1.78c7.87-.68,19,.79,21.2,11.13,1.54,7.16-3.74,11.39-8.74,13.3C130.57,179.46,134.2,175.48,132.89,169.39Z"/><path class="cls-12" d="M88.61,196.69s-14.45,6.48-25.9,32.94,21,33.83,31.78,30S88.61,196.69,88.61,196.69Z"/><path class="cls-5" d="M150.89,204c7,11.73-7.73,46.88-7.45,49.88-8.83,3.93-48.06,1.25-52.55-.9,0-.15-2.35-12.41-4.14-26.09-1.88-14.32-5.18-27.3,1.86-30.24C121.67,182.91,145.94,195.76,150.89,204Z"/><path class="cls-12" d="M88.61,196.69a77,77,0,0,1,22.49-5.77c-.81,4.4-2.84,17.45-3.39,40.21-.19,7.77-.54,16.1-.95,24.12-7.84-.58-14.22-1.44-15.87-2.23,0-.15-2.35-12.41-4.14-26.09C84.87,212.61,81.57,199.63,88.61,196.69Z"/><path class="cls-12" d="M112.85,179.17s-8.66-2.1-10.94-7.91,4.14-13.32,12-14c.94-.08,1.93-.13,2.94-.14-1.92,2.41-4.86,6.61-4.16,9.11,1,3.64,9.07,2.85,11.26,5.47,1.72,2.05,2.71,6.43-.4,10.83a13.31,13.31,0,0,1-3.14.37A10.44,10.44,0,0,1,112.85,179.17Z"/><path class="cls-13" d="M122.49,184.48s1.25,10.1.15,11.11-4.93,2.1-6.86-.58.94-11.12.94-11.12Z"/><path class="cls-14" d="M123.08,191.81a12.07,12.07,0,0,1-7.94-.39,26.9,26.9,0,0,1,.93-5.31l6.67.67C122.88,188.23,123,190.13,123.08,191.81Z"/><path class="cls-13" d="M111.79,175.4c2.49-3.7,10.89-2.62,12.36-1.66s1.67,3.38,1.74,5.1-1,9.16-6.57,10.2C108.94,191,111.79,175.4,111.79,175.4Z"/><path class="cls-5" d="M51.31,427.46c2.06.35,7.2-8.95,7.87-11.89-.59.95-1.9,2.39-2.7,1.22-1.18-1.72-.46-5.65,1.3-7.23a19.16,19.16,0,0,0-5.12.36C50.82,410.27,46.47,426.64,51.31,427.46Z"/><path class="cls-13" d="M55.16,419.22C56,420.39,58.38,417,59,416a19.69,19.69,0,0,0,1.32-3.39,2.9,2.9,0,0,1,1.45-1.35l0-1.45a3.39,3.39,0,0,1-2.69,0,4.74,4.74,0,0,0-1.23-.28C56,411.14,54,417.5,55.16,419.22Z"/><path class="cls-12" d="M32.55,410c-.73-1.9,7-8.89,9.63-10.1-.79.75-1.9,2.27-.63,2.8,1.85.79,5.45-.65,6.61-2.62A18.15,18.15,0,0,1,48.8,405C48.82,406.8,34.26,414.41,32.55,410Z"/><path class="cls-14" d="M41.79,400.15A26.37,26.37,0,0,1,45.21,398c-.11-.9-.25-1.93-.4-3l2.61-.45a18.68,18.68,0,0,0,.24,4.47,4.22,4.22,0,0,1,.5,1.11c-1.16,2-6.81,5.13-8.67,4.34C38.22,403.86,41,400.9,41.79,400.15Z"/><path class="cls-8" d="M48.8,397.17S56,340.46,55.51,321.8c-.14-5-1.85-16.17-1.85-16.17s26.4,4.26,45.68-3.44c18.17-7.25,25.38-20.2,21-41.6-15.67.32-23.06-4.66-33.19,0-24.93,5.25-57.64,4.49-62,30.23-2.46,14.41,19.09,106.36,19.09,106.36Z"/><rect class="cls-9" x="71.49" y="215.08" width="22.16" height="31.41" rx="7.94" transform="translate(-32.04 14.12) rotate(-8.19)"/><path class="cls-8" d="M80.08,226.57a1.86,1.86,0,1,0,1.58-2.11A1.86,1.86,0,0,0,80.08,226.57Z"/><path class="cls-4" d="M111.38,182a2.93,2.93,0,0,0,3.52-3.22l.06,0a2.25,2.25,0,0,1,3.28.52.18.18,0,0,0,.1.09,3.25,3.25,0,0,0,2.58,2.66,3.06,3.06,0,0,0,3.49-2.37,2.9,2.9,0,0,0-1.87-3.27.19.19,0,0,0-.16-.12c-1.6-.22-3.77.41-4,2.27a.19.19,0,0,1,0,.08,2.76,2.76,0,0,0-3.52-.32,2.85,2.85,0,0,0-1.8-1.92.16.16,0,0,0-.15-.12c-1.6-.22-3.77.41-4,2.27A3.2,3.2,0,0,0,111.38,182Zm7.38-3.11c0-1.66,1.85-2.32,3.26-2.22a.21.21,0,0,0,.1.06c3,.72,2,5.11-1,4.85A2.75,2.75,0,0,1,118.76,178.93Zm-9.53,0c0-1.65,1.85-2.31,3.26-2.21a.24.24,0,0,0,.1.06c3,.72,2,5.11-1,4.84A2.73,2.73,0,0,1,109.23,178.91Z"/><path class="cls-8" d="M139.91,257.59a16.06,16.06,0,0,1,8.16,6.33c9.07,14.17-5.56,61.82-13.68,76.24-19.25,34.19-71.12,72.49-71.12,72.49L60,410.84c10.71-11.17,43.21-45.3,59.13-64.8C134,327.86,138.57,279,139.91,257.59Z"/><path class="cls-9" d="M93.16,332c5.52-15.93,17.94-73.38,17.94-73.38s17-5.39,28.81-1C138.57,279,134,327.86,119.1,346c-15.92,19.5-48.42,53.63-59.13,64.8l-3.53-1.93S85.53,354,93.16,332Z"/><path class="cls-15" d="M155.55,263.79c-17.64,18.27-48.44,8.81-62.18-2.78-8.3-7,1.53-20.51,1.53-20.51l45.89,9.62s-5.94-41.31-.13-46.25c4.37-3.72,7.5-2.44,10.63-.07C160.49,210.75,164.23,254.8,155.55,263.79Z"/><path class="cls-13" d="M71.37,244.05s-2.69-5.12-1.2-6.39,3.85-3.39,4.55-2.91-1.07,2-1.07,2a17,17,0,0,1,2.48-.06c.39.11-.31,1.1-.31,1.1a1,1,0,0,1,1,.49c.39.61-1.39.92-1.94,1.62s-.16,4-1.19,5.43C73.28,245.87,72,245.49,71.37,244.05Z"/><path class="cls-13" d="M96.39,240.44s1.16-5.66-.62-6.46-4.64-2.2-5.18-1.54,1.58,1.64,1.58,1.64a17,17,0,0,0-2.39.62c-.35.22.6,1,.6,1a1,1,0,0,0-.8.74c-.21.69,1.58.5,2.3,1s1.26,3.77,2.66,4.88C95.06,242.73,96.15,242,96.39,240.44Z"/><path class="cls-1" d="M49,216.72a6.91,6.91,0,0,0-4.71-6.6,28.66,28.66,0,0,0-4.15-.92c-.45-.08-.6-.23-.59-.69,0-1.93,0-3.86,0-5.79,0-.18,0-.36.06-.56A8.62,8.62,0,0,1,44.65,204l3.57-3.39a11.86,11.86,0,0,0-7.43-3.16c-.57,0-.71-.25-.69-.77,0-.78,0-1.57,0-2.36,0-.16-.23-.44-.35-.44-1.23,0-2.45,0-3.74,0v3.52l-.92.17a9.49,9.49,0,0,0-5.67,2.88,8.09,8.09,0,0,0-1.95,6.32A6.62,6.62,0,0,0,31,212.46a12,12,0,0,0,4.92,1.37c.49,0,.64.21.64.7,0,2,0,4,0,6,0,.2,0,.4,0,.63a10,10,0,0,1-6.55-2.36l-3.66,3.51c.23.22.41.4.6.57a13.2,13.2,0,0,0,8.3,3.08c.83,0,.83,0,.83.86,0,1.14,0,2.28,0,3.38.13.05.16.08.2.08l3.06,0c.84,0,.84,0,.85-.82v-3.59c.6-.11,1.14-.2,1.67-.32C45.5,224.71,49.25,222.22,49,216.72Zm-12.47-8c-1.48.09-3.52-1-3.61-2.81a3.58,3.58,0,0,1,3.61-3.7ZM39.57,221v-6.71a3.31,3.31,0,0,1,3.84,3.24A3.49,3.49,0,0,1,39.57,221Z"/><path class="cls-4" d="M1.55,49A6.41,6.41,0,0,0,.43,55.44l63-1.13a5.93,5.93,0,1,0-10.62-5.1,27.74,27.74,0,0,0-2.59-13.7A18,18,0,0,0,40,26.33a13.34,13.34,0,0,0-13.14,2.74c-4,3.88-4.68,10-5,15.56A7.71,7.71,0,0,0,14,40.85,7.72,7.72,0,0,0,7.84,47,6.41,6.41,0,0,0,1.55,49Z"/><path class="cls-4" d="M201.7,20.54a8.49,8.49,0,0,0-5.57,8.69.41.41,0,0,0,0,.11c0,.46-.68.54-.8.1,0,0,0-.07,0-.1-1.47-6-1.63-14.44-7.94-17.7a6.87,6.87,0,0,0-8.59,1.47c-2.45,2.8-2.74,6.7-3,10.24a.4.4,0,0,1-.74.2l-.11-.16c-1.13-1.65-3.67-1.38-5-.13-1.68,1.53-2,4.06-2.1,6.19a.4.4,0,0,1-.39.4,5.45,5.45,0,0,0-5.93,5.44.38.38,0,0,1-.06.22c5.38-.24,10.78-.07,16.16-.07h51.71c6.35,0,12.78-.27,19.13.11a5.06,5.06,0,0,0-7.22-6.25c-.27.15-.66-.11-.55-.42l.09-.26a26.55,26.55,0,0,0-2.63-22.39c-2-3.13-5.21-6.42-9.23-6.23-3.84.17-6.58,3.61-7.81,7-1.74,4.74-.93,10.05-1.59,15a.38.38,0,0,1-.76,0,3,3,0,0,0-3.84-2.54c-1.78.54-2.73,2.43-2.89,4.16,0,.07,0,.13,0,.2a.41.41,0,0,1-.75.2A8.51,8.51,0,0,0,201.7,20.54Z"/></g></g></svg>