<svg xmlns="http://www.w3.org/2000/svg" viewBox="0 0 387.05 599.2"><defs><style>.cls-1{fill:#ba2f7d;}</style></defs><g id="Capa_2" data-name="Capa 2"><g id="Alertas"><path class="cls-1" d="M367,599.2a20,20,0,0,0,20-20V20.56a20,20,0,0,0-20-20H81.2a404.36,404.36,0,0,0-41,110.23C13.39,237.63,16.77,372,53.43,496.6c9.51,32.35,21.94,64,39.26,93q2.86,4.8,5.92,9.56Z"/><path class="cls-1" d="M41.19,15.07C43.12,9.88,45.1,4.9,47.15,0H68.76A660.52,660.52,0,0,0,30,129.63a728.33,728.33,0,0,0-12,94.41c-1.8,32.07-.56,64-.9,96.16-.09,8.26-9.25,8.92-10.86.94-7.38-36.8-7.11-76.16-5-113.36A662.84,662.84,0,0,1,41.19,15.07Z"/><path class="cls-1" d="M16.71,336.58c-8.62-2-10.54,11.16-1.91,13.13S25.34,338.54,16.71,336.58Z"/></g></g></svg>