<svg xmlns="http://www.w3.org/2000/svg" viewBox="0 0 289.86 243.14"><defs><style>.cls-1,.cls-5{fill:#30193b;}.cls-1{opacity:0.2;}.cls-2{fill:#9f79ff;}.cls-3{fill:#fff;}.cls-4{fill:#653087;}.cls-6{fill:#efeefe;}.cls-7{fill:#f26d6d;}.cls-8{fill:#f6a19e;}.cls-9{fill:#47b27c;}.cls-10{fill:#2e3192;}.cls-11{fill:#d5eaf5;}.cls-12{fill:#aacbe8;}.cls-13{fill:#4e3e75;}.cls-14{fill:#fb9c98;}.cls-15{fill:none;stroke:#ffc5ae;stroke-linecap:round;stroke-miterlimit:10;stroke-width:1.35px;}.cls-16{opacity:0.3;}.cls-17{fill:#ff9a2e;}.cls-18{fill:#ffcb48;}.cls-19{fill:#cc7323;}</style></defs><g id="Capa_2" data-name="Capa 2"><g id="Header"><ellipse class="cls-1" cx="156.49" cy="215.12" rx="133.37" ry="10.26"/><ellipse class="cls-1" cx="85.18" cy="236.66" rx="52.29" ry="6.48"/><path class="cls-2" d="M272.57,194.14h-229A17.19,17.19,0,0,1,26.33,177V19.68H289.77V177A17.2,17.2,0,0,1,272.57,194.14Z"/><rect class="cls-3" x="96.28" y="145.2" width="128.51" height="28.53" rx="2.56" transform="translate(321.07 318.92) rotate(180)"/><rect class="cls-3" x="96.28" y="110.47" width="128.51" height="28.53" rx="2.56" transform="translate(321.07 249.46) rotate(180)"/><circle class="cls-4" cx="166.84" cy="159.46" r="4"/><circle class="cls-4" cx="152.94" cy="159.46" r="4"/><circle class="cls-4" cx="139.04" cy="159.46" r="4"/><circle class="cls-4" cx="125.13" cy="159.46" r="4"/><circle class="cls-4" cx="111.23" cy="159.46" r="4"/><rect class="cls-4" x="107.22" y="120.73" width="92.43" height="8.01" rx="1.38"/><path class="cls-5" d="M277.58,0H38.51A12.18,12.18,0,0,0,26.33,12.19v7.56H289.77V12.19A12.19,12.19,0,0,0,277.58,0Z"/><circle class="cls-6" cx="275.27" cy="9.88" r="3.43"/><circle class="cls-6" cx="260.93" cy="9.88" r="3.43"/><circle class="cls-6" cx="246.59" cy="9.88" r="3.43"/><circle class="cls-6" cx="156.89" cy="63.7" r="32.98"/><circle class="cls-3" cx="156.89" cy="63.7" r="32.98"/><path class="cls-4" d="M156.89,96.68a33,33,0,0,0,27.53-14.82,31.28,31.28,0,0,0-55.07,0A33,33,0,0,0,156.89,96.68Z"/><circle class="cls-4" cx="156.89" cy="49.48" r="12.71" transform="translate(14.57 132) rotate(-47.61)"/><path class="cls-7" d="M68,58.48h0a12,12,0,0,0-12,7.73C53.68,72.28,50.91,80,50.4,83.57c0,0-12.08,11.79-17,16.46L36,102.29S52.45,91.6,57.46,86.9,68,58.48,68,58.48Z"/><polygon class="cls-8" points="116.02 231.12 116.26 231.84 114.64 233.53 112.92 232.77 112.29 231.84 112.1 231.09 116.02 231.12"/><polygon class="cls-8" points="58.32 231.09 58.42 231.84 57.64 233.12 55.34 232.91 54.65 232.49 54.45 231.84 54.45 230.89 58.32 231.09"/><path class="cls-9" d="M80.48,108.05c-.58-.08-.92-1.51-.7-2.65a4.39,4.39,0,0,1,2.13-2.79,4.4,4.4,0,0,1,.43,2.54C82.13,106.6,81.12,108.15,80.48,108.05Z"/><path class="cls-9" d="M80.41,107.25c.16.56-1,1.46-2.13,1.73a4.4,4.4,0,0,1-3.42-.79A4.41,4.41,0,0,1,77,106.75C78.4,106.34,80.23,106.62,80.41,107.25Z"/><path class="cls-9" d="M79.62,106.56c-.35.46-1.76.07-2.66-.67a4.37,4.37,0,0,1-1.41-3.21,4.37,4.37,0,0,1,2.43.84C79.15,104.41,80,106,79.62,106.56Z"/><path class="cls-10" d="M84.46,40.79h1.35a0,0,0,0,1,0,0v5.5a0,0,0,0,1,0,0H82.35a0,0,0,0,1,0,0V42.9A2.11,2.11,0,0,1,84.46,40.79Z" transform="translate(168.16 87.07) rotate(-180)"/><path class="cls-11" d="M90.34,100.73s9.76,12.51,26.32,130.39l-5,0-39-108.43V100.73Z"/><path class="cls-11" d="M60.89,94s-11.79,9.27-11.73,34.17c0,11.15,5.29,102.7,5.29,102.7l3.87.2C65.19,196.23,70.16,162,75.83,126.53c.81-.12,5-.42,5.69-1.27,1.58-1.86,0-5.1.08-6.52.13-5.7.17-18.74-.2-23.55C76.83,95.57,65.17,94.44,60.89,94Z"/><path class="cls-12" d="M54.45,230.89s-5.27-91.55-5.29-102.7C49.1,103.29,60.89,94,60.89,94c1,.12,2,.22,3,.33l2.77,1.76s-8.34,48.79-8.14,78c.11,16.21.1,38.7.07,55.48-.1.51-.2,1-.31,1.54Z"/><path class="cls-13" d="M58.9,101.16a3.49,3.49,0,0,1-2.66-3.53,153.83,153.83,0,0,1,3.81-28.24c1.05-4.54,2.25-8.8,3.54-12.77l15.2-3.36,11.76,4.61a187.2,187.2,0,0,1,1.51,22.65,188,188,0,0,1-1,20.74,1.39,1.39,0,0,1-1.18,1.24,79.43,79.43,0,0,1-31-1.34Z"/><path class="cls-5" d="M57.55,100.81A1.81,1.81,0,0,1,56.19,99a154.22,154.22,0,0,1,3.86-29.6c1.05-4.54,1.85-8.87,3.13-12.84,3.25-.72,6.9-1.36,10.15-2.08a5,5,0,0,1,3.46,1.85c1.12,1.64.48,3.86.28,4.57-1.09,4-4,19.88-8,42.05A78.9,78.9,0,0,1,57.55,100.81Z"/><polygon class="cls-14" points="83.79 45.84 82.44 57.09 75.19 56.23 76.71 44.45 83.79 45.84"/><path class="cls-7" d="M76.71,44.45l7.08,1.39-.07.65c-.75,3.06-3.81,5.9-6.72,5.27a4,4,0,0,1-1.17-.46Z"/><path class="cls-14" d="M77.57,37.47a6.78,6.78,0,0,0-3,3.69c-.94,3.11.58,7.58,3.75,8.26s6.22-2.44,6.8-5.64c.5-2.84-.94-6.35-3.5-7.1A5.45,5.45,0,0,0,77.57,37.47Z"/><path class="cls-10" d="M74.63,34.56c-.74,1.43,2.42,4.3,2.73,4.58,2.69,2.41,7.07,3.93,8.34,2.51.94-1,.08-3.53-1.06-5C81.88,33.05,75.51,32.87,74.63,34.56Z"/><path class="cls-14" d="M86,43.5a1.5,1.5,0,1,0-1.75,1.19A1.5,1.5,0,0,0,86,43.5Z"/><path class="cls-3" d="M75.68,46.71c-.06.28.45.66.88.78a2,2,0,0,0,2.18-1.18C76.37,46.21,75.75,46.44,75.68,46.71Z"/><path class="cls-7" d="M36,102.29l-1.72,1.64a5.92,5.92,0,0,1-1.23,2.1c-.35.37-1.81,1.94-3.5,1.61-1.19-.23-2.3-1.36-2.11-2a.73.73,0,0,1,.46-.43l5.48-5.2Z"/><path class="cls-14" d="M72.36,54.68l6.43-1.42,7,2.74a10.34,10.34,0,0,1-5.33,2.31A9,9,0,0,1,72.36,54.68Z"/><path class="cls-14" d="M97.51,70.57a56.31,56.31,0,0,0,4.25-5.35c3,2.48,5.58,5.24,6.88,8.12s.07,6.22-2.32,9.73a25.31,25.31,0,0,1-9.21-1.86,23.33,23.33,0,0,1,2.69-2.65s-2.49-2-5.43-4.73A39.54,39.54,0,0,0,97.51,70.57Z"/><path class="cls-10" d="M58.42,231.83a2.56,2.56,0,0,1,0,3.76H50.14v-3.76h4.31A4.17,4.17,0,0,0,58.42,231.83Z"/><path class="cls-10" d="M53.37,235.59H46.9v-.52a3.24,3.24,0,0,1,3.24-3.24h0a3.24,3.24,0,0,1,3.23,3.24Z"/><rect class="cls-13" x="46.63" y="235.59" width="12.13" height="0.6" transform="translate(105.39 471.79) rotate(180)"/><path class="cls-10" d="M112.29,231.83a2.56,2.56,0,0,0,0,3.76h9.78l-.35-3.76h-5.46A4.17,4.17,0,0,1,112.29,231.83Z"/><rect class="cls-13" x="111.95" y="235.59" width="13.37" height="0.6"/><path class="cls-10" d="M121.72,231.83a3.23,3.23,0,0,1,3.23,3.24v.52h-3.23Z"/><path class="cls-5" d="M63.18,56.55h0a10.1,10.1,0,0,0-7.86,7.92l-1.26,6.38,8.16.26Z"/><path class="cls-7" d="M31.93,101.5a9.38,9.38,0,0,0-1.95.2c-.23.16-1.11,1.63-.61,2.48s1.31-1.54,1.31-1.54Z"/><path class="cls-13" d="M94.37,73.83c-3.84-3.52-8.46-8.2-9.4-11.1-1.65-5.13,2-6.18,2-6.18a34.34,34.34,0,0,1,14.8,8.67,56.31,56.31,0,0,1-4.25,5.35A39.54,39.54,0,0,1,94.37,73.83Z"/><polygon class="cls-5" points="102.22 65 94.52 74.42 93.15 72.99 101.21 63.98 102.22 65"/><polygon class="cls-5" points="61.41 70.08 53.51 69.82 53.51 71.45 61.2 71.62 61.41 70.08"/><path class="cls-15" d="M85.8,56s-7.11,6.23-13.44-1.32"/><path class="cls-14" d="M89.54,99.19c-1,.72-1.8,1.33-2.49,1.82l-.32.23c-.94.67-1.49,1-1.49,1L85,101l-.46-2.63s4.71-7.21,9.26-13.1c.11-.14.21-.28.32-.41.42-.54.84-1.07,1.26-1.58.79-1,1.56-1.87,2.27-2.65,1.82.31,3.7.82,5.61,1.33,1.12.3,2.17.64,3.15,1-3.59,5.35-10,10.92-14.83,14.7C90.86,98.18,90.18,98.71,89.54,99.19Z"/><path class="cls-14" d="M83,99.66c-3.11.06-3.85.41-3.9.73s1.09,1.33,2.29,1.06A2.12,2.12,0,0,0,83,99.66Z"/><g class="cls-16"><circle class="cls-5" cx="47.58" cy="117.45" r="38.99" transform="translate(-75.93 145.81) rotate(-80.88)"/></g><circle class="cls-17" cx="42.58" cy="110.56" r="38.99" transform="translate(-73.34 135.07) rotate(-80.88)"/><circle class="cls-18" cx="38.99" cy="108.04" r="38.99" transform="translate(-73.87 129.4) rotate(-80.88)"/><path class="cls-19" d="M34.71,125.41,21.2,111.9a4.55,4.55,0,1,1,6.43-6.43l7.08,7.09L56.86,90.41a4.55,4.55,0,1,1,6.43,6.43Z"/><path class="cls-17" d="M36.85,127.55,23.34,114a4.54,4.54,0,1,1,6.43-6.42l7.08,7.08L59,92.55A4.54,4.54,0,1,1,65.43,99Z"/><path class="cls-14" d="M86.77,101.22l-1.53,1.06a5.63,5.63,0,0,1-1.34,2c-.36.35-1.9,1.85-3.58,1.43-1.17-.29-2.22-1.48-2-2.09a.76.76,0,0,1,.48-.41l6.59-6.18Z"/></g></g></svg>