<svg xmlns="http://www.w3.org/2000/svg" viewBox="0 0 80 80"><defs><style>.cls-1{fill:#fff;}.cls-2{fill:none;}</style></defs><g id="Capa_2" data-name="Capa 2"><g id="Contenido"><g id="Capa_2-2" data-name="Capa 2"><g id="Header"><path class="cls-1" d="M47.94,24.29H32.06a1.71,1.71,0,0,1-1.71-1.7V18.05a1.71,1.71,0,0,1,1.71-1.7h4a.58.58,0,0,0,.49-.28,3.93,3.93,0,0,1,6.84,0,.58.58,0,0,0,.49.28h4a1.71,1.71,0,0,1,1.71,1.7v4.54A1.7,1.7,0,0,1,47.94,24.29ZM32.06,17.35a.7.7,0,0,0-.71.69h0v4.53a.71.71,0,0,0,.71.71H47.94a.7.7,0,0,0,.71-.69h0V18.05a.7.7,0,0,0-.7-.7h-4a1.56,1.56,0,0,1-1.35-.78,2.94,2.94,0,0,0-4-1.11,2.89,2.89,0,0,0-1.11,1.11,1.56,1.56,0,0,1-1.35.78Z"/><path class="cls-1" d="M54.76,65.92H25.24a3.72,3.72,0,0,1-3.71-3.71V21.62a3.72,3.72,0,0,1,3.71-3.71H31a.52.52,0,0,1,.5.5.5.5,0,0,1-.5.5H25.24a2.73,2.73,0,0,0-2.71,2.71V62.21a2.71,2.71,0,0,0,2.71,2.71H54.76a2.71,2.71,0,0,0,2.71-2.71V21.62a2.73,2.73,0,0,0-2.71-2.71h-5.5a.5.5,0,0,1,0-1h5.5a3.72,3.72,0,0,1,3.71,3.71V62.21A3.72,3.72,0,0,1,54.76,65.92Z"/><path class="cls-1" d="M53.22,62.37H26.78A1.77,1.77,0,0,1,25,60.61h0V23.23a1.78,1.78,0,0,1,1.77-1.77H31a.52.52,0,0,1,.5.5.5.5,0,0,1-.5.5H26.78a.79.79,0,0,0-.77.77V60.61a.77.77,0,0,0,.77.76H53.22a.77.77,0,0,0,.77-.76V23.23a.79.79,0,0,0-.77-.77h-4a.5.5,0,0,1,0-1h4A1.78,1.78,0,0,1,55,23.23V60.61a1.77,1.77,0,0,1-1.78,1.76Z"/><path class="cls-1" d="M40,21.21a1.66,1.66,0,1,1,1.66-1.66h0A1.66,1.66,0,0,1,40,21.21Zm0-2.32a.66.66,0,1,0,.66.66h0a.65.65,0,0,0-.64-.66Z"/><rect class="cls-2" width="80" height="80"/><polygon class="cls-1" points="31.36 44.22 34.57 44.22 34.57 52.65 31.36 52.65 31.36 44.22 31.36 44.22"/><polygon class="cls-1" points="38.38 34.66 41.57 34.66 41.57 52.65 38.38 52.65 38.38 34.66 38.38 34.66"/><polygon class="cls-1" points="45.37 52.65 48.56 52.65 48.56 31.07 45.37 31.07 45.37 52.65 45.37 52.65"/></g></g></g></g></svg>