<svg xmlns="http://www.w3.org/2000/svg" viewBox="0 0 64.31 49.39"><defs><style>.cls-1{opacity:0.3;}.cls-2{fill:#dbdbdb;}.cls-3{fill:#141414;}.cls-4{fill:#a3a3a3;}.cls-5{fill:#c7c7c7;}</style></defs><g id="Capa_2" data-name="Capa 2"><g id="Contenido"><g class="cls-1"><path class="cls-2" d="M9.33,21.86,21.86,9.32l3.58,3.59L12.91,25.44Z"/><path class="cls-2" d="M38,16.49l3.58-3.58L54.09,25.45,50.51,29Z"/><path class="cls-3" d="M22.76,8.42l-.9.9L9.33,21.86l-.9.9L1.27,15.59,15.59,1.27Z"/><path class="cls-3" d="M63.05,20.07l-7.17,7.16-1.79-1.79L41.56,12.91l-1.8-1.79L46.93,4Z"/><path class="cls-4" d="M28,22.86l-8.83,8.85-6.27-6.27L25.44,12.91h5.37L41.11,23.2a2.53,2.53,0,0,1-3.59,3.58l-5.36-5.36A5.1,5.1,0,0,1,28,22.86Z"/><path class="cls-4" d="M40.21,43.8a2.53,2.53,0,0,1-1.79,4.31,2.48,2.48,0,0,1-1.78-.74l-1.8-1.78a2.46,2.46,0,0,1-.39-.51,2.41,2.41,0,0,1-.34-1.28A2.53,2.53,0,0,1,38.42,42Z"/><path class="cls-4" d="M38.42,38.42a2.55,2.55,0,0,1,3.59,0l1.78,1.8A2.49,2.49,0,0,1,44.54,42a2.58,2.58,0,0,1-.75,1.8,2.51,2.51,0,0,1-3.58,0L38.42,42a2.53,2.53,0,0,1,0-3.58Z"/><path class="cls-4" d="M47.38,36.64a2.53,2.53,0,0,1-3.59,3.58L42,38.42a2.5,2.5,0,0,1-.74-1.78,2.54,2.54,0,0,1,4.32-1.8Z"/><path class="cls-4" d="M51,33.05a2.53,2.53,0,0,1-3.58,3.59l-1.79-1.8a2.5,2.5,0,0,1,0-3.57,2.46,2.46,0,0,1,3.06-.38,1.62,1.62,0,0,1,.52.38Z"/><path class="cls-5" d="M38,16.49,50.52,29l-1.87,1.86a2.46,2.46,0,0,0-3.06.38,2.5,2.5,0,0,0,0,3.57,2.54,2.54,0,0,0-4.32,1.8A2.5,2.5,0,0,0,42,38.42,2.53,2.53,0,0,0,38.42,42a2.53,2.53,0,0,0-4,3.08l-1,1a2.53,2.53,0,1,1-3.59-3.58,2.52,2.52,0,0,1-1.78.74,2.53,2.53,0,0,1-2.54-2.53,2.52,2.52,0,0,1,.74-1.78,2.53,2.53,0,0,1-3.57-3.59A2.59,2.59,0,0,1,21,36a2.48,2.48,0,0,1-1.78-.74,2.51,2.51,0,0,1,0-3.58L28,22.86a5.1,5.1,0,0,0,4.15-1.44l5.36,5.36a2.53,2.53,0,0,0,3.59-3.58L35,17.09Z"/><path d="M63.94,19.17,47.82,3.06a1.29,1.29,0,0,0-1.79,0l-7.16,7.16a1.27,1.27,0,0,0,0,1.79l.9.9-2.42,2.42-1.94.38L31.71,12a1.26,1.26,0,0,0-.9-.37H26L23.65,9.33a1.27,1.27,0,0,0,0-1.79L16.49.37a1.26,1.26,0,0,0-.9-.37,1.24,1.24,0,0,0-.89.37L.37,14.7a1.27,1.27,0,0,0,0,1.79l7.16,7.16a1.26,1.26,0,0,0,1.79,0l8.23,8.22a3.77,3.77,0,0,0,3.22,5.41,3.74,3.74,0,0,0,3.59,3.58,3.74,3.74,0,0,0,3.57,3.58,3.79,3.79,0,0,0,6.46,2.48l1.35,1.35a3.79,3.79,0,0,0,6.47-2.49,3.73,3.73,0,0,0,3.58-3.58,3.74,3.74,0,0,0,3.58-3.58,3.78,3.78,0,0,0,2.49-6.46h0l-1.34-1.34.9-.89a0,0,0,0,1,0,0l2.67-2.67.9.89a1.26,1.26,0,0,0,1.79,0L63.94,21A1.27,1.27,0,0,0,63.94,19.17ZM8.43,21,3.06,15.59,15.59,3.06,21,8.43Zm2.68.89L21.86,11.12l1.79,1.79L12.91,23.65Zm3.59,3.58L26,14.17h4.32l9.92,9.93a1.26,1.26,0,0,1,0,1.79,1.29,1.29,0,0,1-1.79,0l-5.37-5.37a1.26,1.26,0,0,0-1.79,0,3.8,3.8,0,0,1-5.37,0h0a1.3,1.3,0,0,0-.89-.36,1.26,1.26,0,0,0-.78,2.26,6.55,6.55,0,0,0,1.44,1l-6.48,6.49ZM33.56,41.56A3.78,3.78,0,0,0,33,44.77l-.38.38a1.27,1.27,0,0,1-1.79-1.79l2.62-2.61,1-1h0a1.25,1.25,0,0,0,.37-.89A1.27,1.27,0,0,0,32.6,38h0l-1,1L29,41.56h0a1.26,1.26,0,0,1-1.77-1.8l3.58-3.58h0a1.28,1.28,0,0,0,.36-.89,1.26,1.26,0,0,0-2.25-.79L25.44,38a1.27,1.27,0,0,1-1.79-1.79l3.57-3.57a1.27,1.27,0,1,0-1.78-1.8h0L21.86,34.4a1.29,1.29,0,0,1-1.79,0,1.26,1.26,0,0,1,0-1.79l2.69-2.69,5.77-5.78a6.26,6.26,0,0,0,3.54-1l4.57,4.57a3.9,3.9,0,0,0,5.37,0,3.8,3.8,0,0,0,0-5.37l-4.44-4.45L48.73,29l-.38.38a3.76,3.76,0,0,0-4.76,3.45A3.75,3.75,0,0,0,40,36.48,3.68,3.68,0,0,0,36.43,40,3.76,3.76,0,0,0,33.56,41.56Zm5.76,4.92a1.29,1.29,0,0,1-1.79,0l-1.79-1.79a1.26,1.26,0,0,1,1.78-1.79l1.8,1.79a1.24,1.24,0,0,1,.37.89A1.26,1.26,0,0,1,39.32,46.48ZM42.9,42.9a1.26,1.26,0,0,1-1.79,0l-1.79-1.79a1.27,1.27,0,0,1,1.79-1.79l1.79,1.79a1.27,1.27,0,0,1,0,1.79Zm3.58-3.58a1.29,1.29,0,0,1-1.79,0L42.9,37.53a1.27,1.27,0,0,1,1.79-1.79l1.79,1.79a1.27,1.27,0,0,1,0,1.79Zm3.58-3.58a1.24,1.24,0,0,1-.89.37,1.26,1.26,0,0,1-.9-.37L46.48,34a1.27,1.27,0,1,1,1.79-1.8L50.06,34a1.27,1.27,0,0,1,0,1.79Zm.45-8.51L39.77,16.49l1.79-1.79L52.3,25.44Zm5.37-1.79L41.56,11.12l5.37-5.38L61.26,20.07Z"/></g></g></g></svg>