<svg xmlns="http://www.w3.org/2000/svg" xmlns:xlink="http://www.w3.org/1999/xlink" viewBox="0 0 276.43 226.46"><defs><style>.cls-1{isolation:isolate;}.cls-2{fill:#c4bee8;opacity:0.71;}.cls-2,.cls-20,.cls-25{mix-blend-mode:multiply;}.cls-3{fill:#714191;}.cls-4{fill:#653087;}.cls-5{fill:#4e3e75;}.cls-6{fill:#c4c1e3;}.cls-7{fill:#30193b;}.cls-8{fill:#9f79ff;}.cls-9{fill:#6e3c8e;}.cls-10{fill:#f5f6f7;}.cls-11,.cls-36{fill:#fffcf9;}.cls-12{fill:url(#linear-gradient);}.cls-13{fill:#dccfff;}.cls-14{fill:#ae8eff;}.cls-15{fill:#ccb8ff;}.cls-16{fill:#ffcb48;}.cls-17{fill:#b99dff;}.cls-18{fill:#d6d3e6;}.cls-19{fill:#fb9c98;}.cls-20{fill:#8288d4;opacity:0.21;}.cls-21{fill:#fffcfa;}.cls-22{fill:#f26d6d;}.cls-23{fill:#fff;}.cls-24{fill:#c9c3d4;}.cls-25{fill:#6c6394;opacity:0.4;}.cls-26,.cls-31,.cls-32{fill:none;stroke-linecap:round;stroke-linejoin:round;}.cls-26{stroke:#fff;stroke-width:1.82px;}.cls-27{fill:#c0a7ff;}.cls-28{fill:#b89cff;}.cls-29{fill:#f1ecff;}.cls-30{fill:#ff9a2e;}.cls-31{stroke:#d6d3e6;stroke-width:0.32px;}.cls-32{stroke:#1c297d;stroke-width:0.64px;}.cls-33{fill:#d6ccc8;}.cls-34{fill:#cedaed;}.cls-35{fill:#213766;}.cls-36{opacity:0.56;}</style><linearGradient id="linear-gradient" x1="225.86" y1="188.22" x2="267.13" y2="188.22" gradientUnits="userSpaceOnUse"><stop offset="0.17" stop-color="#c9b4ff"/><stop offset="0.25" stop-color="#c6b0ff"/><stop offset="0.64" stop-color="#bda3ff"/><stop offset="1" stop-color="#ba9fff"/></linearGradient></defs><g class="cls-1"><g id="Capa_2" data-name="Capa 2"><g id="Capa_1-2" data-name="Capa 1"><path class="cls-2" d="M115.07,226.43h7.6l-6.92-7a1.64,1.64,0,0,0-.45-.46h0a2.53,2.53,0,0,0-.37-.18h0l-.12,0-.14,0L55.27,201h0l-3.89-1.19a2.26,2.26,0,0,0-.52-.2L38.61,196a1.86,1.86,0,0,0-.55-.16h0a5.54,5.54,0,0,0-3.28.7c-2.57,1.28-4.57,3.76-4.47,5.54a1.66,1.66,0,0,0,1.4,1.59h0l12.95,3.6a2.07,2.07,0,0,0,.42.08l1.94.53h0l61.29,18.35a2,2,0,0,0,.67.2h0a3.87,3.87,0,0,0,1,0Z"/><ellipse class="cls-3" cx="34.56" cy="195.86" rx="5.3" ry="3.33" transform="translate(-162.97 172.74) rotate(-73.32)"/><path class="cls-3" d="M33.19,201l12.91,3.65c4.08,1.08,6.6-9,2.53-10.08l-12.84-3.83Z"/><path class="cls-4" d="M46.83,204.7l-1.42-5.07-14.1-4.51a6.92,6.92,0,0,0,0,4A2.66,2.66,0,0,0,33.19,201l12.91,3.65A2.31,2.31,0,0,0,46.83,204.7Z"/><path class="cls-5" d="M40.64,203.08s-2.3-6.87,4.27-9.64L53.08,196l-4.64,9.23Z"/><polygon class="cls-6" points="233.42 176.82 275.07 147.06 227.22 135.75 233.42 176.82"/><path class="cls-5" d="M237.65,56.84,91.92,20a5.68,5.68,0,0,0-5.07,1.15l-5.13,3.5,3.07,4.18V131.18a5.72,5.72,0,0,0,4.32,5.55l145.73,36.86A5.73,5.73,0,0,0,242,168V62.39A5.72,5.72,0,0,0,237.65,56.84Z"/><path class="cls-7" d="M234.84,173.59l-22-93.28c0-3.73,27.94-21.44,27.94-21.44A5.74,5.74,0,0,1,242,62.39V168A5.73,5.73,0,0,1,234.84,173.59Z"/><path class="cls-8" d="M229.36,177.3,83.63,140.44a5.73,5.73,0,0,1-4.32-5.55V29.23a5.73,5.73,0,0,1,7.13-5.55L232.17,60.55a5.72,5.72,0,0,1,4.32,5.55V171.75A5.73,5.73,0,0,1,229.36,177.3Z"/><path class="cls-9" d="M236.49,80.31V66.1a5.72,5.72,0,0,0-4.32-5.55L86.44,23.68a5.73,5.73,0,0,0-7.13,5.55v9.49Z"/><ellipse class="cls-10" cx="88.91" cy="33.18" rx="1.9" ry="2.34" transform="translate(3.04 73.59) rotate(-45.67)"/><path class="cls-10" d="M97.42,35.07a1.66,1.66,0,0,1-1.92,1.87,2.73,2.73,0,0,1-2.33-2.35,1.66,1.66,0,0,1,1.93-1.87A2.73,2.73,0,0,1,97.42,35.07Z"/><path class="cls-10" d="M103.69,36.79a1.67,1.67,0,0,1-1.93,1.88,2.74,2.74,0,0,1-2.33-2.35,1.66,1.66,0,0,1,1.93-1.88A2.74,2.74,0,0,1,103.69,36.79Z"/><path class="cls-2" d="M132.81,210.51l68.6-40.28-.17-98.82s-70.8,71.59-82.41,79.14S33,180.78,33,180.78Z"/><path class="cls-11" d="M36.25,179.69s71.62-18.72,67-134.2l98,25.92s7.06,107.81-68.88,136.12Z"/><ellipse class="cls-2" cx="256.99" cy="203.19" rx="19.44" ry="8.22" transform="translate(-2.65 3.4) rotate(-0.75)"/><path class="cls-12" d="M267.13,165.71H225.86v33.11h0c0,3,2.07,6.08,6.09,8.4,8.08,4.67,21.15,4.69,29.18.05,4-2.33,6-5.39,6-8.45h0Z"/><ellipse class="cls-13" cx="246.49" cy="165.54" rx="9.68" ry="20.63" transform="translate(80.03 411.4) rotate(-89.78)"/><ellipse class="cls-14" cx="246.6" cy="165.38" rx="8" ry="17.05" transform="translate(80.29 411.35) rotate(-89.78)"/><path class="cls-4" d="M258.62,164.62c-6.68-3.14-17.48-3.15-24.12,0a10,10,0,0,0-4.13,3.19,10.11,10.11,0,0,0,4.21,3.25c6.68,3.13,17.47,3.15,24.11,0a10,10,0,0,0,4.14-3.19A10.25,10.25,0,0,0,258.62,164.62Z"/><path class="cls-3" d="M234.5,171.05a9.93,9.93,0,0,1-4.13-3.19,8.08,8.08,0,0,1,2-1.94c5.77-.79,12.23-.12,16.76,2a10.12,10.12,0,0,1,4.14,3.19,4.14,4.14,0,0,1,.72,1.51c-1,.2-1.91.35-2.7.44C245.49,173.84,239,173.18,234.5,171.05Z"/><path class="cls-4" d="M259.36,179.52c2.39.77,6,1.14,6.85,3.83.69,2.24.19,5.72.19,8.18,0,1.23-.14,2.56,0,3.75-.22,2.53-3.51,1.36-4.45,1.07-3.09-1-5.83,4.11-2.73,5.09,2.26.71,5.49,2.34,8.17,1.52,3.82-1.15,4.33-5,4.41-8,.12-4.63.77-10.28-.3-14.59-1-4-5.88-4.8-9.36-5.92-3.08-1-5.82,4.1-2.73,5.09Z"/><path class="cls-15" d="M178.78,128.38l-69.66-19.59a3.77,3.77,0,0,1-2.76-3.63h0a3.69,3.69,0,0,1,4.69-3.55l69.66,19.59a3.79,3.79,0,0,1,2.75,3.63h0A3.67,3.67,0,0,1,178.78,128.38Z"/><path class="cls-8" d="M172.43,149l-69.66-19.59a3.77,3.77,0,0,1-2.75-3.63h0a3.68,3.68,0,0,1,4.68-3.55l69.66,19.59a3.79,3.79,0,0,1,2.76,3.63h0A3.68,3.68,0,0,1,172.43,149Z"/><path class="cls-8" d="M131.26,160.82l-37.7-10.6a3.78,3.78,0,0,1-2.75-3.64h0A3.67,3.67,0,0,1,95.49,143l37.7,10.6a3.76,3.76,0,0,1,2.75,3.57h0A3.68,3.68,0,0,1,131.26,160.82Z"/><path class="cls-8" d="M91.26,180.35l-17.69-5.12c-4.13-1.19-5.16-5.15-2.28-8.79h0C74.17,162.8,79.9,160.8,84,162l17.69,5.11c4.13,1.2,5.16,5.15,2.28,8.8h0C101.12,179.54,95.39,181.54,91.26,180.35Z"/><path class="cls-16" d="M130.4,191.64l-17.69-5.11c-4.13-1.2-5.16-5.15-2.28-8.79h0c2.88-3.64,8.61-5.65,12.74-4.45l17.69,5.11c4.13,1.19,5.16,5.15,2.28,8.79h0C140.26,190.83,134.53,192.83,130.4,191.64Z"/><path class="cls-8" d="M110.24,84.41h0A3.79,3.79,0,0,0,113,88l43.85,12.33a3.69,3.69,0,0,0,4.69-3.55h0a3.78,3.78,0,0,0-2.75-3.63L114.93,80.86A3.68,3.68,0,0,0,110.24,84.41Z"/><polygon class="cls-17" points="135.88 15.7 123.31 12.58 123.31 0 135.88 3.13 135.88 15.7"/><polygon class="cls-18" points="200.78 18.12 194.98 10.46 201.14 5.86 206.94 13.51 200.78 18.12"/><path class="cls-19" d="M185.87,157.85l6.91,8.41a3.5,3.5,0,0,1,.6,3.42l-4.13,11.67-2.65-2.43V168.41Z"/><path class="cls-7" d="M185.41,157.2l7,7.68a1.61,1.61,0,0,1,.2,1.9c-1.13,2-3.76,5.86-5.81,3.67C184.09,167.58,185.41,157.2,185.41,157.2Z"/><ellipse class="cls-20" cx="180.05" cy="221.87" rx="9.92" ry="4.4"/><path class="cls-5" d="M187.17,217.06l-2.24.26c-1.48-.52-2.16-1-2.86-.29l-.19.21a1.57,1.57,0,0,0,.26,1.86l3.63,3.06a1.78,1.78,0,0,0,2.45-1s.26-3.1-.09-3.27C187.43,217.54,187.78,217.37,187.17,217.06Z"/><path class="cls-21" d="M185,219c0,1.19,2.91,1.16,2.89,0l0-3.86-2.89,0Z"/><path class="cls-5" d="M184,215.46c1.09,1.34,3.59,1.32,4.07.41-.06-5.38,1.38-11.1-1.23-18.5l.89-22.43-10,2,3.89,23.69Z"/><path class="cls-5" d="M177.62,220.74l-2.91.48c-2.13-.28-3.2-.66-3.9.07l-.19.21c-.26.51.15,1.33.93,1.64l5.8,2.31c1.14.27,2.33-.12,2.33-1.13,0,0,0-2.84-.52-2.95C178.12,221.14,178.53,221,177.62,220.74Z"/><path class="cls-21" d="M176.11,222.12c0,1.19,2.9,1.16,2.89,0l-.05-3.86-2.89,0Z"/><path class="cls-5" d="M175.45,218.67c1,1.37,3.52,1.34,4.06.42.31-5.46,2.16-11.28.05-18.79L182,177.52l-10.18,2,2.26,24Z"/><path class="cls-19" d="M174.56,152.21c0,2.34,2.08,3.79,3.85,2.77a7.63,7.63,0,0,0,3.22-6.08c0-2.34-1.43-3.41-3.2-2.39S174.56,149.87,174.56,152.21Z"/><path class="cls-19" d="M179.94,159.58l.24-.06a1.51,1.51,0,0,0,1.14-1.81l-1-4.59a1.52,1.52,0,0,0-1.81-1.15l-.24.06a1.52,1.52,0,0,0-1.15,1.81l.35,4.56C177.62,159.21,179.13,159.76,179.94,159.58Z"/><path class="cls-7" d="M182.48,154.51s-.48,1.56-3.35,1.15c-2.16-.3-.49-4-2.45-5-2.64-1.32-1.5-3.91-.29-4.74s2.7-.28,4.54.4S185.5,148.68,182.48,154.51Z"/><circle class="cls-19" cx="177.81" cy="151.93" r="1.03"/><path class="cls-22" d="M177.32,155.46l.39-.47a1.56,1.56,0,0,1-1.31,0A2,2,0,0,0,177.32,155.46Z"/><path class="cls-7" d="M177.41,152.62h0a.35.35,0,0,0,.4-.28l.67-2.17c0-.19-.46-.09-.64-.12h0c-.19,0-.72-.22-.75,0l0,2.2A.35.35,0,0,0,177.41,152.62Z"/><rect class="cls-19" x="171.63" y="154.15" width="4.62" height="3.45" rx="1.56" transform="translate(-59.6 159.35) rotate(-42.72)"/><path class="cls-19" d="M171.72,156.39s-4.69,8.14-4.55,13c.09,2.91,3.71,1,3.71,1l3.26-12.4Z"/><path class="cls-5" d="M177.48,165.21l-5.08,7.33c-1.08,2.47-8.13.16-5.46-4.41.1-.17,5.58-8.37,5.58-8.37S177.34,161.6,177.48,165.21Z"/><path class="cls-5" d="M187.37,164.5l1.92,19.3s-1,2.08-7,2.73a34,34,0,0,1-11.31-.8l-.34-18,1.9-8s-.3-.25,4.37-2.08l5.46-1.33s3,0,3.52,1.5S187.37,164.5,187.37,164.5Z"/><path class="cls-23" d="M182.35,156.35a1.44,1.44,0,0,1-1.17,1.85c-1.64.46-4.29-.52-4.29-.52A6.69,6.69,0,0,1,182.35,156.35Z"/><path class="cls-7" d="M171,185.73,170.83,173l4.62-4.88.35,18.4S172.09,186.86,171,185.73Z"/><path class="cls-19" d="M34.16,149.33h0a1.33,1.33,0,0,1-1.43,1.2l-2.22-1.07c-.63-.13-.18-.1,0-.9h0c.14-.67-.26-.93.39-1a2.27,2.27,0,0,1,.78.05l1.44.34a2,2,0,0,1,.63.24C34.12,148.43,34.29,148.69,34.16,149.33Z"/><path class="cls-23" d="M12.73,139.73a1.87,1.87,0,0,1,.57-3.07l3.86-.27c1.37,1,3.37,4.18,4.86,7.06.58.62.85,1.43,1.66,1.9l10.73.79-1.88,3.63-9.24-.31a9.4,9.4,0,0,1-5.11-3.69S14.65,142.13,12.73,139.73Z"/><path class="cls-24" d="M1.79,191.79c3.15-1.86,8.63-2.17,12.25-.67a7,7,0,0,1,1.57.86,11.2,11.2,0,0,1,7.45.06c2.54,1,2.81,3,.6,4.26a11,11,0,0,1-8.31.59l-.46.3c-3.15,1.86-7.14,1.09-10.58-.77C-.24,194-1.36,193.65,1.79,191.79Z"/><path class="cls-5" d="M20.45,194l-3.53-4a4.22,4.22,0,0,0-2.34-.21.67.67,0,0,0-.57.68l-.07.68c-.09,1.13-.22,1.5.49,1.86l4.22,2.12C19.52,195.86,21.93,195.48,20.45,194Z"/><path class="cls-19" d="M16.79,190.49s2,2.36,1.77,2.54c-1,.72-3.55-1.34-3.55-1.34S16.33,190.38,16.79,190.49Z"/><path class="cls-19" d="M15,191.46c.56,1,2.06.31,2.11-.75-.18-6,1-10.65.79-16.21-.18-6.23-.64-6.33-1-15.89l-5.77,1.09c1.26,6.84,2,15.51,2,15.51C11.74,181.92,13.6,183.3,15,191.46Z"/><path class="cls-5" d="M13.32,195.88,10,191.61a4.39,4.39,0,0,0-2.34-.41.62.62,0,0,0-.59.62l-.11.67c-.14,1.11-.29,1.47.4,1.89l4.13,2.49C12.3,197.6,14.73,197.44,13.32,195.88Z"/><path class="cls-19" d="M9.82,192s1.91,2.54,1.65,2.69C10.4,195.32,8,193,8,193S9.36,191.86,9.82,192Z"/><path class="cls-19" d="M7.93,192.81c.51,1,2,.5,2.15-.56.1-5.92,1.46-10.48,1.55-16,.1-6.21-.35-6.34-.21-15.87l-5.83.55c.94,6.92,1.23,15.59,1.23,15.59C5.16,183,7,184.58,7.93,192.81Z"/><path class="cls-5" d="M16.45,150.78s1.22-.52,1.26,21.45c0,0-1.35,1.31-5.15,2.41-3.57,1.05-6-3.13-8.93-2,0,0,1.69-4.25,1.39-6.21S3.19,153,6.41,152.52,16.45,150.78,16.45,150.78Z"/><path class="cls-7" d="M3.63,172.6s1.69-4.24,1.39-6.2S3.19,153,6.41,152.53l2.64-.42c-.17,1.91-.53,5.06-1.27,10.21-1,6.86,1.35,10.56,3.61,12.49C8.42,174.81,6.2,171.63,3.63,172.6Z"/><path class="cls-7" d="M12.34,128.19l-3.68,4.62s.56,3.07-1.58,4.82-3.94,2.88-3,6.81-4.87,5-1.9,8.45,11,1.23,12.62-2,3.36-12.51,1.76-14.82A76.72,76.72,0,0,1,12.34,128.19Z"/><path class="cls-19" d="M17.33,140.41s.41-4.27-2.21-3.75c-.37.08-.95-.12-1.37,0a8.93,8.93,0,0,0-3.52,1.26,3.65,3.65,0,0,0-1.11,2.48L8,142.28Z"/><path class="cls-23" d="M16,136.39c-.42,0-1,0-.94.23.79,2.22-2.53,3.52-3.91,1.11-.07-.12-.22-.31-.39-.19L9.9,138c-6.12,2.33-4.16,8.67-4.28,10.27a13.19,13.19,0,0,1-1.18,4c-.41.64,2.72,4.17,8.78,2.53,4.77-1.3,5.57-3.18,4.57-5.24-1.49-3-.49-5.13-.34-6.29s1.22-2.18.73-3.91a14.79,14.79,0,0,0-1.22-3Z"/><path class="cls-19" d="M13.2,137.86l.17,0a1,1,0,0,0,1.09-.87l.21-3.1a1.08,1.08,0,0,0-.94-1.13l-.17,0c-.56-.07-1.39.17-1.43.72l-.37,3.29C11.72,137.32,12.64,137.79,13.2,137.86Z"/><path class="cls-22" d="M14.61,135.45a3,3,0,0,1-2.32-1.17s1,1.91,2.24,2Z"/><path class="cls-7" d="M16.26,130.4s1.43,3-.22,4.19-3.82-5.2-3.82-5.2Z"/><path class="cls-19" d="M10.4,130.08a1.26,1.26,0,0,1,1.71-1c.57-.48,1.47-.3,2.33.56,1.2,1.2,2,3.41,1.68,4.77a1.44,1.44,0,0,1-1.06,1,3.57,3.57,0,0,1-1.31.14c-1.6-.12-1.56.11-2.36-.69A5.32,5.32,0,0,1,10.4,130.08Z"/><path class="cls-7" d="M11.47,130.32c-.17,1.55.75,3.27.46,5,0,0-2.8.94-3.27-2.49C8.09,128.54,11,130,11,130Z"/><path class="cls-7" d="M10.61,131.15c1.44-1.08,2.63-1.94,5.66-.49.09-.4-.7-1.46-1.31-1.71a6.91,6.91,0,0,0-3.21-.77l-.29,0A2.49,2.49,0,0,0,9,131.13c0,.16-.12.9-.09,1l.5-.32C9.58,132.83,9.58,131.27,10.61,131.15Z"/><path class="cls-23" d="M15.06,134.34h0a1.26,1.26,0,0,0,.37-1.26l-1.1.65C14.43,134.25,14.76,134.52,15.06,134.34Z"/><path class="cls-19" d="M10.63,134.22a.87.87,0,1,0,.69-1A.87.87,0,0,0,10.63,134.22Z"/><path class="cls-25" d="M56.22,125c10.16-8.33,8.16-19.45,1.16-25.42s-18.87-4.27-26.51,3.79-8.16,19.44-1.16,25.41S47.63,132.05,56.22,125Z"/><polygon class="cls-7" points="26.79 144.24 29.88 148.91 38.58 134.01 34.69 130.69 26.79 144.24"/><path class="cls-9" d="M14.31,158.51h0L25.23,141h0c.33-.75,1.25-1.13,2.63-.93a9.73,9.73,0,0,1,6.39,4.39,2.24,2.24,0,0,1,.13,2.53h0l-2.56,4.1h0L21,168.51l-9.23-5.9Z"/><path class="cls-7" d="M33.49,143.37a6.79,6.79,0,0,1,.76,1.1,2.24,2.24,0,0,1,.13,2.53h0l-2.56,4.1h0L21,168.51l-1.77-1.14Z"/><path class="cls-5" d="M63.12,117.82c4.62-10.13.05-19.88-10.22-21.78S30.58,100.81,26,110.94s0,19.88,10.22,21.78S58.49,127.94,63.12,117.82ZM37.17,131.36c-8.71-1.61-12.34-11.3-8.42-19.9S42.93,97.19,51.64,98.8A13.48,13.48,0,0,1,61.57,118C57.65,126.59,45.89,133,37.17,131.36Z"/><path class="cls-7" d="M64.27,122.07l-.35.62-.07.11c-.05.1-.11.19-.17.29l-.21.35c0,.07-.09.13-.13.19a3.28,3.28,0,0,1-.2.31l-.15.24-.2.28-.21.3-.1.15-.29.39c-.07.08-.13.17-.19.25l0,.07c-.18.23-.36.46-.55.68h0l0,.06-.5.58-.08.09a2.09,2.09,0,0,1-.2.22l-.27.31a1.7,1.7,0,0,0-.19.19l-.22.23-.17.17-.34.33-.18.18-.06.06c-.2.19-.4.38-.61.56l0,0-.18.15-.48.42-.08.06c-.13.12-.27.23-.41.34l-.33.26-.06,0-1.1.8-.09.07-.29.19L55,132l-.42.26-.48.29-.15.1-.39.21-.26.15-.83.44h0l-1,.46,0,0-.71.31-.15.06h0c-.28.12-.56.23-.85.33l0,0-.27.09-.54.18-.1,0-.37.11-.4.13-.16,0-.39.1-.34.09-.2,0a3.15,3.15,0,0,1-.42.09l-.3.07-.23,0-.42.07-.26.05-.27,0-.41.06-.21,0-.35,0-.38,0h-.15l-.45,0-.32,0h-1c-.24,0-.49,0-.73,0h-.19l-.6-.05-.22,0-.3,0-.24,0-.36-.06-.27-.05h-.1l-.72-.16h0l-.71-.19-.09,0-.25-.08-.36-.11-.17-.06-.31-.12-.23-.08-.24-.1-.3-.13-.15-.07-.28-.13-.33-.17-.12-.06-.27-.15-.35-.2-.1-.06-.23-.15-.4-.26L33,133.3l-.43-.31-.05-.05-.32-.25-.19-.16-.15-.13c-.17-.15-.35-.31-.51-.48h0l-.13-.14c-.14-.14-.28-.28-.41-.43l-.18-.21-.25-.29-.06-.08-.36-.47-.17-.23c-.16-.24-.33-.48-.48-.73l-2.48-4.09.48.73c.06.08.12.15.17.23l.36.47.31.36.18.22.41.43.13.13.53.5.15.12c.17.15.34.28.51.42l.06,0a5.3,5.3,0,0,0,.54.39l.4.27.33.2.35.2.39.22.34.16.43.2.29.13.47.19L34,131l.53.18.25.08.8.22h0l.83.17.26,0,.6.1.3,0c.27,0,.54.06.82.08s.62,0,.93,0h1.28l.61,0,.37,0,.56-.06.41,0,.53-.08.42-.07.53-.11.42-.09.54-.13.4-.11.55-.16.37-.11.65-.22.26-.09c.3-.11.6-.22.9-.35l.14-.06.76-.32c.33-.15.65-.3,1-.46h0l.84-.44.26-.15.54-.31.48-.29.42-.27c.16-.1.32-.2.47-.31l.38-.26c.38-.26.74-.53,1.1-.81l.39-.31.41-.33.56-.48.19-.16.7-.65.18-.17c.16-.17.33-.34.5-.5l.22-.24c.16-.16.31-.33.47-.5l.19-.21c.2-.23.4-.45.59-.68l.05-.06.6-.76c.06-.08.13-.16.19-.25l.39-.53c.07-.1.14-.21.22-.31l.34-.51.2-.31c.12-.18.23-.36.34-.55l.18-.29.41-.73.06-.1.43-.86.12-.25c.1-.2.19-.41.28-.62s.09-.21.14-.31l.24-.61c0-.1.08-.19.11-.29.11-.29.22-.59.32-.88s.19-.63.28-.93l.06-.27c.06-.21.12-.42.17-.63s0-.25.08-.37.07-.36.1-.55,0-.26.07-.39.06-.34.08-.51l.06-.45c0-.15,0-.3,0-.46s0-.35,0-.53,0-.28,0-.41,0-.43,0-.65v-.4c0-.06,0-.13,0-.2s0-.45,0-.67a.53.53,0,0,0,0-.13c0-.29,0-.56-.09-.84h0c0-.28-.08-.55-.14-.82l0-.16c0-.2-.09-.4-.13-.6s0-.15-.07-.23-.1-.36-.15-.54l-.06-.2c-.08-.24-.16-.48-.25-.71l0-.1c-.08-.2-.16-.4-.25-.59l-.09-.21q-.12-.25-.24-.48a1.24,1.24,0,0,0-.1-.2c-.12-.22-.23-.43-.36-.64l2.48,4.09.36.64c0,.07.07.13.1.2l.24.48.09.21c.09.2.17.4.25.6l0,.09c.09.24.17.47.25.71l.06.2.15.54.06.24c0,.2.1.4.14.6l0,.16v0c0,.26.09.51.13.77h0c0,.25.06.51.09.78v0a.57.57,0,0,1,0,.13c0,.22,0,.45,0,.68a1.41,1.41,0,0,0,0,.2v.4c0,.21,0,.42,0,.64v.17a2,2,0,0,0,0,.25c0,.17,0,.35,0,.53s0,.14,0,.22a2,2,0,0,1,0,.24c0,.15,0,.3,0,.45l0,.23a2.56,2.56,0,0,1,0,.27c0,.13,0,.27-.07.4l0,.2c0,.11,0,.23-.08.34s0,.25-.08.37l0,.15c0,.16-.08.32-.13.49a2.5,2.5,0,0,1-.07.26s0,0,0,.06c-.08.28-.16.55-.25.82l0,0c-.08.25-.16.5-.25.74l-.06.14c0,.1-.07.2-.11.3s-.09.23-.13.34l-.12.27c0,.1-.08.2-.13.3l-.08.2c-.07.14-.14.29-.2.43l-.12.24a.36.36,0,0,1,0,.09q-.18.38-.39.75v0Z"/><path class="cls-8" d="M24.83,109.2c-2.44,5.3-2.53,10.66-.27,15.09a14,14,0,0,0,3.21,4.14,16.06,16.06,0,0,0,7.79,3.67c10.49,2,22.88-4.84,27.62-15.17,2.44-5.3,2.53-10.66.27-15.09a15.05,15.05,0,0,0-11-7.82C42,92.06,29.57,98.86,24.83,109.2ZM51.28,96.64A13.2,13.2,0,0,1,61,103.51c2,3.9,1.91,8.61-.23,13.28-4.18,9.09-15.08,15.08-24.31,13.35a14.15,14.15,0,0,1-6.85-3.23,12.36,12.36,0,0,1-2.83-3.65c-2-3.89-1.91-8.61.24-13.27C31.14,100.89,42.05,94.91,51.28,96.64Z"/><ellipse class="cls-8" cx="16.25" cy="165.74" rx="2" ry="5.43" transform="translate(-130.31 86.65) rotate(-56.05)"/><path class="cls-19" d="M20.39,162.28h0a1.33,1.33,0,0,1-1.86-.12l-.88-2.31c-.36-.53-.06-.19.6-.66h0c.66-.46.4-1,1.32-.17l1,1.52a2.18,2.18,0,0,1,.29.64C21,161.61,20.91,161.91,20.39,162.28Z"/><path class="cls-23" d="M6.17,144.89a5.2,5.2,0,0,1,.52-4l3.88,6.1,1.21,6a3.16,3.16,0,0,0,1.34,2l5.77,3.84-.69,1.33L11.41,158c-2.62-.71-3.38-4.41-3.57-5C7.84,153,6.76,147.9,6.17,144.89Z"/><path class="cls-7" d="M228.39,97.11l-.14,0c-.52-.14-1,.42-1.13,1.26l-1.26,10.55-16.25-4.6,1.26-10.54c.1-.84-.24-1.65-.76-1.8l-.15,0c-.52-.15-1,.42-1.13,1.26l-1.36,11.41h0l-.13,1.11h0l-1.63,13.65h0l-.1.82-1.66,14h0v.06l-1.82,15.25-.06.57h0l-1.63,13.66h0l-.13,1.11h0L198.59,179c-.1.84.24,1.65.76,1.79l.15.05c.52.14,1-.42,1.13-1.26l1.6-13.44,16.25,4.6-1.6,13.43c-.1.84.24,1.65.76,1.8l.15,0c.52.14,1-.42,1.12-1.26L229.16,98.9C229.26,98.06,228.91,97.25,228.39,97.11Zm-2.86,14.59-1.43,11.94L207.85,119l1.42-11.94Zm-3.19,26.71-16.25-4.6,1.42-11.94,16.25,4.6Zm-1.76,14.76-16.25-4.59,1.42-11.94,16.25,4.6Zm-18,10.17L204,151.41,220.24,156l-1.42,11.94Z"/><path class="cls-2" d="M90.74,53.66l-11.43-3.8V82.78l3.84,1.1,6,9.17A1.72,1.72,0,0,0,92.28,92l-.48-6.78c3.56-.81,6-4,6-8.38V70.57C97.82,64.39,96.61,55.33,90.74,53.66Z"/><path class="cls-8" d="M75.06,80.25l8.83,13.53A1.72,1.72,0,0,0,87,92.72l-.61-8.54Z"/><path class="cls-8" d="M81.9,85.74l-29.78-8.5C46.25,75.57,41.45,69.14,41.45,63V52.51c0-6.18,4.8-9.87,10.67-8.19l29.78,8.5c5.87,1.68,10.67,8.1,10.67,14.28V77.55C92.57,83.73,87.77,87.42,81.9,85.74Z"/><ellipse class="cls-17" cx="263.65" cy="105.26" rx="5.02" ry="7.13" transform="translate(-11.47 175.25) rotate(-36.04)"/><path class="cls-26" d="M239.92,172.42s-3.92,1.64-4.32,19.13"/><path class="cls-11" d="M240,199.49,232,197.86a3,3,0,0,1-2.4-2.88l.12-4.63a2,2,0,0,1,2.54-1.87l8.08,1.64A3,3,0,0,1,242.7,193l-.13,4.63A2,2,0,0,1,240,199.49Z"/><ellipse class="cls-27" cx="48.63" cy="199.96" rx="5.13" ry="3.22" transform="matrix(0.22, -0.98, 0.98, 0.22, -157.11, 204.2)"/><polygon class="cls-27" points="49.58 194.92 113.06 214.36 110.75 224.32 47.68 204.99 49.58 194.92"/><path class="cls-28" d="M45.41,199.63a6.6,6.6,0,0,0,.33,3.67A2.58,2.58,0,0,0,47.68,205h0l63.06,19.33.91-3.88Z"/><path class="cls-29" d="M122.91,223.39l-8.86-8.27a2.66,2.66,0,0,0-.58-.54v0h0c-1-.67-2.35-.39-3.47.91a7.41,7.41,0,0,0-1.24,7.13,2.37,2.37,0,0,0,2.85,1.63Z"/><path class="cls-11" d="M82.48,67.75,51.61,58.46A2.78,2.78,0,0,1,49.75,56h0a1.36,1.36,0,0,1,1.86-1.38l30.87,9.29a2.78,2.78,0,0,1,1.86,2.5h0A1.37,1.37,0,0,1,82.48,67.75Z"/><path class="cls-11" d="M68.74,72,51.61,66.82a2.77,2.77,0,0,1-1.86-2.49h0A1.36,1.36,0,0,1,51.61,63L68.74,68.1a2.78,2.78,0,0,1,1.86,2.5h0A1.37,1.37,0,0,1,68.74,72Z"/><ellipse class="cls-30" cx="181.32" cy="92.34" rx="12.9" ry="14.88" transform="translate(-22.05 98.97) rotate(-28.86)"/><ellipse class="cls-16" cx="180.25" cy="91.53" rx="12.9" ry="14.88" transform="translate(-21.79 98.36) rotate(-28.86)"/><path class="cls-23" d="M172.77,92.53l4.37,6.58a1.22,1.22,0,0,0,2.06,0l7.28-9.74L187.53,88a1.21,1.21,0,0,0-.43-1.63,1.23,1.23,0,0,0-1.63.43l-7.28,9.73-1.05,1.4h2.06l-4.37-6.58c-.85-1.27-2.91-.08-2.06,1.2Z"/><line class="cls-31" x1="10.58" y1="152.54" x2="9.49" y2="144.74"/><path class="cls-32" d="M170.9,76.08a14.28,14.28,0,0,1,9.35-1.53c9.13,1.46,16.53,10.41,16.53,20s-7.4,16.14-16.53,14.67-16.52-10.41-16.52-20a15.18,15.18,0,0,1,4.37-11"/><path class="cls-7" d="M203.31,73.9l2.9-3.38a3.25,3.25,0,0,1,1.9-.5c.36,0,.35-.25.41.06l.65,1.22c.53.8,0,1.51-.94,2.08l-3.13,1.87a2.83,2.83,0,0,1-2.28.3l-.17-.07C202,75.23,202.67,74.5,203.31,73.9Z"/><path class="cls-22" d="M208.58,70.36c.08,1-2.24,1.15-2.32.19l-.26-3.1,2.32-.2Z"/><path class="cls-7" d="M218,45.84s-10.53,1.4-13.92,4.93c-1.8,1.86,1.38,17.57,1.38,17.57a2.54,2.54,0,0,0,3.31,0s1.59-8.48.33-10.23l10.71-6.32Z"/><path class="cls-7" d="M229.15,42.53s1.89,9.35-1.23,12.11-7.7.44-7.7.44l-4.31-7.87.36-6.57Z"/><path class="cls-7" d="M207.59,74.9l3.33-3a3.2,3.2,0,0,1,2-.24c.35.06.38-.2.39.12l.48,1.3c.42.86-.22,1.48-1.21,1.92l-3.35,1.43a2.83,2.83,0,0,1-2.3,0l-.16-.1C206.15,76.05,206.87,75.41,207.59,74.9Z"/><path class="cls-22" d="M213.29,72.11c0,1-2.38.84-2.33-.12l.16-3.11,2.33.12Z"/><path class="cls-23" d="M216.08,26.42,212.26,37l-2.67.48,1.7,3.59c.37,2.22,2.89,2.83,3.29,1.49L217.11,31Z"/><path class="cls-19" d="M209.37,34.53h0a1,1,0,0,0-.65,1.21l.54,1.77a1,1,0,0,0,1.2.65h0A1,1,0,0,0,211.1,37l-.53-1.77A1,1,0,0,0,209.37,34.53Z"/><path class="cls-7" d="M222.85,24.93s1.94.37,2,1.35a10.67,10.67,0,0,1,0,1.89l-6.5-.82.44-2.69Z"/><path class="cls-23" d="M214.58,44.13c-.05-3.59.8-7.26.2-11.73-.09-6.2,2.22-8.53,6.15-7.16l1.62.41c4.75,2.47,7.14,2.31,6.37,7.32l-.14,11.84C228.86,50.44,214.37,50.75,214.58,44.13Z"/><path class="cls-33" d="M229.08,32.81l1.65,11.61c.05,3.28-6.21,4.67-9.92,4.44C225,46.33,227.45,41,229.08,32.81Z"/><path class="cls-23" d="M224.52,26.58s.27,1.7-2.2,3.13a5.05,5.05,0,0,0-2.2,3c-.18.6-.54.3-.6-.33a15.88,15.88,0,0,0-.59-3.34,9.11,9.11,0,0,1,.38-4.9C219.41,24.12,224.52,26.58,224.52,26.58Z"/><path class="cls-7" d="M221.12,25.33s-2.36.74-1.83,3l.05,2.63s-1.82-3-1-5.78S221.12,25.33,221.12,25.33Z"/><path class="cls-7" d="M220.45,25.57a3.36,3.36,0,0,0,.86.66c.3.08,3.67-2.34,2.68-5.32-.63-1.9-4.21-.65-4.21-.65Z"/><path class="cls-19" d="M221.75,28.3l-.19,0a1.16,1.16,0,0,1-1.33-1l-.56-3.58a1.17,1.17,0,0,1,1-1.33l.19,0a1.17,1.17,0,0,1,1.33,1l1.05,3.36C223.31,27.39,222.38,28.21,221.75,28.3Z"/><path class="cls-22" d="M220,25.72a3.2,3.2,0,0,0,2.55-1.41s-1,2.23-2.39,2.41Z"/><path class="cls-7" d="M223.33,25s1.66,2-1.36,3.66a4.42,4.42,0,0,0-1.19,2.54s1-.8,1.6-1.24S227.34,26.82,223.33,25Z"/><ellipse class="cls-19" cx="219.16" cy="22.55" rx="1.99" ry="3.51" transform="translate(-0.97 31.63) rotate(-8.24)"/><path class="cls-19" d="M222.72,23.89c-.44,1.62-3,2.88-4.07,1.84s-.64-3.84-.2-5.46,1.63-2.09,2.67-1.05S223.16,22.27,222.72,23.89Z"/><path class="cls-7" d="M220.51,20.31s0,3.12,2.5,3.54c0,0,2.57-1.89.23-4.63-2.06-2.41-4.7-.12-4.7-.12Z"/><path class="cls-7" d="M217.18,22.77a3,3,0,0,1,1.73-2.08l-1.35-.62S216.3,20.51,217.18,22.77Z"/><path class="cls-7" d="M222,22c-.61-.66-1.75-.53-3.31.23a1.47,1.47,0,0,1-.77.17c-1.23-.12-1.58-1.6-1.58-1.6-.37-1,.25-1.5,1.22-1.87l2.53-1a2.8,2.8,0,0,1,3.37,1.48l.08.15C223.89,20.56,223,21.61,222,22Z"/><path class="cls-19" d="M223.27,23.72a.74.74,0,1,1-.52-.9A.73.73,0,0,1,223.27,23.72Z"/><path class="cls-23" d="M219.4,25.42h0a1.27,1.27,0,0,1-.89-.94l1.25.11C219.9,25.08,219.74,25.45,219.4,25.42Z"/><path class="cls-23" d="M229,30.13s5.89,9.92,4.55,13.58-11.18.38-11.18.38l-.24-2.86,6.72-.56-2.06-8.47Z"/><path class="cls-19" d="M218.62,43.79h0a1,1,0,0,0,1.11.86l1.79-.19a.9.9,0,0,0,.77-1.07h0a1,1,0,0,0-1.1-.86l-1.8.2A.89.89,0,0,0,218.62,43.79Z"/><path class="cls-7" d="M223.21,49.73s-8.65.39-12.05,3.91c-1.79,1.87-.55,16.29-.55,16.29s1.87,1.92,3.46.46c0,0,3.38-7.69,2.11-9.44l9.59-5.16Z"/><path class="cls-34" d="M214.07,39.66l-3.1-.89a.73.73,0,0,1-.44-.45l-1.46-5c-.06-.19,0-.31.23-.25l3.06.85a.72.72,0,0,1,.43.44l1.46,5c0,.13,0,.16-.07.23Z"/><path class="cls-34" d="M211,35.21s-.36,3.31-.42,3.11L209,33.14l.16-.09a.21.21,0,0,1,.19,0l3.06.85a.59.59,0,0,1,.25.17Z"/><path class="cls-7" d="M213.86,39.71l-3.05-.86a.7.7,0,0,1-.43-.44l-1.47-5c0-.2.05-.31.23-.26l3.05.86a.72.72,0,0,1,.43.44l1.46,5C214.14,39.65,214,39.76,213.86,39.71Z"/><path class="cls-35" d="M45.41,199.63l-4.85-1.55a9.43,9.43,0,0,0,.08,5l6.21,1.71Z"/><path class="cls-13" d="M108.37,219.39a6.35,6.35,0,0,0,.38,3.22,2.37,2.37,0,0,0,2.85,1.63l11.31-.85Z"/><path class="cls-5" d="M122.91,223.39l-4.41-4.12a4.17,4.17,0,0,0-2.35,4.63Z"/><path class="cls-36" d="M30.18,123.64s-1.4-14,8.4-19.84,17.47,0,17.47,0Z"/></g></g></g></svg>