<svg xmlns="http://www.w3.org/2000/svg" viewBox="0 0 120 120"><defs><style>.cls-1{fill:none;}.cls-2{fill:#b90048;}.cls-3{fill:#f9ae3b;}</style></defs><title>aliado_05</title><g id="Capa_2" data-name="Capa 2"><g id="Assets"><rect class="cls-1" width="120" height="120"/><path class="cls-2" d="M72,17.54H37.52a3.8,3.8,0,0,0-3.8,3.8V67.19A3.81,3.81,0,0,0,37.52,71H83.37a3.81,3.81,0,0,0,3.8-3.81V32.75A15.21,15.21,0,0,0,72,17.54Z"/><path class="cls-3" d="M62,48.61V61.69a1.93,1.93,0,0,1-1.93,1.93h-4a1.93,1.93,0,0,1-1.93-1.93V50.54H43a1.93,1.93,0,0,1-1.93-1.93v-4A1.93,1.93,0,0,1,43,42.7H60.08A1.92,1.92,0,0,1,62,44.63Z"/><path class="cls-3" d="M73.93,36.7V49.77A1.94,1.94,0,0,1,72,51.71H68a1.94,1.94,0,0,1-1.93-1.94V38.63H54.94A1.92,1.92,0,0,1,53,36.7v-4a1.92,1.92,0,0,1,1.93-1.93H72a1.93,1.93,0,0,1,1.93,1.93Z"/><path d="M10.8,96.1l1.92-11.46h4.73a7.78,7.78,0,0,1,2.12.23,2.74,2.74,0,0,1,1.28,4.4,3.25,3.25,0,0,1-1.78,1A2.5,2.5,0,0,1,21,92.75a3.36,3.36,0,0,1-.91,2.34,3.83,3.83,0,0,1-3,1Zm3.75-2.54h1.71a1.46,1.46,0,0,0,1.1-.33,1.09,1.09,0,0,0,.3-.73,1,1,0,0,0-.33-.79,1.43,1.43,0,0,0-1-.3H14.91ZM15.31,89h1.31c1.05,0,1.57-.35,1.57-1s-.41-.92-1.24-.92H15.63Z"/><path d="M30.5,96.1H27.18a3.28,3.28,0,0,1,0-.39,8.06,8.06,0,0,1,.07-1,3.13,3.13,0,0,1-2.79,1.6,2.78,2.78,0,0,1-2-.69,2.3,2.3,0,0,1-.75-1.75,2.73,2.73,0,0,1,.4-1.43,2.84,2.84,0,0,1,1.15-1,4.73,4.73,0,0,1,1.51-.51c.51-.08,1.52-.19,3-.33a1.62,1.62,0,0,0,.1-.49c0-.46-.32-.69-1-.69a1.47,1.47,0,0,0-1.41,1l-2.76-.57q1.05-2.35,4.62-2.36a5.4,5.4,0,0,1,2.83.63,2,2,0,0,1,1,1.84,38,38,0,0,1-.61,3.87,11.23,11.23,0,0,0-.22,1.63A3.55,3.55,0,0,0,30.5,96.1Zm-3-4c-1.54.12-2.31.61-2.31,1.48,0,.47.25.71.75.71a1.41,1.41,0,0,0,.95-.43A2.74,2.74,0,0,0,27.51,92.07Z"/><path d="M33.43,87.62h3L36.16,89a2.3,2.3,0,0,1,1.13-1.24,3.63,3.63,0,0,1,1.64-.39,2.64,2.64,0,0,1,1.76.57,1.89,1.89,0,0,1,.67,1.5,4.93,4.93,0,0,1-.09.86l-1,5.8H37.08l.85-5.1a4.51,4.51,0,0,0,.09-.64c0-.48-.25-.72-.76-.72-.67,0-1.09.46-1.24,1.36l-.86,5.1H32Z"/><path d="M47.85,92.81l2.56.63a4.43,4.43,0,0,1-1.81,2.28,4.62,4.62,0,0,1-2.31.63,3.8,3.8,0,0,1-4-4,5.29,5.29,0,0,1,1.31-3.53,4.38,4.38,0,0,1,3.49-1.53,3.94,3.94,0,0,1,2.66,1,3.06,3.06,0,0,1,1.09,2.43L48,91q0-1.38-.93-1.38c-.53,0-.91.37-1.14,1.13a7.09,7.09,0,0,0-.33,2c0,.83.31,1.24.94,1.24S47.58,93.6,47.85,92.81Z"/><path d="M55.51,96.35a4.36,4.36,0,0,1-3-1,3.6,3.6,0,0,1-1.21-2.88,4.91,4.91,0,0,1,1.4-3.6,4.76,4.76,0,0,1,3.53-1.41,4.32,4.32,0,0,1,3.1,1.1,3.67,3.67,0,0,1,1.15,2.73A4.85,4.85,0,0,1,59,95,5,5,0,0,1,55.51,96.35Zm.13-2.06c.59,0,1-.44,1.2-1.31a9.74,9.74,0,0,0,.31-2.2c0-.89-.32-1.34-1-1.34s-1,.45-1.2,1.34A9.52,9.52,0,0,0,54.65,93Q54.65,94.29,55.64,94.29Z"/><path d="M69.79,96.1H66.46c0-.16,0-.29,0-.39a10.17,10.17,0,0,1,.06-1,3.13,3.13,0,0,1-2.79,1.6,2.79,2.79,0,0,1-2-.69A2.33,2.33,0,0,1,61,93.85a2.64,2.64,0,0,1,.4-1.43,2.87,2.87,0,0,1,1.14-1,4.82,4.82,0,0,1,1.51-.51c.52-.08,1.52-.19,3-.33a1.42,1.42,0,0,0,.11-.49c0-.46-.32-.69-1-.69a1.49,1.49,0,0,0-1.42,1L62,89.74q1.05-2.35,4.62-2.36A5.46,5.46,0,0,1,69.5,88a2,2,0,0,1,1,1.84c0,.37-.2,1.65-.6,3.87a11.78,11.78,0,0,0-.23,1.63A3.62,3.62,0,0,0,69.79,96.1Zm-3-4c-1.54.12-2.32.61-2.32,1.48,0,.47.25.71.75.71a1.43,1.43,0,0,0,1-.43A2.74,2.74,0,0,0,66.8,92.07Z"/><path d="M72.72,87.62H75.6l-.21,1.31A2.9,2.9,0,0,1,78,87.37a2.11,2.11,0,0,1,2.15,1.56,2.7,2.7,0,0,1,2.54-1.52,2.53,2.53,0,0,1,1.8.63,2.22,2.22,0,0,1,.67,1.71,5.44,5.44,0,0,1-.07.83l-.92,5.52H80.94l.85-5a4.25,4.25,0,0,0,.06-.6c0-.49-.23-.74-.68-.74a.89.89,0,0,0-.69.32,2.52,2.52,0,0,0-.42,1.19l-.82,4.86H76.11l.85-5a4.58,4.58,0,0,0,.07-.66.67.67,0,0,0-.21-.55.77.77,0,0,0-.46-.17,1.29,1.29,0,0,0-.58.2c-.24.13-.41.52-.52,1.18l-.85,5H71.3Z"/><path d="M90.65,87.62,89.23,96.1h-3.3l1.42-8.48Zm.54-3.25-.42,2.49H87.48l.41-2.49Z"/><path d="M100.71,85.21l-.2,2.11a7,7,0,0,0-.75-.06,1.27,1.27,0,0,0-1.27.69,2.32,2.32,0,0,1,1.3,2,2.62,2.62,0,0,1-.85,1.92,4.4,4.4,0,0,1-3.11.84c-.32,0-.58,0-.79,0s-.51,0-.64,0a.71.71,0,0,0-.5.18.56.56,0,0,0-.2.41.44.44,0,0,0,.13.33.55.55,0,0,0,.31.14c.12,0,.63,0,1.52.06s1.6.07,1.89.11a2.92,2.92,0,0,1,1,.33,2.11,2.11,0,0,1,1.12,1.9,2.65,2.65,0,0,1-1.06,2.09c-.7.59-2,.89-4,.89-3,0-4.46-.68-4.46-2,0-.71.5-1.26,1.51-1.64a1.6,1.6,0,0,1-.82-1.35c0-.94.69-1.61,2.06-2a2.08,2.08,0,0,1-1.18-1.89,2.47,2.47,0,0,1,1-1.93,5.17,5.17,0,0,1,3.28-.81,6.71,6.71,0,0,1,1.31.12,2.43,2.43,0,0,1,2.61-2.37A7.54,7.54,0,0,1,100.71,85.21ZM93.24,96.1c-.31.19-.47.39-.47.59,0,.42.7.64,2.09.64a6.51,6.51,0,0,0,1.5-.13c.31-.09.46-.26.46-.51a.31.31,0,0,0-.21-.33,4,4,0,0,0-1-.12C94.25,96.18,93.45,96.13,93.24,96.1Zm2.45-4.9a1,1,0,0,0,.84-.37,1.36,1.36,0,0,0,.3-.86.81.81,0,0,0-.92-.93,1,1,0,0,0-.86.38,1.47,1.47,0,0,0-.3.92A.8.8,0,0,0,95,91,1,1,0,0,0,95.69,91.2Z"/><path d="M105,96.35a4.35,4.35,0,0,1-3-1,3.6,3.6,0,0,1-1.21-2.88,4.91,4.91,0,0,1,1.4-3.6,4.76,4.76,0,0,1,3.53-1.41,4.32,4.32,0,0,1,3.1,1.1A3.66,3.66,0,0,1,110,91.24,4.84,4.84,0,0,1,108.48,95,5,5,0,0,1,105,96.35Zm.14-2.06c.59,0,1-.44,1.19-1.31a9.84,9.84,0,0,0,.32-2.2c0-.89-.33-1.34-1-1.34s-1,.45-1.2,1.34a9.52,9.52,0,0,0-.33,2.19Q104.11,94.29,105.1,94.29Z"/></g></g></svg>