<?xml version="1.0" encoding="utf-8"?>
<!-- Generator: Adobe Illustrator 23.0.6, SVG Export Plug-In . SVG Version: 6.00 Build 0)  -->
<svg version="1.1" xmlns="http://www.w3.org/2000/svg" xmlns:xlink="http://www.w3.org/1999/xlink" x="0px" y="0px"
	 viewBox="0 0 285 321.2" style="enable-background:new 0 0 285 321.2;" xml:space="preserve">
<style type="text/css">
	.st0{fill:#FFFFFF;}
	.st1{fill:#E0ECF6;}
	.st2{fill:#8DBBDD;}
	.st3{fill:none;stroke:#3184C1;stroke-width:1.3621;stroke-linecap:round;stroke-linejoin:round;stroke-miterlimit:10;}
	.st4{fill:#A1C7E3;}
	.st5{fill:none;stroke:#8DBBDD;stroke-width:1.3621;stroke-linecap:round;stroke-linejoin:round;stroke-miterlimit:10;}
	.st6{fill:#3184C1;}
	.st7{fill:none;stroke:#0D6EB6;stroke-width:1.2244;stroke-linecap:round;stroke-linejoin:round;stroke-miterlimit:10;}
	.st8{fill:none;stroke:#8DBBDD;stroke-width:1.5702;stroke-linecap:round;stroke-linejoin:round;stroke-miterlimit:10;}
	.st9{opacity:0.3;}
	.st10{fill:#D6E6F3;}
	.st11{fill:#E9F2F8;}
	.st12{fill:#5A9DCE;}
	.st13{fill:none;stroke:#E9F2F8;stroke-miterlimit:10;}
	.st14{fill:#CCCCCC;}
	.st15{fill:#FF97A8;}
	.st16{fill:#FF5D7B;}
	.st17{fill:#08478E;}
	.st18{fill:#331239;}
	.st19{fill:#3B2B5B;}
	.st20{fill:#380A37;}
	.st21{fill:#B7CADE;}
	.st22{fill:#5E87B5;}
	.st23{fill:#295A6E;}
	.st24{fill:#3E7687;}
	.st25{fill:#F39734;}
	.st26{fill:none;}
	.st27{fill:#EF7F19;}
	.st28{fill:#FDCA49;}
	.st29{fill:#86B7DB;}
	.st30{fill:#FF97A6;}
	.st31{fill:#C95D77;}
	.st32{fill:#30193B;}
	.st33{fill:#FFCB48;}
	.st34{fill:#FF9A2E;}
	.st35{clip-path:url(#SVGID_2_);}
	.st36{fill:#0D6EB6;}
	.st37{clip-path:url(#SVGID_4_);}
	.st38{fill:#EFEFF6;}
	.st39{fill:#EF7F18;}
	.st40{fill:#4071A8;}
	.st41{fill:#0A498F;}
	.st42{fill:#3A7182;}
	.st43{fill:#E6E6E6;}
	.st44{fill:#FF9A19;}
	.st45{fill:#FFCB37;}
	.st46{opacity:0.1;}
	.st47{fill:#30183A;}
	.st48{fill:#F194A5;}
	.st49{fill:#C85D77;}
	.st50{fill:#BA2F7D;}
	.st51{fill:#B12384;}
	.st52{fill:#62BCD6;}
	.st53{fill:#BF7323;}
	.st54{fill:#80CAD5;}
	.st55{fill:#767579;}
	.st56{opacity:0.8;}
	.st57{fill:#9BCBE9;}
	.st58{fill:#3E275C;}
	.st59{fill:#406EB3;}
	.st60{fill:#DDD6FC;}
	.st61{fill:#EEEAFE;}
	.st62{fill:#7F65C1;}
	.st63{fill:none;stroke:#EEEAFE;stroke-width:0.5019;stroke-miterlimit:10;}
	.st64{fill:#EAE6FF;}
	.st65{fill:#D4EAF5;}
	.st66{fill:#A9CAE7;}
	.st67{fill:#ABC8E6;}
	.st68{fill:#D1C5FC;}
	.st69{fill:#CBB3FC;}
	.st70{fill:#CEAFF9;}
	.st71{fill:#FFC200;}
	.st72{fill:#E8853A;}
	.st73{fill:#5AC0F9;}
	.st74{fill:#53F9F4;}
	.st75{fill:#BF3904;}
	.st76{fill:#822302;}
	.st77{fill:#7964A8;}
	.st78{fill:#8865C4;}
	.st79{fill:#CCEAF5;}
	.st80{fill:#FFD67C;}
	.st81{fill:url(#SVGID_5_);}
	.st82{fill:url(#SVGID_6_);}
	.st83{fill:url(#SVGID_7_);}
	.st84{fill:url(#SVGID_8_);}
	.st85{fill:url(#SVGID_9_);}
	.st86{fill:url(#SVGID_10_);}
	.st87{fill:url(#SVGID_11_);}
	.st88{fill:#54565A;}
	.st89{fill:#9F79FF;}
	.st90{fill:#F2EEFF;}
	.st91{opacity:0.4;}
	.st92{fill:#E45D79;}
	.st93{fill:#FFE5AE;}
	.st94{fill:#FF97A7;}
	.st95{fill:#82CBEA;}
	.st96{fill:#BFEAF5;}
	.st97{fill:#8FD9ED;}
	.st98{fill:#43225D;}
	.st99{fill:#5C319A;}
	.st100{opacity:0.5;fill:url(#SVGID_12_);}
	.st101{fill:#632678;}
	.st102{fill:none;stroke:#FFFFFF;stroke-width:2;stroke-linecap:round;stroke-linejoin:round;stroke-miterlimit:10;}
	.st103{fill:none;stroke:#EEEAFE;stroke-miterlimit:10;}
	.st104{fill:#F98A8A;}
	.st105{fill:#AACBE8;}
	.st106{fill:#99B4DD;}
	.st107{fill:#6A54AF;}
	.st108{fill:#FD9E38;}
	.st109{fill:#DBCFFD;}
	.st110{fill:#B5B5B5;}
	.st111{fill:#80540A;}
	.st112{fill:#AD7121;}
	.st113{fill:#D5EAF5;}
	.st114{opacity:0.3;fill:#3B2B5B;}
	.st115{fill:#BAA4FF;}
	.st116{fill:#4E3E75;}
	.st117{fill:#D07BB5;}
	.st118{fill:#C14F9D;}
	.st119{fill:none;stroke:#000000;stroke-width:0.75;stroke-linecap:round;stroke-linejoin:round;stroke-miterlimit:10;}
	.st120{fill:#B3B3B3;}
	.st121{fill:#F2F2F2;}
	.st122{fill:#141414;}
	.st123{fill:#A3A3A3;}
	.st124{fill:#474747;}
	.st125{fill:#C7C7C7;}
	.st126{fill:#DBDBDB;}
</style>
<g id="Fondo">
</g>
<g id="Capa_7">
</g>
<g id="Contenido">
</g>
<g id="Footer">
</g>
<g id="Header">
</g>
<g id="Alertas">
</g>
<g id="Capa_2">
	<g>
		<g>
			
				<rect x="131.4" y="0" transform="matrix(-1 4.480537e-11 -4.480537e-11 -1 363.1503 53.422)" class="st89" width="100.4" height="53.4"/>
		</g>
		<g>
			<g>
				
					<rect x="102.3" y="17.1" transform="matrix(-1 4.489419e-11 -4.489419e-11 -1 299.8214 37.9738)" class="st90" width="95.3" height="3.7"/>
			</g>
			<g>
				
					<rect x="119" y="24.5" transform="matrix(-1 4.477562e-11 -4.477562e-11 -1 316.5299 52.7606)" class="st90" width="78.6" height="3.7"/>
			</g>
			<g>
				
					<rect x="141.6" y="31.8" transform="matrix(-1 4.481869e-11 -4.481869e-11 -1 339.1508 67.3434)" class="st90" width="56" height="3.7"/>
			</g>
		</g>
		<g class="st91">
			<polygon class="st0" points="147.4,45.7 263.4,45.7 263.4,108.8 245.5,85.9 147.4,85.9 			"/>
		</g>
		<g>
			<g>
				<g>
					<path class="st0" d="M1.5,45.7c-1.5,1.7-2,4.3-1.1,6.5l63-1.1c1.8-2.8,0.5-7.1-2.5-8.5c-3-1.4-7.1,0.2-8.2,3.4
						c0.2-4.7-0.5-9.5-2.6-13.7c-2.1-4.2-5.7-7.7-10.2-9.2c-4.5-1.4-9.8-0.5-13.1,2.7c-4,3.9-4.7,10-5,15.6
						c-1.5-2.7-4.8-4.3-7.8-3.8c-3.1,0.5-5.6,3.1-6.2,6.2C5.6,43.2,3.1,44,1.5,45.7z"/>
				</g>
			</g>
		</g>
		<g>
			<path class="st14" d="M172.7,303.3c-33.5,0-60.7,2.9-60.7,6.4s27.2,6.4,60.7,6.4s60.7-2.9,60.7-6.4S206.2,303.3,172.7,303.3z"/>
			<g>
				<g>
					<g>
						
							<rect x="161.8" y="190.7" transform="matrix(0.9812 -0.1928 0.1928 0.9812 -38.3987 35.6067)" class="st57" width="3.8" height="48.8"/>
						
							<rect x="205.1" y="190.7" transform="matrix(-0.9812 -0.1928 0.1928 -0.9812 368.685 466.0547)" class="st57" width="3.8" height="48.8"/>
						
							<rect x="139.7" y="238.2" transform="matrix(-0.9812 -0.1928 0.1928 -0.9812 227.7506 570.6622)" class="st57" width="3.8" height="72.1"/>
						<path class="st18" d="M150.8,194L150.8,194c-2.6-12.5,8.4-23.5,20.9-20.9l11.4,2.4c2.4,0.5,4.8,0.5,7.2,0l9.1-1.9
							c12.9-2.7,24,9.5,20.1,22.1l0,0c-2.4,7.9-9.7,13.3-18,13.3h-32.3C160.3,209,152.6,202.8,150.8,194z"/>
						
							<rect x="204.2" y="238.2" transform="matrix(0.9812 -0.1928 0.1928 0.9812 -49.0147 44.8866)" class="st57" width="3.8" height="72.1"/>
						<path class="st18" d="M203.7,241.8H144c-1.8,0-3.3-1.5-3.3-3.3l0,0c0-1.8,1.5-3.3,3.3-3.3h59.7c1.8,0,3.3,1.5,3.3,3.3l0,0
							C207,240.3,205.5,241.8,203.7,241.8z"/>
					</g>
					<path class="st92" d="M163.7,198.2c0,0-33.5,8.4-34.9,34.7c-1.4,26.4,9.9,80.6,9.9,80.6l1.6-0.4c0,0,6.6-71.1,7.4-76.7
						c0.8-5.6,35.6-7.3,41.8-17.5c6.2-10.2,4.1-20.7,4.1-20.7H163.7z"/>
					<g>
						<g>
							<path class="st45" d="M174.3,188.3c-7,1.3-22.9-6.7-22.5-18.5c0.5-16.1,17.5-20.4,20.4-25.5c3.9-6.8,8-13.8,13.8-6.3
								c0,0,4.6-2,6.1,4.5c1.4,6.1,7.1,11.4,9.3,15C221.2,189.6,191.3,185.1,174.3,188.3z"/>
						</g>
					</g>
					<g>
						<path class="st93" d="M154.6,164.9c1.4-5.5,9.2-10.1,14.5-13.7c5.4-3.6,9.7-13.1,11.6-14.7c1.1-0.9,2.4-0.8,3.4-0.5
							c-4.8-3.8-8.4,2.3-11.9,8.3c-2.9,5-19.9,9.3-20.4,25.5c-0.1,2.5,0.6,4.9,1.8,7C152.9,171.8,154.1,166.7,154.6,164.9z"/>
					</g>
					<g>
						<g>
							<path class="st58" d="M71.4,283.1c1.1-0.8,4.4-0.4,7,0c-0.9,0.1-1.9,0.4-0.9,1.2c1.3,1.2,5,2.4,6.5,1.8c0,1-0.5,2.2-0.9,3
								C82.6,290,69.6,284.4,71.4,283.1z"/>
						</g>
						<g>
							<path class="st94" d="M77.5,284.2c-0.9-0.8,0.1-1.1,0.9-1.2c1.6,0.3,2.7,0.4,3,0.4c0.8,0,1.6-0.4,1.6-0.4l0.8,0.2
								c0,0,0.2,2.4,0.2,2.7C82.5,286.6,78.8,285.4,77.5,284.2z"/>
						</g>
					</g>
					<g>
						<g>
							<path class="st58" d="M130.8,320.2c-0.4-1.3,4.3-5.3,6.1-6c-0.5,0.5-1.3,1.5-0.5,1.8c1.2,0.6,3.6-0.3,4.5-1.6
								c0.3,1,0.3,2.4,0.3,3.3C141.1,318.9,131.8,323.2,130.8,320.2z"/>
						</g>
						<g>
							<path class="st92" d="M135,317.1c-0.8-0.4,1.1-2.3,1.6-2.8c1.4-1,1.8-1.1,2-1.2c0.5-0.3,0.7-1.1,0.7-1.1l0.9-0.1
								c0,0-0.3,0.8,0.3,1.7c0.1,0.2,0.2,0.5,0.3,0.8C140,315.7,136.2,317.7,135,317.1z"/>
						</g>
					</g>
					<g>
						<path class="st44" d="M201.4,157.6c-2.2-3.6-7.9-8.9-9.3-15c-1.5-6.5-6.1-4.5-6.1-4.5s0.8,1,1.7,4.1c0.9,3-5.2,4.1-5.2,4.1
							l0.7,40.9C199.5,185.6,218,184.5,201.4,157.6z"/>
					</g>
					<path class="st15" d="M160.5,207.1c6.5-7.2,10.7-33.3,5.2-38.9c-2-2-4-3.2-7.5-1.1c-4.6,2.9-4.8,32.8-4.8,32.8
						s-1.1-0.2-2.9-0.5C152.1,201.6,157,204.9,160.5,207.1z"/>
					<g>
						<path class="st16" d="M160.5,207.1c5.1-5.6,8.8-22.8,7.5-32.7c0,0,0,0,0,0c0-0.2,0-0.3-0.1-0.5c0,0,0-0.1,0-0.1
							c0-0.1,0-0.3-0.1-0.4c0,0,0-0.1,0-0.1c0-0.1,0-0.3-0.1-0.4c0,0,0-0.1,0-0.1c0-0.1-0.1-0.2-0.1-0.4c0-0.1,0-0.1,0-0.2
							c0-0.1-0.1-0.2-0.1-0.4c0,0,0-0.1,0-0.1c-0.1-0.2-0.1-0.4-0.2-0.6c0-0.1,0-0.1-0.1-0.2c0-0.1-0.1-0.1-0.1-0.2
							c0-0.1-0.1-0.2-0.1-0.2c0-0.1-0.1-0.1-0.1-0.2c0-0.1-0.1-0.1-0.1-0.2c0-0.1-0.1-0.1-0.1-0.2c0-0.1-0.1-0.1-0.1-0.2
							c0-0.1-0.1-0.1-0.1-0.2c0-0.1-0.1-0.1-0.1-0.2c0-0.1-0.1-0.1-0.1-0.2c0-0.1-0.1-0.1-0.1-0.2c0,0-0.1-0.1-0.1-0.1
							c-0.1-0.1-0.1-0.1-0.2-0.2c0,0-0.1-0.1-0.1-0.1c-0.1-0.1-0.2-0.2-0.3-0.3l0,0c-0.1-0.1-0.3-0.3-0.4-0.4
							c-0.2-0.2-0.4-0.4-0.7-0.6c-0.4-0.3-0.8-0.6-1.3-0.8c0.2,7.6,0.5,26.6-2.1,33.7c-0.9,2.3-2.2,3.9-3.8,5
							C158.5,205.8,159.5,206.5,160.5,207.1z"/>
					</g>
					<path class="st95" d="M158.2,167.1c3.5-2.2,5.6-0.9,7.5,1.1c2.6,2.6,3,9.7,2.1,17.2l-13.6-3.4
						C154.9,175,156.1,168.4,158.2,167.1z"/>
					<g>
						<path class="st16" d="M167.2,170.9L167.2,170.9c0,0,0-0.1,0-0.1C167.2,170.8,167.2,170.9,167.2,170.9z"/>
						<path class="st16" d="M166.6,169.5c0,0,0.1,0.1,0.1,0.1C166.7,169.5,166.6,169.5,166.6,169.5
							C166.6,169.5,166.6,169.5,166.6,169.5z"/>
						<polygon class="st16" points="167.3,171.1 167.3,171.1 167.3,171.1 						"/>
						<path class="st16" d="M168.2,178.9c0-0.1,0-0.2,0-0.3C168.2,178.7,168.2,178.8,168.2,178.9z"/>
						<path class="st16" d="M165.9,168.5C165.9,168.5,166,168.5,165.9,168.5C166,168.5,165.9,168.5,165.9,168.5
							C165.9,168.5,165.9,168.5,165.9,168.5z"/>
						<path class="st16" d="M166.2,168.8c0,0,0.1,0.1,0.1,0.1C166.2,168.8,166.2,168.8,166.2,168.8
							C166.2,168.8,166.2,168.8,166.2,168.8z"/>
						<polygon class="st16" points="165.7,168.2 165.7,168.2 165.7,168.2 165.7,168.2 						"/>
						<path class="st16" d="M167.9,173.9c0,0.1,0,0.2,0,0.3C167.9,174.1,167.9,174,167.9,173.9C167.9,173.9,167.9,173.9,167.9,173.9
							z"/>
						<polygon class="st16" points="168,174.4 168,174.4 168,174.4 						"/>
						<path class="st16" d="M168.1,175.5c0,0,0-0.1,0-0.1C168.1,175.4,168.1,175.4,168.1,175.5z"/>
						<path class="st16" d="M167.9,173.8C167.9,173.8,167.9,173.8,167.9,173.8c0-0.1,0-0.1,0-0.2
							C167.9,173.7,167.9,173.7,167.9,173.8z"/>
						<path class="st16" d="M167.7,172.8c0,0.1,0,0.1,0,0.2C167.8,172.9,167.7,172.9,167.7,172.8
							C167.7,172.8,167.7,172.8,167.7,172.8z"/>
						<path class="st16" d="M168.2,177.7c0-0.1,0-0.2,0-0.3C168.2,177.5,168.2,177.6,168.2,177.7z"/>
						<path class="st16" d="M167.5,171.8c0,0.1,0.1,0.2,0.1,0.4v0C167.6,172.1,167.5,171.9,167.5,171.8L167.5,171.8z"/>
						<path class="st16" d="M168.2,176.6c0-0.1,0-0.2,0-0.2C168.2,176.4,168.2,176.5,168.2,176.6z"/>
						<path class="st16" d="M167.8,185.3c0-0.3,0.1-0.7,0.1-1C167.9,184.6,167.9,184.9,167.8,185.3z"/>
						<path class="st16" d="M168.1,182.6c0-0.2,0-0.4,0-0.6C168.1,182.2,168.1,182.4,168.1,182.6z"/>
						<path class="st16" d="M168,183.9c0-0.3,0.1-0.6,0.1-0.9C168,183.3,168,183.6,168,183.9z"/>
						<path class="st16" d="M168.2,181.3c0-0.2,0-0.3,0-0.5C168.2,180.9,168.2,181.1,168.2,181.3z"/>
						<polygon class="st16" points="165.3,167.8 165.3,167.8 165.3,167.8 						"/>
						<path class="st16" d="M164,166.8C164,166.8,164,166.7,164,166.8C164,166.7,164,166.8,164,166.8z"/>
						<path class="st16" d="M168.2,180.2c0-0.2,0-0.4,0-0.6C168.2,179.8,168.2,180,168.2,180.2z"/>
						<path class="st96" d="M168.2,177.4c0-0.3,0-0.6,0-0.9C168.2,176.9,168.2,177.2,168.2,177.4z"/>
						<path class="st96" d="M167.8,185.4L167.8,185.4c0-0.1,0-0.1,0-0.2C167.8,185.3,167.8,185.4,167.8,185.4z"/>
						<path class="st96" d="M168.1,182c0-0.2,0-0.5,0-0.7C168.2,181.5,168.1,181.8,168.1,182z"/>
						<path class="st96" d="M168.2,180.8c0-0.2,0-0.4,0-0.6C168.2,180.4,168.2,180.6,168.2,180.8z"/>
						<path class="st96" d="M167.9,184.2c0-0.1,0-0.2,0-0.3C168,184,168,184.1,167.9,184.2z"/>
						<path class="st96" d="M168.2,179.6c0-0.2,0-0.4,0-0.7C168.2,179.2,168.2,179.4,168.2,179.6z"/>
						<path class="st96" d="M168.1,183c0-0.2,0-0.3,0-0.5C168.1,182.7,168.1,182.9,168.1,183z"/>
						<path class="st96" d="M168.2,178.6c0-0.3,0-0.6,0-0.9C168.2,178,168.2,178.3,168.2,178.6z"/>
						<path class="st96" d="M167.1,170.5c0-0.1-0.1-0.1-0.1-0.2c0-0.1-0.1-0.2-0.1-0.2c0-0.1-0.1-0.1-0.1-0.2c0-0.1-0.1-0.1-0.1-0.2
							c0,0,0,0,0,0c0.2,0.4,0.4,0.8,0.5,1.2c0,0,0-0.1,0-0.1C167.1,170.6,167.1,170.5,167.1,170.5z"/>
						<path class="st96" d="M167.3,171.1c0.1,0.2,0.1,0.5,0.2,0.7c0,0,0-0.1,0-0.1C167.4,171.5,167.4,171.3,167.3,171.1z"/>
						<path class="st96" d="M166.4,169.1c0-0.1-0.1-0.1-0.1-0.2c0,0,0,0,0,0c0.1,0.2,0.2,0.4,0.4,0.6c0-0.1-0.1-0.1-0.1-0.2
							C166.5,169.2,166.4,169.1,166.4,169.1z"/>
						<path class="st96" d="M168,174.2c0,0.1,0,0.1,0,0.2c0,0,0,0,0,0C168,174.3,168,174.2,168,174.2z"/>
						<path class="st96" d="M166,168.5c0.1,0.1,0.1,0.2,0.2,0.3C166.1,168.7,166.1,168.6,166,168.5C166,168.5,166,168.5,166,168.5z"
							/>
						<path class="st96" d="M167.6,172.3c0-0.1,0-0.1,0-0.2c0.1,0.2,0.1,0.4,0.1,0.7c0,0,0-0.1,0-0.1
							C167.7,172.6,167.7,172.4,167.6,172.3z"/>
						<path class="st96" d="M167.8,173.2c0-0.1,0-0.2,0-0.2c0,0.2,0.1,0.4,0.1,0.6c0-0.1,0-0.2,0-0.3
							C167.8,173.3,167.8,173.3,167.8,173.2z"/>
						<path class="st96" d="M165.9,168.5c-0.1-0.1-0.2-0.2-0.2-0.3C165.8,168.3,165.9,168.4,165.9,168.5z"/>
						<path class="st96" d="M167.9,173.9C167.9,173.9,167.9,173.8,167.9,173.9C167.9,173.8,167.9,173.9,167.9,173.9z"/>
						<path class="st96" d="M168.1,175.3c0-0.3-0.1-0.6-0.1-0.9C168,174.7,168.1,175,168.1,175.3z"/>
						<path class="st96" d="M167.3,171.1c0-0.1,0-0.1-0.1-0.2C167.2,171,167.3,171,167.3,171.1z"/>
						<path class="st96" d="M165.7,168.2c-0.1-0.1-0.3-0.3-0.4-0.4C165.4,167.9,165.6,168,165.7,168.2z"/>
						<path class="st96" d="M168.2,176.3c0-0.3,0-0.6-0.1-0.9C168.1,175.8,168.1,176,168.2,176.3z"/>
						<path class="st96" d="M164,166.8c0.4,0.3,0.8,0.6,1.2,1c-0.2-0.2-0.4-0.4-0.7-0.6C164.4,167,164.2,166.9,164,166.8z"/>
						<path class="st97" d="M162.9,166.4c-0.2,0-0.4,0.1-0.7,0.1c0,0-0.1,0-0.1,0c-0.2,0.1-0.4,0.1-0.7,0.2
							c-0.3,0.1-0.5,0.2-0.8,0.3c0,0,0,0,0,0c-0.2,0.1-0.3,0.1-0.5,0.2c0,0,0,0,0,0c-0.1,0.1-0.2,0.1-0.3,0.2c0,0,0,0,0,0
							c0,0,0,0-0.1,0c-0.1,0-0.1,0.1-0.2,0.1c0,0-0.1,0.1-0.1,0.1c0,0,0,0,0,0c-0.1,0-0.1,0.1-0.2,0.1c0,0-0.1,0.1-0.1,0.1
							c-0.1,0-0.1,0.1-0.2,0.1c0,0-0.1,0.1-0.1,0.1c0,0,0,0,0,0c-0.1,0.1-0.1,0.1-0.2,0.2c0,0-0.1,0.1-0.1,0.1
							c-0.1,0.1-0.1,0.1-0.2,0.2c0,0.1-0.1,0.1-0.1,0.2c0,0.1-0.1,0.1-0.1,0.2c0,0,0,0.1-0.1,0.1c0,0-0.1,0.1-0.1,0.1
							c0,0.1-0.1,0.1-0.1,0.2c0,0,0,0,0,0c-0.1,0.2-0.2,0.3-0.3,0.5c0,0,0,0.1-0.1,0.1c-0.1,0.1-0.1,0.2-0.2,0.3
							c0,0-0.1,0.1-0.1,0.1c-0.1,0.1-0.1,0.2-0.2,0.3c0,0,0,0.1-0.1,0.1c0,0,0,0.1-0.1,0.1c0,0.1-0.1,0.1-0.1,0.2c0,0,0,0.1-0.1,0.1
							c0,0.1-0.1,0.2-0.1,0.2c0,0,0,0.1-0.1,0.1c0,0,0,0.1,0,0.1c0,0.1-0.1,0.2-0.1,0.2c0,0.1-0.1,0.1-0.1,0.2c0,0,0,0,0,0
							c0,0,0,0,0,0c-0.1,0.3-0.2,0.5-0.4,0.8c0,0,0,0.1-0.1,0.1c-0.1,0.3-0.2,0.5-0.3,0.8c0,0.1-0.1,0.1-0.1,0.2
							c-0.1,0.3-0.2,0.5-0.3,0.8c0,0.1-0.1,0.2-0.1,0.3c-0.1,0.3-0.2,0.5-0.2,0.8c0,0.1-0.1,0.2-0.1,0.3c-0.1,0.2-0.1,0.4-0.2,0.6
							c0,0.2-0.1,0.3-0.1,0.5c-0.1,0.2-0.1,0.4-0.1,0.6c0,0.2-0.1,0.3-0.1,0.5c-0.1,0.2-0.1,0.5-0.2,0.7c0,0.2-0.1,0.3-0.1,0.5
							c0,0.1-0.1,0.3-0.1,0.5c-0.1,0.3-0.1,0.5-0.2,0.8c0,0.1,0,0.2-0.1,0.3c-0.1,0.3-0.1,0.6-0.2,1c0,0,0,0.1,0,0.1l4.5,0.5
							C159.6,176.4,161.7,170,162.9,166.4z"/>
					</g>
					<g>
						<path class="st96" d="M164.2,165.5c2.6-3.1,15-5.4,26.8-3.6c6.1,1,13.9,4.6,15.1,8.4c2.4,7.7-12.8,24.3-12.5,27.9
							c-6.4,2.9-26.7,1.6-29.9,0C163.7,197.9,159.4,171.2,164.2,165.5z"/>
					</g>
					<g>
						<path class="st94" d="M183.8,154.8c0,0,0.8,7.2,0.5,8c-0.4,0.8-1.7,1.9-2.6,0.1c-0.8-1.8-0.1-8.1-0.1-8.1H183.8z"/>
					</g>
					<g>
						<path class="st92" d="M184.3,160.1c-0.8,0.6-2,1-3,0.3c0-1.3,0.1-2.8,0.1-3.9h2.5C184.1,157.5,184.3,158.9,184.3,160.1z"/>
					</g>
					<g>
						<path class="st94" d="M177.8,154.2c-0.6-1.1,4.5-7.7,4.7-7.9c1.2,0.2,2.7,0.2,3.8,0.8c1.2,0.7,1.3,2.4,1.4,3.7
							c0.1,1.3-0.2,3.5-0.9,4.6c-0.7,1-2.6,1.9-3.8,2C179.6,157.4,178.6,156.6,177.8,154.2z"/>
					</g>
					<g>
						<g>
							<path class="st20" d="M187.5,154L187.5,154l0-4.8l0.6,0c1.3,0.1,2.3,1.3,2.1,2.7l0,0C190,153.2,188.8,154.1,187.5,154z"/>
						</g>
						<g>
							<path class="st20" d="M176.4,146.5c1-2.2,2.9-3.5,5.3-3.7c0,0,0.1,0,0.1,0c2.3-0.2,4.1,0.3,5.5,1.6c1.5,1.4,2.1,4.4,2,5.9
								l-1.3-0.8c0-1.3-0.4-3-1.6-4.2c-1-1-2.5-1.4-4.5-1.2C178.8,144.3,176.1,147.2,176.4,146.5z"/>
						</g>
						<ellipse class="st20" cx="183.9" cy="156.1" rx="0.9" ry="0.7"/>
						<path class="st20" d="M185.7,156.8c-0.7,0-1.2-0.2-1.3-0.2l0.2-0.6c0,0,1.5,0.5,2.6-0.2c0.6-0.4,1-1.1,1.1-2.2l0.6,0.1
							c-0.1,1.2-0.6,2.1-1.4,2.6C186.9,156.7,186.2,156.8,185.7,156.8z"/>
					</g>
					<path class="st94" d="M179.9,200.9c-8.9,0.3-21.5-2.4-35.8,0c-14.3,2.4-28,7.5-35.6,25.3c-7.5,17.8-26.2,57.3-26.2,57.3
						l1.5,1.1c0,0,45-49.5,49-60.7c0,0,30.7,14.6,46.8,13.9c24.9-1,25.4-29.4,14.1-39.6C193.6,198.2,185.1,200.8,179.9,200.9z"/>
					<path class="st98" d="M151.8,200.1c0,0,7.1,34.1,6.7,37.7c0,0,12.6,2,18.5,2.3c9,0.4,18.4-4.4,21.6-9.2c3-4.6,7.7-22.7-5-32.6
						c0,0-25,2.2-29.9,0L151.8,200.1z"/>
				</g>
				<g>
					<path class="st15" d="M149.1,202.5c0,0-4.3,0.4-5.6-0.9c-2.2-2.1-3.2-4.9-2.7-5.4c0.6-0.5,4.4,1.6,4.9,2.3
						c0.5,0.6,3.8,0.9,5,2.2C151.1,201.1,150.5,202.2,149.1,202.5z"/>
					<path class="st15" d="M198.7,208c-14.4,11.1-51.1-6.7-51.1-6.7s8.9-5.8,21.5-4.9c5,0.4,23.4,3.4,23.4,3.4s0.2-29.9,4.8-32.8
						c3.5-2.2,5.6-0.9,7.5,1.1C210.7,174.1,205.8,202.6,198.7,208z"/>
					<g>
						<path class="st16" d="M182,207.5c4,0.2,15.1,1.6,18.4-7.5c2.7-7.1,2.4-26.1,2.1-33.7c0.4,0.2,0.9,0.5,1.3,0.8
							c0.2,0.2,0.4,0.4,0.7,0.6c0.1,0.1,0.3,0.3,0.4,0.4l0,0l0,0c0.1,0.1,0.2,0.2,0.2,0.3c0,0,0.1,0.1,0.1,0.1
							c0.1,0.1,0.1,0.1,0.2,0.2c0,0,0.1,0.1,0.1,0.1c0,0.1,0.1,0.1,0.1,0.2c0,0.1,0.1,0.1,0.1,0.2c0,0.1,0.1,0.1,0.1,0.2
							c0,0.1,0.1,0.1,0.1,0.2c0,0.1,0.1,0.1,0.1,0.2c0,0.1,0.1,0.1,0.1,0.2c0,0.1,0.1,0.1,0.1,0.2c0,0.1,0.1,0.1,0.1,0.2
							c0,0.1,0.1,0.2,0.1,0.2c0,0.1,0.1,0.1,0.1,0.2c0,0.1,0,0.1,0.1,0.2c0.1,0.2,0.1,0.4,0.2,0.6c0,0,0,0.1,0,0.1
							c0,0.1,0.1,0.2,0.1,0.4c0,0.1,0,0.1,0,0.2c0,0.1,0.1,0.2,0.1,0.4c0,0,0,0.1,0,0.1c0,0.1,0.1,0.3,0.1,0.4c0,0,0,0.1,0,0.1
							c0,0.1,0,0.3,0.1,0.4c0,0,0,0.1,0,0.1c0,0.2,0,0.3,0.1,0.5c0,0,0,0,0,0c1.3,10.6-2.9,29.3-8.5,33.6
							c-14.4,11.1-51.1-6.7-51.1-6.7s0.6-0.4,1.6-0.9C163.6,203.8,179.9,207.5,182,207.5z"/>
					</g>
					<g>
						<linearGradient id="SVGID_2_" gradientUnits="userSpaceOnUse" x1="144.7187" y1="205.8095" x2="185.8713" y2="166.6998">
							<stop  offset="0" style="stop-color:#00C4BB"/>
							<stop  offset="1" style="stop-color:#00C4BB;stop-opacity:0"/>
						</linearGradient>
						<path style="opacity:0.5;fill:url(#SVGID_2_);" d="M122.9,178.8l50.4-56.5c0,0,35.9,14.2,56.9,58.8l-68.6,21.1"/>
						<path class="st50" d="M127.4,201.7l-4.8-20.4c-0.7-2.9,1.5-5.6,4.4-5.6h34.2c3.1,0,5.3,3,4.3,5.9l-4.1,20.1H127.4z"/>
						<path class="st50" d="M127.4,201.7l0.5,1.6c0.6,1.8,2.3,3.1,4.2,3.1h42.5c1.9,0,3.5-1.3,4-3.1l0.5-2l-20,0.4H127.4z"/>
						<path class="st38" d="M145.4,188.7c0,1.4-1.2,2.6-2.6,2.6c-1.4,0-2.6-1.2-2.6-2.6c0-1.4,1.2-2.6,2.6-2.6
							C144.2,186.1,145.4,187.3,145.4,188.7z"/>
					</g>
					<path class="st15" d="M125.7,195.8c0,0-1-2.3-0.6-3c0.4-0.6,1,2,1.6,2.5c0.6,0.5,3.7,2.9,3.7,3.8c0,0.9-1.5,0.2-1.5,0.2
						s1.6,1.3,1.1,1.6c-0.5,0.3-2.2,0.6-3.4-1.3C125.6,197.6,125.7,195.8,125.7,195.8z"/>
					<path class="st95" d="M197.4,167.1c3.5-2.2,5.6-0.9,7.5,1.1c2.6,2.6,3,9.7,2.1,17.2l-13.6-3.4
						C194.2,175,195.3,168.4,197.4,167.1z"/>
					<g>
						<path class="st16" d="M206.5,170.9L206.5,170.9c0,0,0-0.1,0-0.1C206.5,170.8,206.5,170.9,206.5,170.9z"/>
						<path class="st16" d="M205.9,169.5c0,0,0.1,0.1,0.1,0.1C205.9,169.5,205.9,169.5,205.9,169.5
							C205.9,169.5,205.9,169.5,205.9,169.5z"/>
						<polygon class="st16" points="206.5,171.1 206.5,171.1 206.5,171.1 						"/>
						<path class="st16" d="M207.5,178.9c0-0.1,0-0.2,0-0.3C207.5,178.7,207.5,178.8,207.5,178.9z"/>
						<path class="st16" d="M205.2,168.5C205.2,168.5,205.2,168.5,205.2,168.5C205.2,168.5,205.2,168.5,205.2,168.5
							C205.2,168.5,205.2,168.5,205.2,168.5z"/>
						<path class="st16" d="M205.4,168.8c0,0,0.1,0.1,0.1,0.1C205.5,168.8,205.5,168.8,205.4,168.8
							C205.4,168.8,205.4,168.8,205.4,168.8z"/>
						<polygon class="st16" points="204.9,168.2 204.9,168.2 204.9,168.2 204.9,168.2 						"/>
						<path class="st16" d="M207.2,173.9c0,0.1,0,0.2,0,0.3C207.2,174.1,207.2,174,207.2,173.9C207.2,173.9,207.2,173.9,207.2,173.9
							z"/>
						<polygon class="st16" points="207.2,174.4 207.2,174.4 207.2,174.4 						"/>
						<path class="st16" d="M207.4,175.5c0,0,0-0.1,0-0.1C207.3,175.4,207.4,175.4,207.4,175.5z"/>
						<path class="st16" d="M207.2,173.8C207.2,173.8,207.2,173.8,207.2,173.8c0-0.1,0-0.1,0-0.2
							C207.1,173.7,207.2,173.7,207.2,173.8z"/>
						<path class="st16" d="M207,172.8c0,0.1,0,0.1,0,0.2C207,172.9,207,172.9,207,172.8C207,172.8,207,172.8,207,172.8z"/>
						<path class="st16" d="M207.5,177.7c0-0.1,0-0.2,0-0.3C207.5,177.5,207.5,177.6,207.5,177.7z"/>
						<path class="st16" d="M206.8,171.8c0,0.1,0.1,0.2,0.1,0.4v0C206.8,172.1,206.8,171.9,206.8,171.8L206.8,171.8z"/>
						<path class="st16" d="M207.4,176.6c0-0.1,0-0.2,0-0.2C207.4,176.4,207.4,176.5,207.4,176.6z"/>
						<path class="st16" d="M207.1,185.3c0-0.3,0.1-0.7,0.1-1C207.2,184.6,207.1,184.9,207.1,185.3z"/>
						<path class="st16" d="M207.3,182.6c0-0.2,0-0.4,0-0.6C207.4,182.2,207.4,182.4,207.3,182.6z"/>
						<path class="st16" d="M207.2,183.9c0-0.3,0.1-0.6,0.1-0.9C207.3,183.3,207.3,183.6,207.2,183.9z"/>
						<path class="st16" d="M207.4,181.3c0-0.2,0-0.3,0-0.5C207.4,180.9,207.4,181.1,207.4,181.3z"/>
						<polygon class="st16" points="204.5,167.8 204.5,167.8 204.5,167.8 						"/>
						<path class="st16" d="M203.3,166.8C203.3,166.8,203.2,166.7,203.3,166.8C203.2,166.7,203.3,166.8,203.3,166.8z"/>
						<path class="st16" d="M207.5,180.2c0-0.2,0-0.4,0-0.6C207.5,179.8,207.5,180,207.5,180.2z"/>
						<path class="st96" d="M207.5,177.4c0-0.3,0-0.6,0-0.9C207.5,176.9,207.5,177.2,207.5,177.4z"/>
						<path class="st96" d="M207.1,185.4L207.1,185.4c0-0.1,0-0.1,0-0.2C207.1,185.3,207.1,185.4,207.1,185.4z"/>
						<path class="st96" d="M207.4,182c0-0.2,0-0.5,0-0.7C207.4,181.5,207.4,181.8,207.4,182z"/>
						<path class="st96" d="M207.5,180.8c0-0.2,0-0.4,0-0.6C207.5,180.4,207.5,180.6,207.5,180.8z"/>
						<path class="st96" d="M207.2,184.2c0-0.1,0-0.2,0-0.3C207.2,184,207.2,184.1,207.2,184.2z"/>
						<path class="st96" d="M207.5,179.6c0-0.2,0-0.4,0-0.7C207.5,179.2,207.5,179.4,207.5,179.6z"/>
						<path class="st96" d="M207.3,183c0-0.2,0-0.3,0-0.5C207.3,182.7,207.3,182.9,207.3,183z"/>
						<path class="st96" d="M207.5,178.6c0-0.3,0-0.6,0-0.9C207.5,178,207.5,178.3,207.5,178.6z"/>
						<path class="st96" d="M206.3,170.5c0-0.1-0.1-0.1-0.1-0.2c0-0.1-0.1-0.2-0.1-0.2c0-0.1-0.1-0.1-0.1-0.2c0-0.1-0.1-0.1-0.1-0.2
							c0,0,0,0,0,0c0.2,0.4,0.4,0.8,0.5,1.2c0,0,0-0.1,0-0.1C206.4,170.6,206.3,170.5,206.3,170.5z"/>
						<path class="st96" d="M206.5,171.1c0.1,0.2,0.1,0.5,0.2,0.7c0,0,0-0.1,0-0.1C206.7,171.5,206.6,171.3,206.5,171.1z"/>
						<path class="st96" d="M205.6,169.1c0-0.1-0.1-0.1-0.1-0.2c0,0,0,0,0,0c0.1,0.2,0.2,0.4,0.4,0.6c0-0.1-0.1-0.1-0.1-0.2
							C205.7,169.2,205.7,169.1,205.6,169.1z"/>
						<path class="st96" d="M207.2,174.2c0,0.1,0,0.1,0,0.2c0,0,0,0,0,0C207.2,174.3,207.2,174.2,207.2,174.2z"/>
						<path class="st96" d="M205.2,168.5c0.1,0.1,0.1,0.2,0.2,0.3C205.4,168.7,205.3,168.6,205.2,168.5
							C205.3,168.5,205.2,168.5,205.2,168.5z"/>
						<path class="st96" d="M206.9,172.3c0-0.1,0-0.1,0-0.2c0.1,0.2,0.1,0.4,0.1,0.7c0,0,0-0.1,0-0.1
							C206.9,172.6,206.9,172.4,206.9,172.3z"/>
						<path class="st96" d="M207.1,173.2c0-0.1,0-0.2,0-0.2c0,0.2,0.1,0.4,0.1,0.6c0-0.1,0-0.2,0-0.3
							C207.1,173.3,207.1,173.3,207.1,173.2z"/>
						<path class="st96" d="M205.2,168.5c-0.1-0.1-0.2-0.2-0.2-0.3C205,168.3,205.1,168.4,205.2,168.5z"/>
						<path class="st96" d="M207.2,173.9C207.2,173.9,207.2,173.8,207.2,173.9C207.2,173.8,207.2,173.9,207.2,173.9z"/>
						<path class="st96" d="M207.3,175.3c0-0.3-0.1-0.6-0.1-0.9C207.3,174.7,207.3,175,207.3,175.3z"/>
						<path class="st96" d="M206.5,171.1c0-0.1,0-0.1-0.1-0.2C206.5,171,206.5,171,206.5,171.1z"/>
						<path class="st96" d="M204.9,168.2c-0.1-0.1-0.3-0.3-0.4-0.4C204.7,167.9,204.8,168,204.9,168.2z"/>
						<path class="st96" d="M207.4,176.3c0-0.3,0-0.6-0.1-0.9C207.4,175.8,207.4,176,207.4,176.3z"/>
						<path class="st96" d="M203.3,166.8c0.4,0.3,0.8,0.6,1.2,1c-0.2-0.2-0.4-0.4-0.7-0.6C203.7,167,203.5,166.9,203.3,166.8z"/>
						<path class="st97" d="M202.2,166.4c-0.2,0-0.4,0.1-0.7,0.1c0,0-0.1,0-0.1,0c-0.2,0.1-0.4,0.1-0.7,0.2
							c-0.3,0.1-0.5,0.2-0.8,0.3c0,0,0,0,0,0c-0.2,0.1-0.3,0.1-0.5,0.2c0,0,0,0,0,0c-0.1,0.1-0.2,0.1-0.3,0.2c0,0,0,0,0,0
							c0,0,0,0-0.1,0c-0.1,0-0.1,0.1-0.2,0.1c0,0-0.1,0.1-0.1,0.1c0,0,0,0,0,0c-0.1,0-0.1,0.1-0.2,0.1c0,0-0.1,0.1-0.1,0.1
							c-0.1,0-0.1,0.1-0.2,0.1c0,0-0.1,0.1-0.1,0.1c0,0,0,0,0,0c-0.1,0.1-0.1,0.1-0.2,0.2c0,0-0.1,0.1-0.1,0.1
							c-0.1,0.1-0.1,0.1-0.2,0.2c0,0.1-0.1,0.1-0.1,0.2c0,0.1-0.1,0.1-0.1,0.2c0,0,0,0.1-0.1,0.1c0,0-0.1,0.1-0.1,0.1
							c0,0.1-0.1,0.1-0.1,0.2c0,0,0,0,0,0c-0.1,0.2-0.2,0.3-0.3,0.5c0,0,0,0.1-0.1,0.1c-0.1,0.1-0.1,0.2-0.2,0.3
							c0,0-0.1,0.1-0.1,0.1c-0.1,0.1-0.1,0.2-0.2,0.3c0,0,0,0.1-0.1,0.1c0,0,0,0.1-0.1,0.1c0,0.1-0.1,0.1-0.1,0.2c0,0,0,0.1-0.1,0.1
							c0,0.1-0.1,0.2-0.1,0.2c0,0,0,0.1-0.1,0.1c0,0,0,0.1,0,0.1c0,0.1-0.1,0.2-0.1,0.2c0,0.1-0.1,0.1-0.1,0.2c0,0,0,0,0,0
							c0,0,0,0,0,0c-0.1,0.3-0.2,0.5-0.4,0.8c0,0,0,0.1-0.1,0.1c-0.1,0.3-0.2,0.5-0.3,0.8c0,0.1-0.1,0.1-0.1,0.2
							c-0.1,0.3-0.2,0.5-0.3,0.8c0,0.1-0.1,0.2-0.1,0.3c-0.1,0.3-0.2,0.5-0.2,0.8c0,0.1-0.1,0.2-0.1,0.3c-0.1,0.2-0.1,0.4-0.2,0.6
							c0,0.2-0.1,0.3-0.1,0.5c-0.1,0.2-0.1,0.4-0.1,0.6c0,0.2-0.1,0.3-0.1,0.5c-0.1,0.2-0.1,0.5-0.2,0.7c0,0.2-0.1,0.3-0.1,0.5
							c0,0.1-0.1,0.3-0.1,0.5c-0.1,0.3-0.1,0.5-0.2,0.8c0,0.1,0,0.2-0.1,0.3c-0.1,0.3-0.1,0.6-0.2,1c0,0,0,0.1,0,0.1l4.5,0.5
							C198.8,176.4,200.9,170,202.2,166.4z"/>
					</g>
				</g>
			</g>
			<g>
				<g>
					<path class="st38" d="M143.9,140.7c0,0-10.1-8.3-18.5-7.5s-32.1,26.6-60.6,9.2C36.4,125,38.8,87.4,66.1,73.2
						c24.7-12.8,51.1-3,63.8,32.6C134.5,118.5,143.9,140.7,143.9,140.7z"/>
					<g>
						<path class="st101" d="M100.4,114c-0.2-4.3-2.4-7.6-6.4-9c-1.8-0.6-3.7-0.9-5.6-1.3c-0.6-0.1-0.8-0.3-0.8-0.9
							c0-2.6,0-5.3,0-7.9c0-0.2,0.1-0.5,0.1-0.8c2.6,0.2,4.9,0.9,6.9,2.5c1.6-1.6,3.2-3.1,4.9-4.6c-2.9-2.7-6.3-4-10.1-4.3
							c-0.8-0.1-1-0.3-0.9-1c0-1.1,0-2.1,0-3.2c0-0.2-0.3-0.6-0.5-0.6c-1.7,0-3.3,0-5.1,0c0,1.7,0,3.2,0,4.8
							c-0.5,0.1-0.9,0.2-1.3,0.2c-3,0.5-5.7,1.7-7.7,3.9c-2.2,2.4-2.9,5.4-2.7,8.6c0.2,3.4,1.8,6,4.8,7.7c2.1,1.2,4.4,1.7,6.7,1.9
							c0.7,0.1,0.9,0.3,0.9,1c0,2.7,0,5.4,0,8.2c0,0.3,0,0.6-0.1,0.9c-3.4-0.1-6.4-0.9-8.9-3.2c-1.7,1.6-3.3,3.2-5,4.8
							c0.3,0.3,0.6,0.5,0.8,0.8c3.2,2.8,7.1,4,11.3,4.2c1.1,0.1,1.1,0,1.1,1.2c0,1.6,0,3.1,0,4.6c0.2,0.1,0.2,0.1,0.3,0.1
							c1.4,0,2.8,0,4.2,0c1.1,0,1.2,0,1.2-1.1c0-1.6,0-3.2,0-4.9c0.8-0.2,1.6-0.3,2.3-0.4C95.7,124.9,100.8,121.4,100.4,114z
							 M83.4,103.1c-2,0.1-4.8-1.4-4.9-3.8c-0.1-2.7,2-4.9,4.9-5C83.4,97.2,83.4,100.2,83.4,103.1z M87.6,119.8c0-3.1,0-6.1,0-9.1
							c3-0.2,5.2,1.7,5.2,4.4C92.9,117.8,90.6,119.9,87.6,119.8z"/>
					</g>
				</g>
				<g>
					<path class="st50" d="M111.9,124.9c0,7.3-6,13.3-13.3,13.3c-7.3,0-13.3-6-13.3-13.3s6-13.3,13.3-13.3
						C105.9,111.6,111.9,117.5,111.9,124.9z"/>
					<polyline class="st102" points="94.1,128.6 97.1,131.6 103.8,118.5 					"/>
				</g>
			</g>
			<g>
				<g>
					<path class="st38" d="M217.8,165.2c0,0,7.2-4.8,12.6-3.7c5.4,1.1,19.2,19.5,38.9,10.1c19.7-9.5,20.7-34.1,3.8-45.2
						c-15.3-10-33.1-5.4-43.9,17C225.4,151.4,217.8,165.2,217.8,165.2z"/>
				</g>
				<g>
					<path class="st44" d="M270.9,149.1c-0.1,7.2-6.1,13-13.5,13c-7.4-0.1-13.3-5.9-13.3-13.1c0.1-7.2,6.1-13,13.5-13
						C265,136,271,141.9,270.9,149.1z"/>
					<path class="st45" d="M268.6,149.1c0,7.2-5.7,13-12.7,13c-7-0.1-12.6-5.9-12.5-13.1c0-7.2,5.7-13,12.7-13
						C263,136,268.6,141.9,268.6,149.1z"/>
					<path class="st0" d="M255.6,157.1L255.6,157.1c-3.1,0-5.7-2.6-5.6-5.7l0-0.7l11.4,0.1l0,0.7
						C261.3,154.6,258.7,157.1,255.6,157.1z"/>
					<path class="st18" d="M250.7,145.6c0,0.6-0.5,1.1-1.1,1.1c-0.6,0-1.1-0.5-1.1-1.1c0-0.6,0.5-1.1,1.1-1.1
						C250.2,144.5,250.7,145,250.7,145.6z"/>
					<path class="st18" d="M263.2,145.7c0,0.6-0.5,1.1-1.1,1.1c-0.6,0-1.1-0.5-1.1-1.1s0.5-1.1,1.1-1.1
						C262.7,144.6,263.2,145.1,263.2,145.7z"/>
				</g>
			</g>
		</g>
	</g>
</g>
</svg>
