<?xml version="1.0" encoding="utf-8"?>
<!-- Generator: Adobe Illustrator 23.0.3, SVG Export Plug-In . SVG Version: 6.00 Build 0)  -->
<svg version="1.1" id="Capa_1" xmlns="http://www.w3.org/2000/svg" xmlns:xlink="http://www.w3.org/1999/xlink" x="0px" y="0px"
	 viewBox="0 0 2150 572.9" style="enable-background:new 0 0 2150 572.9;" xml:space="preserve">
<style type="text/css">
	.st0{opacity:5.000000e-02;fill:#FFFFFF;}
</style>
<title>text_01</title>
<g>
	<path class="st0" d="M2106,65.5l-428.8,428.8c-33.3,33.3-87.2,33.3-120.5,0L1127.9,65.5c-33.3-33.3-33.3-87.2,0-120.5l428.8-428.8
		c33.3-33.3,87.2-33.3,120.5,0L2106-55C2139.3-21.7,2139.3,32.2,2106,65.5z"/>
	<path class="st0" d="M1022.1,627.9l-428.8,428.8c-33.3,33.3-87.2,33.3-120.5,0L44,627.9c-33.3-33.3-33.3-87.2,0-120.5L472.8,78.6
		c33.3-33.3,87.2-33.3,120.5,0l428.8,428.8C1055.4,540.7,1055.4,594.6,1022.1,627.9z"/>
</g>
</svg>
